<svg xmlns="http://www.w3.org/2000/svg" xmlns:xlink="http://www.w3.org/1999/xlink"><symbol id="back" viewBox="0 0 511.991 511.991"><path d="M153.433 255.991L381.037 18.033c4.063-4.26 3.917-11.01-.333-15.083-4.229-4.073-10.979-3.896-15.083.333L130.954 248.616c-3.937 4.125-3.937 10.625 0 14.75L365.621 508.7a10.65 10.65 0 007.708 3.292c2.646 0 5.313-.979 7.375-2.958 4.25-4.073 4.396-10.823.333-15.083l-227.604-237.96z"/></symbol><symbol id="behance" viewBox="0 0 97.75 97.75"><path d="M39.337 38.729c0-4.611-3.137-4.611-3.137-4.611H23.294v9.894H35.4c2.092-.001 3.937-.67 3.937-5.283zm-3.136 12.117H23.294v11.85h12.311c1.852-.053 5.27-.633 5.27-5.76 0-6.152-4.674-6.09-4.674-6.09zm33.042-6.835c-6.849 0-7.804 6.835-7.804 6.835h14.565c.001 0 .088-6.835-6.761-6.835z"/><path d="M48.875 0C21.882 0 0 21.883 0 48.875S21.882 97.75 48.875 97.75 97.75 75.867 97.75 48.875 75.868 0 48.875 0zm10.656 28.848h18.294v5.46H59.531v-5.46zm-9.246 28.638c0 13.533-14.084 13.088-14.084 13.088H13.128V26.236H36.2c7.012 0 12.547 3.871 12.547 11.805 0 7.935-6.766 8.438-6.766 8.438 8.919 0 8.304 11.007 8.304 11.007zm19.045 6.993c7.37 0 7.109-4.77 7.109-4.77h7.803c0 12.659-15.172 11.792-15.172 11.792-18.207 0-17.036-16.95-17.036-16.95s-.014-17.034 17.034-17.034c17.947 0 15.434 19.245 15.434 19.245H61.527c0 8.239 7.803 7.717 7.803 7.717z"/></symbol><symbol id="dribbble" viewBox="0 0 97.75 97.75"><path d="M46.927 38.775C42.032 30.117 36.8 22.816 35.746 21.367c-8.416 4.016-14.719 11.764-16.74 21.088h.299c2.816 0 14.484-.226 27.622-3.68zM69.01 25.984C63.628 21.266 56.582 18.4 48.875 18.4c-2.37 0-4.676.273-6.893.789 1.242 1.678 6.471 8.9 11.243 17.631 10.314-3.9 14.934-9.672 15.785-10.836zM57.713 45.988c.208.488.41.975.609 1.459a57.325 57.325 0 016.967-.404c6.951 0 12.768 1.088 14.141 1.365a30.348 30.348 0 00-6.753-18.607c-1.067 1.383-6.229 7.498-16.925 11.904a94.395 94.395 0 011.961 4.283zm-6.744 3.03c.336-.108.676-.207 1.016-.307a101.527 101.527 0 00-2.336-4.879c-13.565 4.027-26.731 4.342-30.522 4.342-.35 0-.617-.002-.801-.006-.006.252-.013.504-.013.754.001 7.752 2.91 14.834 7.693 20.223 1.291-2.133 9.689-15.194 24.963-20.127z"/><path d="M48.875 0C21.882 0 0 21.883 0 48.875S21.882 97.75 48.875 97.75 97.75 75.867 97.75 48.875 75.868 0 48.875 0zm0 85.004c-19.948 0-36.176-16.207-36.177-36.129.002-19.922 16.229-36.127 36.177-36.129 19.948.002 36.175 16.207 36.176 36.129-.001 19.922-16.228 36.129-36.176 36.129z"/><path d="M60.327 52.631c3.801 10.484 5.448 19.082 5.856 21.432 6.692-4.608 11.461-11.811 12.84-20.141-1.16-.354-6.157-1.752-12.543-1.752-1.945 0-4.02.133-6.153.461zm-6.143 1.512c-16.742 5.826-23.078 17.236-23.95 18.949a30.442 30.442 0 0018.642 6.352c4.183 0 8.172-.844 11.806-2.37-.49-2.843-2.269-12.013-6.464-22.943l-.034.012z"/></symbol><symbol id="facebook-logo" viewBox="0 0 97.75 97.75"><path d="M48.875 0C21.882 0 0 21.882 0 48.875S21.882 97.75 48.875 97.75 97.75 75.868 97.75 48.875 75.868 0 48.875 0zm18.646 24.89l-6.76.003c-5.301 0-6.326 2.519-6.326 6.215v8.15h12.641l-.006 12.765H54.436v32.758H41.251V52.023H30.229V39.258h11.022v-9.414c0-10.925 6.675-16.875 16.42-16.875l9.851.015V24.89h-.001z"/></symbol><symbol id="facebook" viewBox="0 0 512 512"><path d="M297.277 508.668zm5.121-.875c-1.02.187-2.039.36-3.058.535 1.02-.176 2.039-.348 3.058-.535zm-17.261 2.547zm4.918-.602zm19.312-3.328zm17.297-4.297c-.726.207-1.453.403-2.18.606.727-.203 1.454-.399 2.18-.606zm-5.23 1.43c-.79.207-1.582.418-2.375.617.793-.2 1.586-.406 2.375-.617zm-6.844 1.711c-.836.195-1.68.379-2.524.566.844-.187 1.688-.37 2.524-.566zm-37.063 5.836zM512 256C512 114.637 397.363 0 256 0S0 114.637 0 256s114.637 256 256 256c1.504 0 3-.031 4.5-.059V312.656h-55V248.56h55v-47.17c0-54.703 33.395-84.477 82.191-84.477 23.368 0 43.454 1.742 49.309 2.52v57.171h-33.648c-26.547 0-31.688 12.618-31.688 31.13v40.824h63.477l-8.274 64.097h-55.203V502.11C433.668 471.434 512 372.852 512 256zM272.914 511.43zm-8.16.406zm0 0"/></symbol><symbol id="google-plus" viewBox="0 0 512 512"><path d="M437.02 74.98C388.668 26.63 324.383 0 256 0S123.332 26.629 74.98 74.98C26.63 123.332 0 187.617 0 256c0 68.379 26.629 132.668 74.98 181.02C123.332 485.37 187.621 512 256 512c68.383 0 132.668-26.629 181.02-74.98C485.37 388.668 512 324.379 512 256c0-68.383-26.629-132.668-74.98-181.02zM191.734 383.465c-70.285 0-127.468-57.18-127.468-127.465s57.183-127.469 127.468-127.469c34.047 0 66.055 13.262 90.13 37.336 5.859 5.856 5.855 15.356 0 21.211-5.86 5.86-15.356 5.856-21.216 0-18.406-18.406-42.878-28.547-68.914-28.547-53.746 0-97.468 43.727-97.468 97.469s43.722 97.465 97.468 97.465c48.645 0 89.075-35.82 96.313-82.465h-96.313c-8.285 0-15-6.715-15-15s6.715-15 15-15H304.2c8.285 0 15 6.715 15 15 0 70.285-57.18 127.465-127.465 127.465zm241-112.465h-17.132v17.133c0 8.285-6.715 15-15 15-8.286 0-15-6.715-15-15V271h-17.133c-8.285 0-15-6.715-15-15s6.715-15 15-15h17.133v-17.133c0-8.285 6.714-15 15-15 8.285 0 15 6.715 15 15V241h17.132c8.286 0 15 6.715 15 15s-6.714 15-15 15zm0 0"/></symbol><symbol id="instagram" viewBox="0 0 512 512"><path d="M305 256c0 27.063-21.938 49-49 49s-49-21.938-49-49 21.938-49 49-49 49 21.938 49 49zm0 0"/><path d="M370.594 169.305a45.546 45.546 0 00-10.996-16.903 45.514 45.514 0 00-16.903-10.996c-5.18-2.011-12.96-4.406-27.293-5.058-15.504-.707-20.152-.86-59.402-.86-39.254 0-43.902.149-59.402.856-14.332.656-22.118 3.05-27.293 5.062a45.483 45.483 0 00-16.903 10.996 45.572 45.572 0 00-11 16.903c-2.011 5.18-4.406 12.965-5.058 27.297-.707 15.5-.86 20.148-.86 59.402 0 39.25.153 43.898.86 59.402.652 14.332 3.047 22.114 5.058 27.293a45.563 45.563 0 0010.996 16.903 45.514 45.514 0 0016.903 10.996c5.18 2.015 12.965 4.41 27.297 5.062 15.5.707 20.144.856 59.398.856 39.258 0 43.906-.149 59.402-.856 14.332-.652 22.118-3.047 27.297-5.062a48.68 48.68 0 0027.899-27.899c2.011-5.18 4.406-12.96 5.062-27.293.707-15.504.856-20.152.856-59.402 0-39.254-.149-43.902-.856-59.402-.652-14.332-3.047-22.118-5.062-27.297zM256 331.485c-41.691 0-75.488-33.794-75.488-75.485s33.797-75.484 75.488-75.484c41.688 0 75.484 33.793 75.484 75.484S297.688 331.484 256 331.484zm78.469-136.313c-9.742 0-17.64-7.899-17.64-17.64s7.898-17.641 17.64-17.641 17.64 7.898 17.64 17.64c-.004 9.742-7.898 17.64-17.64 17.64zm0 0"/><path d="M256 0C114.637 0 0 114.637 0 256s114.637 256 256 256 256-114.637 256-256S397.363 0 256 0zm146.113 316.605c-.71 15.649-3.199 26.333-6.832 35.684a75.164 75.164 0 01-42.992 42.992c-9.348 3.633-20.035 6.117-35.68 6.832-15.675.715-20.683.887-60.605.887-39.926 0-44.93-.172-60.61-.887-15.644-.715-26.331-3.199-35.68-6.832a72.018 72.018 0 01-26.038-16.957 72.044 72.044 0 01-16.953-26.035c-3.633-9.348-6.121-20.035-6.832-35.68-.723-15.68-.891-20.687-.891-60.609s.168-44.93.887-60.605c.71-15.649 3.195-26.332 6.828-35.684a72.013 72.013 0 0116.96-26.035 72.003 72.003 0 0126.036-16.957c9.352-3.633 20.035-6.117 35.684-6.832C211.07 109.172 216.078 109 256 109s44.93.172 60.605.89c15.649.712 26.332 3.196 35.684 6.825a72.061 72.061 0 0126.04 16.96 72.027 72.027 0 0116.952 26.036c3.637 9.352 6.121 20.035 6.836 35.684.715 15.675.883 20.683.883 60.605s-.168 44.93-.887 60.605zm0 0"/></symbol><symbol id="right" viewBox="0 0 511.995 511.995"><path d="M381.039 248.62L146.373 3.287C142.29-.942 135.54-1.13 131.29 2.954c-4.25 4.073-4.396 10.823-.333 15.083L358.56 255.995 130.956 493.954c-4.063 4.26-3.917 11.01.333 15.083a10.63 10.63 0 007.375 2.958 10.65 10.65 0 007.708-3.292L381.039 263.37c3.938-4.125 3.938-10.625 0-14.75z"/></symbol><symbol id="twitter" viewBox="0 0 512 512"><path d="M256 0C114.637 0 0 114.637 0 256s114.637 256 256 256 256-114.637 256-256S397.363 0 256 0zm116.887 199.602c.113 2.52.168 5.05.168 7.593 0 77.645-59.102 167.18-167.184 167.184h.004-.004c-33.184 0-64.062-9.727-90.066-26.395 4.597.543 9.277.813 14.015.813 27.532 0 52.868-9.39 72.98-25.152-25.722-.477-47.41-17.465-54.894-40.813a58.481 58.481 0 0011.043 1.063 58.8 58.8 0 0015.496-2.07c-26.886-5.384-47.14-29.145-47.14-57.598 0-.266 0-.504.007-.75a58.354 58.354 0 0026.614 7.347c-15.778-10.527-26.149-28.523-26.149-48.91a58.597 58.597 0 017.957-29.535c28.977 35.555 72.282 58.937 121.118 61.394a58.708 58.708 0 01-1.528-13.398c0-32.437 26.317-58.754 58.766-58.754 16.902 0 32.168 7.145 42.89 18.567a117.855 117.855 0 0037.313-14.262c-4.395 13.715-13.707 25.222-25.84 32.5 11.887-1.422 23.215-4.574 33.742-9.254a119.412 119.412 0 01-29.308 30.43zm0 0"/></symbol></svg>