<svg width="697" height="396" viewBox="0 0 697 396" fill="none" xmlns="http://www.w3.org/2000/svg">
<g opacity="0.2">
<path opacity="0.2" d="M696.998 286.819L471.229 306.605L394.977 247.27L620.77 227.484L696.998 286.819Z" fill="black"/>
</g>
<g opacity="0.2">
<path opacity="0.2" d="M202.475 386.242C139.842 391.734 73.0444 385.996 33.8772 373.173C24.6749 370.527 15.9695 366.385 8.10864 360.914C4.45931 358.435 1.73648 354.813 0.368277 350.616C-4.31023 332.816 36.89 315.751 104.349 309.866C184.618 302.829 271.648 314.231 298.74 335.316C325.831 356.402 282.745 379.205 202.475 386.242Z" fill="black"/>
</g>
<path d="M139.33 316.045L211.859 315.775L211.639 259.897C211.639 259.897 176.366 278.384 175.435 278.139C174.504 277.894 139.109 260.167 139.109 260.167L139.33 316.045Z" fill="#CC9636" stroke="black" stroke-width="2" stroke-linejoin="round"/>
<path d="M203.964 352.529C206.414 357.702 214.473 357.432 218.661 352.529C219.066 350.925 219.271 349.278 219.274 347.625L203.842 346.423C203.574 348.453 203.616 350.511 203.964 352.529Z" fill="#E26850" stroke="#201600" stroke-width="0.63" stroke-linecap="round" stroke-linejoin="round"/>
<path d="M203.943 346.276L219.374 347.478C219.373 349.131 219.168 350.778 218.762 352.381C217.632 353.725 216.191 354.772 214.564 355.43C212.938 356.088 211.175 356.338 209.429 356.157C212.111 355.793 214.563 354.448 216.312 352.381C216.7 350.776 216.897 349.13 216.9 347.478L203.918 346.472C203.917 346.406 203.925 346.34 203.943 346.276Z" fill="#8E5151" stroke="#201600" stroke-width="0.63" stroke-linecap="round" stroke-linejoin="round"/>
<path d="M225.937 300.672C226.084 337.768 220.425 351.989 211.681 352.014C202.936 352.038 196.984 337.891 196.812 300.77C196.641 263.649 202.422 221.084 211.166 221.035C219.911 220.986 225.79 263.551 225.937 300.672Z" fill="#FF7753" stroke="#201600" stroke-width="2" stroke-linecap="round" stroke-linejoin="round"/>
<path opacity="0.5" d="M213.104 351.352C212.64 351.388 212.173 351.388 211.708 351.352C202.963 351.352 197.011 337.229 196.84 300.108C196.668 262.987 202.449 220.398 211.194 220.373C211.682 220.379 212.162 220.505 212.59 220.741C204.629 224.983 199.485 264.875 199.608 300.108C199.73 335.341 205.192 349.905 213.104 351.352Z" fill="#EAACAC"/>
<path d="M209.944 351.67C210.4 351.72 210.86 351.72 211.316 351.67C220.06 351.67 226.013 337.45 225.817 300.328C225.621 263.207 219.546 220.667 210.826 220.692C210.338 220.703 209.86 220.829 209.43 221.06C217.415 225.252 222.877 265.193 223.024 300.328C223.171 335.464 218.003 350.175 209.944 351.67Z" fill="#E26850"/>
<path d="M94.7926 316.29L22.2634 316.584L22.043 260.608C22.043 260.608 57.4135 278.85 58.3933 278.58C59.3731 278.311 94.5721 260.339 94.5721 260.339L94.7926 316.29Z" fill="#CC9636" stroke="black" stroke-width="2" stroke-linejoin="round"/>
<path opacity="0.5" d="M175.529 303.467C175.529 308.027 175.529 312.171 175.284 315.898H163.208L163.012 269.705L174.181 275.418C175.039 284.416 175.504 294.223 175.529 303.467Z" fill="#CC8147"/>
<path d="M89.5309 351.989C99.4513 363.856 130.315 363.39 147.045 351.768C148.882 350.493 149.494 340.22 149.494 340.22L89.5799 337.548C89.5799 337.548 87.1304 349.12 89.5309 351.989Z" fill="#E26850" stroke="#201600" stroke-width="2" stroke-linecap="round" stroke-linejoin="round"/>
<path d="M89.4797 337.548L149.419 340.22C149.419 340.22 148.904 350.493 146.969 351.768C137.343 358.437 123.013 361.453 110.717 360.522C120.202 359.932 129.382 356.937 137.392 351.817C139.229 350.518 139.841 340.245 139.841 340.245L89.4062 338.013C89.4552 337.719 89.4797 337.548 89.4797 337.548Z" fill="#8E5151" stroke="#201600" stroke-width="2" stroke-linecap="round" stroke-linejoin="round"/>
<path d="M176.631 247.638C176.924 321.856 154.193 350.322 119.215 350.444C84.2361 350.567 60.4271 322.322 60.1087 248.079C59.7902 173.837 83.2318 88.7083 118.21 88.4876C153.189 88.267 176.361 173.371 176.631 247.638Z" fill="#FF7753" stroke="#201600" stroke-width="2" stroke-linecap="round" stroke-linejoin="round"/>
<path opacity="0.5" d="M125.17 349.071C123.357 349.243 121.495 349.317 119.609 349.341C84.6551 349.464 60.8216 321.194 60.5032 246.976C60.1848 172.758 83.6263 87.605 118.58 87.3843C120.464 87.3865 122.341 87.6253 124.165 88.0953C92.322 96.6523 71.3544 176.706 71.6239 246.927C71.8933 317.148 93.2773 346.252 125.17 349.071Z" fill="#EAACAC"/>
<path d="M118.117 92.8765L118.558 201.69L119.121 350.641" fill="#CC9636"/>
<path d="M118.117 92.8765L118.558 201.69L119.121 350.641" stroke="black" stroke-width="0.5" stroke-linejoin="round"/>
<path d="M112.215 349.758C114.052 349.93 115.889 350.003 117.776 350.003C152.754 349.856 176.392 321.414 176.098 247.172C175.804 172.93 151.603 87.8011 116.771 88.0463C114.894 88.0567 113.026 88.3038 111.211 88.7819C143.054 97.0937 164.708 177.049 164.977 247.221C165.246 317.393 144.107 346.693 112.215 349.758Z" fill="#E26850"/>
<path opacity="0.5" d="M113.163 97.0937C116.235 98.0469 119.469 98.3639 122.667 98.0254C124.282 97.8503 125.812 97.2173 127.08 96.2009C128.347 95.1845 129.297 93.8269 129.82 92.288C127.967 90.5389 125.508 89.5804 122.961 89.6155C118.33 88.9282 113.605 89.2714 109.122 90.6208C103.12 92.8274 110.371 96.4072 113.163 97.0937Z" fill="#A05849"/>
<path d="M108.711 60.61C108.751 62.8045 109.627 64.9008 111.16 66.47C109.606 68.0283 108.733 70.1402 108.733 72.3422C108.733 74.5441 109.606 76.656 111.16 78.2144C109.613 79.784 108.735 81.8937 108.711 84.0988C108.881 86.4467 109.934 88.643 111.656 90.2462C113.378 91.8493 115.643 92.7404 117.994 92.7404C120.346 92.7404 122.611 91.8493 124.333 90.2462C126.055 88.643 127.108 86.4467 127.278 84.0988C127.235 81.9048 126.36 79.8095 124.829 78.2389C126.37 76.665 127.247 74.558 127.278 72.3544C127.25 70.1573 126.372 68.0566 124.829 66.4945C126.37 64.9206 127.247 62.8136 127.278 60.61C127.108 58.2621 126.055 56.0658 124.333 54.4627C122.611 52.8596 120.346 51.9684 117.994 51.9684C115.643 51.9684 113.378 52.8596 111.656 54.4627C109.934 56.0658 108.881 58.2621 108.711 60.61Z" fill="#FF7753" stroke="#201600" stroke-width="2" stroke-linecap="round" stroke-linejoin="round"/>
<path d="M120.028 53.9409C123.237 53.9409 125.833 57.3735 125.858 61.6398C125.871 63.4652 125.352 65.2548 124.363 66.7887C125.346 68.3215 125.868 70.1043 125.868 71.9253C125.868 73.7464 125.346 75.5292 124.363 77.062C125.389 78.5719 125.928 80.3604 125.907 82.1864C125.907 86.4526 123.457 89.9097 120.126 89.9343C119.453 89.9378 118.789 89.778 118.191 89.4684C119.461 88.7316 120.496 87.6495 121.177 86.3476C121.857 85.0457 122.156 83.5774 122.036 82.1128C122.057 80.2906 121.528 78.5045 120.518 76.9884C121.494 75.4487 122.012 73.6629 122.012 71.8395C122.012 70.0161 121.494 68.2303 120.518 66.6906C121.52 65.1629 122.04 63.3691 122.012 61.5417C122.094 60.0935 121.774 58.6509 121.086 57.3741C120.399 56.0972 119.371 55.0362 118.117 54.3087C118.718 54.0428 119.371 53.9171 120.028 53.9409Z" fill="#BC533F"/>
<path opacity="0.5" d="M112.676 65.4647C111.669 67.2158 111.153 69.2064 111.182 71.2266C111.159 73.2537 111.675 75.2506 112.676 77.0129C111.797 78.5933 111.292 80.3542 111.198 82.1605C111.105 83.9669 111.426 85.7706 112.137 87.4334C111.402 87.605 110.618 87.7766 109.859 87.9973C109.022 86.4275 108.703 84.6324 108.95 82.87C109.196 81.1077 109.995 79.4691 111.231 78.1898C109.679 76.6232 108.8 74.5116 108.781 72.3054C108.796 70.1056 109.676 68.0001 111.231 66.4454C109.679 64.8788 108.8 62.7671 108.781 60.561C108.793 59.2445 109.099 57.9474 109.675 56.764C110.251 55.5806 111.084 54.5408 112.113 53.7203L112.994 53.2544C111.67 55.1483 110.983 57.4159 111.035 59.7273C111.061 61.7521 111.627 63.733 112.676 65.4647Z" fill="#EAACAC"/>
<path d="M117.793 10.6166L117.964 51.7588" stroke="#201600" stroke-width="0.88" stroke-linecap="round" stroke-linejoin="round"/>
<path d="M117.934 10.6291C120.328 10.6199 122.262 8.76827 122.253 6.49336C122.245 4.21845 120.296 2.38173 117.902 2.39093C115.507 2.40013 113.573 4.25177 113.582 6.52669C113.591 8.8016 115.539 10.6383 117.934 10.6291Z" fill="#020202" stroke="#201600" stroke-width="0.59" stroke-linecap="round" stroke-linejoin="round"/>
<path d="M117.597 251.291C141.379 251.291 160.659 231.993 160.659 208.188C160.659 184.382 141.379 165.084 117.597 165.084C93.8146 165.084 74.5352 184.382 74.5352 208.188C74.5352 231.993 93.8146 251.291 117.597 251.291Z" fill="#CC9636" stroke="black" stroke-linejoin="round"/>
<path d="M117.94 245.137C138.07 245.137 154.389 228.803 154.389 208.653C154.389 188.504 138.07 172.17 117.94 172.17C97.8106 172.17 81.4922 188.504 81.4922 208.653C81.4922 228.803 97.8106 245.137 117.94 245.137Z" fill="#90DDF4" stroke="black" stroke-linejoin="round"/>
<path opacity="0.5" d="M139.62 174.425C141.486 175.367 143.244 176.51 144.862 177.833C146.41 179.278 147.813 180.871 149.051 182.59C150.788 184.721 152.322 187.012 153.631 189.431C154.461 191.122 155.158 192.877 155.713 194.678C157.823 200.206 158.66 206.14 158.163 212.037C157.555 215.619 156.528 219.117 155.101 222.457C154.128 225.278 152.898 228.003 151.427 230.598C150.07 232.75 148.503 234.762 146.748 236.605C142.518 241.759 137.106 245.813 130.973 248.423C126.73 249.805 122.325 250.63 117.869 250.874C125.215 251.661 132.614 249.988 138.91 246.118C141.429 244.479 143.82 242.651 146.062 240.65C147.966 239.137 149.714 237.436 151.28 235.575C153.47 232.583 155.196 229.276 156.399 225.767C157.513 223.034 158.454 220.234 159.216 217.382C161.409 208.621 160.565 199.374 156.823 191.156C153.08 182.937 146.661 176.235 138.616 172.145C134.235 170.057 129.656 168.414 124.948 167.241C123.079 166.669 121.159 166.275 119.216 166.065C116.997 165.924 114.773 166.232 112.676 166.972C114.488 167.707 117.354 166.972 119.363 167.094C121.756 167.334 124.119 167.81 126.417 168.516C131.008 170.031 135.431 172.011 139.62 174.425Z" fill="#CC8147"/>
<path opacity="0.7" d="M89.9451 219.417C89.4228 218.269 89.1474 217.025 89.1367 215.764C89.1478 215.134 89.3092 214.516 89.6075 213.962C89.9058 213.407 90.3323 212.932 90.8514 212.576C91.4936 212.204 92.2482 212.077 92.9769 212.216C93.7057 212.356 94.3598 212.753 94.8195 213.336C95.2883 214.084 95.6046 214.918 95.7503 215.788C96.7171 219.53 98.2981 223.084 100.429 226.307C102.266 229.077 105.328 231.21 107.018 233.932C104.568 233.932 100.796 231.48 98.8122 230.083C94.8468 227.507 91.755 223.788 89.9451 219.417Z" fill="#BDCCD4"/>
<path opacity="0.7" d="M89.5569 201.175C89.205 200.4 89.0985 199.536 89.2518 198.699C89.4051 197.862 89.8107 197.092 90.4142 196.492C91.6013 195.537 93.0796 195.018 94.6028 195.021C94.8838 194.947 95.1791 194.947 95.4601 195.021C95.8033 195.208 96.0779 195.5 96.2439 195.855C96.8245 196.897 97.2456 198.021 97.4932 199.189C97.5659 199.487 97.5659 199.798 97.4932 200.096C97.4182 200.378 97.2938 200.643 97.1258 200.881C95.3376 203.823 91.3695 204.951 89.5569 201.175Z" fill="#BDCCD4"/>
<path opacity="0.6" d="M151.869 209.193C151.869 228.268 137.931 243.789 120.589 243.862C119.509 243.867 118.429 243.81 117.355 243.69C133.155 241.827 145.451 227.091 145.377 209.217C145.304 191.343 132.91 176.681 117.086 174.891C118.159 174.755 119.238 174.681 120.319 174.671C137.539 174.695 151.673 190.093 151.869 209.193Z" fill="#3FA9F5"/>
<path d="M171.706 152.898C171.706 155.129 163.966 157.164 151.841 158.513C140.773 159.645 129.654 160.21 118.528 160.205C89.1342 160.205 65.3253 157.238 65.3008 153.315C65.3008 152.015 67.8972 150.863 72.4043 149.735C81.6143 151.819 98.8097 153.168 118.504 153.094C138.197 153.021 155.393 151.525 164.578 149.367H165.044C169.281 150.495 171.706 151.648 171.706 152.898Z" fill="#C48B4A" stroke="black" stroke-linejoin="round"/>
<path d="M170.414 151.01C170.414 153.217 162.796 155.227 150.818 156.551C139.921 157.674 128.974 158.23 118.019 158.219C89.1155 158.219 65.6495 155.301 65.625 151.427C65.625 150.152 68.0745 148.975 72.6305 147.896C81.6936 149.956 98.6195 151.304 117.995 151.231C137.37 151.157 154.321 149.686 163.384 147.553H163.874C168.038 148.656 170.414 149.784 170.414 151.01Z" fill="#CC9636" stroke="black" stroke-linejoin="round"/>
<path d="M183.715 287.53C183.715 294.321 154.737 299.936 118.926 300.059C83.1144 300.181 54.0636 294.812 54.0391 288.02C54.0391 285.789 57.1744 283.68 62.6857 281.841C73.9044 285.495 94.8719 287.873 118.877 287.775C142.882 287.677 163.825 285.127 175.019 281.425C180.506 283.214 183.715 285.299 183.715 287.53Z" fill="#C38A4A" stroke="black" stroke-linejoin="round"/>
<path d="M184.296 283.827C184.296 290.693 154.902 296.381 118.748 296.528C82.5933 296.675 53.1261 291.208 53.1016 284.269C53.1016 282.013 56.2614 279.88 61.8462 278.016C73.2118 281.694 94.4243 284.097 118.699 284.024C142.973 283.95 164.186 281.351 175.502 277.575C181.087 279.512 184.296 281.572 184.296 283.827Z" fill="#CC9636" stroke="black" stroke-linejoin="round"/>
<path opacity="0.5" d="M169.283 150.814C169.283 152.972 161.934 154.933 150.226 156.208C142.682 156.502 135.162 156.772 127.617 156.968C137.66 154.222 148.658 156.453 158.481 153.021C159.687 152.702 160.786 152.068 161.665 151.182C162.841 149.809 162.13 148.73 162.939 147.553C166.956 148.509 169.283 149.564 169.283 150.814Z" fill="#CC8147"/>
<path opacity="0.5" d="M183.272 283.509C183.272 287.015 173.915 290.178 159.242 292.286C149.738 292.76 140.234 293.161 130.73 293.488C143.394 289.025 157.283 292.679 169.653 287.088C171.232 286.488 172.602 285.44 173.596 284.073C175.091 281.841 174.209 280.027 175.238 278.139C180.357 279.733 183.272 281.547 183.272 283.509Z" fill="#CC8147"/>
<path d="M69.4691 151.697C69.3312 151.803 69.2287 151.948 69.1752 152.113C69.1565 152.237 69.1743 152.363 69.2266 152.476C69.2788 152.59 69.3632 152.685 69.4691 152.751C69.6805 152.89 69.9267 152.966 70.1795 152.972C70.2742 153.007 70.3787 153.007 70.4734 152.972C70.5621 152.923 70.6313 152.845 70.6694 152.751C71.7085 151.362 73.1561 150.333 74.809 149.809C73.7557 148.656 70.302 150.887 69.4691 151.697Z" fill="#CEB04B"/>
<path d="M63.6899 279.733C61.0368 280.237 58.6106 281.567 56.7578 283.533C58.981 284.736 61.4203 285.486 63.9348 285.74L65.233 282.552C65.3819 282.248 65.4494 281.91 65.429 281.572C65.282 280.664 64.0818 280.493 63.1755 280.542" fill="#CEB04B"/>
<path d="M14.6979 352.529C17.1474 357.702 25.2307 357.432 29.5173 352.529C29.9216 350.925 30.1273 349.278 30.1297 347.625L14.6979 346.276C14.3872 348.349 14.3872 350.456 14.6979 352.529Z" fill="#E26850" stroke="#201600" stroke-width="0.63" stroke-linecap="round" stroke-linejoin="round"/>
<path d="M14.6953 346.276L30.1515 347.478C30.1504 349.131 29.9447 350.778 29.5392 352.381C28.4094 353.725 26.9683 354.772 25.3416 355.43C23.7148 356.088 21.9519 356.338 20.2066 356.157C22.8833 355.799 25.3295 354.452 27.0652 352.381C27.4707 350.778 27.6764 349.131 27.6776 347.478L14.6953 346.472C14.7011 346.407 14.7011 346.342 14.6953 346.276Z" fill="#8E5151" stroke="#201600" stroke-width="0.63" stroke-linecap="round" stroke-linejoin="round"/>
<path d="M36.7396 300.672C36.8865 337.768 31.2282 351.989 22.4836 352.014C13.7389 352.038 7.78669 337.891 7.59073 300.77C7.39477 263.649 13.2245 221.084 21.9692 221.035C30.7138 220.986 36.4701 263.551 36.7396 300.672Z" fill="#FF7753" stroke="#201600" stroke-width="2" stroke-linecap="round" stroke-linejoin="round"/>
<path opacity="0.5" d="M23.8603 351.352C23.3956 351.388 22.9287 351.388 22.4641 351.352C13.7194 351.352 7.76716 337.229 7.5712 300.108C7.37524 262.987 13.205 220.52 22.0476 220.496C22.5362 220.501 23.0158 220.628 23.4438 220.864C15.483 225.105 10.3146 264.997 10.4616 300.23C10.6086 335.464 15.8749 349.905 23.8603 351.352Z" fill="#EAACAC"/>
<path d="M20.6032 351.67C21.0673 351.719 21.5352 351.719 21.9994 351.67C30.744 351.67 36.6963 337.45 36.4758 300.328C36.2554 263.207 30.2296 220.79 21.485 220.815C21.0055 220.83 20.5361 220.956 20.1133 221.182C28.0986 225.375 33.5609 265.316 33.7079 300.451C33.8549 335.586 28.5885 350.175 20.6032 351.67Z" fill="#E26850"/>
<path d="M118.461 278.973H118.167C115.1 278.934 112.174 277.682 110.026 275.491C107.878 273.3 106.684 270.348 106.703 267.278C106.723 264.209 107.955 261.272 110.13 259.108C112.305 256.944 115.247 255.73 118.314 255.73C121.38 255.73 124.322 256.944 126.498 259.108C128.673 261.272 129.905 264.209 129.924 267.278C129.943 270.348 128.749 273.3 126.601 275.491C124.453 277.682 121.527 278.934 118.461 278.973ZM118.461 265.831C118.019 265.831 117.595 266.006 117.283 266.319C116.97 266.632 116.795 267.056 116.795 267.498C116.795 267.94 116.97 268.364 117.283 268.677C117.595 268.99 118.019 269.165 118.461 269.165C118.681 269.179 118.902 269.147 119.109 269.071C119.317 268.996 119.507 268.879 119.668 268.727C119.828 268.576 119.956 268.393 120.044 268.19C120.131 267.987 120.176 267.768 120.175 267.547C120.182 267.326 120.144 267.106 120.065 266.9C119.986 266.693 119.866 266.505 119.714 266.345C119.561 266.185 119.378 266.058 119.175 265.969C118.973 265.881 118.755 265.834 118.534 265.831H118.461Z" fill="#006837" stroke="#201600" stroke-width="0.5" stroke-miterlimit="10"/>
<path d="M118.848 274.952H118.652C116.667 274.926 114.772 274.115 113.381 272.695C111.991 271.276 111.218 269.364 111.231 267.376C111.244 265.388 112.042 263.486 113.45 262.085C114.859 260.684 116.764 259.898 118.75 259.898C120.736 259.898 122.642 260.684 124.05 262.085C125.459 263.486 126.257 265.388 126.27 267.376C126.283 269.364 125.51 271.276 124.119 272.695C122.729 274.115 120.834 274.926 118.848 274.952ZM118.848 266.419C118.564 266.419 118.291 266.528 118.086 266.725C117.88 266.921 117.759 267.189 117.746 267.473C117.746 267.762 117.859 268.039 118.06 268.245C118.262 268.451 118.536 268.57 118.824 268.577C118.966 268.583 119.108 268.561 119.242 268.511C119.375 268.461 119.497 268.384 119.601 268.286C119.704 268.187 119.786 268.069 119.842 267.938C119.897 267.806 119.926 267.665 119.926 267.523C119.929 267.381 119.905 267.24 119.854 267.108C119.802 266.976 119.726 266.855 119.628 266.752C119.53 266.65 119.413 266.568 119.283 266.511C119.154 266.453 119.014 266.422 118.873 266.419H118.848Z" fill="#006837" stroke="#201600" stroke-width="0.5" stroke-miterlimit="10"/>
<path d="M592.85 40.9461L462.513 52.3718L418.496 18.1193L548.833 6.69359L592.85 40.9461Z" fill="#7D7D7D" stroke="#201600" stroke-linejoin="round"/>
<path d="M418.25 254.724L418.495 18.1193L462.512 52.3718L462.243 288.976L418.25 254.724Z" fill="#5A5A5A" stroke="#201600" stroke-linejoin="round"/>
<path d="M462.246 288.976L462.516 52.3717L592.852 40.9461L592.583 277.551L462.246 288.976Z" fill="#9A9A9A" stroke="#201600" stroke-linejoin="round"/>
<path d="M574.333 97.535L484.633 105.406V75.8361L574.333 68.2843V97.535Z" fill="#333333" stroke="#201600" stroke-width="0.5" stroke-miterlimit="10"/>
<path d="M566.322 119.259L546.114 121.097L545.918 107.882L566.102 106.337L566.322 119.259Z" fill="#333333" stroke="#201600" stroke-width="0.5" stroke-miterlimit="10"/>
<path d="M574.333 260.706L484.633 268.577V155.644L574.333 148.092V260.706Z" fill="#C69C6D" stroke="#201600" stroke-width="0.25" stroke-miterlimit="10"/>
<path d="M530.851 213.998H530.581C527.514 213.963 524.585 212.713 522.435 210.523C520.285 208.333 519.088 205.381 519.106 202.31C519.123 199.239 520.355 196.301 522.53 194.136C524.705 191.971 527.648 190.756 530.716 190.756C533.784 190.756 536.727 191.971 538.902 194.136C541.078 196.301 542.309 199.239 542.326 202.31C542.344 205.381 541.147 208.333 538.997 210.523C536.847 212.713 533.918 213.963 530.851 213.998ZM530.851 200.832C530.441 200.882 530.063 201.08 529.789 201.389C529.515 201.699 529.364 202.098 529.364 202.511C529.364 202.925 529.515 203.324 529.789 203.634C530.063 203.943 530.441 204.141 530.851 204.191C531.072 204.197 531.291 204.16 531.498 204.081C531.704 204.001 531.892 203.882 532.052 203.729C532.211 203.576 532.339 203.393 532.427 203.19C532.515 202.988 532.562 202.769 532.565 202.548C532.566 202.105 532.395 201.68 532.089 201.36C531.784 201.04 531.366 200.851 530.924 200.832H530.851Z" fill="#006837" stroke="#201600" stroke-width="0.5" stroke-miterlimit="10"/>
<path d="M531.321 209.977H531.15C529.397 209.955 527.724 209.239 526.497 207.986C525.269 206.733 524.586 205.045 524.598 203.29C524.609 201.536 525.313 199.857 526.557 198.62C527.801 197.383 529.483 196.689 531.236 196.689C532.989 196.689 534.671 197.383 535.914 198.62C537.158 199.857 537.862 201.536 537.874 203.29C537.885 205.045 537.202 206.733 535.975 207.986C534.747 209.239 533.074 209.955 531.321 209.977ZM531.321 201.42C531.036 201.42 530.762 201.534 530.559 201.736C530.357 201.939 530.244 202.213 530.244 202.499C530.24 202.641 530.265 202.782 530.316 202.914C530.367 203.046 530.444 203.167 530.542 203.269C530.64 203.372 530.757 203.454 530.886 203.511C531.016 203.568 531.155 203.599 531.297 203.603C531.439 203.609 531.582 203.587 531.715 203.537C531.849 203.487 531.971 203.41 532.074 203.312C532.177 203.213 532.259 203.095 532.315 202.963C532.371 202.832 532.399 202.691 532.399 202.548C532.406 202.26 532.299 201.98 532.102 201.769C531.906 201.558 531.634 201.433 531.346 201.42H531.321Z" fill="#005537" stroke="#201600" stroke-width="0.5" stroke-miterlimit="10"/>
<path d="M533.572 211.645H533.4C531.407 211.622 529.503 210.81 528.106 209.388C526.708 207.965 525.93 206.046 525.942 204.05C525.953 202.055 526.753 200.145 528.166 198.738C529.58 197.331 531.492 196.542 533.486 196.542C535.479 196.542 537.392 197.331 538.805 198.738C540.219 200.145 541.019 202.055 541.03 204.05C541.041 206.046 540.263 207.965 538.866 209.388C537.468 210.81 535.565 211.622 533.572 211.645ZM533.572 203.112C533.286 203.112 533.012 203.226 532.809 203.428C532.607 203.63 532.494 203.905 532.494 204.191C532.494 204.477 532.607 204.751 532.809 204.954C533.012 205.156 533.286 205.27 533.572 205.27C533.716 205.28 533.861 205.26 533.997 205.212C534.134 205.163 534.259 205.087 534.364 204.988C534.47 204.889 534.554 204.77 534.612 204.637C534.669 204.504 534.699 204.36 534.698 204.215C534.698 203.927 534.586 203.65 534.384 203.444C534.183 203.238 533.909 203.119 533.621 203.112H533.572Z" fill="#006837" stroke="#201600" stroke-width="0.5" stroke-miterlimit="10"/>
<path opacity="0.2" d="M295.557 396C228.882 396 157.7 335.513 107.633 281.768C106.851 280.803 106.464 279.577 106.551 278.338C106.637 277.098 107.191 275.938 108.099 275.091C109.007 274.244 110.202 273.774 111.444 273.776C112.685 273.777 113.879 274.25 114.785 275.099C212.054 379.474 277.162 392.053 314.663 384.256C324.341 381.979 333.8 378.853 342.93 374.914L346.408 373.516C374.093 361.673 403.201 353.488 432.998 349.169C444.461 347.453 454.014 346.571 461.705 345.835C479.072 344.217 488.65 343.383 498.154 335.88C521.742 317.393 522.453 237.512 521.35 216.941V216.671C521.323 215.551 521.679 214.455 522.36 213.565C523.042 212.676 524.007 212.047 525.095 211.784C526.183 211.52 527.329 211.637 528.341 212.116C529.353 212.595 530.171 213.406 530.658 214.415C530.852 215.079 530.975 215.761 531.026 216.45C531.062 216.727 531.062 217.007 531.026 217.284C531.638 234.86 531.156 252.458 529.581 269.974C526.004 308.42 517.333 333.183 504.13 343.53C492.373 352.749 480.517 353.853 462.489 355.544C454.528 356.28 445.514 357.138 434.32 358.805C405.281 363.01 376.913 370.988 349.936 382.539C339.179 387.274 328.022 391.04 316.598 393.793C309.678 395.246 302.628 395.985 295.557 396Z" fill="#201600"/>
<path d="M304.057 386.144C237.382 386.144 166.2 325.681 116.133 271.936C115.694 271.464 115.352 270.911 115.126 270.307C114.901 269.703 114.797 269.06 114.819 268.416C114.842 267.771 114.992 267.138 115.259 266.551C115.526 265.965 115.906 265.437 116.378 264.997C116.849 264.558 117.402 264.215 118.005 263.99C118.609 263.764 119.251 263.66 119.894 263.683C120.538 263.705 121.171 263.855 121.757 264.122C122.343 264.39 122.871 264.771 123.31 265.242C220.554 369.618 285.661 382.221 323.163 374.424C332.813 372.123 342.246 368.989 351.356 365.058L354.835 363.684C382.525 351.828 411.642 343.635 441.448 339.313C452.887 337.621 462.44 336.714 470.132 336.003C487.499 334.36 497.076 333.551 506.58 326.024C530.168 307.561 530.879 227.68 529.777 207.084V206.839C529.743 205.716 530.095 204.616 530.774 203.723C531.454 202.829 532.419 202.195 533.509 201.929C534.599 201.662 535.747 201.777 536.762 202.256C537.777 202.735 538.597 203.548 539.085 204.559C539.288 205.22 539.412 205.903 539.452 206.594H539.574C539.574 206.888 539.574 207.158 539.574 207.427C540.164 225.013 539.673 242.617 538.105 260.142C534.529 298.563 525.98 323.327 512.655 333.698C500.897 342.917 489.042 344.021 471.013 345.712C463.053 346.472 454.039 347.306 442.844 348.973C413.817 353.185 385.46 361.155 358.484 372.683C347.73 377.417 336.573 381.175 325.147 383.912C318.212 385.378 311.145 386.126 304.057 386.144Z" fill="#201600"/>
<path d="M494.475 81.6715L490.335 82.0393L489.502 81.1076L490.335 80.0533L494.524 79.6855L495.356 80.6172L494.475 81.6715ZM494.475 89.2232L490.335 89.591L489.502 88.6838L490.335 87.605L494.524 87.2372L495.356 88.1689L494.475 89.2232ZM494.475 96.7259L490.286 97.1427L489.453 96.211L490.286 95.1567L494.475 94.7399L495.307 95.6471L494.475 96.7259ZM495.601 87.7521L494.744 86.8204V81.9167L495.601 80.8624L496.459 81.7696V86.6733L495.601 87.7521ZM495.601 95.2793L494.744 94.3721V89.4684L495.601 88.4141L496.459 89.3213V94.225L495.601 95.2793Z" fill="#C1272D"/>
<path d="M499.525 87.3843L498.668 86.4771V81.5734L499.525 80.5191L500.383 81.4263V86.33L499.525 87.3843ZM499.525 96.26L498.668 95.3529V89.1987L499.525 88.1199L500.383 89.0271V95.1812L499.525 96.26ZM504.816 80.8133L500.677 81.1566L499.819 80.2494L500.677 79.1706L504.841 78.8273L505.698 79.7345L504.816 80.8133ZM504.816 88.1689L500.677 88.5367L499.819 87.6295L500.677 86.5752L504.841 86.2074L505.698 87.1146L504.816 88.1689ZM505.967 86.6978L505.135 85.7906V80.8869L505.967 79.8326L506.825 80.7398V85.6435L505.967 86.6978ZM505.967 95.5L505.135 94.6173V88.4876L505.967 87.4333L506.825 88.3405V94.4457L505.967 95.5Z" fill="#C1272D"/>
<path d="M509.837 86.4771L509.004 85.5699V78.8518L510.694 80.6417V85.5454L509.837 86.4771ZM509.837 95.2548L509.004 94.3476V88.267L509.837 87.2127L510.694 88.0954V94.2005L509.837 95.2548ZM510.988 80.2739L509.322 78.4596L516.867 77.8221L515.128 79.9307L510.988 80.2739ZM516.303 85.8151L515.446 84.9325V80.2494L517.161 78.1653V84.8344L516.303 85.8151ZM516.303 94.5683L515.446 93.6611V87.6785L516.303 86.6242L517.161 87.5069V93.5875L516.303 94.5683Z" fill="#C1272D"/>
<path d="M520.174 85.5454L519.316 84.6627V79.9061L520.174 78.8764L521.031 79.759V84.4911L520.174 85.5454ZM520.174 94.274L519.316 93.3669V87.3108L520.174 86.281L521.031 87.1636V93.1707L520.174 94.274ZM525.465 79.048L521.325 79.3913L520.468 78.5086L521.325 77.4543L525.489 77.111L526.346 78.0182L525.465 79.048ZM525.465 86.4036L521.325 86.7714L520.468 85.8887L521.325 84.8344L525.489 84.4666L526.346 85.3493L525.465 86.4036ZM526.616 84.957L525.783 84.0498V79.3667L526.616 78.3124L527.473 79.2196V83.9272L526.616 84.957Z" fill="#C1272D"/>
<path d="M530.51 84.6137L529.652 83.731V79.0235L530.51 77.9937L531.342 78.8764V83.5839L530.51 84.6137ZM530.51 93.2688L529.652 92.3861V86.3791L530.51 85.3493L531.342 86.2319V92.2145L530.51 93.2688ZM535.776 78.1653L531.661 78.5331L530.804 77.6259L531.661 76.5961L535.825 76.2529L536.658 77.1355L535.776 78.1653ZM535.776 85.5209L531.661 85.8887L530.804 85.006L531.661 83.9762L535.825 83.5839L536.658 84.4666L535.776 85.5209ZM536.952 84.0743L536.094 83.1916V78.4595L536.952 77.4298L537.809 78.3124V82.9955L536.952 84.0743ZM536.952 92.6803L536.094 91.7977V85.8151L536.952 84.7853L537.809 85.668V91.626L536.952 92.6803Z" fill="#C1272D"/>
<path d="M540.822 83.7065L539.965 82.8239V76.2529L541.679 78.0182V82.6767L540.822 83.7065ZM539.965 91.9938V85.4473L540.822 84.4176L541.679 85.3002V89.9588L539.965 91.9938ZM546.113 77.2826L541.973 77.6259L540.283 75.8606L546.138 75.3702L546.995 76.2529L546.113 77.2826ZM546.113 91.7486L540.259 92.3126L541.949 90.2285L546.113 89.8362L546.97 90.7188L546.113 91.7486ZM546.113 84.5402L541.973 84.9079L541.116 84.0253L541.973 82.9955L546.138 82.6277L546.995 83.5104L546.113 84.5402ZM547.289 83.0936L546.431 82.2354V77.5769L547.289 76.5471L548.122 77.4298V82.0638L547.289 83.0936ZM547.289 90.4491L546.431 89.591V84.9325L547.289 83.9027L548.122 84.7853V89.4194L547.289 90.4491Z" fill="#C1272D"/>
<path d="M551.139 82.7748L550.281 81.9167V76.0077L551.139 75.0024L551.971 75.8851V81.7696L551.139 82.7748ZM551.139 91.2828L550.281 90.4246V84.5156L551.139 83.4859L551.971 84.344V90.253L551.139 91.2828ZM556.405 83.633L552.29 84.0007L551.433 83.1181L552.29 82.1128L556.454 81.7205L557.311 82.6032L556.405 83.633ZM553.588 81.5489H552.412V80.1513L557.311 74.3649H558.536V75.7135L553.588 81.5489ZM557.605 90.7188L556.748 89.8607V83.9762L557.605 82.9465L558.463 83.8046V89.6891L557.605 90.7188Z" fill="#C1272D"/>
<path d="M561.471 81.8431L560.613 80.985V76.4L561.471 75.3702L562.328 76.2529V80.9114L561.471 81.8431ZM561.471 90.302L560.613 89.4439V83.5594L561.471 82.5542L562.328 83.4123V89.2723L561.471 90.302ZM566.762 75.5909L562.622 75.9587L561.765 75.076L562.622 74.0707L566.786 73.7275L567.643 74.5856L566.762 75.5909ZM566.762 82.7258L562.622 83.1181L561.765 82.2599L562.622 81.2302L566.786 80.8624L567.643 81.7205L566.762 82.7258ZM567.937 81.3282L567.08 80.4701V75.8361L567.937 74.8308L568.77 75.7135V80.2739L567.937 81.3282ZM567.937 89.7136L567.08 88.8554V82.9955L567.937 81.9657L568.77 82.8239V88.6593L567.937 89.7136Z" fill="#C1272D"/>
<path d="M549.052 110.334L548.66 109.892L549.052 109.353L551.844 109.083L551.036 110.138L549.052 110.334ZM551.502 113.08L551.134 112.786V110.334L551.942 109.304V112.589L551.502 113.08ZM551.134 116.341V113.889L551.526 113.35L551.942 113.791V117.199L551.134 116.341Z" fill="#C1272D"/>
<path d="M553.408 112.908L553.016 112.491V110.04L553.408 109.5L553.824 109.941V112.393L553.408 112.908ZM553.408 116.561L553.016 116.12V113.668L553.408 113.153L553.824 113.57V116.022L553.408 116.561ZM555.857 109.696L553.897 109.892L553.481 109.451L553.897 108.936L555.881 108.74L556.298 109.181L555.857 109.696ZM555.857 113.3L553.897 113.521L553.481 113.08L553.897 112.565L555.881 112.344L556.298 112.786L555.857 113.3ZM555.857 116.88L553.873 117.125L553.579 116.709L553.995 116.169L555.979 115.924L556.396 116.365L555.857 116.88ZM556.396 112.589L555.979 112.148V109.843L556.396 109.328L556.788 109.77V112.05L556.396 112.589ZM556.396 116.169L555.979 115.752V113.448L556.396 112.933L556.788 113.35V115.654L556.396 116.169Z" fill="#C1272D"/>
<path d="M560.931 116.267L560.539 115.85V113.938L560.931 113.423L561.347 113.84V115.752L560.931 116.267ZM561.935 113.3H561.347V112.786L563.038 110.677V112.026L561.935 113.3ZM563.625 112.761L563.233 112.344V110.334L563.625 109.843L564.042 110.26V112.173L563.625 112.761ZM563.625 115.924L563.233 115.532V113.619L563.625 113.104L564.042 113.521V115.434L563.625 115.924Z" fill="#C1272D"/>
<path d="M574.334 138.506L569.043 138.947V105.822L574.334 105.405V138.506Z" fill="#333333" stroke="#201600" stroke-width="0.25" stroke-miterlimit="10"/>
<path d="M574.334 138.506L569.043 134.877V138.947L574.334 138.506Z" fill="#333333" stroke="#201600" stroke-width="0.25" stroke-linejoin="round"/>
<path d="M490.07 124.653C493.371 124.653 496.047 121.974 496.047 118.67C496.047 115.366 493.371 112.688 490.07 112.688C486.77 112.688 484.094 115.366 484.094 118.67C484.094 121.974 486.77 124.653 490.07 124.653Z" fill="#9D5606" stroke="#201600" stroke-width="0.25" stroke-linejoin="round"/>
<path d="M491.567 125.339C494.867 125.339 497.543 122.661 497.543 119.357C497.543 116.053 494.867 113.374 491.567 113.374C488.266 113.374 485.59 116.053 485.59 119.357C485.59 122.661 488.266 125.339 491.567 125.339Z" fill="#F15A24" stroke="#201600" stroke-width="0.25" stroke-linejoin="round"/>
<path d="M490.653 164.691C492.209 164.691 493.47 163.429 493.47 161.872C493.47 160.315 492.209 159.052 490.653 159.052C489.097 159.052 487.836 160.315 487.836 161.872C487.836 163.429 489.097 164.691 490.653 164.691Z" fill="#B3B3B3" stroke="#201600" stroke-width="0.1" stroke-linejoin="round"/>
<path d="M491.364 165.035C492.92 165.035 494.181 163.772 494.181 162.215C494.181 160.658 492.92 159.395 491.364 159.395C489.808 159.395 488.547 160.658 488.547 162.215C488.547 163.772 489.808 165.035 491.364 165.035Z" fill="#B3B3B3" stroke="#201600" stroke-width="0.1" stroke-linejoin="round"/>
<path d="M569.067 156.993C570.623 156.993 571.884 155.73 571.884 154.173C571.884 152.616 570.623 151.353 569.067 151.353C567.511 151.353 566.25 152.616 566.25 154.173C566.25 155.73 567.511 156.993 569.067 156.993Z" fill="#B3B3B3" stroke="#201600" stroke-width="0.1" stroke-linejoin="round"/>
<path d="M569.774 157.336C571.33 157.336 572.591 156.074 572.591 154.516C572.591 152.959 571.33 151.697 569.774 151.697C568.218 151.697 566.957 152.959 566.957 154.516C566.957 156.074 568.218 157.336 569.774 157.336Z" fill="#B3B3B3" stroke="#201600" stroke-width="0.1" stroke-linejoin="round"/>
<path d="M490.653 264.016C492.209 264.016 493.47 262.754 493.47 261.197C493.47 259.639 492.209 258.377 490.653 258.377C489.097 258.377 487.836 259.639 487.836 261.197C487.836 262.754 489.097 264.016 490.653 264.016Z" fill="#B3B3B3" stroke="#201600" stroke-width="0.1" stroke-linejoin="round"/>
<path d="M491.364 264.335C492.92 264.335 494.181 263.073 494.181 261.515C494.181 259.958 492.92 258.696 491.364 258.696C489.808 258.696 488.547 259.958 488.547 261.515C488.547 263.073 489.808 264.335 491.364 264.335Z" fill="#B3B3B3" stroke="#201600" stroke-width="0.1" stroke-linejoin="round"/>
<path d="M569.067 256.318C570.623 256.318 571.884 255.055 571.884 253.498C571.884 251.941 570.623 250.678 569.067 250.678C567.511 250.678 566.25 251.941 566.25 253.498C566.25 255.055 567.511 256.318 569.067 256.318Z" fill="#B3B3B3" stroke="#201600" stroke-width="0.1" stroke-linejoin="round"/>
<path d="M569.774 256.636C571.33 256.636 572.591 255.374 572.591 253.817C572.591 252.259 571.33 250.997 569.774 250.997C568.218 250.997 566.957 252.259 566.957 253.817C566.957 255.374 568.218 256.636 569.774 256.636Z" fill="#B3B3B3" stroke="#201600" stroke-width="0.1" stroke-linejoin="round"/>
<path d="M507.656 122.716C510.957 122.716 513.633 120.037 513.633 116.733C513.633 113.429 510.957 110.751 507.656 110.751C504.356 110.751 501.68 113.429 501.68 116.733C501.68 120.037 504.356 122.716 507.656 122.716Z" fill="#006837" stroke="#201600" stroke-width="0.25" stroke-linejoin="round"/>
<path d="M509.153 123.402C512.453 123.402 515.129 120.724 515.129 117.42C515.129 114.116 512.453 111.437 509.153 111.437C505.852 111.437 503.176 114.116 503.176 117.42C503.176 120.724 505.852 123.402 509.153 123.402Z" fill="#009245" stroke="#201600" stroke-width="0.25" stroke-linejoin="round"/>
<path d="M524.41 120.411C527.711 120.411 530.387 117.732 530.387 114.428C530.387 111.124 527.711 108.446 524.41 108.446C521.109 108.446 518.434 111.124 518.434 114.428C518.434 117.732 521.109 120.411 524.41 120.411Z" fill="#2E3192" stroke="#201600" stroke-width="0.25" stroke-linejoin="round"/>
<path d="M525.906 121.097C529.207 121.097 531.883 118.419 531.883 115.115C531.883 111.811 529.207 109.132 525.906 109.132C522.606 109.132 519.93 111.811 519.93 115.115C519.93 118.419 522.606 121.097 525.906 121.097Z" fill="#0071BC" stroke="#201600" stroke-width="0.25" stroke-linejoin="round"/>
<path d="M490.903 142.281C494.203 142.281 496.879 139.603 496.879 136.299C496.879 132.995 494.203 130.316 490.903 130.316C487.602 130.316 484.926 132.995 484.926 136.299C484.926 139.603 487.602 142.281 490.903 142.281Z" fill="#333333" stroke="#201600" stroke-width="0.25" stroke-linejoin="round"/>
<path d="M489.552 140.957C492.311 140.957 494.548 138.718 494.548 135.956C494.548 133.193 492.311 130.954 489.552 130.954C486.792 130.954 484.555 133.193 484.555 135.956C484.555 138.718 486.792 140.957 489.552 140.957Z" fill="#F15A24" stroke="#201600" stroke-width="0.25" stroke-linejoin="round"/>
<path d="M593.73 30.4276L458.004 41.3384L417.637 12.48L553.363 1.54468L593.73 30.4276Z" fill="#B2B0AF" stroke="#201600" stroke-width="1.27" stroke-linecap="round" stroke-linejoin="round"/>
<path d="M417.637 23.6114V12.48L458.004 41.3384L457.98 52.4698L417.637 23.6114Z" fill="#EFEFEF" stroke="#201600" stroke-width="1.27" stroke-linecap="round" stroke-linejoin="round"/>
<path d="M457.977 52.4698L458.001 41.3384L593.727 30.4276L593.702 41.559L457.977 52.4698Z" fill="#D5D5D5" stroke="#201600" stroke-width="1.27" stroke-linecap="round" stroke-linejoin="round"/>
<path d="M547.775 18.6832L475.736 24.5676L465.742 17.4327L537.781 11.5483L547.775 18.6832Z" fill="#666666" stroke="#201600" stroke-width="0.25" stroke-miterlimit="10"/>
<path d="M417.805 139.143L404.039 143.066V136.569L417.805 132.621V139.143Z" fill="#C69C6D" stroke="#201600" stroke-width="0.25" stroke-miterlimit="10"/>
<path d="M537.785 11.5483V19.4678" stroke="#201600" stroke-width="0.75" stroke-miterlimit="10"/>
<path d="M423.051 143.973V136.887H423.957V143.973H423.051Z" fill="#AE8960" stroke="#201600" stroke-width="0.25" stroke-miterlimit="10"/>
<path d="M423.957 143.9V136.814H425.427V143.9H423.957Z" fill="#AA865E" stroke="#201600" stroke-width="0.25" stroke-miterlimit="10"/>
<path d="M425.427 143.826V136.74H426.407V143.851H425.402" fill="#A6835C"/>
<path d="M425.427 143.826V136.74H426.407V143.851H425.402" stroke="#201600" stroke-width="0.25" stroke-miterlimit="10"/>
<path d="M426.43 143.802V136.691H427.312V143.802H426.43Z" fill="#A28059" stroke="#201600" stroke-width="0.25" stroke-miterlimit="10"/>
<path d="M427.309 143.777V136.667H428.166V143.777H427.309Z" fill="#9E7D57" stroke="#201600" stroke-width="0.25" stroke-miterlimit="10"/>
<path d="M428.172 143.777V136.667H429.005V143.753H428.196" fill="#9A7A55"/>
<path d="M428.172 143.777V136.667H429.005V143.753H428.196" stroke="#201600" stroke-width="0.25" stroke-miterlimit="10"/>
<path d="M428.98 143.777V136.691H429.813V143.777H428.98Z" fill="#967753" stroke="#201600" stroke-width="0.25" stroke-miterlimit="10"/>
<path d="M429.81 143.802V136.716H430.642V143.802H429.785" fill="#937351"/>
<path d="M429.81 143.802V136.716H430.642V143.802H429.785" stroke="#201600" stroke-width="0.25" stroke-miterlimit="10"/>
<path d="M430.668 143.826V136.74H431.501V143.826H430.668Z" fill="#8F704E"/>
<path d="M430.668 143.826V136.74H431.501V143.826H430.668" stroke="#201600" stroke-width="0.25" stroke-miterlimit="10"/>
<path d="M431.5 143.875V136.789H432.357V143.9H431.524" fill="#8B6D4C"/>
<path d="M431.5 143.875V136.789H432.357V143.9H431.524" stroke="#201600" stroke-width="0.25" stroke-miterlimit="10"/>
<path d="M432.332 143.949V136.838H433.165V143.949H432.332Z" fill="#876A4A" stroke="#201600" stroke-width="0.25" stroke-miterlimit="10"/>
<path d="M433.164 144.022V136.912H433.997V143.998H433.164" fill="#836748"/>
<path d="M433.164 144.022V136.912H433.997V143.998H433.164" stroke="#201600" stroke-width="0.25" stroke-miterlimit="10"/>
<path d="M433.996 144.096V137.01H434.829V144.096H433.996Z" fill="#7F6446" stroke="#201600" stroke-width="0.25" stroke-miterlimit="10"/>
<path d="M434.833 144.194V137.108H435.666V144.194H434.809" fill="#7B6144"/>
<path d="M434.833 144.194V137.108H435.666V144.194H434.809" stroke="#201600" stroke-width="0.25" stroke-miterlimit="10"/>
<path d="M435.691 144.317V137.304L436.573 137.427V144.537L435.716 144.39" fill="#775E41"/>
<path d="M435.691 144.317V137.304L436.573 137.427V144.537L435.716 144.39" stroke="#201600" stroke-width="0.25" stroke-miterlimit="10"/>
<path d="M436.551 144.464V137.304L437.457 137.476V144.66L436.551 144.488" fill="#735A3F"/>
<path d="M436.551 144.464V137.304L437.457 137.476V144.66L436.551 144.488" stroke="#201600" stroke-width="0.25" stroke-miterlimit="10"/>
<path d="M437.453 144.66V137.549L438.433 137.77V144.88L437.453 144.66Z" fill="#6F573D" stroke="#201600" stroke-width="0.25" stroke-miterlimit="10"/>
<path d="M438.457 144.856V137.746L439.559 138.04V145.15C439.2 145.024 438.832 144.925 438.457 144.856Z" fill="#6B543B"/>
<path d="M438.457 144.856V137.746L439.559 138.04V145.15C439.2 145.024 438.832 144.925 438.457 144.856" stroke="#201600" stroke-width="0.25" stroke-miterlimit="10"/>
<path d="M439.536 145.15V138.04C440.638 138.323 441.683 138.796 442.623 139.437C442.851 139.574 443.044 139.763 443.185 139.989C443.325 140.215 443.41 140.471 443.431 140.737V147.847C443.412 147.581 443.328 147.324 443.187 147.097C443.046 146.871 442.853 146.682 442.623 146.548C441.678 145.898 440.624 145.424 439.512 145.15" fill="#675139"/>
<path d="M439.536 145.15V138.04C440.638 138.323 441.683 138.796 442.623 139.437C442.851 139.574 443.044 139.763 443.185 139.989C443.325 140.215 443.41 140.471 443.431 140.737V147.847C443.412 147.581 443.328 147.324 443.187 147.097C443.046 146.871 442.853 146.682 442.623 146.548C441.678 145.898 440.624 145.424 439.512 145.15" stroke="#201600" stroke-width="0.25" stroke-miterlimit="10"/>
<path d="M443.357 140.736V147.846C443.338 147.58 443.254 147.323 443.114 147.097C442.973 146.87 442.779 146.682 442.549 146.547C439.83 144.414 431.036 143.261 422.953 143.972V136.887C431.036 136.175 439.806 137.328 442.549 139.338C442.791 139.484 442.992 139.688 443.133 139.933C443.275 140.177 443.352 140.454 443.357 140.736V140.736Z" stroke="#201600" stroke-width="0.25" stroke-miterlimit="10"/>
<path d="M412.563 147.774V140.663C412.563 140.663 412.563 140.492 412.563 140.418V147.504C412.552 147.593 412.552 147.684 412.563 147.774Z" fill="#775E41"/>
<path d="M412.563 147.774V140.663C412.563 140.663 412.563 140.492 412.563 140.418V147.504C412.552 147.593 412.552 147.684 412.563 147.774" stroke="#201600" stroke-width="0.25" stroke-miterlimit="10"/>
<path d="M412.612 147.504V140.418C412.598 140.337 412.598 140.254 412.612 140.173V147.259C412.602 147.34 412.602 147.423 412.612 147.504Z" fill="#7B6144" stroke="#201600" stroke-width="0.25" stroke-miterlimit="10"/>
<path d="M412.707 147.259V140.173L412.854 139.928V147.112L412.707 147.332" fill="#7F6446"/>
<path d="M412.707 147.259V140.173L412.854 139.928V147.112L412.707 147.332" stroke="#201600" stroke-width="0.25" stroke-miterlimit="10"/>
<path d="M412.859 147.112V140.001C412.927 139.922 413 139.848 413.08 139.781V146.866C413.001 146.937 412.935 147.02 412.884 147.112" fill="#836748"/>
<path d="M412.859 147.112V140.001C412.927 139.922 413 139.848 413.08 139.781V146.866C413.001 146.937 412.935 147.02 412.884 147.112" stroke="#201600" stroke-width="0.25" stroke-miterlimit="10"/>
<path d="M413.055 146.793V139.756L413.3 139.535V146.621L413.055 146.842" fill="#876A4A"/>
<path d="M413.055 146.793V139.756L413.3 139.535V146.621L413.055 146.842" stroke="#201600" stroke-width="0.25" stroke-miterlimit="10"/>
<path d="M413.301 146.572V139.486L413.595 139.266V146.352L413.301 146.572Z" fill="#8B6D4C" stroke="#201600" stroke-width="0.25" stroke-miterlimit="10"/>
<path d="M413.595 146.352V139.266L413.938 139.045V146.131L413.57 146.352" fill="#8F704E"/>
<path d="M413.595 146.352V139.266L413.938 139.045V146.131L413.57 146.352" stroke="#201600" stroke-width="0.25" stroke-miterlimit="10"/>
<path d="M413.961 146.131V139.045L414.377 138.824V145.91L413.961 146.131Z" fill="#937351" stroke="#201600" stroke-width="0.25" stroke-miterlimit="10"/>
<path d="M414.375 145.91V138.824L414.865 138.604V145.69L414.399 145.91" fill="#967753"/>
<path d="M414.375 145.91V138.824L414.865 138.604V145.69L414.399 145.91" stroke="#201600" stroke-width="0.25" stroke-miterlimit="10"/>
<path d="M414.841 145.69V138.604L415.404 138.359V145.469L414.816 145.69" fill="#9A7A55"/>
<path d="M414.841 145.69V138.604L415.404 138.359V145.469L414.816 145.69" stroke="#201600" stroke-width="0.25" stroke-miterlimit="10"/>
<path d="M415.426 145.469V138.358L416.136 138.113V145.224L415.426 145.469Z" fill="#9E7D57" stroke="#201600" stroke-width="0.25" stroke-miterlimit="10"/>
<path d="M416.141 145.224V138.113L417.071 137.868V144.954L416.141 145.224Z" fill="#A28059" stroke="#201600" stroke-width="0.25" stroke-miterlimit="10"/>
<path d="M417.07 144.954V137.868L418.344 137.549V144.66L417.095 144.954" fill="#A6835C"/>
<path d="M417.07 144.954V137.868L418.344 137.549V144.66L417.095 144.954" stroke="#201600" stroke-width="0.25" stroke-miterlimit="10"/>
<path d="M418.32 144.66V137.549C418.933 137.427 419.569 137.304 420.28 137.206V144.317L418.32 144.66Z" fill="#AA865E" stroke="#201600" stroke-width="0.25" stroke-miterlimit="10"/>
<path d="M420.277 144.317V137.304C421.135 137.182 422.066 137.059 423.045 136.985V144.071C422.066 144.071 421.159 144.267 420.277 144.415" fill="#AE8960"/>
<path d="M420.277 144.317V137.304C421.135 137.182 422.066 137.059 423.045 136.985V144.071C422.066 144.071 421.159 144.267 420.277 144.415" stroke="#201600" stroke-width="0.25" stroke-miterlimit="10"/>
<path d="M412.562 147.798V140.712C412.562 139.02 416.629 137.451 423.071 136.887V143.973C416.629 144.66 412.562 146.106 412.562 147.798Z" stroke="#201600" stroke-width="0.25" stroke-miterlimit="10"/>
<path d="M437.013 154.835V147.749C438.801 147.578 440.491 147.381 442.059 147.161V154.247C440.426 154.492 438.736 154.688 436.988 154.835" fill="#AE8960"/>
<path d="M437.013 154.835V147.749C438.801 147.578 440.491 147.381 442.059 147.161V154.247C440.426 154.492 438.736 154.688 436.988 154.835" stroke="#201600" stroke-width="0.25" stroke-miterlimit="10"/>
<path d="M442.082 154.247V147.112C443.356 146.915 444.556 146.695 445.683 146.45V153.56C444.581 153.805 443.38 154.001 442.107 154.198" fill="#AA865E"/>
<path d="M442.082 154.247V147.112C443.356 146.915 444.556 146.695 445.683 146.45V153.56C444.581 153.805 443.38 154.001 442.107 154.198" stroke="#201600" stroke-width="0.25" stroke-miterlimit="10"/>
<path d="M445.66 153.609V146.499C446.468 146.327 447.252 146.155 448.11 145.959V153.07L445.783 153.609" fill="#A6835C"/>
<path d="M445.66 153.609V146.499C446.468 146.327 447.252 146.155 448.11 145.959V153.07L445.783 153.609" stroke="#201600" stroke-width="0.25" stroke-miterlimit="10"/>
<path d="M447.985 153.07V145.959C448.573 145.812 449.112 145.641 449.651 145.469V152.579L447.961 153.07" fill="#A28059"/>
<path d="M447.985 153.07V145.959C448.573 145.812 449.112 145.641 449.651 145.469V152.579L447.961 153.07" stroke="#201600" stroke-width="0.25" stroke-miterlimit="10"/>
<path d="M449.676 152.579V145.469C450.118 145.351 450.552 145.204 450.974 145.028V152.138L449.676 152.579Z" fill="#9E7D57" stroke="#201600" stroke-width="0.25" stroke-miterlimit="10"/>
<path d="M450.977 152.138V145.028L452.03 144.611V151.721L450.977 152.138Z" fill="#9A7A55" stroke="#201600" stroke-width="0.25" stroke-miterlimit="10"/>
<path d="M452.027 151.721V144.66L452.934 144.267V151.353L452.052 151.77" fill="#967753"/>
<path d="M452.027 151.721V144.66L452.934 144.267V151.353L452.052 151.77" stroke="#201600" stroke-width="0.25" stroke-miterlimit="10"/>
<path d="M452.907 151.304V144.218L453.642 143.802V150.912L452.883 151.304" fill="#937351"/>
<path d="M452.907 151.304V144.218L453.642 143.802V150.912L452.883 151.304" stroke="#201600" stroke-width="0.25" stroke-miterlimit="10"/>
<path d="M453.668 150.912V143.802L454.329 143.409V150.495L453.692 150.912" fill="#8F704E"/>
<path d="M453.668 150.912V143.802L454.329 143.409V150.495L453.692 150.912" stroke="#201600" stroke-width="0.25" stroke-miterlimit="10"/>
<path d="M454.309 150.495V143.409L454.848 142.993V150.103L454.309 150.495Z" fill="#8B6D4C"/>
<path d="M454.309 150.495V143.409L454.848 142.993V150.103L454.309 150.495" stroke="#201600" stroke-width="0.25" stroke-miterlimit="10"/>
<path d="M454.849 150.103V142.993L455.29 142.6V149.686L454.824 150.103" fill="#876A4A"/>
<path d="M454.849 150.103V142.993L455.29 142.6V149.686L454.824 150.103" stroke="#201600" stroke-width="0.25" stroke-miterlimit="10"/>
<path d="M455.308 149.686V142.6C455.417 142.478 455.515 142.347 455.602 142.208V149.294L455.234 149.711" fill="#836748"/>
<path d="M455.308 149.686V142.6C455.417 142.478 455.515 142.347 455.602 142.208V149.294L455.234 149.711" stroke="#201600" stroke-width="0.25" stroke-miterlimit="10"/>
<path d="M455.605 149.269V142.208C455.704 142.066 455.794 141.919 455.875 141.767V148.877C455.799 149.025 455.709 149.164 455.605 149.294" fill="#7F6446"/>
<path d="M455.605 149.269V142.208C455.704 142.066 455.794 141.919 455.875 141.767V148.877C455.799 149.025 455.709 149.164 455.605 149.294" stroke="#201600" stroke-width="0.25" stroke-miterlimit="10"/>
<path d="M455.945 148.852V141.742C456.023 141.604 456.081 141.455 456.117 141.301V148.411C456.07 148.562 456.013 148.71 455.945 148.852Z" fill="#7B6144"/>
<path d="M455.945 148.852V141.742C456.023 141.604 456.081 141.455 456.117 141.301V148.411C456.07 148.562 456.013 148.71 455.945 148.852" stroke="#201600" stroke-width="0.25" stroke-miterlimit="10"/>
<path d="M456.117 148.411V141.301C456.131 141.138 456.131 140.974 456.117 140.81V147.921C456.139 148.083 456.139 148.248 456.117 148.411Z" fill="#775E41" stroke="#201600" stroke-width="0.25" stroke-miterlimit="10"/>
<path d="M456.219 140.761V147.847C456.219 150.937 448.87 153.805 437.039 154.835V147.749C448.772 146.719 456.219 143.826 456.219 140.761Z" stroke="#201600" stroke-width="0.25" stroke-miterlimit="10"/>
<path d="M399.828 147.798V140.712C399.866 141.21 400.021 141.692 400.281 142.118C400.541 142.544 400.898 142.902 401.322 143.164C403.037 144.314 404.946 145.145 406.956 145.616V152.726C404.953 152.235 403.048 151.405 401.322 150.275C400.895 150.016 400.536 149.658 400.276 149.231C400.016 148.805 399.862 148.321 399.828 147.823" fill="#675139"/>
<path d="M399.828 147.798V140.712C399.866 141.21 400.021 141.692 400.281 142.118C400.541 142.544 400.898 142.902 401.322 143.164C403.037 144.314 404.946 145.145 406.956 145.616V152.726C404.953 152.235 403.048 151.405 401.322 150.275C400.895 150.016 400.536 149.658 400.276 149.231C400.016 148.805 399.862 148.321 399.828 147.823" stroke="#201600" stroke-width="0.25" stroke-miterlimit="10"/>
<path d="M406.957 152.726V145.616C407.594 145.812 408.28 145.984 408.99 146.155V153.266L406.982 152.726" fill="#6B543B"/>
<path d="M406.957 152.726V145.616C407.594 145.812 408.28 145.984 408.99 146.155V153.266L406.982 152.726" stroke="#201600" stroke-width="0.25" stroke-miterlimit="10"/>
<path d="M409.064 153.266V146.155L410.827 146.548V153.658L409.039 153.266" fill="#6F573D"/>
<path d="M409.064 153.266V146.155L410.827 146.548V153.658L409.039 153.266" stroke="#201600" stroke-width="0.25" stroke-miterlimit="10"/>
<path d="M410.754 153.658V146.548L412.42 146.866V153.977L410.778 153.658" fill="#735A3F"/>
<path d="M410.754 153.658V146.548L412.42 146.866V153.977L410.778 153.658" stroke="#201600" stroke-width="0.25" stroke-miterlimit="10"/>
<path d="M412.396 153.977V146.866L413.963 147.112V154.222L412.371 153.977" fill="#775E41"/>
<path d="M412.396 153.977V146.866L413.963 147.112V154.222L412.371 153.977" stroke="#201600" stroke-width="0.25" stroke-miterlimit="10"/>
<path d="M413.961 154.222V147.112L415.504 147.308V154.467L413.961 154.222Z" fill="#7B6144" stroke="#201600" stroke-width="0.25" stroke-miterlimit="10"/>
<path d="M415.559 154.467V147.357L417.077 147.553V154.639L415.559 154.467Z" fill="#7F6446" stroke="#201600" stroke-width="0.25" stroke-miterlimit="10"/>
<path d="M417.07 154.614V147.528L418.589 147.676V154.786L417.07 154.614Z" fill="#836748" stroke="#201600" stroke-width="0.25" stroke-miterlimit="10"/>
<path d="M418.59 154.786V147.676L420.133 147.823V154.909H418.614" fill="#876A4A"/>
<path d="M418.59 154.786V147.676L420.133 147.823V154.909H418.614" stroke="#201600" stroke-width="0.25" stroke-miterlimit="10"/>
<path d="M420.11 154.909V147.823H421.629V154.933H420.086" fill="#8B6D4C"/>
<path d="M420.11 154.909V147.823H421.629V154.933H420.086" stroke="#201600" stroke-width="0.25" stroke-miterlimit="10"/>
<path d="M421.652 155.031V147.921H423.196V155.007H421.652" fill="#8F704E"/>
<path d="M421.652 155.031V147.921H423.196V155.007H421.652" stroke="#201600" stroke-width="0.25" stroke-miterlimit="10"/>
<path d="M423.195 155.105V148.019H424.714V155.129H423.195" fill="#937351"/>
<path d="M423.195 155.105V148.019H424.714V155.129H423.195" stroke="#201600" stroke-width="0.25" stroke-miterlimit="10"/>
<path d="M424.715 155.178V148.068H426.234V155.203H424.715" fill="#967753"/>
<path d="M424.715 155.178V148.068H426.234V155.203H424.715" stroke="#201600" stroke-width="0.25" stroke-miterlimit="10"/>
<path d="M426.207 155.203V148.117H427.726V155.227H426.207" fill="#9A7A55"/>
<path d="M426.207 155.203V148.117H427.726V155.227H426.207" stroke="#201600" stroke-width="0.25" stroke-miterlimit="10"/>
<path d="M427.75 155.227V148.117H429.293V155.227H427.75Z" fill="#9E7D57" stroke="#201600" stroke-width="0.25" stroke-miterlimit="10"/>
<path d="M429.297 155.227V148.117H430.938V155.203H429.321" fill="#A28059"/>
<path d="M429.297 155.227V148.117H430.938V155.203H429.321" stroke="#201600" stroke-width="0.25" stroke-miterlimit="10"/>
<path d="M430.911 155.178V148.092H432.699V155.203H430.887" fill="#A6835C"/>
<path d="M430.911 155.178V148.092H432.699V155.203H430.887" stroke="#201600" stroke-width="0.25" stroke-miterlimit="10"/>
<path d="M432.723 155.129V148.019C433.604 148.019 434.511 148.019 435.393 147.872V154.982L432.747 155.129" fill="#AA865E"/>
<path d="M432.723 155.129V148.019C433.604 148.019 434.511 148.019 435.393 147.872V154.982L432.747 155.129" stroke="#201600" stroke-width="0.25" stroke-miterlimit="10"/>
<path d="M435.371 154.982V147.872L437.012 147.749V154.835L435.371 154.982Z" fill="#AE8960"/>
<path d="M435.371 154.982V147.872L437.012 147.749V154.835L435.371 154.982" stroke="#201600" stroke-width="0.25" stroke-miterlimit="10"/>
<path d="M399.828 147.798V140.712C399.866 141.21 400.021 141.692 400.281 142.118C400.541 142.544 400.898 142.902 401.322 143.164C406.221 147.038 422.314 149.122 437.036 147.847V154.933C422.339 156.233 406.319 154.124 401.347 150.275C400.912 150.016 400.546 149.656 400.281 149.225C400.017 148.793 399.861 148.303 399.828 147.798V147.798Z" stroke="#201600" stroke-width="0.25" stroke-miterlimit="10"/>
<path d="M437.037 147.749C422.34 149.024 406.296 146.94 401.324 143.066C396.351 139.192 404.288 134.999 418.984 133.7C433.681 132.4 449.75 134.534 454.722 138.383C459.695 142.232 451.758 146.45 437.037 147.749ZM423.075 136.887C415.016 137.598 410.656 139.879 413.4 142.012C416.143 144.145 424.888 145.273 432.995 144.464C441.103 143.655 445.414 141.472 442.793 139.339C440.172 137.206 431.305 136.078 423.197 136.887" fill="#8A6D4C"/>
<path d="M423.075 136.887C415.016 137.598 410.656 139.879 413.4 142.012C416.143 144.145 424.888 145.273 432.995 144.464C441.103 143.655 445.414 141.472 442.793 139.339C440.172 137.206 431.305 136.078 423.197 136.887M437.037 147.749C422.34 149.024 406.296 146.94 401.324 143.066C396.351 139.192 404.288 134.999 418.984 133.7C433.681 132.4 449.75 134.534 454.722 138.383C459.695 142.232 451.758 146.45 437.037 147.749Z" stroke="#201600" stroke-width="0.25" stroke-miterlimit="10"/>
<path d="M461.191 152.702L437.039 154.835V148.338L461.191 146.18V152.702Z" fill="#675139" stroke="#201600" stroke-width="0.25" stroke-miterlimit="10"/>
</svg>
