<svg  preserveAspectRatio="xMidYMid meet" viewBox="0 0 350 500" fill="none" xmlns="http://www.w3.org/2000/svg" xmlns:xlink="http://www.w3.org/1999/xlink">
<use x="0" y="225"  class="start" xlink:href="#start"></use>
<image class="rocket" x="50" y="440" width="100" height="223" xlink:href="start-bus-rocket.png" />
<use x="165" y="120" class="build" xlink:href="#build"></use>
<g class="texts">
  <image class="text1" x="325" y="278" width="20" height="75" xlink:href="main-text1.png" />
  <image class="text2" x="327" y="270" width="20" height="90"  xlink:href="main-text2.png" />
</g>
<use x="15" y="326" class="plash" xlink:href="#plash"></use>


<defs>
  <style>
@keyframes UpDown {
  0% {
    transform: translateY(0);
    }
  99.999999999999% {
    transform: translateY(-150%);
  }
}
@keyframes blind {
  0%{
    opacity: 1;
  }
  37.5%{
    opacity: 1;
  }
  40%{
    opacity: 0;
  }
  42.5%{
    opacity: 1;
  }
  45%{
    opacity: 0;
  }
  47.5%{
    opacity: 1;
  }
  50%{
    opacity: 0;
  }
  99.999999999999%{
    opacity: 0;
  }
}
@keyframes blind2 {
  0%{
    opacity: 0;
  }
  50%{
    opacity: 0;
  }
  51%{
    opacity: 1;
  }
  87.5%{opacity: 1;}90%{opacity: 0;}92.5%{opacity: 1;}95%{opacity: 0;}97.5%{opacity: 1;}99.999999999999%{opacity: 0;}}

  .rocket{will-change: transform;animation: UpDown 3s ease-in 0s infinite normal;}.text1{animation: blind 5s linear 0s infinite normal;}.text2{animation: blind2 5s linear 0s infinite normal;}
  texts{
  will-change: opacity;
  }
  
  </style>
</defs>
<symbol id="start" viewBox="0 0 450 180">
<defs>
<style>.hole-cls-1{fill:#5066b1;}.hole-cls-2{fill:#e6e6e6;stroke-miterlimit:10;}.hole-cls-2,.hole-cls-4{stroke:#000;stroke-width:0.5px;}.hole-cls-3{fill:#2d2c2c;}.hole-cls-4{fill:none;stroke-linejoin:round;}</style></defs>
<title>start hole</title>
<g  ><g id="Слой_6" data-name="Слой 6">
<polygon class="hole-cls-1" points="69.4 20.53 59.12 21.37 46.76 13.49 35.62 14.4 31.66 11.87 64.22 9.21 68.18 11.74 57.04 12.65 69.4 20.53"/><path class="hole-cls-1" d="M29.54,24a73.31,73.31,0,0,1-16-.43c-5.29-.72-9.17-1.86-11.61-3.42s-2.54-3-.44-4.31S7.41,13.61,13,13.16a70.57,70.57,0,0,1,19,.93l-5,2.25A39.6,39.6,0,0,0,17,15.8q-3.87.32-5.1,1.32c-.82.67-.62,1.4.61,2.18a15,15,0,0,0,5.6,1.79,32.18,32.18,0,0,0,7.61.27,18.22,18.22,0,0,0,4.11-.69,6.52,6.52,0,0,0,2.28-1.26l10.17.92a9,9,0,0,1-4.07,2.29A41.31,41.31,0,0,1,29.54,24Z"/><path class="hole-cls-1" d="M147.91,9.66q-2.85,1.34-10,1.92L132.8,12l4.67,3-10.28.83L110.87,5.4l15.9-1.3a66.91,66.91,0,0,1,12.79.06q5.69.63,8.42,2.37C149.85,7.72,149.82,8.76,147.91,9.66ZM134.7,6.58a27.83,27.83,0,0,0-4.92,0L125,7l4.31,2.75,4.88-.4a11.18,11.18,0,0,0,3.74-.73c.66-.33.65-.71,0-1.13a7.4,7.4,0,0,0-3.16-.9"/><path class="hole-cls-1" d="M112.55,17l-5.61-1.64L92.63,16.54l.26,2.08-10.82.88L81.43,7.72l9.91-.81,32.24,9.2ZM91.67,10.74l.45,3.3,8.32-.67-8.77-2.63"/><polygon class="hole-cls-1" points="182.22 11.32 171.93 12.16 159.57 4.28 148.44 5.18 144.48 2.66 177.03 0 180.99 2.53 169.86 3.44 182.22 11.32"/><polygon class="hole-cls-2" points="261.39 81.63 81.51 97.36 20.77 50.15 200.65 34.41 261.39 81.63"/>
<polygon class="hole-cls-3" points="232.33 84.16 81.51 97.36 49.83 72.73 200.65 59.53 232.33 84.16"/><line class="hole-cls-4" x1="200.64" y1="34.41" x2="200.64" y2="59.53"/></g></g></symbol>
<symbol viewBox="0 0 430.28 632.02" id="build">
<defs><style>.build-cls-1,.build-cls-2,.build-cls-83{fill:none;}.build-cls-10,.build-cls-11,.build-cls-12,.build-cls-13,.build-cls-14,.build-cls-15,.build-cls-16,.build-cls-2,.build-cls-20,.build-cls-21,.build-cls-22,.build-cls-23,.build-cls-24,.build-cls-25,.build-cls-26,.build-cls-27,.build-cls-28,.build-cls-3,.build-cls-67,.build-cls-68,.build-cls-69,.build-cls-70,.build-cls-71,.build-cls-72,.build-cls-73,.build-cls-74,.build-cls-75,.build-cls-76,.build-cls-77,.build-cls-78,.build-cls-79,.build-cls-83,.build-cls-89,.build-cls-9,.build-cls-91,.build-cls-92,.build-cls-97,.build-cls-98,.build-cls-99{stroke:#201600;}.build-cls-10,.build-cls-11,.build-cls-12,.build-cls-13,.build-cls-14,.build-cls-15,.build-cls-16,.build-cls-2,.build-cls-20,.build-cls-21,.build-cls-22,.build-cls-23,.build-cls-24,.build-cls-25,.build-cls-26,.build-cls-27,.build-cls-28,.build-cls-67,.build-cls-68,.build-cls-69,.build-cls-70,.build-cls-71,.build-cls-72,.build-cls-73,.build-cls-74,.build-cls-75,.build-cls-76,.build-cls-77,.build-cls-78,.build-cls-79,.build-cls-89,.build-cls-9,.build-cls-91,.build-cls-92,.build-cls-97,.build-cls-98,.build-cls-99{stroke-linecap:round;}.build-cls-10,.build-cls-11,.build-cls-12,.build-cls-13,.build-cls-14,.build-cls-15,.build-cls-16,.build-cls-2,.build-cls-20,.build-cls-21,.build-cls-22,.build-cls-23,.build-cls-24,.build-cls-25,.build-cls-26,.build-cls-27,.build-cls-28,.build-cls-5,.build-cls-6,.build-cls-67,.build-cls-68,.build-cls-69,.build-cls-70,.build-cls-71,.build-cls-72,.build-cls-73,.build-cls-74,.build-cls-75,.build-cls-76,.build-cls-77,.build-cls-78,.build-cls-79,.build-cls-89,.build-cls-9,.build-cls-91,.build-cls-92,.build-cls-96,.build-cls-97,.build-cls-98,.build-cls-99{stroke-linejoin:round;}.build-cls-10,.build-cls-13,.build-cls-2,.build-cls-20,.build-cls-21,.build-cls-22,.build-cls-23,.build-cls-24,.build-cls-25,.build-cls-67,.build-cls-68,.build-cls-69,.build-cls-70,.build-cls-71,.build-cls-72,.build-cls-73,.build-cls-74,.build-cls-75,.build-cls-76,.build-cls-77,.build-cls-78,.build-cls-79,.build-cls-9,.build-cls-98{stroke-width:0.63px;}.build-cls-3,.build-cls-81,.build-cls-89{fill:gray;}.build-cls-100,.build-cls-101,.build-cls-102,.build-cls-103,.build-cls-3,.build-cls-83{stroke-miterlimit:10;}.build-cls-3,.build-cls-83,.build-cls-89{stroke-width:0.16px;}.build-cls-4,.build-cls-90{opacity:0.2;}.build-cls-5,.build-cls-96{fill:#8cc63f;}.build-cls-100,.build-cls-101,.build-cls-102,.build-cls-103,.build-cls-5,.build-cls-6,.build-cls-96{stroke:#000;}.build-cls-5{stroke-width:0.5px;}.build-cls-6{fill:#39b54a;}.build-cls-6,.build-cls-96{stroke-width:0.25px;}.build-cls-7{fill:#f6f2ec;}.build-cls-8{isolation:isolate;}.build-cls-9{fill:#f1f1f1;}.build-cls-10{fill:#ddd;}.build-cls-11{fill:#e8bc91;}.build-cls-11,.build-cls-12,.build-cls-14,.build-cls-15,.build-cls-16,.build-cls-26,.build-cls-27,.build-cls-28,.build-cls-91,.build-cls-97,.build-cls-99{stroke-width:1.27px;}.build-cls-12,.build-cls-13{fill:#bf925f;}.build-cls-14{fill:#d2eff2;}.build-cls-15,.build-cls-79{fill:#e8f7f8;}.build-cls-16{fill:#c4eaee;}.build-cls-17,.build-cls-80{fill:#a0cbce;}.build-cls-18{fill:#a3d1d3;}.build-cls-19{fill:#fffff9;}.build-cls-103,.build-cls-19{opacity:0.5;}.build-cls-20{fill:#e0e0e0;}.build-cls-21{fill:#ebebeb;}.build-cls-22{fill:#777;}.build-cls-23,.build-cls-28{fill:#d5d5d5;}.build-cls-24{fill:#e5e4e4;}.build-cls-25,.build-cls-27{fill:#efefef;}.build-cls-26{fill:#b2b0af;}.build-cls-29{clip-path:url(#clip-path);}.build-cls-30{fill:#d0d1d1;}.build-cls-31{fill:#cfd0d0;}.build-cls-32{fill:#cecfcf;}.build-cls-33{fill:#cecece;}.build-cls-34{fill:#cdcdcd;}.build-cls-35,.build-cls-77{fill:#ccc;}.build-cls-36{fill:#cbcbcb;}.build-cls-37{fill:#cacbcb;}.build-cls-38{fill:#c9caca;}.build-cls-39{fill:#c8c9c9;}.build-cls-40{fill:#c8c8c8;}.build-cls-41{fill:#c7c7c7;}.build-cls-42{fill:#c6c6c6;}.build-cls-43{fill:#c5c5c5;}.build-cls-44{fill:#c4c5c5;}.build-cls-45{fill:#c3c4c4;}.build-cls-46{fill:#c2c3c3;}.build-cls-47{fill:#c1c2c2;}.build-cls-48{fill:#c1c1c1;}.build-cls-49{fill:silver;}.build-cls-50{fill:#bfc0c0;}.build-cls-51{fill:#bebfbf;}.build-cls-52{fill:#bdbebe;}.build-cls-53{fill:#bcbdbd;}.build-cls-54{fill:#bbbcbc;}.build-cls-55{fill:#bbb;}.build-cls-56{fill:#bababa;}.build-cls-57{fill:#b9baba;}.build-cls-58{fill:#b8b9b9;}.build-cls-59{fill:#b7b8b8;}.build-cls-60{fill:#b6b7b7;}.build-cls-61{fill:#b5b6b6;}.build-cls-62{fill:#b5b5b5;}.build-cls-63{fill:#b4b4b4;}.build-cls-64{fill:#b3b4b4;}.build-cls-65{fill:#b2b3b3;}.build-cls-66{clip-path:url(#clip-path-2);}.build-cls-67{fill:#e1e1e1;}.build-cls-68{fill:#e2e2e2;}.build-cls-69{fill:#e3e3e3;}.build-cls-70{fill:#e4e4e4;}.build-cls-71{fill:#e5e5e5;}.build-cls-72{fill:#e6e6e6;}.build-cls-73{fill:#e7e7e7;}.build-cls-74{fill:#e8e8e8;}.build-cls-75{fill:#e9e9e9;}.build-cls-76{fill:#eaeaea;}.build-cls-78{fill:#d1d1d1;}.build-cls-80{opacity:0.4;}.build-cls-82{clip-path:url(#clip-path-3);}.build-cls-84{clip-path:url(#clip-path-4);}.build-cls-85{clip-path:url(#clip-path-5);}.build-cls-86{clip-path:url(#clip-path-6);}.build-cls-87{clip-path:url(#clip-path-7);}.build-cls-88{clip-path:url(#clip-path-8);}.build-cls-91,.build-cls-92{fill:#ff7753;}.build-cls-92{stroke-width:0.48px;}.build-cls-93{fill:#201600;}.build-cls-94{fill:#46413a;}.build-cls-101,.build-cls-95{fill:#fff;}.build-cls-97{fill:#ffb054;}.build-cls-98{fill:#ffbd72;}.build-cls-99{fill:#bf8b56;}.build-cls-100{fill:#668699;}.build-cls-102,.build-cls-103{fill:#414848;}</style><clipPath id="clip-path"><path class="build-cls-1" d="M52.4,144.41a2.84,2.84,0,0,0-.26-.24,1.88,1.88,0,0,1,1,.13c-.26,0-.52.06-.78.11h0Z"/></clipPath><clipPath id="clip-path-2"><path class="build-cls-2" d="M12.35,325.27V313.53a.69.69,0,0,0,.33.51l0,11.74A.66.66,0,0,1,12.35,325.27Z"/></clipPath><clipPath id="clip-path-3"><path class="build-cls-3" d="M185.8,207.66l.07,0a2.21,2.21,0,0,1,1.34.28,2.11,2.11,0,0,0-.6-.24l-.4-.07Z"/></clipPath><clipPath id="clip-path-4"><path class="build-cls-3" d="M168.18,209.45l1.76-.18,1.77-.18,1.76-.17,1.76-.18,1.76-.18,1.76-.18,1.77-.18,1.76-.18,1.76-.18,1.76-.18.07,0-17.62,1.79Z"/></clipPath><clipPath id="clip-path-5"><path class="build-cls-3" d="M166.78,214.66l-.08,0a2.35,2.35,0,0,1-1.09-2.17,3.12,3.12,0,0,1,2.64-3l.08.05a3.12,3.12,0,0,0-2.64,3A2.35,2.35,0,0,0,166.78,214.66Z"/></clipPath><clipPath id="clip-path-6"><path class="build-cls-3" d="M185.8,273.82l.07,0a2.21,2.21,0,0,1,1.34.28,2.52,2.52,0,0,0-.6-.24,2,2,0,0,0-.4-.06Z"/></clipPath><clipPath id="clip-path-7"><path class="build-cls-3" d="M168.18,275.61l1.76-.17,1.77-.18,1.76-.18,1.76-.18,1.76-.18,1.76-.18,1.77-.18,1.76-.18L184,274l1.76-.18.07,0-17.62,1.79Z"/></clipPath><clipPath id="clip-path-8"><path class="build-cls-3" d="M166.78,280.82l-.08-.05a2.33,2.33,0,0,1-1.09-2.17,3.12,3.12,0,0,1,2.64-3l.08.05a3.12,3.12,0,0,0-2.64,3A2.35,2.35,0,0,0,166.78,280.82Z"/></clipPath></defs><title>building start</title><g  ><g ><g class="build-cls-4"><path d="M216.05,418l-135,11.81-23.85,2.09c-4.21.37-8.77-.23-10.19-1.33L.42,394.35c-1.42-1.11.84-2.3,5.05-2.67L164.3,377.79c4.2-.37,8.76.23,10.18,1.33l46.61,36.23C222.51,416.45,220.25,417.65,216.05,418Z"/></g><path class="build-cls-5" d="M173.47,360.08s1.59-6.85,7.05-5.24c0,0-2.39-6.51,4.94-6.08s9.59,5.65,9.59,5.65,7.27-3.41,11.58,5.67c0,0,5.23-2.87,8.86,3.33s-2,11.68-2,11.68,5-2.71,8.85,3.06.91,10.19.91,10.19,7,2.17,6.82,9.21A13.39,13.39,0,0,1,224.58,408s-3.18,5.13-17,3.6c0,0,.94,6.37-10.67,5.2s-14.54-3-14.54-3a21.61,21.61,0,0,1-10.38,3.1c-6.59.43-12.18-5-12.18-5l-6.6-14.15-6.49-16.16L149.86,370l1.69-9.52s1.83-5,6.65-4.51a11.47,11.47,0,0,1,7.55,4.09S169.16,355.54,173.47,360.08Z"/><path class="build-cls-6" d="M177.34,368.06s1.36-5.87,6-4.5c0,0-2-5.58,4.24-5.21s8.23,4.84,8.23,4.84,6.23-2.92,9.94,4.87c0,0,4.48-2.46,7.59,2.86s-1.75,10-1.75,10,4.29-2.32,7.6,2.64.78,8.73.78,8.73,6,1.87,5.84,7.91a11.44,11.44,0,0,1-4.67,8.93s-2.73,4.41-14.62,3.1c0,0,.81,5.46-9.15,4.45s-12.47-2.54-12.47-2.54a18.6,18.6,0,0,1-8.91,2.67c-5.65.37-10.44-4.31-10.44-4.31l-5.67-12.13-5.57-13.86,2.73-9.94,1.45-8.16s1.57-4.26,5.71-3.87a9.84,9.84,0,0,1,6.48,3.51S173.64,364.16,177.34,368.06Z"/><path class="build-cls-7" d="M158.55,391.67,145.43,390l6.5-3.43L165,388.23Zm-7-2.26,4.87.64,2.41-1.28-4.87-.63-2.41,1.27"/><path class="build-cls-7" d="M143.91,380c-5.42.48-11.29-.29-13.12-1.71s1.08-3,6.49-3.43,11.29.29,13.12,1.71S149.32,379.52,143.91,380Zm-5.15-4c-3,.26-4.63,1.12-3.61,1.91s4.28,1.21,7.29,1,4.62-1.12,3.6-1.91-4.27-1.21-7.28-.95"/><polygon class="build-cls-7" points="173.05 405.54 170.56 405.21 167.9 404.86 167.39 405.13 165.35 406.21 160.2 405.54 156.08 405 158.12 403.92 162.24 404.46 163.27 404.59 163.78 404.32 165.82 403.24 169.94 403.78 170.97 403.92 175.1 404.46 173.05 405.54"/><g class="build-cls-8"><path class="build-cls-9" d="M50.76,353.73v0L13.3,324.65l0,20.64,37.49,29.14,0-20.66v0Z"/><path class="build-cls-10" d="M176.83,342.57v.17l-126,11,0,20.66,126.07-11,0-20.82Z"/></g><polygon class="build-cls-11" points="13.12 399.6 13.34 198.79 50.82 227.93 50.6 428.74 13.12 399.6"/><polyline class="build-cls-12" points="49.54 429.02 49.55 429.02 54.46 428.6 174.75 418.44 177.12 418.24 177.24 418.23 177.24 418.2 177.25 406.51 177.25 406.46 177.26 405.61 177.47 217.42 46.98 228.45 46.77 414.4 46.77 416.39 46.77 416.43 46.75 428.13"/><line class="build-cls-13" x1="54.46" y1="345.2" x2="54.46" y2="415.56"/><line class="build-cls-13" x1="174.75" y1="341.28" x2="174.75" y2="411.63"/><g class="build-cls-8"><polygon class="build-cls-14" points="177.03 152.38 50.96 162.84 13.47 135.19 139.54 124.72 177.03 152.38"/><polygon class="build-cls-15" points="13.25 325.77 13.47 135.19 50.96 162.84 50.73 353.42 13.25 325.77"/><polygon class="build-cls-16" points="50.73 353.42 50.96 162.84 177.03 152.38 176.81 342.95 50.73 353.42"/></g><path class="build-cls-17" d="M84.72,274.24c0,6.35-.1,12.71-.36,19.06-.61,15.24-2.38,30.71.9,45.6a3.38,3.38,0,0,0,1.1,2.15c1.71,1.17,4.1-1.29,6-.43q0-25.19,0-50.38l0-52.46V212.56q0-23.37,0-46.74c-9.15-3-6.74,7.81-6.78,13.37l-.19,23-.38,46.45Z"/><path class="build-cls-17" d="M28.87,255c.05,6.35.11,12.71.36,19.06.62,15.24,2.39,30.71-.9,45.6a3.33,3.33,0,0,1-1.1,2.15c-1.7,1.17-4.09-1.29-6-.43q0-25.19,0-50.38l0-52.46V193.3q0-23.37,0-46.74c9.15-3,6.73,7.81,6.78,13.37l.19,23,.37,46.45Z"/><path class="build-cls-17" d="M148.68,266.79c-.06,6.4-.11,12.8-.36,19.19-.62,15.34-2.39,30.91.9,45.9a3.32,3.32,0,0,0,1.09,2.16c1.71,1.18,4.1-1.3,6-.44q0-25.35,0-50.7l0-52.8V204.72q0-23.53,0-47.05c-9.15-3-6.73,7.86-6.78,13.46l-.19,23.17-.38,46.76Z"/><path class="build-cls-18" d="M176.49,160.43a9.44,9.44,0,0,1-.15-4.72L150,157.39c-.63,0-1.39.17-1.59.77,1.89,2.88.71,3.61,4.61,3.63,2.61,0,5.22,0,7.83-.14C162.25,161.6,176.44,160.28,176.49,160.43Z"/><path class="build-cls-18" d="M133.55,163.21c-4.13.43-8.24,1.09-12.37,1.53-11.4,1.21-23,.69-34.27,2.67l-.52-3.56a1.43,1.43,0,0,1,.23-1.27,1.38,1.38,0,0,1,.85-.26l29.1-2.31c3.21-.26,6.43-.51,9.6-1.08,2.33-.41,4.63-1,7-1.37a85.64,85.64,0,0,1,8.76-.82,41.7,41.7,0,0,1,8.36.08c.23,1.68.57,3.39.65,5.07C145.19,162.67,139.32,162.49,133.55,163.21Z"/><path class="build-cls-18" d="M85.55,167.54c-3,.43-6,1.09-9,1.53-8.26,1.2-17,1-25.23,3-.13-1.19.15-2.67,0-3.85a1.83,1.83,0,0,1,.16-1.27.85.85,0,0,1,.62-.26l21.08-2.31a53.24,53.24,0,0,0,7-1.08c1.69-.41,3.36-1,5-1.37a45.59,45.59,0,0,1,6.35-.82,22,22,0,0,1,6.06.08c.16,1.68.41,3.39.47,5.07C94,167,89.73,166.82,85.55,167.54Z"/><path class="build-cls-18" d="M176.49,222.05a9.44,9.44,0,0,1-.15-4.72L150,219c-.63,0-1.39.18-1.59.77,1.89,2.89.71,3.62,4.61,3.63,2.61,0,5.22,0,7.83-.13C162.25,223.21,176.44,221.89,176.49,222.05Z"/><path class="build-cls-18" d="M133.55,224.83c-4.13.42-8.24,1.09-12.37,1.52-11.4,1.21-23,.69-34.27,2.67l-.52-3.56a1.05,1.05,0,0,1,1.08-1.53l29.1-2.31c3.21-.25,6.43-.51,9.6-1.07,2.33-.42,4.63-1,7-1.38a85.63,85.63,0,0,1,8.76-.81,41,41,0,0,1,8.36.08c.23,1.67.57,3.39.65,5.07C145.19,224.28,139.32,224.11,133.55,224.83Z"/><path class="build-cls-18" d="M85.55,229.16c-3,.42-6,1.08-9,1.52-8.26,1.21-17,1-25.23,3-.13-1.18.15-2.66,0-3.85a1.85,1.85,0,0,1,.16-1.27.89.89,0,0,1,.62-.26L73.24,226a53.21,53.21,0,0,0,7-1.07c1.69-.42,3.36-1,5-1.38a45.57,45.57,0,0,1,6.35-.81,21.21,21.21,0,0,1,6.06.08c.16,1.67.41,3.39.47,5.07C94,228.61,89.73,228.43,85.55,229.16Z"/><path class="build-cls-18" d="M176.49,287a9.4,9.4,0,0,1-.15-4.71L150,284c-.63,0-1.39.18-1.59.77,1.89,2.88.71,3.62,4.61,3.63q3.91,0,7.83-.14C162.25,288.16,176.44,286.84,176.49,287Z"/><path class="build-cls-18" d="M133.55,289.77c-4.13.43-8.24,1.09-12.37,1.53-11.4,1.21-23,.69-34.27,2.67l-.52-3.56a1.43,1.43,0,0,1,.23-1.27,1.38,1.38,0,0,1,.85-.26l29.1-2.31c3.21-.26,6.43-.51,9.6-1.07,2.33-.42,4.63-1,7-1.38a85.63,85.63,0,0,1,8.76-.81,40.27,40.27,0,0,1,8.36.08c.23,1.67.57,3.39.65,5.07C145.19,289.23,139.32,289.05,133.55,289.77Z"/><path class="build-cls-18" d="M85.55,294.1c-3,.43-6,1.09-9,1.53-8.26,1.21-17,1-25.23,3-.13-1.19.15-2.66,0-3.85a1.84,1.84,0,0,1,.16-1.27.85.85,0,0,1,.62-.26l21.08-2.31a55,55,0,0,0,7-1.07c1.69-.42,3.36-1,5-1.38a45.57,45.57,0,0,1,6.35-.81,21.58,21.58,0,0,1,6.06.07c.16,1.68.41,3.39.47,5.08C94,293.56,89.73,293.38,85.55,294.1Z"/><rect class="build-cls-19" x="102.18" y="152.78" width="4.87" height="199.33" transform="translate(73.12 -19) rotate(15.89)"/><rect class="build-cls-19" x="80.22" y="146.52" width="4.87" height="199.33" transform="translate(70.57 -13.22) rotate(15.89)"/><polygon class="build-cls-19" points="51.57 263.83 51.72 268.31 83.14 164.1 80.2 163.26 51.57 263.83"/><rect class="build-cls-19" x="128.36" y="150.2" width="9.44" height="199.33" transform="translate(73.5 -26.89) rotate(15.89)"/><polygon class="build-cls-19" points="144.31 342.17 133.47 346.51 175.82 197.75 176.49 222.04 144.31 342.17"/><g class="build-cls-8"><polygon class="build-cls-20" points="149.51 336.69 143.75 337.2 143.97 139.91 149.73 139.41 149.51 336.69"/><polygon class="build-cls-21" points="151.53 338.26 149.51 336.69 149.73 139.41 151.75 140.97 151.53 338.26"/><polygon class="build-cls-22" points="143.75 337.2 143.97 139.91 145.98 141.48 145.76 338.76 143.75 337.2"/><polygon class="build-cls-23" points="145.76 338.76 145.98 141.48 151.75 140.97 151.53 338.26 145.76 338.76"/></g><g class="build-cls-8"><polygon class="build-cls-23" points="85.43 348.46 79.66 348.96 79.88 151.68 85.65 151.17 85.43 348.46"/><polygon class="build-cls-24" points="87.44 350.02 85.43 348.46 85.65 151.17 87.66 152.74 87.44 350.02"/><polygon class="build-cls-22" points="79.66 348.96 79.88 151.68 81.89 153.24 81.67 350.52 79.66 348.96"/><polygon class="build-cls-23" points="81.67 350.52 81.82 214.75 81.83 214.61 81.89 153.24 87.66 152.74 87.44 350.02 81.67 350.52"/></g><g class="build-cls-8"><polygon class="build-cls-23" points="51.78 347.47 46.01 347.97 46.23 150.69 52 150.19 51.78 347.47"/><polygon class="build-cls-24" points="53.79 349.03 51.78 347.47 52 150.19 54.01 151.75 53.79 349.03"/><polygon class="build-cls-23" points="48.02 349.54 48.17 213.77 48.18 213.63 48.24 152.25 54.01 151.75 53.79 349.03 48.02 349.54"/></g><g class="build-cls-8"><polygon class="build-cls-23" points="177.57 341.91 174.98 342.42 175.08 145.13 177.67 144.63 177.57 341.91"/></g><g class="build-cls-8"><polygon class="build-cls-23" points="26.06 333.47 31.82 333.97 31.61 136.69 25.84 136.19 26.06 333.47"/><polygon class="build-cls-24" points="24.05 335.03 26.06 333.47 25.84 136.19 23.83 137.75 24.05 335.03"/><polygon class="build-cls-22" points="31.82 333.97 31.61 136.69 29.59 138.25 29.81 335.54 31.82 333.97"/><polygon class="build-cls-25" points="29.81 335.54 29.59 138.25 23.83 137.75 24.05 335.03 29.81 335.54"/></g><g class="build-cls-8"><polygon class="build-cls-26" points="180.53 143.81 48.71 155.34 9.52 124.88 141.34 113.35 180.53 143.81"/><polygon class="build-cls-27" points="9.51 136.62 9.52 124.88 48.71 155.34 48.7 167.09 9.51 136.62"/><polygon class="build-cls-28" points="48.7 167.09 48.71 155.34 180.53 143.81 180.51 155.55 48.7 167.09"/></g><g class="build-cls-8"><polygon class="build-cls-26" points="180.76 131.94 48.95 143.47 9.75 113.01 141.57 101.48 180.76 131.94"/><polygon class="build-cls-27" points="9.74 124.75 9.75 113.01 48.95 143.47 48.93 155.22 9.74 124.75"/><polygon class="build-cls-28" points="48.93 155.22 48.95 143.47 180.76 131.94 180.75 143.69 48.93 155.22"/></g><g class="build-cls-8"><polygon class="build-cls-26" points="149.27 121.5 64.38 128.93 39.14 109.31 124.03 101.88 149.27 121.5"/><polygon class="build-cls-27" points="39.13 116.87 39.14 109.31 64.38 128.93 64.37 136.5 39.13 116.87"/><polygon class="build-cls-28" points="64.37 136.5 64.38 128.93 149.27 121.5 149.27 129.07 64.37 136.5"/></g><g class="build-cls-8"><g class="build-cls-29"><g class="build-cls-8"><path class="build-cls-30" d="M52.4,144.41h0c.26,0,.52-.08.78-.11a1.88,1.88,0,0,0-1-.13,2.84,2.84,0,0,1,.26.24"/><path class="build-cls-30" d="M52.4,144.41h0l.31,0h0c.06,0,.11,0,.06-.08a1,1,0,0,0-.57-.05l.2.19"/><path class="build-cls-31" d="M52.4,144.41h0l.17,0,.14,0s0,0,0,0h0a.06.06,0,0,0,0,0l-.1,0a1.59,1.59,0,0,0-.37,0c.06,0,.11.11.17.17"/><path class="build-cls-32" d="M52.4,144.41h0l.11,0h0l.18,0a.1.1,0,0,0,0,0h0v0h0l-.08,0a.81.81,0,0,0-.27,0l.15.14"/><path class="build-cls-33" d="M52.4,144.41h0l.11,0h0s.14,0,.16,0,0,0-.11-.06l-.12,0h-.15l.12.12"/><path class="build-cls-34" d="M52.4,144.41h0l.11,0h0s.12,0,.14,0,0,0-.1-.05a1,1,0,0,0-.23,0v0l.09.09"/><path class="build-cls-35" d="M52.4,144.41h0l.1,0h0s.11,0,.13,0-.06-.07-.32-.05l0,0,.06.06"/><path class="build-cls-36" d="M52.4,144.41h0l.1,0h0s.11,0,.13,0,0-.08-.29-.06l0,.06,0,0"/><path class="build-cls-37" d="M52.4,144.41h0l.1,0h0s.09,0,.1,0,0-.07-.27-.05c0,0,0,0,0,.05l0,0"/><path class="build-cls-38" d="M52.4,144.41h0l.09,0h0s.07,0,.09,0,0-.06-.25-.05l0,.05,0,0"/><path class="build-cls-39" d="M52.4,144.41h0l.09,0h.09s0-.07-.23,0l0,0,0,0"/><path class="build-cls-40" d="M52.4,144.41h0l.09,0h.07s0-.06-.2,0l0,0,0,0"/><path class="build-cls-41" d="M52.4,144.41h0l.08,0h.06s0,0-.15,0h0l0,0,0,0"/><path class="build-cls-42" d="M52.4,144.41h.11s0,0-.1,0h-.06l0,0,0,0"/><path class="build-cls-43" d="M52.4,144.41h.09v0h-.14l0,0,0,0"/><path class="build-cls-44" d="M52.4,144.41h.08s0,0-.12,0v0l0,0"/><path class="build-cls-45" d="M52.4,144.41h.08s0,0-.12,0v0l0,0"/><path class="build-cls-46" d="M52.4,144.41h.08s-.08,0-.11,0v0l0,0"/><path class="build-cls-47" d="M52.4,144.41h.07s0,0-.1,0v0l0,0"/><path class="build-cls-48" d="M52.4,144.41h.06s0,0-.09,0h0l0,0"/><path class="build-cls-49" d="M52.4,144.41h.06s0,0-.09,0h0l0,0"/><path class="build-cls-50" d="M52.4,144.41h.05s0,0-.07,0h0l0,0"/><path class="build-cls-51" d="M52.4,144.41h.05s0,0-.07,0h0l0,0"/><path class="build-cls-52" d="M52.4,144.41h0s0,0-.06,0h0l0,0"/><path class="build-cls-53" d="M52.4,144.41h0s0,0-.06,0h0l0,0"/><path class="build-cls-54" d="M52.4,144.41h0s0,0,0,0h0"/><path class="build-cls-55" d="M52.4,144.41h0s0,0,0,0h0"/><path class="build-cls-56" d="M52.4,144.41h0s0,0,0,0h0"/><path class="build-cls-57" d="M52.4,144.41h0s0,0,0,0h0"/><path class="build-cls-58" d="M52.4,144.41h0"/><path class="build-cls-59" d="M52.4,144.41h0"/><path class="build-cls-60" d="M52.4,144.41h0"/><polyline class="build-cls-61" points="52.4 144.41 52.39 144.41 52.39 144.41 52.39 144.41 52.38 144.41 52.38 144.41 52.39 144.41 52.39 144.41 52.4 144.41 52.4 144.41"/><polyline class="build-cls-61" points="52.4 144.41 52.4 144.41 52.4 144.41 52.4 144.41 52.4 144.41 52.4 144.41 52.4 144.4 52.4 144.4 52.4 144.4 52.4 144.4 52.4 144.4 52.4 144.4 52.4 144.4 52.39 144.4 52.4 144.41 52.4 144.41"/><polyline class="build-cls-62" points="52.39 144.41 52.38 144.41 52.39 144.41 52.39 144.41 52.39 144.41 52.39 144.41"/><polyline class="build-cls-62" points="52.4 144.41 52.4 144.41 52.4 144.41 52.4 144.41 52.4 144.41 52.4 144.41 52.4 144.41 52.4 144.41 52.4 144.41 52.4 144.41"/><polyline class="build-cls-63" points="52.38 144.41 52.38 144.41 52.38 144.41"/><polyline class="build-cls-63" points="52.4 144.41 52.4 144.41 52.4 144.41 52.4 144.41 52.4 144.41 52.4 144.41 52.4 144.41 52.4 144.41"/><polyline class="build-cls-64" points="52.4 144.41 52.4 144.41 52.4 144.41 52.4 144.41"/><polyline class="build-cls-65" points="52.4 144.41 52.4 144.41 52.4 144.41"/></g></g></g><g class="build-cls-8"><g class="build-cls-66"><g class="build-cls-8"><polyline class="build-cls-20" points="12.35 325.27 12.36 313.53 12.36 313.53 12.35 325.27 12.35 325.27"/><path class="build-cls-67" d="M12.35,325.27v0"/><path class="build-cls-67" d="M12.35,325.29V313.57l0,11.74v0"/><path class="build-cls-68" d="M12.35,325.31l0-11.74v0l0,11.74v0"/><path class="build-cls-68" d="M12.35,325.33l0-11.74v11.74"/><path class="build-cls-69" d="M12.36,325.35V313.63l0,11.75v0"/><path class="build-cls-69" d="M12.36,325.38l0-11.75v11.75"/><path class="build-cls-69" d="M12.37,325.4V313.67l0,11.75v0"/><path class="build-cls-70" d="M12.37,325.42l0-11.75v0l0,11.75v0"/><path class="build-cls-70" d="M12.38,325.44l0-11.75v11.75"/><path class="build-cls-71" d="M12.39,325.46v0"/><path class="build-cls-71" d="M12.4,325.48V313.74l0,0,0,11.74v0"/><path class="build-cls-72" d="M12.41,325.5l0-11.74v11.76l0,0"/><path class="build-cls-72" d="M12.43,325.52v0"/><path class="build-cls-72" d="M12.44,325.54V313.8l0,0,0,11.75v0"/><path class="build-cls-73" d="M12.45,325.57l0-11.75,0,0,0,11.74,0,0"/><path class="build-cls-73" d="M12.47,325.59l0-11.74v11.76l0,0"/><path class="build-cls-74" d="M12.49,325.61V313.87l0,0v11.75l0,0"/><path class="build-cls-74" d="M12.51,325.64V313.89l0,0v11.74l0,0"/><path class="build-cls-75" d="M12.53,325.66V313.92l0,0v11.75l0,0"/><path class="build-cls-75" d="M12.56,325.69V313.94l0,0,0,11.74,0,0"/><path class="build-cls-75" d="M12.58,325.71l0-11.74,0,0,0,11.75,0,0"/><path class="build-cls-76" d="M12.61,325.74l0-11.75,0,0,0,11.74,0,0"/><path class="build-cls-76" d="M12.64,325.76l0-11.74,0,0,0,11.74,0,0"/></g></g><path class="build-cls-2" d="M12.35,325.27V313.53a.69.69,0,0,0,.33.51l0,11.74A.66.66,0,0,1,12.35,325.27Z"/></g><path class="build-cls-77" d="M178.82,341.62l0-.08s0,0,0,0a.36.36,0,0,0,0-.11V329.65a.22.22,0,0,1,0,.11.08.08,0,0,1,0,0l0,.07,0,0a.16.16,0,0,1-.06.08l0,0-.11.11,0,0-.12.08-.05,0-.12.07-.06,0-.17.08,0,0-.23.09-.07,0-.19.07-.09,0-.2.06-.09,0-.31.08h0l-.34.07-.1,0-.28.05h-.07l-.38.06h0l-.43.06h0l-.47,0V342.9h.13l.11,0h.23l.14,0h.13l.14,0h0l.14,0,.18,0h.06l.07,0,.13,0,.14,0,.11,0c.23,0,.44-.09.64-.14l.1,0,.19-.06.1,0,.19-.06.07,0,.23-.09,0,0,.16-.08.06,0,.12-.07.06,0,.12-.09,0,0a1.27,1.27,0,0,0,.12-.1l0,0,.06-.09Z"/><polygon class="build-cls-25" points="12.27 325.79 12.28 314.04 46.77 340.67 46.75 352.41 12.27 325.79"/><polygon class="build-cls-23" points="54.47 353.42 54.48 341.68 174.76 331.15 174.75 342.9 54.47 353.42"/><path class="build-cls-78" d="M54.48,341.68l-.6,0h0l-.59,0H51.49l-.56,0h0l-.55-.05h0l-.52-.06h0l-.5-.07h0l-.46-.08h0l-.42-.1h0l-.18-.05-.25-.07-.16-.06-.22-.07-.27-.11h0a1.71,1.71,0,0,1-.27-.14h0l-.22-.15h0l0,11.73h0l0,0,0,0,0,0,0,0,0,0h0l.06,0,.07,0,.1.05h0l.07,0,.17.07h0l.22.08.16.05.25.07.14,0h.08l.13,0,.18,0,.11,0h0l.14,0,.12,0,.12,0h.11l.11,0,.1,0h4.91Z"/><polygon class="build-cls-22" points="12.69 314.04 23.96 322.36 23.96 323.08 12.69 314.04"/><path class="build-cls-22" d="M79.75,337.73l1.92,1.57c-13.79,1.21-25.76,2.24-27,2.36a19.23,19.23,0,0,1-7.71-.81L29.73,327.54l2.1-.21L47,338.82l7.63,1Z"/><path class="build-cls-22" d="M144.06,332.28l1.93,1.23c-18,1.58-38.91,3.53-58.47,5.25v-1.67Z"/><path class="build-cls-22" d="M178.88,329.76c-.4,1.22-4.16,1.44-4.16,1.44s-12.42.68-22.93,1.6v-1.36Z"/><path class="build-cls-77" d="M178.82,417.34a.2.2,0,0,0,0-.08v0a.5.5,0,0,0,0-.12V405.37a.2.2,0,0,1,0,.11s0,0,0,0l0,.08,0,0-.06.08,0,0-.11.1,0,0-.12.09-.05,0-.12.07-.06,0-.17.08,0,0-.23.09-.07,0-.19.06-.09,0-.2.06-.09,0-.31.07h0l-.34.08-.1,0-.28,0h-.07l-.38,0h0l-.43.05h0l-.47.05v11.74h.35l.12,0h.14l.13,0,.14,0h0l.14,0,.18,0h.13l.13,0,.14,0,.11,0,.64-.15.1,0,.19-.05.1,0,.19-.07.07,0,.23-.1h0l.16-.08.06,0a.35.35,0,0,0,.12-.07l.06,0,.12-.08,0,0,.12-.11,0,0,.06-.08A.08.08,0,0,0,178.82,417.34Z"/><polygon class="build-cls-25" points="12.27 401.51 12.28 389.77 46.77 416.39 46.75 428.14 12.27 401.51"/><polygon class="build-cls-23" points="54.47 429.14 54.48 417.4 174.76 406.88 174.75 418.62 54.47 429.14"/><path class="build-cls-78" d="M54.48,417.4l-.6,0h0l-.59,0h-1.2l-.58,0h0l-.56,0h0l-.55,0h0l-.52-.06h0l-.5-.07h0l-.46-.09h0l-.42-.09h0l-.18-.05-.25-.07-.16-.05-.22-.08-.27-.11h0l-.27-.13h0l-.22-.15v0l0,11.73h0l0,0,0,0,0,0,0,0,0,0h0l.06,0,.07,0,.1.05h0l.07,0,.17.07,0,0,.22.07.16.05.25.07.14,0h.08l.13,0,.18,0,.11,0h0l.14,0,.12,0,.12,0h.11l.11,0h.2l.1,0h4.71Z"/><polygon class="build-cls-22" points="12.69 389.77 23.96 398.08 23.96 398.8 12.69 389.77"/><path class="build-cls-22" d="M79.75,413.46,81.67,415l-27,2.36a19,19,0,0,1-7.71-.81L29.73,403.26l2.1-.21L47,414.54l7.63,1Z"/><path class="build-cls-22" d="M149.51,407.65l1.93,1.23-63.92,5.61v-1.68Z"/><path class="build-cls-22" d="M178.88,405.48c-.4,1.22-4.16,1.45-4.16,1.45l-17.42,1.52v-1.36Z"/><path class="build-cls-77" d="M178.82,283.22a.2.2,0,0,0,0-.08v0a.43.43,0,0,0,0-.11V271.25a.25.25,0,0,1,0,.12,0,0,0,0,1,0,0l0,.08,0,0a.21.21,0,0,1-.06.08l0,0-.11.11,0,0-.12.08-.05,0-.12.07-.06,0-.17.08h0l-.23.1-.07,0-.19.07-.09,0-.2,0-.09,0-.31.08h0l-.34.07-.1,0-.28,0h-.07l-.38.06h0l-.43,0h0l-.47.05V284.5h.47l.14,0,.13,0h.18l.14,0,.18,0h.13l.13,0,.14,0,.11,0c.23-.05.44-.09.64-.15l.1,0,.19-.06.1,0,.19-.07.07,0,.23-.09,0,0,.16-.08.06,0,.12-.07.06,0,.12-.08,0,0,.12-.11,0,0,.06-.08A.05.05,0,0,0,178.82,283.22Z"/><polygon class="build-cls-25" points="12.27 267.39 12.28 255.65 46.77 282.27 46.75 294.02 12.27 267.39"/><polygon class="build-cls-23" points="54.47 295.03 54.48 283.28 174.76 272.76 174.75 284.5 54.47 295.03"/><path class="build-cls-78" d="M54.48,283.28l-.6.05h0l-.59,0h0l-.6,0h-.6l-.58,0h0l-.56,0h0l-.55-.05h0l-.52-.06h0l-.5-.08h0l-.46-.08h0l-.42-.09h0l-.18-.05-.25-.07-.16-.05-.22-.07-.27-.12h0l-.27-.14h0l-.22-.15h0l0,11.73h0l0,0,0,0,0,0,0,0,0,0h0l.06,0,.07,0,.1.05h0l.07,0,.17.06,0,0,.22.07.16.06.25.06.14.05h.08l.13,0,.18,0,.11,0h0l.14,0,.12,0,.12,0h.11l.11,0h.1l.1,0h.28l.09,0h4.44Z"/><polygon class="build-cls-22" points="12.69 255.65 23.96 263.96 23.96 264.68 12.69 255.65"/><path class="build-cls-22" d="M79.75,279.34l1.92,1.56-27,2.36a19,19,0,0,1-7.71-.81L29.73,269.14l2.1-.2L47,280.42l7.63,1Z"/><path class="build-cls-22" d="M144,273.81,146,275c-18,1.57-38.89,3.61-58.45,5.33V278.7Z"/><path class="build-cls-22" d="M178.88,271.37c-.4,1.21-4.16,1.44-4.16,1.44s-12.47.73-23,1.65v-1.35Z"/><path class="build-cls-77" d="M178.82,217.46a.25.25,0,0,0,0-.07s0,0,0,0a.43.43,0,0,0,0-.11V205.49a.25.25,0,0,1,0,.12,0,0,0,0,1,0,0l0,.08,0,0a.21.21,0,0,1-.06.08l0,0-.11.11,0,0-.12.08-.05,0-.12.07-.06,0-.17.08h0l-.23.1-.07,0-.19.07-.09,0-.2.05-.09,0-.31.08h0l-.34.07-.1,0-.28.05h-.07l-.38.06h0l-.43,0h0l-.47.05v11.74h.47l.14,0,.13,0h.18l.14,0,.18,0h.13l.13,0,.14,0,.11,0a5.47,5.47,0,0,0,.64-.15l.1,0,.19-.06.1,0,.19-.07.07,0,.23-.09,0,0,.16-.08.06,0,.12-.07.06,0,.12-.08,0,0,.12-.11,0,0,.06-.08A.05.05,0,0,0,178.82,217.46Z"/><polygon class="build-cls-25" points="12.27 201.63 12.28 189.89 46.77 216.52 46.75 228.26 12.27 201.63"/><polygon class="build-cls-23" points="54.47 229.27 54.48 217.52 174.76 207 174.75 218.74 54.47 229.27"/><path class="build-cls-78" d="M54.48,217.52l-.6,0h0l-.59,0h0l-.6,0h-.6l-.58,0h0l-.56,0h0l-.55-.05h0l-.52-.06h0l-.5-.08h0l-.46-.08h0l-.42-.09h0l-.18,0-.25-.07-.16-.05-.22-.07-.27-.12h0l-.27-.14h0l-.22-.15h0l0,11.73h0l0,0,0,0,0,0,0,0,0,0h0l.06,0,.07,0,.1,0h0l.07,0,.17.07h0l.22.07.16.06.25.07.14,0h.08l.13,0,.18,0,.11,0h0l.14,0,.12,0,.12,0h.11l.11,0h.1l.1,0h.19l.09,0h4.53Z"/><polygon class="build-cls-22" points="12.69 189.89 23.96 198.2 23.96 198.93 12.69 189.89"/><path class="build-cls-22" d="M79.75,213.58l1.92,1.56-27,2.36a19,19,0,0,1-7.71-.81L29.73,203.38l2.1-.2L47,214.66l7.63,1Z"/><path class="build-cls-22" d="M143.67,208.23l1.93,1.23c-18,1.58-38.52,3.43-58.08,5.15v-1.67Z"/><path class="build-cls-22" d="M178.88,205.61c-.4,1.21-4.16,1.44-4.16,1.44s-12.42.64-22.93,1.56v-1.36Z"/><line class="build-cls-1" x1="29.66" y1="203.52" x2="29.66" y2="202.47"/><polygon class="build-cls-16" points="136.68 374.43 136.68 420.43 136.47 420.45 103.82 423.39 103.82 376.52 136.68 374.43"/><line class="build-cls-79" x1="120.25" y1="375.47" x2="120.25" y2="421.87"/><line class="build-cls-23" x1="81.86" y1="226.87" x2="81.82" y2="214.41"/><line class="build-cls-23" x1="145.91" y1="206.56" x2="145.89" y2="222.91"/><line class="build-cls-23" x1="29.67" y1="201.77" x2="29.67" y2="219.03"/><line class="build-cls-2" x1="145.84" y1="271.37" x2="145.84" y2="289.08"/><line class="build-cls-2" x1="29.73" y1="266.15" x2="29.73" y2="282.28"/><path class="build-cls-80" d="M135.68,420.15,104.23,423v-7.67c1.83-.17,3.69-.18,5-.31l13-1.3a6.37,6.37,0,0,1,2.22.05,10.62,10.62,0,0,1,3,2C130.31,417.81,133.11,418,135.68,420.15Z"/><g class="build-cls-8"><g class="build-cls-8"><path class="build-cls-81" d="M185.8,207.66l.07,0a2.21,2.21,0,0,1,1.34.28,2.11,2.11,0,0,0-.6-.24l-.4-.07Z"/><g class="build-cls-82"><g class="build-cls-8"><path class="build-cls-3" d="M185.8,207.66a2.3,2.3,0,0,1,1.41.3,2.21,2.21,0,0,0-1.34-.28l-.07,0"/><path class="build-cls-3" d="M185.87,207.68l-.07,0h.43l.19,0,.21,0,.18.06.2.08.16.08,0,0a2.21,2.21,0,0,0-1.34-.28"/><path class="build-cls-3" d="M187.14,207.92a2.16,2.16,0,0,0-1.27-.24l-.07,0h.43l.19,0,.21,0,.18.06.2.08.16.08,0,0"/><path class="build-cls-3" d="M187,207.87l-.09,0a2.1,2.1,0,0,0-1.07-.15l-.07,0h.43l.19,0,.21,0,.18.06.2.08.06,0,0,0"/><path class="build-cls-3" d="M186.88,207.8l-.11,0a2.23,2.23,0,0,0-.9-.09l-.07,0h.43l.19,0,.21,0,.18.06.16.06-.09,0"/><path class="build-cls-3" d="M186.87,207.8l-.25-.08a2.34,2.34,0,0,0-.75,0l-.07,0h.43l.19,0,.21,0,.18.06.06,0h0"/><path class="build-cls-3" d="M186.71,207.74l-.23,0a2.07,2.07,0,0,0-.61,0l-.07,0h.43l.19,0,.21,0,.15.05-.07,0"/><path class="build-cls-3" d="M186.55,207.7l-.21,0a1.85,1.85,0,0,0-.47,0l-.07,0h.43l.19,0,.21,0h.05l-.13,0"/><path class="build-cls-3" d="M186.54,207.7a1.84,1.84,0,0,0-.33,0,2,2,0,0,0-.34,0l-.07,0h.43l.19,0,.16,0h0"/><path class="build-cls-3" d="M186.39,207.67h-.52l-.07,0h.43l.19,0h.07l-.1,0"/><path class="build-cls-3" d="M186.36,207.67a1.86,1.86,0,0,0-.41,0h-.08l-.07,0h.56"/><path class="build-cls-3" d="M186.26,207.66a1.23,1.23,0,0,0-.39,0,.1.1,0,0,0-.07,0h.46"/><path class="build-cls-3" d="M186.18,207.65a1.72,1.72,0,0,0-.33,0h.33"/><path class="build-cls-3" d="M186,207.65h0"/><path class="build-cls-3" d="M186,207.65h0"/><path class="build-cls-3" d="M185.81,207.66h0"/></g></g><path class="build-cls-83" d="M185.8,207.66l.07,0a2.21,2.21,0,0,1,1.34.28,2.11,2.11,0,0,0-.6-.24l-.4-.07Z"/></g><path class="build-cls-3" d="M186.32,207.72a1.86,1.86,0,0,1,.33,0h0l.29.08,0,0a1.47,1.47,0,0,1,.28.14l-.07,0-.07,0-.2-.09h-.05l-.12,0-.15-.05h-.15l-.13,0h-.47l.08,0a1.45,1.45,0,0,1,.36,0Z"/><path class="build-cls-3" d="M188.42,210.25h0v-.16h0v-.2h0v-.14s0-.06,0-.1v0h0v0h0a.29.29,0,0,0,0-.09v-.06h0v0h0a.29.29,0,0,0,0-.09l0-.05v0l0,0,0-.05a.2.2,0,0,0,0-.08h0v0l0,0a1.44,1.44,0,0,0-.49-.68l0-.05,0,0-.06,0-.14-.12h0l-.13-.08.06,0-.09-.05h0l-.14-.07,0,0,.13.06-.09-.05h0l-.07,0-.05,0H187l-.08,0-.07,0h0l-.08,0H186a.17.17,0,0,1,.06.06h0a.43.43,0,0,1,0,.07,1,1,0,0,1,0,.1h0a.65.65,0,0,0,0,.13.3.3,0,0,0,0,.1v0h0v0l0,.2h0v.06h0c0,.12,0,.24,0,.37a1.93,1.93,0,0,1,.34,0,1.33,1.33,0,0,1,.34.1h0l.13.07.05,0,0,0a1.5,1.5,0,0,1,.61,1.31l0,.24a.5.5,0,0,1,0,.13,1.91,1.91,0,0,1-1.59,1.49c0,.05,0,.1,0,.14s0,0,0,.07,0,.06,0,.09,0,0,0,.07,0,.05,0,.07v0s0,.08,0,.11h0v0h0a.39.39,0,0,1,0,.09l0,0,0,.05h0l-.06,0h0l.17,0,.2,0h.08l.13,0h0l.06,0,.09,0,.07,0h0l.1-.05.07,0,0,0,.09,0,.17-.12.06,0h0l.09-.08.12-.1v0l0,0,.05-.06.05,0,0,0,.06-.07,0,0,0-.05.08-.09h0l0,0,0-.06,0,0,0,0v0h0v0h0l0-.07,0,0h0v0h0l0,0,0,0h0l0-.07,0-.08,0,0v0h0l0-.07,0,0,.06-.16h0a1,1,0,0,0,0-.14h0a.43.43,0,0,1,0,0v-.07a.51.51,0,0,1,0-.09v-.05h0v-.09h0v0h0v-.15h0v-.11h0A.15.15,0,0,0,188.42,210.25Z"/><path class="build-cls-3" d="M188.41,210.32s0,0,0,0v0Z"/><path class="build-cls-3" d="M188.06,211.57l0-.06Z"/><path class="build-cls-3" d="M186.09,212.32h0l-17.63,1.79a.81.81,0,0,1,0,.16v0a.59.59,0,0,1,0,.14v0s0,.07,0,.1,0,.1,0,.14v0a.2.2,0,0,1,0,.08v0l0,0s0,0,0,0l-.06,0h0l1.76-.18,1.76-.18,1.76-.18,1.77-.18,1.76-.18,1.76-.18,1.76-.18,1.77-.17,1.76-.18,1.76-.18.06,0,0,0,0-.05,0,0a.39.39,0,0,0,0-.09v0s0-.09,0-.14h0s0-.06,0-.09v0h0s0-.08,0-.12v-.11s0-.06,0-.1Z"/><g class="build-cls-8"><path class="build-cls-81" d="M168.18,209.45l1.76-.18,1.77-.18,1.76-.17,1.76-.18,1.76-.18,1.76-.18,1.77-.18,1.76-.18,1.76-.18,1.76-.18.07,0-17.62,1.79Z"/><g class="build-cls-84"><g class="build-cls-8"><polyline class="build-cls-3" points="185.87 207.68 168.25 209.47 168.24 209.47 185.87 207.68 185.87 207.68"/><path class="build-cls-3" d="M185.87,207.68l-17.63,1.79h0l17.62-1.79h0"/><path class="build-cls-3" d="M185.85,207.67l-17.62,1.79h0l17.63-1.8h0"/><path class="build-cls-3" d="M185.84,207.66l-17.63,1.8h0l17.62-1.79h0"/><path class="build-cls-3" d="M185.82,207.66l-17.62,1.79h0l.88-.09.88-.09.88-.09.88-.09.88-.09.88-.08.88-.09.88-.09.89-.09.88-.09.88-.09.88-.09.88-.09.88-.09.88-.09.88-.09.89-.09.88-.09.88-.09.88-.09h0"/><polyline class="build-cls-3" points="185.81 207.66 185.81 207.66 185.81 207.66 184.93 207.75 184.05 207.84 183.16 207.93 182.28 208.02 181.4 208.11 180.52 208.2 179.64 208.29 178.76 208.38 177.88 208.47 177 208.56 176.12 208.65 175.24 208.74 174.35 208.83 173.47 208.91 172.59 209 171.71 209.09 170.83 209.18 169.95 209.27 169.07 209.36 168.19 209.45 168.18 209.45 169.94 209.27 171.71 209.09 173.47 208.91 175.23 208.74 176.99 208.56 178.75 208.38 180.52 208.2 182.28 208.02 184.04 207.84 185.8 207.66 185.81 207.66"/></g></g><path class="build-cls-83" d="M168.18,209.45l1.76-.18,1.77-.18,1.76-.17,1.76-.18,1.76-.18,1.76-.18,1.77-.18,1.76-.18,1.76-.18,1.76-.18.07,0-17.62,1.79Z"/></g><polygon class="build-cls-3" points="168.33 209.52 168.25 209.47 185.87 207.68 185.95 207.72 168.33 209.52"/><path class="build-cls-3" d="M186.23,208.83v-.11h0v-.19h0v-.36h0v0l0-.1h0v-.09h0v0h0v0h0v0l0,0h0l0,0v0h0l-17.62,1.79.06,0h0a.35.35,0,0,1,.06.09h0a.61.61,0,0,0,.05.12h0s0,.09,0,.14h0l0,.17h0a1.11,1.11,0,0,1,0,.19h0a1.21,1.21,0,0,1,0,.19h0v.21l17.62-1.79h0A.28.28,0,0,0,186.23,208.83Z"/><polygon class="build-cls-3" points="168.01 209.48 168 209.48 168.09 209.46 168.01 209.48"/><path class="build-cls-3" d="M167.94,209.49h0Z"/><path class="build-cls-3" d="M165.61,212.44c0-.13,0-.25,0-.37h0v0a.64.64,0,0,1,0-.07v0a1.55,1.55,0,0,1,.05-.23.76.76,0,0,0,0-.11l0-.07a1.46,1.46,0,0,1,.07-.19l0-.09.05-.09.09-.16a.16.16,0,0,1,0-.07l.07-.12.12-.15,0,0a1.47,1.47,0,0,1,.1-.13l.15-.16.13-.12.16-.13L167,210l.22-.14.08,0,.06,0,.08,0,.09,0,.07,0,.08,0,.09,0,.08,0,.07,0,.1,0,.08,0,.16,0h0s0,0,0,0h0l-.16,0h-.14l-.09,0h0l-.09,0h0l-.07,0-.13.05,0,0h0l-.15.07h0l-.07,0-.1.05h0l-.11.07,0,0,0,0,0,0-.12.1-.14.12,0,0,0,0-.09.1,0,0-.07.08,0,.05,0,0-.12.18,0,.06-.07.11,0,0-.07.14h0a.37.37,0,0,0,0,.11.36.36,0,0,0,0,.09l0,.08a.61.61,0,0,0-.05.12,3.3,3.3,0,0,0-.14.61v.05a1.11,1.11,0,0,0,0,.19v.14a.81.81,0,0,0,0,.16v.18h0s0,.08,0,.12V213a1.24,1.24,0,0,0,0,.16v0a2.67,2.67,0,0,0,.24.58l0,0,.08.13h0l.12.16.11.12h0l0,0,.14.13h0l0,0h0l.09.07.16.1a2.42,2.42,0,0,1-.51-.43A2.46,2.46,0,0,1,165.61,212.44Zm1.77-2.77h0Z"/><path class="build-cls-3" d="M186.22,208.93a1.39,1.39,0,0,1,1.52,1.53,2,2,0,0,1-1.65,1.86l-17.63,1.79a1.38,1.38,0,0,1-1.51-1.53,2,2,0,0,1,1.65-1.86Z"/><g class="build-cls-8"><path class="build-cls-81" d="M166.78,214.66l-.08,0a2.35,2.35,0,0,1-1.09-2.17,3.12,3.12,0,0,1,2.64-3l.08.05a3.12,3.12,0,0,0-2.64,3A2.35,2.35,0,0,0,166.78,214.66Z"/><g class="build-cls-85"><g class="build-cls-8"><path class="build-cls-3" d="M166.78,214.66l-.08,0a2.35,2.35,0,0,1-1.09-2.17,3.25,3.25,0,0,1,1.24-2.39l.08,0a3.27,3.27,0,0,0-1.24,2.4,2.35,2.35,0,0,0,1.09,2.17"/><path class="build-cls-3" d="M166.93,210.09l-.08,0,.22-.16.08.05-.22.15"/><path class="build-cls-3" d="M167.15,209.94l-.08-.05.18-.1.08,0-.18.11"/><path class="build-cls-3" d="M167.33,209.83l-.08,0,.15-.08.08,0-.15.08"/><path class="build-cls-3" d="M167.48,209.75l-.08,0,.15-.07.08.05-.15.06"/><path class="build-cls-3" d="M167.63,209.69l-.08-.05.13,0,.08,0-.13.05"/><path class="build-cls-3" d="M167.76,209.64l-.08,0,.14,0,.08,0-.14,0"/><path class="build-cls-3" d="M167.9,209.6l-.08,0,.13,0,.08,0-.13,0"/><path class="build-cls-3" d="M168,209.57l-.08,0,.12,0,.08,0-.12,0"/><path class="build-cls-3" d="M168.15,209.54l-.08,0,.13,0,.08.05-.13,0"/><path class="build-cls-3" d="M168.28,209.52l-.08-.05h.05l.08.05h-.05"/></g></g><path class="build-cls-83" d="M166.78,214.66l-.08,0a2.35,2.35,0,0,1-1.09-2.17,3.12,3.12,0,0,1,2.64-3l.08.05a3.12,3.12,0,0,0-2.64,3A2.35,2.35,0,0,0,166.78,214.66Z"/></g><path class="build-cls-3" d="M168.6,210.72h0v-.09h0v-.09h0v0h0v0h0v0h0v0h0v0h0v0h0v0h0v0h0v0h0v0h0v0h0v0h0v0h0v0h0v0h0l0-.11v0h0v0h0v0h0v0h-.17l-.11,0H168l-.08,0h0l0,0h0l0,0h-.05l0,0h0l0,0h-.06l0,0h-.06l-.05,0,0,0h0l0,0h0l0,0,0,0h0v0h0l0,0,0,0,0,0h0l0,0h0l0,0h0l0,0h0l0,0,0,0,0,0h0l0,0,0,0h0l0,0h0v0h0l0,0,0,0h0v0l0,0h0l0,0h0l0,0,0,0v0h0v0l0,0v0l0,0,0,0h0l0,0,0,0h0v0l0,0v0h0v0l0,0,0,0v0h0v.07l0,0h0v0l0,0v.07h0v0h0v0h0v0l0,0v.08l0,0v0h0v0h0v.06h0v0s0,.05,0,.07l0,.05h0v.25h0a1.64,1.64,0,0,0,0,.23,2.35,2.35,0,0,0,1.09,2.17l0,0h0l.09.05,0,0h0a1.57,1.57,0,0,0,.38.13l.15,0h0l.17,0h.44l0,0h.07v0h0v0h0v-.05h0v0h0v-.11h0v0h0v-.11h0v0a.11.11,0,0,1,0-.05v0h0v-.11h0v-.1a1.38,1.38,0,0,1-1.51-1.53A2,2,0,0,1,168.6,210.72Z"/></g><g class="build-cls-8"><g class="build-cls-8"><path class="build-cls-81" d="M185.8,273.82l.07,0a2.21,2.21,0,0,1,1.34.28,2.52,2.52,0,0,0-.6-.24,2,2,0,0,0-.4-.06Z"/><g class="build-cls-86"><g class="build-cls-8"><path class="build-cls-3" d="M185.8,273.82a2.45,2.45,0,0,1,1.41.3,2.21,2.21,0,0,0-1.34-.28l-.07,0"/><path class="build-cls-3" d="M185.87,273.84l-.07,0h.43l.19,0,.21,0,.18.06.2.08.16.08,0,0a2.21,2.21,0,0,0-1.34-.28"/><path class="build-cls-3" d="M187.14,274.08a2.23,2.23,0,0,0-1.27-.24l-.07,0h.43l.19,0,.21,0,.18.06.2.08.16.08,0,0"/><path class="build-cls-3" d="M187,274l-.09,0a2.22,2.22,0,0,0-1.07-.15l-.07,0h.43l.19,0,.21,0,.18.06.2.08.06,0,0,0"/><path class="build-cls-3" d="M186.88,274l-.11,0a2.23,2.23,0,0,0-.9-.09l-.07,0h.43l.19,0,.21,0,.18.06.16.06-.09,0"/><path class="build-cls-3" d="M186.87,274l-.25-.07a2.08,2.08,0,0,0-.75-.05l-.07,0h.43l.19,0,.21,0,.18.06.06,0h0"/><path class="build-cls-3" d="M186.71,273.91l-.23-.05a2.48,2.48,0,0,0-.61,0l-.07,0h.43l.19,0,.21,0,.15.05-.07,0"/><path class="build-cls-3" d="M186.55,273.87l-.21,0a1.85,1.85,0,0,0-.47,0l-.07,0h.43l.19,0,.21,0,.05,0-.13,0"/><path class="build-cls-3" d="M186.54,273.86a1.84,1.84,0,0,0-.33,0h-.34l-.07,0h.43l.19,0,.16,0h0"/><path class="build-cls-3" d="M186.39,273.84a1,1,0,0,0-.31,0h-.21l-.07,0h.43l.19,0h0"/><path class="build-cls-3" d="M186.36,273.83a1.86,1.86,0,0,0-.41,0h-.08l-.07,0h.43l.16,0h0"/><path class="build-cls-3" d="M186.26,273.82a1.62,1.62,0,0,0-.39,0l-.07,0h.46"/><path class="build-cls-3" d="M186.18,273.81a1.72,1.72,0,0,0-.33,0h.33"/><path class="build-cls-3" d="M186,273.81l-.16,0H186"/><path class="build-cls-3" d="M186,273.81h0"/><path class="build-cls-3" d="M185.81,273.82h0"/></g></g><path class="build-cls-83" d="M185.8,273.82l.07,0a2.21,2.21,0,0,1,1.34.28,2.52,2.52,0,0,0-.6-.24,2,2,0,0,0-.4-.06Z"/></g><path class="build-cls-3" d="M186.32,273.88l.33,0h0a1.4,1.4,0,0,1,.29.09h0l.28.14-.07-.05-.07,0-.2-.09h-.05l-.12,0-.15,0h-.05l-.1,0-.13,0h-.47l.08.05a2.17,2.17,0,0,1,.36,0Z"/><path class="build-cls-3" d="M188.42,276.41h0v-.29h0V276h0v-.06s0-.07,0-.11v0h0a.29.29,0,0,0,0-.09h0v0h0v0h0a.29.29,0,0,0,0-.09l0,0v0l0-.05,0,0a.23.23,0,0,0,0-.09v0l0-.05a1.37,1.37,0,0,0-.49-.67l0-.05,0,0-.06-.05-.14-.12h0l-.13-.08.06,0-.09-.05h0l-.14-.06,0,0,.13.06-.09-.05h0l-.07,0-.05,0H187l-.08,0-.07,0h0l-.08,0H186l.06.06h0l0,.07,0,.1h0a.93.93,0,0,0,0,.13.29.29,0,0,0,0,.09v0h0l0,.2v0h0v0h0c0,.12,0,.24,0,.37h.34a1.33,1.33,0,0,1,.34.1h0l.13.07.05,0,0,0a1.51,1.51,0,0,1,.61,1.32l0,.23a.7.7,0,0,1,0,.14,1.94,1.94,0,0,1-1.59,1.49s0,.09,0,.13,0,.05,0,.08,0,.05,0,.08,0,.05,0,.07,0,0,0,.07v0s0,.08,0,.12h0v0h0l0,.08,0,0,0,0h0l-.06,0h0l.17,0,.2-.05h.08l.13-.05h0l.06,0,.09,0,.07,0h0l.1-.05.07,0h0l.09,0,.17-.12.06-.05h0l.09-.07.12-.11h0l0,0,.05-.05.05-.06,0,0,.06-.07h0a.1.1,0,0,1,0-.05.39.39,0,0,1,.08-.1h0l0,0,0-.06,0,0,0-.05v0h0v0h0l0-.07,0,0h0l0-.05,0,0v0h0l0-.07,0-.08,0,0v0l0-.07,0,0,.06-.16h0a.74.74,0,0,0,0-.14h0s0,0,0-.06V277a.29.29,0,0,1,0-.09v-.06h0v-.09h0v0h0v-.15h0v-.1h0A.22.22,0,0,0,188.42,276.41Z"/><path class="build-cls-3" d="M188.41,276.49a.06.06,0,0,0,0,0v0Z"/><path class="build-cls-3" d="M188.06,277.73l0-.06Z"/><path class="build-cls-3" d="M186.09,278.49h0l-17.63,1.79a.76.76,0,0,1,0,.15v0a.77.77,0,0,1,0,.15v0s0,.07,0,.1,0,.1,0,.14v0a.2.2,0,0,1,0,.08v0l0,.05,0,0a.09.09,0,0,1-.06,0h0l1.76-.18,1.76-.18,1.76-.18,1.77-.18,1.76-.17,1.76-.18,1.76-.18,1.77-.18,1.76-.18,1.76-.18.06,0s0,0,0,0l0,0,0,0,0-.08v0s0-.09,0-.14h0s0-.06,0-.09v0h0s0-.08,0-.12v-.11s0-.06,0-.09Z"/><g class="build-cls-8"><path class="build-cls-81" d="M168.18,275.61l1.76-.17,1.77-.18,1.76-.18,1.76-.18,1.76-.18,1.76-.18,1.77-.18,1.76-.18L184,274l1.76-.18.07,0-17.62,1.79Z"/><g class="build-cls-87"><g class="build-cls-8"><polyline class="build-cls-3" points="185.87 273.84 168.25 275.63 168.24 275.63 185.87 273.84 185.87 273.84"/><path class="build-cls-3" d="M185.87,273.84l-17.63,1.79h0l17.62-1.79h0"/><path class="build-cls-3" d="M185.85,273.83l-17.62,1.79h0l17.63-1.79h0"/><path class="build-cls-3" d="M185.84,273.83l-17.63,1.79h0l17.62-1.79h0"/><path class="build-cls-3" d="M185.82,273.82l-17.62,1.79h0l.88-.09.88-.08.88-.09.88-.09.88-.09.88-.09.88-.09.88-.09.89-.09.88-.09.88-.09.88-.09.88-.09.88-.09.88-.09.88-.09.89-.09.88-.09.88-.09.88-.09h0"/><polyline class="build-cls-3" points="185.81 273.82 185.81 273.82 185.81 273.82 184.93 273.91 184.05 274 183.16 274.09 182.28 274.18 181.4 274.27 180.52 274.36 179.64 274.45 178.76 274.54 177.88 274.63 177 274.72 176.12 274.81 175.24 274.9 174.35 274.99 173.47 275.08 172.59 275.17 171.71 275.26 170.83 275.35 169.95 275.44 169.07 275.52 168.19 275.61 168.18 275.62 169.94 275.44 171.71 275.26 173.47 275.08 175.23 274.9 176.99 274.72 178.75 274.54 180.52 274.36 182.28 274.18 184.04 274 185.8 273.82 185.81 273.82"/></g></g><path class="build-cls-83" d="M168.18,275.61l1.76-.17,1.77-.18,1.76-.18,1.76-.18,1.76-.18,1.76-.18,1.77-.18,1.76-.18L184,274l1.76-.18.07,0-17.62,1.79Z"/></g><polygon class="build-cls-3" points="168.33 275.68 168.25 275.63 185.87 273.84 185.95 273.89 168.33 275.68"/><path class="build-cls-3" d="M186.23,275v-.31h0v-.36h0v0l0-.1h0v-.07h0v0h0V274l0,0h0l0,0h0l0,0h0l-17.62,1.79a.17.17,0,0,1,.06.06h0a.35.35,0,0,1,.06.09h0a.61.61,0,0,0,.05.12h0a1.55,1.55,0,0,1,0,.15h0l0,.17h0a1.23,1.23,0,0,1,0,.19h0a1.27,1.27,0,0,1,0,.2h0v.2l17.62-1.79h0A.28.28,0,0,0,186.23,275Z"/><polygon class="build-cls-3" points="168.01 275.64 168 275.64 168.09 275.63 168.01 275.64"/><path class="build-cls-3" d="M167.94,275.65h0Z"/><path class="build-cls-3" d="M165.61,278.6c0-.12,0-.25,0-.37h0v-.05s0-.05,0-.07v0a1.55,1.55,0,0,1,.05-.23.49.49,0,0,0,0-.11l0-.07a1.34,1.34,0,0,1,.07-.18,1,1,0,0,1,0-.1l.05-.09.09-.16a.16.16,0,0,1,0-.07l.07-.11.12-.16,0,0,.1-.13.15-.16a.69.69,0,0,1,.13-.11,1.07,1.07,0,0,1,.16-.14l.14-.1c.07-.06.15-.1.22-.15l.08,0,.06,0,.08,0,.09,0,.07,0,.08,0,.09,0,.08,0,.07,0,.1,0h.08l.16,0h-.09l-.16,0h-.14l-.09,0h0l-.09,0h0l-.07,0-.13.05,0,0h0l-.15.07h0l-.07.05-.1.06h0l-.11.07,0,0,0,0,0,0-.12.1-.14.12,0,0,0,0-.09.1,0,0a.27.27,0,0,1-.07.08l0,0,0,0-.12.17,0,.06a.75.75,0,0,0-.07.12l0,0-.07.14h0a.54.54,0,0,0,0,.11.36.36,0,0,0,0,.09l0,.08a.61.61,0,0,0-.05.12,3.3,3.3,0,0,0-.14.61v0a1.23,1.23,0,0,0,0,.2v.14a.71.71,0,0,0,0,.15V279h0s0,.08,0,.12v.05a.94.94,0,0,0,0,.16v0a2.67,2.67,0,0,0,.24.58l0,0,.08.12h0l.12.16.11.12v0h0l.14.13h0l0,0h0l.09.07.16.1a2.38,2.38,0,0,1-.51-.42A2.49,2.49,0,0,1,165.61,278.6Zm1.77-2.77h0Z"/><path class="build-cls-3" d="M186.22,275.09a1.39,1.39,0,0,1,1.52,1.54,2,2,0,0,1-1.65,1.86l-17.63,1.79a1.39,1.39,0,0,1-1.51-1.54,2,2,0,0,1,1.65-1.86Z"/><g class="build-cls-8"><path class="build-cls-81" d="M166.78,280.82l-.08-.05a2.33,2.33,0,0,1-1.09-2.17,3.12,3.12,0,0,1,2.64-3l.08.05a3.12,3.12,0,0,0-2.64,3A2.35,2.35,0,0,0,166.78,280.82Z"/><g class="build-cls-88"><g class="build-cls-8"><path class="build-cls-3" d="M166.78,280.82l-.08-.05a2.33,2.33,0,0,1-1.09-2.17,3.25,3.25,0,0,1,1.24-2.39l.08.05a3.25,3.25,0,0,0-1.24,2.39,2.35,2.35,0,0,0,1.09,2.17"/><path class="build-cls-3" d="M166.93,276.26l-.08-.05.22-.16.08.05-.22.16"/><path class="build-cls-3" d="M167.15,276.1l-.08-.05.18-.1.08.05-.18.1"/><path class="build-cls-3" d="M167.33,276l-.08-.05.15-.08.08.05-.15.08"/><path class="build-cls-3" d="M167.48,275.92l-.08-.05.15-.06.08,0-.15.07"/><path class="build-cls-3" d="M167.63,275.85l-.08,0,.13-.05.08,0-.13.05"/><path class="build-cls-3" d="M167.76,275.8l-.08,0,.14-.05.08.05-.14,0"/><path class="build-cls-3" d="M167.9,275.76l-.08-.05.13,0,.08.05-.13,0"/><path class="build-cls-3" d="M168,275.73l-.08-.05.12,0,.08,0-.12,0"/><path class="build-cls-3" d="M168.15,275.7l-.08,0,.13,0,.08,0-.13,0"/><path class="build-cls-3" d="M168.28,275.68l-.08,0h.05l.08.05h-.05"/></g></g><path class="build-cls-83" d="M166.78,280.82l-.08-.05a2.33,2.33,0,0,1-1.09-2.17,3.12,3.12,0,0,1,2.64-3l.08.05a3.12,3.12,0,0,0-2.64,3A2.35,2.35,0,0,0,166.78,280.82Z"/></g><path class="build-cls-3" d="M168.6,276.88h0v-.09h0v-.08h0v0h0v0h0v0h0v0h0v0h0v0h0v0h0v0h0v0h0v0h0v0h0v0h0v0h0v0h0v0h0v0h0v0h0l0-.1v0h0v0h0v0h-.08v0h-.06l-.11,0H168l-.08,0h0l-.05,0h-.09l0,0-.05,0h0l0,0h-.06l0,0h-.06l-.05,0,0,0h0l0,0h0l0,0,0,0h0l0,0h0l0,0h0l0,0h0l0,0h0l0,0h0l0,0h0l0,0h0l0,0,0,0,0,0h0l0,0,0,0h0l0,0h0v0h0l0,0,0,0h0v0l0,0v0h0v0h0l0,0,0,0h0v0l0,0v0l0,0,0,0h0l0,0,0,0h0v0l0,0v0h0v0l0,0,0,0v0h0v.06l0,0v0h0v0l0,0v.07h0v0h0v0l0,0v.07l0,0v0h0v0h0V278h0v0s0,0,0,.08l0,0h0v0h0v.23h0a1.79,1.79,0,0,0,0,.23,2.35,2.35,0,0,0,1.09,2.17l0,0,0,0,.09.05H167a3,3,0,0,0,.38.14l.15,0h0l.17,0h.55v0h0v0h0v-.05h0v0h0v-.11h0v0h0v-.12h0v0a.13.13,0,0,1,0-.06v0h0v-.11h0v-.09a1.39,1.39,0,0,1-1.51-1.54A2,2,0,0,1,168.6,276.88Z"/></g><line class="build-cls-2" x1="81.75" y1="277.84" x2="81.75" y2="294.72"/><polygon class="build-cls-89" points="169.82 211.13 168.56 211.13 167.93 212.22 168.56 213.31 169.82 213.31 170.46 212.22 169.82 211.13"/><polygon class="build-cls-89" points="170.02 211.33 168.76 211.33 168.13 212.43 168.76 213.52 170.02 213.52 170.65 212.43 170.02 211.33"/><polygon class="build-cls-89" points="169.82 277.43 168.56 277.43 167.93 278.53 168.56 279.62 169.82 279.62 170.46 278.53 169.82 277.43"/><polygon class="build-cls-89" points="170.02 277.64 168.76 277.64 168.13 278.74 168.76 279.83 170.02 279.83 170.65 278.74 170.02 277.64"/><polygon class="build-cls-90" points="95.12 376.61 95.12 405.93 78.64 407.38 78.64 378.05 95.12 376.61"/><polygon class="build-cls-91" points="93.77 376.61 93.77 405.93 77.29 407.38 77.29 378.05 93.77 376.61"/><line class="build-cls-92" x1="78.81" y1="381.81" x2="92.17" y2="380.76"/><line class="build-cls-92" x1="78.81" y1="384.33" x2="92.17" y2="383.28"/><line class="build-cls-92" x1="78.81" y1="386.78" x2="92.17" y2="385.73"/><path class="build-cls-93" d="M122.22,375.54h-3.73a1.87,1.87,0,1,1,3.73,0Z"/><path class="build-cls-94" d="M119.45,374.07a1.54,1.54,0,0,0-.38.34.05.05,0,0,0,0,0s0,.08.08.08a.17.17,0,0,0,.12-.06.83.83,0,0,0,.11-.15,3.56,3.56,0,0,1,.45-.42A.71.71,0,0,0,119.45,374.07Z"/><circle class="build-cls-95" cx="120.62" cy="374.54" r="0.37"/><path class="build-cls-96" d="M185.91,377.68c4.26-1.81,7.51-1.82,9.78-.26a5.48,5.48,0,0,1,2.41,3.86,11.22,11.22,0,0,1,6.8.68c3.26,1.56,3.12,5.62,3.12,5.62s-.85,5.29-3.69,6.14c0,0,2.16-2.72,1.56-3.55a5.39,5.39,0,0,0-4.3-4.95c-4.26-1.06-5.14-.22-5.14-.22s1.35-3.71-1.8-5.05A49.45,49.45,0,0,0,185.91,377.68Z"/><path class="build-cls-96" d="M183.38,362.71c4.25-1.82,7.51-1.83,9.77-.26a5.48,5.48,0,0,1,2.41,3.86,11.26,11.26,0,0,1,6.8.67c3.26,1.56,3.12,5.63,3.12,5.63s-.85,5.28-3.68,6.13c0,0,2.15-2.71,1.55-3.54a5.38,5.38,0,0,0-4.3-4.95c-4.25-1.07-5.13-.22-5.13-.22s1.34-3.71-1.81-5A49.42,49.42,0,0,0,183.38,362.71Z"/><path class="build-cls-96" d="M183.38,398.05c4.25-1.81,7.51-1.82,9.77-.26a5.48,5.48,0,0,1,2.41,3.86,11.22,11.22,0,0,1,6.8.68c3.26,1.56,3.12,5.63,3.12,5.63s-.85,5.28-3.68,6.13c0,0,2.15-2.72,1.55-3.55a5.39,5.39,0,0,0-4.3-5c-4.25-1.06-5.13-.22-5.13-.22s1.34-3.71-1.81-5.05A49.42,49.42,0,0,0,183.38,398.05Z"/></g><g id="Слой_7" data-name="Слой 7"><g class="build-cls-8"><path class="build-cls-97" d="M226.56,308l-.07,0,0,0-.11,0-39,3.46.11,0h0l.07-.05,0,0,.07-.07,0,0a.63.63,0,0,0,.1-.12v0l.08-.12,0-.06.06-.13a.14.14,0,0,0,0-.06.87.87,0,0,0,.07-.17v0c0-.08,0-.16.08-.24s0,0,0-.07a1.17,1.17,0,0,0,0-.2.29.29,0,0,0,0-.09,1.55,1.55,0,0,0,0-.21.29.29,0,0,0,0-.09,6,6,0,0,0,.09-.65.41.41,0,0,0,0-.11l0-.28v-.07c0-.13,0-.25,0-.38v0c0-.15,0-.29,0-.44h0v-.47l39-3.45h0v.45h0a.76.76,0,0,1,0,.15v.14s0,.09,0,.13v0a.61.61,0,0,1,0,.14,1.21,1.21,0,0,1,0,.19v.12c0,.05,0,.09,0,.14s0,.09,0,.14,0,.08,0,.11a6.19,6.19,0,0,1-.09.66s0,.06,0,.09,0,.14,0,.21a.29.29,0,0,1,0,.09c0,.07,0,.13,0,.19a.25.25,0,0,0,0,.07c0,.09,0,.17-.08.24v0l-.06.18,0,.06-.06.13,0,.05c0,.05,0,.09-.07.13l0,0-.1.12,0,0-.07.06Z"/><polygon class="build-cls-98" points="227.48 183.13 188.49 186.58 188.49 307.32 227.48 303.87 227.48 183.13"/><path class="build-cls-98" d="M188.48,186h0c0-.2,0-.4,0-.6h0c0-.2,0-.4,0-.59h0c0-.4-.08-.79-.13-1.18h0c0-.19,0-.38-.08-.56h0c0-.18-.07-.36-.1-.54h0c0-.18-.07-.35-.11-.52h0l-.12-.49h0c0-.16-.08-.31-.13-.46h0a4,4,0,0,0-.13-.41v0l-.06-.18a2.44,2.44,0,0,0-.1-.24l-.06-.16a2,2,0,0,0-.1-.21c0-.09-.09-.18-.13-.26v0l-.16-.26h0c0-.08-.11-.15-.16-.22l-.14-.13h0l-.14-.08h0l-.13,0h0a.3.3,0,0,0-.13,0l39-3.46h.3l0,0h0l0,0,0,0h0l0,0,0,0,0,0,0,0,0,0h0l0,0,0,0,0,0,0,0,0,0h0a.21.21,0,0,0,0,.06.43.43,0,0,1,0,.07l.06.09v0h0l0,.06.09.17a.08.08,0,0,0,0,0l.09.21.06.15a2.6,2.6,0,0,1,.1.25.78.78,0,0,0,.05.14v.07a.65.65,0,0,1,0,.13l.06.17,0,.11h0v0s0,.1,0,.15l0,.11,0,.11,0,.08h0v0l0,.1,0,.1,0,.1,0,.09v.07h0v0l0,.09,0,.08v.09l0,.09,0,.08V179h0v0l0,.08v.08l0,.08v.16l0,.07v.06h0v.18l0,.07v.32h0v1.17h0v.59h0v.6h0v.59l-39,3.46C188.49,186.38,188.49,186.18,188.48,186Z"/><path class="build-cls-99" d="M188.49,307.32V186.58c0-3.2-.75-6.6-1.67-7.6s-1.68.79-1.68,4V303.71c0,3.2.75,6.59,1.68,7.59S188.49,310.52,188.49,307.32Z"/></g><polygon class="build-cls-89" points="191.65 209.11 190.39 209.11 189.76 210.21 190.39 211.3 191.65 211.3 192.28 210.21 191.65 209.11"/><polygon class="build-cls-89" points="191.85 209.32 190.58 209.32 189.95 210.41 190.58 211.51 191.85 211.51 192.48 210.41 191.85 209.32"/><polygon class="build-cls-89" points="191.65 275.66 190.39 275.66 189.76 276.75 190.39 277.85 191.65 277.85 192.28 276.75 191.65 275.66"/><polygon class="build-cls-89" points="191.85 275.87 190.58 275.87 189.95 276.96 190.58 278.06 191.85 278.06 192.48 276.96 191.85 275.87"/></g><g id="Слой_3" data-name="Слой 3"><path class="build-cls-100" d="M85.94,119.73c-2.3.34-4.09-.3-5.11-2.4l52.5-111.9,5.1,2.4Z"/><path class="build-cls-100" d="M105.49,115c2.3.34,4.08-.3,5.1-2.4L58.1.67,53,3.06Z"/></g><g id="Слой_5" data-name="Слой 5"><rect class="build-cls-101" x="112.73" y="19.59" width="63.57" height="70.93" transform="translate(37.09 -56.19) rotate(25.15)"/><rect class="build-cls-102" x="115.15" y="53.24" width="14.23" height="14.23" transform="translate(37.24 -46.24) rotate(25.15)"/><rect class="build-cls-102" x="134.02" y="46.38" width="14.23" height="14.23" transform="translate(36.11 -54.91) rotate(25.15)"/><rect class="build-cls-102" x="140.85" y="65.3" width="14.23" height="14.23" transform="translate(44.8 -56.02) rotate(25.15)"/><rect class="build-cls-102" x="159.72" y="58.45" width="14.23" height="14.23" transform="translate(43.68 -64.69) rotate(25.15)"/><rect class="build-cls-102" x="121.97" y="72.05" width="14.23" height="14.23" transform="translate(45.88 -47.35) rotate(25.15)"/><rect class="build-cls-102" x="147.67" y="84.12" width="14.23" height="14.23" transform="translate(53.44 -57.13) rotate(25.15)"/><rect class="build-cls-102" x="115.42" y="7.5" width="6.79" height="70.96" transform="translate(29.53 -46.42) rotate(25.15)"/><rect class="build-cls-103" x="121.38" y="9.72" width="4.33" height="70.93" transform="translate(30.92 -48.22) rotate(25.15)"/><rect class="build-cls-102" x="127.22" y="27.53" width="14.23" height="14.23" transform="translate(27.46 -53.8) rotate(25.15)"/><rect class="build-cls-102" x="146.09" y="20.68" width="14.23" height="14.23" transform="translate(26.33 -62.47) rotate(25.15)"/><rect class="build-cls-102" x="152.92" y="39.6" width="14.23" height="14.23" transform="translate(35.02 -63.58) rotate(25.15)"/><rect class="build-cls-102" x="171.79" y="32.74" width="14.23" height="14.23" transform="translate(33.9 -72.25) rotate(25.15)"/></g><g id="Слой_4" data-name="Слой 4"><rect class="build-cls-101" x="15.13" y="14.82" width="63.57" height="70.93" transform="translate(110.75 75.86) rotate(154.85)"/><rect class="build-cls-102" x="62.05" y="48.47" width="14.23" height="14.23" transform="translate(155.39 76.51) rotate(154.85)"/><rect class="build-cls-102" x="43.17" y="41.61" width="14.23" height="14.23" transform="translate(116.52 71.47) rotate(154.85)"/><rect class="build-cls-102" x="36.35" y="60.54" width="14.23" height="14.23" transform="translate(111.55 110.42) rotate(154.85)"/><rect class="build-cls-102" x="17.47" y="53.68" width="14.23" height="14.23" transform="translate(72.68 105.37) rotate(154.85)"/><rect class="build-cls-102" x="55.22" y="67.28" width="14.23" height="14.23" transform="translate(150.38 115.25) rotate(154.85)"/><rect class="build-cls-102" x="29.52" y="79.35" width="14.23" height="14.23" transform="translate(106.55 149.16) rotate(154.85)"/><rect class="build-cls-102" x="69.21" y="2.73" width="6.79" height="70.96" transform="translate(154.57 41.95) rotate(154.85)"/><rect class="build-cls-103" x="65.71" y="4.95" width="4.33" height="70.93" transform="translate(146.5 48.16) rotate(154.85)"/><rect class="build-cls-102" x="49.98" y="22.77" width="14.23" height="14.23" transform="translate(121.47 32.66) rotate(154.85)"/><rect class="build-cls-102" x="31.1" y="15.91" width="14.23" height="14.23" transform="translate(82.6 27.62) rotate(154.85)"/><rect class="build-cls-102" x="24.28" y="34.83" width="14.23" height="14.23" transform="translate(77.64 66.57) rotate(154.85)"/><rect class="build-cls-102" x="5.41" y="27.97" width="14.23" height="14.23" transform="translate(38.76 61.53) rotate(154.85)"/></g></g>
</symbol>

<symbol id="plash" viewBox="0 0 450 341"><defs><style>.plash-cls-1{fill:#d1e1ef;}</style></defs><title>plashka</title><g  ><g id="Слой_11" data-name="Слой 11"><polygon class="plash-cls-1" points="0 0 0 341 240 341 241 32 61 47 0 0"/></g></g></symbol>

</svg>
