<svg width="437" height="329" viewBox="0 0 437 329" fill="none" xmlns="http://www.w3.org/2000/svg">
<g clip-path="url(#clip0)" filter="url(#filter0_d)">
<path opacity="0.2" d="M426.34 224.54L426.54 224.71L422.78 221.5C422.21 221.02 421.6 220.5 420.95 220.07C420.41 219.67 419.82 219.29 419.22 218.9L418.79 218.64C418.15 218.25 417.5 217.86 416.79 217.49L416.56 217.37C415.91 217.02 415.23 216.68 414.56 216.37L414.08 216.14C413.32 215.78 412.53 215.43 411.72 215.08L411.23 214.89C410.48 214.57 409.7 214.27 408.89 213.97L408.48 213.81L408.28 213.73C407.45 213.43 406.58 213.14 405.7 212.85L405.07 212.64C404.07 212.32 403.07 212.01 402.07 211.71L401.84 211.65C400.84 211.36 399.84 211.08 398.76 210.8L398.1 210.63C397.013 210.35 395.893 210.08 394.74 209.82L394.05 209.66C392.93 209.41 391.79 209.17 390.62 208.93L390.28 208.86C389.04 208.61 387.76 208.37 386.46 208.14L385.6 207.99C384.3 207.76 382.96 207.54 381.6 207.32L381.04 207.24L377.12 206.68L376.37 206.57C374.937 206.383 373.477 206.203 371.99 206.03L371.04 205.92C369.49 205.74 367.92 205.57 366.32 205.41C364.72 205.25 362.98 205.11 361.32 204.97L360 204.86C358.43 204.73 356.85 204.62 355.24 204.51H354.81C353.08 204.4 351.33 204.3 349.57 204.21L348.2 204.14C346.64 204.06 345.07 204 343.48 203.94H342.73C340.94 203.87 339.12 203.82 337.29 203.77H335.9L331.16 203.69H330.16C328.3 203.69 326.42 203.69 324.54 203.69H323.1H318.28H317H315.32H312.73H310.95L308.42 203.75L306.59 203.81L304.05 203.89L302.22 203.96L299.63 204.06L297.83 204.14L295.1 204.26L293.42 204.34L290.28 204.51L288.99 204.58L284.59 204.84H284.54L278.43 205.25L276.82 205.37L271.4 205.79L270.56 205.85L264.4 206.38L262.83 206.52L257.59 207.02L256.74 207.1H256.4L250.54 207.7L249.17 207.85L244.52 208.37L242.76 208.58C241.07 208.77 239.37 208.97 237.68 209.18L236.8 209.29L230.89 210.04L230.36 210.11L229.29 210.26C227.79 210.45 226.29 210.66 224.81 210.86L223.08 211.1L217.33 211.93H217.17L211.28 212.82L209.58 213.09L205.13 213.8L204.07 213.97L203.52 214.06C201.48 214.393 199.443 214.727 197.41 215.06L196.34 215.25L191.15 216.16L189.51 216.46C187.51 216.83 185.43 217.2 183.4 217.59H183.25C181.25 217.96 179.25 218.35 177.32 218.74L176.56 218.88L175.84 219.03C173.49 219.5 171.15 219.97 168.84 220.46L167.99 220.64C165.74 221.11 163.51 221.59 161.28 222.08L160.42 222.27C158.12 222.77 155.84 223.27 153.56 223.81L152.22 224.13C149.973 224.65 147.737 225.18 145.51 225.72L145.13 225.81L143.38 226.24L141.22 226.78L138.92 227.36L136.79 227.9L134.52 228.49L132.41 229.04L130.16 229.65L128.07 230.21L125.84 230.83L123.78 231.39L121.56 232.03L119.56 232.6L117.36 233.25L115.36 233.83L113.16 234.49L111.22 235.08L109.04 235.76L107.14 236.35L104.99 237.04L103.11 237.64L100.98 238.34L99.15 238.95L97 239.68L95.25 240.27L93.08 241.03L91.41 241.62L89.19 242.42L87.64 242.98L85.2 243.89L83.94 244.37C82.71 244.83 81.5 245.3 80.31 245.77C58.46 254.43 43.06 263 34 271.13C31.6515 273.173 29.5445 275.478 27.72 278C27.33 278.56 26.97 279.11 26.64 279.66C22.38 286.81 23.54 293.39 30.09 298.97L33.85 302.17L33.75 302.08C42.61 309.71 61.51 315.48 90.37 318.31C171.12 326.21 299.19 308.08 376.42 277.79C426.4 258.15 442.82 238.28 426.34 224.54ZM374.76 209.09L375.71 209.2H376L374.74 209.05L374.76 209.09ZM380.1 209.75H380.32L379.73 209.67L380.1 209.75ZM385.32 210.5L385.83 210.58L384.83 210.43L385.32 210.5ZM389.32 211.16L389.86 211.26L389.08 211.12L389.32 211.16ZM394 212L394.34 212.07H394.54L394 212ZM397.76 212.8L398.45 212.95H398.65L397.65 212.73L397.76 212.8ZM405.56 214.8L405.78 214.86L406.21 215L405.36 214.75L405.56 214.8ZM408.81 215.8L408.97 215.85L408.7 215.76L408.81 215.8ZM412.21 216.97L412.62 217.12L412.76 217.17L412.13 216.94L412.21 216.97ZM414.97 218.04L415.45 218.24H415.53L414.87 217.96L414.97 218.04ZM420.33 220.55L420.55 220.67L420.77 220.8L420.19 220.48L420.33 220.55ZM424.73 223.28C424.81 223.28 424.87 223.39 424.94 223.44L424.58 223.18C424.638 223.213 424.692 223.253 424.74 223.3L424.73 223.28ZM53.22 263.51L52.35 264.01L53.22 263.51ZM79.85 250.76L78.61 251.27L79.85 250.76ZM75.78 252.46L74.5 253L75.78 252.46ZM71.55 254.29L70.7 254.67L71.55 254.29ZM67.09 256.29L66.25 256.69L67.09 256.29ZM63.62 258L62.51 258.55L63.62 258ZM60.17 259.74L59.17 260.23L60.17 259.74ZM56.17 261.88L56 262L56.17 261.88ZM44.59 269L44.02 269.41L44.59 269ZM50.4 265.22L49.53 265.75L50.4 265.22ZM47.5 267L46.97 267.35L47.5 267ZM42.36 270.58L41.66 271.11L42.36 270.58ZM40.19 272.26L39.61 272.73L40.19 272.26ZM36.07 275.88L35.58 276.37L36.07 275.88ZM37.75 274.31L37.6 274.46L37.75 274.31ZM34.51 277.48L34 278L34.51 277.48ZM33 279.23L32.75 279.53L33 279.23ZM31.6 281.05L31.33 281.45L31.6 281.05ZM30.6 282.57L30.3 283.07L30.6 282.57ZM29.72 284.15C29.65 284.3 29.57 284.44 29.5 284.58C29.53 284.44 29.61 284.3 29.68 284.15H29.72ZM28.06 289C28.06 289.16 28.06 289.31 27.99 289.46C28 289.27 28 289.12 28.06 289ZM28.83 286.09L28.77 286.27L28.83 286.09ZM28.37 287.54C28.37 287.69 28.3 287.84 28.26 287.99C28.3 287.8 28.33 287.65 28.37 287.5V287.54ZM27.9 290.63C27.9 290.71 27.9 290.79 27.9 290.87C27.89 290.75 27.9 290.67 27.9 290.59V290.63ZM27.96 292.25C27.96 292.37 27.96 292.5 28.01 292.62C28 292.46 28 292.33 28 292.21L27.96 292.25ZM28.19 293.62C28.19 293.77 28.26 293.92 28.3 294.06C28.26 293.88 28.22 293.73 28.19 293.58V293.62ZM28.6 295C28.6 295.12 28.68 295.25 28.73 295.37C28.68 295.25 28.65 295.12 28.6 295ZM29.32 296.67C29.3625 296.733 29.3993 296.8 29.43 296.87C29.3993 296.8 29.3625 296.733 29.32 296.67ZM30.08 297.95C30.17 298.08 30.27 298.21 30.36 298.35C30.27 298.21 30.17 298.08 30.08 298V297.95ZM32.29 300.66L32.47 300.85L32.29 300.66ZM31 299.23L31.32 299.63L31 299.23Z" fill="black"/>
<path d="M216.88 14.47L225.88 19.38C204.55 7.76001 179.22 2.86001 152 6.68001L143 1.78001C170.2 -1.99999 195.53 2.86001 216.88 14.47Z" fill="#FBD84D"/>
<path d="M216.88 14.47L225.88 19.38C224.487 18.62 223.083 17.8933 221.67 17.2L212.67 12.29C214.09 12.99 215.49 13.71 216.88 14.47Z" fill="#FBD84D"/>
<path d="M216.88 14.47L225.88 19.38C224.487 18.62 223.083 17.8933 221.67 17.2L212.67 12.29C214.09 12.99 215.49 13.71 216.88 14.47" stroke="#201600" stroke-miterlimit="10"/>
<path d="M212.67 12.29L221.67 17.2C214.68 13.7708 207.359 11.0635 199.82 9.12L190.82 4.22C198.36 6.15558 205.682 8.85974 212.67 12.29Z" fill="#FBD84D"/>
<path d="M212.67 12.29L221.67 17.2C214.68 13.7708 207.359 11.0635 199.82 9.12L190.82 4.22C198.36 6.15558 205.682 8.85974 212.67 12.29" stroke="#201600" stroke-miterlimit="10"/>
<path d="M190.82 4.22L199.82 9.12C184.195 5.17418 167.946 4.34506 152 6.68L143 1.78C158.939 -0.552281 175.181 0.276823 190.8 4.22" fill="#FBD84D"/>
<path d="M190.82 4.22L199.82 9.12C184.195 5.17418 167.946 4.34506 152 6.68L143 1.78C158.939 -0.552281 175.181 0.276823 190.8 4.22" stroke="#201600" stroke-miterlimit="10"/>
<path d="M216.88 14.47L225.88 19.38C204.55 7.76001 179.22 2.86001 152 6.68001L143 1.78001C170.2 -1.99999 195.53 2.86001 216.88 14.47Z" stroke="#201600" stroke-miterlimit="10"/>
<path d="M268.401 219.362C309.398 144.012 290.417 54.519 226.007 19.4742C161.597 -15.5705 76.1472 17.1033 35.1503 92.4532C-5.84653 167.803 13.1338 257.296 77.5442 292.341C141.954 327.385 227.404 294.711 268.401 219.362Z" fill="#FBD84D" stroke="#201600" stroke-miterlimit="10"/>
<path d="M77.6398 292.42L68.6398 287.51C29.9998 266.5 4.3998 223.5 4.4998 170.42C4.6498 88 66.6798 12.51 143 1.78L152 6.68C75.6898 17.41 13.6698 92.89 13.5198 175.33C13.4198 228.4 38.9998 271.4 77.6398 292.42Z" fill="#FBD84D"/>
<path d="M143 1.78L152 6.68C137.991 8.68886 124.363 12.7878 111.57 18.84L102.57 13.93C115.363 7.88111 128.991 3.78554 143 1.78Z" fill="#FBD84D"/>
<path d="M143 1.78L152 6.68C137.991 8.68886 124.363 12.7878 111.57 18.84L102.57 13.93C115.363 7.88111 128.991 3.78554 143 1.78" stroke="#201600" stroke-miterlimit="10"/>
<path d="M102.59 13.93L111.59 18.84C103.756 22.5443 96.2439 26.8926 89.1299 31.84L80.1299 26.94C87.2419 21.995 94.7509 17.6468 102.58 13.94" fill="#FBD84D"/>
<path d="M102.59 13.93L111.59 18.84C103.756 22.5443 96.2439 26.8926 89.1299 31.84L80.1299 26.94C87.2419 21.995 94.7509 17.6468 102.58 13.94" stroke="#201600" stroke-miterlimit="10"/>
<path d="M80.1397 26.89L89.1397 31.79C83.2986 35.8348 77.7207 40.247 72.4397 45L63.4397 40.09C68.7185 35.3375 74.2966 30.9285 80.1397 26.89Z" fill="#FBD84D"/>
<path d="M80.1397 26.89L89.1397 31.79C83.2986 35.8348 77.7207 40.247 72.4397 45L63.4397 40.09C68.7185 35.3375 74.2966 30.9285 80.1397 26.89" stroke="#201600" stroke-miterlimit="10"/>
<path d="M63.4198 40.11L72.4198 45.02C67.45 49.4916 62.7422 54.2462 58.3198 59.26L49.3198 54.36C53.7421 49.343 58.4499 44.5851 63.4198 40.11Z" fill="#FBD84D"/>
<path d="M63.4198 40.11L72.4198 45.02C67.45 49.4916 62.7422 54.2462 58.3198 59.26L49.3198 54.36C53.7421 49.343 58.4499 44.5851 63.4198 40.11" stroke="#201600" stroke-miterlimit="10"/>
<path d="M49.3199 54.36L58.3199 59.26C53.889 64.2879 49.7426 69.5594 45.8999 75.05L36.8999 70.14C40.7426 64.6527 44.8891 59.3844 49.3199 54.36Z" fill="#FBD84D"/>
<path d="M49.3199 54.36L58.3199 59.26C53.889 64.2879 49.7426 69.5594 45.8999 75.05L36.8999 70.14C40.7426 64.6527 44.8891 59.3844 49.3199 54.36" stroke="#201600" stroke-miterlimit="10"/>
<path d="M36.8799 70.14L45.8799 75.05C41.7794 80.9117 38.0263 87.0088 34.6399 93.31L25.6399 88.4C29.0263 82.0988 32.7794 76.0017 36.8799 70.14Z" fill="#FBD84D"/>
<path d="M36.8799 70.14L45.8799 75.05C41.7794 80.9117 38.0263 87.0088 34.6399 93.31L25.6399 88.4C29.0263 82.0988 32.7794 76.0017 36.8799 70.14" stroke="#201600" stroke-miterlimit="10"/>
<path d="M25.6199 88.4L34.6199 93.31C30.5865 100.807 27.0878 108.58 24.1499 116.57L15.1499 111.66C18.0939 103.672 21.5924 95.9 25.6199 88.4Z" fill="#FBD84D"/>
<path d="M25.6199 88.4L34.6199 93.31C30.5865 100.807 27.0878 108.58 24.1499 116.57L15.1499 111.66C18.0939 103.672 21.5924 95.9 25.6199 88.4" stroke="#201600" stroke-miterlimit="10"/>
<path d="M15.1498 111.66L24.1498 116.57C17.1968 135.384 13.5989 155.272 13.5198 175.33C13.4198 228.4 38.9998 271.4 77.6398 292.42L68.6398 287.51C29.9998 266.5 4.3998 223.5 4.4998 170.42C4.59028 150.362 8.19478 130.474 15.1498 111.66Z" fill="#FBD84D"/>
<path d="M15.1498 111.66L24.1498 116.57C17.1968 135.384 13.5989 155.272 13.5198 175.33C13.4198 228.4 38.9998 271.4 77.6398 292.42L68.6398 287.51C29.9998 266.5 4.3998 223.5 4.4998 170.42C4.59028 150.362 8.19478 130.474 15.1498 111.66" stroke="#201600" stroke-miterlimit="10"/>
<path d="M77.6398 292.42L68.6398 287.51C29.9998 266.5 4.3998 223.5 4.4998 170.42C4.6498 88 66.6798 12.51 143 1.78L152 6.68C75.6898 17.41 13.6698 92.89 13.5198 175.33C13.4198 228.4 38.9998 271.4 77.6398 292.42Z" stroke="#201600" stroke-miterlimit="10"/>
<g opacity="0.5">
<path opacity="0.5" d="M216 113.86C216 141.41 200.41 166.51 159 172.32L155.82 172.77C155.82 178.59 155.82 184.32 155.82 190.03L200.15 183.79V196.67L155.87 202.89C155.87 210.94 155.98 219 156.11 227.21L176.75 228.28V237.28L156.37 240.14L138.37 242.68L119.49 245.33V236.33L138.53 230C138.637 221.84 138.717 213.623 138.77 205.35L117.39 208.35V195.48L138.8 192.48C138.8 186.74 138.8 180.987 138.8 175.22L117.37 178.22V165.35L138.8 162.35V153.35C138.8 131.84 138.88 110.35 138.67 88.84L119.67 87.84V78.84L148.31 74.84L169.31 71.84C200 67.45 216.06 85.27 216 113.86ZM155.87 159.86L160.97 159.14C187.71 155.38 197.97 138.5 197.97 116.35C197.97 91.88 187.43 79.47 164.51 82.69L156.43 83.83C155.98 105.83 155.94 128.14 155.9 150.83V159.83" fill="#181818"/>
</g>
</g>
<defs>
<filter id="filter0_d" x="0" y="0" width="436.52" height="328.11" filterUnits="userSpaceOnUse" color-interpolation-filters="sRGB">
<feFlood flood-opacity="0" result="BackgroundImageFix"/>
<feColorMatrix in="SourceAlpha" type="matrix" values="0 0 0 0 0 0 0 0 0 0 0 0 0 0 0 0 0 0 127 0"/>
<feOffset dy="4"/>
<feGaussianBlur stdDeviation="2"/>
<feColorMatrix type="matrix" values="0 0 0 0 0 0 0 0 0 0 0 0 0 0 0 0 0 0 0.25 0"/>
<feBlend mode="normal" in2="BackgroundImageFix" result="effect1_dropShadow"/>
<feBlend mode="normal" in="SourceGraphic" in2="effect1_dropShadow" result="shape"/>
</filter>
<clipPath id="clip0">
<rect width="428.52" height="320.11" fill="white" transform="translate(4)"/>
</clipPath>
</defs>
</svg>
