<svg width="309" height="534" viewBox="0 0 309 534" fill="none" xmlns="http://www.w3.org/2000/svg">
<g clip-path="url(#clip0)">
<path d="M301.37 463.38L76.5699 483.05L0.659912 424.04L225.46 404.37L301.37 463.38Z" fill="#E6E6E6" stroke="black" stroke-width="0.5" stroke-miterlimit="10"/>
<path d="M265.06 466.55L76.57 483.05L36.97 452.27L225.46 435.77L265.06 466.55Z" fill="#666666" stroke="black" stroke-width="0.25" stroke-miterlimit="10"/>
<path d="M225.46 404.37V435.77" stroke="black" stroke-width="0.5" stroke-linejoin="round"/>
<path d="M154.76 346.68H130.28C125.862 346.68 122.28 350.262 122.28 354.68V379.16C122.28 383.578 125.862 387.16 130.28 387.16H154.76C159.178 387.16 162.76 383.578 162.76 379.16V354.68C162.76 350.262 159.178 346.68 154.76 346.68Z" fill="#808080" stroke="black" stroke-width="0.75" stroke-miterlimit="10"/>
<path d="M162.76 363.12V367.61C162.76 372.384 160.863 376.962 157.488 380.338C154.112 383.714 149.534 385.61 144.76 385.61H140.26C136.959 385.622 133.719 384.718 130.9 383C132.133 383.257 133.39 383.388 134.65 383.39H139.15C141.514 383.39 143.854 382.924 146.038 382.02C148.222 381.115 150.206 379.789 151.878 378.118C153.549 376.446 154.875 374.462 155.78 372.278C156.684 370.094 157.15 367.754 157.15 365.39V360.9C157.15 357.817 156.359 354.785 154.851 352.095C153.344 349.406 151.17 347.149 148.54 345.54C152.562 346.404 156.167 348.62 158.755 351.819C161.342 355.017 162.756 359.006 162.76 363.12Z" fill="#4D4D4D"/>
<path d="M157.38 239.12H128.65C109.099 239.12 93.25 254.969 93.25 274.52V341.28C93.25 360.831 109.099 376.68 128.65 376.68H157.38C176.931 376.68 192.78 360.831 192.78 341.28V274.52C192.78 254.969 176.931 239.12 157.38 239.12Z" fill="#A67C52" stroke="black" stroke-miterlimit="10"/>
<path d="M192.79 279.61V331.7C192.79 355.29 173.65 374.79 150.06 374.79H138.81C162.41 374.79 181.54 355.29 181.54 331.7V279.61C181.541 273.998 180.437 268.441 178.29 263.256C176.143 258.071 172.996 253.36 169.027 249.392C165.059 245.424 160.348 242.277 155.163 240.13C149.979 237.983 144.422 236.879 138.81 236.88H150.06C155.671 236.88 161.228 237.985 166.412 240.133C171.596 242.28 176.307 245.427 180.274 249.395C184.242 253.363 187.39 258.074 189.537 263.258C191.685 268.442 192.79 273.998 192.79 279.61Z" fill="#603813"/>
<path d="M93 279.61V331.7C93 355.29 112.14 374.79 135.74 374.79H136.67C113.08 374.79 104.25 355.29 104.25 331.7V279.61C104.25 273.997 105.356 268.439 107.505 263.253C109.653 258.068 112.802 253.356 116.772 249.388C120.742 245.42 125.455 242.273 130.642 240.127C135.828 237.981 141.387 236.877 147 236.88H135.78C130.164 236.873 124.603 237.974 119.413 240.118C114.223 242.263 109.506 245.409 105.533 249.378C101.56 253.346 98.4079 258.059 96.2574 263.246C94.1069 268.434 93 273.994 93 279.61Z" fill="#C6AD6D"/>
<path d="M250.31 139.55L250.37 139.27C250.99 136.69 251.54 134.09 251.98 131.44C252.22 130.04 252.38 128.63 252.57 127.21C252.79 125.48 253.04 123.76 253.18 122C253.46 118.6 253.61 115.16 253.57 111.67C253.327 89.2396 246.36 67.3979 233.57 48.97C227.404 40.0762 219.995 32.1119 211.57 25.32C208.757 23.06 205.84 20.9366 202.82 18.95C184.071 6.6068 162.045 0.182363 139.6 0.509981C131.979 0.603104 124.388 1.46412 116.94 3.07998C102.59 6.20931 88.9982 12.1355 76.94 20.52C73.9733 22.58 71.11 24.7766 68.35 27.11C55.664 37.8251 45.5086 51.2169 38.6132 66.3233C31.7179 81.4297 28.2539 97.8757 28.47 114.48C28.52 117.96 28.76 121.4 29.12 124.8C29.3 126.55 29.6 128.26 29.86 129.99C30.08 131.4 30.28 132.81 30.55 134.2C31.06 136.84 31.67 139.42 32.36 141.99C32.3786 142.081 32.402 142.171 32.43 142.26C37.1609 159.895 46.1313 176.105 58.56 189.48C75.08 209.75 88.45 232.8 92 259.16C92.7389 264.761 93.7906 270.316 95.15 275.8C128.93 293.93 160.75 292.51 190.92 274.61C192.14 269.092 193.051 263.51 193.65 257.89C196.53 231.46 209.32 208.07 225.38 187.4C237.461 173.717 246.019 157.292 250.31 139.55Z" fill="#E0FFFF" stroke="black" stroke-miterlimit="10"/>
<path d="M142.52 290.46C169.847 290.46 192 285.423 192 279.21C192 272.997 169.847 267.96 142.52 267.96C115.193 267.96 93.0398 272.997 93.0398 279.21C93.0398 285.423 115.193 290.46 142.52 290.46Z" fill="#A67C52" stroke="black" stroke-miterlimit="10"/>
<path d="M197.63 315.65C197.63 322.49 173.21 328.05 143.09 328.05C112.97 328.05 88.5498 322.49 88.5498 315.65C88.5498 313.89 90.1598 312.2 93.0798 310.65C101.51 315.04 120.72 318.09 143.08 318.09C165.44 318.09 184.65 315.04 193.08 310.65C196 312.2 197.63 313.89 197.63 315.65Z" fill="#C69C6D" stroke="black" stroke-width="0.25" stroke-miterlimit="10"/>
<path d="M197.63 297.66C197.63 304.5 173.21 310.05 143.09 310.05C112.97 310.05 88.5498 304.5 88.5498 297.66C88.5498 295.9 90.1598 294.21 93.0798 292.66C101.51 297.05 120.72 300.1 143.08 300.1C165.44 300.1 184.65 297.05 193.08 292.66C196 294.21 197.63 295.9 197.63 297.66Z" fill="#C69C6D" stroke="black" stroke-width="0.25" stroke-miterlimit="10"/>
<path d="M197.56 297.6C197.56 302.44 184.56 306.6 166.05 308.28C176.38 306.19 182.89 303.11 182.89 299.69C182.847 299.13 182.684 298.586 182.414 298.095C182.143 297.603 181.77 297.175 181.32 296.84C185.466 296.068 189.498 294.774 193.32 292.99C196.05 294.39 197.56 296 197.56 297.6Z" fill="#603813"/>
<path d="M197.31 315.75C197.31 320.59 184.31 324.75 165.8 326.44C176.13 324.34 182.64 321.26 182.64 317.85C182.598 317.29 182.436 316.746 182.165 316.254C181.894 315.762 181.521 315.335 181.07 315C185.218 314.23 189.251 312.933 193.07 311.14C195.8 312.55 197.31 314.12 197.31 315.75Z" fill="#603813"/>
<path d="M197.63 331.39C197.63 338.24 173.21 343.79 143.09 343.79C112.97 343.79 88.5498 338.24 88.5498 331.39C88.5498 329.63 90.1598 327.95 93.0798 326.44C101.51 330.82 120.72 333.87 143.08 333.87C165.44 333.87 184.65 330.82 193.08 326.44C196 328 197.63 329.63 197.63 331.39Z" fill="#C69C6D" stroke="black" stroke-width="0.25" stroke-miterlimit="10"/>
<path d="M118.27 284L116.03 283.8C118.39 256.74 118.54 226.07 101.77 203.8L100 201.42L102.89 201.99C106.521 202.653 110.255 202.504 113.822 201.553C117.389 200.602 120.701 198.873 123.52 196.49C122.778 195.187 122.159 193.817 121.67 192.4C119.39 185.7 118.73 175.27 122.67 168.18C124.21 165.42 125.94 164.18 127.83 164.57C131.29 165.23 133.48 171.49 133.88 174.69C134.326 178.304 134.042 181.97 133.046 185.472C132.049 188.975 130.361 192.242 128.08 195.08C127.56 195.7 127.02 196.3 126.45 196.87C129.45 201.22 134.18 204.66 139.45 204.5H141.78C147.13 204.5 151.71 200.97 154.6 196.5C154.011 195.952 153.453 195.371 152.93 194.76C150.577 191.98 148.807 188.756 147.723 185.28C146.639 181.803 146.264 178.144 146.62 174.52C146.94 171.31 148.97 165 152.41 164.25C154.28 163.84 156.05 165.01 157.65 167.74C161.76 174.74 161.35 185.17 159.24 191.92C158.792 193.349 158.21 194.731 157.5 196.05C160.376 198.364 163.73 200.013 167.319 200.878C170.909 201.742 174.645 201.801 178.26 201.05L181.13 200.41L179.42 202.8C163.22 225.53 164.13 256.19 167.16 283.19L164.92 283.44C161.92 256.87 161 226.77 176.09 203.69C169.005 204.43 161.91 202.39 156.3 198C153.11 202.81 148.05 206.7 141.77 206.72H139.46C133.11 206.79 128.05 203.09 124.73 198.37C119.238 202.888 112.21 205.103 105.12 204.55C120.78 227.27 120.59 257.38 118.27 284ZM127.19 166.74C126.19 166.74 125.19 168.29 124.62 169.25C121.19 175.45 121.62 185.25 123.8 191.65C124.177 192.763 124.652 193.841 125.22 194.87C125.6 194.47 125.97 194.06 126.32 193.63C128.403 191.036 129.946 188.051 130.858 184.851C131.77 181.652 132.032 178.302 131.63 175C131.21 171.67 129.13 167.14 127.38 166.8L127.19 166.74ZM153.08 166.41C153.01 166.4 152.94 166.4 152.87 166.41C151.13 166.79 149.16 171.41 148.82 174.71C148.493 178.029 148.836 181.38 149.827 184.564C150.818 187.749 152.437 190.702 154.59 193.25C154.96 193.67 155.34 194.07 155.73 194.46C156.269 193.417 156.717 192.33 157.07 191.21C159.07 184.72 159.27 174.95 155.68 168.84C155.13 167.94 154.09 166.43 153.08 166.43V166.41Z" fill="#F7931E" stroke="black" stroke-width="0.25" stroke-miterlimit="10"/>
<g style="mix-blend-mode:lighten" opacity="0.4">
<path d="M239.26 146.75L239.32 146.5C239.88 144.17 240.38 141.82 240.77 139.42C240.99 138.16 241.14 136.88 241.3 135.61C241.5 134.04 241.73 132.49 241.86 130.9C242.11 127.82 242.25 124.71 242.21 121.56C241.991 101.289 235.693 81.5509 224.13 64.9001C218.543 56.86 211.835 49.6604 204.21 43.5201C201.67 41.4801 199.033 39.5634 196.3 37.7701C179.368 26.623 159.48 20.8157 139.21 21.1001C132.323 21.1867 125.462 21.9639 118.73 23.4201C105.754 26.252 93.4607 31.6068 82.5498 39.1801C79.8832 41.0534 77.2965 43.0534 74.7898 45.1801C63.3275 54.8722 54.1544 66.9832 47.9299 80.6426C41.7053 94.302 38.5839 109.171 38.7898 124.18C38.7898 127.33 39.0498 130.43 39.3798 133.51C39.5398 135.09 39.8098 136.64 40.0398 138.2C40.2398 139.47 40.4198 140.74 40.6698 142C41.1198 144.38 41.6698 146.72 42.2998 149L42.3598 149.25C46.6407 165.185 54.749 179.833 65.9798 191.92C80.9798 210.24 93.0298 231.07 96.2298 254.92C96.9098 260.02 93.5998 275.92 93.5998 280.4C116.09 293.89 161.99 293.4 190.31 282.65C191.43 277.65 187.53 258.89 188.09 253.77C190.69 229.88 202.25 208.77 216.76 190.07C227.679 177.68 235.403 162.808 239.26 146.75Z" fill="#E0FFFF"/>
</g>
<path d="M197.31 331.38C197.31 336.22 184.31 340.38 165.8 342.06C176.13 339.97 182.64 336.89 182.64 333.47C182.592 332.911 182.428 332.369 182.158 331.878C181.887 331.387 181.517 330.959 181.07 330.62C185.217 329.852 189.25 328.559 193.07 326.77C195.8 328.17 197.31 329.74 197.31 331.38Z" fill="#603813"/>
<path d="M93.92 28.12C90.2106 28.1316 86.5564 29.0189 83.2548 30.7097C79.9532 32.4005 77.0974 34.847 74.92 37.85C71.52 42.64 70.29 49.78 74.25 54.11C76.5 56.57 79.91 57.6 83.25 58.11C86.1035 58.6819 89.0566 58.5027 91.82 57.59C99.17 54.72 100.88 45.28 101.49 37.42C101.77 33.84 101.57 29.42 98.33 27.85C95.74 26.62 92.7 28.09 90.33 29.75" fill="white"/>
<path d="M52.6499 97.4599C52.3799 105.46 54.0399 113.34 55.6999 121.15C57.7699 130.93 59.8699 140.79 63.9499 149.91C68.0299 159.03 74.3199 167.48 82.9999 172.39C63.4699 146.71 58.5999 110.58 70.6599 80.6399C73.4999 73.6399 69.7499 64.1199 60.8899 69.2899C54.3799 73.0899 52.8799 90.8299 52.6499 97.4599Z" fill="white"/>
<path d="M94.35 186.57C97.3249 188.443 100.66 189.669 104.14 190.17L104.06 191.68C102.039 192.186 99.9353 192.271 97.88 191.93C95.88 191.45 93.94 189.93 93.72 187.82" fill="white"/>
<path opacity="0.1" d="M251.32 107.7C251.32 110.94 251.23 114.12 250.97 117.28C250.83 118.92 250.6 120.52 250.39 122.11C250.23 123.42 250.07 124.74 249.86 126.03C249.45 128.5 248.94 130.9 248.36 133.3C248.36 133.4 248.25 133.47 248.29 133.56C255.23 146.93 211.29 199.85 202.64 221.81C208.64 208.81 226.23 150.29 230.27 133.56C230.27 133.47 230.27 133.4 230.34 133.3C230.89 130.9 231.42 128.5 231.81 126.03C232.04 124.74 232.18 123.42 232.37 122.11C232.55 120.52 232.8 118.92 232.92 117.28C233.17 114.12 233.34 110.94 233.29 107.7C233.064 86.8988 226.598 66.6446 214.73 49.5599C208.997 41.289 202.111 33.8806 194.28 27.5599C191.667 25.4599 188.967 23.4899 186.18 21.6499C180.538 17.9511 174.554 14.8032 168.31 12.2499C161.964 9.65224 155.375 7.69583 148.64 6.40989C145.067 5.75206 141.462 5.28142 137.84 4.99989C140.4 4.76989 143.01 4.63989 145.62 4.60989C152.688 4.52075 159.748 5.14727 166.69 6.47989C180.071 9.04189 192.817 14.2136 204.2 21.6999C207.02 23.5399 209.72 25.5099 212.33 27.6099C220.154 33.9311 227.034 41.3395 232.76 49.6099C244.627 66.6762 251.093 86.9143 251.32 107.7Z" fill="#29ABE2"/>
<path d="M156.3 460.27V456.52H156.38V460.27H156.31" fill="#373733"/>
<path d="M156.3 460.27V456.52H156.38V460.27H156.31" stroke="black" stroke-width="0.25" stroke-miterlimit="10"/>
<path d="M156.37 460.24V456.49L157.37 456.05V459.79C157.057 459.95 156.723 460.1 156.37 460.24Z" fill="#353631" stroke="black" stroke-width="0.25" stroke-miterlimit="10"/>
<path d="M157.33 459.79V456.05C157.69 455.87 158.05 455.68 158.4 455.47V459.22C158.06 459.42 157.7 459.61 157.33 459.79Z" fill="#343530" stroke="black" stroke-width="0.25" stroke-miterlimit="10"/>
<path d="M158.4 459.22V455.47C158.81 455.24 159.2 454.99 159.58 454.73V458.48C159.2 458.73 158.8 458.98 158.39 459.22" fill="#32332F"/>
<path d="M158.4 459.22V455.47C158.81 455.24 159.2 454.99 159.58 454.73V458.48C159.2 458.73 158.8 458.98 158.39 459.22" stroke="black" stroke-width="0.25" stroke-miterlimit="10"/>
<path d="M159.59 458.48V454.73C160.05 454.42 160.49 454.09 160.91 453.73V457.47C160.49 457.81 160.05 458.143 159.59 458.47" fill="#31322D"/>
<path d="M159.59 458.48V454.73C160.05 454.42 160.49 454.09 160.91 453.73V457.47C160.49 457.81 160.05 458.143 159.59 458.47" stroke="black" stroke-width="0.25" stroke-miterlimit="10"/>
<path d="M160.91 457.49V453.75C161.41 453.34 161.91 452.91 162.31 452.48V456.22C161.87 456.66 161.41 457.08 160.91 457.49Z" fill="#30302C" stroke="black" stroke-width="0.25" stroke-miterlimit="10"/>
<path d="M162.31 456.22V452.48C162.796 451.992 163.247 451.471 163.66 450.92V454.66C163.244 455.208 162.793 455.729 162.31 456.22Z" fill="#2E2F2B"/>
<path d="M162.31 456.22V452.48C162.796 451.992 163.247 451.471 163.66 450.92V454.66C163.244 455.208 162.793 455.729 162.31 456.22" stroke="black" stroke-width="0.25" stroke-miterlimit="10"/>
<path d="M163.66 454.66V450.92C164.077 450.375 164.448 449.796 164.77 449.19V452.93C164.453 453.539 164.081 454.118 163.66 454.66Z" fill="#2D2D2A" stroke="black" stroke-width="0.25" stroke-miterlimit="10"/>
<path d="M164.77 452.93V449.19C165.054 448.657 165.285 448.098 165.46 447.52V451.27C165.295 451.847 165.067 452.403 164.78 452.93" fill="#2B2C28"/>
<path d="M164.77 452.93V449.19C165.054 448.657 165.285 448.098 165.46 447.52V451.27C165.295 451.847 165.067 452.403 164.78 452.93" stroke="black" stroke-width="0.25" stroke-miterlimit="10"/>
<path d="M165.45 451.27V447.52C165.587 447.065 165.664 446.595 165.68 446.12V449.86C165.655 450.338 165.574 450.811 165.44 451.27" fill="#2A2B27"/>
<path d="M165.45 451.27V447.52C165.587 447.065 165.664 446.595 165.68 446.12V449.86C165.655 450.338 165.574 450.811 165.44 451.27" stroke="black" stroke-width="0.25" stroke-miterlimit="10"/>
<path d="M165.69 449.86V446.12C165.695 446.06 165.695 446 165.69 445.94V449.86Z" fill="#292926" stroke="black" stroke-width="0.25" stroke-miterlimit="10"/>
<path d="M156.3 456.52C161.91 454.15 165.69 449.34 165.7 445.94V449.69C165.7 453.08 161.92 457.9 156.31 460.27L156.3 456.52Z" stroke="black" stroke-width="0.25" stroke-miterlimit="10"/>
<path d="M156.3 456.52C154.46 456.52 152.58 456.59 150.73 456.75C149.19 456.89 147.73 457.07 146.5 457.3C139.83 455.57 129.09 450.68 125.1 449.14C117.39 446.14 104.03 440.63 121.29 437.86C123.1 437.57 124.94 437.34 126.78 437.18C145.09 435.58 163.92 440.09 165.5 444.68C166.66 448 162.65 453.84 156.3 456.52Z" fill="#31322D" stroke="black" stroke-width="0.25" stroke-miterlimit="10"/>
<path d="M146.49 461.05V457.3L147.58 457.12V460.87L146.49 461.05Z" fill="#3C3D38" stroke="black" stroke-width="0.25" stroke-miterlimit="10"/>
<path d="M147.58 460.87V457.12C148.58 456.98 149.58 456.85 150.72 456.75L151.83 456.67V460.41L150.73 460.5C149.61 460.6 148.56 460.72 147.58 460.87Z" fill="#3E3E39" stroke="black" stroke-width="0.25" stroke-miterlimit="10"/>
<path d="M151.83 460.41V456.67L153.36 456.58V460.33L151.82 460.41" fill="#3C3D38"/>
<path d="M151.83 460.41V456.67L153.36 456.58V460.33L151.82 460.41" stroke="black" stroke-width="0.25" stroke-miterlimit="10"/>
<path d="M153.37 460.33V456.58H154.48V460.33H153.37Z" fill="#3B3C37" stroke="black" stroke-width="0.25" stroke-miterlimit="10"/>
<path d="M154.48 460.29V456.54H155.48V460.28H154.48" fill="#393A35"/>
<path d="M154.48 460.29V456.54H155.48V460.28H154.48" stroke="black" stroke-width="0.25" stroke-miterlimit="10"/>
<path d="M155.46 460.27V456.53H156.3V460.28H155.46" fill="#383934"/>
<path d="M155.46 460.27V456.53H156.3V460.28H155.46" stroke="black" stroke-width="0.25" stroke-miterlimit="10"/>
<path d="M146.49 461.05V457.3C147.76 457.07 149.18 456.89 150.72 456.75C152.57 456.59 154.45 456.52 156.29 456.52V460.27C154.44 460.27 152.56 460.34 150.72 460.5C149.19 460.63 147.77 460.82 146.49 461.05Z" stroke="black" stroke-width="0.25" stroke-miterlimit="10"/>
<path d="M112.86 445.39V441.65C112.86 444.26 120.15 447.23 125.1 449.14C128.84 450.58 138.49 454.96 145.18 456.94V460.68C138.5 458.68 128.84 454.33 125.11 452.89C120.16 450.98 112.86 448.01 112.87 445.39" fill="#242522"/>
<path d="M112.86 445.39V441.65C112.86 444.26 120.15 447.23 125.1 449.14C128.84 450.58 138.49 454.96 145.18 456.94V460.68C138.5 458.68 128.84 454.33 125.11 452.89C120.16 450.98 112.86 448.01 112.87 445.39" stroke="black" stroke-width="0.25" stroke-miterlimit="10"/>
<path d="M145.17 460.68V456.94L146.49 457.3V461.05C146.07 460.94 145.63 460.82 145.17 460.68Z" fill="#262623" stroke="black" stroke-width="0.25" stroke-miterlimit="10"/>
<path d="M125.1 449.14C129.1 450.68 139.83 455.57 146.5 457.3C146.5 458.41 146.5 459.51 146.5 460.61V461.05C139.83 459.31 129.1 454.42 125.11 452.89C120.16 450.98 112.86 448.01 112.87 445.39V441.65C112.86 444.26 120.15 447.23 125.1 449.14Z" stroke="black" stroke-width="0.25" stroke-miterlimit="10"/>
<path d="M169 461.78V458C170.233 458.312 171.401 458.84 172.45 459.56C172.702 459.713 172.915 459.922 173.072 460.173C173.228 460.423 173.323 460.706 173.35 461V464.75C173.321 464.454 173.223 464.17 173.065 463.918C172.907 463.666 172.693 463.455 172.44 463.3C171.394 462.582 170.229 462.053 169 461.74" fill="#242522"/>
<path d="M169 461.78V458C170.233 458.312 171.401 458.84 172.45 459.56C172.702 459.713 172.915 459.922 173.072 460.173C173.228 460.423 173.323 460.706 173.35 461V464.75C173.321 464.454 173.223 464.17 173.065 463.918C172.907 463.666 172.693 463.455 172.44 463.3C171.394 462.582 170.229 462.053 169 461.74" stroke="black" stroke-width="0.25" stroke-miterlimit="10"/>
<path d="M172.46 463.34C172.46 462.24 172.46 461.14 172.46 460.03C172.46 461.14 172.46 462.24 172.46 463.34Z" stroke="black" stroke-width="0.25" stroke-miterlimit="10"/>
<path d="M153.29 462.49V458.75L153.83 458.7V462.45H153.29" fill="#62604F"/>
<path d="M153.29 462.49V458.75L153.83 458.7V462.45H153.29" stroke="black" stroke-width="0.25" stroke-miterlimit="10"/>
<path d="M153.83 462.45V458.7H154.7V462.44L153.83 462.49" fill="#5F5E4D"/>
<path d="M153.83 462.45V458.7H154.7V462.44L153.83 462.49" stroke="black" stroke-width="0.25" stroke-miterlimit="10"/>
<path d="M154.7 462.4V458.66H155.28V462.4H154.7Z" fill="#5D5C4C" stroke="black" stroke-width="0.25" stroke-miterlimit="10"/>
<path d="M155.28 462.38V458.64H155.81V462.38H155.28Z" fill="#5B594A" stroke="black" stroke-width="0.25" stroke-miterlimit="10"/>
<path d="M155.81 462.37V458.63H156.31V462.38H155.81" fill="#595748"/>
<path d="M155.81 462.37V458.63H156.31V462.38H155.81" stroke="black" stroke-width="0.25" stroke-miterlimit="10"/>
<path d="M156.31 462.37V458.62H156.8V462.36H156.31" fill="#575546"/>
<path d="M156.31 462.37V458.62H156.8V462.36H156.31" stroke="black" stroke-width="0.25" stroke-miterlimit="10"/>
<path d="M156.8 462.37V458.63H157.3V462.38H156.81" fill="#545344"/>
<path d="M156.8 462.37V458.63H157.3V462.38H156.81" stroke="black" stroke-width="0.25" stroke-miterlimit="10"/>
<path d="M157.29 462.39V458.64H157.78V462.39H157.28" fill="#525143"/>
<path d="M157.29 462.39V458.64H157.78V462.39H157.28" stroke="black" stroke-width="0.25" stroke-miterlimit="10"/>
<path d="M157.79 462.41V458.66H158.29V462.4H157.8" fill="#504E41"/>
<path d="M157.79 462.41V458.66H158.29V462.4H157.8" stroke="black" stroke-width="0.25" stroke-miterlimit="10"/>
<path d="M158.28 462.43V458.69H158.77V462.44H158.27" fill="#4E4C3F"/>
<path d="M158.28 462.43V458.69H158.77V462.44H158.27" stroke="black" stroke-width="0.25" stroke-miterlimit="10"/>
<path d="M158.78 462.47V458.72H159.28V462.46H158.79" fill="#4B4A3D"/>
<path d="M158.78 462.47V458.72H159.28V462.46H158.79" stroke="black" stroke-width="0.25" stroke-miterlimit="10"/>
<path d="M159.27 462.51V458.77L159.76 458.82V462.56L159.27 462.51Z" fill="#49483B" stroke="black" stroke-width="0.25" stroke-miterlimit="10"/>
<path d="M159.76 462.56V458.82C159.924 458.83 160.088 458.85 160.25 458.88V462.62L159.76 462.56Z" fill="#47463A" stroke="black" stroke-width="0.25" stroke-miterlimit="10"/>
<path d="M160.25 462.62V458.88L160.75 458.95V462.69L160.24 462.62" fill="#454438"/>
<path d="M160.25 462.62V458.88L160.75 458.95V462.69L160.24 462.62" stroke="black" stroke-width="0.25" stroke-miterlimit="10"/>
<path d="M160.76 462.69V459L161.27 459.08V462.82L160.76 462.74" fill="#434136"/>
<path d="M160.76 462.69V459L161.27 459.08V462.82L160.76 462.74" stroke="black" stroke-width="0.25" stroke-miterlimit="10"/>
<path d="M161.27 462.77V459L161.81 459.1V462.85L161.28 462.74" fill="#403F34"/>
<path d="M161.27 462.77V459L161.81 459.1V462.85L161.28 462.74" stroke="black" stroke-width="0.25" stroke-miterlimit="10"/>
<path d="M161.8 462.88V459.13L162.37 459.26V463L161.79 462.88" fill="#3E3D32"/>
<path d="M161.8 462.88V459.13L162.37 459.26V463L161.79 462.88" stroke="black" stroke-width="0.25" stroke-miterlimit="10"/>
<path d="M162.38 463V459.26L163.04 459.43V463.18L162.39 463" fill="#3C3B31"/>
<path d="M162.38 463V459.26L163.04 459.43V463.18L162.39 463" stroke="black" stroke-width="0.25" stroke-miterlimit="10"/>
<path d="M163 463.18V459.43C163.652 459.603 164.27 459.884 164.83 460.26C164.965 460.342 165.079 460.454 165.162 460.588C165.246 460.721 165.296 460.873 165.31 461.03V464.77C165.295 464.615 165.243 464.465 165.16 464.333C165.077 464.201 164.964 464.091 164.83 464.01C164.272 463.624 163.649 463.342 162.99 463.18" fill="#3A392F"/>
<path d="M163 463.18V459.43C163.652 459.603 164.27 459.884 164.83 460.26C164.965 460.342 165.079 460.454 165.162 460.588C165.246 460.721 165.296 460.873 165.31 461.03V464.77C165.295 464.615 165.243 464.465 165.16 464.333C165.077 464.201 164.964 464.091 164.83 464.01C164.272 463.624 163.649 463.342 162.99 463.18" stroke="black" stroke-width="0.25" stroke-miterlimit="10"/>
<path d="M165.35 461V464.74C165.335 464.585 165.283 464.435 165.2 464.303C165.117 464.171 165.004 464.06 164.87 463.98C163.25 462.72 158.07 462.04 153.29 462.46V458.72C158.08 458.3 163.29 458.98 164.87 460.23C165.005 460.311 165.119 460.424 165.202 460.557C165.286 460.691 165.336 460.843 165.35 461Z" stroke="black" stroke-width="0.25" stroke-miterlimit="10"/>
<path d="M147.08 464.73V461C147.069 460.947 147.069 460.893 147.08 460.84V464.59C147.075 464.64 147.075 464.69 147.08 464.74" fill="#434136"/>
<path d="M147.08 464.73V461C147.069 460.947 147.069 460.893 147.08 460.84V464.59C147.075 464.64 147.075 464.69 147.08 464.74" stroke="black" stroke-width="0.25" stroke-miterlimit="10"/>
<path d="M147.1 464.58V460.83C147.096 460.78 147.096 460.73 147.1 460.68V464.43L147.04 464.58" fill="#454438"/>
<path d="M147.1 464.58V460.83C147.096 460.78 147.096 460.73 147.1 460.68V464.43L147.04 464.58" stroke="black" stroke-width="0.25" stroke-miterlimit="10"/>
<path d="M147.16 464.43V460.68L147.25 460.55V464.29C147.213 464.332 147.183 464.379 147.16 464.43Z" fill="#47463A"/>
<path d="M147.16 464.43V460.68L147.25 460.55V464.29C147.213 464.332 147.183 464.379 147.16 464.43" stroke="black" stroke-width="0.25" stroke-miterlimit="10"/>
<path d="M147.25 464.29V460.55L147.37 460.41V464.16C147.324 464.198 147.284 464.242 147.25 464.29Z" fill="#49483B"/>
<path d="M147.25 464.29V460.55L147.37 460.41V464.16C147.324 464.198 147.284 464.242 147.25 464.29" stroke="black" stroke-width="0.25" stroke-miterlimit="10"/>
<path d="M147.37 464.16V460.41C147.415 460.362 147.466 460.318 147.52 460.28V464L147.38 464.14" fill="#4B4A3D"/>
<path d="M147.37 464.16V460.41C147.415 460.362 147.466 460.318 147.52 460.28V464L147.38 464.14" stroke="black" stroke-width="0.25" stroke-miterlimit="10"/>
<path d="M147.51 464V460.26L147.68 460.13V463.88L147.5 464" fill="#4E4C3F"/>
<path d="M147.51 464V460.26L147.68 460.13V463.88L147.5 464" stroke="black" stroke-width="0.25" stroke-miterlimit="10"/>
<path d="M147.69 463.9V460.15L147.9 460.02V463.77C147.829 463.807 147.762 463.851 147.7 463.9" fill="#504E41"/>
<path d="M147.69 463.9V460.15L147.9 460.02V463.77C147.829 463.807 147.762 463.851 147.7 463.9" stroke="black" stroke-width="0.25" stroke-miterlimit="10"/>
<path d="M147.89 463.77V460L148.13 459.87V463.62L147.88 463.75" fill="#525143"/>
<path d="M147.89 463.77V460L148.13 459.87V463.62L147.88 463.75" stroke="black" stroke-width="0.25" stroke-miterlimit="10"/>
<path d="M148.14 463.64V459.89L148.43 459.76V463.5L148.15 463.64" fill="#545344"/>
<path d="M148.14 463.64V459.89L148.43 459.76V463.5L148.15 463.64" stroke="black" stroke-width="0.25" stroke-miterlimit="10"/>
<path d="M148.42 463.5V459.76L148.76 459.62V463.37L148.41 463.5" fill="#575546"/>
<path d="M148.42 463.5V459.76L148.76 459.62V463.37L148.41 463.5" stroke="black" stroke-width="0.25" stroke-miterlimit="10"/>
<path d="M148.77 463.37V459.62L149.19 459.48V463.23C149.047 463.269 148.907 463.316 148.77 463.37Z" fill="#595748"/>
<path d="M148.77 463.37V459.62L149.19 459.48V463.23C149.047 463.269 148.907 463.316 148.77 463.37" stroke="black" stroke-width="0.25" stroke-miterlimit="10"/>
<path d="M149.19 463.23V459.48L149.73 459.32V463.07L149.19 463.23Z" fill="#5B594A" stroke="black" stroke-width="0.25" stroke-miterlimit="10"/>
<path d="M149.73 463.07V459.32C149.97 459.26 150.22 459.2 150.49 459.15V462.89L149.74 463.07" fill="#5D5C4C"/>
<path d="M149.73 463.07V459.32C149.97 459.26 150.22 459.2 150.49 459.15V462.89L149.74 463.07" stroke="black" stroke-width="0.25" stroke-miterlimit="10"/>
<path d="M150.48 462.89V459.15C150.84 459.07 151.23 459 151.64 458.94V462.69C151.23 462.75 150.84 462.82 150.48 462.89Z" fill="#5F5E4D" stroke="black" stroke-width="0.25" stroke-miterlimit="10"/>
<path d="M151.64 462.69V458.94C152.15 458.86 152.7 458.8 153.28 458.75V462.49C152.7 462.54 152.15 462.61 151.63 462.69" fill="#62604F"/>
<path d="M151.64 462.69V458.94C152.15 458.86 152.7 458.8 153.28 458.75V462.49C152.7 462.54 152.15 462.61 151.63 462.69" stroke="black" stroke-width="0.25" stroke-miterlimit="10"/>
<path d="M147.08 464.75V461C147.08 460 149.48 459.07 153.29 458.74V462.48C149.48 462.83 147.08 463.75 147.08 464.75Z" stroke="black" stroke-width="0.25" stroke-miterlimit="10"/>
<path d="M168.43 461.62V457.87L169.02 458.04V461.78L168.43 461.62Z" fill="#262623" stroke="black" stroke-width="0.25" stroke-miterlimit="10"/>
<path d="M169 461.78V458C170.233 458.312 171.401 458.84 172.45 459.56C172.702 459.713 172.915 459.922 173.072 460.173C173.228 460.423 173.323 460.706 173.35 461V464.75C173.321 464.454 173.223 464.17 173.065 463.918C172.907 463.666 172.693 463.455 172.44 463.3C171.394 462.582 170.229 462.053 169 461.74" fill="#242522"/>
<path d="M169 461.78V458C170.233 458.312 171.401 458.84 172.45 459.56C172.702 459.713 172.915 459.922 173.072 460.173C173.228 460.423 173.323 460.706 173.35 461V464.75C173.321 464.454 173.223 464.17 173.065 463.918C172.907 463.666 172.693 463.455 172.44 463.3C171.394 462.582 170.229 462.053 169 461.74" stroke="black" stroke-width="0.25" stroke-miterlimit="10"/>
<path d="M173.37 461V464.75C173.341 464.454 173.243 464.17 173.085 463.918C172.927 463.666 172.713 463.455 172.46 463.3C171.245 462.482 169.889 461.899 168.46 461.58V457.83C169.887 458.158 171.243 458.744 172.46 459.56C172.714 459.712 172.929 459.921 173.087 460.171C173.245 460.421 173.342 460.705 173.37 461V461Z" stroke="black" stroke-width="0.25" stroke-miterlimit="10"/>
<path d="M222.57 466.49V462.74C224.66 462.56 226.69 462.32 228.64 462.02V465.77C226.7 466.06 224.64 466.3 222.57 466.49Z" fill="#3E3E39" stroke="black" stroke-width="0.25" stroke-miterlimit="10"/>
<path d="M228.64 465.77V462C230.26 461.76 231.81 461.48 233.28 461.17V464.92C231.81 465.23 230.28 465.51 228.63 465.75" fill="#3C3D38"/>
<path d="M228.64 465.77V462C230.26 461.76 231.81 461.48 233.28 461.17V464.92C231.81 465.23 230.28 465.51 228.63 465.75" stroke="black" stroke-width="0.25" stroke-miterlimit="10"/>
<path d="M233.29 464.94V461.19C234.35 460.97 235.37 460.73 236.29 460.48V464.23C235.29 464.48 234.29 464.72 233.29 464.94Z" fill="#3B3C37" stroke="black" stroke-width="0.25" stroke-miterlimit="10"/>
<path d="M236.32 464.23V460.48C237.05 460.29 237.76 460.08 238.43 459.87V463.62C237.76 463.83 237.06 464.03 236.32 464.23Z" fill="#393A35" stroke="black" stroke-width="0.25" stroke-miterlimit="10"/>
<path d="M238.43 463.62V459.87C238.99 459.703 239.52 459.523 240.02 459.33V463.08L238.42 463.62" fill="#383934"/>
<path d="M238.43 463.62V459.87C238.99 459.703 239.52 459.523 240.02 459.33V463.08L238.42 463.62" stroke="black" stroke-width="0.25" stroke-miterlimit="10"/>
<path d="M240 463.08V459.33C240.45 459.17 240.86 459 241.26 458.83V462.58C240.86 462.75 240.44 462.91 240 463.08Z" fill="#373733" stroke="black" stroke-width="0.25" stroke-miterlimit="10"/>
<path d="M241.29 462.58V458.83C241.65 458.68 241.98 458.53 242.29 458.37V462.12C241.98 462.27 241.64 462.43 241.29 462.58Z" fill="#353631" stroke="black" stroke-width="0.25" stroke-miterlimit="10"/>
<path d="M242.29 462.12V458.37C242.57 458.23 242.84 458.09 243.09 457.94V461.69C242.84 461.83 242.57 461.98 242.28 462.12" fill="#343530"/>
<path d="M242.29 462.12V458.37C242.57 458.23 242.84 458.09 243.09 457.94V461.69C242.84 461.83 242.57 461.98 242.28 462.12" stroke="black" stroke-width="0.25" stroke-miterlimit="10"/>
<path d="M243.1 461.69V457.94C243.34 457.8 243.57 457.67 243.78 457.52V461.27C243.57 461.41 243.35 461.55 243.11 461.69" fill="#32332F"/>
<path d="M243.1 461.69V457.94C243.34 457.8 243.57 457.67 243.78 457.52V461.27C243.57 461.41 243.35 461.55 243.11 461.69" stroke="black" stroke-width="0.25" stroke-miterlimit="10"/>
<path d="M243.77 461.27V457.52L244.32 457.12V460.86C244.144 461.007 243.961 461.144 243.77 461.27Z" fill="#31322D" stroke="black" stroke-width="0.25" stroke-miterlimit="10"/>
<path d="M244.32 460.86V457.12C244.472 456.997 244.616 456.864 244.75 456.72V460.47C244.61 460.608 244.463 460.738 244.31 460.86" fill="#30302C"/>
<path d="M244.32 460.86V457.12C244.472 456.997 244.616 456.864 244.75 456.72V460.47C244.61 460.608 244.463 460.738 244.31 460.86" stroke="black" stroke-width="0.25" stroke-miterlimit="10"/>
<path d="M244.76 460.47V456.72C244.885 456.598 245.002 456.467 245.11 456.33V460.07C245.001 460.21 244.884 460.344 244.76 460.47Z" fill="#2E2F2B"/>
<path d="M244.76 460.47V456.72C244.885 456.598 245.002 456.467 245.11 456.33V460.07C245.001 460.21 244.884 460.344 244.76 460.47" stroke="black" stroke-width="0.25" stroke-miterlimit="10"/>
<path d="M245.11 460.07V456.33C245.204 456.204 245.287 456.07 245.36 455.93V459.68C245.287 459.817 245.204 459.947 245.11 460.07Z" fill="#2D2D2A"/>
<path d="M245.11 460.07V456.33C245.204 456.204 245.287 456.07 245.36 455.93V459.68C245.287 459.817 245.204 459.947 245.11 460.07" stroke="black" stroke-width="0.25" stroke-miterlimit="10"/>
<path d="M245.36 459.68V455.93C245.433 455.801 245.491 455.663 245.53 455.52V459.27C245.484 459.411 245.427 459.548 245.36 459.68Z" fill="#2B2C28"/>
<path d="M245.36 459.68V455.93C245.433 455.801 245.491 455.663 245.53 455.52V459.27C245.484 459.411 245.427 459.548 245.36 459.68" stroke="black" stroke-width="0.25" stroke-miterlimit="10"/>
<path d="M245.53 459.27V455.52C245.568 455.383 245.591 455.242 245.6 455.1V458.84C245.6 458.986 245.58 459.13 245.54 459.27" fill="#2A2B27"/>
<path d="M245.53 459.27V455.52C245.568 455.383 245.591 455.242 245.6 455.1V458.84C245.6 458.986 245.58 459.13 245.54 459.27" stroke="black" stroke-width="0.25" stroke-miterlimit="10"/>
<path d="M222.58 462.74C234.96 461.66 245.58 458.49 245.58 455.04V458.79C245.58 462.24 234.95 465.4 222.58 466.49C222.58 465.36 222.58 463.86 222.58 462.74Z" stroke="black" stroke-width="0.25" stroke-miterlimit="10"/>
<path d="M173.37 464.79V461V464.74" fill="#2B2C28"/>
<path d="M173.37 464.79V461V464.74" stroke="black" stroke-width="0.25" stroke-miterlimit="10"/>
<path d="M173.38 464.79V461.05L175.87 461.35V465.09L173.39 464.79" fill="#2D2D2A"/>
<path d="M173.38 464.79V461.05L175.87 461.35V465.09L173.39 464.79" stroke="black" stroke-width="0.25" stroke-miterlimit="10"/>
<path d="M175.86 465.09V461.35C176.86 461.46 177.95 461.57 179.06 461.67V465.42L175.85 465.09" fill="#2E2F2B"/>
<path d="M175.86 465.09V461.35C176.86 461.46 177.95 461.57 179.06 461.67V465.42L175.85 465.09" stroke="black" stroke-width="0.25" stroke-miterlimit="10"/>
<path d="M179.07 465.42V461.67C180.403 461.797 181.803 461.917 183.27 462.03V465.78C181.82 465.67 180.41 465.55 179.07 465.42Z" fill="#30302C" stroke="black" stroke-width="0.25" stroke-miterlimit="10"/>
<path d="M183.27 465.78V462C184.97 462.14 186.74 462.26 188.53 462.37V466.11C186.73 466 184.97 465.88 183.27 465.75" fill="#31322D"/>
<path d="M183.27 465.78V462C184.97 462.14 186.74 462.26 188.53 462.37V466.11C186.73 466 184.97 465.88 183.27 465.75" stroke="black" stroke-width="0.25" stroke-miterlimit="10"/>
<path d="M188.53 466.14V462.4C190.53 462.52 192.53 462.63 194.53 462.73V466.47C192.53 466.38 190.47 466.27 188.53 466.14Z" fill="#32332F" stroke="black" stroke-width="0.25" stroke-miterlimit="10"/>
<path d="M194.57 466.47V462.73C196.62 462.82 198.67 462.91 200.69 462.97V466.72C198.69 466.65 196.63 466.57 194.58 466.47" fill="#343530"/>
<path d="M194.57 466.47V462.73C196.62 462.82 198.67 462.91 200.69 462.97V466.72C198.69 466.65 196.63 466.57 194.58 466.47" stroke="black" stroke-width="0.25" stroke-miterlimit="10"/>
<path d="M200.68 466.72V463C202.52 463.06 204.33 463.11 206.09 463.14V466.88C204.34 466.88 202.52 466.81 200.68 466.75" fill="#353631"/>
<path d="M200.68 466.72V463C202.52 463.06 204.33 463.11 206.09 463.14V466.88C204.34 466.88 202.52 466.81 200.68 466.75" stroke="black" stroke-width="0.25" stroke-miterlimit="10"/>
<path d="M206.09 466.85V463.11L210.41 463.16V466.9C209.02 466.9 207.57 466.9 206.08 466.9" fill="#373733"/>
<path d="M206.09 466.85V463.11L210.41 463.16V466.9C209.02 466.9 207.57 466.9 206.08 466.9" stroke="black" stroke-width="0.25" stroke-miterlimit="10"/>
<path d="M210.42 466.9V463.16H213.76V466.9C212.7 466.9 211.58 466.9 210.43 466.9" fill="#383934"/>
<path d="M210.42 466.9V463.16H213.76V466.9C212.7 466.9 211.58 466.9 210.43 466.9" stroke="black" stroke-width="0.25" stroke-miterlimit="10"/>
<path d="M213.75 466.89V463.15H215.88H216.18V466.9H215.88H213.75" fill="#393A35"/>
<path d="M213.75 466.89V463.15H215.88H216.18V466.9H215.88H213.75" stroke="black" stroke-width="0.25" stroke-miterlimit="10"/>
<path d="M216.18 466.85V463.1C216.78 463.1 217.38 463.1 217.97 463.04V466.79L216.17 466.85" fill="#3B3C37"/>
<path d="M216.18 466.85V463.1C216.78 463.1 217.38 463.1 217.97 463.04V466.79L216.17 466.85" stroke="black" stroke-width="0.25" stroke-miterlimit="10"/>
<path d="M218 466.79V463C218.88 463 219.75 462.91 220.62 462.85V466.6C219.75 466.66 218.88 466.71 218 466.75" fill="#3C3D38"/>
<path d="M218 466.79V463C218.88 463 219.75 462.91 220.62 462.85V466.6C219.75 466.66 218.88 466.71 218 466.75" stroke="black" stroke-width="0.25" stroke-miterlimit="10"/>
<path d="M220.6 466.64V462.89C221.267 462.85 221.933 462.8 222.6 462.74V466.49L220.6 466.64Z" fill="#3E3E39" stroke="black" stroke-width="0.25" stroke-miterlimit="10"/>
<path d="M173.37 464.79V461C187.487 462.563 201.687 463.254 215.89 463.07C218.14 463.02 220.39 462.89 222.58 462.7V466.45C220.39 466.64 218.14 466.76 215.89 466.82C201.688 467.013 187.488 466.335 173.37 464.79V464.79Z" stroke="black" stroke-width="0.25" stroke-miterlimit="10"/>
<path d="M222.58 462.74C220.39 462.93 218.14 463.06 215.89 463.11C201.686 463.281 187.486 462.576 173.37 461C173.343 460.706 173.248 460.422 173.092 460.172C172.935 459.922 172.722 459.712 172.47 459.56C171.253 458.744 169.897 458.157 168.47 457.83C175.66 456.09 193.1 453.46 198.72 452.46C203.84 451.55 210.95 450.34 218.19 449.71C226.96 448.94 235.92 449.02 241.76 451.51C252.5 456.15 239.1 461.3 222.58 462.74Z" fill="#31322D" stroke="black" stroke-width="0.25" stroke-miterlimit="10"/>
<path d="M139.05 464.74V461C139.079 461.296 139.176 461.58 139.334 461.832C139.492 462.084 139.706 462.295 139.96 462.45C141.006 463.168 142.17 463.697 143.4 464.01V467.75C142.168 467.439 141 466.914 139.95 466.2C139.696 466.045 139.482 465.834 139.324 465.582C139.166 465.33 139.069 465.046 139.04 464.75" fill="#3A392F"/>
<path d="M139.05 464.74V461C139.079 461.296 139.176 461.58 139.334 461.832C139.492 462.084 139.706 462.295 139.96 462.45C141.006 463.168 142.17 463.697 143.4 464.01V467.75C142.168 467.439 141 466.914 139.95 466.2C139.696 466.045 139.482 465.834 139.324 465.582C139.166 465.33 139.069 465.046 139.04 464.75" stroke="black" stroke-width="0.25" stroke-miterlimit="10"/>
<path d="M143.41 467.74V464L143.99 464.16L144.65 464.33V468.07L143.99 467.91L143.42 467.74" fill="#3C3B31"/>
<path d="M143.41 467.74V464L143.99 464.16L144.65 464.33V468.07L143.99 467.91L143.42 467.74" stroke="black" stroke-width="0.25" stroke-miterlimit="10"/>
<path d="M144.64 468.07V464.33L145.71 464.56V468.31C145.34 468.23 144.98 468.16 144.63 468.07" fill="#3E3D32"/>
<path d="M144.64 468.07V464.33L145.71 464.56V468.31C145.34 468.23 144.98 468.16 144.63 468.07" stroke="black" stroke-width="0.25" stroke-miterlimit="10"/>
<path d="M145.72 468.31V464.56L146.72 464.75V468.5L145.72 468.31Z" fill="#403F34" stroke="black" stroke-width="0.25" stroke-miterlimit="10"/>
<path d="M146.72 468.5V464.75L147.72 464.91V468.65C147.39 468.65 147.07 468.55 146.72 468.5Z" fill="#434136"/>
<path d="M146.72 468.5V464.75L147.72 464.91V468.65C147.39 468.65 147.07 468.55 146.72 468.5" stroke="black" stroke-width="0.25" stroke-miterlimit="10"/>
<path d="M147.68 468.65V464.91L148.62 465.04V468.79L147.69 468.65" fill="#454438"/>
<path d="M147.68 468.65V464.91L148.62 465.04V468.79L147.69 468.65" stroke="black" stroke-width="0.25" stroke-miterlimit="10"/>
<path d="M148.61 468.79V465L149.53 465.11V468.86L148.6 468.75" fill="#47463A"/>
<path d="M148.61 468.79V465L149.53 465.11V468.86L148.6 468.75" stroke="black" stroke-width="0.25" stroke-miterlimit="10"/>
<path d="M149.54 468.9V465.15L150.46 465.25V469L149.54 468.91" fill="#49483B"/>
<path d="M149.54 468.9V465.15L150.46 465.25V469L149.54 468.91" stroke="black" stroke-width="0.25" stroke-miterlimit="10"/>
<path d="M150.46 469V465.26L151.39 465.34V469.08L150.46 469Z" fill="#4B4A3D" stroke="black" stroke-width="0.25" stroke-miterlimit="10"/>
<path d="M151.39 469.07V465.33L152.32 465.39V469.14L151.4 469.07" fill="#4E4C3F"/>
<path d="M151.39 469.07V465.33L152.32 465.39V469.14L151.4 469.07" stroke="black" stroke-width="0.25" stroke-miterlimit="10"/>
<path d="M152.31 469.14V465.39L153.24 465.44V469.19L152.3 469.14" fill="#504E41"/>
<path d="M152.31 469.14V465.39L153.24 465.44V469.19L152.3 469.14" stroke="black" stroke-width="0.25" stroke-miterlimit="10"/>
<path d="M153.25 469.19V465.44H154.18V469.18H153.25" fill="#525143"/>
<path d="M153.25 469.19V465.44H154.18V469.18H153.25" stroke="black" stroke-width="0.25" stroke-miterlimit="10"/>
<path d="M154.18 469.22V465.48H155.11V469.23H154.19" fill="#545344"/>
<path d="M154.18 469.22V465.48H155.11V469.23H154.19" stroke="black" stroke-width="0.25" stroke-miterlimit="10"/>
<path d="M155.1 469.25V465.5H156V469.25H155.08" fill="#575546"/>
<path d="M155.1 469.25V465.5H156V469.25H155.08" stroke="black" stroke-width="0.25" stroke-miterlimit="10"/>
<path d="M156 469.26V465.51H157V469.25H156" fill="#595748"/>
<path d="M156 469.26V465.51H157V469.25H156" stroke="black" stroke-width="0.25" stroke-miterlimit="10"/>
<path d="M157 469.25V465.51H158V469.26H157" fill="#5B594A"/>
<path d="M157 469.25V465.51H158V469.26H157" stroke="black" stroke-width="0.25" stroke-miterlimit="10"/>
<path d="M157.94 469.24V465.49H159.05V469.24H157.94Z" fill="#5D5C4C" stroke="black" stroke-width="0.25" stroke-miterlimit="10"/>
<path d="M159.05 469.2V465.45L160.59 465.37V469.11L159.06 469.2" fill="#5F5E4D"/>
<path d="M159.05 469.2V465.45L160.59 465.37V469.11L159.06 469.2" stroke="black" stroke-width="0.25" stroke-miterlimit="10"/>
<path d="M160.58 469.11V465.37L161.69 465.28C162.8 465.18 163.85 465.06 164.82 464.91V468.66C163.82 468.8 162.82 468.93 161.68 469.03L160.57 469.11" fill="#62604F"/>
<path d="M160.58 469.11V465.37L161.69 465.28C162.8 465.18 163.85 465.06 164.82 464.91V468.66C163.82 468.8 162.82 468.93 161.68 469.03L160.57 469.11" stroke="black" stroke-width="0.25" stroke-miterlimit="10"/>
<path d="M164.83 468.66V464.91L165.93 464.73L166.99 464.53V468.27L165.93 468.48L164.84 468.66" fill="#5F5E4D"/>
<path d="M164.83 468.66V464.91L165.93 464.73L166.99 464.53V468.27L165.93 468.48L164.84 468.66" stroke="black" stroke-width="0.25" stroke-miterlimit="10"/>
<path d="M167 468.27V464.53C167.49 464.42 168 464.31 168.41 464.19V467.94C167.97 468.06 167.5 468.17 167 468.27Z" fill="#5D5C4C" stroke="black" stroke-width="0.25" stroke-miterlimit="10"/>
<path d="M168.39 467.94V464.19C168.74 464.1 169.08 464 169.39 463.9V467.65C169.07 467.75 168.74 467.85 168.39 467.94Z" fill="#5B594A" stroke="black" stroke-width="0.25" stroke-miterlimit="10"/>
<path d="M169.4 467.65V463.9C169.67 463.82 169.94 463.73 170.19 463.63V467.38L169.4 467.65Z" fill="#595748" stroke="black" stroke-width="0.25" stroke-miterlimit="10"/>
<path d="M170.19 467.38V463.63C170.41 463.55 170.63 463.47 170.83 463.38V467.12C170.62 467.21 170.41 467.3 170.18 467.38" fill="#575546"/>
<path d="M170.19 467.38V463.63C170.41 463.55 170.63 463.47 170.83 463.38V467.12C170.62 467.21 170.41 467.3 170.18 467.38" stroke="black" stroke-width="0.25" stroke-miterlimit="10"/>
<path d="M170.84 467.12V463.38L171.38 463.13V466.88L170.84 467.12Z" fill="#545344" stroke="black" stroke-width="0.25" stroke-miterlimit="10"/>
<path d="M171.38 466.88V463.13L171.84 462.89V466.63C171.694 466.721 171.544 466.805 171.39 466.88" fill="#525143"/>
<path d="M171.38 466.88V463.13L171.84 462.89V466.63C171.694 466.721 171.544 466.805 171.39 466.88" stroke="black" stroke-width="0.25" stroke-miterlimit="10"/>
<path d="M171.83 466.63V462.89L172.21 462.65V466.39L171.82 466.63" fill="#504E41"/>
<path d="M171.83 466.63V462.89L172.21 462.65V466.39L171.82 466.63" stroke="black" stroke-width="0.25" stroke-miterlimit="10"/>
<path d="M172.22 466.39V462.65L172.55 462.4V466.15L172.22 466.39Z" fill="#4E4C3F" stroke="black" stroke-width="0.25" stroke-miterlimit="10"/>
<path d="M172.55 466.15V462.4L172.83 462.16V465.9C172.744 465.988 172.654 466.072 172.56 466.15" fill="#4B4A3D"/>
<path d="M172.55 466.15V462.4L172.83 462.16V465.9C172.744 465.988 172.654 466.072 172.56 466.15" stroke="black" stroke-width="0.25" stroke-miterlimit="10"/>
<path d="M172.82 465.9V462.16L173.04 461.9V465.65C172.972 465.738 172.899 465.822 172.82 465.9Z" fill="#49483B"/>
<path d="M172.82 465.9V462.16L173.04 461.9V465.65C172.972 465.738 172.899 465.822 172.82 465.9" stroke="black" stroke-width="0.25" stroke-miterlimit="10"/>
<path d="M173 465.65V461.9C173.062 461.82 173.116 461.732 173.16 461.64V465.39C173.108 465.48 173.051 465.567 172.99 465.65" fill="#47463A"/>
<path d="M173 465.65V461.9C173.062 461.82 173.116 461.732 173.16 461.64V465.39C173.108 465.48 173.051 465.567 172.99 465.65" stroke="black" stroke-width="0.25" stroke-miterlimit="10"/>
<path d="M173.21 465.39V461.64C173.259 461.556 173.296 461.465 173.32 461.37V465.11C173.294 465.207 173.257 465.301 173.21 465.39Z" fill="#454438" stroke="black" stroke-width="0.25" stroke-miterlimit="10"/>
<path d="M173.32 465.11V461.37C173.351 461.276 173.368 461.179 173.37 461.08V464.82C173.364 464.918 173.347 465.016 173.32 465.11Z" fill="#434136"/>
<path d="M173.32 465.11V461.37C173.351 461.276 173.368 461.179 173.37 461.08V464.82C173.364 464.918 173.347 465.016 173.32 465.11" stroke="black" stroke-width="0.25" stroke-miterlimit="10"/>
<path d="M139.05 464.74V461C139.079 461.296 139.176 461.58 139.334 461.832C139.492 462.084 139.706 462.295 139.96 462.45C141.173 463.269 142.53 463.853 143.96 464.17C147.933 465.114 152.007 465.567 156.09 465.52C157.94 465.52 159.82 465.45 161.67 465.29C163.21 465.16 164.67 464.97 165.9 464.74C170.55 463.91 173.33 462.52 173.34 461.05V464.8C173.34 466.27 170.54 467.66 165.89 468.49C164.62 468.71 163.2 468.9 161.66 469.04C159.81 469.2 157.93 469.27 156.08 469.27C152.013 469.304 147.957 468.848 144 467.91C142.574 467.582 141.219 466.999 140 466.19C139.739 466.04 139.517 465.83 139.352 465.578C139.187 465.326 139.083 465.039 139.05 464.74V464.74Z" stroke="black" stroke-width="0.25" stroke-miterlimit="10"/>
<path d="M164.87 460.27C163.26 459.01 158.07 458.33 153.3 458.75C148.53 459.17 145.95 460.52 147.56 461.75C149.17 462.98 154.36 463.69 159.13 463.27C163.9 462.85 166.48 461.51 164.87 460.27ZM172.46 459.6C171.247 458.777 169.89 458.19 168.46 457.87C164.485 456.937 160.412 456.487 156.33 456.53C154.48 456.53 152.6 456.59 150.75 456.75C149.21 456.88 147.75 457.07 146.52 457.3C141.86 458.13 139.09 459.52 139.07 460.99C139.102 461.286 139.201 461.571 139.361 461.822C139.52 462.074 139.735 462.285 139.99 462.44C141.21 463.249 142.565 463.835 143.99 464.17C147.965 465.101 152.037 465.551 156.12 465.51C157.96 465.51 159.85 465.44 161.7 465.28C163.23 465.14 164.7 464.95 165.93 464.73C170.57 463.91 173.36 462.51 173.37 461.04C173.342 460.745 173.245 460.461 173.087 460.211C172.929 459.961 172.714 459.752 172.46 459.6ZM164.87 460.27C163.26 459.01 158.07 458.33 153.3 458.75C148.53 459.17 145.95 460.52 147.56 461.75C149.17 462.98 154.36 463.69 159.13 463.27C163.9 462.85 166.48 461.51 164.87 460.27Z" fill="#4D4C3F" stroke="black" stroke-width="0.25" stroke-miterlimit="10"/>
<path d="M94.2598 476V472.25C98.0598 471.92 101.82 471.43 105.26 470.91V474.66C101.8 475.18 98.0398 475.66 94.2598 476Z" fill="#3E3E39" stroke="black" stroke-width="0.25" stroke-miterlimit="10"/>
<path d="M105.27 474.689V470.939C108.41 470.469 111.27 469.939 113.73 469.539C118.8 468.629 133.45 466.409 141.56 464.709V468.449C133.46 470.159 118.81 472.379 113.73 473.279C111.3 473.709 108.41 474.209 105.28 474.689" fill="#3C3D38"/>
<path d="M105.27 474.689V470.939C108.41 470.469 111.27 469.939 113.73 469.539C118.8 468.629 133.45 466.409 141.56 464.709V468.449C133.46 470.159 118.81 472.379 113.73 473.279C111.3 473.709 108.41 474.209 105.28 474.689" stroke="black" stroke-width="0.25" stroke-miterlimit="10"/>
<path d="M141.55 468.45V464.71C142.45 464.52 143.26 464.33 143.98 464.16V467.91C143.27 468.08 142.45 468.26 141.55 468.45Z" fill="#3B3C37" stroke="black" stroke-width="0.25" stroke-miterlimit="10"/>
<path d="M113.73 469.54C119.36 468.54 136.81 465.91 143.99 464.16C143.99 465.26 143.99 466.36 143.99 467.47V467.91C136.81 469.65 119.37 472.28 113.73 473.28C108.62 474.19 101.51 475.4 94.2698 476.03V472.28C101.5 471.65 108.61 470.44 113.73 469.54Z" stroke="black" stroke-width="0.25" stroke-miterlimit="10"/>
<path d="M66.8198 470.74V467C66.8198 468.16 67.9998 469.35 70.7098 470.5C71.4268 470.807 72.1614 471.071 72.9098 471.29V475C72.1598 474.779 71.4221 474.519 70.6998 474.22C67.9998 473.06 66.8098 471.87 66.8098 470.72" fill="#242522"/>
<path d="M66.8198 470.74V467C66.8198 468.16 67.9998 469.35 70.7098 470.5C71.4268 470.807 72.1614 471.071 72.9098 471.29V475C72.1598 474.779 71.4221 474.519 70.6998 474.22C67.9998 473.06 66.8098 471.87 66.8098 470.72" stroke="black" stroke-width="0.25" stroke-miterlimit="10"/>
<path d="M72.9199 475V471.26C73.3399 471.38 73.7799 471.5 74.2299 471.61V475.35C73.7899 475.24 73.3499 475.13 72.9299 475" fill="#262623"/>
<path d="M72.9199 475V471.26C73.3399 471.38 73.7799 471.5 74.2299 471.61V475.35C73.7899 475.24 73.3499 475.13 72.9299 475" stroke="black" stroke-width="0.25" stroke-miterlimit="10"/>
<path d="M74.2197 475.37V471.63L75.2197 471.85V475.6L74.2197 475.37Z" fill="#272824" stroke="black" stroke-width="0.25" stroke-miterlimit="10"/>
<path d="M75.2498 475.6V471.85L76.1598 472.03V475.77L75.2498 475.6Z" fill="#292926" stroke="black" stroke-width="0.25" stroke-miterlimit="10"/>
<path d="M76.1599 475.77V472L77.0099 472.13V475.88L76.1599 475.74" fill="#2A2B27"/>
<path d="M76.1599 475.77V472L77.0099 472.13V475.88L76.1599 475.74" stroke="black" stroke-width="0.25" stroke-miterlimit="10"/>
<path d="M76.9998 475.91V472.16C77.2698 472.16 77.5398 472.24 77.8198 472.28V476L76.9998 475.88" fill="#2B2C28"/>
<path d="M76.9998 475.91V472.16C77.2698 472.16 77.5398 472.24 77.8198 472.28V476L76.9998 475.88" stroke="black" stroke-width="0.25" stroke-miterlimit="10"/>
<path d="M77.8298 476V472.25L78.6298 472.35V476.09L77.8298 476Z" fill="#2D2D2A"/>
<path d="M77.8298 476V472.25L78.6298 472.35V476.09L77.8298 476" stroke="black" stroke-width="0.25" stroke-miterlimit="10"/>
<path d="M78.6299 476.12V472.38L79.4399 472.46V476.21L78.6299 476.12Z" fill="#2E2F2B" stroke="black" stroke-width="0.25" stroke-miterlimit="10"/>
<path d="M79.4399 476.21V472.46L80.2599 472.53V476.28L79.4299 476.21" fill="#30302C"/>
<path d="M79.4399 476.21V472.46L80.2599 472.53V476.28L79.4299 476.21" stroke="black" stroke-width="0.25" stroke-miterlimit="10"/>
<path d="M80.2698 476.28V472.53L81.1298 472.59V476.34L80.2698 476.28Z" fill="#31322D" stroke="black" stroke-width="0.25" stroke-miterlimit="10"/>
<path d="M81.1299 476.34V472.59L82.0299 472.64V476.39L81.1399 476.34" fill="#32332F"/>
<path d="M81.1299 476.34V472.59L82.0299 472.64V476.39L81.1399 476.34" stroke="black" stroke-width="0.25" stroke-miterlimit="10"/>
<path d="M81.9997 476.39V472.64H82.9297V476.38H81.9897" fill="#343530"/>
<path d="M81.9997 476.39V472.64H82.9297V476.38H81.9897" stroke="black" stroke-width="0.25" stroke-miterlimit="10"/>
<path d="M82.9998 476.42V472.68H83.9998V476.43H82.9998" fill="#353631"/>
<path d="M82.9998 476.42V472.68H83.9998V476.43H82.9998" stroke="black" stroke-width="0.25" stroke-miterlimit="10"/>
<path d="M83.9399 476.45V472.7H84.9999V476.45H83.9999" fill="#373733"/>
<path d="M83.9399 476.45V472.7H84.9999V476.45H83.9999" stroke="black" stroke-width="0.25" stroke-miterlimit="10"/>
<path d="M84.9998 476.46V472.71H86.1498V476.45H84.9998" fill="#383934"/>
<path d="M84.9998 476.46V472.71H86.1498V476.45H84.9998" stroke="black" stroke-width="0.25" stroke-miterlimit="10"/>
<path d="M86.1499 476.45V472.71H87.4799V476.46H86.1499" fill="#393A35"/>
<path d="M86.1499 476.45V472.71H87.4799V476.46H86.1499" stroke="black" stroke-width="0.25" stroke-miterlimit="10"/>
<path d="M87.4797 476.43V472.68L89.1497 472.62V476.37L87.4797 476.43Z" fill="#3B3C37" stroke="black" stroke-width="0.25" stroke-miterlimit="10"/>
<path d="M89.1499 476.37V472.62L91.9299 472.47V476.21C90.9999 476.28 90.0699 476.33 89.1499 476.37Z" fill="#3C3D38"/>
<path d="M89.1499 476.37V472.62L91.9299 472.47V476.21C90.9999 476.28 90.0699 476.33 89.1499 476.37" stroke="black" stroke-width="0.25" stroke-miterlimit="10"/>
<path d="M91.9299 476.21V472.47L94.2599 472.28V476C93.4799 476.07 92.7099 476.13 91.9299 476.18" fill="#3E3E39"/>
<path d="M91.9299 476.21V472.47L94.2599 472.28V476C93.4799 476.07 92.7099 476.13 91.9299 476.18" stroke="black" stroke-width="0.25" stroke-miterlimit="10"/>
<path d="M70.7198 470.49C76.5398 472.97 85.4998 473.05 94.2598 472.28V476C85.4898 476.77 76.5398 476.69 70.7098 474.21C68.0098 473.05 66.8198 471.86 66.8198 470.71V467C66.8298 468.15 67.9998 469.34 70.7198 470.49Z" stroke="black" stroke-width="0.25" stroke-miterlimit="10"/>
<path d="M94.2598 472.28C85.4998 473.05 76.5398 472.97 70.7198 470.49C59.9198 465.89 73.3198 460.74 89.8198 459.3C92.0198 459.11 94.2698 458.98 96.5298 458.93C110.735 458.751 124.939 459.442 139.06 461C139.089 461.296 139.186 461.581 139.344 461.832C139.502 462.084 139.716 462.295 139.97 462.45C141.183 463.269 142.54 463.853 143.97 464.17C136.79 465.92 119.34 468.54 113.71 469.55C108.61 470.44 101.5 471.65 94.2598 472.28Z" fill="#31322D" stroke="black" stroke-width="0.25" stroke-miterlimit="10"/>
<path d="M199.56 480.39V484.13C199.56 485.59 197.31 486.93 191.13 487.92C189.32 488.21 187.48 488.44 185.64 488.6V484.85C187.487 484.69 189.32 484.466 191.14 484.18C197.3 483.19 199.56 481.84 199.56 480.39Z" stroke="black" stroke-width="0.25" stroke-miterlimit="10"/>
<path d="M146.92 477.36C148.51 481.94 167.33 486.45 185.63 484.85V488.6C167.32 490.2 148.51 485.69 146.91 481.11C146.774 480.704 146.71 480.278 146.72 479.85V476.1C146.713 476.529 146.781 476.955 146.92 477.36V477.36Z" stroke="black" stroke-width="0.25" stroke-miterlimit="10"/>
<path d="M187 472.8C182.83 471.14 172.43 466.44 165.91 464.73C164.63 464.95 163.21 465.14 161.68 465.28C159.83 465.44 157.94 465.52 156.1 465.51C150.34 467.95 146.51 472.96 146.71 476.37" fill="#31322D"/>
<path d="M187 472.8C182.83 471.14 172.43 466.44 165.91 464.73C164.63 464.95 163.21 465.14 161.68 465.28C159.83 465.44 157.94 465.52 156.1 465.51C150.34 467.95 146.51 472.96 146.71 476.37" stroke="black" stroke-width="0.25" stroke-miterlimit="10"/>
<path d="M183.14 473.86L156.32 476.24" stroke="black" stroke-miterlimit="10"/>
<path d="M308.32 533.64H75.5698V483.05L300.37 463.38L308.32 533.64Z" fill="white"/>
</g>
<defs>
<clipPath id="clip0">
<rect width="308.32" height="533.64" fill="white"/>
</clipPath>
</defs>
</svg>
