<svg width="668" height="311" viewBox="0 0 668 311" fill="none" xmlns="http://www.w3.org/2000/svg">
<g clip-path="url(#clip0)" filter="url(#filter0_d)">
<g opacity="0.05">
<path opacity="0.05" d="M334.13 144.725C518.59 118.828 668.067 128.657 668 166.665C667.95 193.946 590.881 228.33 479.182 255.142C482.398 256.937 484.128 259.075 484.12 261.541C484.12 275.395 429.58 294.248 362.361 303.708C295.142 313.168 225.547 308.958 225.572 295.104C86.5828 305.394 -0.05875 291.841 2.98894e-05 260.425C0.0672069 222.418 149.662 170.615 334.13 144.725Z" fill="black"/>
</g>
<path d="M43.7323 112.211C44.459 111.952 45.2203 111.802 45.9911 111.767C46.4194 110.869 45.0255 111.498 43.7323 112.211Z" fill="#611B05" stroke="#201600" stroke-width="0.63" stroke-linecap="round" stroke-linejoin="round"/>
<path d="M88.0524 188.184C85.5332 191.539 69.6878 201.175 82.7202 205.276C94.7449 209.067 92.6624 240.038 96.2983 240.138C100.312 240.256 102.638 230.343 103.016 217.344C103.394 204.345 90.37 185.081 88.0524 188.184Z" fill="#FF7753" stroke="#201600" stroke-width="1.27" stroke-linecap="round" stroke-linejoin="round"/>
<path opacity="0.5" d="M88.2286 188.008C92.2929 189.903 102.109 205.98 101.79 217.311C101.454 229.412 99.4136 238.839 95.912 239.954C96.022 240.055 96.1656 240.112 96.3151 240.113C100.329 240.231 102.655 230.318 103.033 217.319C103.36 204.639 90.9661 185.97 88.2286 188.008Z" fill="#EAACAC" stroke="#201600" stroke-width="0.63" stroke-linecap="round" stroke-linejoin="round"/>
<path d="M88.0524 188.184C85.5332 191.539 69.6878 201.175 82.7202 205.276C94.7449 209.067 93.183 238.621 95.7106 239.551C96.8358 239.971 98.6747 238.528 98.574 237.874C95.2151 236.574 96.9617 207.926 85.1386 204.211C73.223 200.47 85.4325 192.117 89.5555 188.134C88.9173 187.748 88.3799 187.748 88.0524 188.184Z" fill="#BC533F"/>
<path d="M40.4238 186.851C42.7498 190.365 58.0578 200.848 44.7903 204.219C32.5725 207.322 32.9084 238.369 29.2725 238.26C25.2586 238.151 23.1174 228.112 23.8647 215.122C24.5785 202.5 38.2826 183.622 40.4238 186.851Z" fill="#FF7753" stroke="#201600" stroke-width="1.27" stroke-linecap="round" stroke-linejoin="round"/>
<path d="M40.4238 186.851C42.7498 190.365 58.0578 200.848 44.7903 204.219C32.5725 207.322 32.4717 236.926 29.8938 237.706C28.7518 238.059 26.9968 236.524 27.1395 235.861C30.4984 234.746 30.4228 206.039 42.3971 203.003C54.5058 199.925 42.7834 190.91 38.8871 186.691C39.5841 186.373 40.1215 186.398 40.4238 186.851Z" fill="#BC533F"/>
<path d="M78.6307 221.453C73.5001 226.049 57.8982 225.471 49.5431 220.615C48.6194 220.086 48.4598 215.994 48.4598 215.994L78.7903 215.692C78.7903 215.692 79.8735 220.355 78.6307 221.453Z" fill="#E26850" stroke="#201600" stroke-width="0.63" stroke-linecap="round" stroke-linejoin="round"/>
<path d="M78.7903 215.709L48.4598 216.011C48.4598 216.011 48.6194 220.103 49.5431 220.631C54.3546 223.416 61.5678 224.825 67.7984 224.573C62.9197 224.145 57.9906 222.846 54.363 220.774C53.4477 220.237 53.2798 216.145 53.2798 216.145L78.8071 215.893C78.7973 215.832 78.7917 215.77 78.7903 215.709Z" fill="#8E5151" stroke="#201600" stroke-width="0.63" stroke-linecap="round" stroke-linejoin="round"/>
<path d="M67.3953 80.9043C53.6744 80.5185 36.8214 111.44 35.7382 150.135C34.6549 188.83 34.9824 220.229 63.4487 221.026C94.3501 221.864 92.8386 190.457 93.8967 151.762C94.9547 113.066 81.1246 81.2901 67.3953 80.9043Z" fill="#FF7753" stroke="#201600" stroke-width="1.27" stroke-linecap="round" stroke-linejoin="round"/>
<path opacity="0.5" d="M91.0921 185.19C91.6385 185.123 92.1663 184.949 92.6456 184.679C90.7142 206.735 84.8782 221.579 63.4823 221.026C62.4831 221.026 61.5174 220.933 60.5853 220.833C78.7063 219.952 84.3408 206.509 86.3729 186.826C88.0771 186.779 89.7254 186.208 91.0921 185.19Z" fill="#EAACAC"/>
<path d="M67.5886 80.9211C54.9929 86.5484 41.5994 114.769 40.6338 149.12C39.6597 183.765 39.8444 212.539 60.325 218.728C60.2366 219.404 60.2621 220.09 60.4006 220.757C34.9909 217.814 34.7054 187.346 35.755 150.101C36.8383 111.406 53.6997 80.4934 67.4122 80.8708L67.5886 80.9211Z" fill="#BC533F" stroke="#201600" stroke-width="0.63" stroke-linecap="round" stroke-linejoin="round"/>
<path d="M70.0069 80.9882C57.4112 86.6156 44.0261 114.836 43.0605 149.187C42.1536 181.307 42.2208 208.379 58.5868 217.118C58.2262 217.851 57.9906 218.639 57.8898 219.449C57.8898 219.583 57.8898 219.709 57.8898 219.843C37.4008 213.62 37.2245 184.846 38.1985 150.235C39.2818 111.54 56.1348 80.6276 69.8557 81.005L70.0069 80.9882Z" fill="#E26850"/>
<path d="M57.8827 176.168L63.1747 176.326L63.2213 174.854L61.2104 173.593L63.2971 172.455L63.3437 170.983L58.0517 170.824L58.0078 172.21L61.047 172.301L58.9349 173.525L58.934 173.554L60.9499 174.894L57.9259 174.803L57.8827 176.168ZM58.9164 165.493C58.3658 165.994 58.0783 166.63 58.054 167.401C58.0296 168.172 58.2738 168.824 58.7867 169.357C59.3047 169.885 59.9493 170.161 60.7204 170.184C61.4865 170.207 62.1448 169.968 62.6954 169.467C63.2462 168.961 63.5337 168.323 63.5581 167.552C63.5825 166.781 63.3356 166.131 62.8176 165.603C62.3048 165.07 61.6628 164.792 60.8917 164.769C60.1256 164.746 59.4672 164.987 58.9164 165.493ZM59.3774 167.427C59.3894 167.048 59.5377 166.746 59.8223 166.52C60.1071 166.289 60.4485 166.179 60.8467 166.191C61.2398 166.203 61.5711 166.335 61.8406 166.587C62.1151 166.84 62.2465 167.153 62.2347 167.526C62.2228 167.9 62.0746 168.202 61.7898 168.433C61.5052 168.66 61.1638 168.767 60.7656 168.755C60.3725 168.743 60.0386 168.613 59.7639 168.365C59.4945 168.113 59.3656 167.8 59.3774 167.427ZM58.2686 163.964L63.5606 164.122L63.6042 162.743L60.6256 162.654L63.6657 160.797L63.7068 159.497L58.4148 159.339L58.3712 160.718L61.3499 160.807L58.3097 162.664L58.2686 163.964ZM63.9753 161.777C63.9644 162.122 64.0562 162.41 64.2507 162.641C64.4453 162.867 64.7257 163.012 65.092 163.076L65.2597 162.319C64.9606 162.204 64.8147 162.032 64.822 161.802C64.8294 161.568 64.986 161.402 65.2917 161.306L65.1722 160.54C64.8026 160.582 64.5134 160.712 64.3047 160.931C64.0961 161.146 63.9863 161.427 63.9753 161.777ZM50.8827 175.958L56.1747 176.116L56.3026 172.073L55.0552 172.036L54.9714 174.686L54.359 174.667L54.3897 173.698C54.4089 173.09 54.2782 172.597 53.9975 172.22C53.7219 171.842 53.3069 171.645 52.7525 171.629C52.2082 171.612 51.7768 171.774 51.4583 172.115C51.1448 172.455 50.9786 172.925 50.9597 173.523L50.8827 175.958ZM52.1591 174.601L52.1886 173.668C52.1952 173.457 52.2483 173.296 52.3477 173.184C52.447 173.072 52.5875 173.018 52.7689 173.024C52.9352 173.029 53.0644 173.093 53.1564 173.215C53.2485 173.333 53.2914 173.492 53.285 173.693L53.2553 174.634L52.1591 174.601ZM51.0417 170.929L56.3337 171.088L56.3773 169.709L53.3987 169.619L56.4389 167.762L56.48 166.462L51.188 166.304L51.1444 167.683L54.123 167.772L51.0828 169.629L51.0417 170.929ZM51.1791 163.474C51.1623 164.006 51.2215 164.446 51.3567 164.795C51.497 165.144 51.7084 165.481 51.9907 165.806L52.9889 165.11C52.5831 164.7 52.3889 164.222 52.4061 163.676C52.414 163.427 52.4679 163.24 52.5677 163.113C52.6677 162.982 52.7958 162.919 52.9521 162.924C53.2645 162.933 53.4123 163.206 53.3953 163.742L53.3788 164.266L54.4674 164.299L54.4835 163.789C54.4985 163.315 54.6673 163.083 54.9899 163.092C55.1259 163.096 55.235 163.157 55.317 163.275C55.3991 163.392 55.4371 163.547 55.431 163.738C55.4242 163.954 55.3666 164.182 55.258 164.423C55.1546 164.665 55.0247 164.862 54.8685 165.015L55.7086 165.731C56.3266 165.169 56.6487 164.477 56.6747 163.653C56.6923 163.098 56.5705 162.641 56.3094 162.284C56.0533 161.926 55.7187 161.741 55.3054 161.729C54.751 161.712 54.3424 161.952 54.0795 162.447C53.8864 161.852 53.4875 161.545 52.8827 161.527C52.4039 161.512 52.005 161.683 51.6861 162.037C51.3673 162.387 51.1983 162.866 51.1791 163.474ZM51.3613 160.822L56.6533 160.981L56.6973 159.588L54.7166 159.528L54.7732 157.74L56.7539 157.799L56.7979 156.406L51.5059 156.247L51.4619 157.641L53.4728 157.701L53.4163 159.489L51.4053 159.429L51.3613 160.822ZM51.534 155.359L56.826 155.517L56.9539 151.474L55.7065 151.436L55.6222 154.101L54.8209 154.077L54.8972 151.664L53.7405 151.629L53.6642 154.042L52.825 154.017L52.9104 151.317L51.663 151.279L51.534 155.359ZM51.6562 148.145C51.6332 148.873 51.8733 149.496 52.3765 150.014C52.8849 150.528 53.5348 150.796 54.3261 150.82C55.1022 150.843 55.7628 150.612 56.3079 150.125C56.8532 149.633 57.1378 149.009 57.1617 148.252C57.19 147.357 56.8393 146.642 56.1096 146.107L55.2457 147.102C55.6441 147.426 55.8366 147.8 55.8231 148.227C55.8121 148.576 55.6669 148.859 55.3876 149.076C55.1084 149.293 54.7696 149.396 54.3715 149.384C53.9683 149.372 53.6342 149.249 53.3691 149.016C53.1091 148.783 52.9846 148.491 52.9957 148.142C53.0034 147.898 53.0629 147.691 53.1742 147.522C53.2905 147.353 53.4572 147.188 53.6742 147.026L52.9211 145.954C52.5347 146.206 52.2302 146.504 52.0075 146.847C51.7898 147.19 51.6727 147.623 51.6562 148.145Z" fill="#D1A180"/>
<path d="M63.4991 220.447C58.0074 173.021 58.78 126.669 66.1862 81.4495" stroke="#201600" stroke-width="0.09" stroke-linecap="round" stroke-linejoin="round"/>
<path opacity="0.5" d="M67.6809 83.0932C74.6589 88.0413 81.0407 100.478 84.7103 116.933C87.1654 117.848 89.3959 119.278 91.2516 121.126C91.4104 121.299 91.559 121.481 91.6967 121.671C87.7165 99.9668 79.101 84.1919 70.0573 81.3405C69.8086 81.7844 69.468 82.1704 69.0582 82.4726C68.6485 82.7749 68.1789 82.9864 67.6809 83.0932Z" fill="#EAACAC"/>
<path opacity="0.8" d="M70.0993 81.332C70.3144 81.3345 70.5238 81.4013 70.7005 81.5239C70.8771 81.6465 71.0129 81.8192 71.0901 82.0197C71.156 82.2177 71.1803 82.4271 71.1615 82.6349C71.1428 82.8427 71.0813 83.0444 70.981 83.2274C70.7609 83.5971 70.4642 83.9155 70.1108 84.1614C69.7575 84.4073 69.3556 84.5749 68.9321 84.6531C68.0687 84.8181 67.185 84.8492 66.3122 84.7453C65.6301 84.7216 64.9546 84.603 64.3053 84.3931C63.6589 84.1931 63.1127 83.7555 62.777 83.1687C62.691 83.0329 62.6372 82.8794 62.6195 82.7198C62.6019 82.5602 62.6209 82.3986 62.6752 82.2474C62.7294 82.0963 62.8174 81.9594 62.9326 81.8473C63.0477 81.7352 63.1869 81.6507 63.3396 81.6004C63.6786 81.464 64.0345 81.3738 64.3976 81.332C65.547 81.1712 66.7052 81.0815 67.8656 81.0637C68.878 80.9672 69.8975 81.15 70.813 81.592" fill="#A05849"/>
<path d="M70.7458 70.656C70.7116 71.5116 70.3511 72.3217 69.7382 72.9204C70.3237 73.551 70.6377 74.3861 70.6126 75.2457C70.5875 76.1054 70.2252 76.9207 69.6038 77.5162C70.1694 78.1557 70.4696 78.9864 70.4435 79.8392C70.3605 80.7618 69.9283 81.618 69.2352 82.2334C68.542 82.8488 67.64 83.1772 66.7129 83.1515C65.7858 83.1258 64.9034 82.7481 64.2454 82.0953C63.5874 81.4425 63.2034 80.5637 63.1716 79.6379C63.2037 78.7794 63.5644 77.966 64.1793 77.3652C63.6138 76.7257 63.3135 75.895 63.3396 75.0422C63.3674 74.1778 63.7284 73.3576 64.3472 72.7526C63.7772 72.1158 63.4762 71.2832 63.5075 70.4296C63.5912 69.5067 64.0242 68.6505 64.7181 68.0355C65.4121 67.4205 66.3148 67.0929 67.2422 67.1197C68.1696 67.1464 69.0519 67.5254 69.7091 68.1794C70.3664 68.8334 70.7492 69.7131 70.7794 70.6392L70.7458 70.656Z" fill="#FF7753" stroke="#201600" stroke-width="0.63" stroke-linecap="round" stroke-linejoin="round"/>
<path d="M66.413 67.9472C65.1618 67.9472 64.1038 69.2303 64.0618 70.8993C64.032 71.6106 64.2163 72.3146 64.5908 72.9204C64.1881 73.5103 63.9637 74.2034 63.9443 74.9171C63.925 75.6309 64.1115 76.3351 64.4816 76.9459C64.0642 77.5261 63.8329 78.2192 63.8183 78.9335C63.7679 80.6108 64.7503 81.9778 66.0015 82.0197C66.2648 82.0229 66.5256 81.9685 66.7657 81.8604C66.2835 81.5603 65.894 81.1326 65.6406 80.6248C65.3871 80.117 65.2795 79.549 65.3297 78.9838C65.3425 78.2692 65.5675 77.5745 65.9763 76.9878C65.6206 76.373 65.4542 75.6671 65.4977 74.9583C65.5075 74.2458 65.7329 73.5529 66.1443 72.9707C65.768 72.3622 65.581 71.6559 65.6069 70.9412C65.5848 70.3763 65.7199 69.8163 65.9971 69.3233C66.2742 68.8304 66.6827 68.4238 67.1771 68.1485C66.9421 68.0216 66.6801 67.9526 66.413 67.9472Z" fill="#BC533F"/>
<path opacity="0.5" d="M69.1839 72.5263C69.5526 73.2243 69.7347 74.0056 69.7127 74.7945C69.6906 75.5835 69.4651 76.3534 69.058 77.0298C69.3894 77.6609 69.5715 78.3595 69.5905 79.0718C69.6094 79.7842 69.4646 80.4914 69.1671 81.1392C69.4527 81.2063 69.7549 81.2817 70.0572 81.374C70.3964 80.7682 70.5359 80.0711 70.456 79.3817C70.3761 78.6922 70.0809 78.0454 69.6122 77.533C70.2285 76.9343 70.5865 76.119 70.61 75.2606C70.6335 74.4023 70.3207 73.5687 69.7382 72.9372C70.3499 72.3351 70.7075 71.5218 70.7374 70.6645C70.7461 70.1509 70.6398 69.6419 70.4262 69.1747C70.2126 68.7075 69.8972 68.2938 69.503 67.964L69.1671 67.7711C69.6537 68.5179 69.8972 69.3967 69.8641 70.2871C69.8421 71.0808 69.6072 71.8541 69.1839 72.5263Z" fill="#EAACAC"/>
<path d="M63.7427 199.196C55.883 198.969 57.1677 209.218 56.7227 224.993C56.2776 240.768 58.738 253.649 62.206 253.75C65.674 253.85 68.8565 241.128 69.2932 225.387C69.7298 209.645 71.594 199.389 63.7427 199.196Z" fill="#FF7753" stroke="#201600" stroke-width="1.27" stroke-linecap="round" stroke-linejoin="round"/>
<path d="M64.9351 199.892C58.4357 200.781 59.5441 210.853 59.1243 225.89C58.738 239.417 61.3831 252.534 62.5587 253.716C59.1998 253.221 56.2524 241.531 56.6807 225.823C57.1257 209.888 55.841 199.506 63.7091 199.724C64.1212 199.751 64.5309 199.807 64.9351 199.892Z" fill="#BC533F"/>
<path opacity="0.5" d="M92.4105 119.457C83.8034 114.987 77.3964 135.92 77.0186 149.271C76.6407 162.622 81.9729 180.653 91.7219 180.93C101.471 181.207 113 164.484 111.27 151.233C109.541 137.983 100.614 123.717 92.4105 119.457Z" fill="#90DDF4" stroke="#201600" stroke-width="0.15" stroke-linecap="round" stroke-linejoin="round"/>
<path opacity="0.5" d="M93.0319 118.979C84.4248 114.509 77.3964 135.92 77.0186 149.271C76.6407 162.622 81.9729 180.653 91.7219 180.93C101.471 181.207 113 164.484 111.27 151.233C109.541 137.983 101.227 123.239 93.0319 118.979Z" fill="#90DDF4" stroke="#201600" stroke-width="1.27" stroke-linecap="round" stroke-linejoin="round"/>
<path d="M67.6557 51.0233L67.2023 67.1086" stroke="#201600" stroke-width="0.88" stroke-linecap="round" stroke-linejoin="round"/>
<path d="M68.8991 49.9167C68.9169 49.2824 68.3903 48.753 67.7227 48.7343C67.0551 48.7155 66.4995 49.2145 66.4817 49.8488C66.4638 50.4831 66.9905 51.0125 67.6581 51.0312C68.3256 51.05 68.8812 50.551 68.8991 49.9167Z" fill="#020202" stroke="#201600" stroke-width="0.59" stroke-linecap="round" stroke-linejoin="round"/>
<path opacity="0.6" d="M107.481 163.229C107.512 162.118 106.587 161.191 105.414 161.158C104.241 161.125 103.265 161.999 103.234 163.11C103.202 164.221 104.128 165.149 105.301 165.182C106.473 165.215 107.45 164.341 107.481 163.229Z" fill="#D2F7FF" stroke="#201600" stroke-width="0.32" stroke-linecap="round" stroke-linejoin="round"/>
<path opacity="0.6" d="M102.621 165.608L100.438 167.562C99.5984 168.325 91.5707 176.384 92.7463 176.418C93.9219 176.452 106.812 167.738 104.721 166.681C103.679 166.145 103.797 165.641 102.621 165.608Z" fill="#D2F7FF" stroke="#201600" stroke-width="0.32" stroke-linecap="round" stroke-linejoin="round"/>
<path d="M63.9442 193.635C50.8699 193.266 39.8613 190.231 36.1581 186.348C35.6175 186.825 35.1876 187.415 34.8986 188.075C34.7397 188.455 34.6578 188.863 34.6578 189.274C34.6578 189.686 34.7397 190.094 34.8986 190.474C36.6955 195.111 48.905 198.994 63.8183 199.389C80.0415 199.841 93.3258 196.034 93.4685 190.826C93.454 190.274 93.3283 189.73 93.0989 189.227C92.8695 188.724 92.5412 188.273 92.1334 187.899C88.1699 191.581 77.027 193.996 63.9442 193.635Z" fill="#FFBF3E" stroke="#201600" stroke-width="0.63" stroke-linecap="round" stroke-linejoin="round"/>
<path d="M63.9441 193.635C50.8698 193.266 39.8528 190.231 36.158 186.348C35.6174 186.825 35.1875 187.415 34.8985 188.075C34.7497 188.432 34.6672 188.813 34.6549 189.199C34.6439 189.447 34.6665 189.695 34.7221 189.937C34.7593 189.798 34.8041 189.66 34.8565 189.526C35.1414 188.863 35.5719 188.273 36.116 187.798C39.8192 191.673 50.8278 194.709 63.9021 195.078C76.9765 195.447 88.153 193.023 92.0577 189.367C92.6782 189.959 93.1178 190.715 93.3257 191.547C93.3994 191.32 93.4362 191.082 93.4348 190.843C93.4222 190.29 93.2974 189.746 93.0679 189.243C92.8384 188.739 92.509 188.288 92.0997 187.916C88.1698 191.581 77.0269 193.996 63.9441 193.635Z" fill="#CC9636" stroke="#201600" stroke-width="0.63" stroke-linecap="round" stroke-linejoin="round"/>
<path d="M90.689 115.473C82.9636 115.901 76.9849 127.458 75.2803 141.128C75.2732 141.149 75.2732 141.173 75.2803 141.195C75.1123 142.553 74.9696 143.929 74.8604 145.321C74.5248 149.699 74.4827 154.095 74.7344 158.479C75.2215 166.924 76.8589 174.774 79.6636 180.033C81.9056 184.276 84.9286 186.834 88.7073 186.649C89.8913 186.599 92.6035 186.155 93.586 183.412C93.6867 183.14 93.7626 182.859 93.8127 182.574C93.2203 182.292 92.6577 181.952 92.1333 181.559C90.6895 180.448 89.4506 179.094 88.4721 177.559C88.2958 177.29 88.1195 177.013 87.9515 176.72C78.7147 161.331 79.6971 125.806 93.1074 119.969C93.0531 119.658 92.9658 119.355 92.847 119.063C91.8814 116.597 91.7218 115.415 90.689 115.473Z" fill="#E26850" stroke="#201600" stroke-width="0.63" stroke-linecap="round" stroke-linejoin="round"/>
<path d="M66.5809 110.769C56.328 110.483 47.7041 108.068 44.8071 104.982C44.3793 105.362 44.0409 105.831 43.8162 106.357C43.7059 106.644 43.6435 106.947 43.6315 107.255C43.6223 107.602 43.6852 107.948 43.8162 108.269C45.227 111.951 54.7913 115.037 66.4465 115.364C79.1598 115.717 89.5722 112.664 89.6898 108.538C89.6595 107.656 89.2824 106.821 88.6401 106.215C85.5668 109.125 76.8254 111.054 66.5809 110.769Z" fill="#FFBF3E" stroke="#201600" stroke-width="0.63" stroke-linecap="round" stroke-linejoin="round"/>
<path d="M66.5809 110.769C56.328 110.483 47.7042 108.068 44.8071 104.982C44.3793 105.362 44.0409 105.831 43.8163 106.357C43.706 106.644 43.6436 106.947 43.6315 107.255C43.6236 107.452 43.6405 107.649 43.6819 107.842C43.6819 107.724 43.7407 107.624 43.7827 107.506C44.0073 106.98 44.3457 106.511 44.7736 106.131C47.6706 109.217 56.3028 111.632 66.5473 111.918C76.7918 112.203 85.5416 110.24 88.6066 107.364C89.0936 107.838 89.437 108.44 89.5974 109.1C89.6533 108.917 89.6843 108.728 89.6898 108.538C89.6595 107.656 89.2824 106.821 88.6401 106.215C85.5752 109.125 76.8254 111.054 66.5809 110.769Z" fill="#CC9636" stroke="#201600" stroke-width="0.63" stroke-linecap="round" stroke-linejoin="round"/>
<path d="M62.7769 253.641C59.276 235.864 58.8953 217.614 61.6517 199.707" stroke="#201600" stroke-width="0.09" stroke-linecap="round" stroke-linejoin="round"/>
<path d="M90.689 116.706C82.9637 117.109 78.2109 128.112 76.5231 141.153C76.5231 141.153 76.5231 141.195 76.5231 141.22C76.3551 142.511 76.2208 143.82 76.1116 145.145C75.7761 149.33 75.7396 153.534 76.0025 157.725C76.5063 165.767 78.1521 173.256 80.9568 178.271C83.2072 182.33 86.2302 184.771 90.0089 184.595C91.2013 184.553 93.9052 184.134 94.8876 181.517C94.9831 181.263 95.0589 181.002 95.1143 180.737C94.5259 180.468 93.9637 180.145 93.4349 179.773C92.0024 178.722 90.7636 177.431 89.7738 175.957L89.2447 175.118C80.0079 160.433 82.1744 125.554 95.5762 120.011C95.5182 119.722 95.4281 119.441 95.3075 119.172C94.2746 116.589 91.6883 116.656 90.689 116.706Z" fill="#FFBF3E" stroke="#201600" stroke-width="0.63" stroke-linecap="round" stroke-linejoin="round"/>
<path d="M76.078 145.145C76.1451 144.105 76.2459 143.082 76.3719 142.067C76.1656 143.456 76.0366 144.856 75.9856 146.26C76.0108 145.891 76.0444 145.514 76.078 145.145Z" fill="#CC9636" stroke="#201600" stroke-width="0.63" stroke-linecap="round" stroke-linejoin="round"/>
<path d="M90.689 116.706C82.9637 117.109 78.6055 128.531 76.9177 141.564C79.2605 127.307 88.4638 113.268 95.2739 119.147C94.2746 116.589 91.6883 116.656 90.689 116.706Z" fill="#CC9636"/>
<path d="M250.847 174.338L291.263 173.994L290.994 142.964C290.994 142.964 271.42 153.338 270.841 153.204C270.262 153.07 250.554 143.308 250.554 143.308L250.847 174.338Z" fill="#CC9636" stroke="black" stroke-width="2" stroke-miterlimit="10"/>
<path d="M286.955 194.457C288.399 197.317 292.833 197.191 295.209 194.39C295.47 194.08 295.529 191.606 295.529 191.606L286.93 191.002C286.93 191.002 286.602 193.77 286.955 194.457Z" fill="#29ABE2" stroke="#201600" stroke-width="0.63" stroke-linecap="round" stroke-linejoin="round"/>
<path d="M286.93 191.002L295.529 191.631C295.529 191.631 295.47 194.105 295.209 194.415C294.582 195.163 293.781 195.747 292.877 196.116C291.973 196.486 290.992 196.631 290.02 196.537C291.506 196.321 292.862 195.569 293.832 194.424C294.093 194.122 294.151 191.639 294.151 191.639L286.913 191.119C286.921 191.002 286.93 191.002 286.93 191.002Z" fill="#0071BC" stroke="#201600" stroke-width="0.63" stroke-linecap="round" stroke-linejoin="round"/>
<path d="M299.064 165.566C299.24 186.197 296.133 194.08 291.263 194.147C286.392 194.214 283.017 186.339 282.866 165.708C282.715 145.078 285.796 121.386 290.667 121.344C295.537 121.302 298.887 144.935 299.064 165.566Z" fill="#29ABE2" stroke="#201600" stroke-width="2" stroke-linecap="round" stroke-linejoin="round"/>
<path opacity="0.5" d="M292.086 193.77C291.831 193.82 291.573 193.845 291.313 193.845C286.443 193.887 283.067 186.029 282.916 165.398C282.765 144.767 285.847 121.084 290.717 121.042C290.987 121.044 291.253 121.113 291.49 121.243C287.073 123.617 284.302 145.874 284.47 165.39C284.637 184.905 287.635 192.99 292.086 193.77Z" fill="#EAACAC"/>
<path d="M290.28 193.963C290.538 194.01 290.799 194.033 291.061 194.03C295.932 193.988 299.173 186.079 298.997 165.448C298.82 144.818 295.31 121.185 290.44 121.227C290.169 121.231 289.903 121.303 289.667 121.436C294.126 123.743 297.275 145.942 297.443 165.457C297.611 184.972 294.739 193.107 290.28 193.963Z" fill="#0071BC"/>
<path d="M226.051 174.556L185.644 174.892L185.375 143.862C185.375 143.862 205.125 153.925 205.671 153.758C206.217 153.59 225.824 143.518 225.824 143.518L226.051 174.556Z" fill="#CC9636" stroke="black" stroke-width="2" stroke-miterlimit="10"/>
<path opacity="0.5" d="M196.913 166.933C196.913 169.734 196.913 172.275 196.795 174.573L189.355 174.64L189.112 146.269L196.006 149.749C196.552 155.276 196.871 161.23 196.913 166.933Z" fill="#CC8147"/>
<path opacity="0.5" d="M196.913 166.933C196.913 169.734 196.913 172.275 196.795 174.573L189.355 174.64L189.112 146.269L196.006 149.749C196.552 155.276 196.871 161.23 196.913 166.933Z" fill="#CC8147"/>
<path opacity="0.5" d="M271.001 167.26C271.001 169.776 271.001 172.091 270.891 174.17L264.174 174.229L263.955 148.558C263.955 148.558 266.827 150.017 270.194 151.703C270.665 156.71 270.95 162.094 271.001 167.26Z" fill="#CC8147"/>
<path d="M223.212 194.449C228.771 201.024 245.96 200.68 255.248 194.181C256.272 193.459 256.524 187.748 256.524 187.748L223.145 186.423C223.145 186.423 221.861 192.856 223.212 194.449Z" fill="#29ABE2" stroke="#201600" stroke-width="2" stroke-linecap="round" stroke-linejoin="round"/>
<path d="M223.145 186.423L256.524 187.748C256.524 187.748 256.272 193.459 255.248 194.181C249.899 197.913 241.93 199.623 235.094 199.129C240.469 198.684 245.918 197.015 249.924 194.223C250.948 193.51 251.209 187.79 251.209 187.79L223.103 186.683C223.129 186.524 223.145 186.423 223.145 186.423Z" fill="#0071BC" stroke="#201600" stroke-width="2" stroke-linecap="round" stroke-linejoin="round"/>
<path d="M181.815 195.355C183.251 198.214 187.693 198.089 190.069 195.288C190.329 194.977 190.388 192.495 190.388 192.495L181.781 191.841C181.781 191.841 181.462 194.659 181.815 195.355Z" fill="#29ABE2" stroke="#201600" stroke-width="0.63" stroke-linecap="round" stroke-linejoin="round"/>
<path d="M181.781 191.841L190.388 192.461C190.388 192.461 190.329 194.977 190.069 195.254C189.442 196.002 188.641 196.585 187.737 196.954C186.832 197.322 185.852 197.464 184.88 197.367C186.365 197.154 187.721 196.405 188.692 195.262C188.952 194.952 189.011 192.478 189.011 192.478L181.764 191.95C181.774 191.914 181.78 191.878 181.781 191.841Z" fill="#0071BC" stroke="#201600" stroke-width="0.63" stroke-linecap="round" stroke-linejoin="round"/>
<path d="M271.462 136.205C271.815 177.466 259.219 193.334 239.746 193.501C220.273 193.669 206.897 178.02 206.569 136.758C206.242 95.4968 219.031 48.0629 238.478 47.9035C257.926 47.7442 271.11 94.9433 271.462 136.205Z" fill="#29ABE2" stroke="#201600" stroke-width="2" stroke-linecap="round" stroke-linejoin="round"/>
<path opacity="0.5" d="M243.055 192.73C242.047 192.83 241.014 192.889 239.956 192.897C220.483 193.065 207.115 177.408 206.763 136.146C206.41 94.8846 219.241 47.459 238.672 47.2913C239.719 47.286 240.763 47.4128 241.779 47.6687C224.052 52.5077 212.582 97.0567 212.918 136.096C213.254 175.135 225.278 191.245 243.055 192.73Z" fill="#EAACAC"/>
<path d="M238.47 50.344L238.991 110.827L239.688 193.619" fill="#CC9636"/>
<path d="M238.47 50.344L238.991 110.827L239.688 193.619" stroke="black" stroke-width="0.5" stroke-miterlimit="10"/>
<path d="M235.842 193.157C236.858 193.241 237.891 193.275 238.94 193.266C258.422 193.099 271.521 177.223 271.168 135.962C270.816 94.7001 257.179 47.501 237.698 47.6603C236.653 47.6706 235.614 47.8172 234.607 48.0964C252.409 52.6335 264.636 96.9812 264.971 136.012C265.307 175.043 253.593 191.371 235.842 193.157Z" fill="#0071BC"/>
<path d="M193.923 166.463C194.1 187.094 190.984 194.977 186.114 195.044C181.244 195.112 177.868 187.228 177.717 166.597C177.566 145.967 180.647 122.283 185.518 122.241C190.388 122.199 193.747 145.833 193.923 166.463Z" fill="#29ABE2" stroke="#201600" stroke-width="2" stroke-linecap="round" stroke-linejoin="round"/>
<path opacity="0.5" d="M186.945 194.667C186.687 194.709 186.426 194.734 186.164 194.742C181.302 194.742 177.918 186.926 177.767 166.296C177.616 145.665 180.698 121.981 185.56 121.939C185.832 121.942 186.099 122.008 186.341 122.132C181.915 124.514 179.144 146.763 179.312 166.279C179.48 185.794 182.495 193.887 186.945 194.667Z" fill="#EAACAC"/>
<path d="M185.14 194.86C185.395 194.903 185.654 194.926 185.912 194.927C190.783 194.885 194.024 186.968 193.848 166.337C193.671 145.707 190.161 122.082 185.291 122.124C185.02 122.131 184.755 122.202 184.519 122.334C188.986 124.64 192.135 146.839 192.303 166.354C192.471 185.87 189.574 194.004 185.14 194.86Z" fill="#0071BC"/>
<path opacity="0.5" d="M235.724 52.7089C237.436 53.2282 239.236 53.3937 241.014 53.1954C241.903 53.0836 242.741 52.7236 243.433 52.1568C244.126 51.5901 244.643 50.8396 244.927 49.9917C244.021 48.9183 242.501 48.6499 241.098 48.5241C238.579 48.2977 235.775 48.2306 233.398 49.1195C230.081 50.3607 234.154 52.3315 235.724 52.7089Z" fill="#A05849"/>
<path d="M233.146 32.4304C233.169 33.6499 233.659 34.8143 234.515 35.6844C233.664 36.5629 233.193 37.7406 233.204 38.963C233.215 40.1854 233.707 41.3544 234.574 42.2175C233.729 43.0967 233.259 44.2695 233.264 45.4882C233.327 46.8215 233.905 48.0785 234.876 48.9957C235.847 49.9129 237.136 50.4192 238.473 50.4083C239.809 50.3975 241.09 49.8704 242.046 48.9376C243.002 48.0047 243.559 46.7385 243.601 45.4043C243.578 44.1848 243.088 43.0205 242.232 42.1504C243.083 41.2719 243.554 40.0942 243.543 38.8718C243.532 37.6494 243.04 36.4804 242.173 35.6173C243.018 34.7381 243.488 33.5653 243.483 32.3466C243.42 31.0133 242.842 29.7563 241.871 28.839C240.9 27.9218 239.611 27.4156 238.274 27.4264C236.938 27.4373 235.657 27.9644 234.702 28.8972C233.746 29.8301 233.188 31.0963 233.146 32.4304Z" fill="#29ABE2" stroke="#201600" stroke-width="2" stroke-linecap="round" stroke-linejoin="round"/>
<path d="M239.369 28.7068C241.157 28.7068 242.618 30.5938 242.635 32.9588C242.666 33.9814 242.388 34.9897 241.837 35.8521C242.393 36.6989 242.685 37.6911 242.677 38.7035C242.693 39.7196 242.4 40.7166 241.837 41.5633C242.393 42.4101 242.685 43.4023 242.677 44.4147C242.677 46.7881 241.266 48.717 239.478 48.7338C239.127 48.7075 238.785 48.6045 238.478 48.4319C239.174 48.0211 239.741 47.424 240.115 46.7082C240.489 45.9923 240.655 45.1863 240.595 44.3812C240.607 43.3708 240.314 42.3801 239.755 41.5382C240.319 40.6891 240.612 39.6889 240.595 38.67C240.603 37.6575 240.311 36.6651 239.755 35.8186C240.311 34.9688 240.603 33.9739 240.595 32.9588C240.64 32.1517 240.46 31.3479 240.072 30.6381C239.685 29.9282 239.107 29.3406 238.403 28.9417C238.705 28.7965 239.034 28.7165 239.369 28.7068Z" fill="#0071BC"/>
<path opacity="0.5" d="M235.313 35.1309C234.748 36.1033 234.458 37.2104 234.473 38.3345C234.454 39.459 234.745 40.5671 235.313 41.5382C234.748 42.5107 234.458 43.6178 234.473 44.7418C234.469 45.6372 234.655 46.5233 235.019 47.3416C234.607 47.4339 234.179 47.5345 233.751 47.6603C233.388 46.993 233.195 46.2473 233.188 45.4882C233.186 44.2691 233.652 43.0955 234.49 42.2091C233.633 41.3407 233.149 40.1739 233.138 38.9551C233.126 37.7368 233.594 36.5625 234.439 35.6844C233.579 34.8179 233.091 33.6506 233.079 32.4304C233.083 31.6988 233.249 30.9771 233.565 30.3172C233.882 29.6574 234.341 29.0759 234.91 28.6146H234.952L235.43 28.3546C234.705 29.4121 234.332 30.671 234.364 31.9524C234.389 33.0777 234.717 34.1754 235.313 35.1309Z" fill="#EAACAC"/>
<path d="M238.084 4.62927L238.277 27.4908" stroke="#201600" stroke-width="0.88" stroke-linecap="round" stroke-linejoin="round"/>
<path d="M238.15 4.61629C239.486 4.60488 240.56 3.56687 240.549 2.29782C240.538 1.02877 239.446 0.00925719 238.111 0.020665C236.775 0.0320729 235.701 1.07009 235.712 2.33913C235.723 3.60818 236.815 4.6277 238.15 4.61629Z" fill="#020202" stroke="#201600" stroke-width="0.59" stroke-linecap="round" stroke-linejoin="round"/>
<path d="M238.47 138.402C251.72 138.402 262.461 127.675 262.461 114.442C262.461 101.209 251.72 90.4817 238.47 90.4817C225.22 90.4817 214.479 101.209 214.479 114.442C214.479 127.675 225.22 138.402 238.47 138.402Z" fill="#CC9636" stroke="black" stroke-miterlimit="10"/>
<path d="M238.672 134.997C249.89 134.997 258.984 125.914 258.984 114.71C258.984 103.506 249.89 94.4233 238.672 94.4233C227.453 94.4233 218.359 103.506 218.359 114.71C218.359 125.914 227.453 134.997 238.672 134.997Z" fill="#00FFFF" stroke="black" stroke-miterlimit="10"/>
<path opacity="0.5" d="M250.713 95.6142C251.754 96.1379 252.736 96.7704 253.644 97.5012C254.509 98.298 255.291 99.1803 255.978 100.135C256.956 101.315 257.822 102.584 258.564 103.925C259.022 104.865 259.409 105.838 259.723 106.835C260.756 109.947 261.545 113.234 261.117 116.48C260.783 118.47 260.219 120.414 259.438 122.275C258.905 123.846 258.228 125.365 257.414 126.812C256.661 128.01 255.795 129.133 254.828 130.167C252.359 132.909 249.529 135.475 246.061 136.767C243.7 137.531 241.25 137.988 238.772 138.125C242.867 138.543 246.985 137.59 250.478 135.416C251.869 134.502 253.191 133.488 254.433 132.381C255.49 131.53 256.46 130.578 257.33 129.538C258.547 127.852 259.501 125.991 260.16 124.019C260.755 122.525 261.26 120.995 261.671 119.44C262.875 114.565 262.383 109.427 260.276 104.868C258.168 100.31 254.571 96.6026 250.075 94.3563C247.632 93.2121 245.077 92.324 242.45 91.7061C241.407 91.3921 240.336 91.1814 239.251 91.0771C238.034 90.9892 236.811 91.1489 235.657 91.5468C236.665 91.9493 238.26 91.5468 239.385 91.5971C240.718 91.7189 242.035 91.9774 243.315 92.3687C245.884 93.1998 248.362 94.2871 250.713 95.6142Z" fill="#CC8147"/>
<path opacity="0.7" d="M223.095 120.757C222.804 120.119 222.65 119.428 222.642 118.727C222.644 118.377 222.731 118.033 222.894 117.724C223.058 117.414 223.294 117.149 223.582 116.949C223.941 116.745 224.361 116.674 224.768 116.751C225.174 116.828 225.54 117.047 225.799 117.369C226.054 117.771 226.231 118.218 226.319 118.685C226.877 120.777 227.78 122.761 228.99 124.556C230.014 126.091 231.744 127.265 232.668 128.749C231.316 128.816 229.208 127.349 228.083 126.627C225.868 125.215 224.13 123.169 223.095 120.757Z" fill="#BDCCD4"/>
<path opacity="0.7" d="M222.826 110.626C222.628 110.193 222.568 109.71 222.653 109.243C222.739 108.775 222.966 108.344 223.305 108.009C223.957 107.471 224.776 107.174 225.622 107.171C225.787 107.149 225.953 107.166 226.109 107.221C226.303 107.325 226.457 107.49 226.546 107.691C226.873 108.267 227.111 108.889 227.252 109.536C227.285 109.699 227.285 109.867 227.252 110.031C227.206 110.189 227.135 110.339 227.042 110.475C226.068 112.068 223.851 112.714 222.826 110.626Z" fill="#BDCCD4"/>
<path opacity="0.6" d="M257.498 114.912C257.59 125.512 249.831 134.2 240.166 134.268C239.56 134.271 238.955 134.24 238.353 134.175C247.161 133.11 253.963 124.875 253.879 114.945C253.795 105.015 246.85 96.889 238.033 95.9748C238.632 95.8973 239.235 95.8581 239.839 95.8574C249.504 95.7736 257.406 104.303 257.498 114.912Z" fill="#3FA9F5"/>
<path d="M268.473 83.5713C268.473 84.8208 264.174 85.9698 257.422 86.7413C251.261 87.4045 245.07 87.7488 238.873 87.7729C222.507 87.9155 209.223 86.2549 209.206 84.0744C209.206 83.3532 210.634 82.6739 213.153 82.0701C218.292 83.2022 227.873 83.9151 238.84 83.8228C249.806 83.7306 259.379 82.8165 264.51 81.634L264.778 81.6927C267.121 82.2378 268.473 82.8752 268.473 83.5713Z" fill="#C48B4A" stroke="black" stroke-miterlimit="10"/>
<path d="M267.751 82.5313C267.751 83.7558 263.51 84.8879 256.835 85.6511C250.768 86.3035 244.672 86.6422 238.571 86.6659C222.465 86.8084 209.391 85.1731 209.374 83.0261C209.374 82.3217 210.776 81.6507 213.262 81.0469C218.3 82.1707 227.747 82.8668 238.537 82.7745C249.328 82.6823 258.766 81.8269 263.796 80.6192L264.056 80.6779C266.416 81.223 267.742 81.852 267.751 82.5313Z" fill="#CC9636" stroke="black" stroke-miterlimit="10"/>
<path d="M275.493 158.37C275.493 162.144 259.379 165.339 239.427 165.516C219.476 165.692 203.32 162.756 203.253 158.982C203.253 157.741 204.991 156.567 208.056 155.536C214.32 157.523 226.009 158.79 239.377 158.681C252.745 158.572 264.409 157.096 270.631 154.999C273.746 155.98 275.485 157.129 275.493 158.37Z" fill="#C38A4A" stroke="black" stroke-miterlimit="10"/>
<path d="M275.837 156.316C275.837 160.14 259.53 163.377 239.343 163.545C219.157 163.712 202.765 160.76 202.732 156.945C202.732 155.687 204.495 154.496 207.602 153.447C213.934 155.46 225.757 156.743 239.285 156.634C252.812 156.525 264.619 155.032 270.917 152.911C274.032 153.9 275.821 155.066 275.837 156.316Z" fill="#CC9636" stroke="black" stroke-miterlimit="10"/>
<path opacity="0.5" d="M267.121 82.4307C267.121 83.6215 262.99 84.7286 256.516 85.475C252.323 85.6595 248.124 85.8188 243.92 85.953C249.504 84.4015 255.634 85.6091 261.1 83.6802C261.756 83.4902 262.352 83.135 262.83 82.6487C263.485 81.8855 263.091 81.2649 263.544 80.6276C265.82 81.1391 267.113 81.7597 267.121 82.4307Z" fill="#CC8147"/>
<path opacity="0.5" d="M275.258 156.139C275.258 158.094 270.06 159.88 261.89 161.079C256.6 161.364 251.307 161.61 246.011 161.817C253.056 159.301 260.79 161.306 267.675 158.161C268.552 157.824 269.313 157.242 269.867 156.483C270.707 155.242 270.194 154.227 270.757 153.179C273.612 154.051 275.25 155.058 275.258 156.139Z" fill="#CC8147"/>
<path d="M211.515 83.1603C211.443 83.2236 211.388 83.3045 211.356 83.3951C211.343 83.4643 211.352 83.5355 211.38 83.5998C211.409 83.6641 211.456 83.7184 211.515 83.7557C211.634 83.8299 211.77 83.8732 211.91 83.8815C211.965 83.8983 212.023 83.8983 212.078 83.8815C212.127 83.8558 212.165 83.8144 212.187 83.7641C212.759 82.9777 213.564 82.3909 214.488 82.0868C213.892 81.4662 211.969 82.7158 211.515 83.1603Z" fill="#CEB04B"/>
<path d="M208.61 154.353C207.136 154.643 205.791 155.389 204.764 156.483C206.006 157.147 207.367 157.558 208.769 157.691L209.475 155.913C209.561 155.748 209.598 155.562 209.584 155.376C209.508 154.873 208.828 154.772 208.324 154.798" fill="#CEB04B"/>
<path d="M287.358 178.011V251.771" stroke="black" stroke-width="3" stroke-miterlimit="10" stroke-linecap="round"/>
<path d="M323.835 153.238L323.76 193.862L252.804 203.817L252.88 163.193L323.835 153.238Z" fill="#DB9A33" stroke="black" stroke-width="0.5" stroke-miterlimit="10"/>
<path d="M252.804 203.817L250.889 202.777L250.965 162.153L252.88 163.193L252.804 203.817Z" fill="#805A1E" stroke="black" stroke-width="0.5" stroke-miterlimit="10"/>
<path d="M252.88 163.193L250.965 162.153L321.921 152.189L323.835 153.238L252.88 163.193Z" fill="#B17C2A" stroke="black" stroke-width="0.5" stroke-miterlimit="10"/>
<path d="M393.406 195.33C398.964 201.905 416.145 201.561 425.441 195.061C426.465 194.34 426.717 188.629 426.717 188.629L393.33 187.304C393.33 187.304 392.054 193.736 393.406 195.33Z" fill="#A67C52" stroke="#201600" stroke-width="2" stroke-linecap="round" stroke-linejoin="round"/>
<path d="M393.33 187.304L426.717 188.629C426.717 188.629 426.457 194.34 425.441 195.061C420.092 198.793 412.123 200.496 405.287 200.009C410.662 199.565 416.111 197.896 420.117 195.103C421.141 194.39 421.393 188.671 421.393 188.671L393.296 187.564C393.314 187.478 393.326 187.391 393.33 187.304Z" fill="#754C24" stroke="#201600" stroke-width="2" stroke-linecap="round" stroke-linejoin="round"/>
<path d="M441.689 137.085C442.042 178.347 429.454 194.214 409.981 194.382C390.508 194.55 377.132 178.892 376.779 137.631C376.427 96.369 389.215 48.9434 408.697 48.7841C428.178 48.6248 441.303 95.8239 441.689 137.085Z" fill="#C69C6D" stroke="#201600" stroke-width="2" stroke-linecap="round" stroke-linejoin="round"/>
<path opacity="0.5" d="M413.248 193.61C412.232 193.711 411.199 193.77 410.149 193.778C390.676 193.946 377.308 178.288 376.956 137.027C376.603 95.7651 389.434 48.3396 408.94 48.1719C409.988 48.1666 411.032 48.2934 412.047 48.5492C394.321 53.3882 382.85 97.9372 383.186 136.976C383.522 176.015 395.505 192.126 413.248 193.61Z" fill="#EAACAC"/>
<path d="M408.663 51.2245L409.175 111.708L409.881 194.499" fill="#CC9636"/>
<path d="M408.663 51.2245L409.175 111.708L409.881 194.499" stroke="black" stroke-width="0.5" stroke-miterlimit="10"/>
<path d="M406.035 194.038C407.051 194.122 408.084 194.155 409.133 194.147C428.606 193.979 441.714 178.104 441.361 136.842C441.009 95.5807 427.414 48.3732 407.891 48.5409C406.846 48.5512 405.807 48.6978 404.8 48.977C422.602 53.5141 434.828 97.8618 435.164 136.893C435.5 175.923 423.786 192.252 406.035 194.038Z" fill="#8C6239"/>
<path opacity="0.5" d="M405.909 53.5895C407.624 54.1087 409.426 54.2742 411.207 54.076C412.096 53.9642 412.934 53.6042 413.626 53.0374C414.319 52.4707 414.837 51.7202 415.12 50.8723C414.214 49.7988 412.685 49.5305 411.291 49.3963C408.772 49.1783 405.968 49.1112 403.583 50.0001C400.3 51.2413 404.347 53.2121 405.909 53.5895Z" fill="#A05849"/>
<path d="M408.268 20.5217L408.47 43.3832" stroke="#201600" stroke-width="0.88" stroke-linecap="round" stroke-linejoin="round"/>
<path d="M408.347 20.5053C409.683 20.4939 410.757 19.4559 410.746 18.1869C410.735 16.9178 409.643 15.8983 408.308 15.9097C406.972 15.9211 405.898 16.9591 405.909 18.2282C405.92 19.4972 407.011 20.5167 408.347 20.5053Z" fill="#020202" stroke="#201600" stroke-width="0.59" stroke-linecap="round" stroke-linejoin="round"/>
<path d="M409.259 117.394C416.429 117.394 422.241 111.589 422.241 104.428C422.241 97.2677 416.429 91.4629 409.259 91.4629C402.09 91.4629 396.277 97.2677 396.277 104.428C396.277 111.589 402.09 117.394 409.259 117.394Z" fill="#CC9636" stroke="black" stroke-miterlimit="10"/>
<path d="M409.368 115.549C415.439 115.549 420.36 110.634 420.36 104.571C420.36 98.5081 415.439 93.5931 409.368 93.5931C403.298 93.5931 398.377 98.5081 398.377 104.571C398.377 110.634 403.298 115.549 409.368 115.549Z" fill="#00FFFF" stroke="black" stroke-miterlimit="10"/>
<path opacity="0.5" d="M415.885 94.2388C416.448 94.5232 416.98 94.8662 417.472 95.262C417.94 95.692 418.364 96.1667 418.74 96.6793C419.266 97.3204 419.733 98.0081 420.134 98.734C420.385 99.242 420.596 99.7692 420.763 100.311C421.4 101.975 421.658 103.759 421.519 105.535C421.335 106.612 421.028 107.665 420.604 108.672C420.31 109.522 419.942 110.344 419.504 111.129C419.097 111.776 418.631 112.382 418.11 112.941C416.837 114.495 415.21 115.723 413.365 116.522C412.087 116.933 410.76 117.178 409.419 117.251C411.637 117.476 413.866 116.96 415.759 115.784C416.515 115.28 417.23 114.72 417.9 114.106C419.395 112.97 420.482 111.382 420.998 109.578C421.329 108.771 421.609 107.945 421.838 107.104C422.491 104.465 422.225 101.682 421.083 99.2141C419.941 96.7463 417.993 94.7402 415.557 93.526C414.236 92.9061 412.854 92.4228 411.434 92.0835C410.869 91.9178 410.29 91.8055 409.704 91.748C409.045 91.701 408.382 91.7865 407.756 91.9996C408.425 92.0839 409.102 92.0839 409.772 91.9996C410.495 92.0709 411.209 92.2142 411.904 92.4273C413.291 92.8902 414.625 93.4974 415.885 94.2388Z" fill="#CC8147"/>
<path opacity="0.7" d="M400.938 107.85C400.772 107.508 400.685 107.132 400.686 106.752C400.688 106.562 400.736 106.375 400.825 106.207C400.914 106.039 401.042 105.895 401.198 105.787C401.392 105.674 401.62 105.635 401.841 105.676C402.061 105.718 402.259 105.838 402.399 106.013C402.535 106.232 402.629 106.473 402.676 106.726C402.981 107.86 403.469 108.936 404.12 109.913C404.683 110.752 405.615 111.372 406.119 112.194C405.38 112.236 404.238 111.44 403.6 111.045C402.411 110.272 401.483 109.158 400.938 107.85Z" fill="#BDCCD4"/>
<path opacity="0.7" d="M400.787 102.365C400.679 102.131 400.647 101.869 400.693 101.616C400.74 101.362 400.863 101.129 401.047 100.948C401.402 100.658 401.848 100.501 402.306 100.504C402.392 100.483 402.481 100.483 402.567 100.504C402.671 100.559 402.754 100.647 402.802 100.755C402.976 101.069 403.106 101.404 403.188 101.753C403.205 101.842 403.205 101.933 403.188 102.021C403.162 102.108 403.123 102.19 403.071 102.265C402.542 103.145 401.383 103.489 400.787 102.365Z" fill="#BDCCD4"/>
<path opacity="0.6" d="M419.554 104.68C419.605 110.425 415.406 115.113 410.175 115.155C409.846 115.162 409.518 115.148 409.192 115.113C413.962 114.534 417.648 110.081 417.589 104.697C417.53 99.3127 413.785 94.9266 409.007 94.4318C409.333 94.3924 409.661 94.37 409.99 94.3647C415.23 94.3227 419.512 98.9437 419.554 104.68Z" fill="#3FA9F5"/>
<path d="M409.259 150.755C416.429 150.755 422.241 144.951 422.241 137.79C422.241 130.629 416.429 124.824 409.259 124.824C402.09 124.824 396.277 130.629 396.277 137.79C396.277 144.951 402.09 150.755 409.259 150.755Z" fill="#CC9636" stroke="black" stroke-miterlimit="10"/>
<path d="M409.368 148.91C415.439 148.91 420.36 143.995 420.36 137.932C420.36 131.87 415.439 126.955 409.368 126.955C403.298 126.955 398.377 131.87 398.377 137.932C398.377 143.995 403.298 148.91 409.368 148.91Z" fill="#00FFFF" stroke="black" stroke-miterlimit="10"/>
<path opacity="0.5" d="M415.885 127.6C416.45 127.879 416.982 128.219 417.472 128.615C417.938 129.05 418.362 129.527 418.74 130.041C419.266 130.682 419.733 131.37 420.134 132.095C420.385 132.603 420.596 133.131 420.763 133.672C421.399 135.333 421.658 137.115 421.519 138.888C421.335 139.966 421.028 141.018 420.604 142.025C420.313 142.876 419.945 143.698 419.504 144.482C419.1 145.133 418.633 145.742 418.11 146.302C416.836 147.854 415.21 149.079 413.365 149.875C412.087 150.289 410.761 150.537 409.419 150.613C411.637 150.837 413.866 150.321 415.759 149.145C416.515 148.642 417.23 148.081 417.9 147.468C419.395 146.332 420.482 144.743 420.998 142.939C421.33 142.119 421.61 141.278 421.838 140.423C422.489 137.784 422.222 135.002 421.081 132.535C419.939 130.067 417.991 128.061 415.557 126.846C414.234 126.232 412.853 125.752 411.434 125.411C410.87 125.243 410.29 125.128 409.704 125.068C409.044 125.023 408.382 125.112 407.756 125.328C408.425 125.412 409.102 125.412 409.772 125.328C410.495 125.392 411.21 125.532 411.904 125.747C413.291 126.227 414.625 126.848 415.885 127.6Z" fill="#CC8147"/>
<path d="M387.36 183.538L353.519 180.184L347.7 163.503L381.288 140.985C380.835 146.118 382.179 155.242 382.8 163.503C383.321 170.195 386.956 178.993 387.36 183.538Z" fill="#754C24" stroke="black" stroke-miterlimit="10"/>
<path d="M432.032 183.538L464.093 180.184L469.609 163.511L437.776 140.993C438.213 146.126 436.936 155.25 436.34 163.511C435.861 170.195 432.452 178.993 432.032 183.538Z" fill="#754C24" stroke="black" stroke-miterlimit="10"/>
<path opacity="0.7" d="M400.938 141.203C400.772 140.861 400.685 140.485 400.686 140.105C400.689 139.915 400.737 139.728 400.826 139.561C400.915 139.393 401.042 139.249 401.198 139.14C401.393 139.032 401.62 138.996 401.839 139.037C402.059 139.078 402.256 139.195 402.399 139.367C402.533 139.586 402.626 139.827 402.676 140.079C402.981 141.213 403.469 142.289 404.12 143.266C404.683 144.105 405.615 144.734 406.119 145.556C405.38 145.556 404.238 144.793 403.6 144.407C402.408 143.632 401.48 142.515 400.938 141.203Z" fill="#BDCCD4"/>
<path opacity="0.7" d="M400.787 135.718C400.679 135.485 400.646 135.225 400.693 134.973C400.739 134.72 400.863 134.489 401.047 134.309C401.401 134.016 401.847 133.856 402.306 133.857C402.392 133.836 402.481 133.836 402.567 133.857C402.671 133.912 402.754 134 402.802 134.108C402.977 134.421 403.107 134.757 403.188 135.106C403.205 135.195 403.205 135.286 403.188 135.375C403.161 135.461 403.121 135.543 403.071 135.618C402.542 136.49 401.383 136.851 400.787 135.718Z" fill="#BDCCD4"/>
<path opacity="0.6" d="M419.554 138.041C419.605 143.778 415.406 148.474 410.175 148.516C409.847 148.519 409.519 148.505 409.192 148.474C413.962 147.896 417.648 143.442 417.589 138.058C417.53 132.674 413.785 128.288 409.007 127.793C409.333 127.75 409.661 127.727 409.99 127.726C415.23 127.684 419.512 132.297 419.554 138.041Z" fill="#3FA9F5"/>
<path d="M438.666 84.4938C438.666 85.7433 434.367 86.8839 427.615 87.6639C421.454 88.3239 415.263 88.6654 409.066 88.687C392.7 88.8296 379.416 87.169 379.399 84.9886C379.399 84.2673 380.827 83.588 383.346 82.9842C388.476 84.1164 398.066 84.8292 409.033 84.737C419.999 84.6447 429.572 83.7641 434.686 82.5481L434.955 82.6068C437.314 83.1184 438.658 83.7557 438.666 84.4938Z" fill="#C48B4A" stroke="black" stroke-miterlimit="10"/>
<path d="M437.944 83.4119C437.944 84.6363 433.745 85.7685 427.028 86.5317C420.961 87.184 414.865 87.5227 408.764 87.5464C392.658 87.6806 379.584 86.0536 379.559 83.9067C379.559 83.2022 380.969 82.5313 383.447 81.9275C388.485 83.0513 397.94 83.7473 408.73 83.6551C419.521 83.5628 428.951 82.7074 433.989 81.4998L434.249 81.5585C436.651 82.1036 437.935 82.7242 437.944 83.4119Z" fill="#CC9636" stroke="black" stroke-miterlimit="10"/>
<path d="M445.686 159.251C445.686 163.025 429.572 166.22 409.62 166.396C389.669 166.572 373.513 163.637 373.446 159.863C373.446 158.622 375.184 157.448 378.249 156.408C384.513 158.404 396.193 159.67 409.562 159.561C422.93 159.452 434.593 157.976 440.824 155.879C443.906 156.861 445.678 158.01 445.686 159.251Z" fill="#C38A4A" stroke="black" stroke-miterlimit="10"/>
<path d="M446.022 157.196C446.022 161.02 429.723 164.258 409.536 164.425C389.35 164.593 372.959 161.641 372.925 157.825C372.925 156.567 374.688 155.376 377.787 154.328C384.127 156.341 395.95 157.624 409.478 157.506C423.005 157.389 434.803 155.913 441.11 153.791C444.208 154.781 446.014 155.947 446.022 157.196Z" fill="#CC9636" stroke="black" stroke-miterlimit="10"/>
<path opacity="0.5" d="M437.314 83.3113C437.314 84.5021 433.183 85.6092 426.708 86.3556C422.51 86.5401 418.311 86.6994 414.113 86.8336C419.697 85.2821 425.827 86.4897 431.293 84.5609C431.95 84.3671 432.547 84.0125 433.032 83.5293C433.687 82.7661 433.292 82.1456 433.737 81.5082C436.013 82.0281 437.306 82.6403 437.314 83.3113Z" fill="#CC8147"/>
<path opacity="0.5" d="M445.451 157.02C445.451 158.974 440.253 160.76 432.083 161.96C426.793 162.245 421.5 162.491 416.204 162.698C423.249 160.182 430.983 162.186 437.868 159.041C438.745 158.705 439.506 158.122 440.06 157.364C440.9 156.123 440.387 155.108 440.95 154.06C443.805 154.94 445.443 155.938 445.451 157.02Z" fill="#CC8147"/>
<path d="M381.708 84.0409C381.636 84.1042 381.581 84.1851 381.549 84.2757C381.537 84.3448 381.547 84.4157 381.575 84.4797C381.603 84.5438 381.65 84.5982 381.708 84.6363C381.826 84.713 381.963 84.7565 382.103 84.7621C382.158 84.779 382.216 84.779 382.271 84.7621C382.316 84.7315 382.353 84.6914 382.38 84.6447C382.95 83.8567 383.756 83.2694 384.681 82.9674C384.085 82.3468 382.162 83.5964 381.708 84.0409Z" fill="#CEB04B"/>
<path d="M378.803 155.234C377.327 155.519 375.98 156.265 374.957 157.364C376.199 158.028 377.56 158.438 378.962 158.572L379.668 156.794C379.75 156.627 379.787 156.442 379.777 156.257C379.693 155.754 379.021 155.653 378.509 155.678" fill="#CEB04B"/>
<path d="M408.655 52.1974C412.346 52.1974 415.339 49.2086 415.339 45.5218C415.339 41.8349 412.346 38.8461 408.655 38.8461C404.963 38.8461 401.971 41.8349 401.971 45.5218C401.971 49.2086 404.963 52.1974 408.655 52.1974Z" fill="#A67C52" stroke="black" stroke-miterlimit="10"/>
<path d="M409.906 52.0716C409.493 52.1492 409.075 52.1885 408.655 52.189C407.718 52.2887 406.77 52.1904 405.874 51.9005C404.978 51.6107 404.152 51.1357 403.452 50.5066C402.751 49.8774 402.191 49.1081 401.807 48.2485C401.424 47.389 401.225 46.4585 401.225 45.5175C401.225 44.5765 401.424 43.646 401.807 42.7865C402.191 41.927 402.751 41.1577 403.452 40.5285C404.152 39.8993 404.978 39.4244 405.874 39.1346C406.77 38.8447 407.718 38.7464 408.655 38.8461C409.075 38.8466 409.493 38.8859 409.906 38.9635C408.409 39.2907 407.069 40.119 406.109 41.3111C405.148 42.5031 404.625 43.9874 404.625 45.5175C404.625 47.0477 405.148 48.5319 406.109 49.724C407.069 50.9161 408.409 51.7444 409.906 52.0716Z" fill="#754C24"/>
<path opacity="0.5" d="M313.011 275.001C312.902 274.808 313.104 274.557 313.322 274.557C313.432 274.568 313.536 274.61 313.622 274.679C313.708 274.747 313.773 274.839 313.809 274.942C313.809 275.018 313.86 275.11 313.809 275.16C313.774 275.173 313.735 275.173 313.7 275.16L312.961 275.303C312.932 275.209 312.925 275.109 312.941 275.011C312.957 274.914 312.995 274.821 313.053 274.741" fill="#FCEE21"/>
<path opacity="0.5" d="M313.02 277.651C312.669 277.23 312.466 276.706 312.44 276.158C312.452 276.095 312.452 276.029 312.44 275.965C312.348 275.731 311.953 275.731 311.802 275.907C311.651 276.083 311.743 276.351 311.802 276.553C311.894 276.824 312.054 277.068 312.267 277.261C312.481 277.453 312.74 277.587 313.02 277.651Z" fill="#FCEE21"/>
<path d="M334.617 258.933C334.617 271.655 314.649 282.541 286.401 286.952C285.066 287.162 283.705 287.354 282.345 287.539C274.371 288.586 266.338 289.116 258.296 289.124C252.418 289.124 246.666 288.864 241.157 288.369C207.25 285.3 181.966 273.315 181.966 259.016C181.966 245.246 205.369 233.639 237.337 230.05C244.307 229.27 251.315 228.883 258.329 228.892C267.706 228.858 277.071 229.545 286.342 230.947C290.969 231.677 295.377 232.566 299.509 233.614C320.644 238.981 334.617 248.324 334.617 258.933Z" fill="#F15A24" stroke="#201600" stroke-width="2" stroke-linecap="round" stroke-linejoin="round"/>
<path opacity="0.7" d="M334.617 258.698C334.617 271.278 312.717 281.953 282.345 285.711L280.951 284.092C279.23 282.063 277.391 279.664 277.878 277.106C278.365 274.548 280.75 273.005 282.966 271.638C282.801 271.411 282.592 271.22 282.351 271.076C282.11 270.932 281.842 270.838 281.564 270.799C284.527 268.249 287.331 265.522 289.961 262.631L288.794 262.212C293.404 261.004 296.671 257.222 299.618 253.649L302.935 249.624C302.726 248.317 302.245 247.069 301.524 245.959C301.13 245.397 300.585 244.958 299.952 244.691C299.32 244.424 298.625 244.34 297.947 244.449C297.653 244.147 298.199 243.787 298.526 243.518C299.559 242.68 298.442 241.153 297.376 240.357C293.698 237.645 290.02 234.936 286.342 232.23C314.632 236.398 334.617 246.672 334.617 258.698Z" fill="#D34F26"/>
<path opacity="0.7" d="M334.617 258.698C334.617 270.716 314.649 280.989 286.401 285.157C286.888 282.591 289.399 279.605 290.532 277.936C291.477 276.398 292.743 275.082 294.244 274.079C295.383 273.484 296.575 272.996 297.804 272.619C300.401 271.682 302.828 270.332 304.992 268.619C306.412 267.605 307.548 266.245 308.292 264.669C308.678 263.73 308.821 262.723 309.233 261.801C310.224 259.62 312.55 258.262 313.977 256.316C315.656 254.001 315.992 251.074 316.269 248.282C316.383 247.651 316.334 247.001 316.127 246.395C315.816 245.854 315.382 245.394 314.859 245.053C312.39 242.947 309.661 241.166 306.739 239.753C305.396 239.275 304.083 238.715 302.809 238.075C301.442 237.291 300.314 236.152 299.542 234.78C320.644 239.811 334.617 248.642 334.617 258.698Z" fill="#BA4525"/>
<path opacity="0.7" d="M241.157 286.943C207.25 283.983 181.966 272.41 181.966 258.589C181.966 245.288 205.369 234.083 237.337 230.611C237.127 231.366 236.102 231.928 235.229 232.205C221.491 236.666 207.518 240.818 195.082 248.03C192.311 249.64 189.255 252.223 190.044 255.259C192.253 255.408 194.472 255.287 196.652 254.899C195.78 255.853 195.225 257.054 195.065 258.337C195.065 260.367 196.988 261.91 198.936 262.673C200.885 263.436 203.068 263.814 204.705 265.088C205.574 265.877 206.38 266.732 207.115 267.646C209.013 269.692 211.541 271.11 214.018 272.485C219.006 275.261 224.094 278.071 229.653 279.471C232.743 280.243 236.127 280.654 238.554 282.658C239.872 283.76 240.787 285.267 241.157 286.943Z" fill="#FF7348"/>
<path d="M334.617 258.933C334.617 271.655 314.649 282.541 286.401 286.952C285.066 287.162 283.705 287.354 282.345 287.539C274.371 288.586 266.338 289.116 258.296 289.124C252.418 289.124 246.666 288.864 241.157 288.369C207.25 285.3 181.966 273.315 181.966 259.016C181.972 256.975 182.461 254.963 183.393 253.146C189.196 264.778 211.944 274.02 241.157 276.628C246.666 277.123 252.401 277.391 258.296 277.391C266.337 277.402 274.37 276.893 282.345 275.865C283.705 275.689 285.066 275.488 286.401 275.278C310.207 271.563 328.143 263.243 333.19 253.104C334.114 254.909 334.603 256.905 334.617 258.933Z" fill="#F7931E" stroke="#201600" stroke-linecap="round" stroke-linejoin="round"/>
<path d="M183.192 254.052C232.961 246.6 283.564 246.6 333.332 254.052" stroke="#201600" stroke-width="0.63" stroke-linecap="round" stroke-linejoin="round"/>
<path d="M257.674 279.874V228.842" stroke="black" stroke-width="0.75" stroke-miterlimit="10"/>
<path d="M288.458 246.915C288.458 260.451 274.124 263.419 256.448 263.419C238.772 263.419 224.438 260.451 224.438 246.915C224.438 233.379 238.764 222.393 256.448 222.393C274.133 222.393 288.458 233.371 288.458 246.915Z" fill="#00FFFF" stroke="black" stroke-miterlimit="10"/>
<path opacity="0.5" d="M288.458 247.384C288.458 260.929 274.124 263.889 256.448 263.889C254.987 263.889 253.543 263.889 252.132 263.822C267.776 263.327 279.843 259.805 279.843 247.384C279.843 234.964 267.784 224.699 252.132 223.064C253.566 222.919 255.007 222.846 256.448 222.846C274.124 222.871 288.458 233.84 288.458 247.384Z" fill="#29ABE2"/>
<path d="M292.145 243.602C292.145 261.214 275.35 265.734 256.599 265.734C237.849 265.734 221.332 261.256 221.332 243.602C221.332 242.545 222.566 239.912 225.026 241.145C226.706 256.241 238.915 259.595 256.574 259.595C274.233 259.595 286.149 256.241 287.812 241.145C290.297 239.912 292.145 242.545 292.145 243.602Z" fill="#FBB03B" stroke="black" stroke-linejoin="round"/>
<path d="M290.608 244.525C290.608 262.178 275.384 265.113 256.6 265.113C247.606 265.113 239.427 264.233 233.339 261.365C238.991 263.26 245.935 263.881 253.493 263.881C271.068 263.881 286.342 260.643 288.122 245.741C288.518 244.765 288.726 243.724 288.735 242.671C288.861 243.711 290.608 243.468 290.608 244.525Z" fill="#F7931E"/>
<path d="M240.04 231.895L239.746 229.379C239.694 229.207 239.694 229.024 239.748 228.853C239.802 228.683 239.907 228.532 240.049 228.423C240.323 228.291 240.628 228.236 240.93 228.263H245.272C245.665 228.217 246.061 228.306 246.397 228.515C246.471 228.588 246.529 228.676 246.566 228.773C246.604 228.869 246.621 228.973 246.615 229.077C246.615 230.175 245.599 231.157 244.323 231.643C242.97 232.086 241.545 232.265 240.124 232.171" fill="#BFFAFF"/>
<path d="M232.894 244.852C233.046 246.688 233.675 248.701 235.64 249.766C235.009 247.99 234.84 246.082 235.148 244.222C235.456 242.362 236.233 240.611 237.404 239.132C238.126 238.176 239.033 237.22 239.083 236.113C239.159 232.146 235.523 234.436 234.523 236.448C233.228 239.05 232.665 241.955 232.894 244.852Z" fill="#BFFAFF"/>
<path d="M258.296 287.245C260.675 287.245 262.603 285.319 262.603 282.943C262.603 280.567 260.675 278.641 258.296 278.641C255.917 278.641 253.988 280.567 253.988 282.943C253.988 285.319 255.917 287.245 258.296 287.245Z" fill="#FBB03B" stroke="black" stroke-miterlimit="10"/>
<path opacity="0.5" d="M257.59 280.914C257.406 280.578 257.758 280.134 258.145 280.134C258.333 280.157 258.511 280.232 258.66 280.35C258.808 280.469 258.92 280.626 258.984 280.805C259.024 280.861 259.045 280.928 259.045 280.997C259.045 281.067 259.024 281.134 258.984 281.19C258.93 281.236 258.862 281.262 258.791 281.266L257.498 281.517C257.445 281.35 257.433 281.172 257.462 280.998C257.491 280.825 257.561 280.661 257.666 280.519" fill="#FCEE21"/>
<path opacity="0.5" d="M257.599 285.551C256.993 284.812 256.642 283.897 256.599 282.943C256.6 282.827 256.583 282.711 256.549 282.599C256.489 282.509 256.41 282.433 256.317 282.377C256.223 282.322 256.119 282.288 256.011 282.278C255.903 282.268 255.794 282.283 255.692 282.321C255.591 282.36 255.499 282.42 255.424 282.499C255.172 282.801 255.332 283.279 255.424 283.622C255.595 284.101 255.884 284.528 256.264 284.865C256.644 285.202 257.103 285.438 257.599 285.551Z" fill="#FCEE21"/>
<path d="M249.059 286.633C251.438 286.633 253.367 284.707 253.367 282.331C253.367 279.955 251.438 278.029 249.059 278.029C246.68 278.029 244.751 279.955 244.751 282.331C244.751 284.707 246.68 286.633 249.059 286.633Z" fill="#FBB03B" stroke="black" stroke-miterlimit="10"/>
<path opacity="0.5" d="M248.362 280.301C248.169 279.966 248.521 279.521 248.908 279.521C249.097 279.544 249.275 279.618 249.424 279.737C249.572 279.855 249.684 280.013 249.747 280.192C249.798 280.318 249.831 280.486 249.747 280.578C249.694 280.625 249.626 280.652 249.554 280.654L248.261 280.905C248.211 280.737 248.2 280.56 248.229 280.387C248.258 280.214 248.327 280.05 248.429 279.907" fill="#FCEE21"/>
<path opacity="0.5" d="M248.37 284.931C247.762 284.192 247.408 283.278 247.363 282.323C247.367 282.206 247.35 282.089 247.312 281.979C247.254 281.887 247.176 281.81 247.084 281.753C246.991 281.697 246.887 281.662 246.779 281.652C246.671 281.643 246.562 281.658 246.461 281.697C246.36 281.736 246.269 281.798 246.195 281.878C245.935 282.18 246.103 282.658 246.195 283.002C246.365 283.481 246.653 283.909 247.034 284.246C247.414 284.584 247.874 284.819 248.37 284.931Z" fill="#FCEE21"/>
<path d="M239.822 286.021C242.201 286.021 244.13 284.095 244.13 281.719C244.13 279.343 242.201 277.416 239.822 277.416C237.443 277.416 235.514 279.343 235.514 281.719C235.514 284.095 237.443 286.021 239.822 286.021Z" fill="#FBB03B" stroke="black" stroke-miterlimit="10"/>
<path opacity="0.5" d="M239.125 279.681C238.94 279.354 239.293 278.901 239.671 278.909C239.86 278.931 240.038 279.006 240.187 279.125C240.335 279.243 240.448 279.401 240.511 279.58C240.561 279.706 240.595 279.874 240.511 279.966C240.452 280.005 240.387 280.03 240.317 280.041L239.016 280.285C238.967 280.117 238.958 279.941 238.988 279.769C239.019 279.598 239.089 279.435 239.192 279.295" fill="#FCEE21"/>
<path opacity="0.5" d="M239.133 284.318C238.527 283.579 238.177 282.665 238.134 281.71C238.134 281.597 238.117 281.484 238.084 281.375C238.026 281.282 237.947 281.205 237.854 281.147C237.762 281.09 237.657 281.055 237.548 281.044C237.439 281.034 237.33 281.048 237.227 281.086C237.125 281.125 237.033 281.186 236.959 281.266C236.698 281.576 236.866 282.054 236.959 282.39C237.127 282.869 237.415 283.298 237.795 283.636C238.176 283.974 238.636 284.208 239.133 284.318Z" fill="#FCEE21"/>
<path d="M230.132 284.788C232.256 284.788 233.978 283.068 233.978 280.947C233.978 278.826 232.256 277.106 230.132 277.106C228.008 277.106 226.286 278.826 226.286 280.947C226.286 283.068 228.008 284.788 230.132 284.788Z" fill="#FBB03B" stroke="black" stroke-miterlimit="10"/>
<path opacity="0.5" d="M229.502 279.136C229.334 278.834 229.653 278.44 229.997 278.44C230.167 278.457 230.328 278.522 230.462 278.628C230.596 278.733 230.697 278.874 230.753 279.035C230.787 279.088 230.805 279.149 230.805 279.211C230.805 279.274 230.787 279.335 230.753 279.387C230.7 279.422 230.64 279.445 230.577 279.454L229.418 279.672C229.373 279.523 229.364 279.364 229.39 279.21C229.416 279.056 229.478 278.91 229.569 278.783" fill="#FCEE21"/>
<path opacity="0.5" d="M229.51 283.253C228.968 282.597 228.656 281.781 228.62 280.93C228.621 280.828 228.604 280.726 228.57 280.628C228.427 280.251 227.814 280.251 227.571 280.536C227.327 280.821 227.487 281.232 227.571 281.534C227.72 281.962 227.977 282.345 228.317 282.646C228.656 282.947 229.067 283.156 229.51 283.253Z" fill="#FCEE21"/>
<path d="M221.516 282.943C223.64 282.943 225.362 281.223 225.362 279.102C225.362 276.981 223.64 275.261 221.516 275.261C219.392 275.261 217.67 276.981 217.67 279.102C217.67 281.223 219.392 282.943 221.516 282.943Z" fill="#FBB03B" stroke="black" stroke-miterlimit="10"/>
<path opacity="0.5" d="M220.886 277.291C220.719 276.989 221.038 276.595 221.374 276.595C221.544 276.611 221.707 276.676 221.842 276.782C221.977 276.887 222.08 277.029 222.138 277.19C222.188 277.307 222.213 277.458 222.138 277.542C222.088 277.578 222.03 277.601 221.97 277.609L220.811 277.827C220.766 277.677 220.757 277.519 220.783 277.365C220.809 277.211 220.871 277.065 220.962 276.938" fill="#FCEE21"/>
<path opacity="0.5" d="M220.895 281.434C220.355 280.772 220.04 279.955 219.996 279.102C220.004 279 219.99 278.897 219.954 278.8C219.903 278.718 219.833 278.648 219.751 278.597C219.668 278.546 219.575 278.515 219.478 278.506C219.381 278.497 219.283 278.511 219.193 278.546C219.102 278.581 219.021 278.636 218.955 278.708C218.72 278.976 218.871 279.404 218.955 279.706C219.106 280.134 219.363 280.517 219.702 280.82C220.041 281.122 220.452 281.333 220.895 281.434Z" fill="#FCEE21"/>
<path d="M212.892 281.098C215.016 281.098 216.738 279.378 216.738 277.257C216.738 275.136 215.016 273.416 212.892 273.416C210.768 273.416 209.047 275.136 209.047 277.257C209.047 279.378 210.768 281.098 212.892 281.098Z" fill="#FBB03B" stroke="black" stroke-miterlimit="10"/>
<path opacity="0.5" d="M212.271 275.446C212.103 275.144 212.414 274.75 212.758 274.75C212.929 274.766 213.091 274.831 213.226 274.937C213.362 275.042 213.464 275.184 213.522 275.345C213.573 275.462 213.598 275.613 213.522 275.697C213.47 275.734 213.409 275.758 213.346 275.764L212.187 275.982C212.146 275.832 212.138 275.674 212.166 275.52C212.194 275.366 212.255 275.22 212.347 275.093" fill="#FCEE21"/>
<path opacity="0.5" d="M212.279 279.589C211.739 278.927 211.425 278.11 211.381 277.257C211.398 277.157 211.398 277.055 211.381 276.955C211.33 276.873 211.26 276.803 211.177 276.752C211.094 276.701 211.001 276.67 210.904 276.661C210.807 276.652 210.71 276.666 210.619 276.701C210.529 276.736 210.447 276.791 210.382 276.863C210.147 277.131 210.298 277.559 210.382 277.861C210.53 278.283 210.782 278.662 211.113 278.963C211.444 279.265 211.845 279.48 212.279 279.589Z" fill="#FCEE21"/>
<path d="M204.89 278.641C207.014 278.641 208.736 276.921 208.736 274.8C208.736 272.678 207.014 270.959 204.89 270.959C202.766 270.959 201.044 272.678 201.044 274.8C201.044 276.921 202.766 278.641 204.89 278.641Z" fill="#FBB03B" stroke="black" stroke-miterlimit="10"/>
<path opacity="0.5" d="M204.269 272.988C204.101 272.686 204.411 272.292 204.756 272.292C204.926 272.309 205.089 272.374 205.224 272.479C205.359 272.585 205.462 272.726 205.52 272.888C205.57 273.005 205.595 273.156 205.52 273.24C205.468 273.277 205.407 273.3 205.343 273.307L204.193 273.525C204.148 273.375 204.138 273.217 204.164 273.063C204.191 272.909 204.252 272.763 204.344 272.636" fill="#FCEE21"/>
<path opacity="0.5" d="M204.277 277.123C203.736 276.465 203.421 275.65 203.378 274.8C203.395 274.7 203.395 274.598 203.378 274.498C203.328 274.415 203.259 274.345 203.176 274.293C203.094 274.241 203.001 274.209 202.904 274.199C202.807 274.19 202.709 274.203 202.618 274.237C202.527 274.271 202.445 274.326 202.379 274.397C202.144 274.674 202.295 275.102 202.379 275.404C202.527 275.825 202.778 276.204 203.11 276.504C203.441 276.804 203.842 277.017 204.277 277.123Z" fill="#FCEE21"/>
<path d="M197.509 274.339C199.294 274.339 200.742 272.893 200.742 271.11C200.742 269.327 199.294 267.881 197.509 267.881C195.723 267.881 194.276 269.327 194.276 271.11C194.276 272.893 195.723 274.339 197.509 274.339Z" fill="#FBB03B" stroke="black" stroke-miterlimit="10"/>
<path opacity="0.5" d="M196.98 269.583C196.837 269.34 197.106 269.005 197.391 269.005C197.535 269.018 197.672 269.073 197.785 269.162C197.898 269.251 197.983 269.371 198.03 269.508C198.058 269.552 198.073 269.603 198.073 269.655C198.073 269.707 198.058 269.758 198.03 269.801C197.985 269.832 197.932 269.849 197.878 269.852L196.913 270.036C196.875 269.912 196.867 269.781 196.889 269.652C196.911 269.524 196.962 269.403 197.039 269.298" fill="#FCEE21"/>
<path opacity="0.5" d="M196.988 273.064C196.534 272.51 196.269 271.825 196.233 271.11C196.249 271.027 196.249 270.941 196.233 270.858C196.19 270.788 196.132 270.73 196.063 270.686C195.993 270.643 195.915 270.616 195.834 270.608C195.752 270.599 195.67 270.61 195.594 270.639C195.517 270.668 195.448 270.714 195.393 270.774C195.2 271.001 195.317 271.361 195.393 271.613C195.516 271.969 195.727 272.288 196.006 272.541C196.285 272.794 196.622 272.974 196.988 273.064Z" fill="#FCEE21"/>
<path d="M190.732 270.036C192.518 270.036 193.965 268.591 193.965 266.808C193.965 265.024 192.518 263.579 190.732 263.579C188.947 263.579 187.5 265.024 187.5 266.808C187.5 268.591 188.947 270.036 190.732 270.036Z" fill="#FBB03B" stroke="black" stroke-miterlimit="10"/>
<path opacity="0.5" d="M190.212 265.281C190.069 265.03 190.329 264.703 190.623 264.703C190.767 264.716 190.904 264.771 191.017 264.86C191.13 264.949 191.215 265.069 191.261 265.206C191.29 265.248 191.306 265.297 191.306 265.348C191.306 265.399 191.29 265.449 191.261 265.491C191.223 265.527 191.172 265.548 191.119 265.55L190.145 265.734C190.109 265.608 190.101 265.476 190.123 265.347C190.145 265.218 190.195 265.095 190.271 264.988" fill="#FCEE21"/>
<path opacity="0.5" d="M190.212 268.762C189.761 268.206 189.499 267.522 189.464 266.808C189.473 266.721 189.473 266.634 189.464 266.547C189.419 266.481 189.359 266.425 189.29 266.385C189.22 266.344 189.143 266.319 189.062 266.312C188.982 266.304 188.901 266.315 188.826 266.343C188.75 266.371 188.681 266.415 188.625 266.472C188.432 266.698 188.558 267.059 188.625 267.311C188.745 267.667 188.953 267.987 189.231 268.24C189.509 268.494 189.846 268.673 190.212 268.762Z" fill="#FCEE21"/>
<path d="M185.652 264.191C187.011 264.191 188.112 263.091 188.112 261.734C188.112 260.377 187.011 259.276 185.652 259.276C184.293 259.276 183.192 260.377 183.192 261.734C183.192 263.091 184.293 264.191 185.652 264.191Z" fill="#FBB03B" stroke="black" stroke-miterlimit="10"/>
<path d="M268.137 287.245C270.516 287.245 272.445 285.319 272.445 282.943C272.445 280.567 270.516 278.641 268.137 278.641C265.758 278.641 263.829 280.567 263.829 282.943C263.829 285.319 265.758 287.245 268.137 287.245Z" fill="#FBB03B" stroke="black" stroke-miterlimit="10"/>
<path opacity="0.5" d="M267.44 280.914C267.255 280.578 267.608 280.134 267.986 280.134C268.174 280.157 268.353 280.232 268.501 280.35C268.649 280.469 268.762 280.626 268.826 280.805C268.876 280.93 268.91 281.098 268.826 281.19C268.771 281.236 268.703 281.262 268.633 281.266L267.331 281.517C267.282 281.349 267.273 281.171 267.303 280.998C267.334 280.825 267.404 280.661 267.507 280.519" fill="#FCEE21"/>
<path opacity="0.5" d="M267.449 285.551C266.843 284.812 266.492 283.897 266.449 282.943C266.45 282.827 266.433 282.711 266.399 282.599C266.339 282.509 266.26 282.433 266.167 282.377C266.073 282.322 265.969 282.288 265.861 282.278C265.753 282.268 265.644 282.283 265.542 282.321C265.44 282.36 265.349 282.42 265.274 282.499C265.022 282.801 265.181 283.279 265.274 283.622C265.445 284.101 265.733 284.528 266.114 284.865C266.494 285.202 266.953 285.438 267.449 285.551Z" fill="#FCEE21"/>
<path d="M277.374 286.633C279.753 286.633 281.682 284.707 281.682 282.331C281.682 279.955 279.753 278.029 277.374 278.029C274.995 278.029 273.066 279.955 273.066 282.331C273.066 284.707 274.995 286.633 277.374 286.633Z" fill="#FBB03B" stroke="black" stroke-miterlimit="10"/>
<path opacity="0.5" d="M276.677 280.301C276.484 279.966 276.837 279.521 277.223 279.521C277.412 279.544 277.59 279.618 277.739 279.737C277.887 279.855 277.999 280.013 278.063 280.192C278.113 280.318 278.146 280.486 278.063 280.578C278.007 280.622 277.94 280.649 277.869 280.654L276.568 280.905C276.52 280.737 276.51 280.56 276.539 280.387C276.568 280.214 276.635 280.05 276.736 279.907" fill="#FCEE21"/>
<path opacity="0.5" d="M276.685 284.931C276.077 284.192 275.723 283.278 275.678 282.323C275.685 282.206 275.668 282.089 275.627 281.979C275.57 281.887 275.491 281.81 275.399 281.753C275.306 281.697 275.202 281.662 275.094 281.652C274.986 281.643 274.877 281.658 274.776 281.697C274.675 281.736 274.584 281.798 274.511 281.878C274.25 282.18 274.418 282.658 274.511 283.002C274.68 283.481 274.968 283.909 275.349 284.246C275.729 284.584 276.189 284.819 276.685 284.931Z" fill="#FCEE21"/>
<path d="M295.839 283.564C298.218 283.564 300.147 281.637 300.147 279.261C300.147 276.885 298.218 274.959 295.839 274.959C293.46 274.959 291.531 276.885 291.531 279.261C291.531 281.637 293.46 283.564 295.839 283.564Z" fill="#FBB03B" stroke="black" stroke-miterlimit="10"/>
<path opacity="0.5" d="M295.142 277.224C294.949 276.888 295.31 276.444 295.688 276.444C295.877 276.467 296.055 276.542 296.203 276.66C296.352 276.779 296.464 276.936 296.528 277.115C296.565 277.174 296.585 277.242 296.585 277.312C296.585 277.381 296.565 277.45 296.528 277.509C296.47 277.547 296.404 277.573 296.335 277.584L295.033 277.827C294.984 277.66 294.974 277.485 295.003 277.313C295.032 277.142 295.1 276.979 295.201 276.838" fill="#FCEE21"/>
<path opacity="0.5" d="M295.151 281.861C294.542 281.123 294.189 280.208 294.143 279.253C294.152 279.14 294.138 279.025 294.101 278.918C294.043 278.825 293.965 278.747 293.872 278.69C293.779 278.633 293.674 278.597 293.565 278.587C293.457 278.576 293.347 278.591 293.245 278.629C293.143 278.668 293.051 278.729 292.976 278.809C292.716 279.111 292.883 279.589 292.976 279.932C293.145 280.411 293.434 280.84 293.814 281.177C294.195 281.514 294.654 281.75 295.151 281.861Z" fill="#FCEE21"/>
<path d="M304.505 280.796C306.574 280.796 308.25 279.122 308.25 277.056C308.25 274.99 306.574 273.315 304.505 273.315C302.437 273.315 300.76 274.99 300.76 277.056C300.76 279.122 302.437 280.796 304.505 280.796Z" fill="#FBB03B" stroke="black" stroke-miterlimit="10"/>
<path opacity="0.5" d="M303.901 275.295C303.733 275.001 304.043 274.615 304.379 274.615C304.545 274.633 304.703 274.698 304.834 274.802C304.965 274.906 305.063 275.045 305.118 275.202C305.16 275.311 305.194 275.454 305.118 275.538C305.069 275.574 305.011 275.597 304.95 275.605L303.825 275.815C303.785 275.673 303.777 275.524 303.801 275.379C303.826 275.234 303.883 275.096 303.968 274.976" fill="#FCEE21"/>
<path opacity="0.5" d="M303.909 279.32C303.391 278.676 303.096 277.881 303.069 277.056C303.073 276.956 303.059 276.857 303.027 276.762C302.977 276.682 302.91 276.614 302.829 276.564C302.749 276.514 302.658 276.483 302.563 276.474C302.469 276.465 302.374 276.478 302.285 276.512C302.197 276.546 302.117 276.6 302.053 276.67C301.826 276.93 301.969 277.349 302.053 277.643C302.196 278.056 302.441 278.427 302.765 278.72C303.09 279.013 303.483 279.22 303.909 279.32Z" fill="#FCEE21"/>
<path d="M313.221 277.517C315.29 277.517 316.966 275.842 316.966 273.777C316.966 271.711 315.29 270.036 313.221 270.036C311.153 270.036 309.476 271.711 309.476 273.777C309.476 275.842 311.153 277.517 313.221 277.517Z" fill="#FBB03B" stroke="black" stroke-miterlimit="10"/>
<path opacity="0.5" d="M312.617 272.007C312.449 271.714 312.759 271.328 313.087 271.336C313.255 271.347 313.417 271.407 313.55 271.51C313.683 271.614 313.782 271.755 313.834 271.915C313.866 271.965 313.882 272.023 313.882 272.083C313.882 272.142 313.866 272.2 313.834 272.25C313.786 272.289 313.728 272.313 313.666 272.317L312.541 272.535C312.501 272.394 312.493 272.245 312.518 272.1C312.542 271.955 312.599 271.817 312.684 271.697" fill="#FCEE21"/>
<path opacity="0.5" d="M312.625 276.033C312.106 275.389 311.811 274.594 311.785 273.768C311.784 273.669 311.77 273.57 311.743 273.475C311.601 273.114 311.004 273.114 310.769 273.383C310.534 273.651 310.685 274.062 310.769 274.355C310.912 274.769 311.157 275.139 311.481 275.432C311.806 275.726 312.199 275.932 312.625 276.033Z" fill="#FCEE21"/>
<path d="M321.543 273.424C323.5 273.424 325.086 271.84 325.086 269.885C325.086 267.931 323.5 266.346 321.543 266.346C319.586 266.346 317.999 267.931 317.999 269.885C317.999 271.84 319.586 273.424 321.543 273.424Z" fill="#FBB03B" stroke="black" stroke-miterlimit="10"/>
<path opacity="0.5" d="M320.964 268.208C320.812 267.94 321.098 267.571 321.417 267.571C321.573 267.588 321.722 267.65 321.845 267.748C321.968 267.845 322.061 267.976 322.114 268.124C322.164 268.225 322.189 268.367 322.114 268.443C322.068 268.479 322.012 268.5 321.954 268.502L320.888 268.711C320.844 268.571 320.833 268.422 320.857 268.276C320.88 268.131 320.937 267.993 321.022 267.873" fill="#FCEE21"/>
<path opacity="0.5" d="M320.972 272.024C320.468 271.417 320.173 270.664 320.132 269.877C320.134 269.783 320.12 269.689 320.09 269.6C320.043 269.525 319.979 269.462 319.903 269.416C319.827 269.369 319.742 269.341 319.653 269.333C319.565 269.325 319.476 269.337 319.393 269.369C319.31 269.401 319.235 269.451 319.175 269.516C318.957 269.768 319.091 270.154 319.175 270.439C319.315 270.834 319.553 271.187 319.868 271.464C320.182 271.741 320.562 271.934 320.972 272.024Z" fill="#FCEE21"/>
<path d="M328.311 267.889C330.268 267.889 331.855 266.305 331.855 264.35C331.855 262.396 330.268 260.811 328.311 260.811C326.354 260.811 324.767 262.396 324.767 264.35C324.767 266.305 326.354 267.889 328.311 267.889Z" fill="#FBB03B" stroke="black" stroke-miterlimit="10"/>
<path opacity="0.5" d="M327.74 262.681C327.58 262.405 327.874 262.036 328.185 262.044C328.342 262.059 328.491 262.119 328.616 262.215C328.741 262.312 328.836 262.441 328.89 262.589C328.932 262.698 328.958 262.832 328.89 262.908C328.844 262.943 328.789 262.966 328.731 262.975L327.664 263.176C327.62 263.035 327.609 262.885 327.634 262.74C327.659 262.594 327.718 262.456 327.807 262.338" fill="#FCEE21"/>
<path opacity="0.5" d="M327.74 266.48C327.237 265.876 326.943 265.126 326.9 264.342C326.917 264.248 326.917 264.151 326.9 264.057C326.852 263.982 326.787 263.918 326.711 263.872C326.634 263.826 326.548 263.797 326.459 263.789C326.37 263.781 326.28 263.794 326.197 263.825C326.113 263.857 326.038 263.908 325.977 263.973C325.767 264.224 325.901 264.619 325.977 264.895C326.118 265.284 326.352 265.632 326.66 265.908C326.967 266.185 327.338 266.381 327.74 266.48Z" fill="#FCEE21"/>
<path d="M286.611 285.4C288.99 285.4 290.919 283.474 290.919 281.098C290.919 278.722 288.99 276.796 286.611 276.796C284.232 276.796 282.303 278.722 282.303 281.098C282.303 283.474 284.232 285.4 286.611 285.4Z" fill="#FBB03B" stroke="black" stroke-miterlimit="10"/>
<path opacity="0.5" d="M285.905 279.06C285.721 278.725 286.073 278.28 286.46 278.28C286.648 278.303 286.826 278.378 286.975 278.497C287.123 278.615 287.235 278.773 287.299 278.951C287.339 279.009 287.36 279.078 287.36 279.148C287.36 279.218 287.339 279.287 287.299 279.345C287.241 279.384 287.175 279.41 287.106 279.421L285.813 279.664C285.76 279.498 285.748 279.321 285.777 279.149C285.807 278.977 285.876 278.814 285.981 278.674" fill="#FCEE21"/>
<path opacity="0.5" d="M285.914 283.706C285.308 282.967 284.957 282.052 284.915 281.098C284.916 280.984 284.899 280.871 284.864 280.763C284.807 280.67 284.729 280.592 284.637 280.535C284.545 280.478 284.441 280.442 284.333 280.432C284.225 280.421 284.116 280.436 284.014 280.474C283.913 280.513 283.821 280.574 283.747 280.654C283.487 280.955 283.647 281.434 283.747 281.777C283.915 282.256 284.201 282.685 284.581 283.022C284.96 283.36 285.418 283.595 285.914 283.706Z" fill="#FCEE21"/>
<path d="M257.061 265.734V259.578" stroke="black" stroke-width="0.75" stroke-miterlimit="10"/>
<path d="M223.154 249.707C223.742 248.282 224.833 247.888 226.513 248.5" stroke="#201600" stroke-width="0.63" stroke-linecap="round" stroke-linejoin="round"/>
<path d="M290.331 249.498C289.869 248.812 289.163 248.328 288.355 248.145C287.548 247.963 286.702 248.096 285.989 248.517" stroke="#201600" stroke-width="0.63" stroke-linecap="round" stroke-linejoin="round"/>
<path d="M113.294 194.516V268.275" stroke="black" stroke-width="3" stroke-miterlimit="10" stroke-linecap="round"/>
<path d="M149.771 169.742L149.696 210.366L78.74 220.321L78.8156 179.697L149.771 169.742Z" fill="#DB9A33" stroke="black" stroke-width="0.5" stroke-miterlimit="10"/>
<path d="M78.74 220.321L76.817 219.29L76.901 178.657L78.8155 179.697L78.74 220.321Z" fill="#805A1E" stroke="black" stroke-width="0.5" stroke-miterlimit="10"/>
<path d="M78.8155 179.697L76.901 178.657L147.857 168.702L149.771 169.742L78.8155 179.697Z" fill="#B17C2A" stroke="black" stroke-width="0.5" stroke-miterlimit="10"/>
<path d="M338.119 232.264V306.031" stroke="black" stroke-width="3" stroke-miterlimit="10" stroke-linecap="round"/>
<path d="M374.596 207.49L374.52 248.122L303.565 258.077L303.64 217.453L374.596 207.49Z" fill="#DB9A33" stroke="black" stroke-width="0.5" stroke-miterlimit="10"/>
<path d="M303.565 258.077L301.65 257.037L301.726 216.413L303.64 217.453L303.565 258.077Z" fill="#805A1E" stroke="black" stroke-width="0.5" stroke-miterlimit="10"/>
<path d="M303.64 217.453L301.726 216.413L372.681 206.45L374.596 207.49L303.64 217.453Z" fill="#B17C2A" stroke="black" stroke-width="0.5" stroke-miterlimit="10"/>
<path d="M494.658 154.32V228.079" stroke="black" stroke-width="3" stroke-miterlimit="10" stroke-linecap="round"/>
<path d="M531.135 129.546L531.06 170.17L460.104 180.125L460.179 139.501L531.135 129.546Z" fill="#DB9A33" stroke="black" stroke-width="0.5" stroke-miterlimit="10"/>
<path d="M460.104 180.125L458.189 179.085L458.265 138.461L460.18 139.501L460.104 180.125Z" fill="#805A1E" stroke="black" stroke-width="0.5" stroke-miterlimit="10"/>
<path d="M460.18 139.501L458.265 138.461L529.221 128.498L531.135 129.546L460.18 139.501Z" fill="#B17C2A" stroke="black" stroke-width="0.5" stroke-miterlimit="10"/>
<path d="M83.5515 185.568L143.927 176.98" stroke="black" stroke-width="0.5" stroke-miterlimit="10"/>
<path d="M84.0637 195.707L144.439 187.119" stroke="black" stroke-width="0.5" stroke-miterlimit="10"/>
<path d="M84.0637 204.295L144.439 195.707" stroke="black" stroke-width="0.5" stroke-miterlimit="10"/>
<path d="M257.171 169.222L317.546 160.635" stroke="black" stroke-width="0.5" stroke-miterlimit="10"/>
<path d="M256.549 178.489L316.924 169.902" stroke="black" stroke-width="0.5" stroke-miterlimit="10"/>
<path d="M307.94 221.562L368.307 212.975" stroke="black" stroke-width="0.5" stroke-miterlimit="10"/>
<path d="M308.897 226.972L369.264 218.384" stroke="black" stroke-width="0.5" stroke-miterlimit="10"/>
<path d="M308.897 232.775L369.264 224.187" stroke="black" stroke-width="0.5" stroke-miterlimit="10"/>
<path d="M308.897 239.82L369.264 231.232" stroke="black" stroke-width="0.5" stroke-miterlimit="10"/>
<path d="M464.479 146.252L524.846 137.664" stroke="black" stroke-width="0.5" stroke-miterlimit="10"/>
<path d="M465.436 154.202L525.803 145.614" stroke="black" stroke-width="0.5" stroke-miterlimit="10"/>
<path d="M465.436 161.465L525.803 152.877" stroke="black" stroke-width="0.5" stroke-miterlimit="10"/>
</g>
<defs>
<filter id="filter0_d" x="0" y="0" width="668" height="311" filterUnits="userSpaceOnUse" color-interpolation-filters="sRGB">
<feFlood flood-opacity="0" result="BackgroundImageFix"/>
<feColorMatrix in="SourceAlpha" type="matrix" values="0 0 0 0 0 0 0 0 0 0 0 0 0 0 0 0 0 0 127 0"/>
<feOffset dy="2"/>
<feColorMatrix type="matrix" values="0 0 0 0 0 0 0 0 0 0 0 0 0 0 0 0 0 0 0.05 0"/>
<feBlend mode="normal" in2="BackgroundImageFix" result="effect1_dropShadow"/>
<feBlend mode="normal" in="SourceGraphic" in2="effect1_dropShadow" result="shape"/>
</filter>
<clipPath id="clip0">
<rect width="668" height="309" fill="white"/>
</clipPath>
</defs>
</svg>
