<svg width="146" height="62" viewBox="0 0 146 62" fill="none" xmlns="http://www.w3.org/2000/svg">
<path d="M42.1657 28.2475V14.0256H46.6936L51.5045 18.7662L55.7494 14.0256H60.2773V28.2475H54.9004V21.3999L51.2215 25.3504L47.2596 21.3999V28.2475H42.1657Z" fill="#401E08"/>
<path d="M62.2585 21.1365C62.2585 19.0295 63.1075 17.1859 64.5224 15.6057C66.2204 14.2889 68.2013 13.4988 70.7483 13.4988C73.2952 13.4988 75.2762 14.2889 76.9742 15.6057C78.6721 16.9226 79.2381 18.7662 79.2381 21.1365C79.2381 23.2434 78.3891 25.087 76.9742 26.6672C75.5592 27.9841 73.2952 28.7742 70.7483 28.7742C68.2013 28.7742 66.2204 27.9841 64.5224 26.6672C63.1075 25.087 62.2585 23.2434 62.2585 21.1365ZM70.7483 24.2969C72.4462 24.2969 73.8612 23.2434 73.8612 21.1365C73.8612 19.2929 72.4462 17.976 70.7483 17.976C69.0503 17.976 67.6354 19.2929 67.6354 21.1365C67.9184 22.9801 69.0503 24.2969 70.7483 24.2969Z" fill="#401E08"/>
<path d="M86.5954 28.2474H81.5015V14.0255H86.5954V21.3998L91.9723 14.0255H97.0661V28.2474H92.2553V20.8731L86.5954 28.2474ZM88.0104 6.91455C88.0104 8.23139 88.5764 8.75813 89.4253 8.75813C90.2743 8.75813 90.8403 8.23139 90.8403 6.91455H95.3682C95.3682 10.075 93.3873 12.4453 89.7083 12.4453C85.7464 12.4453 83.7655 10.3383 83.7655 6.91455H88.0104Z" fill="#401E08"/>
<path d="M14.9986 26.9306C14.4327 27.7207 13.8667 27.9841 13.0177 28.2475C12.1687 28.5108 11.3197 28.7742 10.1878 28.7742C9.0558 29.0376 8.2068 29.3009 7.07483 29.5643C4.81088 30.6178 3.39594 32.7247 3.11294 36.4119C4.24492 34.3049 6.50888 32.9881 9.05582 32.9881C13.3007 32.9881 16.1306 35.8851 16.1306 40.099C16.1306 42.206 15.2817 43.7862 13.8667 45.3664C12.4517 46.6832 10.4708 47.4734 8.20683 47.4734C5.65989 47.4734 3.67892 46.6833 2.26395 45.103C0.848988 43.5228 0 41.4159 0 38.5188C0 32.198 1.98095 28.5108 5.65986 26.9306C6.50884 26.6672 7.64083 26.4039 8.77281 26.1405C11.0368 25.8771 12.1687 25.6138 13.0177 24.5603L14.9986 26.9306ZM8.77281 45.3664C10.1878 45.3664 11.6027 44.8397 12.4517 44.0496C13.3007 43.2595 13.8667 41.9426 13.8667 40.6258C13.8667 37.7287 12.1687 35.8851 9.05582 35.8851C7.64085 35.8851 6.50884 36.1485 5.65986 36.9386C4.81088 37.7287 3.96193 38.5188 3.96193 39.5723C3.67894 42.9961 5.65988 45.3664 8.77281 45.3664Z" fill="#401E08"/>
<path d="M21.79 47.4734H19.243V32.9882H21.79V43.7863L30.8458 32.9882H33.3927V47.4734H30.8458V36.6753L21.79 47.4734Z" fill="#401E08"/>
<path d="M38.4876 47.21C37.3556 46.9467 36.2237 46.4199 35.9407 45.8932L37.3556 44.0496C38.4876 45.1031 40.4685 45.6298 41.8835 45.6298C44.1474 45.6298 45.8454 44.5764 45.8454 43.2595C45.8454 42.206 44.7134 41.4159 42.7325 41.4159H40.1856V39.309H42.7325C44.1475 39.309 45.2794 38.5189 45.2794 37.2021C45.2794 35.8852 44.1474 35.0951 41.8835 35.0951C40.1855 35.0951 38.7706 35.6218 37.3556 36.6753L36.2236 34.8317C37.3556 33.7783 39.9026 32.9882 42.1665 32.9882C45.8454 32.9882 47.8264 34.5684 47.8264 36.9387C47.8264 38.5189 46.9774 39.8357 44.9964 40.3625C46.9774 40.6258 48.1093 41.9427 48.1093 43.7863C48.1093 46.4199 45.5624 48.0002 41.6005 48.0002C41.0346 47.7368 39.6196 47.4734 38.4876 47.21Z" fill="#401E08"/>
<path d="M62.5418 47.4734V41.4159H54.052V47.4734H51.222V32.9882H54.052V39.0456H62.5418V32.9882H65.3717V47.4734H62.5418Z" fill="#401E08"/>
<path d="M81.7851 45.8931C80.3701 47.2099 78.3891 47.7367 76.1252 47.7367C73.5782 47.7367 71.5973 46.9466 70.1823 45.6297C68.7673 44.3129 67.9183 42.4693 67.9183 40.099C67.9183 37.992 68.7674 36.1485 69.8993 34.8316C71.3143 33.5148 73.2952 32.7247 75.8422 32.7247C77.8231 32.7247 79.5211 33.2514 80.9361 34.5683C82.351 35.8851 82.917 37.4653 82.917 39.3089C82.917 40.099 82.917 40.6257 82.6341 41.1525H70.7483C71.0313 43.7862 73.0123 45.3664 76.1252 45.3664C78.1061 45.3664 79.8041 44.8396 80.9361 43.7862L81.7851 45.8931ZM70.7483 39.0455H80.0871C80.0871 36.6752 78.3891 35.3584 75.5592 35.3584C73.0123 35.095 71.0313 36.6752 70.7483 39.0455Z" fill="#401E08"/>
<path d="M98.1991 45.3664C97.0672 46.9466 94.8032 47.7367 92.2563 47.7367C89.7093 47.7367 87.7283 46.9466 86.3134 45.6297C84.8984 44.3129 84.0495 42.4693 84.0495 40.099C84.0495 37.992 84.8984 36.1485 86.3134 34.8316C87.7283 33.5148 89.7093 32.7247 91.9732 32.7247C94.8032 32.7247 96.7841 33.2514 97.9161 34.5683L96.7842 36.6752C95.6522 35.6217 94.2372 35.095 92.2563 35.095C90.8413 35.095 89.7093 35.6217 88.5773 36.6752C87.4454 37.7287 87.1624 38.7822 87.1624 40.3624C87.1624 41.9426 87.7284 43.2594 88.8603 44.0495C89.9923 45.103 91.1243 45.3664 92.8222 45.3664C94.5202 45.3664 95.9352 44.8396 97.3501 43.5228L98.1991 45.3664Z" fill="#401E08"/>
<path d="M129.893 51.9506L124.799 47.21L119.706 51.9506L124.799 61.9586L129.893 51.9506Z" fill="#D3614E"/>
<path d="M124.799 19.5562C122.818 19.5562 121.121 21.1364 121.121 22.98C121.121 24.8236 122.818 26.4038 124.799 26.4038C126.78 26.4038 128.478 24.8236 128.478 22.98C128.478 21.1364 126.78 19.5562 124.799 19.5562Z" fill="#B28C6B"/>
<path d="M124.801 4.80768C123.669 5.33442 109.519 12.4454 109.519 23.5068C109.519 32.9881 118.009 47.4734 118.009 47.4734L124.801 40.8891L131.875 47.4734C131.875 47.4734 140.365 32.9881 140.365 23.5068C140.082 12.182 125.932 5.33442 124.801 4.80768ZM129.328 36.6752L124.801 32.4614L120.273 36.6752C119.99 36.1485 116.877 28.2475 116.877 23.2435C116.877 16.3959 124.235 12.7087 124.801 12.4454C125.366 12.7087 132.724 16.6593 132.724 23.2435C132.724 28.2475 129.611 36.1485 129.328 36.6752Z" fill="#B28C6B"/>
<path d="M140.123 1.62264e-05L134.921 4.84192L140.123 9.68384L145.326 4.84193L140.123 1.62264e-05Z" fill="#B28C6B"/>
</svg>
