<svg preserveAspectRatio="xMidYMid meet" viewBox="0 0 750 710" fill="none" xmlns="http://www.w3.org/2000/svg" xmlns:xlink="http://www.w3.org/1999/xlink">

<use x="420" y="500" class="shadow" xlink:href="#shadow"></use>
<use x="0" y="80" class="tv" xlink:href="#tv"></use>
<use x="180" y="395"  class="news" xlink:href="#news"></use>
<image x="370" y="300" width="330" height="120" id="sputnik2" class="sputnik" xlink:href="news-sputnik.png"></image>
<!-- <use x="370" y="30" class="sputnik" xlink:href="#sputnik" id="sputnik2"></use> -->
  <animate 
   xlink:href="#sputnik2"
           attributeName="x"
           from="370"
           to="370" 
           dur="4s"
           repeatCount="indefinite"
          calcMode="spline"
           values="370; 0; 370"
           keyTimes="0; 0.5; 1"
           keySplines="0.5 0 0.83 0.67;
           0.1 0.21 0.5 1"/> 
   <animate 
   xlink:href="#sputnik2"
           attributeName="y"
           from="300"
           to="300" 
           dur="4s"
           repeatCount="indefinite"
           calcMode="spline"
           values="300; 20; 300"
           keyTimes="0; 0.5; 1"
           keySplines="0.1 0.21 0.5 1;
           0.5 0 0.83 0.67"/>



<defs>
  <style>
    @keyframes news {
      0% {
        transform: scale(0);
        }
      99.999999% {
        transform: scale(1);
      }
    }

      .news{
      will-change:transform;
      transform-origin: 220px 480px;
      transform: scale(0);
      animation: news 2s linear 0s infinite alternate;
      }

     @keyframes shadowX {
      0% {
        transform: scale(1);
        transform-origin: 600px 700px;
        }
        50%{
        transform: scale(0);
        transform-origin: 100px 400px;
        }
      99.999999999% {
        transform: scale(1);
        transform-origin: 600px 700px;
      }
    }
       .shadow{
          animation:  shadowX 4s ease-in 0s infinite alternate;
      }
   
  </style>
</defs>

<symbol id="news" viewBox="0 0 550 410"><title>Ресурс 5</title><g  ><g id="Слой_3" data-name="Слой 3"><path fill="#000000" d="M7.52,7l0,10-2.29.17V13.45l-2.93.37v3.52L0,17.48,0,8.57l2.28-.5v3.47l2.94-.47V7.45Z"/><path fill="#000000" d="M16.32,6.72a5.53,5.53,0,0,1,1.26,3.83,7,7,0,0,1-1.29,4.19,4.31,4.31,0,0,1-3,1.92l-.21,0A3.58,3.58,0,0,1,10,15.42,5.2,5.2,0,0,1,8.69,11.8a6.64,6.64,0,0,1,1.28-4,5.07,5.07,0,0,1,3.19-2.17l.2,0A3.15,3.15,0,0,1,16.32,6.72ZM14.66,13a3.88,3.88,0,0,0,.58-2.14,3,3,0,0,0-.59-2,1.53,1.53,0,0,0-1.47-.61h0A2.19,2.19,0,0,0,11.62,9.4,3.75,3.75,0,0,0,11,11.48a3,3,0,0,0,.6,1.9,1.57,1.57,0,0,0,1.51.66h.06a2.07,2.07,0,0,0,1.46-1"/><path fill="#000000" d="M25.74,10.17a2.92,2.92,0,0,1,.41,1.72,3.53,3.53,0,0,1-.83,2.41,3.43,3.43,0,0,1-2.17,1.09l-.13,0c-1.42.17-2.84.34-4.26.49l0-11L23,4.17h.11a2.16,2.16,0,0,1,2.14.67,2.73,2.73,0,0,1,.53,1.79,3.16,3.16,0,0,1-1.28,2.7A2.24,2.24,0,0,1,25.74,10.17Zm-2.95,2.76a1.09,1.09,0,0,0,1.08-1.19c0-.69-.38-1-1.12-.87L21,11.11v2.06l1.77-.23h0M21,7v2l1.43-.21a1.09,1.09,0,0,0,1.09-1.17c0-.63-.33-.91-1-.81h0L21,7"/><path fill="#000000" d="M34.56,4a6.08,6.08,0,0,1,1.26,4,7.64,7.64,0,0,1-1.29,4.37,4.59,4.59,0,0,1-3.18,2.18,3.24,3.24,0,0,1-3.16-1.28,6.11,6.11,0,0,1-1.27-4,7.77,7.77,0,0,1,1.29-4.37A4.52,4.52,0,0,1,31.37,2.7,3.27,3.27,0,0,1,34.56,4Zm-1.66,6.6a4.3,4.3,0,0,0,.58-2.26,3.38,3.38,0,0,0-.59-2.09,1.53,1.53,0,0,0-1.52-.69,2.12,2.12,0,0,0-1.51,1.11,4.33,4.33,0,0,0-.59,2.26,3.43,3.43,0,0,0,.6,2.09,1.49,1.49,0,0,0,1.51.69,2.11,2.11,0,0,0,1.52-1.11"/><path fill="#000000" d="M41,1.49h.12a3.4,3.4,0,0,1,3.46,1.93C44,4,43.44,4.69,42.88,5.34a1.88,1.88,0,0,0-1.81-1,1.91,1.91,0,0,0-1.42,1,4.21,4.21,0,0,0-.56,2.2,3.41,3.41,0,0,0,.55,2.05,1.37,1.37,0,0,0,1.39.64,1.82,1.82,0,0,0,1-.5,5.26,5.26,0,0,0,.85-1.13L44.64,10A7.44,7.44,0,0,1,43.13,12,4.12,4.12,0,0,1,41,13l-.11,0A3.07,3.07,0,0,1,38,11.88a6,6,0,0,1-1.21-4A7.45,7.45,0,0,1,38,3.53,4.3,4.3,0,0,1,41,1.49Z"/><path fill="#000000" d="M45.18,1.26Q48.8.9,52.42.6V3.06l-2.49.28V11.2l-2.28.44v-8l-2.47.29Z"/><path fill="#000000" d="M53.42.52,55.68.35V5.82c1.07-2,2.14-3.88,3.21-5.69L61,0l0,8.91-2.27.5V4.19C57.67,6.06,56.6,8,55.54,10.08l-2.14.44Z"/></g></g></symbol>

<symbol id="shadow" viewBox="0 0 600 610">
<defs><style>.shadow-cls-1{opacity:0.1;fill:#000000;}</style></defs><title>Ресурс 2</title><g  ><g id="Слой_4" data-name="Слой 4"><ellipse class="shadow-cls-1" cx="100" cy="100" rx="88.94" ry="12.71"/></g></g>
</symbol>

<symbol id="sputnik" viewBox="0 0 654.2 201.48">
<defs><style>.sputnik-cls-1{fill:none;}.sputnik-cls-1,.sputnik-cls-10,.sputnik-cls-12,.sputnik-cls-13,.sputnik-cls-14,.sputnik-cls-15,.sputnik-cls-16,.sputnik-cls-22,.sputnik-cls-3,.sputnik-cls-4,.sputnik-cls-5,.sputnik-cls-6,.sputnik-cls-8,.sputnik-cls-9{stroke:#000;stroke-linejoin:round;stroke-width:0.5px;}.sputnik-cls-2{isolation:isolate;}.sputnik-cls-3{fill:#b2b2b2;}.sputnik-cls-4{fill:#686868;}.sputnik-cls-5{fill:#909090;}.sputnik-cls-6{fill:#beffff;}.sputnik-cls-7{clip-path:url(#clip-path);}.sputnik-cls-8{fill:#878787;}.sputnik-cls-9{fill:#838383;}.sputnik-cls-10{fill:#7e7e7e;}.sputnik-cls-11{clip-path:url(#clip-path-2);}.sputnik-cls-12{fill:#6a6a6a;}.sputnik-cls-13{fill:#6e6e6e;}.sputnik-cls-14{fill:#727272;}.sputnik-cls-15{fill:#767676;}.sputnik-cls-16{fill:#7a7a7a;}.sputnik-cls-17{clip-path:url(#clip-path-3);}.sputnik-cls-18{clip-path:url(#clip-path-4);}.sputnik-cls-19{clip-path:url(#clip-path-5);}.sputnik-cls-20{clip-path:url(#clip-path-6);}.sputnik-cls-21{clip-path:url(#clip-path-7);}.sputnik-cls-22{fill:#f15a24;}.sputnik-cls-23{clip-path:url(#clip-path-8);}</style><clipPath id="clip-path"><path class="sputnik-cls-1" d="M156.08,3.62,207,31.32a28.56,28.56,0,0,0-17.8-3.06L138.27.56A28.58,28.58,0,0,1,156.08,3.62Z"/></clipPath><clipPath id="clip-path-2"><path class="sputnik-cls-1" d="M171.27,97.12l-50.92-27.7C111,64.36,104.87,54,104.9,41.2c0-19.86,15-38.06,33.37-40.64l50.93,27.7C170.8,30.84,155.85,49,155.82,68.91,155.79,81.7,162,92.06,171.27,97.12Z"/></clipPath><clipPath id="clip-path-3"><path class="sputnik-cls-1" d="M204.93,40l10.19,5.54a22.27,22.27,0,0,0-13.88-2.38l-10.19-5.54A22.27,22.27,0,0,1,204.93,40Z"/></clipPath><clipPath id="clip-path-4"><path class="sputnik-cls-1" d="M187.25,96.87l-10.18-5.54c-7.26-4-12.07-12-12-22,0-15.49,11.68-29.68,26-31.69l10.19,5.54c-14.35,2-26,16.2-26,31.69C175.18,84.84,180,92.92,187.25,96.87Z"/></clipPath><clipPath id="clip-path-5"><path class="sputnik-cls-1" d="M211.55,54.1l10.18,5.55a16.55,16.55,0,0,0-10.3-1.78l-10.19-5.54A16.65,16.65,0,0,1,211.55,54.1Z"/></clipPath><clipPath id="clip-path-6"><path class="sputnik-cls-1" d="M201,97.75l-10.18-5.54c-5.39-2.94-9-8.93-9-16.34,0-11.5,8.68-22,19.33-23.54l10.19,5.54c-10.66,1.5-19.31,12-19.33,23.54C192.08,88.82,195.65,94.81,201,97.75Z"/></clipPath><clipPath id="clip-path-7"><path class="sputnik-cls-1" d="M216.89,65.81l10.18,5.54a10,10,0,0,0-6.25-1.07l-10.18-5.54A10,10,0,0,1,216.89,65.81Z"/></clipPath><clipPath id="clip-path-8"><path class="sputnik-cls-1" d="M214.52,94.47l-10.19-5.54A11,11,0,0,1,198.91,79c0-7,5.26-13.36,11.73-14.27l10.18,5.54c-6.47.91-11.71,7.3-11.73,14.27A11,11,0,0,0,214.52,94.47Z"/></clipPath></defs><title>Ресурс 1</title><g  ><g id="Слой_2-2" ><g class="sputnik-cls-2"><polygon class="sputnik-cls-3" points="326.85 38.13 326.84 43.37 222.41 58.04 222.43 52.81 326.85 38.13"/><polygon class="sputnik-cls-4" points="222.41 58.04 171.49 30.34 171.5 25.11 222.43 52.81 222.41 58.04"/><polygon class="sputnik-cls-5" points="222.43 52.81 171.5 25.11 275.93 10.43 326.85 38.13 222.43 52.81"/></g><polygon class="sputnik-cls-6" points="262.46 21.45 249.89 14.61 275.68 10.98 288.25 17.82 262.46 21.45"/><polygon class="sputnik-cls-6" points="274.44 27.89 261.86 21.05 287.65 17.42 300.23 24.26 274.44 27.89"/><polygon class="sputnik-cls-6" points="287.04 34.87 274.46 28.02 300.25 24.4 312.83 31.24 287.04 34.87"/><polygon class="sputnik-cls-6" points="299.02 41.3 286.44 34.46 312.23 30.84 324.81 37.68 299.02 41.3"/><polygon class="sputnik-cls-6" points="238.1 25.03 225.52 18.18 251.31 14.56 263.89 21.4 238.1 25.03"/><polygon class="sputnik-cls-6" points="250.07 31.47 237.5 24.63 263.29 21 275.86 27.84 250.07 31.47"/><polygon class="sputnik-cls-6" points="262.67 38.45 250.1 31.6 275.89 27.98 288.46 34.82 262.67 38.45"/><polygon class="sputnik-cls-6" points="274.65 44.88 262.08 38.04 287.87 34.42 300.44 41.26 274.65 44.88"/><polygon class="sputnik-cls-6" points="211.6 28.52 199.03 21.68 224.81 18.05 237.39 24.89 211.6 28.52"/><polygon class="sputnik-cls-6" points="223.58 34.95 211 28.11 236.79 24.49 249.37 31.33 223.58 34.95"/><polygon class="sputnik-cls-6" points="236.18 41.93 223.6 35.09 249.39 31.47 261.97 38.31 236.18 41.93"/><polygon class="sputnik-cls-6" points="248.16 48.37 235.58 41.53 261.37 37.91 273.95 44.75 248.16 48.37"/><polygon class="sputnik-cls-6" points="186.12 32.4 173.54 25.56 199.33 21.93 211.91 28.77 186.12 32.4"/><polygon class="sputnik-cls-6" points="198.1 38.84 185.52 32 211.31 28.37 223.89 35.21 198.1 38.84"/><polygon class="sputnik-cls-6" points="210.7 45.82 198.12 38.98 223.91 35.35 236.49 42.19 210.7 45.82"/><polygon class="sputnik-cls-6" points="222.67 52.26 210.1 45.41 235.89 41.79 248.46 48.63 222.67 52.26"/><g class="sputnik-cls-2"><g class="sputnik-cls-2"><g class="sputnik-cls-7"><g class="sputnik-cls-2"><path class="sputnik-cls-8" d="M189.2,28.26,138.27.56a29.4,29.4,0,0,1,11.52.59l50.93,27.7a29.42,29.42,0,0,0-11.52-.59"/><path class="sputnik-cls-9" d="M200.72,28.85,149.79,1.15a27.22,27.22,0,0,1,5.27,1.94L206,30.79a27.37,27.37,0,0,0-5.26-1.94"/><path class="sputnik-cls-10" d="M206,30.79,155.06,3.09l1,.53L207,31.32l-1-.53"/></g></g><path class="sputnik-cls-1" d="M156.08,3.62,207,31.32a28.56,28.56,0,0,0-17.8-3.06L138.27.56A28.58,28.58,0,0,1,156.08,3.62Z"/></g><path class="sputnik-cls-3" d="M189.2,28.26c18.4-2.59,33.29,11.41,33.25,31.28s-15,38.05-33.39,40.64-33.28-11.42-33.24-31.27S170.8,30.84,189.2,28.26Z"/><g class="sputnik-cls-2"><g class="sputnik-cls-11"><g class="sputnik-cls-2"><path class="sputnik-cls-12" d="M171.27,97.12l-50.92-27.7C111,64.36,104.87,54,104.9,41.2A41.23,41.23,0,0,1,107.46,27l50.92,27.7a41.48,41.48,0,0,0-2.56,14.17c0,12.79,6.14,23.15,15.45,28.21"/><path class="sputnik-cls-13" d="M158.38,54.74,107.46,27A44.14,44.14,0,0,1,110,21.43l50.92,27.71a43.39,43.39,0,0,0-2.53,5.6"/><path class="sputnik-cls-14" d="M160.91,49.14,110,21.43A44,44,0,0,1,112.7,17l50.92,27.7a44.88,44.88,0,0,0-2.71,4.41"/><path class="sputnik-cls-15" d="M163.62,44.73,112.7,17a41.06,41.06,0,0,1,3-3.8l50.92,27.7a44.33,44.33,0,0,0-3,3.8"/><path class="sputnik-cls-16" d="M166.62,40.93,115.7,13.23a42.47,42.47,0,0,1,3.4-3.44L170,37.49a42.47,42.47,0,0,0-3.4,3.44"/><path class="sputnik-cls-10" d="M170,37.49,119.1,9.79a39.64,39.64,0,0,1,4-3.18l50.92,27.7a40.78,40.78,0,0,0-4,3.18"/><path class="sputnik-cls-9" d="M174.05,34.31,123.13,6.61a36.47,36.47,0,0,1,5.41-3.12l50.92,27.7a37.37,37.37,0,0,0-5.41,3.12"/><path class="sputnik-cls-8" d="M179.46,31.19,128.54,3.49A33.78,33.78,0,0,1,138.27.56l50.93,27.7a33.75,33.75,0,0,0-9.74,2.93"/></g></g><path class="sputnik-cls-1" d="M171.27,97.12l-50.92-27.7C111,64.36,104.87,54,104.9,41.2c0-19.86,15-38.06,33.37-40.64l50.93,27.7C170.8,30.84,155.85,49,155.82,68.91,155.79,81.7,162,92.06,171.27,97.12Z"/></g></g><g class="sputnik-cls-2"><g class="sputnik-cls-2"><g class="sputnik-cls-17"><g class="sputnik-cls-2"><path class="sputnik-cls-8" d="M201.24,43.17l-10.19-5.54a23,23,0,0,1,9,.46l10.18,5.54a22.92,22.92,0,0,0-9-.46"/><path class="sputnik-cls-9" d="M210.22,43.63,200,38.09a20.74,20.74,0,0,1,4.1,1.51l10.19,5.54a20.83,20.83,0,0,0-4.11-1.51"/><path class="sputnik-cls-10" d="M214.33,45.14,204.14,39.6c.27.13.53.27.79.41l10.19,5.54-.79-.41"/></g></g><path class="sputnik-cls-1" d="M204.93,40l10.19,5.54a22.27,22.27,0,0,0-13.88-2.38l-10.19-5.54A22.27,22.27,0,0,1,204.93,40Z"/></g><ellipse class="sputnik-cls-3" cx="201.19" cy="71.21" rx="29.19" ry="24.96" transform="translate(42.49 213.91) rotate(-61.45)"/><g class="sputnik-cls-2"><g class="sputnik-cls-18"><g class="sputnik-cls-2"><path class="sputnik-cls-12" d="M187.25,96.87l-10.18-5.54c-7.26-4-12.07-12-12-22a32.16,32.16,0,0,1,2-11l10.18,5.54a32.4,32.4,0,0,0-2,11c0,10,4.79,18.06,12.05,22"/><path class="sputnik-cls-13" d="M177.2,63.82,167,58.28a32.41,32.41,0,0,1,2-4.37l10.18,5.54a35.78,35.78,0,0,0-2,4.37"/><path class="sputnik-cls-14" d="M179.17,59.45,169,53.91a33.17,33.17,0,0,1,2.11-3.43L181.29,56a33.25,33.25,0,0,0-2.12,3.43"/><path class="sputnik-cls-15" d="M181.29,56,171.1,50.48a34,34,0,0,1,2.34-3l10.19,5.54a32.16,32.16,0,0,0-2.34,3"/><path class="sputnik-cls-16" d="M183.63,53.05l-10.19-5.54a33.53,33.53,0,0,1,2.65-2.68l10.19,5.54a31.92,31.92,0,0,0-2.65,2.68"/><path class="sputnik-cls-10" d="M186.28,50.37l-10.19-5.54a30.79,30.79,0,0,1,3.14-2.48l10.19,5.54a29.73,29.73,0,0,0-3.14,2.48"/><path class="sputnik-cls-9" d="M189.42,47.89l-10.19-5.54a29.73,29.73,0,0,1,4.23-2.44l10.18,5.54a29.08,29.08,0,0,0-4.22,2.44"/><path class="sputnik-cls-8" d="M193.64,45.45l-10.18-5.54a26.42,26.42,0,0,1,7.59-2.28l10.19,5.54a26.48,26.48,0,0,0-7.6,2.28"/></g></g><path class="sputnik-cls-1" d="M187.25,96.87l-10.18-5.54c-7.26-4-12.07-12-12-22,0-15.49,11.68-29.68,26-31.69l10.19,5.54c-14.35,2-26,16.2-26,31.69C175.18,84.84,180,92.92,187.25,96.87Z"/></g></g><g class="sputnik-cls-2"><g class="sputnik-cls-2"><g class="sputnik-cls-19"><g class="sputnik-cls-2"><path class="sputnik-cls-8" d="M211.43,57.87l-10.19-5.54a17.19,17.19,0,0,1,6.67.34l10.18,5.54a17.14,17.14,0,0,0-6.66-.34"/><path class="sputnik-cls-9" d="M218.09,58.21l-10.18-5.54A16.88,16.88,0,0,1,211,53.8l10.18,5.54a16.34,16.34,0,0,0-3-1.13"/><path class="sputnik-cls-10" d="M221.14,59.34,211,53.8l.59.3,10.18,5.55c-.19-.11-.39-.21-.59-.31"/></g></g><path class="sputnik-cls-1" d="M211.55,54.1l10.18,5.55a16.55,16.55,0,0,0-10.3-1.78l-10.19-5.54A16.65,16.65,0,0,1,211.55,54.1Z"/></g><ellipse class="sputnik-cls-3" cx="211.39" cy="78.7" rx="21.67" ry="18.53" transform="translate(41.24 226.78) rotate(-61.45)"/><g class="sputnik-cls-2"><g class="sputnik-cls-20"><g class="sputnik-cls-2"><path class="sputnik-cls-12" d="M201,97.75l-10.18-5.54c-5.39-2.94-9-8.93-9-16.34a24.15,24.15,0,0,1,1.49-8.2l10.18,5.54a23.9,23.9,0,0,0-1.48,8.2c0,7.41,3.55,13.4,8.94,16.34"/><path class="sputnik-cls-13" d="M193.58,73.21,183.4,67.67a24.85,24.85,0,0,1,1.46-3.24L195,70a24.85,24.85,0,0,0-1.46,3.24"/><path class="sputnik-cls-14" d="M195,70l-10.18-5.54a23.54,23.54,0,0,1,1.57-2.55l10.19,5.54A23.62,23.62,0,0,0,195,70"/><path class="sputnik-cls-15" d="M196.62,67.42l-10.19-5.54a24.86,24.86,0,0,1,1.74-2.21l10.18,5.54a26.74,26.74,0,0,0-1.73,2.21"/><path class="sputnik-cls-16" d="M198.35,65.21l-10.18-5.54a24.67,24.67,0,0,1,2-2l10.18,5.54a24.67,24.67,0,0,0-2,2"/><path class="sputnik-cls-10" d="M200.32,63.22l-10.18-5.54a24.13,24.13,0,0,1,2.33-1.84l10.19,5.54a23.09,23.09,0,0,0-2.34,1.84"/><path class="sputnik-cls-9" d="M202.66,61.38l-10.19-5.54A22.28,22.28,0,0,1,195.6,54l10.19,5.54a21.2,21.2,0,0,0-3.13,1.81"/><path class="sputnik-cls-8" d="M205.79,59.57,195.6,54a19.87,19.87,0,0,1,5.64-1.7l10.19,5.54a19.78,19.78,0,0,0-5.64,1.7"/></g></g><path class="sputnik-cls-1" d="M201,97.75l-10.18-5.54c-5.39-2.94-9-8.93-9-16.34,0-11.5,8.68-22,19.33-23.54l10.19,5.54c-10.66,1.5-19.31,12-19.33,23.54C192.08,88.82,195.65,94.81,201,97.75Z"/></g></g><g class="sputnik-cls-2"><g class="sputnik-cls-2"><g class="sputnik-cls-21"><g class="sputnik-cls-2"><path class="sputnik-cls-8" d="M220.82,70.28l-10.18-5.54a10.44,10.44,0,0,1,4,.2l10.18,5.54a10.44,10.44,0,0,0-4-.2"/><path class="sputnik-cls-9" d="M224.86,70.48l-10.18-5.54a10,10,0,0,1,1.85.69l10.18,5.54a9.52,9.52,0,0,0-1.85-.69"/><path class="sputnik-cls-10" d="M226.71,71.17l-10.18-5.54.36.18,10.18,5.54-.36-.18"/></g></g><path class="sputnik-cls-1" d="M216.89,65.81l10.18,5.54a10,10,0,0,0-6.25-1.07l-10.18-5.54A10,10,0,0,1,216.89,65.81Z"/></g><path class="sputnik-cls-22" d="M220.82,70.28c6.46-.91,11.7,4,11.68,11s-5.26,13.37-11.72,14.28-11.7-4-11.69-11S214.35,71.19,220.82,70.28Z"/><g class="sputnik-cls-2"><g class="sputnik-cls-23"><g class="sputnik-cls-2"><path class="sputnik-cls-12" d="M214.52,94.47l-10.19-5.54A11,11,0,0,1,198.91,79a14.39,14.39,0,0,1,.9-5L210,79.58a14.63,14.63,0,0,0-.91,5,11,11,0,0,0,5.43,9.92"/><path class="sputnik-cls-13" d="M210,79.58,199.81,74a15.2,15.2,0,0,1,.89-2l10.18,5.54a15.15,15.15,0,0,0-.88,2"/><path class="sputnik-cls-14" d="M210.88,77.61,200.7,72.07c.29-.53.61-1,1-1.55l10.19,5.54a16.6,16.6,0,0,0-1,1.55"/><path class="sputnik-cls-15" d="M211.84,76.06l-10.19-5.54a15.07,15.07,0,0,1,1.06-1.33l10.18,5.54a15,15,0,0,0-1,1.33"/><path class="sputnik-cls-16" d="M212.89,74.73l-10.18-5.54A13.59,13.59,0,0,1,203.9,68l10.18,5.54c-.41.38-.81.78-1.19,1.21"/><path class="sputnik-cls-10" d="M214.08,73.52,203.9,68a15.05,15.05,0,0,1,1.41-1.12L215.5,72.4a15.18,15.18,0,0,0-1.42,1.12"/><path class="sputnik-cls-9" d="M215.5,72.4l-10.19-5.54a13.32,13.32,0,0,1,1.9-1.09l10.19,5.54a12.79,12.79,0,0,0-1.9,1.09"/><path class="sputnik-cls-8" d="M217.4,71.31l-10.19-5.54a11.81,11.81,0,0,1,3.43-1l10.18,5.54a11.66,11.66,0,0,0-3.42,1"/></g></g><path class="sputnik-cls-1" d="M214.52,94.47l-10.19-5.54A11,11,0,0,1,198.91,79c0-7,5.26-13.36,11.73-14.27l10.18,5.54c-6.47.91-11.71,7.3-11.73,14.27A11,11,0,0,0,214.52,94.47Z"/></g></g><g class="sputnik-cls-2"><polygon class="sputnik-cls-3" points="155.6 68.49 155.59 73.73 51.17 88.4 51.18 83.17 155.6 68.49"/><polygon class="sputnik-cls-4" points="51.17 88.4 0.25 60.7 0.26 55.47 51.18 83.17 51.17 88.4"/><polygon class="sputnik-cls-5" points="51.18 83.17 0.26 55.47 104.68 40.79 155.6 68.49 51.18 83.17"/><polygon class="sputnik-cls-6" points="91.9 51.6 79.33 44.76 105.12 41.14 117.69 47.98 91.9 51.6"/><polygon class="sputnik-cls-6" points="103.88 58.04 91.3 51.2 117.09 47.58 129.67 54.42 103.88 58.04"/><polygon class="sputnik-cls-6" points="116.48 65.02 103.9 58.18 129.69 54.56 142.27 61.4 116.48 65.02"/><polygon class="sputnik-cls-6" points="128.46 71.46 115.88 64.62 141.67 60.99 154.25 67.84 128.46 71.46"/><polygon class="sputnik-cls-6" points="67.54 55.18 54.96 48.34 80.75 44.72 93.33 51.56 67.54 55.18"/><polygon class="sputnik-cls-6" points="79.52 61.62 66.94 54.78 92.73 51.16 105.3 58 79.52 61.62"/><polygon class="sputnik-cls-6" points="92.11 68.6 79.54 61.76 105.33 58.13 117.9 64.98 92.11 68.6"/><polygon class="sputnik-cls-6" points="104.09 75.04 91.52 68.2 117.31 64.57 129.88 71.42 104.09 75.04"/><polygon class="sputnik-cls-6" points="41.04 58.67 28.47 51.83 54.26 48.21 66.83 55.05 41.04 58.67"/><polygon class="sputnik-cls-6" points="53.02 65.11 40.44 58.27 66.23 54.65 78.81 61.49 53.02 65.11"/><polygon class="sputnik-cls-6" points="65.62 72.09 53.04 65.25 78.83 61.62 91.41 68.47 65.62 72.09"/><polygon class="sputnik-cls-6" points="77.6 78.53 65.02 71.69 90.81 68.06 103.39 74.91 77.6 78.53"/><polygon class="sputnik-cls-6" points="15.56 62.55 2.98 55.71 28.77 52.09 41.35 58.93 15.56 62.55"/><polygon class="sputnik-cls-6" points="27.54 68.99 14.96 62.15 40.75 58.53 53.33 65.37 27.54 68.99"/><polygon class="sputnik-cls-6" points="40.14 75.97 27.56 69.13 53.35 65.51 65.93 72.35 40.14 75.97"/><polygon class="sputnik-cls-6" points="52.12 82.41 39.54 75.57 65.33 71.95 77.9 78.79 52.12 82.41"/></g></g></g>
</symbol>

<symbol id="tv" viewBox="0 0 610 477.85">
<defs><style>.tv-cls-1,.tv-cls-14,.tv-cls-38,.tv-cls-43{fill:none;}.tv-cls-1,.tv-cls-10,.tv-cls-18,.tv-cls-19,.tv-cls-24,.tv-cls-25,.tv-cls-26,.tv-cls-4,.tv-cls-5,.tv-cls-6,.tv-cls-9{stroke:#000;}.tv-cls-1,.tv-cls-10,.tv-cls-14,.tv-cls-2,.tv-cls-24,.tv-cls-25,.tv-cls-26,.tv-cls-28,.tv-cls-29,.tv-cls-30,.tv-cls-32,.tv-cls-33,.tv-cls-35,.tv-cls-38,.tv-cls-4,.tv-cls-40,.tv-cls-41,.tv-cls-42,.tv-cls-43,.tv-cls-44,.tv-cls-45,.tv-cls-46,.tv-cls-47,.tv-cls-5,.tv-cls-6,.tv-cls-9{stroke-linejoin:round;}.tv-cls-12,.tv-cls-2{fill:#c4eaee;}.tv-cls-14,.tv-cls-2,.tv-cls-28,.tv-cls-29,.tv-cls-30,.tv-cls-32,.tv-cls-33,.tv-cls-35,.tv-cls-38,.tv-cls-40,.tv-cls-41,.tv-cls-42,.tv-cls-43,.tv-cls-44,.tv-cls-45,.tv-cls-46,.tv-cls-47{stroke:#201600;stroke-linecap:round;}.tv-cls-14,.tv-cls-2,.tv-cls-29,.tv-cls-42{stroke-width:1.27px;}.tv-cls-23,.tv-cls-27,.tv-cls-3{opacity:0.1;fill:#000000;}.tv-cls-4,.tv-cls-6{fill:#8cc63f;}.tv-cls-4{stroke-width:0.5px;}.tv-cls-5{fill:#39b54a;}.tv-cls-5,.tv-cls-6{stroke-width:0.25px;}.tv-cls-7{isolation:isolate;}.tv-cls-8{clip-path:url(#clip-path-tv);}.tv-cls-9{fill:#8c6239;}.tv-cls-10{fill:#c69c6d;}.tv-cls-11{clip-path:url(#clip-path-2-tv);}.tv-cls-13{clip-path:url(#clip-path-3);}.tv-cls-15{clip-path:url(#clip-path-4);}.tv-cls-16,.tv-cls-23{fill:#fff;}.tv-cls-16{opacity:0.4;}.tv-cls-17{opacity:0.3;}.tv-cls-18{fill:#999;}.tv-cls-18,.tv-cls-19{stroke-miterlimit:10;}.tv-cls-19{fill:#998675;}.tv-cls-20,.tv-cls-21{fill:#736357;}.tv-cls-21,.tv-cls-30,.tv-cls-34,.tv-cls-41,.tv-cls-42{opacity:0.5;}.tv-cls-22{fill:#c7b299;}.tv-cls-24{fill:#ff5300;}.tv-cls-25{fill:#f15a24;}.tv-cls-26{fill:#0071bc;}.tv-cls-28{fill:#611b05;}.tv-cls-28,.tv-cls-30,.tv-cls-32,.tv-cls-33,.tv-cls-35,.tv-cls-40,.tv-cls-46,.tv-cls-47{stroke-width:0.63px;}.tv-cls-29,.tv-cls-40{fill:#ff7753;}.tv-cls-30,.tv-cls-34{fill:#eaacac;}.tv-cls-31,.tv-cls-35{fill:#bc533f;}.tv-cls-32,.tv-cls-36{fill:#e26850;}.tv-cls-33{fill:#8e5151;}.tv-cls-37{font-size:2.05px;fill:#d1a180;font-family:GothamPro-Black, Gotham Pro;font-weight:800;}.tv-cls-38{stroke-width:0.09px;}.tv-cls-39{fill:#a05849;opacity:0.8;}.tv-cls-41,.tv-cls-42{fill:#90ddf4;}.tv-cls-41{stroke-width:0.15px;}.tv-cls-43{stroke-width:0.88px;}.tv-cls-44{fill:#020202;stroke-width:0.59px;}.tv-cls-45{fill:#d2f7ff;stroke-width:0.32px;opacity:0.6;}.tv-cls-46{fill:#ffbf3e;}.tv-cls-47,.tv-cls-48{fill:#cc9636;}</style><clipPath id="clip-path-tv"><path class="tv-cls-1" d="M170.52,196.19l43.12,23.46a57.38,57.38,0,0,0-35.83-6.22L134.69,190A57.46,57.46,0,0,1,170.52,196.19Z"/></clipPath><clipPath id="clip-path-2-tv"><path class="tv-cls-1" d="M108.55,308.24,65.42,284.78c.11-2.44,0-4.87,0-7.36.08-42.93,31.08-82.09,69.25-87.45l43.12,23.46c-38.16,5.36-69.17,44.52-69.25,87.45C108.56,303.37,108.66,305.8,108.55,308.24Z"/></clipPath><clipPath id="clip-path-3"><path class="tv-cls-2" d="M212.71,241.21l1.1.68c-8.63-5.33-20.41-7.58-33.39-5.51l-1.1-.68C192.3,233.63,204.08,235.88,212.71,241.21Z"/></clipPath><clipPath id="clip-path-4"><path class="tv-cls-2" d="M146.91,307.87l-1.1-.68c-9-5.56-14.61-14.47-14.59-25.33,0-21.26,21.57-41.93,48.1-46.16l1.1.68c-26.53,4.23-48.06,24.9-48.1,46.16C132.3,293.39,137.9,302.31,146.91,307.87Z"/></clipPath></defs><title>Ресурс 4</title><g  ><g id="Слой_5" data-name="Слой 5"><g class="tv-cls-3"><path d="M353.85,422.9l-183.27,32-60.51,4.26c-5.71,1-49.28-25.47-49.28-25.47l218.38-34.85c5.7-1,12-1.27,14-.61l67.26,21.66C362.52,420.56,359.55,421.9,353.85,422.9Z"/></g></g><g ><path class="tv-cls-4" d="M88.69,346.85s-2.49-10.71-11-8.2c0,0,3.72-10.17-7.73-9.51S55,338,55,338s-11.36-5.34-18.11,8.87c0,0-8.17-4.49-13.85,5.21s3.19,18.26,3.19,18.26-7.81-4.23-13.85,4.79S10.91,391,10.91,391-.1,394.44.26,405.45a20.89,20.89,0,0,0,8.52,16.29s5,8,26.64,5.63c0,0-1.47,9.95,16.69,8.13s22.73-4.64,22.73-4.64,5.94,4.19,16.24,4.86,19-7.84,19-7.84l10.33-22.12,10.15-25.27-5-18.11L123,347.51s-2.87-7.76-10.41-7.05a17.92,17.92,0,0,0-11.81,6.39S95.44,339.75,88.69,346.85Z"/><path class="tv-cls-5" d="M82.64,359.33s-2.13-9.19-9.44-7c0,0,3.19-8.73-6.63-8.16s-12.87,7.58-12.87,7.58-9.75-4.58-15.54,7.61c0,0-7-3.85-11.88,4.47S29,379.46,29,379.46s-6.7-3.63-11.88,4.11-1.22,13.66-1.22,13.66-9.44,2.92-9.14,12.37a17.94,17.94,0,0,0,7.32,14s4.26,6.89,22.85,4.83c0,0-1.26,8.54,14.31,7s19.5-4,19.5-4,5.1,3.59,13.94,4.17S101,428.84,101,428.84l8.86-19,8.71-21.68-4.26-15.54-2.27-12.76s-2.46-6.66-8.93-6.05A15.39,15.39,0,0,0,93,359.33S88.43,353.23,82.64,359.33Z"/><path class="tv-cls-6" d="M69.24,374.37c-6.65-2.84-11.75-2.85-15.29-.41a8.59,8.59,0,0,0-3.77,6,17.51,17.51,0,0,0-10.63,1.06c-5.1,2.44-4.88,8.8-4.88,8.8s1.33,8.26,5.76,9.59c0,0-3.37-4.25-2.43-5.55a8.43,8.43,0,0,1,6.73-7.74c6.65-1.66,8-.34,8-.34s-2.09-5.8,2.82-7.9S69.24,374.37,69.24,374.37Z"/><path class="tv-cls-6" d="M73.2,351c-6.64-2.83-11.74-2.85-15.28-.4a8.58,8.58,0,0,0-3.77,6,17.58,17.58,0,0,0-10.64,1.05c-5.09,2.44-4.87,8.8-4.87,8.8S40,374.7,44.4,376c0,0-3.37-4.24-2.43-5.54a8.41,8.41,0,0,1,6.73-7.74c6.65-1.66,8-.35,8-.35s-2.09-5.8,2.82-7.89S73.2,351,73.2,351Z"/><path class="tv-cls-6" d="M73.2,406.23c-6.64-2.84-11.74-2.86-15.28-.41a8.58,8.58,0,0,0-3.77,6,17.54,17.54,0,0,0-10.64,1.06c-5.09,2.43-4.87,8.79-4.87,8.79S40,430,44.4,431.31c0,0-3.37-4.25-2.43-5.55A8.41,8.41,0,0,1,48.7,418c6.65-1.66,8-.35,8-.35s-2.09-5.8,2.82-7.89S73.2,406.23,73.2,406.23Z"/><g class="tv-cls-7"><g class="tv-cls-7"><g class="tv-cls-8"><g class="tv-cls-7"><path class="tv-cls-9" d="M177.81,213.43,134.69,190a59,59,0,0,1,23.06,1.19l43.12,23.46a59,59,0,0,0-23.06-1.19"/><path class="tv-cls-9" d="M200.87,214.62l-43.12-23.46a56.2,56.2,0,0,1,10.68,4l43.12,23.46a56.2,56.2,0,0,0-10.68-3.95"/><path class="tv-cls-9" d="M211.55,218.57l-43.12-23.46c.7.35,1.4.71,2.09,1.08l43.12,23.46c-.69-.37-1.38-.73-2.09-1.08"/></g></g><path class="tv-cls-1" d="M170.52,196.19l43.12,23.46a57.38,57.38,0,0,0-35.83-6.22L134.69,190A57.46,57.46,0,0,1,170.52,196.19Z"/></g><polygon class="tv-cls-9" points="108.27 457.42 65.14 433.96 65.42 284.78 108.55 308.24 108.27 457.42"/><path class="tv-cls-10" d="M246.46,288.86l0,149.14-13,1.83V415.52l-108,15.54V455l-17.17,2.41.28-149.18c.11-2.43,0-4.88,0-7.36.08-42.93,31.09-82.09,69.25-87.45s69.05,25.09,69,68Q246.78,285.18,246.46,288.86Z"/><g class="tv-cls-7"><g class="tv-cls-11"><g class="tv-cls-7"><path class="tv-cls-9" d="M108.55,308.24,65.42,284.78c.11-2.44,0-4.87,0-7.36a92.62,92.62,0,0,1,5.72-31.68l43.13,23.46a92.39,92.39,0,0,0-5.73,31.68c0,2.49.1,4.92,0,7.36"/><path class="tv-cls-9" d="M114.29,269.2,71.16,245.74a96.08,96.08,0,0,1,5.52-12.27l43.13,23.46a93.38,93.38,0,0,0-5.52,12.27"/><path class="tv-cls-9" d="M119.81,256.93,76.68,233.47a93.5,93.5,0,0,1,5.88-9.54l43.12,23.46a93.42,93.42,0,0,0-5.87,9.54"/><path class="tv-cls-9" d="M125.68,247.39,82.56,223.93a92.78,92.78,0,0,1,6.35-8.07L132,239.32a91,91,0,0,0-6.36,8.07"/><path class="tv-cls-9" d="M132,239.32,88.91,215.86a87.38,87.38,0,0,1,7.1-7.17l43.12,23.46a88.89,88.89,0,0,0-7.09,7.17"/><path class="tv-cls-9" d="M139.13,232.15,96,208.69a82.52,82.52,0,0,1,8.3-6.57l43.12,23.46a83.36,83.36,0,0,0-8.3,6.57"/><path class="tv-cls-9" d="M147.43,225.58l-43.12-23.46a76.56,76.56,0,0,1,10.94-6.31l43.13,23.46a77.21,77.21,0,0,0-10.95,6.31"/><path class="tv-cls-9" d="M158.38,219.27l-43.13-23.46A68.21,68.21,0,0,1,134.69,190l43.12,23.46a68.14,68.14,0,0,0-19.43,5.84"/></g></g><path class="tv-cls-1" d="M108.55,308.24,65.42,284.78c.11-2.44,0-4.87,0-7.36.08-42.93,31.08-82.09,69.25-87.45l43.12,23.46c-38.16,5.36-69.17,44.52-69.25,87.45C108.56,303.37,108.66,305.8,108.55,308.24Z"/></g></g><g class="tv-cls-7"><g class="tv-cls-7"><path class="tv-cls-12" d="M212.71,241.21l1.1.68c-8.63-5.33-20.41-7.58-33.39-5.51l-1.1-.68C192.3,233.63,204.08,235.88,212.71,241.21Z"/><g class="tv-cls-13"><g class="tv-cls-7"><path class="tv-cls-2" d="M212.71,241.21l1.1.68-.8-.48-1.1-.68.8.48"/><path class="tv-cls-2" d="M211.91,240.73l1.1.68a38.5,38.5,0,0,0-4.11-2.07l-1.1-.68a38.5,38.5,0,0,1,4.11,2.07"/><path class="tv-cls-2" d="M207.8,238.66l1.1.68a41.42,41.42,0,0,0-4-1.48l-1.1-.68c1.36.44,2.69.93,4,1.48"/><path class="tv-cls-2" d="M203.84,237.18l1.1.68c-1.3-.41-2.63-.77-4-1.07l-1.1-.68c1.36.3,2.69.66,4,1.07"/><path class="tv-cls-2" d="M199.85,236.11l1.1.68c-1.32-.29-2.68-.53-4.06-.71l-1.1-.68c1.38.18,2.74.42,4.06.71"/><path class="tv-cls-2" d="M195.79,235.4l1.1.68c-1.36-.18-2.75-.31-4.16-.38l-1.1-.68c1.41.07,2.8.2,4.16.38"/><path class="tv-cls-2" d="M191.63,235l1.1.68q-2.08-.12-4.26-.06l-1.1-.68q2.17-.06,4.26.06"/><path class="tv-cls-2" d="M187.37,235l1.1.68q-2.16,0-4.38.27l-1.1-.68q2.22-.22,4.38-.27"/><path class="tv-cls-2" d="M183,235.23l1.1.68c-1.21.12-2.43.28-3.67.47l-1.1-.68c1.24-.19,2.46-.35,3.67-.47"/></g></g><path class="tv-cls-14" d="M212.71,241.21l1.1.68c-8.63-5.33-20.41-7.58-33.39-5.51l-1.1-.68C192.3,233.63,204.08,235.88,212.71,241.21Z"/></g><g class="tv-cls-7"><path class="tv-cls-12" d="M146.91,307.87l-1.1-.68c-9-5.56-14.61-14.47-14.59-25.33,0-21.26,21.57-41.93,48.1-46.16l1.1.68c-26.53,4.23-48.06,24.9-48.1,46.16C132.3,293.39,137.9,302.31,146.91,307.87Z"/><g class="tv-cls-15"><g class="tv-cls-7"><path class="tv-cls-2" d="M179.32,235.7l1.1.68-.86.15-1.1-.68.86-.15"/><path class="tv-cls-2" d="M178.46,235.85l1.1.68c-1.55.26-3.08.59-4.58,1l-1.1-.67c1.5-.38,3-.7,4.58-1"/><path class="tv-cls-2" d="M173.88,236.82l1.1.67c-1.55.39-3.08.83-4.58,1.33l-1.1-.68c1.5-.49,3-.94,4.58-1.32"/><path class="tv-cls-2" d="M169.3,238.14l1.1.68q-2.35.78-4.61,1.71l-1.1-.68q2.25-.93,4.61-1.71"/><path class="tv-cls-2" d="M164.69,239.85l1.1.68q-2.41,1-4.71,2.18L160,242q2.29-1.17,4.71-2.18"/><path class="tv-cls-2" d="M160,242l1.1.68c-1.68.86-3.32,1.79-4.89,2.78l-1.1-.68c1.57-1,3.21-1.92,4.89-2.78"/><path class="tv-cls-2" d="M155.09,244.81l1.1.68a65,65,0,0,0-5.36,3.77l-1.1-.68a65,65,0,0,1,5.36-3.77"/><path class="tv-cls-2" d="M149.73,248.58l1.1.68c-11.25,8.84-18.49,21-18.51,33.28,0,10.85,5.58,19.77,14.59,25.33l-1.1-.68c-9-5.56-14.61-14.47-14.59-25.33,0-12.32,7.26-24.44,18.51-33.28"/></g></g><path class="tv-cls-14" d="M146.91,307.87l-1.1-.68c-9-5.56-14.61-14.47-14.59-25.33,0-21.26,21.57-41.93,48.1-46.16l1.1.68c-26.53,4.23-48.06,24.9-48.1,46.16C132.3,293.39,137.9,302.31,146.91,307.87Z"/></g><path class="tv-cls-2" d="M180.42,236.38c26.53-4.23,48,9.58,48,30.84s-21.57,41.93-48.1,46.16-48-9.58-48-30.84S153.89,240.61,180.42,236.38Z"/></g><path class="tv-cls-16" d="M205.59,242.44a31,31,0,0,1,6.47,3.09,20.93,20.93,0,0,1,6.78,8.52c.43.92.65,2.32-.3,2.68-.61.24-1.27-.19-1.78-.62a33.74,33.74,0,0,1-5.71-6.17,30.2,30.2,0,0,0-2.61-3.44,14.18,14.18,0,0,0-2.74-2.13c-1.9-1.19-4.56-1.74-6.22-3.09C201.33,240.46,203.82,241.76,205.59,242.44Z"/><path class="tv-cls-16" d="M220.26,263.79a22,22,0,0,1,.44,7.46c-.1.9-.52,2-1.42,2a1.71,1.71,0,0,1-1.16-.67c-1.5-1.58-3-4.74-2.4-7C216.1,264.11,219.71,261.41,220.26,263.79Z"/><ellipse class="tv-cls-17" cx="138.79" cy="207.81" rx="40.04" ry="7.74" transform="translate(-11.68 8.3) rotate(-3.29)"/><rect class="tv-cls-18" x="222.46" y="-0.87" width="1.7" height="62.92" transform="translate(22.93 -72.62) rotate(19.45)"/><rect class="tv-cls-18" x="201.49" y="55.87" width="3.06" height="62.92" transform="translate(40.67 -62.62) rotate(19.45)"/><rect class="tv-cls-18" x="179.73" y="113.9" width="5.19" height="62.92" transform="translate(58.81 -52.42) rotate(19.45)"/><ellipse class="tv-cls-19" cx="155.27" cy="189.2" rx="25.89" ry="21.65"/><path class="tv-cls-20" d="M157.36,210.78c-.69.05-1.39.07-2.09.07-14.3,0-25.89-9.7-25.89-21.65s11.59-21.65,25.89-21.65c.7,0,1.4,0,2.09.07-13.33.89-23.81,10.21-23.81,21.58S144,209.89,157.36,210.78Z"/><rect class="tv-cls-18" x="90.4" y="3.95" width="1.7" height="62.92" transform="translate(189.08 38.41) rotate(160.55)"/><rect class="tv-cls-18" x="110" y="60.7" width="3.06" height="62.92" transform="translate(247.39 141.92) rotate(160.55)"/><path class="tv-cls-20" d="M144,175.83a7.52,7.52,0,0,1,3.05,6.83,1.7,1.7,0,0,1-.24.8,1.82,1.82,0,0,1-1,.66,6,6,0,0,1-7.46-3.73,3.31,3.31,0,0,1-.14-1.62,3.15,3.15,0,0,1,2-2.2,8.5,8.5,0,0,1,3.1-.38"/><path class="tv-cls-18" d="M145.15,179c-.87,2.75-2.57,3.12-4.89,1.73l-21-59.32,4.9-1.73Z"/><path class="tv-cls-21" d="M153.43,210.78c.69.05,1.39.07,2.09.07,14.31,0,25.89-9.7,25.89-21.65s-11.58-21.65-25.89-21.65c-.7,0-1.4,0-2.09.07,13.33.89,23.81,10.21,23.81,21.58S166.76,209.89,153.43,210.78Z"/><path class="tv-cls-22" d="M165.35,176.52a4.42,4.42,0,0,1-.14-1.94,1.46,1.46,0,0,1,1.38-1.18,1.78,1.78,0,0,1,.86.37,4.81,4.81,0,0,1,1.92,4.3,1.78,1.78,0,0,1-2.58-.3,5.21,5.21,0,0,1-.86-2.78"/><path class="tv-cls-22" d="M177.3,194.54c-.08.68-.73,1.56-1.21,1.08.39-2.68-5.12-14.21-3.94-15.06C175.41,178.21,177.47,193,177.3,194.54Z"/><path class="tv-cls-16" d="M216.44,280.06a2,2,0,0,1,.72,1.7,4.22,4.22,0,0,1-.6,1.82,21.43,21.43,0,0,1-3.27,4.21,90.88,90.88,0,0,1-8.21,8.21,30.05,30.05,0,0,1-10,5.82c3.67-3,7.38-6.11,10.15-10,.85-1.19,1.61-2.44,2.35-3.71,1.06-1.81,2.08-3.63,3.08-5.48a4.25,4.25,0,0,1,2.5-2.43C214.13,280,215.54,279.41,216.44,280.06Z"/><path class="tv-cls-23" d="M174.14,260.28a12.45,12.45,0,0,1,8.41-3.41,34.73,34.73,0,0,1,3.81.31c2.35.25,4.71.26,7.07.38a8.2,8.2,0,0,1,3.11.6,8,8,0,0,1,1.87,1.37,12,12,0,0,1,2.28,2.45,12.8,12.8,0,0,1,1.44,4c.82,3.5,1.65,7.12,1,10.67a19.88,19.88,0,0,1-1.28,4.1,18.5,18.5,0,0,1-1.79,3.45,20,20,0,0,1-3,3.29,22.49,22.49,0,0,1-3.42,2.65,15.86,15.86,0,0,1-8.94,2.15,20.68,20.68,0,0,1-8.87-2.61,10.58,10.58,0,0,1-3.71-3,13.57,13.57,0,0,1-1.84-5.88l-.9-6a9.12,9.12,0,0,1-.15-2.15,8.92,8.92,0,0,1,.35-1.63c.53-1.92.62-3.9,1.31-5.77A13.07,13.07,0,0,1,174.14,260.28Z"/><path class="tv-cls-23" d="M175.38,281.08a7.9,7.9,0,0,1-1.22-2.63,16.08,16.08,0,0,1-.18-5.14,14.19,14.19,0,0,1,.77-4.29,8.68,8.68,0,0,1,4.23-4.3,16.79,16.79,0,0,1,5.93-1.55,15.94,15.94,0,0,1,6.38.42,7.9,7.9,0,0,1,4.88,3.93,9.78,9.78,0,0,1,.74,4.52,21.28,21.28,0,0,1-1.33,6.69,11.34,11.34,0,0,1-1.45,2.81,9.82,9.82,0,0,1-5.78,3.55,18.56,18.56,0,0,1-6.89.05,11.54,11.54,0,0,1-4.9-1.64,5,5,0,0,1-2.36-4.37"/><polygon class="tv-cls-9" points="233.14 439.93 197.74 420.66 233.48 415.52 233.48 439.83 233.14 439.93"/><polygon class="tv-cls-9" points="233.48 331.45 124.77 344.43 124.77 427.2 233.48 411.3 233.48 331.45"/><circle class="tv-cls-24" cx="133.21" cy="324.02" r="4.03"/><circle class="tv-cls-25" cx="134.99" cy="325.14" r="4.03"/><circle class="tv-cls-26" cx="145.92" cy="322.68" r="4.03"/><circle class="tv-cls-26" cx="147.35" cy="324.02" r="4.03"/><circle class="tv-cls-9" cx="157.97" cy="322.18" r="4.03"/><circle class="tv-cls-9" cx="159.71" cy="323.3" r="4.03"/><polyline class="tv-cls-9" points="233.48 411.3 187.87 385.77 125.53 393.95"/><polyline class="tv-cls-9" points="187.87 385.77 187.87 336.9 233.48 331.45"/><ellipse class="tv-cls-27" cx="167.41" cy="404.69" rx="27.69" ry="6.23"/><path class="tv-cls-28" d="M146.14,365.16a2.78,2.78,0,0,1,.73-.15C147,364.72,146.55,364.93,146.14,365.16Z"/><path class="tv-cls-29" d="M160.46,389.74c-.82,1.09-5.94,4.2-1.72,5.53,3.88,1.22,3.21,11.25,4.38,11.28s2-3.17,2.17-7.38S161.21,388.74,160.46,389.74Z"/><path class="tv-cls-30" d="M160.52,389.68c1.31.62,4.48,5.82,4.38,9.48-.11,3.92-.77,7-1.91,7.34a.24.24,0,0,0,.13.05c1.3,0,2-3.17,2.17-7.38S161.4,389,160.52,389.68Z"/><path class="tv-cls-31" d="M160.46,389.74c-.82,1.09-5.94,4.2-1.72,5.53,3.88,1.22,3.37,10.79,4.19,11.09.37.13,1-.33.93-.55-1.08-.42-.52-9.69-4.33-10.89s.09-3.91,1.43-5.2C160.74,389.6,160.56,389.6,160.46,389.74Z"/><path class="tv-cls-29" d="M145.07,389.31c.75,1.13,5.69,4.53,1.41,5.62-3.95,1-3.84,11.05-5,11s-2-3.28-1.75-7.48S144.38,388.26,145.07,389.31Z"/><path class="tv-cls-31" d="M145.07,389.31c.75,1.13,5.69,4.53,1.41,5.62-3.95,1-4,10.58-4.81,10.83-.37.12-.94-.38-.9-.6,1.1-.36,1.07-9.64,4.93-10.63s.13-3.91-1.13-5.27C144.8,389.15,145,389.16,145.07,389.31Z"/><path class="tv-cls-32" d="M157.41,400.5c-1.65,1.49-6.7,1.3-9.4-.26-.29-.17-.35-1.5-.35-1.5l9.81-.1S157.82,400.14,157.41,400.5Z"/><path class="tv-cls-33" d="M157.47,398.64l-9.81.1s.06,1.33.35,1.5a11.83,11.83,0,0,0,5.9,1.27,11,11,0,0,1-4.33-1.23c-.3-.17-.35-1.5-.35-1.5l8.25-.08A.21.21,0,0,1,157.47,398.64Z"/><path class="tv-cls-29" d="M153.78,355c-4.43-.12-9.88,9.88-10.23,22.4s-.24,22.68,9,22.93c10,.28,9.49-9.89,9.84-22.4S158.22,355.15,153.78,355Z"/><path class="tv-cls-34" d="M161.44,388.77a1.4,1.4,0,0,0,.5-.16c-.62,7.13-2.51,11.95-9.42,11.75a7.19,7.19,0,0,1-.94-.06c5.86-.28,7.68-4.63,8.33-11A2.65,2.65,0,0,0,161.44,388.77Z"/><path class="tv-cls-35" d="M153.84,355c-4.06,1.81-8.39,10.95-8.7,22.06s-.26,20.52,6.36,22.53a2.09,2.09,0,0,0,0,.66c-8.21-1-8.3-10.81-8-22.86.35-12.52,5.8-22.52,10.23-22.4Z"/><path class="tv-cls-36" d="M154.63,355.06c-4.07,1.82-8.4,10.95-8.71,22.06-.29,10.39-.26,19.15,5,22a2.32,2.32,0,0,0-.23.76.49.49,0,0,1,0,.12c-6.61-2-6.67-11.32-6.36-22.53.35-12.52,5.8-22.52,10.23-22.4Z"/><text class="tv-cls-37" transform="matrix(0.03, -0.95, -1, -0.03, 150.62, 386.01)">МОЙ БИЗНЕС</text><path class="tv-cls-38" d="M152.52,400.18a162.82,162.82,0,0,1,.87-45"/><path class="tv-cls-34" d="M153.88,355.74c2.25,1.6,4.31,5.62,5.5,10.95a5.81,5.81,0,0,1,2.11,1.36,1.1,1.1,0,0,1,.14.18c-1.28-7-4.08-12.13-7-13.05A1.16,1.16,0,0,1,153.88,355.74Z"/><path class="tv-cls-39" d="M154.66,355.17a.33.33,0,0,1,.32.22.48.48,0,0,1,0,.39,1,1,0,0,1-.66.46,2.69,2.69,0,0,1-.85,0,2.39,2.39,0,0,1-.65-.11.85.85,0,0,1-.49-.4.39.39,0,0,1,0-.26.4.4,0,0,1,.22-.24,1.43,1.43,0,0,1,.34-.09,10.54,10.54,0,0,1,1.13-.09,1.81,1.81,0,0,1,.95.17"/><path class="tv-cls-40" d="M154.86,351.71a1.08,1.08,0,0,0,0,1.49,1.07,1.07,0,0,1-.32.73,1.1,1.1,0,0,1,.28.76,1.18,1.18,0,0,1-2.35-.07,1,1,0,0,1,.33-.73,1.06,1.06,0,0,1-.29-.76,1.1,1.1,0,0,1,.33-.73,1.13,1.13,0,0,1-.29-.75,1.15,1.15,0,0,1,1.21-1.08A1.13,1.13,0,0,1,154.86,351.71Z"/><path class="tv-cls-31" d="M153.47,350.84c-.41,0-.75.41-.76,1a1.21,1.21,0,0,1,0,1.3,1.21,1.21,0,0,1,0,1.3c0,.54.3,1,.71,1a.74.74,0,0,0,.25-.05,1,1,0,0,1-.47-.93,1.22,1.22,0,0,1,.21-.65,1.13,1.13,0,0,1-.17-.65,1.14,1.14,0,0,1,.21-.65,1.13,1.13,0,0,1-.18-.65,1,1,0,0,1,.52-.91A.5.5,0,0,0,153.47,350.84Z"/><path class="tv-cls-34" d="M154.36,352.32a1.39,1.39,0,0,1,.17.73,1.49,1.49,0,0,1-.21.73,1.39,1.39,0,0,1,.17.73,1.55,1.55,0,0,1-.13.59l.28.08a1.2,1.2,0,0,0,.14-.5,1.09,1.09,0,0,0-.28-.75,1.07,1.07,0,0,0,.32-.73,1.06,1.06,0,0,0-.28-.75,1.08,1.08,0,0,0-.08-1.61h0l-.1-.06a1.39,1.39,0,0,1,.22.82A1.49,1.49,0,0,1,154.36,352.32Z"/><path class="tv-cls-29" d="M152.6,393.3c-2.54-.07-2.12,3.24-2.26,8.35s.65,9.27,1.77,9.3,2.14-4.08,2.29-9.19S155.14,393.37,152.6,393.3Z"/><path class="tv-cls-31" d="M153,393.53c-2.1.29-1.74,3.54-1.88,8.42-.12,4.38.73,8.62,1.11,9-1.09-.17-2-3.95-1.89-9s-.27-8.51,2.27-8.44A2.34,2.34,0,0,1,153,393.53Z"/><path class="tv-cls-41" d="M161.87,367.5c-2.78-1.44-4.86,5.33-5,9.65s1.6,10.15,4.75,10.24,6.88-5.32,6.32-9.61S164.52,368.88,161.87,367.5Z"/><path class="tv-cls-42" d="M162.07,367.35c-2.78-1.45-5.06,5.48-5.18,9.8s1.6,10.15,4.75,10.24,6.88-5.32,6.32-9.61S164.72,368.73,162.07,367.35Z"/><line class="tv-cls-43" x1="153.87" y1="345.36" x2="153.72" y2="350.57"/><ellipse class="tv-cls-44" cx="153.88" cy="344.99" rx="0.37" ry="0.39" transform="translate(-195.29 489.13) rotate(-88.39)"/><ellipse class="tv-cls-45" cx="166.05" cy="381.64" rx="0.65" ry="0.69" transform="translate(-220.1 536.92) rotate(-88.39)"/><path class="tv-cls-45" d="M165.17,382.43l-.71.64c-.28.24-2.87,2.85-2.49,2.86s4.55-2.8,3.87-3.15C165.51,382.61,165.54,382.45,165.17,382.43Z"/><path class="tv-cls-46" d="M152.67,391.5c-4.23-.12-7.78-1.1-9-2.35a1.53,1.53,0,0,0-.41.56,1.17,1.17,0,0,0-.08.36,1,1,0,0,0,.08.41c.58,1.5,4.53,2.76,9.34,2.89,5.24.15,9.53-1.09,9.58-2.77a1.37,1.37,0,0,0-.43-1C160.5,390.84,156.89,391.62,152.67,391.5Z"/><path class="tv-cls-47" d="M152.67,391.5c-4.23-.12-7.79-1.1-9-2.35a1.53,1.53,0,0,0-.41.56,1.17,1.17,0,0,0-.08.36,1.94,1.94,0,0,0,0,.24l.05-.14a1.58,1.58,0,0,1,.41-.56c1.19,1.26,4.75,2.24,9,2.36s7.83-.66,9.09-1.85a1.45,1.45,0,0,1,.41.71.62.62,0,0,0,0-.23,1.33,1.33,0,0,0-.43-1C160.5,390.84,156.89,391.62,152.67,391.5Z"/><path class="tv-cls-32" d="M161.31,366.21c-2.49.14-4.42,3.88-5,8.3a0,0,0,0,0,0,0c-.05.44-.1.88-.13,1.33a31.9,31.9,0,0,0,0,4.26,17.78,17.78,0,0,0,1.6,7c.72,1.38,1.7,2.2,2.92,2.14a1.67,1.67,0,0,0,1.58-1,2.13,2.13,0,0,0,.07-.27,3.65,3.65,0,0,1-.54-.32h0a5.1,5.1,0,0,1-1.18-1.29l-.17-.27c-3-5-2.66-16.48,1.67-18.36a1.32,1.32,0,0,0-.09-.3C161.7,366.58,161.64,366.2,161.31,366.21Z"/><path class="tv-cls-46" d="M153.52,364.69c-3.31-.09-6.1-.87-7-1.87a1.21,1.21,0,0,0-.32.45,1.4,1.4,0,0,0-.06.28.92.92,0,0,0,.06.33c.46,1.19,3.55,2.19,7.32,2.3,4.1.11,7.47-.87,7.51-2.21a1.12,1.12,0,0,0-.34-.75C159.66,364.16,156.83,364.78,153.52,364.69Z"/><path class="tv-cls-47" d="M153.52,364.69c-3.31-.09-6.1-.87-7-1.87a1.34,1.34,0,0,0-.32.45,1.4,1.4,0,0,0-.06.28,1.11,1.11,0,0,0,0,.19l0-.1a1.21,1.21,0,0,1,.32-.45c.94,1,3.73,1.78,7,1.87s6.14-.53,7.13-1.47a1.19,1.19,0,0,1,.32.56.88.88,0,0,0-.31-.93C159.66,364.16,156.83,364.78,153.52,364.69Z"/><path class="tv-cls-38" d="M152.29,410.92a50.51,50.51,0,0,1-.36-17.45"/><path class="tv-cls-46" d="M161.3,366.61c-2.49.13-4,3.69-4.57,7.91a0,0,0,0,0,0,0c-.05.42-.1.84-.13,1.28a29,29,0,0,0,0,4.06,16.61,16.61,0,0,0,1.6,6.64c.73,1.32,1.71,2.11,2.93,2.05a1.68,1.68,0,0,0,1.58-1,1.49,1.49,0,0,0,.07-.25,2.9,2.9,0,0,1-.54-.31h0a4.84,4.84,0,0,1-1.18-1.24,2.33,2.33,0,0,1-.17-.26c-3-4.75-2.29-16,2-17.83a2.29,2.29,0,0,0-.08-.28A1.39,1.39,0,0,0,161.3,366.61Z"/><path class="tv-cls-47" d="M156.59,375.82c0-.34,0-.67.09-1-.06.45-.1.91-.12,1.36Z"/><path class="tv-cls-48" d="M161.3,366.61c-2.49.13-3.9,3.83-4.45,8.05.76-4.61,3.74-9.16,5.94-7.26A1.39,1.39,0,0,0,161.3,366.61Z"/></g></g>
</symbol>

</svg>
