<svg xmlns="http://www.w3.org/2000/svg" xmlns:xlink="http://www.w3.org/1999/xlink" preserveAspectRatio="xMidYMid meet"  viewBox="0 0 684.5 620">


<use x="115" y="375" class="pen-shadow" xlink:href="#pen-shadow"></use>
<use x="320" y="120" class="ellipse" xlink:href="#ellipse"></use>
<use x="350" y="360" id="money-animate" class="money" xlink:href="#money"></use>
<!-- <use x="360" y="300" id="ruble-animate" class="ruble" xlink:href="#ruble"></use> -->
<image x="360" y="300" width="177" height="61" id="ruble-animate" class="ruble" xlink:href="money-coin.png"></image>
<use x="320" y="120" class="wave" xlink:href="#wave"></use>
<!-- <use x="330" y="35" id="ufo-animate" class="ufo" xlink:href="#ufo"></use> -->

<image x="330" y="35" width="239" height="106" id="ufo-animate" class="ufo" xlink:href="other-UFO.png"></image>
<use x="80" y="115" class="folder" xlink:href="#folder"></use>

  <animate 
   xlink:href="#ufo-animate"
           attributeName="x"
           from="330"
           to="330" 
           dur="3s"
           repeatCount="indefinite"
           values="330; 325; 335; 325; 330"
           keyTimes="0; 0.25; 0.5; 0.75; 1"
       /> 
   <animate 
   xlink:href="#ruble-animate"
           attributeName="y"
           from="300"
           to="300" 
           dur="4s"
           repeatCount="indefinite"
           values="300; 320; 290; 320; 300"
           keyTimes="0; 0.25; 0.5; 0.75; 1"
          />


<symbol id="ellipse"><defs><style>.wave-cls-1{fill:aqua;opacity:0.2;}</style></defs><title>Ресурс 8</title><g  ><g id="Слой_3" data-name="Слой 3"><ellipse class="wave-cls-1" cx="130.03" cy="380.53" rx="130.03" ry="25.53"/></g></g>
</symbol>
<symbol id="wave">
<defs><style>.wave-cls-2{fill:aqua;opacity:0.2;}</style></defs><title>Ресурс 7</title><g  ><g id="Слой_3" data-name="Слой 3">
<path id="w" class="wave-cls-2" 
d="
M60,0 C27,140 49,250 0,380 C35,417 220,415 260,380 C250,205 200,102 190,0 L60,0
Z"/></g>
<animate 
xlink:href="#w"
dur="1.5s" 
repeatCount="indefinite" 
attributeName="d" 
attributeType="XML" 
values="
M60,0 C27,140 49,250 0,380 C35,417 220,415 260,380 C250,205 200,102 190,0 L60,0
Z;
M60,0 
C70,140 3,250 0,380 
C35,417 220,415 260,380 
C190,205 250,102 190,0 L60,0 
Z;
M60,0 C27,140 49,250 0,380 C35,417 220,415 260,380 C250,205 200,102 190,0 L60,0
Z"></animate>
</g>
</symbol>
<symbol id="ufo"><defs><style>.ufo-cls-1{fill:#f15a24;stroke-width:2px;}.ufo-cls-1,.ufo-cls-5,.ufo-cls-6{stroke:#201600;stroke-linecap:round;}.ufo-cls-1,.ufo-cls-10,.ufo-cls-5,.ufo-cls-6{stroke-linejoin:round;}.ufo-cls-2{fill:#d34f26;}.ufo-cls-2,.ufo-cls-3,.ufo-cls-4{opacity:0.7;}.ufo-cls-3{fill:#ba4525;}.ufo-cls-4{fill:#ff7348;}.ufo-cls-11,.ufo-cls-5{fill:#f7931e;}.ufo-cls-15,.ufo-cls-6{fill:none;}.ufo-cls-6{stroke-width:0.63px;}.ufo-cls-10,.ufo-cls-13,.ufo-cls-7{fill:#fbb03b;}.ufo-cls-10,.ufo-cls-13,.ufo-cls-15,.ufo-cls-7,.ufo-cls-8{stroke:#000;}.ufo-cls-13,.ufo-cls-15,.ufo-cls-7,.ufo-cls-8{stroke-miterlimit:10;}.ufo-cls-15,.ufo-cls-7{stroke-width:0.75px;}.ufo-cls-8{fill:aqua;}.ufo-cls-9{fill:#29abe2;}.ufo-cls-14,.ufo-cls-9{opacity:0.5;}.ufo-cls-12{fill:#bffaff;}.ufo-cls-14{fill:#fcee21;}</style></defs><title>Ресурс 6</title><g  ><g id="Слой_5" data-name="Слой 5"><path class="ufo-cls-1" d="M237.63,57.6c0,19.86-31,36.85-74.75,43.74-2.07.32-4.17.63-6.28.91a285.57,285.57,0,0,1-37.28,2.38c-9.14,0-18-.41-26.57-1.19C40.2,98.65,1,80,1,57.6,1,36.11,37.29,18,86.84,12.37a289.24,289.24,0,0,1,32.48-1.79,281.51,281.51,0,0,1,43.52,3.28c7.18,1.13,14,2.52,20.41,4.16C216,26.39,237.63,41,237.63,57.6Z"/><path class="ufo-cls-2" d="M237.63,57.18c0,19.64-34,36.31-81,42.17-.72-.85-1.45-1.7-2.16-2.55-2.67-3.18-5.52-6.91-4.76-10.91.71-3.84,4.45-6.4,7.89-8.53a3.3,3.3,0,0,0-2.18-1.26,150.34,150.34,0,0,0,13-12.75c-.6-.22-1.21-.43-1.81-.66,7.15-1.89,12.21-7.79,16.78-13.36l5.14-6.3a15,15,0,0,0-2.19-5.72A5.67,5.67,0,0,0,180.76,35c-.46-.47.39-1,.9-1.45,1.59-1.31-.13-3.69-1.79-4.94q-8.52-6.34-17-12.71C206.65,22.36,237.63,38.41,237.63,57.18Z"/><path class="ufo-cls-3" d="M237.63,57.18c0,18.75-31,34.8-74.75,41.31.77-4,4.65-8.67,6.42-11.28a19.44,19.44,0,0,1,5.74-6,33.31,33.31,0,0,1,5.52-2.26,39.82,39.82,0,0,0,11.15-6.26,15.85,15.85,0,0,0,5.11-6.16c.59-1.46.82-3,1.46-4.47,1.53-3.41,5.14-5.53,7.35-8.57,2.63-3.61,3.13-8.19,3.56-12.55A5.92,5.92,0,0,0,209,38a6.16,6.16,0,0,0-2-2.11c-3.94-3.1-7.94-6.23-12.58-8.27a54.33,54.33,0,0,1-6.1-2.66,13.76,13.76,0,0,1-5.07-5.15C216,27.7,237.63,41.48,237.63,57.18Z"/><path class="ufo-cls-4" d="M92.75,101.27C40.2,96.65,1,78.58,1,57,1,36.25,37.29,18.75,86.84,13.33c-.33,1.19-1.92,2.06-3.28,2.49-21.28,7-43,13.45-62.23,24.7-4.29,2.51-9,6.56-7.8,11.29a41.87,41.87,0,0,0,10.24-.56c-1.2,1.63-2.44,3.38-2.47,5.37,0,3.17,3,5.57,6,6.77s6.39,1.77,8.93,3.77a34.39,34.39,0,0,1,3.74,4c2.95,3.21,6.86,5.41,10.69,7.56C58.42,83,66.27,87.42,74.92,89.6c4.8,1.22,10,1.86,13.81,5A12.13,12.13,0,0,1,92.75,101.27Z"/><path class="ufo-cls-5" d="M237.63,57.6c0,19.86-31,36.85-74.75,43.74-2.07.32-4.17.63-6.28.91a285.57,285.57,0,0,1-37.28,2.38c-9.14,0-18-.41-26.57-1.19C40.2,98.65,1,80,1,57.6a20.29,20.29,0,0,1,2.22-9.1c9,18.16,44.32,32.59,89.53,36.71,8.54.77,17.43,1.19,26.57,1.19A287.32,287.32,0,0,0,156.6,84c2.11-.28,4.21-.59,6.28-.92,36.91-5.8,64.7-18.79,72.53-34.61A20.33,20.33,0,0,1,237.63,57.6Z"/><path class="ufo-cls-6" d="M2.91,49.93a779.89,779.89,0,0,1,232.73,0"/><line class="ufo-cls-7" x1="118.36" y1="90.23" x2="118.36" y2="10.58"/><path class="ufo-cls-8" d="M166.07,38.78c0,21.14-22.21,25.77-49.62,25.77S66.84,59.92,66.84,38.78,89.05.5,116.45.5,166.07,17.64,166.07,38.78Z"/><path class="ufo-cls-9" d="M166.07,39.52c0,21.14-22.21,25.76-49.62,25.76q-3.39,0-6.68-.1c24.25-.77,42.94-6.27,42.94-25.66S134,4.1,109.77,1.58a64,64,0,0,1,6.68-.34C143.86,1.24,166.07,18.37,166.07,39.52Z"/><path class="ufo-cls-10" d="M171.79,33.61c0,27.56-26,34.55-55.1,34.55s-54.62-7-54.62-34.55c0-1.65,1.9-5.76,5.72-3.84,2.59,23.55,21.53,28.79,48.9,28.79s45.84-5.24,48.43-28.79C168.93,27.85,171.79,32,171.79,33.61Z"/><path class="ufo-cls-11" d="M169.41,35.05c0,27.56-23.61,32.15-52.72,32.15-13.94,0-26.62-1.38-36-5.85,8.75,2.95,19.57,3.93,31.28,3.93,27.24,0,50.92-5.05,53.67-28.31.83-2.37.63-1.88,1-4.8C166.72,33.78,169.41,33.4,169.41,35.05Z"/><path class="ufo-cls-12" d="M91,15.34l-.46-3.93A1.43,1.43,0,0,1,91,9.91a2.65,2.65,0,0,1,1.36-.24l6.73,0a2.68,2.68,0,0,1,1.75.4,1.2,1.2,0,0,1,.34.88c0,1.7-1.58,3.24-3.56,4a17,17,0,0,1-6.47.82"/><path class="ufo-cls-12" d="M80,35.56c.23,2.88,1.2,6,4.25,7.67a17.5,17.5,0,0,1,2.73-16.59c1.13-1.49,2.53-3,2.56-4.72.12-6.19-5.53-2.62-7.07.52A25.13,25.13,0,0,0,80,35.56Z"/><ellipse class="ufo-cls-13" cx="119.32" cy="95.03" rx="6.68" ry="6.72"/><path class="ufo-cls-14" d="M118.23,91.86c-.29-.52.26-1.22.85-1.21a1.55,1.55,0,0,1,1.32,1,.56.56,0,0,1,0,.61.66.66,0,0,1-.3.12l-2,.38a1.78,1.78,0,0,1,.26-1.55"/><path class="ufo-cls-14" d="M118.24,99.1A6.94,6.94,0,0,1,116.69,95a1.55,1.55,0,0,0-.08-.53c-.25-.65-1.32-.65-1.73-.16s-.15,1.21,0,1.75A4.64,4.64,0,0,0,118.24,99.1Z"/><ellipse class="ufo-cls-13" cx="105" cy="94.07" rx="6.68" ry="6.72"/><path class="ufo-cls-14" d="M103.92,90.9c-.29-.52.25-1.22.85-1.21a1.56,1.56,0,0,1,1.32,1,.54.54,0,0,1,0,.61.62.62,0,0,1-.29.12l-2,.38a1.82,1.82,0,0,1,.27-1.55"/><path class="ufo-cls-14" d="M103.93,98.14a6.94,6.94,0,0,1-1.55-4.07,1.59,1.59,0,0,0-.08-.53,1.1,1.1,0,0,0-1.74-.16c-.4.47-.14,1.22,0,1.75A4.68,4.68,0,0,0,103.93,98.14Z"/><ellipse class="ufo-cls-13" cx="90.69" cy="93.11" rx="6.68" ry="6.72"/><path class="ufo-cls-14" d="M89.61,89.94c-.3-.52.25-1.22.85-1.21a1.56,1.56,0,0,1,1.32,1c.08.2.13.46,0,.61a.62.62,0,0,1-.3.12l-2,.38a1.78,1.78,0,0,1,.26-1.55"/><path class="ufo-cls-14" d="M89.62,97.18a7,7,0,0,1-1.56-4.07,1.36,1.36,0,0,0-.07-.53,1.1,1.1,0,0,0-1.74-.16c-.4.47-.14,1.22,0,1.75A4.66,4.66,0,0,0,89.62,97.18Z"/><ellipse class="ufo-cls-13" cx="75.66" cy="91.91" rx="5.96" ry="6"/><path class="ufo-cls-14" d="M74.7,89.08c-.27-.46.22-1.09.75-1.08a1.39,1.39,0,0,1,1.18.93.48.48,0,0,1,0,.54.5.5,0,0,1-.27.11l-1.79.34a1.61,1.61,0,0,1,.23-1.38"/><path class="ufo-cls-14" d="M74.71,95.54a6.16,6.16,0,0,1-1.39-3.63,1.49,1.49,0,0,0-.07-.47,1,1,0,0,0-1.55-.15c-.36.42-.13,1.09,0,1.57A4.15,4.15,0,0,0,74.71,95.54Z"/><ellipse class="ufo-cls-13" cx="62.3" cy="89.03" rx="5.96" ry="6"/><path class="ufo-cls-14" d="M61.34,86.2c-.26-.46.22-1.08.76-1.08a1.4,1.4,0,0,1,1.18.93c.07.18.11.41,0,.54a.5.5,0,0,1-.27.11L61.19,87a1.61,1.61,0,0,1,.23-1.38"/><path class="ufo-cls-14" d="M61.35,92.67A6.21,6.21,0,0,1,60,89a1.49,1.49,0,0,0-.07-.47,1,1,0,0,0-1.55-.15c-.36.43-.13,1.09,0,1.57A4.15,4.15,0,0,0,61.35,92.67Z"/><ellipse class="ufo-cls-13" cx="48.95" cy="86.16" rx="5.96" ry="6"/><path class="ufo-cls-14" d="M48,83.32c-.26-.46.23-1.08.76-1.08a1.4,1.4,0,0,1,1.18.93c.07.18.11.41,0,.54a.5.5,0,0,1-.26.11l-1.8.34a1.58,1.58,0,0,1,.24-1.38"/><path class="ufo-cls-14" d="M48,89.79a6.21,6.21,0,0,1-1.39-3.64,1.49,1.49,0,0,0-.07-.47A1,1,0,0,0,45,85.53c-.36.43-.13,1.09,0,1.57A4.17,4.17,0,0,0,48,89.79Z"/><ellipse class="ufo-cls-13" cx="36.54" cy="82.32" rx="5.96" ry="6"/><path class="ufo-cls-14" d="M35.57,79.48c-.26-.46.23-1.08.76-1.08a1.39,1.39,0,0,1,1.18.93.48.48,0,0,1,0,.54.5.5,0,0,1-.27.11l-1.79.35a1.6,1.6,0,0,1,.23-1.39"/><path class="ufo-cls-14" d="M35.59,86a6.21,6.21,0,0,1-1.39-3.64,1.49,1.49,0,0,0-.07-.47,1,1,0,0,0-1.55-.15c-.36.43-.13,1.09,0,1.57A4.19,4.19,0,0,0,35.59,86Z"/><ellipse class="ufo-cls-13" cx="25.09" cy="76.56" rx="5.01" ry="5.04"/><path class="ufo-cls-14" d="M24.28,74.18c-.22-.39.19-.91.64-.91a1.19,1.19,0,0,1,1,.78c.06.15.1.35,0,.46a.58.58,0,0,1-.23.09l-1.5.29a1.35,1.35,0,0,1,.19-1.17"/><path class="ufo-cls-14" d="M24.29,79.61a5.26,5.26,0,0,1-1.17-3,1,1,0,0,0-.05-.4A.83.83,0,0,0,21.76,76c-.3.35-.11.91,0,1.31A3.51,3.51,0,0,0,24.29,79.61Z"/><ellipse class="ufo-cls-13" cx="14.6" cy="69.84" rx="5.01" ry="5.04"/><path class="ufo-cls-14" d="M13.78,67.46c-.22-.39.2-.91.64-.91a1.16,1.16,0,0,1,1,.78.4.4,0,0,1,0,.46.54.54,0,0,1-.22.09l-1.51.29a1.36,1.36,0,0,1,.2-1.17"/><path class="ufo-cls-14" d="M13.79,72.89a5.23,5.23,0,0,1-1.16-3,1.29,1.29,0,0,0-.06-.4.82.82,0,0,0-1.3-.12c-.3.35-.11.91,0,1.31A3.5,3.5,0,0,0,13.79,72.89Z"/><ellipse class="ufo-cls-13" cx="6.72" cy="61.92" rx="3.82" ry="3.84"/><ellipse class="ufo-cls-13" cx="134.58" cy="95.03" rx="6.68" ry="6.72"/><path class="ufo-cls-14" d="M133.5,91.86c-.29-.52.25-1.22.85-1.21a1.56,1.56,0,0,1,1.32,1c.08.2.13.46,0,.61a.62.62,0,0,1-.3.12l-2,.38a1.76,1.76,0,0,1,.27-1.55"/><path class="ufo-cls-14" d="M133.51,99.1A6.94,6.94,0,0,1,132,95a1.55,1.55,0,0,0-.08-.53,1.1,1.1,0,0,0-1.74-.16c-.4.47-.14,1.21,0,1.75A4.66,4.66,0,0,0,133.51,99.1Z"/><ellipse class="ufo-cls-13" cx="148.9" cy="94.07" rx="6.68" ry="6.72"/><path class="ufo-cls-14" d="M147.81,90.9c-.29-.52.26-1.22.85-1.21a1.56,1.56,0,0,1,1.32,1,.56.56,0,0,1,0,.61.66.66,0,0,1-.3.12l-2,.38a1.78,1.78,0,0,1,.26-1.55"/><path class="ufo-cls-14" d="M147.82,98.14a6.94,6.94,0,0,1-1.55-4.07,1.59,1.59,0,0,0-.08-.53c-.25-.65-1.32-.65-1.73-.16s-.15,1.22,0,1.75A4.68,4.68,0,0,0,147.82,98.14Z"/><ellipse class="ufo-cls-13" cx="177.52" cy="89.27" rx="6.68" ry="6.72"/><path class="ufo-cls-14" d="M176.44,86.1c-.3-.52.25-1.21.85-1.21a1.56,1.56,0,0,1,1.32,1c.08.2.13.46,0,.61a.62.62,0,0,1-.3.12l-2,.38a1.78,1.78,0,0,1,.26-1.55"/><path class="ufo-cls-14" d="M176.45,93.34a7,7,0,0,1-1.56-4.07,1.58,1.58,0,0,0-.07-.53,1.1,1.1,0,0,0-1.74-.16c-.4.47-.15,1.22,0,1.75A4.66,4.66,0,0,0,176.45,93.34Z"/><ellipse class="ufo-cls-13" cx="190.95" cy="85.84" rx="5.8" ry="5.83"/><path class="ufo-cls-14" d="M190,83.08c-.25-.45.22-1,.74-1a1.35,1.35,0,0,1,1.15.91c.07.17.11.4,0,.52a.44.44,0,0,1-.26.11l-1.74.33a1.53,1.53,0,0,1,.23-1.34"/><path class="ufo-cls-14" d="M190,89.37a6.07,6.07,0,0,1-1.35-3.53,1.38,1.38,0,0,0-.06-.46,1,1,0,0,0-1.51-.15c-.35.42-.13,1.06,0,1.53A4.06,4.06,0,0,0,190,89.37Z"/><ellipse class="ufo-cls-13" cx="204.46" cy="80.71" rx="5.8" ry="5.83"/><path class="ufo-cls-14" d="M203.52,78c-.25-.46.22-1.06.74-1.06a1.38,1.38,0,0,1,1.15.91.48.48,0,0,1,0,.53.55.55,0,0,1-.26.1l-1.74.34a1.54,1.54,0,0,1,.23-1.35"/><path class="ufo-cls-14" d="M203.53,84.24a6.07,6.07,0,0,1-1.35-3.53,1.7,1.7,0,0,0-.06-.46,1,1,0,0,0-1.51-.14c-.35.41-.13,1.06,0,1.52A4,4,0,0,0,203.53,84.24Z"/><ellipse class="ufo-cls-13" cx="217.36" cy="74.64" rx="5.49" ry="5.52"/><path class="ufo-cls-14" d="M216.47,72c-.24-.43.21-1,.69-1a1.28,1.28,0,0,1,1.09.85c.07.17.11.38,0,.5a.55.55,0,0,1-.25.1l-1.65.32a1.46,1.46,0,0,1,.22-1.28"/><path class="ufo-cls-14" d="M216.48,78a5.69,5.69,0,0,1-1.28-3.34,1.61,1.61,0,0,0-.06-.44.9.9,0,0,0-1.43-.13c-.33.39-.12,1,0,1.43A3.83,3.83,0,0,0,216.48,78Z"/><ellipse class="ufo-cls-13" cx="227.85" cy="66" rx="5.49" ry="5.52"/><path class="ufo-cls-14" d="M227,63.39c-.24-.42.21-1,.7-1a1.29,1.29,0,0,1,1.09.86c.06.16.1.37,0,.49a.4.4,0,0,1-.24.1l-1.65.32a1.49,1.49,0,0,1,.21-1.28"/><path class="ufo-cls-14" d="M227,69.34A5.76,5.76,0,0,1,225.69,66a1.09,1.09,0,0,0-.06-.44.9.9,0,0,0-1.42-.13c-.33.39-.13,1,0,1.44A3.82,3.82,0,0,0,227,69.34Z"/><ellipse class="ufo-cls-13" cx="163.21" cy="92.15" rx="6.68" ry="6.72"/><path class="ufo-cls-14" d="M162.12,89c-.29-.52.26-1.22.85-1.21a1.57,1.57,0,0,1,1.33,1c.08.2.13.46,0,.61a.62.62,0,0,1-.3.12l-2,.38a1.78,1.78,0,0,1,.26-1.55"/><path class="ufo-cls-14" d="M162.14,96.22a7,7,0,0,1-1.56-4.07,1.88,1.88,0,0,0-.07-.53,1.1,1.1,0,0,0-1.74-.16c-.4.47-.15,1.22,0,1.75A4.66,4.66,0,0,0,162.14,96.22Z"/><line class="ufo-cls-15" x1="117.41" y1="68.16" x2="117.41" y2="58.56"/><path class="ufo-cls-6" d="M64.85,43.08q1.37-3.33,5.21-1.88"/><path class="ufo-cls-6" d="M169,42.82c-1.77-2.13-3.92-2.94-6.73-1.53"/></g></g></symbol>
<symbol id="money"><defs><style>.money-cls-1{fill:none;}.money-cls-1,.money-cls-10,.money-cls-11,.money-cls-12,.money-cls-13,.money-cls-3,.money-cls-6,.money-cls-7,.money-cls-8,.money-cls-9{stroke:#000;stroke-width:0.75px;}.money-cls-1,.money-cls-10,.money-cls-11,.money-cls-6,.money-cls-7,.money-cls-8,.money-cls-9{stroke-miterlimit:10;}.money-cls-2{opacity:0.8;}.money-cls-12,.money-cls-13,.money-cls-3{stroke-linejoin:round;}.money-cls-4{isolation:isolate;}.money-cls-5{clip-path:url(#clip-path-u);}.money-cls-6{fill:#ddb134;}.money-cls-7{fill:#d8ad33;}.money-cls-8{fill:#c49d2e;}.money-cls-9{fill:#9c7d25;}.money-cls-10{fill:#977923;}.money-cls-11{fill:#927522;}.money-cls-12{fill:#fbb03b;}.money-cls-13{fill:#fbc93b;}.money-cls-14{clip-path:url(#clip-path-2);}.money-cls-15{clip-path:url(#clip-path-3);}.money-cls-16{clip-path:url(#clip-path-4);}.money-cls-17{clip-path:url(#clip-path-5);}.money-cls-18{clip-path:url(#clip-path-6);}.money-cls-19{clip-path:url(#clip-path-7);}.money-cls-20{clip-path:url(#clip-path-8);}</style><clipPath id="clip-path-u"><path class="money-cls-1" d="M192.09,123.52l0,13.42c0,9.69-23.21,18.72-60,21.95l0-13.42C168.88,142.24,192.08,133.21,192.09,123.52Z"/></clipPath><clipPath id="clip-path-2"><path class="money-cls-1" d="M176.79,107.22v13.42c0,9.7-23.21,18.72-60,22V129.17C153.58,125.94,176.78,116.92,176.79,107.22Z"/></clipPath><clipPath id="clip-path-3"><path class="money-cls-1" d="M195.13,96.26l0,13.42c0,9.7-23.21,18.72-60,22l0-13.42C171.92,115,195.12,106,195.13,96.26Z"/></clipPath><clipPath id="clip-path-4"><path class="money-cls-1" d="M187.86,82V95.44c0,9.7-23.22,18.72-60,22V104C164.65,100.74,187.85,91.72,187.86,82Z"/></clipPath><clipPath id="clip-path-5"><path class="money-cls-1" d="M201,64.66V78.08c0,9.69-23.21,18.71-60,22V86.61C177.77,83.37,201,74.35,201,64.66Z"/></clipPath><clipPath id="clip-path-6"><path class="money-cls-1" d="M184.17,53.7V67.12c0,9.7-23.21,18.72-60,21.95V75.66C161,72.42,184.16,63.4,184.17,53.7Z"/></clipPath><clipPath id="clip-path-7"><path class="money-cls-1" d="M186,39.46l0,13.42c0,9.7-23.21,18.72-60,22l0-13.42C162.81,58.18,186,49.16,186,39.46Z"/></clipPath><clipPath id="clip-path-8"><path class="money-cls-1" d="M195.56,23.73V37.15c0,9.7-23.22,18.72-60,22V45.69C172.35,42.45,195.55,33.43,195.56,23.73Z"/></clipPath></defs><title>money</title><g  ><g ><g class="money-cls-2"><path class="money-cls-3" d="M112.16,132.46c6.3,4.51.66,9-28.41,11.08l-2.24.16,4,2.83,31.16-2.19,3,2.11-31.12,2.19c1.88,1.32,3.79,2.64,5.77,4l15.42-.37,2.07,1.48-14.32,1-12.67.89-13.27.93-2.06-1.48,12.54-1.55q-2.7-2-5.51-4.05l-15,1.06-2.95-2.11,15.05-1.06-3.94-2.83L54.51,145.6l-2.94-2.11,15.06-1.06L64.56,141c-4.93-3.53-9.86-7.06-15-10.58l-14.24.34-2.06-1.48,20.13-1.41,14.77-1C89.67,125.27,105.61,127.77,112.16,132.46Zm-33.6,9.13,3.58-.25c18.79-1.32,22.41-4.36,17.34-8-5.6-4-16.24-5.78-32.36-4.64l-5.67.4c4.73,3.61,9.84,7.28,15,11l2.07,1.48"/></g><g class="money-cls-4"><g class="money-cls-4"><g class="money-cls-5"><g class="money-cls-4"><path class="money-cls-6" d="M132.08,158.89l0-13.42c5.63-.49,10.94-1.12,15.9-1.87L148,157c-5,.75-10.27,1.38-15.9,1.87"/><path class="money-cls-7" d="M148,157l0-13.42c4-.6,7.7-1.27,11.19-2V155q-5.25,1.11-11.2,2"/><path class="money-cls-8" d="M175.76,137c-1.28.48-2.64.94-4.06,1.39-1.65.53-3.4,1-5.24,1.52h0q-3.44.91-7.27,1.72V155c2.55-.54,5-1.12,7.27-1.72h0c1.83-.49,3.58-1,5.24-1.52,1.42-.45,2.77-.91,4.06-1.39s2.25-.86,3.29-1.31l0-13.42C178,136.1,176.92,136.53,175.76,137Z"/><path class="money-cls-9" d="M190.41,128a13.37,13.37,0,0,1-1.13,1.31,17.81,17.81,0,0,1-1.41,1.28c-.52.43-1.08.85-1.69,1.26s-1.29.85-2,1.26-1.52.85-2.36,1.26-1.79.86-2.76,1.28l0,13.42c1-.42,1.9-.85,2.77-1.28s1.62-.83,2.35-1.26,1.39-.83,2-1.26,1.17-.83,1.69-1.26a17.61,17.61,0,0,0,1.4-1.28h0a12.27,12.27,0,0,0,1.14-1.31Z"/><path class="money-cls-9" d="M191.27,126.65a8.27,8.27,0,0,1-.86,1.35v13.42a9.87,9.87,0,0,0,.86-1.35,7.92,7.92,0,0,0,.57-1.4V125.25A7.23,7.23,0,0,1,191.27,126.65Z"/><path class="money-cls-10" d="M191.82,138.67l0-13.42a6.17,6.17,0,0,0,.24-1.52v13.42a6.19,6.19,0,0,1-.25,1.52"/><path class="money-cls-11" d="M192.07,137.15V123.73a1.48,1.48,0,0,0,0-.21l0,13.42v.21"/></g></g><path class="money-cls-1" d="M192.09,123.52l0,13.42c0,9.69-23.21,18.72-60,21.95l0-13.42C168.88,142.24,192.08,133.21,192.09,123.52Z"/></g><path class="money-cls-12" d="M132.1,145.47c-1.6.14-3.2.27-4.8.38L125,146l-1.88.12-2.46.13-1.82.09-1.12,0c-1.35.06-2.7.1-4.05.14l-1.79.05-3,0-1.87,0h-4.62c-.92,0-1.84,0-2.75,0l-1.78,0-3.17-.08-1.37,0c-1.51-.05-3-.11-4.52-.18l-.74,0c-1.26-.06-2.52-.13-3.76-.21l-1.5-.1c-1-.06-2-.13-3-.21l-1.68-.13-2.83-.25-1.67-.15-2.92-.31-1.49-.16-3.9-.47-.46-.06c-1.48-.2-2.94-.4-4.38-.62l-1.19-.18c-1.15-.19-2.3-.37-3.42-.57l-1.54-.26-1-.18L50.94,142l-.75-.15c-1-.21-2.09-.43-3.11-.66l-.15,0c-1-.21-1.89-.43-2.8-.66-.64-.15-1.26-.31-1.88-.47L41,139.65,39,139.1,38,138.8l-1.5-.47-1.29-.4c-.49-.16-1-.33-1.43-.5L32.54,137l-1.36-.53-1.11-.42-1.28-.55-1-.44c-.42-.19-.8-.38-1.2-.58s-.64-.29-.94-.45-.76-.41-1.14-.62l-.81-.44c-.41-.24-.79-.48-1.18-.73l-.58-.36c-.56-.37-1.08-.75-1.57-1.13-3.16-2.47-4.66-5-4.66-7.45v13.41c0,2.47,1.5,5,4.66,7.46.49.38,1,.76,1.56,1.13l.58.35c.39.25.77.5,1.19.74.25.15.53.29.79.43s.75.43,1.16.63l.93.45,1.2.58c.33.15.68.29,1,.43s.85.38,1.29.56l1.12.42,1.36.53,1.21.41c.47.17.94.34,1.43.5l1.29.4,1.5.47.08,0c.31.1.65.18,1,.28l2,.55,1.27.33,1.88.47.23.06c.85.21,1.72.41,2.6.6l.12,0c.93.21,1.88.41,2.84.61l.28.05.75.15,2.38.46,1,.18.77.14.76.12c1.13.2,2.27.38,3.42.56L60,157l.42.06c1.44.22,2.89.42,4.37.62h.06l.41,0,3.89.47.45.05,1,.11c1,.11,1.94.21,2.92.3l.77.09.9.07,2.83.25,1,.09.63,0q1.5.12,3,.21l1.16.09h.35c1.25.08,2.5.15,3.76.21l.68,0h.07c1.5.07,3,.13,4.52.18h.18l1.19,0,3.16.08h1.79c.91,0,1.83,0,2.74,0h5.46l1,0,3-.05,1.08,0,.71,0c1.35,0,2.7-.08,4-.14l.87,0h.26l1.82-.09,2.46-.13,1.88-.12,2-.13.37,0c1.6-.11,3.2-.24,4.79-.38Z"/><ellipse class="money-cls-13" cx="103.89" cy="123.42" rx="23.25" ry="88.18" transform="translate(-19.65 227.16) rotate(-89.94)"/></g><g class="money-cls-2"><path class="money-cls-3" d="M112.16,117.91c6.3,4.52.66,9-28.41,11.09l-2.24.16c1.33,1,2.64,1.89,4,2.82l31.16-2.19,3,2.12-31.12,2.18c1.88,1.32,3.79,2.64,5.77,4l15.42-.37,2.07,1.48-14.32,1-12.67.89L71.46,142l-2.06-1.48L81.94,139q-2.7-2-5.51-4.05l-15,1.06-2.95-2.12,15.05-1.06L69.57,130l-15.06,1.05-2.94-2.11,15.06-1.06-2.07-1.48c-4.93-3.52-9.86-7.05-15-10.57l-14.24.34-2.06-1.48,20.13-1.42,14.77-1C89.67,110.72,105.61,113.22,112.16,117.91Zm-33.6,9.14,3.58-.26c18.79-1.32,22.41-4.36,17.34-8-5.6-4-16.24-5.77-32.36-4.64l-5.67.4c4.73,3.62,9.84,7.28,15,11l2.07,1.48"/></g><g class="money-cls-2"><path class="money-cls-3" d="M121.59,112.23c6.31,4.52.67,9-28.4,11.09l-2.25.15,4,2.83,31.16-2.19,2.95,2.11L97.9,128.41c1.88,1.32,3.79,2.64,5.77,4l15.42-.37,2.07,1.48-14.32,1-12.67.89-13.27.93-2.07-1.48,12.55-1.54q-2.7-2-5.51-4.05l-15,1.05L67.9,128.2l15-1.06L79,124.31,64,125.37l-3-2.11,15.06-1.06L74,120.72c-4.93-3.53-9.86-7.06-15-10.57l-14.23.33L42.75,109l20.13-1.42,14.76-1C99.11,105,115,107.54,121.59,112.23ZM88,121.36l3.58-.25c18.8-1.32,22.41-4.36,17.35-8-5.61-4-16.25-5.77-32.36-4.64l-5.67.4c4.73,3.62,9.84,7.28,15,11L88,121.36"/></g><g class="money-cls-4"><g class="money-cls-4"><g class="money-cls-14"><g class="money-cls-4"><path class="money-cls-6" d="M116.79,142.59V129.17c5.63-.49,10.94-1.12,15.9-1.87v13.42c-5,.75-10.27,1.38-15.9,1.87"/><path class="money-cls-7" d="M132.69,140.72V127.3q5.94-.9,11.2-2l0,13.42c-3.49.74-7.23,1.41-11.19,2"/><path class="money-cls-8" d="M160.47,120.66c-1.29.48-2.64.94-4.06,1.39-1.66.53-3.41,1-5.24,1.52h0c-2.29.61-4.72,1.18-7.27,1.72l0,13.42q3.84-.81,7.27-1.72h0c1.84-.49,3.59-1,5.24-1.52,1.42-.45,2.78-.91,4.06-1.39s2.26-.86,3.3-1.31V119.35C162.72,119.8,161.62,120.24,160.47,120.66Z"/><path class="money-cls-9" d="M175.12,111.71A13.33,13.33,0,0,1,174,113a17.55,17.55,0,0,1-1.4,1.27c-.52.43-1.08.85-1.69,1.26s-1.29.85-2,1.26-1.52.85-2.35,1.26-1.79.86-2.77,1.28v13.42c1-.42,1.89-.84,2.76-1.28s1.62-.83,2.36-1.26,1.38-.83,2-1.26,1.17-.83,1.69-1.26a16.15,16.15,0,0,0,1.41-1.27h0a14.64,14.64,0,0,0,1.13-1.31Z"/><path class="money-cls-9" d="M176,110.35a10.61,10.61,0,0,1-.86,1.36l0,13.42a8.79,8.79,0,0,0,.86-1.36,6.65,6.65,0,0,0,.57-1.4l0-13.42A7.92,7.92,0,0,1,176,110.35Z"/><path class="money-cls-10" d="M176.53,122.37l0-13.42a6.68,6.68,0,0,0,.24-1.52l0,13.42a6.17,6.17,0,0,1-.24,1.52"/><path class="money-cls-11" d="M176.77,120.85l0-13.42v13.21a1.48,1.48,0,0,1,0,.21"/></g></g><path class="money-cls-1" d="M176.79,107.22v13.42c0,9.7-23.21,18.72-60,22V129.17C153.58,125.94,176.78,116.92,176.79,107.22Z"/></g><path class="money-cls-12" d="M116.8,129.17c-1.59.14-3.19.27-4.79.38l-2.34.16-1.88.12-2.46.13-1.82.09-1.13,0c-1.35.06-2.7.11-4,.14l-1.79.05-3,.05-1.88,0H87.08c-.92,0-1.83,0-2.75,0l-1.78,0-3.16-.08-1.37,0c-1.52-.05-3-.11-4.52-.18l-.74,0-3.77-.2-1.5-.1-3-.22-1.67-.13L60,129.07l-1.67-.15-2.93-.31-1.48-.16L50,128l-.47-.06c-1.48-.19-2.94-.4-4.38-.62L44,127.12c-1.16-.18-2.3-.37-3.43-.57L39,126.29l-1-.18-2.38-.46-.75-.15c-1.06-.21-2.1-.43-3.11-.66l-.16,0c-.95-.21-1.88-.43-2.8-.66L27,123.68l-1.28-.33-1.95-.55-1.05-.3-1.5-.47-1.29-.4-1.43-.49-1.21-.42c-.47-.17-.91-.35-1.36-.53l-1.12-.42-1.28-.55-1-.44-1.19-.57c-.31-.16-.64-.3-.94-.46s-.77-.41-1.14-.62-.56-.29-.81-.44c-.42-.24-.79-.48-1.18-.73l-.58-.36c-.56-.37-1.08-.75-1.57-1.13C1.89,112,.39,109.48.39,107v13.42c0,2.46,1.49,5,4.65,7.45.49.38,1,.76,1.57,1.13l.57.35c.39.25.78.5,1.19.74.26.15.53.29.8.43s.75.43,1.16.63l.93.45c.39.19.78.39,1.2.58l1,.44c.43.18.84.37,1.29.55l1.11.42c.45.18.9.36,1.37.53l1.2.41c.48.17.94.34,1.43.5s.86.27,1.3.4,1,.32,1.49.47l.08,0,1,.28,2,.55,1.27.33,1.88.47.23.06c.85.21,1.72.41,2.6.61l.12,0,2.83.61.28,0,.76.15,2.37.46,1,.18.78.14.76.12c1.12.2,2.26.38,3.42.56l.78.13.41.06c1.44.22,2.9.43,4.38.62h0l.41.05,3.9.47.44,0,1,.11,2.92.31.78.08.89.07,2.83.25,1,.09.64,0q1.48.12,3,.21l1.16.09.35,0,3.76.2.67,0h.07c1.5.07,3,.13,4.52.18h.19l1.19,0,3.15.08h1.8c.91,0,1.82,0,2.74,0h5.46l1,0,3-.05,1.08,0,.71,0c1.35,0,2.7-.08,4.05-.14l.87,0h.26l1.81-.09,2.46-.13,1.88-.12,2-.13.37,0c1.6-.11,3.2-.24,4.8-.38Z"/><ellipse class="money-cls-13" cx="88.59" cy="107.12" rx="23.25" ry="88.18" transform="translate(-18.62 195.59) rotate(-89.94)"/></g><g class="money-cls-2"><path class="money-cls-3" d="M121.59,97.68c6.31,4.52.67,9-28.4,11.09l-2.25.16,4,2.83,31.16-2.2,2.95,2.12L97.9,113.87c1.88,1.32,3.79,2.63,5.77,4l15.42-.37,2.07,1.48-14.32,1-12.67.9-13.27.93-2.07-1.48,12.55-1.55q-2.7-2-5.51-4.05l-15,1.06-2.95-2.11,15-1.06L79,109.77,64,110.83l-3-2.11,15.06-1.06L74,106.18c-4.93-3.53-9.86-7.06-15-10.58l-14.23.34-2.06-1.48,20.13-1.41,14.76-1C99.11,90.5,115,93,121.59,97.68ZM88,106.82l3.58-.25c18.8-1.32,22.41-4.37,17.35-8-5.61-4-16.25-5.77-32.36-4.63l-5.67.4c4.73,3.61,9.84,7.27,15,11L88,106.82"/></g><g class="money-cls-2"><path class="money-cls-3" d="M121.6,92c6.31,4.52.66,9-28.41,11.09l-2.24.16,4,2.82,31.16-2.19,3,2.12L97.9,108.19c1.89,1.31,3.79,2.63,5.78,4l15.42-.36,2.07,1.48-14.32,1-12.68.89-13.26.94-2.07-1.48,12.55-1.55q-2.7-2-5.51-4l-15,1.06-3-2.12,15-1c-1.3-.94-2.61-1.89-3.93-2.83L64,105.15,61,103,76.07,102,74,100.5c-4.92-3.53-9.85-7.06-15-10.58l-14.23.34-2.06-1.48,20.12-1.42,14.77-1C99.11,84.82,115.05,87.31,121.6,92ZM88,101.14l3.58-.25c18.8-1.33,22.41-4.37,17.34-8-5.6-4-16.24-5.77-32.35-4.64l-5.68.4c4.73,3.62,9.85,7.28,15,11L88,101.14"/></g><g class="money-cls-4"><g class="money-cls-4"><g class="money-cls-15"><g class="money-cls-4"><path class="money-cls-6" d="M135.12,131.64l0-13.42c5.63-.5,10.94-1.13,15.9-1.88l0,13.42c-5,.75-10.27,1.38-15.9,1.88"/><path class="money-cls-7" d="M151,129.76l0-13.42c4-.59,7.7-1.27,11.19-2v13.42c-3.5.74-7.23,1.42-11.2,2"/><path class="money-cls-8" d="M178.8,109.71c-1.28.47-2.64.94-4.06,1.39-1.65.52-3.4,1-5.24,1.51h0q-3.44.92-7.27,1.72v13.42c2.55-.54,5-1.11,7.27-1.72h0c1.83-.48,3.58-1,5.24-1.51,1.42-.45,2.77-.92,4.06-1.39s2.25-.87,3.29-1.32l0-13.42Q180.54,109.07,178.8,109.71Z"/><path class="money-cls-9" d="M193.45,100.75a13.37,13.37,0,0,1-1.13,1.31,16.2,16.2,0,0,1-1.41,1.28c-.51.42-1.08.84-1.69,1.26s-1.29.84-2,1.26-1.52.84-2.35,1.26-1.8.86-2.77,1.27l0,13.42c1-.41,1.9-.84,2.77-1.27s1.62-.84,2.35-1.26,1.39-.84,2-1.26,1.17-.84,1.69-1.26,1-.85,1.4-1.28h0a12.27,12.27,0,0,0,1.14-1.31Z"/><path class="money-cls-9" d="M194.31,99.4a9.22,9.22,0,0,1-.86,1.35v13.42a10.14,10.14,0,0,0,.86-1.35,8.33,8.33,0,0,0,.57-1.41V98A7,7,0,0,1,194.31,99.4Z"/><path class="money-cls-10" d="M194.87,111.41V98a6.11,6.11,0,0,0,.25-1.52l0,13.42a6.6,6.6,0,0,1-.24,1.52"/><path class="money-cls-11" d="M195.11,109.89l0-13.42v-.21l0,13.42v.21"/></g></g><path class="money-cls-1" d="M195.13,96.26l0,13.42c0,9.7-23.21,18.72-60,22l0-13.42C171.92,115,195.12,106,195.13,96.26Z"/></g><path class="money-cls-12" d="M135.14,118.22c-1.6.14-3.2.26-4.8.38l-2.34.15c-.62,0-1.25.09-1.88.12l-2.46.13-1.81.09-1.13,0-4,.14-1.79,0c-1,0-2,0-3,.06l-1.87,0h-4.62l-2.75,0-1.78,0-3.17-.08-1.37,0c-1.51,0-3-.11-4.51-.18l-.75,0c-1.26-.07-2.52-.13-3.76-.21l-1.5-.1-3-.21-1.68-.14-2.83-.24L76.64,118l-2.92-.3-1.49-.16q-2-.23-3.9-.48l-.46-.06c-1.48-.19-2.94-.4-4.38-.62l-1.19-.18-3.42-.56-1.54-.27-1-.18L54,114.7l-.76-.15-3.11-.66-.15,0c-.95-.21-1.88-.43-2.8-.65l-1.88-.48L44,112.39l-2-.55c-.35-.1-.71-.19-1-.3l-1.5-.46-1.3-.41-1.43-.49-1.2-.42-1.37-.52c-.37-.14-.75-.28-1.11-.43l-1.28-.55-1-.44-1.2-.57-.93-.45-1.15-.62-.81-.44c-.41-.24-.79-.49-1.17-.73l-.59-.37c-.55-.37-1.08-.75-1.57-1.13-3.16-2.47-4.66-5-4.65-7.45l0,13.42c0,2.47,1.5,5,4.66,7.45.49.38,1,.76,1.57,1.13l.57.36c.39.25.77.49,1.19.74l.79.43,1.16.63.93.44c.4.2.79.39,1.21.58s.68.29,1,.44.84.37,1.29.55.74.29,1.11.43l1.36.52,1.21.42,1.43.49,1.29.41L41,125l.08,0,1,.27,2,.55,1.27.33,1.87.48.23.06,2.6.6.12,0c.93.2,1.88.41,2.84.6l.28.06.75.15,2.38.45,1,.18.77.14.76.13,3.42.56.78.13.42,0c1.44.22,2.89.43,4.38.62h0l.41.05c1.28.17,2.58.32,3.89.47l.45.06,1,.11,2.92.3.77.08.9.08,2.83.24,1,.09.63,0,3,.21,1.16.08.36,0c1.24.08,2.49.14,3.75.21l.68,0h.07c1.5.07,3,.13,4.52.18h.18l1.19,0,3.16.08h.42l1.37,0,2.74,0h5.46l1,0,3-.06,1.08,0,.71,0,4.06-.14c.28,0,.57,0,.86,0l.26,0c.61,0,1.21-.06,1.82-.09l2.46-.13c.63,0,1.25-.08,1.88-.12l2-.12.37,0c1.6-.12,3.2-.24,4.79-.38Z"/><ellipse class="money-cls-13" cx="106.93" cy="96.16" rx="23.25" ry="88.18" transform="translate(10.65 202.98) rotate(-89.94)"/></g><g class="money-cls-2"><path class="money-cls-3" d="M121.6,77.46c6.31,4.52.66,9-28.41,11.08L91,88.7l4,2.83,31.16-2.19,3,2.11L97.9,93.64c1.89,1.32,3.79,2.64,5.78,4l15.42-.37,2.07,1.48-14.32,1-12.68.89-13.26.93-2.07-1.48,12.55-1.55q-2.7-2-5.51-4l-15,1.05-3-2.11,15-1.06L79,89.54,64,90.6l-3-2.11,15.06-1.06L74,86c-4.92-3.53-9.85-7.06-15-10.57l-14.23.33-2.06-1.47,20.12-1.42,14.77-1C99.11,70.27,115.05,72.77,121.6,77.46ZM88,86.59l3.58-.25c18.8-1.32,22.41-4.36,17.34-8-5.6-4-16.24-5.77-32.35-4.64l-5.68.4c4.73,3.62,9.85,7.28,15,11L88,86.59"/></g><g class="money-cls-2"><path class="money-cls-3" d="M132.66,87c6.31,4.52.66,9-28.41,11.09l-2.24.16,4,2.83,31.16-2.19,3,2.11L109,103.22c1.89,1.32,3.79,2.64,5.78,4l15.42-.37,2.07,1.48-14.32,1-12.68.89L92,111.14l-2.07-1.48,12.55-1.55q-2.7-2-5.51-4l-15,1.06L79,103,94,102l-3.93-2.83L75,100.18l-3-2.11L87.13,97l-2.07-1.48C80.14,92,75.21,88.47,70.11,85l-14.23.34-2.06-1.48L74,82.4l14.76-1C110.17,79.85,126.11,82.34,132.66,87Zm-33.6,9.14,3.58-.25c18.8-1.32,22.41-4.36,17.34-8-5.6-4-16.24-5.78-32.35-4.64l-5.68.4c4.73,3.61,9.85,7.28,15,11l2.06,1.48"/></g><g class="money-cls-4"><g class="money-cls-4"><g class="money-cls-16"><g class="money-cls-4"><path class="money-cls-6" d="M127.86,117.4V104c5.63-.5,10.94-1.13,15.9-1.87l0,13.42c-4.95.74-10.27,1.37-15.89,1.87"/><path class="money-cls-7" d="M143.75,115.53l0-13.42q5.94-.9,11.2-2l0,13.42c-3.49.73-7.23,1.41-11.2,2"/><path class="money-cls-8" d="M171.54,95.47c-1.29.47-2.64.94-4.06,1.39q-2.49.78-5.24,1.52h0c-2.29.6-4.72,1.18-7.27,1.72l0,13.42c2.56-.54,5-1.12,7.27-1.72h0c1.84-.49,3.58-1,5.24-1.52,1.42-.45,2.78-.92,4.06-1.39s2.25-.87,3.3-1.31V94.16C173.79,94.6,172.69,95,171.54,95.47Z"/><path class="money-cls-9" d="M186.19,86.51a12.27,12.27,0,0,1-1.14,1.31,17.61,17.61,0,0,1-1.4,1.28c-.52.42-1.09.84-1.69,1.26s-1.29.84-2,1.26-1.52.84-2.35,1.26-1.8.86-2.77,1.28v13.42c1-.42,1.89-.85,2.76-1.28s1.62-.84,2.36-1.26,1.38-.84,2-1.26,1.17-.84,1.69-1.26,1-.85,1.41-1.28h0a13.37,13.37,0,0,0,1.13-1.31Z"/><path class="money-cls-9" d="M187.05,85.16a11.26,11.26,0,0,1-.86,1.35l0,13.42a10.14,10.14,0,0,0,.86-1.35,8.33,8.33,0,0,0,.57-1.41V83.75A7.52,7.52,0,0,1,187.05,85.16Z"/><path class="money-cls-10" d="M187.6,97.17V83.75a6.11,6.11,0,0,0,.25-1.52l0,13.42a6.6,6.6,0,0,1-.24,1.52"/><path class="money-cls-11" d="M187.84,95.65l0-13.42V95.44a1.48,1.48,0,0,1,0,.21"/></g></g><path class="money-cls-1" d="M187.86,82V95.44c0,9.7-23.22,18.72-60,22V104C164.65,100.74,187.85,91.72,187.86,82Z"/></g><path class="money-cls-12" d="M127.87,104c-1.59.14-3.19.27-4.8.38l-2.33.16-1.88.11-2.46.13-1.82.09-1.13.05-4,.14-1.79,0-3,0-1.88,0H98.15l-2.75,0c-.59,0-1.19,0-1.78,0L90.45,105l-1.36,0c-1.52,0-3-.11-4.52-.18l-.75,0c-1.26-.06-2.51-.13-3.76-.21l-1.5-.1c-1-.07-2-.13-3-.21l-1.67-.14c-.95-.07-1.9-.15-2.83-.24l-1.68-.16c-1-.09-2-.2-2.92-.3L65,103.26q-2-.23-3.9-.48l-.46,0-4.38-.62L55,101.92l-3.43-.56c-.51-.09-1-.17-1.53-.27l-1-.17-2.38-.46-.76-.15c-1.05-.21-2.09-.43-3.11-.66l-.15,0c-1-.21-1.88-.43-2.8-.65L38,98.48c-.43-.11-.86-.21-1.28-.33-.66-.17-1.31-.36-2-.55l-1-.29-1.5-.47L31,96.43l-1.43-.49-1.21-.42L27,95c-.37-.14-.75-.28-1.11-.43L24.56,94l-1-.45c-.41-.18-.8-.38-1.19-.57l-.94-.45c-.4-.2-.77-.41-1.15-.62s-.55-.29-.8-.44c-.42-.24-.8-.49-1.18-.73-.19-.12-.4-.24-.59-.37-.55-.37-1.08-.74-1.56-1.13-3.17-2.47-4.67-5-4.66-7.45l0,13.42c0,2.47,1.5,5,4.66,7.45.49.39,1,.76,1.57,1.13l.57.36c.39.25.77.5,1.19.74l.79.43,1.16.63.93.45,1.21.57,1,.44c.43.19.84.37,1.29.55s.74.29,1.11.43l1.36.52,1.21.42,1.43.49,1.29.41,1.5.47.08,0,1,.27c.65.19,1.29.38,2,.55.41.12.85.22,1.27.33l1.88.48.23.06,2.59.6.13,0c.93.21,1.87.41,2.83.6l.28.06.75.15c.79.15,1.58.31,2.38.45.33.07.65.13,1,.18l.78.15.76.12,3.42.56.77.13.42.06,4.38.62h0l.41,0c1.28.17,2.58.33,3.89.48l.45,0,1,.11c1,.1,1.94.21,2.92.3l.78.08.89.08c.94.09,1.88.17,2.83.24.35,0,.69.07,1,.09l.64.05,3,.21,1.16.08.35,0c1.24.08,2.5.14,3.75.21l.68,0h.07c1.5.07,3,.13,4.52.18h.19c.39,0,.79,0,1.19,0,1,0,2.09.06,3.15.08l.42,0H95.4l2.73,0h5.46l1,0q1.49,0,3-.06l1.08,0,.71,0,4-.14.87,0,.25,0c.61,0,1.22-.06,1.82-.09l2.46-.13c.63,0,1.25-.08,1.88-.12l2-.12.37,0c1.6-.12,3.2-.24,4.8-.38Z"/><ellipse class="money-cls-13" cx="99.66" cy="81.92" rx="23.25" ry="88.18" transform="translate(17.63 181.49) rotate(-89.94)"/></g><g class="money-cls-2"><path class="money-cls-3" d="M132.66,72.49c6.31,4.52.66,9-28.41,11.09l-2.24.16,4,2.82,31.16-2.19,3,2.11L109,88.67c1.89,1.32,3.79,2.64,5.78,4l15.42-.37,2.07,1.48-14.32,1-12.68.89L92,96.59,89.9,95.11l12.55-1.54q-2.7-2-5.51-4l-15,1.06-3-2.12L94,87.4l-3.93-2.83L75,85.63l-3-2.11,15.06-1.06L85.06,81c-4.92-3.53-9.85-7.06-15-10.57l-14.23.33-2.06-1.47L74,67.85l14.76-1C110.17,65.3,126.11,67.8,132.66,72.49Zm-33.6,9.13,3.58-.25c18.8-1.32,22.41-4.36,17.34-8-5.6-4-16.24-5.77-32.35-4.64l-5.68.4c4.73,3.62,9.85,7.28,15,11l2.06,1.48"/></g><g class="money-cls-4"><g class="money-cls-4"><g class="money-cls-17"><g class="money-cls-4"><path class="money-cls-6" d="M141,100V86.61c5.63-.49,10.94-1.12,15.9-1.87V98.16c-5,.74-10.27,1.38-15.9,1.87"/><path class="money-cls-7" d="M156.88,98.16V84.74q5.94-.9,11.2-2l0,13.42c-3.49.74-7.23,1.41-11.19,2"/><path class="money-cls-8" d="M184.66,78.1c-1.29.48-2.64.94-4.06,1.39q-2.49.78-5.24,1.52h0c-2.29.6-4.72,1.18-7.27,1.72l0,13.42c2.56-.54,5-1.12,7.27-1.72h0q2.76-.74,5.24-1.52c1.42-.45,2.78-.91,4.06-1.39s2.26-.87,3.3-1.31V76.79C186.91,77.23,185.81,77.67,184.66,78.1Z"/><path class="money-cls-9" d="M199.31,69.14a12.27,12.27,0,0,1-1.14,1.31,17.61,17.61,0,0,1-1.4,1.28c-.52.43-1.09.85-1.69,1.26s-1.29.85-2,1.26-1.52.85-2.35,1.26-1.79.86-2.77,1.28V90.21c1-.42,1.89-.85,2.76-1.28s1.62-.83,2.36-1.26,1.38-.83,2-1.26,1.17-.84,1.69-1.26a17.81,17.81,0,0,0,1.41-1.28h0a13.37,13.37,0,0,0,1.13-1.31Z"/><path class="money-cls-9" d="M200.17,67.79a9.87,9.87,0,0,1-.86,1.35l0,13.42a8.72,8.72,0,0,0,.86-1.35,7.31,7.31,0,0,0,.57-1.41V66.38A7,7,0,0,1,200.17,67.79Z"/><path class="money-cls-10" d="M200.72,79.8V66.38a6.11,6.11,0,0,0,.25-1.51l0,13.42a6.09,6.09,0,0,1-.24,1.51"/><path class="money-cls-11" d="M201,78.29l0-13.42V78.08a1.48,1.48,0,0,1,0,.21"/></g></g><path class="money-cls-1" d="M201,64.66V78.08c0,9.69-23.21,18.71-60,22V86.61C177.77,83.37,201,74.35,201,64.66Z"/></g><path class="money-cls-12" d="M141,86.61c-1.59.14-3.19.27-4.79.38l-2.34.16-1.88.12-2.46.12-1.82.1-1.13,0-4,.14-1.79,0-3,0-1.88,0h-4.62c-.92,0-1.83,0-2.75,0l-1.78,0-3.16-.08-1.37,0c-1.52,0-3-.11-4.52-.18l-.74,0c-1.27-.06-2.52-.13-3.77-.21l-1.5-.1c-1-.06-2-.13-3-.21L87,86.76l-2.83-.25-1.67-.16c-1-.09-2-.19-2.93-.3l-1.49-.16c-1.31-.15-2.61-.31-3.89-.48l-.47,0-4.38-.62-1.18-.19c-1.16-.18-2.3-.36-3.43-.56l-1.53-.26-1-.18-2.38-.46-.75-.15C58,82.73,57,82.51,56,82.28l-.16,0L53,81.59c-.63-.15-1.25-.32-1.87-.48l-1.28-.32-1.95-.55-1.05-.3-1.5-.47-1.29-.4-1.43-.5c-.4-.14-.82-.27-1.21-.42l-1.36-.52c-.37-.14-.76-.28-1.12-.43s-.85-.36-1.28-.54l-1-.44-1.19-.58-.94-.45c-.4-.2-.77-.41-1.15-.62s-.55-.29-.8-.44c-.42-.24-.8-.49-1.18-.73L30.8,73c-.55-.38-1.07-.75-1.56-1.13-3.16-2.48-4.66-5-4.66-7.46l0,13.42c0,2.47,1.5,5,4.66,7.46.49.38,1,.75,1.57,1.12.18.13.38.24.57.36.39.25.77.5,1.19.74.25.15.53.29.79.43l1.16.63.93.45c.4.19.79.39,1.21.58l1,.43c.43.19.84.37,1.29.55s.74.29,1.11.43l1.36.52c.4.15.81.28,1.21.42l1.43.5,1.29.4,1.5.47.08,0,1,.28,2,.55,1.27.32c.62.16,1.24.33,1.88.48l.23.06c.85.21,1.72.41,2.6.6l.12,0,2.83.61.28,0,.75.15L62.2,97l1,.18.78.14.76.12c1.12.2,2.26.38,3.42.56l.78.13.41.06,4.38.62h.05l.41,0q1.92.26,3.9.48l.44,0,1,.11c1,.11,1.94.21,2.92.3l.78.08.89.08,2.83.25c.35,0,.69.06,1,.09l.64,0c1,.08,2,.14,3,.21l1.16.08.35,0c1.24.08,2.5.15,3.76.21l.67,0h.07c1.5.07,3,.13,4.52.18h.19l1.19,0,3.15.08h1.8c.91,0,1.82,0,2.73,0h5.46l1,0,3,0,1.08,0,.71,0,4-.14.87,0h.25l1.82-.1,2.46-.12,1.88-.12,2-.13.37,0c1.6-.11,3.2-.24,4.8-.38Z"/><ellipse class="money-cls-13" cx="112.78" cy="64.55" rx="23.25" ry="88.18" transform="translate(48.1 177.26) rotate(-89.94)"/></g><g class="money-cls-2"><path class="money-cls-3" d="M119.76,49.44c6.3,4.52.66,9-28.41,11.09l-2.24.15c1.33,1,2.64,1.9,4,2.83l31.16-2.19,3,2.11L96.06,65.62c1.88,1.32,3.79,2.64,5.77,4l15.42-.37,2.07,1.48-14.32,1-12.67.89-13.27.93L77,72.06l12.54-1.54q-2.7-2-5.51-4L69,67.53l-3-2.12,15-1.06-3.94-2.83L62.11,62.58l-2.94-2.11,15.06-1.06-2.07-1.48c-4.93-3.53-9.85-7.06-14.95-10.57L43,47.69l-2.07-1.47L61,44.8l14.77-1C97.27,42.25,113.21,44.75,119.76,49.44Zm-33.6,9.13,3.58-.25c18.79-1.32,22.41-4.36,17.34-8-5.6-4-16.24-5.77-32.36-4.64l-5.67.4c4.73,3.62,9.84,7.28,15,11l2.07,1.48"/></g><g class="money-cls-4"><g class="money-cls-4"><g class="money-cls-18"><g class="money-cls-4"><path class="money-cls-6" d="M124.17,89.07V75.66c5.63-.5,10.94-1.13,15.9-1.88V87.2c-5,.75-10.27,1.38-15.9,1.87"/><path class="money-cls-7" d="M140.07,87.2V73.78q6-.9,11.2-2l0,13.42c-3.49.74-7.23,1.41-11.19,2"/><path class="money-cls-8" d="M167.85,67.14c-1.29.48-2.64.94-4.06,1.39-1.66.53-3.41,1-5.24,1.52h0c-2.29.61-4.72,1.18-7.27,1.72l0,13.42c2.56-.54,5-1.11,7.27-1.72h0c1.84-.49,3.59-1,5.24-1.52,1.43-.45,2.78-.91,4.06-1.39s2.26-.86,3.3-1.31V65.83C170.1,66.28,169,66.72,167.85,67.14Z"/><path class="money-cls-9" d="M182.5,58.19a13.33,13.33,0,0,1-1.14,1.31,17.55,17.55,0,0,1-1.4,1.27c-.52.43-1.08.85-1.69,1.26s-1.29.85-2,1.26-1.52.85-2.35,1.26-1.79.86-2.77,1.28V79.25c1-.42,1.9-.84,2.77-1.28s1.61-.83,2.35-1.26,1.38-.83,2-1.26a19.54,19.54,0,0,0,1.69-1.26,16.15,16.15,0,0,0,1.41-1.27h0a14.64,14.64,0,0,0,1.13-1.31Z"/><path class="money-cls-9" d="M183.36,56.84a10.14,10.14,0,0,1-.86,1.35l0,13.42a9.22,9.22,0,0,0,.86-1.35,7,7,0,0,0,.57-1.41l0-13.42A8.33,8.33,0,0,1,183.36,56.84Z"/><path class="money-cls-10" d="M183.91,68.85l0-13.42a6.68,6.68,0,0,0,.24-1.52V67.33a6.19,6.19,0,0,1-.25,1.52"/><path class="money-cls-11" d="M184.16,67.33v0"/></g></g><path class="money-cls-1" d="M184.17,53.7V67.12c0,9.7-23.21,18.72-60,21.95V75.66C161,72.42,184.16,63.4,184.17,53.7Z"/></g><path class="money-cls-12" d="M124.18,75.66c-1.59.14-3.19.26-4.79.38l-2.34.15-1.88.12-2.46.13-1.82.09-1.12,0-4,.15-1.8,0-3,.06-1.88,0H94.46l-2.75,0-1.78,0-3.16-.08-1.37,0c-1.51,0-3-.11-4.52-.18l-.74,0-3.77-.2-1.49-.1-3-.22-1.67-.13-2.83-.25-1.67-.15-2.93-.31-1.48-.16-3.9-.47-.46-.06c-1.49-.19-2.94-.4-4.38-.62l-1.19-.18L47.92,73l-1.53-.27-1-.18L43,72.13,42.28,72l-3.11-.66-.16,0c-.95-.21-1.88-.43-2.8-.65l-1.87-.48-1.27-.33-2-.55L30.06,69l-1.5-.47-1.29-.4-1.43-.49-1.21-.42-1.36-.52-1.11-.43c-.45-.18-.86-.37-1.29-.55l-1-.44-1.19-.57c-.31-.15-.64-.3-.94-.46s-.77-.41-1.14-.62l-.81-.44c-.41-.24-.79-.48-1.18-.73L14,62.08c-.56-.37-1.08-.75-1.57-1.13-3.16-2.47-4.66-5-4.66-7.45V66.92c0,2.47,1.49,5,4.65,7.45.49.38,1,.76,1.57,1.13l.57.35c.39.25.78.5,1.19.74s.53.29.8.43.75.43,1.16.63.62.3.93.45.78.39,1.2.58l1,.44,1.29.55,1.11.43,1.37.52,1.2.42,1.44.49c.41.14.86.27,1.29.4s1,.32,1.5.47l.07,0,1,.27,1.95.55,1.27.33c.62.16,1.24.32,1.88.47l.23.06c.85.21,1.72.41,2.6.61l.12,0,2.83.61.28.05c.25.06.51.1.76.15l2.37.46,1,.18.78.14.76.13,3.42.56.78.12.41.06c1.44.22,2.9.43,4.38.62H57l.41,0,3.9.47.44.06,1.06.1,2.91.31.78.08.89.07,2.83.25,1,.09.64,0,3,.22,1.16.08.35,0,3.76.2.67,0h.08c1.49.07,3,.13,4.51.18h.19l1.19,0,3.15.08h.42l1.38,0,2.74,0H101l3-.06,1.08,0,.71,0c1.35,0,2.7-.08,4-.14.29,0,.58,0,.87,0h.26l1.82-.09,2.45-.13,1.88-.12,2-.13c.13,0,.25,0,.37,0,1.61-.11,3.2-.23,4.8-.38Z"/><ellipse class="money-cls-13" cx="95.97" cy="53.6" rx="23.25" ry="88.18" transform="matrix(0, -1, 1, 0, 42.27, 149.51)"/></g><g class="money-cls-2"><path class="money-cls-3" d="M119.76,34.89c6.3,4.52.66,9-28.41,11.09l-2.24.16,4,2.83,31.16-2.19,3,2.11L96.06,51.08c1.88,1.32,3.79,2.64,5.77,4l15.42-.37,2.07,1.48-14.32,1-12.67.9L79.06,59,77,57.52,89.54,56q-2.7-2-5.51-4L69,53l-3-2.11,15-1.06L77.17,47,62.11,48l-2.94-2.11,15.06-1.06-2.07-1.48c-4.93-3.53-9.85-7.06-14.95-10.58L43,33.15l-2.07-1.48L61,30.26l14.77-1C97.27,27.71,113.21,30.2,119.76,34.89ZM86.16,44l3.58-.25c18.79-1.32,22.41-4.36,17.34-8-5.6-4-16.24-5.78-32.36-4.64l-5.67.4c4.73,3.61,9.84,7.27,15,11L86.16,44"/></g><g class="money-cls-2"><path class="money-cls-3" d="M130.82,44.47c6.3,4.52.66,9.05-28.41,11.09l-2.24.16,4,2.82,31.16-2.19,3,2.12-31.12,2.19c1.88,1.31,3.79,2.63,5.77,4l15.43-.36,2.06,1.48-14.31,1-12.68.89-13.26.94L88.06,67.1l12.54-1.55c-1.8-1.34-3.64-2.69-5.5-4l-15,1.06-2.95-2.12,15-1-3.94-2.83L73.17,57.62l-2.94-2.11,15.06-1.06L83.22,53c-4.93-3.53-9.85-7.06-15-10.58L54,42.73,52,41.25,72.1,39.83l14.77-1C108.33,37.29,124.27,39.78,130.82,44.47Zm-33.6,9.14,3.58-.25c18.79-1.33,22.41-4.37,17.34-8-5.6-4-16.24-5.77-32.36-4.64l-5.67.4c4.73,3.62,9.84,7.28,15,11l2.07,1.48"/></g><g class="money-cls-4"><g class="money-cls-4"><g class="money-cls-19"><g class="money-cls-4"><path class="money-cls-6" d="M126,74.84l0-13.42c5.63-.5,10.94-1.13,15.9-1.88l0,13.42c-5,.75-10.27,1.38-15.9,1.88"/><path class="money-cls-7" d="M141.91,73l0-13.42c4-.59,7.7-1.27,11.19-2V71q-5.25,1.11-11.2,2"/><path class="money-cls-8" d="M169.69,52.91c-1.28.47-2.64.94-4.06,1.39-1.65.52-3.4,1-5.24,1.51h0q-3.44.91-7.27,1.72V71c2.55-.54,5-1.11,7.27-1.72h0c1.83-.48,3.58-1,5.24-1.51,1.42-.45,2.77-.92,4.06-1.39s2.25-.87,3.29-1.32l0-13.42Q171.43,52.27,169.69,52.91Z"/><path class="money-cls-9" d="M184.34,44a13.37,13.37,0,0,1-1.13,1.31c-.43.43-.89.85-1.41,1.28s-1.08.84-1.69,1.26-1.29.84-2,1.25-1.52.85-2.36,1.27-1.79.86-2.76,1.27L173,65c1-.42,1.9-.84,2.77-1.27s1.62-.84,2.35-1.27,1.39-.83,2-1.25,1.17-.84,1.69-1.26,1-.85,1.4-1.28h0a12.27,12.27,0,0,0,1.14-1.31Z"/><path class="money-cls-9" d="M185.2,42.6a9.22,9.22,0,0,1-.86,1.35V57.37a11.26,11.26,0,0,0,.86-1.35,8.33,8.33,0,0,0,.57-1.41V41.19A7,7,0,0,1,185.2,42.6Z"/><path class="money-cls-10" d="M185.76,54.61V41.19a6.1,6.1,0,0,0,.24-1.52V53.09a6.6,6.6,0,0,1-.24,1.52"/><path class="money-cls-11" d="M186,53.09V39.67a1.48,1.48,0,0,0,0-.21l0,13.42v.21"/></g></g><path class="money-cls-1" d="M186,39.46l0,13.42c0,9.7-23.21,18.72-60,22l0-13.42C162.81,58.18,186,49.16,186,39.46Z"/></g><path class="money-cls-12" d="M126,61.42c-1.6.14-3.2.26-4.8.38l-2.34.15c-.62,0-1.25.09-1.88.12l-2.46.13c-.6,0-1.21.07-1.82.09l-1.12.05-4,.14-1.79,0-3,.06-1.87,0H96.31l-2.75,0-1.78,0-3.17-.08-1.37,0c-1.51,0-3-.11-4.52-.18l-.74,0c-1.26-.07-2.52-.13-3.76-.21l-1.5-.1-3-.21L72,61.56l-2.83-.24-1.67-.16-2.92-.3-1.49-.17c-1.31-.15-2.61-.3-3.9-.47l-.46-.06c-1.48-.19-2.94-.4-4.38-.62l-1.19-.18-3.42-.56-1.54-.27-1-.18-2.38-.45-.75-.15L41,57.09l-.15,0c-1-.21-1.88-.43-2.8-.65l-1.88-.48-1.27-.33L33,55c-.35-.1-.71-.19-1.06-.3l-1.5-.46-1.29-.41-1.43-.49L26.48,53l-1.37-.52c-.37-.15-.75-.28-1.11-.43l-1.28-.55-1-.44-1.2-.57L19.55,50l-1.14-.62-.81-.44c-.41-.24-.79-.49-1.18-.74l-.58-.36c-.56-.37-1.08-.75-1.57-1.13-3.16-2.47-4.66-5-4.66-7.45V52.68c0,2.47,1.5,5,4.66,7.45.49.38,1,.76,1.56,1.13l.58.36c.39.24.77.49,1.19.74l.79.43c.38.21.75.42,1.16.63l.93.44,1.2.58,1,.44,1.29.55,1.12.43,1.36.52,1.21.42,1.43.49,1.29.41,1.5.46.08,0,1,.27,2,.55,1.27.33,1.88.48.23.06,2.6.6.12,0c.93.2,1.88.41,2.84.6l.28.06.75.15,2.38.45,1,.18.77.14.76.13,3.42.56.78.13.42,0c1.44.22,2.89.43,4.37.62h.06l.41,0c1.28.17,2.58.32,3.89.47l.45.06,1,.11,2.92.3.77.08.9.08L72,75l1,.09.63.05,3,.21,1.16.08.35,0,3.76.2.68,0h.07c1.5.08,3,.13,4.52.18h.18l1.19,0,3.16.08h.42l1.37,0,2.74,0h.62c.42,0,.83,0,1.25,0h3.59l1,0,3-.06,1.08,0,.71,0,4-.14.87,0h.26l1.82-.09,2.46-.13,1.88-.12,2-.12.37,0c1.6-.12,3.2-.24,4.79-.38Z"/><ellipse class="money-cls-13" cx="97.82" cy="39.36" rx="23.25" ry="88.18" transform="matrix(0, -1, 1, 0, 58.35, 137.13)"/></g><g class="money-cls-2"><path class="money-cls-3" d="M130.82,29.93c6.3,4.52.66,9-28.41,11.08l-2.24.16c1.33,1,2.64,1.9,4,2.83l31.16-2.19,3,2.11-31.12,2.19c1.88,1.32,3.79,2.64,5.77,4l15.43-.37,2.06,1.48-14.31,1-12.68.89L90.13,54l-2.07-1.48L100.6,51c-1.8-1.34-3.64-2.69-5.5-4l-15,1L77.12,45.9l15-1.06L88.23,42,73.17,43.07,70.23,41,85.29,39.9l-2.07-1.48c-4.93-3.53-9.85-7.06-15-10.57L54,28.18,52,26.71,72.1,25.29l14.77-1C108.33,22.74,124.27,25.24,130.82,29.93Zm-33.6,9.13,3.58-.25c18.79-1.32,22.41-4.36,17.34-8-5.6-4-16.24-5.77-32.36-4.64l-5.67.4c4.73,3.62,9.84,7.28,15,11l2.07,1.48"/></g><g class="money-cls-4"><g class="money-cls-4"><g class="money-cls-20"><g class="money-cls-4"><path class="money-cls-6" d="M135.56,59.11V45.69c5.63-.5,10.94-1.13,15.9-1.87l0,13.41c-4.95.75-10.27,1.38-15.89,1.88"/><path class="money-cls-7" d="M151.45,57.23l0-13.41c4-.6,7.7-1.28,11.2-2l0,13.42c-3.49.73-7.23,1.41-11.2,2"/><path class="money-cls-8" d="M179.23,37.18c-1.28.47-2.63.94-4,1.39q-2.49.78-5.24,1.52h0c-2.29.6-4.72,1.18-7.27,1.72l0,13.42c2.56-.54,5-1.12,7.27-1.72h0c1.84-.49,3.58-1,5.24-1.52,1.42-.45,2.78-.92,4.06-1.39s2.25-.87,3.3-1.32V35.87C181.49,36.31,180.39,36.75,179.23,37.18Z"/><path class="money-cls-9" d="M193.89,28.22a13.51,13.51,0,0,1-1.14,1.31,16.2,16.2,0,0,1-1.41,1.28c-.51.42-1.08.84-1.69,1.26s-1.29.84-2,1.26-1.52.84-2.35,1.26-1.8.86-2.77,1.28V49.28c1-.41,1.89-.84,2.76-1.27s1.62-.84,2.36-1.26,1.38-.84,2-1.26,1.17-.84,1.69-1.26,1-.85,1.41-1.28h0a13.37,13.37,0,0,0,1.13-1.31Z"/><path class="money-cls-9" d="M194.75,26.87a11.26,11.26,0,0,1-.86,1.35l0,13.42a10.14,10.14,0,0,0,.86-1.35,8.33,8.33,0,0,0,.57-1.41V25.46A7.52,7.52,0,0,1,194.75,26.87Z"/><path class="money-cls-10" d="M195.3,38.88V25.46a6.11,6.11,0,0,0,.25-1.52l0,13.42a6.6,6.6,0,0,1-.24,1.52"/><path class="money-cls-11" d="M195.54,37.36l0-13.42V37.15c0,.07,0,.14,0,.21"/></g></g><path class="money-cls-1" d="M195.56,23.73V37.15c0,9.7-23.22,18.72-60,22V45.69C172.35,42.45,195.55,33.43,195.56,23.73Z"/></g><path class="money-cls-12" d="M135.57,45.69c-1.59.14-3.19.26-4.8.38-.78.06-1.56.1-2.34.15l-1.87.12-2.46.13-1.82.09-1.13,0-4.05.14-1.79,0-3,.06-1.88,0h-4.62l-2.75,0c-.6,0-1.19,0-1.78,0-1.06,0-2.11,0-3.17-.08l-1.36,0c-1.52-.05-3-.11-4.52-.18l-.75,0c-1.26-.06-2.51-.13-3.76-.21l-1.5-.1-3-.21-1.67-.14c-1-.07-1.9-.15-2.84-.24l-1.67-.16c-1-.09-1.95-.2-2.92-.3L72.66,45q-2-.22-3.9-.48l-.46-.05-4.38-.62-1.18-.19-3.43-.56c-.51-.09-1-.17-1.53-.27l-1-.18c-.8-.14-1.59-.3-2.37-.45L53.66,42c-1-.21-2.09-.43-3.11-.66l-.15,0c-.95-.21-1.88-.43-2.8-.65l-1.87-.48c-.43-.11-.86-.21-1.28-.33-.66-.17-1.31-.36-2-.55l-1-.29L40,38.55l-1.29-.41-1.43-.49L36,37.23l-1.37-.52c-.37-.14-.75-.28-1.11-.43l-1.28-.54-1-.45c-.41-.18-.8-.38-1.19-.57l-.94-.45c-.4-.2-.77-.41-1.15-.62l-.81-.44c-.41-.24-.79-.49-1.17-.73-.19-.12-.4-.24-.59-.37-.55-.37-1.08-.74-1.56-1.13-3.17-2.47-4.67-5-4.66-7.45l0,13.42c0,2.47,1.5,5,4.66,7.45.49.39,1,.76,1.57,1.13l.57.36c.39.25.77.5,1.19.74l.79.43,1.16.63.93.45,1.21.57c.32.15.68.29,1,.44s.84.37,1.29.55.74.29,1.11.43l1.36.52,1.21.42,1.43.49,1.29.41,1.5.47.08,0,1,.27,2,.55c.41.12.84.22,1.27.33l1.88.48.22.06,2.6.6.13,0c.93.21,1.87.41,2.83.6l.28.06.75.15c.79.15,1.58.31,2.38.45l1,.18.78.15.76.12,3.42.56.77.13.42.06,4.38.62h0l.41,0c1.28.17,2.58.33,3.89.48l.45,0,1,.11c1,.1,1.94.21,2.92.3l.77.08.9.08c.94.08,1.88.17,2.83.24.35,0,.69.07,1,.09l.64,0,3,.21,1.16.08.35,0c1.24.08,2.5.14,3.75.21l.68,0h.07c1.5.07,3,.13,4.52.18H97c.39,0,.79,0,1.19,0l3.15.08h.42l1.38,0,2.73,0h5.46l1,0,3-.06,1.08,0,.71,0,4-.14.86,0,.26,0c.61,0,1.21-.06,1.82-.09l2.46-.13c.63,0,1.25-.08,1.88-.12l2-.12.37,0c1.6-.12,3.2-.24,4.8-.38Z"/><ellipse class="money-cls-13" cx="107.36" cy="23.63" rx="23.25" ry="88.18" transform="translate(83.61 130.96) rotate(-89.94)"/></g><g class="money-cls-2"><path class="money-cls-3" d="M140.36,14.2c6.31,4.52.66,9-28.41,11.09l-2.24.15,4,2.83,31.16-2.19,2.95,2.11-31.12,2.19c1.88,1.32,3.79,2.64,5.78,4L137.86,34l2.06,1.48-14.31,1-12.68.89-13.26.93L97.6,36.82l12.55-1.54q-2.7-2-5.51-4.05l-15,1.06-3-2.12,15-1.06-3.93-2.83L82.72,27.34l-3-2.11,15.06-1.06-2.07-1.48c-4.92-3.53-9.85-7.06-15-10.57l-14.23.33L61.52,11,81.64,9.56l14.77-1C117.87,7,133.81,9.51,140.36,14.2Zm-33.6,9.13,3.58-.25c18.8-1.32,22.41-4.36,17.34-8-5.6-4-16.24-5.77-32.35-4.64l-5.68.4c4.73,3.62,9.85,7.28,15,11l2.06,1.48"/></g></g></g></symbol>
<symbol id="ruble"><defs><style>.ruble-cls-1{fill:none;}.ruble-cls-1,.ruble-cls-10,.ruble-cls-11,.ruble-cls-13,.ruble-cls-4,.ruble-cls-5,.ruble-cls-6,.ruble-cls-7,.ruble-cls-8,.ruble-cls-9{stroke:#000;stroke-width:0.75px;}.ruble-cls-1,.ruble-cls-4,.ruble-cls-5,.ruble-cls-6,.ruble-cls-7,.ruble-cls-8,.ruble-cls-9{stroke-miterlimit:10;}.ruble-cls-2{isolation:isolate;}.ruble-cls-3{clip-path:url(#clip-path-r);}.ruble-cls-4{fill:#ddb134;}.ruble-cls-5{fill:#d8ad33;}.ruble-cls-6{fill:#c49d2e;}.ruble-cls-7{fill:#9c7d25;}.ruble-cls-8{fill:#977923;}.ruble-cls-9{fill:#927522;}.ruble-cls-10{fill:#fbb03b;}.ruble-cls-10,.ruble-cls-11,.ruble-cls-13{stroke-linejoin:round;}.ruble-cls-11{fill:#fbc93b;}.ruble-cls-12{opacity:0.8;}</style><clipPath id="clip-path-r"><path class="ruble-cls-1" d="M176.79,23.73V37.15c0,9.7-23.21,18.72-60,22V45.69C153.58,42.45,176.78,33.43,176.79,23.73Z"/></clipPath></defs><title>rubel</title><g  ><g id="Слой_2-2" ><g class="ruble-cls-2"><g class="ruble-cls-2"><g class="ruble-cls-3"><g class="ruble-cls-2"><path class="ruble-cls-4" d="M116.79,59.11V45.69c5.63-.5,10.94-1.13,15.9-1.87V57.23c-5,.75-10.27,1.38-15.9,1.88"/><path class="ruble-cls-5" d="M132.69,57.23V43.82c4-.6,7.7-1.28,11.2-2l0,13.42c-3.49.73-7.23,1.41-11.19,2"/><path class="ruble-cls-6" d="M160.47,37.18c-1.29.47-2.64.94-4.06,1.39q-2.49.78-5.24,1.52h0c-2.29.6-4.72,1.18-7.27,1.72l0,13.42c2.56-.54,5-1.12,7.27-1.72h0q2.76-.73,5.24-1.52c1.42-.45,2.78-.92,4.06-1.39s2.26-.87,3.3-1.32V35.87C162.72,36.31,161.62,36.75,160.47,37.18Z"/><path class="ruble-cls-7" d="M175.12,28.22A12.27,12.27,0,0,1,174,29.53a17.61,17.61,0,0,1-1.4,1.28c-.52.42-1.08.84-1.69,1.26s-1.29.84-2,1.26-1.52.84-2.35,1.26-1.79.86-2.77,1.28V49.28c1-.41,1.89-.84,2.76-1.27s1.62-.84,2.36-1.26,1.38-.84,2-1.26,1.17-.84,1.69-1.26A16.2,16.2,0,0,0,174,43h0a13.37,13.37,0,0,0,1.13-1.31Z"/><path class="ruble-cls-7" d="M176,26.87a11.26,11.26,0,0,1-.86,1.35l0,13.42a9.22,9.22,0,0,0,.86-1.35,7,7,0,0,0,.57-1.41l0-13.42A8.33,8.33,0,0,1,176,26.87Z"/><path class="ruble-cls-8" d="M176.53,38.88l0-13.42a6.6,6.6,0,0,0,.24-1.52l0,13.42a6.1,6.1,0,0,1-.24,1.52"/><path class="ruble-cls-9" d="M176.77,37.36l0-13.42V37.15a1.48,1.48,0,0,1,0,.21"/></g></g><path class="ruble-cls-1" d="M176.79,23.73V37.15c0,9.7-23.21,18.72-60,22V45.69C153.58,42.45,176.78,33.43,176.79,23.73Z"/></g><path class="ruble-cls-10" d="M116.8,45.69c-1.59.14-3.19.26-4.79.38-.78.06-1.56.1-2.34.15-.63,0-1.25.09-1.88.12l-2.46.13c-.61,0-1.21.07-1.82.09l-1.13,0-4,.14-1.79,0c-1,0-2,.05-3,.06l-1.88,0H87.08l-2.75,0c-.59,0-1.19,0-1.78,0-1.06,0-2.11,0-3.16-.08l-1.37,0c-1.52-.05-3-.11-4.52-.18l-.74,0c-1.26-.06-2.52-.13-3.77-.21l-1.5-.1-3-.21-1.67-.14c-1-.07-1.89-.15-2.83-.24l-1.67-.16c-1-.09-2-.2-2.93-.3L53.9,45q-2-.22-3.9-.48l-.47-.05-4.38-.62L44,43.63l-3.43-.56c-.51-.09-1-.17-1.53-.27-.33-.06-.66-.11-1-.18-.8-.14-1.6-.3-2.38-.45L34.9,42c-1.06-.21-2.1-.43-3.11-.66l-.16,0c-.95-.21-1.88-.43-2.8-.65L27,40.19c-.43-.11-.86-.21-1.28-.33-.66-.17-1.3-.36-1.95-.55L22.68,39l-1.5-.47-1.29-.41-1.43-.49-1.21-.42-1.36-.52c-.37-.14-.76-.28-1.12-.43l-1.28-.54-1-.45c-.41-.18-.8-.38-1.19-.57l-.94-.45c-.4-.2-.77-.41-1.14-.62s-.56-.29-.81-.44C8,33,7.59,32.72,7.2,32.48c-.19-.12-.4-.24-.58-.37-.56-.37-1.08-.74-1.57-1.13C1.89,28.51.39,26,.39,23.53V37c0,2.47,1.49,5,4.65,7.45.49.39,1,.76,1.57,1.13l.57.36c.39.25.78.5,1.19.74l.8.43c.38.21.75.42,1.16.63l.93.45,1.2.57,1,.44c.43.19.84.37,1.29.55s.74.29,1.11.43l1.37.52,1.2.42,1.43.49,1.3.41,1.49.47.08,0,1,.27,2,.55c.42.12.85.22,1.27.33l1.88.48.23.06,2.6.6.12,0c.93.21,1.87.41,2.83.6l.28.06.76.15c.78.15,1.57.31,2.37.45l1,.18.78.15.76.12,3.42.56.78.13.41.06,4.38.62h0l.41,0c1.29.17,2.58.33,3.9.48l.44,0,1,.11c1,.1,1.94.21,2.92.3l.78.08L60,59c.94.08,1.88.17,2.83.24.35,0,.69.07,1,.09l.64,0,3,.21,1.16.08.35,0c1.24.08,2.5.14,3.76.21l.67,0h.07c1.5.07,3,.13,4.52.18h.19c.39,0,.79,0,1.19,0l3.15.08H83l1.38,0,2.74,0h5.46l1,0,3-.06,1.08,0,.71,0,4.05-.14.87,0,.26,0,1.81-.09,2.46-.13c.63,0,1.26-.08,1.88-.12l2-.12.37,0c1.6-.12,3.2-.24,4.8-.38Z"/><ellipse class="ruble-cls-11" cx="88.59" cy="23.63" rx="23.25" ry="88.18" transform="translate(64.86 112.2) rotate(-89.94)"/></g><g class="ruble-cls-12"><path class="ruble-cls-13" d="M121.59,14.2c6.31,4.52.67,9-28.4,11.09l-2.25.15,4,2.83,31.16-2.19L129,28.19,97.9,30.38c1.88,1.32,3.79,2.64,5.77,4L119.09,34l2.07,1.48-14.32,1-12.67.89L80.9,38.3l-2.07-1.48,12.55-1.54q-2.7-2-5.51-4.05l-15,1.06L67.9,30.17l15-1.06L79,26.28,64,27.34l-3-2.11,15.06-1.06L74,22.69c-4.93-3.53-9.86-7.06-15-10.57l-14.23.33L42.75,11,62.88,9.56l14.76-1C99.11,7,115,9.51,121.59,14.2ZM88,23.33l3.58-.25c18.8-1.32,22.41-4.36,17.35-8-5.61-4-16.25-5.77-32.36-4.64l-5.67.4c4.73,3.62,9.84,7.28,15,11L88,23.33"/></g></g></g></symbol>
<symbol id="folder">
<defs><style>.folder-cls-1,.folder-cls-29{fill:none;}.folder-cls-1,.folder-cls-10,.folder-cls-11,.folder-cls-12,.folder-cls-13,.folder-cls-14,.folder-cls-15,.folder-cls-16,.folder-cls-17,.folder-cls-18,.folder-cls-19,.folder-cls-20,.folder-cls-22,.folder-cls-23,.folder-cls-24,.folder-cls-29,.folder-cls-4,.folder-cls-5,.folder-cls-6,.folder-cls-7,.folder-cls-9{stroke:#000;}.folder-cls-1,.folder-cls-10,.folder-cls-11,.folder-cls-12,.folder-cls-13,.folder-cls-14,.folder-cls-15,.folder-cls-16,.folder-cls-17,.folder-cls-18,.folder-cls-19,.folder-cls-20,.folder-cls-22,.folder-cls-23,.folder-cls-24,.folder-cls-4,.folder-cls-5,.folder-cls-6,.folder-cls-7,.folder-cls-9{stroke-linejoin:round;}.folder-cls-2{isolation:isolate;}.folder-cls-3{clip-path:url(#clip-path-f);}.folder-cls-4{fill:#0c619a;}.folder-cls-5{fill:#0b639d;}.folder-cls-6{fill:#0a639e;}.folder-cls-7{fill:#185177;}.folder-cls-8{clip-path:url(#clip-path-f-2);}.folder-cls-9{fill:#0c6098;}.folder-cls-10{fill:#0d5f95;}.folder-cls-11{fill:#0e5e92;}.folder-cls-12{fill:#0f5c8f;}.folder-cls-13{fill:#105b8c;}.folder-cls-14{fill:#115a8a;}.folder-cls-15{fill:#125887;}.folder-cls-16{fill:#135784;}.folder-cls-17{fill:#145681;}.folder-cls-18{fill:#15547e;}.folder-cls-19{fill:#16537c;}.folder-cls-20{fill:#175279;}.folder-cls-21{clip-path:url(#clip-path-f-3);}.folder-cls-22{fill:#cacaca;}.folder-cls-23{fill:#999;}.folder-cls-24{fill:#d2d2d2;}.folder-cls-25{clip-path:url(#clip-path-f-4);}.folder-cls-26{clip-path:url(#clip-path-f-5);}.folder-cls-27{clip-path:url(#clip-path-f-6);}.folder-cls-28{clip-path:url(#clip-path-f-7);}.folder-cls-29{stroke-miterlimit:10;}.folder-cls-30{fill:#fbb03b;}</style><clipPath id="clip-path-f"><path class="folder-cls-1" d="M44.81,2.66,62.6.51a2.74,2.74,0,0,1,1.94.63L46.75,3.28A2.73,2.73,0,0,0,44.81,2.66Z"/></clipPath><clipPath id="clip-path-f-2"><path class="folder-cls-1" d="M114.44,52.74l17.79-2.14c3.59,2.63,6.62,12.64,6.77,22.38l-17.79,2.15C121.06,65.38,118,55.37,114.44,52.74Z"/></clipPath><clipPath id="clip-path-f-3"><path class="folder-cls-1" d="M195.46,135.29l17.79-2.14c3.6,2.63,6.63,12.64,6.77,22.33l-17.79,2.14C202.09,147.93,199.06,137.92,195.46,135.29Z"/></clipPath><clipPath id="clip-path-f-4"><path class="folder-cls-1" d="M4.79,89.06l17.79-2.14a2.69,2.69,0,0,1,2,.62L6.74,89.68A2.74,2.74,0,0,0,4.79,89.06Z"/></clipPath><clipPath id="clip-path-f-5"><path class="folder-cls-1" d="M82.34,116.38l17.79-2.14a2.7,2.7,0,0,1,1.94.62L84.28,117A2.75,2.75,0,0,0,82.34,116.38Z"/></clipPath><clipPath id="clip-path-f-6"><path class="folder-cls-1" d="M178.73,455.81,160.94,458c2.61-.31,4.41-5.61,4.29-13.51L183,442.3C183.14,450.21,181.34,455.5,178.73,455.81Z"/></clipPath><clipPath id="clip-path-f-7"><path class="folder-cls-1" d="M154.65,168.43l17.79-2.15c3.6,2.63,6.61,12.63,6.75,22.37L161.4,190.8C161.26,181.05,158.25,171.05,154.65,168.43Z"/></clipPath></defs><title>Ресурс 1</title><g  ><g id="Слой_3" data-name="Слой 3"><g class="folder-cls-2"><g class="folder-cls-2"><g class="folder-cls-3"><g class="folder-cls-2"><path class="folder-cls-4" d="M44.81,2.66,62.6.51a2.44,2.44,0,0,1,.54,0L45.36,2.66a2.53,2.53,0,0,0-.55,0"/><path class="folder-cls-5" d="M45.36,2.66,63.14.52a3,3,0,0,1,1.4.62L46.75,3.28a3.25,3.25,0,0,0-1.39-.62"/></g></g><path class="folder-cls-1" d="M44.81,2.66,62.6.51a2.74,2.74,0,0,1,1.94.63L46.75,3.28A2.73,2.73,0,0,0,44.81,2.66Z"/></g><polygon class="folder-cls-6" points="46.75 3.28 64.54 1.14 132.23 50.6 114.44 52.74 46.75 3.28"/><polygon class="folder-cls-7" points="121.21 75.13 139 72.98 139.09 78.95 121.3 81.09 121.21 75.13"/><g class="folder-cls-2"><g class="folder-cls-8"><g class="folder-cls-2"><path class="folder-cls-5" d="M114.44,52.74l17.79-2.14a6.58,6.58,0,0,1,.85.77l-17.79,2.14a6.58,6.58,0,0,0-.85-.77"/><path class="folder-cls-4" d="M115.29,53.51l17.79-2.14a9.73,9.73,0,0,1,1,1.32l-17.79,2.15a9.86,9.86,0,0,0-1-1.33"/><path class="folder-cls-9" d="M116.31,54.84l17.79-2.15c.23.36.47.75.69,1.16L117,56a11.46,11.46,0,0,0-.69-1.16"/><path class="folder-cls-10" d="M117,56l17.79-2.15c.19.35.37.71.55,1.09l-17.79,2.15c-.18-.38-.36-.75-.55-1.09"/><path class="folder-cls-11" d="M117.55,57.09l17.79-2.15c.16.35.31.7.47,1.07L118,58.16c-.16-.37-.31-.73-.47-1.07"/><path class="folder-cls-12" d="M118,58.16,135.81,56c.14.35.28.71.41,1.08l-17.78,2.14c-.14-.37-.28-.73-.42-1.07"/><path class="folder-cls-13" d="M118.44,59.23l17.78-2.14c.14.35.26.72.39,1.09l-17.79,2.15c-.13-.38-.25-.74-.38-1.1"/><path class="folder-cls-14" d="M118.82,60.33l17.79-2.15c.12.37.24.75.35,1.14l-17.78,2.15-.36-1.14"/><path class="folder-cls-15" d="M119.18,61.47,137,59.32c.12.4.24.8.34,1.22l-17.78,2.14c-.11-.41-.23-.82-.34-1.21"/><path class="folder-cls-16" d="M119.52,62.68l17.78-2.14c.12.43.23.87.33,1.31L119.84,64c-.1-.45-.21-.89-.32-1.32"/><path class="folder-cls-17" d="M119.84,64l17.79-2.15c.12.49.22,1,.32,1.48l-17.79,2.14c-.1-.5-.2-1-.32-1.47"/><path class="folder-cls-18" d="M120.16,65.47,138,63.33c.12.56.22,1.13.32,1.71l-17.79,2.15c-.1-.58-.2-1.16-.32-1.72"/><path class="folder-cls-19" d="M120.48,67.19,138.27,65c.12.7.22,1.42.31,2.13l-17.79,2.15c-.09-.72-.19-1.43-.31-2.13"/><path class="folder-cls-20" d="M120.79,69.32l17.79-2.15A53.49,53.49,0,0,1,139,73l-17.79,2.15a53.13,53.13,0,0,0-.42-5.81"/></g></g><path class="folder-cls-1" d="M114.44,52.74l17.79-2.14c3.59,2.63,6.62,12.64,6.77,22.38l-17.79,2.15C121.06,65.38,118,55.37,114.44,52.74Z"/></g><polygon class="folder-cls-6" points="121.3 81.09 139.09 78.95 213.25 133.15 195.47 135.29 121.3 81.09"/><polygon class="folder-cls-7" points="202.23 157.62 220.02 155.48 224.45 449.21 206.66 451.35 202.23 157.62"/><g class="folder-cls-2"><g class="folder-cls-21"><g class="folder-cls-2"><path class="folder-cls-5" d="M195.46,135.29l17.79-2.14a5.48,5.48,0,0,1,.85.77l-17.79,2.14a5.48,5.48,0,0,0-.85-.77"/><path class="folder-cls-4" d="M196.31,136.06l17.79-2.14a9.76,9.76,0,0,1,1,1.32l-17.79,2.15a9.89,9.89,0,0,0-1-1.33"/><path class="folder-cls-9" d="M197.34,137.39l17.79-2.15c.23.36.47.75.69,1.17L198,138.55c-.22-.41-.45-.8-.69-1.16"/><path class="folder-cls-10" d="M198,138.55l17.79-2.14c.19.34.37.71.55,1.09l-17.79,2.14c-.18-.38-.36-.74-.55-1.09"/><path class="folder-cls-11" d="M198.58,139.64l17.79-2.14c.16.34.32.7.47,1.07l-17.79,2.15c-.15-.38-.31-.73-.47-1.08"/><path class="folder-cls-12" d="M199.05,140.72l17.79-2.15q.21.52.42,1.08l-17.79,2.14c-.14-.37-.28-.73-.42-1.07"/><path class="folder-cls-13" d="M199.47,141.79l17.79-2.14c.13.35.26.72.38,1.09l-17.79,2.15c-.12-.38-.25-.74-.38-1.1"/><path class="folder-cls-14" d="M199.85,142.89l17.79-2.15.36,1.14L200.21,144q-.18-.59-.36-1.14"/><path class="folder-cls-15" d="M200.21,144,218,141.88c.12.4.23.81.34,1.22l-17.79,2.14c-.11-.41-.22-.81-.34-1.21"/><path class="folder-cls-16" d="M200.55,145.24l17.79-2.14q.16.65.33,1.32l-17.79,2.14q-.16-.67-.33-1.32"/><path class="folder-cls-17" d="M200.88,146.56l17.79-2.14c.11.48.22,1,.32,1.47L201.2,148c-.1-.5-.21-1-.32-1.47"/><path class="folder-cls-18" d="M201.2,148,219,145.89c.11.56.21,1.13.31,1.7l-17.79,2.15c-.09-.58-.2-1.15-.31-1.71"/><path class="folder-cls-19" d="M201.51,149.74l17.79-2.15c.12.7.22,1.42.31,2.13l-17.79,2.15c-.09-.72-.19-1.43-.31-2.13"/><path class="folder-cls-20" d="M201.82,151.87l17.79-2.15a52.39,52.39,0,0,1,.41,5.76l-17.79,2.14a52.39,52.39,0,0,0-.41-5.75"/></g></g><path class="folder-cls-1" d="M195.46,135.29l17.79-2.14c3.6,2.63,6.63,12.64,6.77,22.33l-17.79,2.14C202.09,147.93,199.06,137.92,195.46,135.29Z"/></g><path class="folder-cls-9" d="M114.44,52.74c3.59,2.63,6.62,12.64,6.77,22.39l.09,6,74.16,54.2c3.6,2.63,6.63,12.64,6.77,22.33l4.43,293.73L45.3,333.43,40.51,16.16C40.37,6.41,43.16.65,46.75,3.28Z"/></g><g class="folder-cls-2"><polygon class="folder-cls-22" points="174.1 162.32 178.47 451.5 29.93 342.95 25.57 53.77 174.1 162.32"/><polygon class="folder-cls-23" points="174.1 162.32 203.75 158.74 208.12 447.93 178.47 451.5 174.1 162.32"/><polygon class="folder-cls-24" points="25.57 53.77 55.22 50.19 203.75 158.74 174.1 162.32 25.57 53.77"/></g><g class="folder-cls-2"><g class="folder-cls-2"><g class="folder-cls-25"><g class="folder-cls-2"><path class="folder-cls-4" d="M4.79,89.06l17.79-2.14a2,2,0,0,1,.55,0L5.34,89.07a2,2,0,0,0-.55,0"/><path class="folder-cls-5" d="M5.34,89.07l17.79-2.15a3.12,3.12,0,0,1,1.4.62L6.74,89.68a3.09,3.09,0,0,0-1.4-.61"/></g></g><path class="folder-cls-1" d="M4.79,89.06l17.79-2.14a2.69,2.69,0,0,1,2,.62L6.74,89.68A2.74,2.74,0,0,0,4.79,89.06Z"/></g><polygon class="folder-cls-6" points="6.75 89.69 24.53 87.54 94.02 138.32 76.23 140.46 6.75 89.69"/><g class="folder-cls-2"><g class="folder-cls-26"><g class="folder-cls-2"><path class="folder-cls-4" d="M82.34,116.38l17.79-2.14a2.44,2.44,0,0,1,.54,0l-17.79,2.15a2,2,0,0,0-.54,0"/><path class="folder-cls-5" d="M82.88,116.39l17.79-2.15a3.12,3.12,0,0,1,1.4.62L84.28,117a3.09,3.09,0,0,0-1.4-.61"/></g></g><path class="folder-cls-1" d="M82.34,116.38l17.79-2.14a2.7,2.7,0,0,1,1.94.62L84.28,117A2.75,2.75,0,0,0,82.34,116.38Z"/></g><g class="folder-cls-2"><g class="folder-cls-27"><g class="folder-cls-2"><path class="folder-cls-20" d="M165.23,444.45,183,442.3c.12,7.91-1.68,13.2-4.29,13.51L160.94,458c2.61-.31,4.41-5.61,4.29-13.51"/></g></g><path class="folder-cls-1" d="M178.73,455.81,160.94,458c2.61-.31,4.41-5.61,4.29-13.51L183,442.3C183.14,450.21,181.34,455.5,178.73,455.81Z"/></g><polygon class="folder-cls-6" points="84.28 117 102.07 114.86 172.44 166.28 154.65 168.43 84.28 117"/><polygon class="folder-cls-7" points="161.4 190.79 179.19 188.65 183.02 442.3 165.23 444.45 161.4 190.79"/><g class="folder-cls-2"><g class="folder-cls-28"><g class="folder-cls-2"><path class="folder-cls-5" d="M154.65,168.43l17.79-2.15a6,6,0,0,1,.85.77l-17.79,2.14a5.88,5.88,0,0,0-.85-.76"/><path class="folder-cls-4" d="M155.5,169.19l17.79-2.14a9.73,9.73,0,0,1,1,1.32l-17.79,2.14a10.4,10.4,0,0,0-1-1.32"/><path class="folder-cls-9" d="M156.52,170.51l17.79-2.14a12.69,12.69,0,0,1,.69,1.16l-17.79,2.14c-.22-.41-.45-.8-.69-1.16"/><path class="folder-cls-10" d="M157.21,171.67,175,169.53c.18.34.37.7.54,1.08l-17.79,2.14q-.25-.57-.54-1.08"/><path class="folder-cls-11" d="M157.75,172.75l17.79-2.14c.16.34.32.69.47,1.06l-17.79,2.15c-.15-.37-.31-.73-.47-1.07"/><path class="folder-cls-12" d="M158.22,173.82,176,171.67c.14.35.28.7.42,1.07l-17.79,2.14c-.14-.36-.28-.72-.42-1.06"/><path class="folder-cls-13" d="M158.64,174.88l17.79-2.14c.13.35.25.72.38,1.09L159,176c-.13-.37-.25-.73-.38-1.09"/><path class="folder-cls-14" d="M159,176l17.79-2.14c.12.37.24.75.35,1.13l-17.79,2.15c-.11-.39-.23-.77-.35-1.14"/><path class="folder-cls-15" d="M159.37,177.11,177.16,175c.12.4.23.8.34,1.21l-17.79,2.15c-.11-.41-.22-.82-.34-1.21"/><path class="folder-cls-16" d="M159.71,178.32l17.79-2.15q.17.65.33,1.32L160,179.63l-.33-1.31"/><path class="folder-cls-17" d="M160,179.63l17.79-2.14c.11.48.22,1,.32,1.47l-17.79,2.14c-.1-.49-.21-1-.32-1.47"/><path class="folder-cls-18" d="M160.36,181.1,178.15,179c.11.56.22,1.14.31,1.72l-17.79,2.14c-.09-.58-.2-1.15-.31-1.72"/><path class="folder-cls-19" d="M160.67,182.82l17.79-2.14c.12.7.23,1.41.32,2.13L161,185c-.09-.72-.2-1.44-.32-2.14"/><path class="folder-cls-20" d="M161,185l17.79-2.15a53.86,53.86,0,0,1,.41,5.84L161.4,190.8A53.68,53.68,0,0,0,161,185"/></g></g><path class="folder-cls-1" d="M154.65,168.43l17.79-2.15c3.6,2.63,6.61,12.63,6.75,22.37L161.4,190.8C161.26,181.05,158.25,171.05,154.65,168.43Z"/></g><path class="folder-cls-9" d="M154.65,168.43c3.6,2.62,6.61,12.62,6.75,22.37l3.83,253.65c.15,9.74-2.62,15.52-6.22,12.89L10.65,348.92C7.06,346.3,4,336.29,3.88,326.54l-3.37-224C.36,92.76,3.15,87.06,6.74,89.68l69.49,50.78,2.11-16.27c.82-6.33,3.2-9.2,5.94-7.19Z"/></g><polyline class="folder-cls-29" points="184.49 160.75 191.44 449.94 191.19 160.26 202.85 448.56"/><path class="folder-cls-30" d="M32.88,217.4a51.92,51.92,0,0,1,2.64,16.4c.12,6.52-.59,10.94-2.13,13.3s-3.72,2.49-6.54.44L16,239.69l-1.18-65.82L33,187.05l.18,10.44-13.9-10.1.27,15.13,6.78,4.93Q30.41,210.4,32.88,217.4ZM30,237.34c.9-.86,1.32-3.24,1.25-7.12-.12-6.46-1.82-10.87-5.11-13.27l-6.4-4.64.36,20.11,5.64,4.1q2.91,2.11,4.26.82"/><path class="folder-cls-30" d="M56.1,219.79,57,269.44l-4.06-3-.59-33.09-8.14,26.75-4-2.88-.89-49.64,4.11,3L44,243.88q5.37-18,8.09-27Z"/><path class="folder-cls-30" d="M67.69,227.19q3,2.19,5,7.35a31.93,31.93,0,0,1,2.08,11q.15,7.89-2.68,9.18,3.39,5.63,3.55,14.46.12,6.4-1.86,9.28c-1.31,1.92-3.06,2.08-5.24.5q-4.73-3.44-8.16-13.45l1.84-6.08q2.69,7.8,5.88,10.12c1,.7,1.79.66,2.43-.14s1-2.19.92-4.2a14,14,0,0,0-1-5.22,8.38,8.38,0,0,0-2.78-3.68l-2.26-1.64-.14-8.19,2.26,1.64q1.45,1.07,2.31-.12a6.84,6.84,0,0,0,.8-4,13,13,0,0,0-.92-4.71,7,7,0,0,0-2.2-3.14q-3.06-2.22-5.12,1.29l-2-8.5Q63.24,224,67.69,227.19Z"/><polygon class="folder-cls-30" points="95.89 248.7 96.78 298.35 92.58 295.3 92.22 275.26 84.12 269.38 84.47 289.41 80.27 286.36 79.39 236.71 83.59 239.76 83.95 259.88 92.05 265.77 91.69 245.65 95.89 248.7"/><path class="folder-cls-30" d="M118.39,290.38c0,1.38,0,2.43,0,3.15l-13.49-9.8a42.76,42.76,0,0,0,1.94,10.55q1.48,4.38,3.57,5.89,2.71,2,4.86-2.32l2.58,7.72q-2.69,7.24-7.34,3.85-4-2.93-6.86-12.12a75.12,75.12,0,0,1-3-20.67q-.19-10.81,2.21-16.49c1.61-3.78,3.7-4.73,6.3-2.85q4.17,3,6.62,12.38A88.19,88.19,0,0,1,118.39,290.38Zm-13.67-14.19,9.42,6.84a48.38,48.38,0,0,0-1.59-10.44q-1.29-4.54-3.3-6c-1.27-.92-2.32-.49-3.13,1.31s-1.28,4.55-1.4,8.31"/><path class="folder-cls-30" d="M130.67,273c3,2.15,5.46,6.79,7.49,13.88l-2.47,5.72c-1.54-5.19-3.16-8.42-4.88-9.66-1.5-1.1-2.73-.47-3.69,1.87s-1.39,5.7-1.31,10.09V295a48.92,48.92,0,0,0,1.74,12.49c1.09,3.82,2.43,6.32,4,7.48s3.24.31,4.65-2.75l2.66,8.61q-1.41,3.44-3.13,4.56t-4.21-.7q-4.07-3-6.91-12.4a74.14,74.14,0,0,1-3-20.16V292q-.19-10.73,2.4-16.35T130.67,273Z"/></g></g>
</symbol>
<symbol id="pen-shadow">
<defs><style>.pencil-cls-1,.pencil-cls-18{opacity:0.2;}.pencil-cls-2{fill:#ff5031;}.pencil-cls-10,.pencil-cls-11,.pencil-cls-13,.pencil-cls-14,.pencil-cls-15,.pencil-cls-16,.pencil-cls-17,.pencil-cls-2,.pencil-cls-3,.pencil-cls-4,.pencil-cls-5,.pencil-cls-6,.pencil-cls-7,.pencil-cls-8,.pencil-cls-9{stroke:#000;stroke-miterlimit:10;}.pencil-cls-3{fill:#bc3422;}.pencil-cls-4{fill:#efcfb8;}.pencil-cls-5{fill:#e6ba9b;}.pencil-cls-6{fill:#ffbf3e;}.pencil-cls-7{fill:#cc9636;}.pencil-cls-8{fill:#f9d79b;}.pencil-cls-9{fill:#efad43;}.pencil-cls-10{fill:#f4b042;}.pencil-cls-11{fill:#ff7753;}.pencil-cls-12{fill:#c1503a;}.pencil-cls-13{fill:#d8d7d6;}.pencil-cls-14{fill:#727171;}.pencil-cls-15{fill:#b7b7b7;}.pencil-cls-16{fill:#757575;}.pencil-cls-17{fill:#cecece;}</style></defs><title>Ресурс 2</title><g  ><g ><path class="pencil-cls-1" d="M322.89,227.12l.1-.12L288.4,190h0l0,0-2.84-2h0L68.41,30.26h0l-5.6-4.06L48.89,16.09h0L36.75,7.28h0L33.92,5.22h0L31.86,3.73A8,8,0,0,0,20.74,5.49L19.25,7.55h0l-5.65,7.79h0l-2,2.76a8,8,0,0,0,1.77,11.13L33,43.53h0l16.8,12.2.22.16h0L51.53,57h0l217.6,158v0l46.13,22.7.09-.13c7.68,4.85,14.64,7.18,17.26,5.69h0A2.44,2.44,0,0,0,333,243l.07-.06a2,2,0,0,0,.28-.3C335.14,240.06,330.62,233.53,322.89,227.12Zm-5.37-4.06,0,0Zm3.5,2.56.07,0Z"/><ellipse class="pencil-cls-2" cx="305.21" cy="227.32" rx="6.57" ry="22.33" transform="translate(-58.05 340.74) rotate(-54.02)"/><path class="pencil-cls-3" d="M286.79,215a2.14,2.14,0,0,1,.36-.83c2.13-2.93,11.94.56,21.92,7.8s16.34,15.5,14.21,18.43a2,2,0,0,1-.68.59c.71-3.45-5.4-11-14.56-17.6S289.86,213.28,286.79,215Z"/><path class="pencil-cls-4" d="M263.74,188.79l13.47.35,31.28,33.43-8-3C290.38,209.61,275.92,196.3,263.74,188.79Z"/><path class="pencil-cls-4" d="M259,212.71,251,201.45l10.29-14.17,17,.44L313,224.83l-.1.13c-1.19-1-2.46-2-3.8-3-1-.75-2.07-1.46-3.1-2.13l2.52,2.7-8-3c-2.34-.44-4.05-.21-4.8.82-1.79,2.47,2.42,8.69,9.73,14.91l-.13.18Z"/><path class="pencil-cls-5" d="M295,214.22c-9.44-9-21.11-19.2-31.21-25.43l13.47.35L306,219.87l2.52,2.7-8-3C298.73,217.86,296.88,216.06,295,214.22Z"/><path class="pencil-cls-6" d="M259.11,212.78,8.22,30.62,26.73,5.11,278.42,187.85a32.27,32.27,0,0,0-13.49,10.76,33.26,33.26,0,0,0-3.14,5.3A31.83,31.83,0,0,0,259.11,212.78Z"/><path class="pencil-cls-7" d="M259.11,212.78,8.22,30.62l5.14-7.09L261.79,203.91A31.83,31.83,0,0,0,259.11,212.78Z"/><path class="pencil-cls-7" d="M269.66,193.39,21.08,12.9l5.65-7.79L278.42,187.85A31.71,31.71,0,0,0,269.66,193.39Z"/><path class="pencil-cls-8" d="M259.11,212.78l-2.83-2.06s0,0,0,0a32.14,32.14,0,0,1,2.68-8.85,32.61,32.61,0,0,1,7.86-10.52l.41-.35A31.12,31.12,0,0,1,273,187c.84-.45,1.71-.86,2.58-1.23a.05.05,0,0,1,0,0l2.83,2.06,0,0q-1.31.56-2.58,1.23a31.84,31.84,0,0,0-5.73,3.93l-.41.36a32,32,0,0,0-4.73,5.22,33.26,33.26,0,0,0-3.14,5.3,31.77,31.77,0,0,0-2.67,8.85S259.12,212.77,259.11,212.78Z"/><path class="pencil-cls-9" d="M259.11,212.78l-2.83-2.06s0,0,0,0a32.14,32.14,0,0,1,2.68-8.85l2.83,2.06a31.77,31.77,0,0,0-2.67,8.85S259.12,212.77,259.11,212.78Z"/><path class="pencil-cls-10" d="M269.66,193.39l-2.84-2.06.41-.35A31.12,31.12,0,0,1,273,187c.84-.45,1.71-.86,2.58-1.23a.05.05,0,0,1,0,0l2.83,2.06,0,0q-1.31.56-2.58,1.23a31.84,31.84,0,0,0-5.73,3.93Z"/><rect class="pencil-cls-11" x="6.68" y="1.33" width="31.52" height="40.27" rx="9.1" transform="translate(52.98 15.92) rotate(125.98)"/><path class="pencil-cls-12" d="M3.57,13.18l5.66-7.8A10.54,10.54,0,0,1,23.9,3.05L53.66,24.66,48,32.45,18.24,10.85A10.52,10.52,0,0,0,3.57,13.18Z"/><path class="pencil-cls-13" d="M38.62,52.69,18.23,37.88a8.89,8.89,0,0,1-2-12.38l8.1-11.15a8.88,8.88,0,0,1,12.38-2L58.4,28.1A30.8,30.8,0,0,0,44.33,39,31.42,31.42,0,0,0,38.62,52.69Z"/><path class="pencil-cls-14" d="M41.51,54.79,20.35,39.43a8.9,8.9,0,0,1-2-12.39l8.09-11.15a8.9,8.9,0,0,1,12.39-2L60.52,29.64A30.85,30.85,0,0,0,46.46,40.53C43.35,44.82,42.22,50.11,41.51,54.79Z"/><path class="pencil-cls-15" d="M40,53.72,19.64,38.91a8.89,8.89,0,0,1-2-12.38l8.09-11.16a8.9,8.9,0,0,1,12.39-2L59.81,29.13A30.83,30.83,0,0,0,45.75,40,31.42,31.42,0,0,0,40,53.72Z"/><path class="pencil-cls-16" d="M25.33,16a8.94,8.94,0,0,1,12.83-2.58L59.81,29.13a29.49,29.49,0,0,0-9,5.37Z"/><path class="pencil-cls-17" d="M17.61,26.62c-2.95,3.36-2.37,9.12,1.91,12.2L40.81,54.28a25.7,25.7,0,0,1,1.86-9.47Z"/><g class="pencil-cls-18"><path d="M263.69,177l-19-13c-15.67-.52-22.48,7.29-23,21l-28,4c-13,1.14-26.41-7.31-30.8-10.72L18.71,66.22c-4.39-3.41,2.59-7.1,15.6-8.24L327.93,22.37,499.06,135.22Z"/></g></g></g>
</symbol>
</svg>