<svg width="219" height="146" viewBox="0 0 219 146" fill="none" xmlns="http://www.w3.org/2000/svg">
<path d="M179.008 72.368C179.008 112.083 146.787 144.279 107.039 144.279C67.2909 144.279 35.0691 112.083 35.0691 72.368C35.0691 32.6528 67.2909 0.457153 107.039 0.457153C146.787 0.457153 179.008 32.6528 179.008 72.368Z" fill="#5392A8" stroke="black" stroke-width="0.25"/>
<path d="M90.6846 84.9176L90.6845 84.9178C88.5381 89.82 84.3286 96.0523 79.2144 102.649C74.1018 109.243 68.0911 116.194 62.3483 122.531C56.6057 128.868 51.1321 134.59 47.094 138.729C45.075 140.798 43.415 142.471 42.2597 143.627C41.6821 144.205 41.2307 144.653 40.9237 144.957C40.7702 145.109 40.6528 145.225 40.5738 145.303L40.4907 145.385H6.2726L80.603 71.0542C80.6193 71.0653 80.6378 71.078 80.6585 71.0923C80.7502 71.1554 80.8846 71.2489 81.0549 71.37C81.3956 71.6121 81.8797 71.9643 82.4531 72.4046C83.6002 73.2853 85.103 74.5169 86.5283 75.9219C87.9548 77.328 89.2979 78.9023 90.1312 80.4678C90.9654 82.035 91.2773 83.5704 90.6846 84.9176Z" fill="#F4D466" stroke="black" stroke-width="0.25"/>
<path d="M101.563 23.9175L101.563 23.9196C101.134 27.5345 99.7835 32.2547 99.0504 33.9644C98.8579 34.3978 98.6946 35.2257 98.5377 36.2612C98.4089 37.1113 98.2826 38.1143 98.1487 39.178C98.1185 39.4182 98.0879 39.6615 98.0567 39.9069C97.7179 42.5766 97.3194 45.4822 96.709 47.3121C96.6777 47.4041 96.6486 47.4709 96.6228 47.5162C96.6157 47.5287 96.6094 47.5386 96.6039 47.5464C96.5972 47.5358 96.5894 47.5218 96.5806 47.5034C96.5333 47.4049 96.4842 47.2358 96.436 46.9944C96.3883 46.7557 96.3432 46.4551 96.3009 46.0994C96.1315 44.6755 96.0105 42.3966 95.9451 39.7505C95.8145 34.4592 95.9068 27.7187 96.2753 23.4534L96.2754 23.4526C96.3981 21.9204 96.5817 20.6997 96.7637 19.9715C96.7829 19.9041 96.8019 19.8336 96.8215 19.7607C96.931 19.3545 97.0597 18.8767 97.3556 18.4808C97.6966 18.0849 98.2101 17.7926 99.155 17.8511C100.05 17.9384 100.77 18.5431 101.21 19.5882C101.653 20.6366 101.807 22.1181 101.563 23.9175Z" fill="#E9B645" stroke="black" stroke-width="0.25"/>
<path d="M98.1117 19.0124C98.1092 19.0392 98.1057 19.0736 98.1013 19.1149C98.0895 19.2237 98.0708 19.38 98.0427 19.5692C97.9865 19.9481 97.8933 20.4573 97.7452 20.9807C97.5969 21.5051 97.3952 22.0379 97.1245 22.4673C96.8931 22.8344 96.6178 23.116 96.2913 23.26C96.4137 21.8181 96.5894 20.6688 96.7637 19.9714C96.783 19.904 96.802 19.8335 96.8216 19.7606C96.9242 19.3797 97.0438 18.936 97.3021 18.5558C97.5642 18.6669 97.8576 18.8195 98.1117 19.0124Z" fill="#F9E7A6" stroke="black" stroke-width="0.25"/>
<path d="M95.8431 57.6166C95.7272 57.6634 95.7272 57.6634 95.7272 57.6635L95.7274 57.6639L95.7281 57.6656L95.7308 57.6723L95.7415 57.6989L95.7832 57.8038C95.8197 57.8959 95.8731 58.0318 95.9406 58.2063C96.0756 58.5554 96.2671 59.059 96.4927 59.6772C96.9438 60.9135 97.5312 62.6071 98.0762 64.4363C98.6214 66.2661 99.1233 68.229 99.4047 70.0048C99.6869 71.7858 99.7437 73.3591 99.4145 74.4207C98.742 76.5893 97.3024 79.6205 95.4248 82.3542C93.5448 85.0914 91.24 87.5093 88.8451 88.4785C87.6857 88.9478 86.2854 88.6068 84.8853 87.6694C83.4882 86.734 82.1141 85.2184 81.0256 83.3905C78.8461 79.7304 77.8361 74.8636 80.0201 70.9538L80.0202 70.9535C80.0784 70.8489 80.1377 70.7424 80.1979 70.6342C81.729 67.8842 83.8941 63.9953 85.2597 59.2494C85.9688 56.8156 87.0925 51.6012 88.0379 47.0008C88.5109 44.6993 88.9396 42.5496 89.2501 40.9754C89.4054 40.1882 89.531 39.5449 89.6179 39.0984C89.6614 38.8751 89.6951 38.701 89.718 38.5827L89.744 38.448L89.7507 38.4136L89.7519 38.4072L89.755 38.396L89.7685 38.3482L89.8198 38.1653C89.8642 38.0069 89.9279 37.7784 90.0053 37.4983C90.1602 36.9381 90.3698 36.1713 90.5891 35.3449C91.0269 33.695 91.5054 31.7987 91.6605 30.8385C91.7562 30.2643 91.8528 29.5516 91.9579 28.7764C92.0547 28.0624 92.1587 27.2955 92.2758 26.5348L92.2761 26.533C92.5832 24.3233 93.0716 22.0818 94.033 20.6948C94.0516 20.675 94.0657 20.6559 94.0766 20.6395C94.0821 20.6313 94.0869 20.6236 94.0908 20.6173H94.121L94.1585 20.5682C94.5854 20.0093 95.1016 19.7364 95.6299 19.6744C96.1608 19.612 96.7154 19.7615 97.2155 20.0687C98.2185 20.6849 98.9738 21.9171 98.8558 23.2465C98.8483 23.3215 98.8397 23.4094 98.8299 23.5091C98.6785 25.0492 98.2504 29.4059 97.4443 32.5699L97.4442 32.5704C97.3019 33.1391 97.2367 34.1443 97.1993 35.3965C97.1745 36.2272 97.1618 37.1741 97.1484 38.1852C97.1415 38.703 97.1343 39.2377 97.1252 39.7822C97.0714 43.0035 96.9481 46.5713 96.3976 49.108C95.842 51.6676 95.6721 53.7962 95.6412 55.286C95.6258 56.0309 95.6451 56.6162 95.6683 57.0159C95.6799 57.2157 95.6925 57.3692 95.7023 57.473C95.7072 57.5249 95.7113 57.5644 95.7143 57.5911L95.7178 57.6215L95.7187 57.6294L95.719 57.6315L95.7191 57.6321L95.7191 57.6322C95.7191 57.6323 95.7191 57.6323 95.7267 57.6313L95.7191 57.6324L95.7211 57.6484L95.7272 57.6634L95.8431 57.6166Z" fill="#F4D466" stroke="black" stroke-width="0.25"/>
<path d="M102.165 45.1393L102.165 45.1393L102.168 45.1339C102.284 44.9012 102.461 44.6661 102.637 44.4902L102.637 44.4903L102.639 44.4873C103.078 44.0195 103.551 43.8492 104.005 43.8774C104.465 43.9058 104.923 44.1381 105.324 44.5089C106.128 45.2533 106.662 46.5189 106.485 47.6392C106.053 50.1646 104.702 57.7676 102.803 61.9907C101.844 64.1238 101.227 66.5778 100.75 68.7921C100.609 69.4463 100.48 70.0784 100.359 70.675C100.068 72.105 99.8189 73.3312 99.539 74.1709C99.4886 74.3104 99.4376 74.3595 99.4071 74.3735C99.3866 74.3829 99.3469 74.3888 99.2678 74.3343C99.1883 74.2795 99.0924 74.1778 98.9828 74.0245C98.8744 73.8729 98.7576 73.6779 98.6345 73.4439C98.1411 72.5064 97.5652 70.9806 97.0316 69.2351C96.4984 67.4913 96.0095 65.5351 95.6885 63.74C95.3688 61.952 95.218 60.3359 95.3497 59.2495L95.3689 59.2083L95.4485 59.0373C95.518 58.8878 95.6196 58.6696 95.7479 58.3945C96.0045 57.8443 96.3678 57.0664 96.7945 56.1561C97.6478 54.3356 98.7547 51.9854 99.7694 49.8656C100.028 49.3491 100.277 48.8459 100.515 48.3669C101.184 47.0188 101.758 45.8621 102.165 45.1393Z" fill="#F4D466" stroke="black" stroke-width="0.25"/>
<path d="M92.3633 26.5164L92.3503 26.5136H92.3369C92.3136 26.5136 92.299 26.5133 92.2877 26.512C92.5911 24.3605 93.0697 22.1895 93.9924 20.8161C94.5444 20.9365 95.0833 21.1614 95.523 21.5794C95.5149 21.6195 95.503 21.6772 95.4872 21.7499C95.4544 21.9006 95.405 22.1155 95.3387 22.3721C95.2059 22.8856 95.0057 23.5636 94.7356 24.225C94.4647 24.8884 94.1273 25.5254 93.7241 25.9644C93.3222 26.402 92.8721 26.6264 92.3633 26.5164Z" fill="#F9E7A6" stroke="black" stroke-width="0.25"/>
<path d="M102.227 45.0777L102.227 45.0778L102.229 45.0724C102.333 44.8646 102.485 44.6548 102.642 44.487C102.73 44.5185 102.826 44.5453 102.929 44.5739C103.378 44.6986 103.946 44.8565 104.44 45.5871C104.428 45.6214 104.411 45.6704 104.388 45.732C104.34 45.8614 104.269 46.0464 104.177 46.2679C103.993 46.7112 103.725 47.2993 103.386 47.8808C103.047 48.4633 102.641 49.0328 102.185 49.444C101.729 49.8553 101.235 50.0967 100.714 50.0549C100.421 50.0255 100.207 49.9528 100.061 49.8766C99.9618 49.8246 99.8994 49.7738 99.8643 49.7371C100.111 49.2443 100.349 48.764 100.576 48.3059C101.246 46.9576 101.82 45.8007 102.227 45.0777Z" fill="#F9E7A6" stroke="black" stroke-width="0.25"/>
<path d="M65.5783 80.289L88.5305 103.162L46.2725 145.385H0.428966L65.5783 80.289Z" fill="white" stroke="black" stroke-width="0.25"/>
<path d="M77.7043 113.979L46.2725 145.385H0.428966L54.8131 91.0454L77.7043 113.979Z" fill="#7FBECB" stroke="black" stroke-width="0.25"/>
<path d="M81.5699 104.821C81.5699 106.227 80.3957 107.4 78.9883 107.4C77.5809 107.4 76.4067 106.227 76.4067 104.821C76.4067 103.415 77.5809 102.241 78.9883 102.241C80.3957 102.241 81.5699 103.415 81.5699 104.821Z" fill="#58677D" stroke="black" stroke-width="0.25"/>
<path d="M124.008 84.9178L124.008 84.9176C123.415 83.5704 123.727 82.035 124.561 80.4678C125.395 78.9023 126.738 77.328 128.164 75.9219C129.59 74.5169 131.093 73.2853 132.24 72.4046C132.813 71.9643 133.297 71.6121 133.638 71.37C133.808 71.2489 133.942 71.1554 134.034 71.0923C134.055 71.078 134.074 71.0653 134.09 71.0541L208.604 145.385H174.386L174.303 145.303C174.223 145.225 174.105 145.109 173.951 144.957C173.643 144.653 173.19 144.205 172.609 143.627C171.449 142.471 169.782 140.798 167.754 138.729C163.699 134.59 158.202 128.868 152.436 122.531C146.671 116.193 140.637 109.243 135.507 102.649C130.375 96.0521 126.155 89.8199 124.008 84.9178Z" fill="#F4D466" stroke="black" stroke-width="0.25"/>
<path d="M118.417 23.4526L118.417 23.4534C118.786 27.7187 118.878 34.4592 118.748 39.7505C118.682 42.3966 118.561 44.6755 118.392 46.0994C118.35 46.4551 118.304 46.7557 118.257 46.9944C118.209 47.2358 118.159 47.4049 118.112 47.5034C118.103 47.5218 118.095 47.5358 118.089 47.5464C118.083 47.5386 118.077 47.5287 118.07 47.5162C118.044 47.4709 118.015 47.4042 117.984 47.3121C117.373 45.4823 116.975 42.5766 116.636 39.9069C116.605 39.6615 116.574 39.4182 116.544 39.178C116.41 38.1143 116.284 37.1113 116.155 36.2612C115.998 35.2257 115.835 34.3978 115.642 33.9644C114.909 32.2547 113.559 27.5345 113.13 23.9196C112.916 22.1199 113.086 20.6376 113.528 19.5882C113.97 18.5413 114.675 17.9382 115.538 17.8511C116.483 17.7926 116.996 18.0849 117.337 18.4808C117.633 18.8767 117.762 19.3545 117.871 19.7607C117.891 19.8336 117.91 19.9041 117.929 19.9715C118.111 20.6997 118.295 21.9204 118.417 23.4526Z" fill="#E9B645" stroke="black" stroke-width="0.25"/>
<path d="M118.401 23.26C118.075 23.116 117.8 22.8344 117.568 22.4673C117.298 22.0379 117.096 21.5051 116.947 20.9807C116.799 20.4573 116.706 19.9481 116.65 19.5692C116.622 19.38 116.603 19.2237 116.591 19.1149C116.587 19.0769 116.584 19.0448 116.582 19.019C116.878 18.8269 117.171 18.6748 117.395 18.5622C117.65 18.9409 117.769 19.3819 117.871 19.7606C117.891 19.8335 117.91 19.904 117.929 19.9714C118.103 20.6688 118.279 21.8181 118.401 23.26Z" fill="#F9E7A6" stroke="black" stroke-width="0.25"/>
<path d="M118.85 57.6166C118.974 57.6324 118.974 57.6323 118.974 57.6322L118.974 57.6321L118.974 57.6315L118.974 57.6294L118.975 57.6215L118.978 57.5911C118.981 57.5644 118.985 57.5249 118.99 57.473C119 57.3692 119.013 57.2157 119.024 57.0159C119.048 56.6162 119.067 56.0309 119.051 55.286C119.021 53.7962 118.851 51.6676 118.295 49.108C117.744 46.5713 117.621 43.0035 117.567 39.7822C117.558 39.2378 117.551 38.7031 117.544 38.1853C117.531 37.1742 117.518 36.2272 117.493 35.3965C117.456 34.1443 117.391 33.1391 117.248 32.5704L117.248 32.5699C116.442 29.4059 116.014 25.0492 115.863 23.5091C115.853 23.4094 115.844 23.3215 115.837 23.2465C115.719 21.9171 116.474 20.6849 117.477 20.0687C117.977 19.7615 118.532 19.612 119.063 19.6744C119.591 19.7364 120.107 20.0093 120.534 20.5682L120.572 20.6173H120.602C120.606 20.6236 120.611 20.6313 120.616 20.6395C120.627 20.6559 120.641 20.675 120.66 20.6948C121.621 22.0818 122.109 24.3233 122.417 26.533L122.417 26.533L122.417 26.5348C122.534 27.2955 122.638 28.0624 122.735 28.7764C122.84 29.5516 122.936 30.2643 123.032 30.8385C123.187 31.7987 123.666 33.695 124.104 35.3449C124.323 36.1713 124.532 36.9381 124.687 37.4983C124.765 37.7784 124.828 38.0069 124.873 38.1653L124.924 38.3482L124.938 38.396L124.941 38.4072L124.942 38.4136L124.949 38.448L124.975 38.5827C124.998 38.701 125.031 38.8751 125.075 39.0984C125.162 39.5449 125.287 40.1882 125.443 40.9754C125.753 42.5496 126.182 44.6993 126.655 47.0008C127.6 51.6013 128.724 56.8159 129.433 59.2496C130.799 63.9954 132.964 67.8842 134.495 70.6342C134.555 70.7424 134.614 70.8489 134.673 70.9535L134.673 70.9538C136.857 74.8636 135.847 79.7304 133.667 83.3905C132.579 85.2184 131.205 86.734 129.807 87.6694C128.407 88.6068 127.007 88.9478 125.848 88.4785C123.453 87.5093 121.148 85.0914 119.268 82.3542C117.39 79.6205 115.951 76.5893 115.278 74.4207C114.949 73.3591 115.006 71.7858 115.288 70.0048C115.569 68.229 116.071 66.2661 116.616 64.4363C117.161 62.6071 117.749 60.9135 118.2 59.6772C118.426 59.059 118.617 58.5554 118.752 58.2063C118.82 58.0318 118.873 57.8959 118.909 57.8038L118.951 57.6989L118.962 57.6723L118.965 57.6656L118.965 57.6639L118.965 57.6635C118.965 57.6634 118.965 57.6634 118.85 57.6166ZM118.85 57.6166L118.974 57.6324L118.971 57.6484L118.965 57.6634L118.85 57.6166Z" fill="#F4D466" stroke="black" stroke-width="0.25"/>
<path d="M119.324 59.2083L119.343 59.2495C119.475 60.3359 119.324 61.952 119.004 63.74C118.683 65.5351 118.194 67.4913 117.661 69.2351C117.128 70.9806 116.552 72.5064 116.058 73.4439C115.935 73.6779 115.818 73.8729 115.71 74.0245C115.6 74.1778 115.504 74.2795 115.425 74.3343C115.346 74.3888 115.306 74.3829 115.286 74.3735C115.255 74.3595 115.204 74.3104 115.154 74.1709C114.874 73.3312 114.624 72.105 114.334 70.6751C114.212 70.0784 114.084 69.4463 113.943 68.7921C113.466 66.5778 112.849 64.1238 111.889 61.9907C109.99 57.7676 108.639 50.1644 108.208 47.6391C108.031 46.5199 108.579 45.2543 109.392 44.5093C109.796 44.1382 110.257 43.9058 110.713 43.8774C111.165 43.8492 111.629 44.0192 112.052 44.4858L112.052 44.4859L112.056 44.4902C112.232 44.6661 112.408 44.9012 112.525 45.1339L112.525 45.1339L112.528 45.1393C112.935 45.8623 113.509 47.0193 114.178 48.3679C114.416 48.8466 114.665 49.3494 114.923 49.8656C115.938 51.9854 117.045 54.3356 117.898 56.1561C118.325 57.0664 118.688 57.8443 118.945 58.3945C119.073 58.6696 119.175 58.8878 119.244 59.0373L119.324 59.2083Z" fill="#F4D466" stroke="black" stroke-width="0.25"/>
<path d="M119.267 21.7499C119.251 21.6772 119.239 21.6195 119.231 21.5794C119.671 21.1614 120.21 20.9365 120.762 20.8161C121.685 22.1895 122.163 24.3606 122.467 26.512C122.455 26.5133 122.441 26.5136 122.417 26.5136H122.404L122.391 26.5164C121.882 26.6264 121.432 26.402 121.03 25.9644C120.627 25.5254 120.29 24.8884 120.019 24.225C119.749 23.5636 119.548 22.8856 119.416 22.3721C119.349 22.1155 119.3 21.9006 119.267 21.7499Z" fill="#F9E7A6" stroke="black" stroke-width="0.25"/>
<path d="M110.366 45.732C110.343 45.6686 110.325 45.6185 110.313 45.5841C110.761 44.8594 111.346 44.7015 111.809 44.5768C111.918 44.5473 112.02 44.5197 112.112 44.4869C112.269 44.6547 112.421 44.8645 112.525 45.0724L112.525 45.0724L112.528 45.0777C112.935 45.8007 113.509 46.9575 114.178 48.3059C114.405 48.764 114.643 49.2443 114.89 49.7371C114.855 49.7738 114.792 49.8246 114.693 49.8766C114.548 49.9528 114.333 50.0255 114.04 50.0549C113.519 50.0967 113.026 49.8553 112.569 49.444C112.113 49.0328 111.707 48.4633 111.368 47.8808C111.03 47.2994 110.761 46.7113 110.577 46.2679C110.485 46.0464 110.414 45.8614 110.366 45.732Z" fill="#F9E7A6" stroke="black" stroke-width="0.25"/>
<path d="M214.448 145.385H168.42L126.347 103.162L149.299 80.289L214.448 145.385Z" fill="white" stroke="black" stroke-width="0.25"/>
<path d="M160.064 91.0455L214.264 145.385H168.605L137.173 113.979L160.064 91.0455Z" fill="#D4744D" stroke="black" stroke-width="0.25"/>
<path d="M135.889 107.4C134.482 107.4 133.307 106.227 133.307 104.821C133.307 103.415 134.482 102.241 135.889 102.241C137.296 102.241 138.471 103.415 138.471 104.821C138.471 106.227 137.296 107.4 135.889 107.4Z" fill="#58677D" stroke="black" stroke-width="0.25"/>
</svg>
