<svg width="215" height="173" viewBox="0 0 215 173" fill="none" xmlns="http://www.w3.org/2000/svg">
<path d="M169.452 44.4993L169.452 44.4992L169.449 44.4972C168.03 43.5722 166.019 43.2586 163.837 43.5964L163.424 37.9418C166.38 37.3622 169.63 37.6844 173.004 39.8512C175.2 41.284 176.654 43.0754 177.243 44.9845C177.831 46.8905 177.562 48.9265 176.289 50.8641L176.289 50.8641C175.076 52.7125 173.598 53.6282 171.95 53.9213C170.297 54.2155 168.46 53.8848 166.531 53.2118L166.455 53.1854L166.4 53.2431L164.872 54.8286L161.421 52.6082L163.933 47.3496L164.261 47.256C166.087 48.2254 167.446 48.7203 168.464 48.7985C168.98 48.8382 169.414 48.7715 169.778 48.6008C170.143 48.4298 170.429 48.1587 170.655 47.8042C171.013 47.251 171.082 46.6719 170.867 46.1021C170.654 45.5391 170.171 44.9986 169.452 44.4993ZM155.837 58.7017L159.022 53.8097L164.717 57.4849L161.532 62.3769L155.837 58.7017Z" fill="#D4744D" stroke="black" stroke-width="0.25"/>
<path d="M179.44 13.7486L179.361 13.7679L179.346 13.8476L178.996 15.7733H175.395L174.68 10.6485L174.858 10.425C176.649 10.2698 177.883 9.97774 178.676 9.54668C179.078 9.32802 179.37 9.0711 179.562 8.7738C179.754 8.47557 179.84 8.14409 179.84 7.78504C179.84 7.22423 179.607 6.75651 179.175 6.43268C178.747 6.1118 178.133 5.93904 177.378 5.93904C175.896 5.93904 174.249 6.66107 172.782 7.96927L169.793 3.98639C171.673 2.14029 174.264 0.780212 177.747 0.780212C180.032 0.780212 181.97 1.40431 183.334 2.53395C184.696 3.66151 185.496 5.30043 185.496 7.35479C185.496 9.28983 184.847 10.6695 183.775 11.6736C182.698 12.682 181.184 13.3206 179.44 13.7486ZM174.181 17.8672H180.144V22.9646H174.181V17.8672Z" fill="#D4744D" stroke="black" stroke-width="0.25"/>
<path d="M173.381 100.842C173.414 140.573 141.232 172.781 101.501 172.781C61.7695 172.781 29.5348 140.573 29.5024 100.842C29.4699 61.1105 61.652 28.9021 101.383 28.9021C141.114 28.9021 173.349 61.1105 173.381 100.842Z" fill="#5392A8" stroke="black" stroke-width="0.25"/>
<path d="M51.1528 132.309V86.7683H156.4V132.309H51.1528Z" fill="#36465D" stroke="black" stroke-width="0.25"/>
<path d="M156.4 78.1801V82.4003H50.7222V77.9958L103.438 53.8976L156.4 78.1801Z" fill="white" stroke="black" stroke-width="0.25"/>
<path d="M103.438 58.999L145.496 78.3436H60.8933L103.438 58.999Z" fill="#36465D" stroke="black" stroke-width="0.25"/>
<path d="M114.326 76.3153H91.9962C89.297 76.3153 87.1385 74.1585 87.1385 71.4617C87.1385 68.8254 89.298 66.6082 91.9962 66.6082H114.326C116.964 66.6082 119.183 68.7652 119.184 71.4603C119.123 74.1601 116.962 76.3153 114.326 76.3153Z" fill="#58677D" stroke="black" stroke-width="0.25"/>
<path d="M66.7773 92.9722V89.5958H71.4484V92.9722H66.7773Z" fill="#65B2B7" stroke="black" stroke-width="0.25"/>
<path d="M72.7961 122.106H65.5522L66.7724 91.8699H71.4539L72.7961 122.106Z" fill="white" stroke="black" stroke-width="0.25"/>
<path d="M65.4979 124.261H72.8509L74.5857 124.666V129.297H63.7631V124.666L65.4979 124.261Z" fill="#65B2B7" stroke="black" stroke-width="0.25"/>
<path d="M63.8909 124.442L65.4839 122.356H72.865L74.458 124.442H63.8909Z" fill="#7FBECB" stroke="black" stroke-width="0.25"/>
<path d="M71.6965 89.776H66.5293C65.8408 89.776 65.3048 89.28 65.245 88.6123H73.0319C72.9209 89.2837 72.3807 89.776 71.6965 89.776Z" fill="#D1E1EF" stroke="black" stroke-width="0.25"/>
<path d="M61.5486 131.449V126.044H76.6772V131.449H61.5486Z" fill="#E9B645" stroke="black" stroke-width="0.25"/>
<path d="M89.5377 92.9722V89.5958H94.2088V92.9722H89.5377Z" fill="#65B2B7" stroke="black" stroke-width="0.25"/>
<path d="M95.5567 122.106H88.3739L89.5941 91.8699H94.2754L95.5567 122.106Z" fill="white" stroke="black" stroke-width="0.25"/>
<path d="M88.3198 124.261H95.6112L97.346 124.666V129.297H86.585V124.666L88.3198 124.261Z" fill="#65B2B7" stroke="black" stroke-width="0.25"/>
<path d="M86.7128 124.442L88.3057 122.356H95.6253L97.2182 124.442H86.7128Z" fill="#7FBECB" stroke="black" stroke-width="0.25"/>
<path d="M94.5183 89.776H89.3511C88.6627 89.776 88.1266 89.28 88.0668 88.6123H95.8538C95.7427 89.2837 95.2025 89.776 94.5183 89.776Z" fill="#D1E1EF" stroke="black" stroke-width="0.25"/>
<path d="M84.309 131.449V126.044H99.4374V131.449H84.309Z" fill="#E9B645" stroke="black" stroke-width="0.25"/>
<path d="M112.359 92.9722V89.5958H117.03V92.9722H112.359Z" fill="#65B2B7" stroke="black" stroke-width="0.25"/>
<path d="M118.378 122.106H111.134L112.354 91.8699H117.036L118.378 122.106Z" fill="white" stroke="black" stroke-width="0.25"/>
<path d="M111.08 124.261H118.433L120.168 124.666V129.297H109.407V124.665L111.08 124.261Z" fill="#65B2B7" stroke="black" stroke-width="0.25"/>
<path d="M109.529 124.442L111.067 122.356H118.447L120.04 124.442H109.529Z" fill="#7FBECB" stroke="black" stroke-width="0.25"/>
<path d="M117.279 89.776H112.111C111.423 89.776 110.887 89.28 110.827 88.6123H118.624C118.558 89.2745 117.973 89.776 117.279 89.776Z" fill="#D1E1EF" stroke="black" stroke-width="0.25"/>
<path d="M107.131 131.449V126.044H122.259V131.449H107.131Z" fill="#E9B645" stroke="black" stroke-width="0.25"/>
<path d="M135.181 92.9722V89.5958H139.852V92.9722H135.181Z" fill="#65B2B7" stroke="black" stroke-width="0.25"/>
<path d="M141.2 122.106H133.956L135.176 91.8699H139.858L141.2 122.106Z" fill="white" stroke="black" stroke-width="0.25"/>
<path d="M133.902 124.261H141.255L142.99 124.666V129.297H132.167V124.666L133.902 124.261Z" fill="#65B2B7" stroke="black" stroke-width="0.25"/>
<path d="M132.295 124.442L133.888 122.356H141.269L142.862 124.442H132.295Z" fill="#7FBECB" stroke="black" stroke-width="0.25"/>
<path d="M140.1 89.776H134.933C134.245 89.776 133.709 89.2801 133.649 88.6123H141.436C141.325 89.2837 140.785 89.776 140.1 89.776Z" fill="#D1E1EF" stroke="black" stroke-width="0.25"/>
<path d="M129.953 131.449V126.044H145.081V131.449H129.953Z" fill="#E9B645" stroke="black" stroke-width="0.25"/>
<path d="M77.4808 104.22V95.9265H83.1362V104.22H77.4808Z" fill="#F4D566" stroke="black" stroke-width="0.25"/>
<path d="M77.4808 118.726V110.432H83.1362V118.726H77.4808Z" fill="#F4D566" stroke="black" stroke-width="0.25"/>
<path d="M100.487 104.22V95.9265H106.143V104.22H100.487Z" fill="#F4D566" stroke="black" stroke-width="0.25"/>
<path d="M100.487 118.726V110.432H106.143V118.726H100.487Z" fill="#F4D566" stroke="black" stroke-width="0.25"/>
<path d="M123.493 104.22V95.9265H129.149V104.22H123.493Z" fill="#F4D566" stroke="black" stroke-width="0.25"/>
<path d="M123.493 118.726V110.432H129.149V118.726H123.493Z" fill="#F4D566" stroke="black" stroke-width="0.25"/>
<path d="M145.762 104.22V95.9265H151.417V104.22H145.762Z" fill="#F4D566" stroke="black" stroke-width="0.25"/>
<path d="M145.762 118.726V110.432H151.417V118.726H145.762Z" fill="#F4D566" stroke="black" stroke-width="0.25"/>
<path d="M55.2742 104.22V95.9265H60.9296V104.22H55.2742Z" fill="#F4D566" stroke="black" stroke-width="0.25"/>
<path d="M55.2742 118.726V110.432H60.9296V118.726H55.2742Z" fill="#F4D566" stroke="black" stroke-width="0.25"/>
<path d="M49.6149 135.505V130.592H157.999V135.505H49.6149Z" fill="#D1E1EF" stroke="black" stroke-width="0.25"/>
<path d="M46.9083 138.148V134.034H160.829V138.148H46.9083Z" fill="white" stroke="black" stroke-width="0.25"/>
<path d="M48.9998 88.3623V85.7235H158.676V88.3623H48.9998Z" fill="#65B2B7" stroke="black" stroke-width="0.25"/>
<path d="M46.6622 85.9652V81.1136H161.013V85.9652H46.6622Z" fill="white" stroke="black" stroke-width="0.25"/>
<path d="M46.6622 82.4003V81.0522H161.013V82.4003H46.6622Z" fill="#58677D" stroke="black" stroke-width="0.25"/>
<path d="M93.7186 74.2871H91.014V68.698H95.5006V69.8002H92.5498H92.4248V69.9252V70.6013V70.7263H92.5498H93.6571C94.3171 70.7263 94.8715 70.8765 95.2578 71.1696C95.6393 71.4589 95.8697 71.897 95.8697 72.5067C95.8697 73.0898 95.6669 73.5284 95.3078 73.8238C94.9452 74.1222 94.408 74.2871 93.7186 74.2871ZM92.4883 71.7671H92.3633V71.8921V73.1213V73.2463H92.4883H93.5956C93.8611 73.2463 94.0905 73.1801 94.2567 73.051C94.4258 72.9196 94.5203 72.7294 94.5203 72.5067C94.5203 72.2846 94.4264 72.0956 94.2671 71.9646C94.1098 71.8351 93.8954 71.7671 93.6571 71.7671H92.4883Z" fill="white" stroke="black" stroke-width="0.25"/>
<path d="M100.785 73.381L100.753 73.3037H100.67H98.3937H98.31L98.2781 73.381L97.8795 74.3485H96.4301L98.8453 68.698H100.218L102.633 74.3485H101.184L100.785 73.381ZM100.178 72.2629H100.364L100.293 72.0907L99.6168 70.4312L99.501 70.1473L99.3853 70.4312L98.7086 72.0907L98.6384 72.2629H98.8243H100.178Z" fill="white" stroke="black" stroke-width="0.25"/>
<path d="M104.851 72.1994V74.2871H103.501V68.698H104.851V70.7857V70.9107H104.976H107.067H107.192V70.7857V68.698H108.542V74.2871H107.192V72.1994V72.0744H107.067H104.976H104.851V72.1994Z" fill="white" stroke="black" stroke-width="0.25"/>
<path d="M111.187 72.9369V74.3485H109.837V68.698H111.248V70.9701V71.3111L111.469 71.0509L113.461 68.698H115.034L113.002 71.0105L112.937 71.0835L112.992 71.1637L115.134 74.2871H113.469L112.03 72.1901L111.941 72.06L111.834 72.1767L111.219 72.8528L111.187 72.8886V72.9369Z" fill="white" stroke="black" stroke-width="0.25"/>
<path d="M131.249 61.8884L131.249 61.8883L131.247 61.8953C131.206 62.0178 131.078 62.1172 130.873 62.1172C130.843 62.1172 130.823 62.1169 130.798 62.1119C130.772 62.1069 130.737 62.0959 130.683 62.0689L130.63 62.1754L130.683 62.0689L129.945 61.7001C129.945 61.7001 129.945 61.7001 129.945 61.7001C129.763 61.6092 129.659 61.3759 129.757 61.1258C129.85 60.9468 130.081 60.8458 130.33 60.9428L131.063 61.3091C131.246 61.4006 131.35 61.6364 131.249 61.8884Z" fill="white" stroke="black" stroke-width="0.25"/>
<path d="M141.386 66.9246L141.386 66.9245L141.382 66.9226L140.031 66.309C139.85 66.2174 139.748 65.9848 139.845 65.7356C139.938 65.5561 140.171 65.455 140.42 65.5534L141.769 66.1658C141.949 66.2573 142.052 66.4899 141.955 66.7393C141.903 66.8395 141.844 66.8948 141.786 66.9266C141.725 66.9597 141.655 66.9728 141.577 66.9728C141.546 66.9728 141.526 66.9726 141.501 66.9676C141.476 66.9626 141.44 66.9515 141.386 66.9246ZM137.819 65.3265L137.819 65.3264L137.814 65.3245L136.463 64.7109C136.283 64.6193 136.18 64.3868 136.277 64.1375C136.37 63.9581 136.603 63.857 136.853 63.9553L138.201 64.5677C138.38 64.6584 138.482 64.8874 138.39 65.134C138.282 65.2894 138.135 65.3748 138.009 65.3748C137.978 65.3748 137.958 65.3746 137.933 65.3695C137.908 65.3645 137.873 65.3535 137.819 65.3265ZM134.251 63.7284L134.251 63.7284L134.247 63.7264L132.895 63.1128C132.715 63.0213 132.612 62.7887 132.71 62.5395C132.802 62.36 133.035 62.2589 133.285 62.3573L134.633 62.9696C134.815 63.0618 134.918 63.2968 134.817 63.5479L134.817 63.5479L134.814 63.5548C134.774 63.6774 134.646 63.7767 134.441 63.7767C134.41 63.7767 134.391 63.7765 134.365 63.7715C134.34 63.7664 134.305 63.7554 134.251 63.7284Z" fill="white" stroke="black" stroke-width="0.25"/>
<path d="M143.601 67.9694L143.601 67.9694C143.419 67.8785 143.315 67.6452 143.413 67.3951C143.506 67.2161 143.738 67.1151 143.986 67.212L144.719 67.5784L144.719 67.5784C144.9 67.6684 145.003 67.8982 144.91 68.1456C144.802 68.301 144.656 68.3865 144.529 68.3865C144.499 68.3865 144.479 68.3862 144.454 68.3812C144.429 68.3762 144.393 68.3651 144.339 68.3382L143.601 67.9694Z" fill="white" stroke="black" stroke-width="0.25"/>
<path d="M70.3388 64.2923L70.336 64.2839L70.332 64.2759C70.2887 64.1894 70.2851 64.0713 70.3234 63.9566C70.3612 63.8434 70.4335 63.7519 70.5186 63.7079L71.2525 63.4024L71.2526 63.4027L71.2603 63.3988C71.347 63.3555 71.4652 63.352 71.5801 63.3902C71.695 63.4285 71.7874 63.5022 71.8308 63.5888C71.8741 63.6753 71.8776 63.7934 71.8394 63.9082C71.8011 64.0229 71.7273 64.1153 71.6407 64.1586L70.9289 64.5142H70.9287H70.9282H70.9278H70.9273H70.9268H70.9264H70.9259H70.9255H70.925H70.9246H70.9241H70.9237H70.9232H70.9227H70.9223H70.9218H70.9213H70.9209H70.9204H70.92H70.9195H70.919H70.9185H70.9181H70.9176H70.9171H70.9167H70.9162H70.9157H70.9152H70.9148H70.9143H70.9138H70.9133H70.9129H70.9124H70.9119H70.9114H70.9109H70.9104H70.91H70.9095H70.909H70.9085H70.908H70.9075H70.907H70.9066H70.9061H70.9056H70.9051H70.9046H70.9041H70.9036H70.9031H70.9026H70.9021H70.9016H70.9011H70.9006H70.9001H70.8996H70.8991H70.8986H70.8981H70.8976H70.8971H70.8966H70.8961H70.8956H70.8951H70.8946H70.8941H70.8936H70.8931H70.8926H70.8921H70.8915H70.891H70.8905H70.89H70.8895H70.889H70.8885H70.888H70.8874H70.8869H70.8864H70.8859H70.8854H70.8849H70.8844H70.8838H70.8833H70.8828H70.8823H70.8818H70.8812H70.8807H70.8802H70.8797H70.8792H70.8786H70.8781H70.8776H70.8771H70.8765H70.876H70.8755H70.875H70.8744H70.8739H70.8734H70.8729H70.8723H70.8718H70.8713H70.8707H70.8702H70.8697H70.8692H70.8686H70.8681H70.8676H70.867H70.8665H70.866H70.8654H70.8649H70.8644H70.8638H70.8633H70.8628H70.8622H70.8617H70.8612H70.8606H70.8601H70.8596H70.859H70.8585H70.858H70.8574H70.8569H70.8564H70.8558H70.8553H70.8547H70.8542H70.8537H70.8531H70.8526H70.8521H70.8515H70.851H70.8504H70.8499H70.8494H70.8488H70.8483H70.8478H70.8472H70.8467H70.8461H70.8456H70.8451H70.8445H70.844H70.8434H70.8429H70.8424H70.8418H70.8413H70.8407H70.8402H70.8397H70.8391H70.8386H70.838H70.8375H70.8369H70.8364H70.8359H70.8353H70.8348H70.8342H70.8337H70.8332H70.8326H70.8321H70.8315H70.831H70.8305H70.8299H70.8294H70.8288H70.8283H70.8278H70.8272H70.8267H70.8261H70.8256H70.8251H70.8245H70.824H70.8234H70.8229H70.8224H70.8218H70.8213H70.8207H70.8202H70.8197H70.8191H70.8186H70.8181H70.8175H70.817H70.8164H70.8159H70.8154H70.8148H70.8143H70.8138H70.8132H70.8127H70.8121H70.8116H70.8111H70.8105H70.81H70.8095H70.8089H70.8084H70.8079H70.8073H70.8068H70.8063H70.8057H70.8052H70.8047H70.8041H70.8036H70.8031H70.8026H70.802H70.8015H70.801H70.8004H70.7999H70.7994H70.7988H70.7983H70.7978H70.7973H70.7967H70.7962H70.7957H70.7952H70.7946H70.7941H70.7936H70.7931H70.7925H70.792H70.7915H70.791H70.7905H70.7899H70.7894H70.7889H70.7884H70.7879H70.7873H70.7868H70.7863H70.7858H70.7853H70.7847H70.7842H70.7837H70.7832H70.7827H70.7822H70.7817H70.7811H70.7806H70.7801H70.7796H70.7791H70.7786H70.7781H70.7776H70.7771H70.7766H70.7761H70.7756H70.775H70.7745H70.774H70.7735H70.773H70.7725H70.772H70.7715H70.771H70.7705H70.77H70.7695H70.769H70.7685H70.768H70.7675H70.7671H70.7666H70.7661H70.7656H70.7651H70.7646H70.7641H70.7636H70.7631H70.7626H70.7621H70.7617H70.7612H70.7607H70.7602H70.7597H70.7592H70.7588H70.7583H70.7578H70.7573H70.7568H70.7564H70.7559H70.7554H70.7549H70.7545H70.754H70.7535H70.753H70.7526H70.7521H70.7516H70.7512H70.7507H70.7502H70.7498H70.7493H70.7488H70.7484H70.7479H70.7475H70.747H70.7465H70.7461H70.7456H70.7452H70.7447H70.7443H70.7438H70.7433H70.7429H70.7424H70.742H70.7416H70.7411H70.7407H70.7402H70.7398H70.7393H70.7389H70.7384H70.738H70.7376H70.7371H70.7367H70.7363H70.7358H70.7354H70.735H70.7345H70.7341H70.7337H70.7332H70.7328H70.7324H70.732H70.7315H70.7311H70.7307H70.7303H70.7299H70.7294H70.729H70.7286H70.7282H70.7278H70.7274H70.727H70.7265H70.7261H70.7257H70.7253H70.7249H70.7245H70.7241H70.7237H70.7233H70.7229H70.7225H70.7221H70.7217H70.7213H70.7209H70.7206H70.7202H70.7198H70.7194H70.719H70.7186H70.7182H70.7179H70.7175H70.7171H70.7167H70.7163H70.716H70.7156H70.7152H70.7148H70.7145H70.7141H70.7137H70.7134H70.713H70.7127H70.7123C70.6449 64.5142 70.5588 64.4908 70.4831 64.4467C70.4065 64.4021 70.3567 64.3459 70.3388 64.2923Z" fill="white" stroke="black" stroke-width="0.25"/>
<path d="M73.6605 62.7558L73.6577 62.7474L73.6537 62.7394C73.6104 62.6529 73.6068 62.5348 73.6451 62.42C73.683 62.3064 73.7557 62.2147 73.8413 62.1709L75.3761 61.4961L75.3762 61.4963L75.3817 61.4935C75.4684 61.4502 75.5866 61.4467 75.7015 61.4849C75.8164 61.5232 75.9089 61.5969 75.9522 61.6835C75.9955 61.77 75.9991 61.8881 75.9608 62.0029C75.9229 62.1165 75.8502 62.2082 75.7646 62.252L74.2298 62.9268L74.2297 62.9267L74.2242 62.9294C74.1703 62.9564 74.1347 62.9674 74.1095 62.9724C74.0843 62.9775 74.0646 62.9777 74.034 62.9777C73.9667 62.9777 73.8805 62.9543 73.8048 62.9102C73.7282 62.8655 73.6784 62.8094 73.6605 62.7558ZM77.7204 60.9119L77.7176 60.9035L77.7136 60.8955C77.6703 60.809 77.6667 60.6909 77.705 60.5761C77.7429 60.4625 77.8157 60.3708 77.9013 60.327L79.4361 59.6522L79.4361 59.6523L79.4416 59.6496C79.5283 59.6063 79.6466 59.6027 79.7615 59.641C79.8764 59.6793 79.9688 59.753 80.0121 59.8396C80.0554 59.9261 80.059 60.0442 80.0207 60.159C79.9828 60.2726 79.9101 60.3643 79.8245 60.4081L78.2897 61.0829L78.2682 61.0923L78.2516 61.1089C78.2389 61.1216 78.2306 61.1255 78.2155 61.1285C78.1919 61.1332 78.16 61.1338 78.0939 61.1338C78.0266 61.1338 77.9404 61.1104 77.8647 61.0663C77.7881 61.0216 77.7383 60.9655 77.7204 60.9119ZM81.8418 59.0065L81.839 58.9981L81.8351 58.9901C81.7917 58.9036 81.7882 58.7855 81.8265 58.6707C81.8644 58.5571 81.9371 58.4654 82.0227 58.4216L83.5575 57.7468L83.5576 57.747L83.5631 57.7442C83.6497 57.7009 83.768 57.6974 83.8829 57.7356C83.9978 57.7739 84.0902 57.8476 84.1335 57.9342C84.1769 58.0207 84.1804 58.1388 84.1421 58.2536C84.1042 58.3672 84.0315 58.4589 83.9459 58.5027L82.4111 59.1775L82.3897 59.1869L82.3731 59.2035C82.3701 59.2065 82.3554 59.2162 82.3179 59.2224C82.2833 59.2282 82.2469 59.2284 82.2154 59.2284C82.148 59.2284 82.0619 59.205 81.9861 59.1609C81.9096 59.1162 81.8597 59.0601 81.8418 59.0065ZM85.9633 57.1626L85.9605 57.1542L85.9565 57.1462C85.9132 57.0597 85.9096 56.9416 85.9479 56.8268C85.9858 56.7132 86.0585 56.6215 86.1441 56.5777L87.6789 55.9029L87.679 55.903L87.6845 55.9003C87.7711 55.857 87.8894 55.8534 88.0043 55.8917C88.1192 55.93 88.2117 56.0037 88.255 56.0903C88.2983 56.1768 88.3019 56.2949 88.2636 56.4097C88.2257 56.5233 88.153 56.615 88.0674 56.6588L86.5326 57.3336L86.5325 57.3334L86.527 57.3362C86.4731 57.3631 86.4375 57.3742 86.4123 57.3792C86.3871 57.3842 86.3674 57.3845 86.3368 57.3845C86.2695 57.3845 86.1833 57.3611 86.1076 57.317C86.031 57.2723 85.9812 57.2162 85.9633 57.1626ZM90.0232 55.2572L90.0204 55.2488L90.0164 55.2408C89.9731 55.1543 89.9695 55.0362 90.0078 54.9214C90.0457 54.8078 90.1185 54.7161 90.2041 54.6723L91.7388 53.9975L91.7389 53.9977L91.7444 53.9949C91.8311 53.9516 91.9494 53.9481 92.0643 53.9863C92.1792 54.0246 92.2716 54.0983 92.3149 54.1849C92.3582 54.2714 92.3618 54.3895 92.3235 54.5043C92.2856 54.6179 92.2129 54.7096 92.1273 54.7534L90.5925 55.4282L90.571 55.4376L90.5544 55.4542C90.5417 55.4669 90.5334 55.4708 90.5183 55.4738C90.4947 55.4785 90.4627 55.4791 90.3967 55.4791C90.3294 55.4791 90.2432 55.4557 90.1675 55.4116C90.0909 55.3669 90.0411 55.3108 90.0232 55.2572ZM94.1446 53.4133L94.1418 53.4049L94.1378 53.3969C94.0945 53.3104 94.091 53.1923 94.1293 53.0775C94.1672 52.9639 94.2399 52.8722 94.3255 52.8284L95.8603 52.1536L95.8604 52.1537L95.8658 52.151C95.9525 52.1077 96.0708 52.1041 96.1857 52.1424C96.3006 52.1807 96.393 52.2544 96.4363 52.341C96.4796 52.4275 96.4832 52.5456 96.4449 52.6604C96.407 52.774 96.3343 52.8657 96.2487 52.9095L94.7139 53.5843L94.6925 53.5937L94.6759 53.6103C94.6728 53.6133 94.6582 53.6229 94.6207 53.6292C94.5861 53.6349 94.5496 53.6352 94.5182 53.6352C94.4508 53.6352 94.3647 53.6118 94.2889 53.5677C94.2123 53.523 94.1625 53.4669 94.1446 53.4133ZM98.2661 51.5079L98.2633 51.4995L98.2593 51.4915C98.216 51.405 98.2124 51.2869 98.2507 51.1721C98.2886 51.0585 98.3613 50.9668 98.4469 50.923L99.9817 50.2482L99.9818 50.2484L99.9873 50.2456C100.074 50.2023 100.192 50.1988 100.307 50.237C100.422 50.2753 100.514 50.349 100.558 50.4356C100.601 50.5221 100.605 50.6402 100.566 50.755C100.528 50.8686 100.456 50.9603 100.37 51.0041L98.8354 51.6789L98.8353 51.6788L98.8298 51.6815C98.7759 51.7085 98.7403 51.7195 98.7151 51.7245C98.6899 51.7296 98.6702 51.7298 98.6396 51.7298C98.5723 51.7298 98.4861 51.7064 98.4104 51.6623C98.3338 51.6176 98.284 51.5615 98.2661 51.5079Z" fill="white" stroke="black" stroke-width="0.25"/>
<path d="M103.438 49.5637L103.494 49.5917L103.986 49.8375L103.438 49.5637ZM103.438 49.5637L103.382 49.5917M103.438 49.5637L103.382 49.5917M103.382 49.5917L102.89 49.8375L103.382 49.5917ZM103.622 48.5974L103.567 48.7089C103.526 48.6886 103.469 48.676 103.407 48.676C103.345 48.676 103.288 48.6886 103.248 48.7089L102.509 49.0777C102.509 49.0777 102.509 49.0777 102.509 49.0777C102.423 49.121 102.349 49.2134 102.311 49.3282C102.272 49.4429 102.276 49.561 102.319 49.6475C102.363 49.7341 102.455 49.8078 102.57 49.8461C102.685 49.8844 102.803 49.8808 102.89 49.8375L103.622 48.5974ZM103.622 48.5974L103.567 48.7089L104.305 49.0777C104.488 49.1692 104.591 49.405 104.491 49.657L104.482 49.6794M103.622 48.5974L104.482 49.6794M104.482 49.6794V49.7035M104.482 49.6794V49.7035M104.482 49.7035C104.482 49.7487 104.461 49.7897 104.412 49.8239C104.361 49.8597 104.28 49.8858 104.176 49.8858C104.145 49.8858 104.126 49.8856 104.101 49.8805M104.482 49.7035L104.101 49.8805M104.101 49.8805C104.075 49.8755 104.04 49.8645 103.986 49.8375L104.101 49.8805Z" fill="white" stroke="black" stroke-width="0.25"/>
<path d="M115.427 55.062L115.428 55.062L115.426 55.0611L114.012 54.3855C113.83 54.2943 113.727 54.0613 113.825 53.8116C113.917 53.6324 114.15 53.5313 114.399 53.629L115.809 54.3027C115.988 54.3931 116.091 54.6225 115.998 54.8695C115.891 55.0249 115.744 55.1103 115.618 55.1103C115.587 55.1103 115.567 55.1101 115.542 55.1051C115.517 55.1 115.481 55.089 115.427 55.062ZM111.614 53.341L111.614 53.341L111.612 53.3401L110.198 52.6645C110.016 52.5733 109.913 52.3403 110.011 52.0906C110.104 51.9114 110.336 51.8103 110.585 51.908L111.995 52.5817C112.177 52.6735 112.281 52.909 112.18 53.1605L112.18 53.1605L112.177 53.1674C112.159 53.221 112.11 53.2772 112.033 53.3218C111.957 53.366 111.871 53.3893 111.804 53.3893C111.773 53.3893 111.753 53.3891 111.728 53.3841C111.703 53.379 111.668 53.368 111.614 53.341ZM107.8 51.5586L107.8 51.5586L107.798 51.5576L106.384 50.882C106.203 50.7908 106.1 50.5579 106.197 50.3081C106.29 50.1289 106.522 50.0279 106.771 50.1255L108.181 50.7993C108.363 50.8911 108.467 51.1265 108.366 51.3781L108.366 51.378L108.363 51.385C108.323 51.5075 108.195 51.6069 107.99 51.6069C107.959 51.6069 107.94 51.6066 107.914 51.6016C107.889 51.5966 107.854 51.5855 107.8 51.5586Z" fill="white" stroke="black" stroke-width="0.25"/>
<path d="M118.945 55.7158L118.945 55.7158C119.125 55.8059 119.229 56.0357 119.136 56.2831C119.028 56.4385 118.882 56.5239 118.755 56.5239C118.724 56.5239 118.705 56.5237 118.679 56.5187C118.654 56.5136 118.619 56.5026 118.565 56.4756L118.511 56.5821L118.565 56.4756L117.826 56.1068C117.826 56.1068 117.826 56.1068 117.826 56.1068C117.645 56.016 117.541 55.7827 117.639 55.5325C117.731 55.3535 117.963 55.2525 118.212 55.3495L118.945 55.7158Z" fill="white" stroke="black" stroke-width="0.25"/>
<path d="M42.2927 90.6979C42.0541 90.6979 41.8641 90.5079 41.8641 90.2697V89.4707C41.8641 89.2325 42.0541 89.0425 42.2927 89.0425C42.5313 89.0425 42.7213 89.2325 42.7213 89.4707V90.2697C42.7213 90.5079 42.5313 90.6979 42.2927 90.6979Z" fill="white" stroke="black" stroke-width="0.25"/>
<path d="M42.2927 87.0715C42.0541 87.0715 41.8641 86.8816 41.8641 86.6434V84.9224C41.8641 84.6842 42.0541 84.4942 42.2927 84.4942C42.5313 84.4942 42.7213 84.6842 42.7213 84.9224V86.6434C42.7213 86.8816 42.5313 87.0715 42.2927 87.0715ZM42.2927 82.4617C42.0541 82.4617 41.8641 82.2718 41.8641 82.0336V80.3126C41.8641 80.0744 42.0541 79.8844 42.2927 79.8844C42.5313 79.8844 42.7213 80.0744 42.7213 80.3126V82.0336C42.7213 82.2718 42.5313 82.4617 42.2927 82.4617Z" fill="white" stroke="black" stroke-width="0.25"/>
<path d="M42.8463 77.1144H42.7213V77.2394V77.4853C42.7213 77.7235 42.5314 77.9135 42.2927 77.9135C42.0541 77.9135 41.8641 77.7235 41.8641 77.4853V76.6862C41.8641 76.4481 42.0541 76.2581 42.2927 76.2581H43.0924C43.331 76.2581 43.521 76.448 43.521 76.6862C43.521 76.9244 43.331 77.1144 43.0924 77.1144H42.8463Z" fill="white" stroke="black" stroke-width="0.25"/>
<path d="M45.7991 76.2581H45.9241V76.1331V75.2111C45.9241 75.1439 45.9474 75.0578 45.9916 74.9822C46.0362 74.9057 46.0924 74.8559 46.1461 74.838L46.1545 74.8352L46.1625 74.8312L46.9007 74.4624C46.9873 74.4191 47.1056 74.4156 47.2205 74.4538C47.3354 74.4921 47.4279 74.5658 47.4712 74.6524C47.5145 74.7389 47.518 74.857 47.4798 74.9718C47.4419 75.0852 47.3694 75.1768 47.284 75.2207L46.8571 75.4035L46.7813 75.436V75.5184V76.6248C46.7813 76.9333 46.5828 77.1144 46.3527 77.1144H45.553C45.3144 77.1144 45.1244 76.9244 45.1244 76.6862C45.1244 76.448 45.3144 76.2581 45.553 76.2581H45.7991Z" fill="white" stroke="black" stroke-width="0.25"/>
<path d="M49.3624 73.8808L49.3596 73.8723L49.3556 73.8644C49.3123 73.7778 49.3087 73.6597 49.347 73.545C49.3852 73.4306 49.4586 73.3385 49.5449 73.295L51.0818 72.5579L51.0818 72.5579L51.0836 72.557C51.1703 72.5137 51.2886 72.5101 51.4034 72.5484C51.5183 72.5867 51.6108 72.6604 51.6541 72.747C51.6974 72.8335 51.701 72.9516 51.6627 73.0664C51.6246 73.1807 51.5511 73.2729 51.4648 73.3164L49.9516 74.0421C49.8824 74.0465 49.8291 74.065 49.7895 74.0808C49.7789 74.0851 49.7712 74.0883 49.7648 74.0909C49.7557 74.0947 49.7494 74.0974 49.7415 74.1001C49.7373 74.1016 49.7347 74.1023 49.7335 74.1026C49.6665 74.1021 49.5815 74.0788 49.5067 74.0351C49.4301 73.9905 49.3803 73.9344 49.3624 73.8808ZM53.5454 71.9754L53.5425 71.9669L53.5386 71.959C53.4953 71.8725 53.4917 71.7544 53.53 71.6396C53.5681 71.5252 53.6416 71.4331 53.7279 71.3896L55.2648 70.6525L55.2648 70.6525L55.2666 70.6516C55.3533 70.6083 55.4715 70.6048 55.5864 70.643C55.7013 70.6813 55.7938 70.755 55.8371 70.8416C55.8804 70.9281 55.8839 71.0462 55.8457 71.161C55.8075 71.2754 55.7341 71.3675 55.6478 71.411L54.1346 72.1367C54.0654 72.1411 54.0121 72.1596 53.9725 72.1755C53.9619 72.1797 53.9541 72.1829 53.9478 72.1856C53.9387 72.1893 53.9323 72.192 53.9244 72.1948C53.9202 72.1962 53.9177 72.1969 53.9165 72.1972C53.8495 72.1967 53.7645 72.1734 53.6896 72.1297C53.6131 72.0851 53.5632 72.029 53.5454 71.9754Z" fill="white" stroke="black" stroke-width="0.25"/>
<path d="M57.7283 70.0701L57.7255 70.0617L57.7215 70.0537C57.6782 69.9672 57.6746 69.8491 57.7129 69.7343C57.7512 69.6196 57.825 69.5272 57.9117 69.4839C57.9117 69.4839 57.9117 69.4839 57.9117 69.4839L58.6499 69.1151C58.7366 69.0718 58.8549 69.0683 58.9697 69.1065C59.0846 69.1448 59.1771 69.2185 59.2204 69.3051C59.2637 69.3916 59.2673 69.5097 59.229 69.6245C59.1907 69.7392 59.117 69.8316 59.0303 69.8749L58.3164 70.2315C58.2478 70.236 58.1948 70.2544 58.1554 70.2702C58.1449 70.2744 58.1371 70.2776 58.1307 70.2803C58.1216 70.284 58.1153 70.2867 58.1074 70.2895C58.1032 70.2909 58.1007 70.2916 58.0994 70.2919C58.0325 70.2914 57.9474 70.2681 57.8726 70.2245C57.796 70.1798 57.7462 70.1237 57.7283 70.0701Z" fill="white" stroke="black" stroke-width="0.25"/>
<path d="M46.7833 114.73C46.5447 114.73 46.3547 114.54 46.3547 114.302V113.503C46.3547 113.265 46.5447 113.075 46.7833 113.075C47.0219 113.075 47.2119 113.265 47.2119 113.503V114.302C47.2119 114.54 47.0219 114.73 46.7833 114.73Z" fill="white" stroke="black" stroke-width="0.25"/>
<path d="M46.7833 111.043C46.5447 111.043 46.3547 110.853 46.3547 110.614V108.893C46.3547 108.655 46.5447 108.465 46.7833 108.465C47.0219 108.465 47.2119 108.655 47.2119 108.893V110.614C47.2119 110.853 47.0219 111.043 46.7833 111.043ZM46.7833 106.371C46.5447 106.371 46.3547 106.181 46.3547 105.943V104.222C46.3547 103.984 46.5447 103.794 46.7833 103.794C47.0219 103.794 47.2119 103.984 47.2119 104.222V105.943C47.2119 106.181 47.0219 106.371 46.7833 106.371ZM46.7833 101.7C46.5447 101.7 46.3547 101.51 46.3547 101.272V99.5509C46.3547 99.3127 46.5447 99.1227 46.7833 99.1227C47.0219 99.1227 47.2119 99.3127 47.2119 99.5509V101.272C47.2119 101.51 47.0219 101.7 46.7833 101.7Z" fill="white" stroke="black" stroke-width="0.25"/>
<path d="M46.7833 97.0288C46.5447 97.0288 46.3547 96.8388 46.3547 96.6006V95.8016C46.3547 95.5634 46.5447 95.3734 46.7833 95.3734C47.0219 95.3734 47.2119 95.5634 47.2119 95.8016V96.6006C47.2119 96.8388 47.0219 97.0288 46.7833 97.0288Z" fill="white" stroke="black" stroke-width="0.25"/>
<path d="M152.977 13.2503L152.977 13.2503C156.647 14.5339 159.404 16.6234 160.962 19.1975C162.518 21.7688 162.885 24.8337 161.758 28.0883C160.662 31.2239 158.839 33.0857 156.551 34.0924C154.258 35.1016 151.484 35.257 148.479 34.9506L148.398 34.9424L148.358 35.0129L146.687 37.9349L140.797 35.914L142.488 27.2271L142.947 26.9723C145.91 27.7317 148.053 27.9639 149.555 27.7228C150.312 27.6013 150.912 27.3586 151.372 26.9976C151.833 26.6361 152.145 26.1617 152.337 25.5888C152.656 24.6942 152.561 23.838 152.06 23.1036C151.563 22.3739 150.674 21.7774 149.428 21.3728C147.086 20.5725 144.03 20.8084 140.977 22.0616L138.346 13.9358C142.421 12.0156 147.276 11.2505 152.977 13.2503ZM134.785 46.6146L137.656 38.3074L147.323 41.6673L144.452 49.9745L134.785 46.6146Z" fill="#D4744D" stroke="black" stroke-width="0.25"/>
</svg>
