<svg width="215" height="144" viewBox="0 0 215 144" fill="none" xmlns="http://www.w3.org/2000/svg">
<path d="M95.0582 27.2512V12.7499H119.475V27.2512H95.0582Z" fill="#65B2B7" stroke="black" stroke-width="0.25"/>
<path d="M125.383 14.9584H89.2126C88.1743 14.9584 87.3076 14.0923 87.3076 13.0551V2.42185C87.3076 1.38464 88.1743 0.518555 89.2126 0.518555H125.383C126.421 0.518555 127.288 1.38464 127.288 2.42185V13.0551C127.288 14.0923 126.421 14.9584 125.383 14.9584Z" fill="#7FBECB" stroke="black" stroke-width="0.25"/>
<path d="M142.538 36.5837L148.518 30.397L159.002 40.5139L153.022 46.7005L142.538 36.5837Z" fill="#65B2B7" stroke="black" stroke-width="0.25"/>
<path d="M147.061 30.6666L147.061 30.6667L158.872 42.0374L147.061 30.6666ZM147.061 30.6666C145.572 29.2388 145.513 26.8594 146.942 25.3731L146.943 25.3713M147.061 30.6666L146.943 25.3713M146.943 25.3713L147.68 24.5732M146.943 25.3713L147.68 24.5732M164.788 35.8256L164.788 35.8254L152.978 24.4547L164.788 35.8256ZM164.788 35.8256C166.277 37.2531 166.336 39.6318 164.909 41.1181C164.908 41.1184 164.908 41.1187 164.908 41.1191L164.11 41.9163L164.11 41.9163M164.788 35.8256L164.11 41.9163M164.11 41.9163L164.108 41.9181M164.11 41.9163L164.108 41.9181M164.108 41.9181C162.679 43.4055 160.359 43.4643 158.872 42.0376L164.108 41.9181ZM147.68 24.5732C149.11 23.0868 151.49 23.0281 152.978 24.4546L147.68 24.5732Z" fill="#7FBECB" stroke="black" stroke-width="0.25"/>
<path d="M64.9776 30.4518L70.9576 36.6384L60.4738 46.7553L54.4938 40.5686L64.9776 30.4518Z" fill="#65B2B7" stroke="black" stroke-width="0.25"/>
<path d="M66.4886 30.6667L66.4888 30.6666C67.9773 29.2388 68.0362 26.8594 66.6082 25.3731L66.6065 25.3713L66.6065 25.3713L65.87 24.5741C65.8698 24.5738 65.8695 24.5735 65.8692 24.5732C64.4401 23.0867 62.0592 23.0281 60.5719 24.4547L48.7614 35.8254L48.7613 35.8256C47.2728 37.2534 47.2138 39.6328 48.6418 41.1191L48.6435 41.1208L48.6435 41.1208L49.38 41.9181C49.3803 41.9184 49.3806 41.9187 49.3809 41.919C50.8099 43.4054 53.1906 43.464 54.6779 42.0376L66.4886 30.6667ZM66.4886 30.6667L54.6781 42.0374L66.4886 30.6667Z" fill="#7FBECB" stroke="black" stroke-width="0.25"/>
<path d="M167.272 83.4929C167.272 116.553 140.446 143.418 107.298 143.418C74.2103 143.418 47.3232 116.614 47.3232 83.4929C47.3232 50.4328 74.149 23.5675 107.298 23.5675C140.385 23.5675 167.272 50.4329 167.272 83.4929Z" fill="#7FBECB" stroke="black" stroke-width="0.25"/>
<path d="M158.847 92.8747L158.847 92.8749C156.883 103.912 151.36 114.397 142.339 122.491L142.339 122.491C120.86 141.867 87.6597 140.151 68.2674 118.689C57.5283 106.794 53.2937 91.2807 55.2575 76.5639C56.8531 64.7296 62.4989 53.3246 72.0723 44.6788C93.551 25.3026 126.751 27.0194 146.143 48.4806C157.435 60.9895 161.608 77.4838 158.847 92.8747Z" fill="#F8FBFE" stroke="black" stroke-width="0.25"/>
<path d="M130.304 87.712L130.304 87.7125C129.447 92.6637 126.939 97.371 122.901 100.978L122.9 100.979C113.294 109.66 98.4251 108.866 89.7359 99.267C84.9635 93.9482 83.0664 87.0399 83.923 80.4362C84.6575 75.1163 87.1666 69.981 91.449 66.13L91.4492 66.1298C101.055 57.4485 115.924 58.2429 124.613 67.8418C129.692 73.4665 131.528 80.8028 130.304 87.712Z" fill="#D1E1EF" stroke="black" stroke-width="0.25"/>
<path d="M148.782 51.5465C155.632 60.4072 159.739 71.4597 159.767 83.4907H107.177V31.2505H107.177H107.177H107.178H107.179H107.179H107.18H107.18H107.181H107.181H107.182H107.182H107.183H107.183H107.184H107.184H107.185H107.186H107.186H107.187H107.187H107.188H107.188H107.189H107.189H107.19H107.19H107.191H107.191H107.192H107.193H107.193H107.194H107.194H107.195H107.195H107.196H107.196H107.197H107.197H107.198H107.198H107.199H107.2H107.2H107.201H107.201H107.202H107.202H107.203H107.203H107.204H107.204H107.205H107.205H107.206H107.206H107.207H107.208H107.208H107.209H107.209H107.21H107.21H107.211H107.211H107.212H107.212H107.213H107.213H107.214H107.214H107.215H107.215H107.216H107.216H107.217H107.218H107.218H107.219H107.219H107.22H107.22H107.221H107.221H107.222H107.222H107.223H107.223H107.224H107.224H107.225H107.225H107.226H107.226H107.227H107.227H107.228H107.228H107.229H107.229H107.23H107.23H107.231H107.231H107.232H107.232H107.233H107.233H107.234H107.235H107.235H107.236H107.236H107.237H107.237H107.238H107.238H107.239H107.239H107.24H107.24H107.241H107.241H107.242H107.242H107.243H107.243H107.243H107.244H107.244H107.245H107.245H107.246H107.246H107.247H107.247H107.248H107.248H107.249H107.249H107.25H107.25H107.251H107.251H107.252H107.252H107.253H107.253H107.254H107.254H107.255H107.255H107.256H107.256H107.257H107.257H107.257H107.258H107.258H107.259H107.259H107.26H107.26H107.261H107.261H107.262H107.262H107.263H107.263H107.264H107.264H107.264H107.265H107.265H107.266H107.266H107.267H107.267H107.268H107.268H107.268H107.269H107.269H107.27H107.27H107.271H107.271H107.272H107.272H107.272H107.273H107.273H107.274H107.274H107.275H107.275H107.276H107.276H107.276H107.277H107.277H107.278H107.278H107.279H107.279H107.279H107.28H107.28H107.281H107.281H107.281H107.282H107.282H107.283H107.283H107.284H107.284H107.284H107.285H107.285H107.286H107.286H107.286H107.287H107.287H107.288H107.288H107.288H107.289H107.289H107.289H107.29H107.29H107.291H107.291H107.291H107.292H107.292H107.293H107.293H107.293H107.294H107.294H107.294H107.295H107.295H107.296H107.296H107.296H107.297H107.297H107.297H107.298C124.174 31.2505 139.209 39.1604 148.782 51.5465L148.881 51.47L148.782 51.5465Z" fill="#D4744D" stroke="black" stroke-width="0.25"/>
<path d="M127.983 114.781L127.983 114.782C128.436 115.518 128.155 116.548 127.47 117.007C126.671 117.461 125.701 117.176 125.244 116.434C125.243 116.434 125.243 116.434 125.243 116.434L107.774 87.5463L107.722 87.4608L107.627 87.4924C107.466 87.546 107.243 87.5475 106.99 87.5475C105.029 87.5475 103.424 85.9438 103.424 83.9846V83.7387C103.424 81.7796 105.029 80.1759 106.99 80.1759C108.951 80.1759 110.556 81.7796 110.556 83.7387V83.9846C110.556 84.4562 110.438 84.9311 110.258 85.349L110.233 85.408L110.266 85.4629L127.983 114.781Z" fill="#354662" stroke="black" stroke-width="0.25"/>
<path d="M112.403 85.3962H112.316L112.286 85.4777C111.504 87.5826 109.52 89.0827 107.116 89.0226L107.116 89.0226H107.113C104.104 89.0226 101.577 86.6172 101.517 83.5519L101.517 83.5519C101.457 80.5498 103.922 78.0233 106.993 77.9632L106.993 77.9632C109.336 77.9031 111.383 79.4044 112.226 81.4507L112.258 81.5281H112.342L112.403 81.5281L112.405 81.5281L134.671 81.2208C134.672 81.2208 134.672 81.2208 134.672 81.2208C135.774 81.2212 136.638 82.0896 136.638 83.1241C136.638 84.2252 135.769 85.0889 134.733 85.0889L134.731 85.0889L112.465 85.3962H112.464H112.403ZM107.052 80.5405C105.317 80.5405 104.035 81.9538 104.035 83.6158C104.035 85.2864 105.448 86.6296 107.113 86.6296C108.785 86.6296 110.129 85.2181 110.129 83.5544C110.129 81.8206 108.715 80.5405 107.052 80.5405Z" fill="#F4D466" stroke="black" stroke-width="0.25"/>
<path d="M104.531 42.1871V31.1891H110.064V42.1871H104.531Z" fill="#354662" stroke="black" stroke-width="0.25"/>
<path d="M105.467 135.835L105.263 124.839L110.794 124.737L110.998 135.733L105.467 135.835Z" fill="#354662" stroke="black" stroke-width="0.25"/>
<path d="M148.637 85.765V80.2373H159.644V85.765H148.637Z" fill="#354662" stroke="black" stroke-width="0.25"/>
<path d="M54.9768 86.7781L54.8745 81.2516L65.8794 81.0477L65.9818 86.5742L54.9768 86.7781Z" fill="#354662" stroke="black" stroke-width="0.25"/>
<path d="M138.11 55.905L134.198 51.9963L141.981 44.2197L145.893 48.1283L138.11 55.905Z" fill="#354662" stroke="black" stroke-width="0.25"/>
<path d="M72.6125 122.755L68.6287 118.919L76.2665 110.999L80.2503 114.835L72.6125 122.755Z" fill="#354662" stroke="black" stroke-width="0.25"/>
<path d="M142.686 122.14L134.903 114.363L138.815 110.454L146.598 118.231L142.686 122.14Z" fill="#354662" stroke="black" stroke-width="0.25"/>
<path d="M75.9467 56.4948L68.0206 48.8633L71.8594 44.8828L79.7855 52.5143L75.9467 56.4948Z" fill="#354662" stroke="black" stroke-width="0.25"/>
</svg>
