<svg width="215" height="193" viewBox="0 0 215 193" fill="none" xmlns="http://www.w3.org/2000/svg">
<path d="M179.089 83.8752C179.121 123.606 146.939 155.815 107.208 155.815C67.4768 155.815 35.2421 123.606 35.2096 83.8752C35.1772 44.1441 67.3593 11.9357 107.09 11.9357C146.822 11.9357 179.056 44.1441 179.089 83.8752Z" fill="#5392A8" stroke="black" stroke-width="0.25"/>
<path d="M56.8451 115.339V69.7979H162.092V115.339H56.8451Z" fill="#36465D" stroke="black" stroke-width="0.25"/>
<path d="M162.092 61.2095V65.4298H56.4146V61.0253L109.192 36.927L162.092 61.2095Z" fill="white" stroke="black" stroke-width="0.25"/>
<path d="M109.191 41.9672L151.191 61.3732H66.5849L109.191 41.9672Z" fill="#36465D" stroke="black" stroke-width="0.25"/>
<path d="M120.018 59.3448H97.6887C94.9895 59.3448 92.831 57.1879 92.831 54.4912C92.831 51.8549 94.9905 49.6376 97.6887 49.6376H120.018C122.657 49.6376 124.876 51.7954 124.876 54.4912C124.876 57.1879 122.717 59.3448 120.018 59.3448Z" fill="#58677D" stroke="black" stroke-width="0.25"/>
<path d="M72.4698 76.0015V72.6251H77.141V76.0015H72.4698Z" fill="#65B2B7" stroke="black" stroke-width="0.25"/>
<path d="M78.4886 105.074H71.2447L72.4649 74.8978L77.1464 74.8394L78.4886 105.074Z" fill="white" stroke="black" stroke-width="0.25"/>
<path d="M71.1924 107.229H78.5414L80.2782 107.692V112.265H69.4556V107.692L71.1924 107.229Z" fill="#65B2B7" stroke="black" stroke-width="0.25"/>
<path d="M69.5794 107.471L71.1773 105.324H78.5565L80.1544 107.471H69.5794Z" fill="#7FBECB" stroke="black" stroke-width="0.25"/>
<path d="M77.3889 72.8054H72.2217C71.5333 72.8054 70.9972 72.3095 70.9374 71.6418H78.7341C78.6681 72.304 78.0836 72.8054 77.3889 72.8054Z" fill="#D1E1EF" stroke="black" stroke-width="0.25"/>
<path d="M67.2411 114.417V109.012H82.3697V114.417H67.2411Z" fill="#E9B645" stroke="black" stroke-width="0.25"/>
<path d="M95.2916 76.0015V72.6251H99.9626V76.0015H95.2916Z" fill="#65B2B7" stroke="black" stroke-width="0.25"/>
<path d="M101.31 105.074H94.0664L95.2867 74.8978L99.9681 74.8394L101.31 105.074Z" fill="white" stroke="black" stroke-width="0.25"/>
<path d="M94.0141 107.229H101.363L103.1 107.692V112.265H92.2773V107.692L94.0141 107.229Z" fill="#65B2B7" stroke="black" stroke-width="0.25"/>
<path d="M92.4012 107.471L93.999 105.324H101.378L102.976 107.471H92.4012Z" fill="#7FBECB" stroke="black" stroke-width="0.25"/>
<path d="M100.211 72.8054H95.0435C94.3551 72.8054 93.819 72.3095 93.7592 71.6418H101.546C101.435 72.3132 100.895 72.8054 100.211 72.8054Z" fill="#D1E1EF" stroke="black" stroke-width="0.25"/>
<path d="M90.0629 114.417V109.012H105.191V114.417H90.0629Z" fill="#E9B645" stroke="black" stroke-width="0.25"/>
<path d="M118.052 76.0015V72.6251H122.723V76.0015H118.052Z" fill="#65B2B7" stroke="black" stroke-width="0.25"/>
<path d="M124.071 105.074H116.888L118.108 74.8978L122.79 74.8394L124.071 105.074Z" fill="white" stroke="black" stroke-width="0.25"/>
<path d="M116.836 107.229H124.123L125.86 107.692V112.265H115.099V107.692L116.836 107.229Z" fill="#65B2B7" stroke="black" stroke-width="0.25"/>
<path d="M115.223 107.471L116.821 105.324H124.138L125.736 107.471H115.223Z" fill="#7FBECB" stroke="black" stroke-width="0.25"/>
<path d="M123.032 72.8054H117.865C117.177 72.8054 116.641 72.3095 116.581 71.6418H124.368C124.257 72.3132 123.717 72.8054 123.032 72.8054Z" fill="#D1E1EF" stroke="black" stroke-width="0.25"/>
<path d="M112.823 114.417V109.012H127.952V114.417H112.823Z" fill="#E9B645" stroke="black" stroke-width="0.25"/>
<path d="M140.874 76.0015V72.6251H145.545V76.0015H140.874Z" fill="#65B2B7" stroke="black" stroke-width="0.25"/>
<path d="M146.892 105.074H139.649L140.869 74.8978L145.55 74.8394L146.892 105.074Z" fill="white" stroke="black" stroke-width="0.25"/>
<path d="M139.596 107.229H146.945L148.682 107.692V112.265H137.859V107.692L139.596 107.229Z" fill="#65B2B7" stroke="black" stroke-width="0.25"/>
<path d="M137.983 107.471L139.581 105.324H146.96L148.558 107.471H137.983Z" fill="#7FBECB" stroke="black" stroke-width="0.25"/>
<path d="M145.793 72.8054H140.626C139.937 72.8054 139.401 72.3095 139.341 71.6418H147.138C147.072 72.304 146.487 72.8054 145.793 72.8054Z" fill="#D1E1EF" stroke="black" stroke-width="0.25"/>
<path d="M135.645 114.417V109.012H150.773V114.417H135.645Z" fill="#E9B645" stroke="black" stroke-width="0.25"/>
<path d="M83.1733 87.2494V78.9558H88.8287V87.2494H83.1733Z" fill="#F4D566" stroke="black" stroke-width="0.25"/>
<path d="M83.1733 101.755V93.4614H88.8287V101.755H83.1733Z" fill="#F4D566" stroke="black" stroke-width="0.25"/>
<path d="M106.18 87.2494V78.9558H111.835V87.2494H106.18Z" fill="#F4D566" stroke="black" stroke-width="0.25"/>
<path d="M106.18 101.755V93.4614H111.835V101.755H106.18Z" fill="#F4D566" stroke="black" stroke-width="0.25"/>
<path d="M129.186 87.2494V78.9558H134.841V87.2494H129.186Z" fill="#F4D566" stroke="black" stroke-width="0.25"/>
<path d="M129.186 101.755V93.4614H134.841V101.755H129.186Z" fill="#F4D566" stroke="black" stroke-width="0.25"/>
<path d="M151.516 87.2494V78.9558H157.171V87.2494H151.516Z" fill="#F4D566" stroke="black" stroke-width="0.25"/>
<path d="M151.516 101.755V93.4614H157.171V101.755H151.516Z" fill="#F4D566" stroke="black" stroke-width="0.25"/>
<path d="M61.0282 87.2494V78.9558H66.6835V87.2494H61.0282Z" fill="#F4D566" stroke="black" stroke-width="0.25"/>
<path d="M61.0282 101.755V93.4614H66.6835V101.755H61.0282Z" fill="#F4D566" stroke="black" stroke-width="0.25"/>
<path d="M55.3689 118.473V113.56H163.753V118.473H55.3689Z" fill="#D1E1EF" stroke="black" stroke-width="0.25"/>
<path d="M52.6008 121.178V117.064H166.521V121.178H52.6008Z" fill="white" stroke="black" stroke-width="0.25"/>
<path d="M54.7537 71.3916V68.7528H164.43V71.3916H54.7537Z" fill="#65B2B7" stroke="black" stroke-width="0.25"/>
<path d="M52.4162 68.9331V64.0817H166.767V68.9331H52.4162Z" fill="white" stroke="black" stroke-width="0.25"/>
<path d="M52.4162 65.3683V64.0203H166.767V65.3683H52.4162Z" fill="#58677D" stroke="black" stroke-width="0.25"/>
<path d="M99.4112 57.3179H96.7065V51.7289H101.193V52.8311H98.2424H98.1174V52.9561V53.6322V53.7572H98.2424H99.3497C100.01 53.7572 100.564 53.9073 100.95 54.2004C101.332 54.4898 101.562 54.9278 101.562 55.5375C101.562 56.1206 101.359 56.5592 101 56.8547C100.638 57.153 100.101 57.3179 99.4112 57.3179ZM98.2424 54.7364H98.1174V54.8614V56.0907V56.2157H98.2424H99.2881C99.5536 56.2157 99.7831 56.1495 99.9492 56.0204C100.118 55.889 100.213 55.6988 100.213 55.4761C100.213 55.2539 100.119 55.065 99.9596 54.9339C99.8023 54.8045 99.5879 54.7364 99.3497 54.7364H98.2424Z" fill="white" stroke="black" stroke-width="0.25"/>
<path d="M106.478 56.349L106.446 56.2716H106.362H104.086H104.002L103.971 56.349L103.572 57.3165H102.123L104.538 51.666H105.911L108.326 57.3165H106.876L106.478 56.349ZM105.932 55.2924H106.118L106.047 55.1202L105.371 53.4606L105.255 53.1768L105.139 53.4606L104.463 55.1202L104.392 55.2924H104.578H105.932Z" fill="white" stroke="black" stroke-width="0.25"/>
<path d="M110.605 55.2288V57.3165H109.255V51.7274H110.605V53.8151V53.9401H110.73H112.821H112.946V53.8151V51.7274H114.296V57.3165H112.946V55.2288V55.1038H112.821H110.73H110.605V55.2288Z" fill="white" stroke="black" stroke-width="0.25"/>
<path d="M116.879 55.9664V57.378H115.53V51.7274H116.941V53.9995V54.3405L117.161 54.0803L119.154 51.7274H120.726L118.694 54.0399L118.63 54.1129L118.685 54.1931L120.827 57.3165H119.161L117.722 55.2195L117.633 55.0894L117.527 55.2061L116.912 55.8822L116.879 55.918V55.9664Z" fill="white" stroke="black" stroke-width="0.25"/>
<path d="M136.817 44.3385L136.817 44.3385C136.998 44.4285 137.101 44.6583 137.008 44.9057C136.9 45.0611 136.754 45.1465 136.627 45.1465C136.597 45.1465 136.577 45.1463 136.552 45.1412C136.526 45.1362 136.491 45.1252 136.437 45.0982L135.699 44.7295C135.517 44.6386 135.413 44.4053 135.511 44.1552C135.604 43.9762 135.836 43.8752 136.084 43.9722L136.817 44.3385Z" fill="white" stroke="black" stroke-width="0.25"/>
<path d="M147.079 49.954L147.079 49.9539L147.075 49.952L145.724 49.3384C145.543 49.2468 145.441 49.0143 145.538 48.765C145.631 48.5856 145.864 48.4845 146.113 48.5828L147.461 49.1952C147.64 49.2858 147.742 49.5149 147.65 49.7614C147.542 49.9168 147.396 50.0022 147.269 50.0022C147.239 50.0022 147.219 50.002 147.194 49.997C147.169 49.9919 147.133 49.9809 147.079 49.954ZM143.511 48.3559L143.511 48.3558L143.507 48.3539L142.156 47.7403C141.975 47.6488 141.873 47.4162 141.97 47.167C142.063 46.9875 142.296 46.8864 142.545 46.9848L143.893 47.5971C144.075 47.6893 144.178 47.9243 144.077 48.1754L144.077 48.1754L144.075 48.1823C144.034 48.3049 143.906 48.4042 143.701 48.4042C143.671 48.4042 143.651 48.404 143.626 48.399C143.601 48.3939 143.565 48.3829 143.511 48.3559ZM140.005 46.6964L140.005 46.6963L140.001 46.6944L138.65 46.0808C138.469 45.9892 138.366 45.7567 138.464 45.5075C138.556 45.328 138.789 45.2269 139.039 45.3253L140.387 45.9376C140.566 46.0283 140.668 46.2573 140.576 46.5039C140.468 46.6593 140.322 46.7447 140.195 46.7447C140.164 46.7447 140.145 46.7445 140.12 46.7394C140.094 46.7344 140.059 46.7234 140.005 46.6964Z" fill="white" stroke="black" stroke-width="0.25"/>
<path d="M150.598 51.1255L150.598 51.1255L150.595 51.1324C150.577 51.186 150.528 51.2422 150.451 51.2868C150.375 51.3309 150.289 51.3543 150.222 51.3543C150.191 51.3543 150.171 51.3541 150.146 51.349C150.121 51.344 150.086 51.333 150.032 51.306L149.293 50.9372C149.112 50.8464 149.008 50.613 149.106 50.3629C149.198 50.184 149.43 50.083 149.679 50.1799L150.412 50.5463C150.595 50.6377 150.699 50.8735 150.598 51.1255Z" fill="white" stroke="black" stroke-width="0.25"/>
<path d="M76.0312 47.2604L76.0284 47.2519L76.0244 47.244C75.9811 47.1574 75.9776 47.0394 76.0158 46.9246C76.0536 46.8115 76.1259 46.72 76.2111 46.676L76.9449 46.3705L76.945 46.3708L76.9527 46.367C77.0394 46.3237 77.1577 46.3201 77.2726 46.3584C77.3875 46.3966 77.4799 46.4703 77.5232 46.5569C77.5665 46.6434 77.5701 46.7615 77.5318 46.8762C77.4935 46.9909 77.4198 47.0833 77.3331 47.1266L77.3331 47.1266L76.6213 47.4822H76.621H76.6206H76.6203H76.6199H76.6195H76.6191H76.6188H76.6184H76.618H76.6177H76.6173H76.6169H76.6165H76.6162H76.6158H76.6154H76.615H76.6147H76.6143H76.6139H76.6136H76.6132H76.6128H76.6124H76.612H76.6117H76.6113H76.6109H76.6105H76.6102H76.6098H76.6094H76.609H76.6087H76.6083H76.6079H76.6075H76.6071H76.6068H76.6064H76.606H76.6056H76.6052H76.6049H76.6045H76.6041H76.6037H76.6033H76.6029H76.6026H76.6022H76.6018H76.6014H76.601H76.6006H76.6002H76.5999H76.5995H76.5991H76.5987H76.5983H76.5979H76.5975H76.5971H76.5968H76.5964H76.596H76.5956H76.5952H76.5948H76.5944H76.594H76.5936H76.5932H76.5928H76.5924H76.592H76.5916H76.5913H76.5909H76.5905H76.5901H76.5897H76.5893H76.5889H76.5885H76.5881H76.5877H76.5873H76.5869H76.5865H76.5861H76.5857H76.5853H76.5849H76.5845H76.5841H76.5837H76.5832H76.5828H76.5824H76.582H76.5816H76.5812H76.5808H76.5804H76.58H76.5796H76.5792H76.5788H76.5784H76.5779H76.5775H76.5771H76.5767H76.5763H76.5759H76.5755H76.575H76.5746H76.5742H76.5738H76.5734H76.573H76.5725H76.5721H76.5717H76.5713H76.5709H76.5704H76.57H76.5696H76.5692H76.5688H76.5683H76.5679H76.5675H76.567H76.5666H76.5662H76.5658H76.5653H76.5649H76.5645H76.564H76.5636H76.5632H76.5628H76.5623H76.5619H76.5615H76.561H76.5606H76.5601H76.5597H76.5593H76.5588H76.5584H76.558H76.5575H76.5571H76.5566H76.5562H76.5558H76.5553H76.5549H76.5544H76.554H76.5535H76.5531H76.5526H76.5522H76.5517H76.5513H76.5508H76.5504H76.5499H76.5495H76.549H76.5486H76.5481H76.5477H76.5472H76.5468H76.5463H76.5458H76.5454H76.5449H76.5445H76.544H76.5435H76.5431H76.5426H76.5421H76.5417H76.5412H76.5407H76.5403H76.5398H76.5393H76.5389H76.5384H76.5379H76.5375H76.537H76.5365H76.536H76.5356H76.5351H76.5346H76.5341H76.5337H76.5332H76.5327H76.5322H76.5317H76.5313H76.5308H76.5303H76.5298H76.5293H76.5288H76.5283H76.5279H76.5274H76.5269H76.5264H76.5259H76.5254H76.5249H76.5244H76.5239H76.5234H76.5229H76.5224H76.5219H76.5214H76.5209H76.5204H76.5199H76.5194H76.5189H76.5184H76.5179H76.5174H76.5169H76.5164H76.5159H76.5154H76.5149H76.5144H76.5138H76.5133H76.5128H76.5123H76.5118H76.5113H76.5108H76.5102H76.5097H76.5092H76.5087H76.5081H76.5076H76.5071H76.5066H76.506H76.5055H76.505H76.5045H76.5039H76.5034H76.5029H76.5023H76.5018H76.5013H76.5007H76.5002H76.4997H76.4991H76.4986H76.498H76.4975H76.4969H76.4964H76.4959H76.4953H76.4948H76.4942H76.4937H76.4931H76.4926H76.492H76.4915H76.4909H76.4904H76.4898H76.4892H76.4887H76.4881H76.4876H76.487H76.4864H76.4859H76.4853H76.4847H76.4842H76.4836H76.483H76.4825H76.4819H76.4813H76.4807H76.4802H76.4796H76.479H76.4784H76.4779H76.4773H76.4767H76.4761H76.4755H76.475H76.4744H76.4738H76.4732H76.4726H76.472H76.4714H76.4708H76.4702H76.4696H76.4691H76.4685H76.4679H76.4673H76.4667H76.4661H76.4655H76.4649H76.4642H76.4636H76.463H76.4624H76.4618H76.4612H76.4606H76.46H76.4594H76.4588H76.4581H76.4575H76.4569H76.4563H76.4557H76.455H76.4544H76.4538H76.4532H76.4525H76.4519H76.4513H76.4506H76.45H76.4494H76.4487H76.4481H76.4475H76.4468H76.4462H76.4456H76.4449H76.4443H76.4436H76.443H76.4423H76.4417H76.441H76.4404H76.4397H76.4391H76.4384H76.4378H76.4371H76.4365H76.4358H76.4351H76.4345H76.4338H76.4331H76.4325H76.4318H76.4311H76.4305H76.4298H76.4291H76.4284H76.4278H76.4271H76.4264H76.4257H76.4251H76.4244H76.4237H76.423H76.4223H76.4216H76.4209H76.4203H76.4196H76.4189H76.4182H76.4175H76.4168H76.4161H76.4154H76.4147H76.414H76.4133H76.4126H76.4119H76.4112H76.4105H76.4097H76.409H76.4083H76.4076H76.4069H76.4062H76.4055H76.4047C76.3374 47.4822 76.2512 47.4588 76.1755 47.4147C76.0989 47.3701 76.0491 47.3139 76.0312 47.2604Z" fill="white" stroke="black" stroke-width="0.25"/>
<path d="M79.353 45.7851L79.3502 45.7767L79.3462 45.7687C79.3029 45.6822 79.2993 45.5641 79.3376 45.4493C79.3755 45.3357 79.4482 45.244 79.5338 45.2002L81.0686 44.5254L81.0687 44.5256L81.0742 44.5228C81.1609 44.4795 81.2792 44.476 81.394 44.5142C81.5089 44.5525 81.6014 44.6262 81.6447 44.7128C81.688 44.7993 81.6916 44.9174 81.6533 45.0322C81.6154 45.1458 81.5427 45.2375 81.4571 45.2813L79.9223 45.9561L79.9008 45.9655L79.8843 45.9821C79.8812 45.9851 79.8665 45.9948 79.829 46.001C79.7944 46.0068 79.758 46.007 79.7265 46.007C79.6592 46.007 79.573 45.9836 79.4973 45.9395C79.4207 45.8948 79.3709 45.8387 79.353 45.7851ZM83.4745 43.8798L83.4716 43.8713L83.4677 43.8634C83.4244 43.7768 83.4208 43.6587 83.4591 43.544C83.497 43.4304 83.5697 43.3386 83.6553 43.2948L85.1901 42.6201L85.1901 42.6202L85.1956 42.6175C85.2823 42.5741 85.4006 42.5706 85.5155 42.6089C85.6304 42.6471 85.7229 42.7209 85.7662 42.8074C85.8095 42.894 85.813 43.0121 85.7748 43.1268C85.7368 43.2405 85.6641 43.3322 85.5785 43.376L84.0437 44.0507L84.0437 44.0506L84.0382 44.0533C83.9842 44.0803 83.9486 44.0913 83.9234 44.0964C83.8983 44.1014 83.8785 44.1016 83.848 44.1016C83.7806 44.1016 83.6945 44.0783 83.6188 44.0341C83.5422 43.9895 83.4923 43.9334 83.4745 43.8798ZM87.5344 42.0359L87.5316 42.0274L87.5276 42.0195C87.4843 41.9329 87.4807 41.8148 87.519 41.7001C87.5569 41.5865 87.6297 41.4947 87.7153 41.4509L89.25 40.7762L89.2501 40.7763L89.2556 40.7735C89.3423 40.7302 89.4606 40.7267 89.5754 40.765C89.6903 40.8032 89.7828 40.877 89.8261 40.9635C89.8694 41.0501 89.873 41.1682 89.8347 41.2829C89.7968 41.3966 89.7241 41.4883 89.6385 41.5321L88.1037 42.2068L88.0822 42.2163L88.0656 42.2328C88.0529 42.2456 88.0446 42.2495 88.0295 42.2525C88.0059 42.2572 87.9739 42.2577 87.9079 42.2577C87.8406 42.2577 87.7544 42.2344 87.6787 42.1902C87.6021 42.1456 87.5523 42.0895 87.5344 42.0359ZM91.6558 40.192L91.653 40.1835L91.6491 40.1756C91.6057 40.089 91.6022 39.9709 91.6405 39.8562C91.6784 39.7426 91.7511 39.6508 91.8367 39.607L93.3715 38.9323L93.3715 38.9324L93.377 38.9296C93.4637 38.8863 93.582 38.8828 93.6969 38.9211C93.8118 38.9593 93.9042 39.0331 93.9476 39.1196C93.9909 39.2062 93.9944 39.3243 93.9562 39.439C93.9182 39.5527 93.8455 39.6444 93.7599 39.6882L92.2446 40.3544C92.223 40.3571 92.2028 40.362 92.1868 40.3664C92.1617 40.3732 92.1352 40.3821 92.1129 40.3895C92.089 40.3974 92.0694 40.4039 92.0523 40.4086C92.0384 40.4124 92.0314 40.4134 92.0296 40.4137C92.0289 40.4138 92.0289 40.4138 92.0294 40.4138C91.962 40.4138 91.8759 40.3905 91.8001 40.3463C91.7236 40.3017 91.6737 40.2455 91.6558 40.192ZM95.7773 38.2866L95.7745 38.2781L95.7705 38.2702C95.7272 38.1836 95.7236 38.0655 95.7619 37.9508C95.7998 37.8372 95.8726 37.7454 95.9581 37.7016L97.4929 37.0269L97.493 37.027L97.4985 37.0243C97.5852 36.981 97.7035 36.9774 97.8183 37.0157C97.9332 37.054 98.0257 37.1277 98.069 37.2143C98.1123 37.3008 98.1159 37.4189 98.0776 37.5336C98.0397 37.6473 97.967 37.739 97.8814 37.7828L96.3466 38.4576L96.3465 38.4574L96.341 38.4602C96.287 38.4871 96.2515 38.4982 96.2263 38.5032C96.2012 38.5082 96.1814 38.5084 96.1508 38.5084C96.0835 38.5084 95.9973 38.4851 95.9216 38.4409C95.845 38.3963 95.7952 38.3402 95.7773 38.2866ZM99.8372 36.4427L99.8344 36.4342L99.8304 36.4263C99.7871 36.3397 99.7836 36.2216 99.8219 36.1069C99.8598 35.9933 99.9325 35.9016 100.018 35.8577L101.553 35.183L101.553 35.1831L101.558 35.1804C101.645 35.1371 101.763 35.1335 101.878 35.1718C101.993 35.2101 102.086 35.2838 102.129 35.3704L102.241 35.3144L102.129 35.3704C102.172 35.4569 102.176 35.575 102.138 35.6897C102.1 35.8034 102.027 35.8951 101.941 35.9389L100.426 36.6053C100.403 36.6084 100.384 36.6144 100.368 36.6198C100.354 36.6247 100.337 36.6318 100.324 36.6373C100.319 36.6394 100.314 36.6413 100.31 36.6427C100.279 36.6554 100.25 36.6645 100.211 36.6645C100.143 36.6645 100.057 36.6412 99.9815 36.597C99.9049 36.5524 99.8551 36.4963 99.8372 36.4427ZM103.959 34.5373L103.956 34.5289L103.952 34.5209C103.909 34.4344 103.905 34.3163 103.943 34.2015C103.981 34.0879 104.054 33.9962 104.14 33.9524L105.674 33.2776L105.674 33.2778L105.68 33.275C105.767 33.2317 105.885 33.2282 106 33.2664C106.115 33.3047 106.207 33.3784 106.25 33.465C106.294 33.5515 106.297 33.6696 106.259 33.7844C106.221 33.898 106.148 33.9897 106.063 34.0335L104.528 34.7083L104.507 34.7177L104.49 34.7343C104.487 34.7373 104.472 34.7469 104.435 34.7532C104.4 34.759 104.364 34.7592 104.332 34.7592C104.265 34.7592 104.179 34.7358 104.103 34.6917C104.026 34.647 103.977 34.5909 103.959 34.5373Z" fill="white" stroke="black" stroke-width="0.25"/>
<path d="M109.74 32.8669L109.74 32.8669L109.248 32.6211L109.192 32.5932L109.136 32.6211L108.644 32.8669L108.644 32.8669C108.557 32.9102 108.439 32.9137 108.324 32.8755C108.209 32.8372 108.117 32.7635 108.073 32.677C108.03 32.5904 108.026 32.4723 108.065 32.3576C108.103 32.2429 108.177 32.1505 108.263 32.1072C108.263 32.1072 108.263 32.1072 108.263 32.1072L109.002 31.7385L109.002 31.7385C109.042 31.7182 109.099 31.7056 109.161 31.7056C109.223 31.7056 109.28 31.7182 109.32 31.7385L109.32 31.7385L110.059 32.1072C110.059 32.1072 110.059 32.1072 110.059 32.1072C110.242 32.1987 110.345 32.4345 110.245 32.6864L110.244 32.6864L110.242 32.6933C110.198 32.824 110.064 32.9152 109.93 32.9152C109.899 32.9152 109.88 32.915 109.855 32.9099C109.829 32.9049 109.794 32.8939 109.74 32.8669Z" fill="white" stroke="black" stroke-width="0.25"/>
<path d="M121.12 38.0913L121.12 38.0912L121.118 38.0903L119.704 37.4147C119.523 37.3235 119.42 37.0906 119.517 36.8409C119.61 36.6617 119.842 36.5606 120.091 36.6583L121.501 37.332C121.684 37.4238 121.787 37.6592 121.686 37.9108L121.686 37.9107L121.684 37.9177C121.643 38.0402 121.515 38.1396 121.31 38.1396C121.279 38.1396 121.26 38.1393 121.235 38.1343C121.209 38.1293 121.174 38.1182 121.12 38.0913ZM117.306 36.3089L117.306 36.3089L117.304 36.3079L115.89 35.6323C115.709 35.5411 115.606 35.3082 115.703 35.0585C115.796 34.8793 116.028 34.7782 116.277 34.8759L117.687 35.5496C117.87 35.6414 117.973 35.8768 117.872 36.1284L117.869 36.1363L117.867 36.1445C117.844 36.2376 117.802 36.2834 117.752 36.3109C117.694 36.3421 117.612 36.3572 117.496 36.3572C117.466 36.3572 117.446 36.3569 117.421 36.3519C117.395 36.3469 117.36 36.3358 117.306 36.3089ZM113.554 34.588L113.554 34.5879L113.552 34.587L112.138 33.9114C111.957 33.8202 111.854 33.5872 111.951 33.3375C112.044 33.1583 112.276 33.0573 112.525 33.1549L113.935 33.8286C114.115 33.919 114.217 34.1484 114.125 34.3954C114.017 34.5508 113.87 34.6362 113.744 34.6362C113.713 34.6362 113.694 34.636 113.668 34.631C113.643 34.6259 113.608 34.6149 113.554 34.588Z" fill="white" stroke="black" stroke-width="0.25"/>
<path d="M123.519 39.1363L123.519 39.1363C123.337 39.0454 123.234 38.8121 123.331 38.562C123.424 38.3831 123.656 38.2821 123.904 38.379L124.638 38.7453C124.818 38.8354 124.921 39.0651 124.828 39.3125C124.72 39.4679 124.574 39.5533 124.447 39.5533C124.417 39.5533 124.397 39.5531 124.372 39.5481C124.347 39.5431 124.311 39.532 124.257 39.5051C124.257 39.5051 124.257 39.5051 124.257 39.5051L123.519 39.1363Z" fill="white" stroke="black" stroke-width="0.25"/>
<path d="M48.0467 73.7275C47.8081 73.7275 47.618 73.5375 47.618 73.2993V72.5002C47.618 72.262 47.8081 72.072 48.0467 72.072C48.2854 72.072 48.4754 72.262 48.4754 72.5002V73.2993C48.4754 73.5375 48.2854 73.7275 48.0467 73.7275Z" fill="white" stroke="black" stroke-width="0.25"/>
<path d="M48.0467 70.0396C47.8081 70.0396 47.618 69.8496 47.618 69.6114V67.8904C47.618 67.6523 47.8081 67.4622 48.0467 67.4622C48.2854 67.4622 48.4754 67.6523 48.4754 67.8904V69.6114C48.4754 69.8496 48.2854 70.0396 48.0467 70.0396ZM48.0467 65.4912C47.8081 65.4912 47.618 65.3012 47.618 65.063V63.342C47.618 63.1038 47.8081 62.9138 48.0467 62.9138C48.2854 62.9138 48.4754 63.1038 48.4754 63.342V65.063C48.4754 65.3012 48.2854 65.4912 48.0467 65.4912Z" fill="white" stroke="black" stroke-width="0.25"/>
<path d="M48.6003 60.1438H48.4753V60.2688V60.5147C48.4753 60.7529 48.2853 60.9429 48.0467 60.9429C47.808 60.9429 47.618 60.7529 47.618 60.5147V59.7156C47.618 59.4774 47.808 59.2875 48.0467 59.2875H48.8463C49.0849 59.2875 49.2749 59.4774 49.2749 59.7156C49.2749 59.9538 49.0849 60.1438 48.8463 60.1438H48.6003Z" fill="white" stroke="black" stroke-width="0.25"/>
<path d="M51.553 59.226H51.678V59.101V58.179C51.678 58.1118 51.7014 58.0258 51.7456 57.9501C51.7902 57.8736 51.8464 57.8238 51.9001 57.8059L51.9002 57.8062L51.9086 57.8027L52.6468 57.4954L52.6469 57.4957L52.6546 57.4918C52.7413 57.4485 52.8596 57.445 52.9745 57.4832C53.0894 57.5215 53.1818 57.5953 53.2251 57.6818C53.2684 57.7684 53.272 57.8865 53.2337 58.0012C53.1959 58.1146 53.1234 58.2062 53.038 58.2501L52.6111 58.4329L52.5353 58.4654V58.5478V59.6542C52.5353 59.8924 52.3453 60.0824 52.1066 60.0824H51.307C51.0683 60.0824 50.8784 59.8924 50.8784 59.6542C50.8784 59.416 51.0683 59.226 51.307 59.226H51.553Z" fill="white" stroke="black" stroke-width="0.25"/>
<path d="M55.0548 56.8488L55.052 56.8404L55.048 56.8324C55.0047 56.7459 55.0011 56.6278 55.0394 56.513C55.0775 56.3987 55.151 56.3065 55.2373 56.263L56.7742 55.5259L56.7742 55.5259L56.776 55.525C56.8627 55.4817 56.9809 55.4782 57.0958 55.5164C57.2107 55.5547 57.3032 55.6285 57.3465 55.715C57.3898 55.8016 57.3934 55.9197 57.3551 56.0344C57.317 56.1488 57.2435 56.241 57.1572 56.2844L55.6203 57.0215L55.6011 57.0308L55.586 57.0458C55.583 57.0489 55.5683 57.0585 55.5308 57.0647C55.4962 57.0705 55.4598 57.0707 55.4283 57.0707C55.361 57.0707 55.2748 57.0473 55.1991 57.0032C55.1225 56.9586 55.0727 56.9024 55.0548 56.8488ZM59.2378 54.9434L59.235 54.935L59.231 54.9271C59.1877 54.8405 59.1841 54.7224 59.2224 54.6077C59.2606 54.4933 59.334 54.4011 59.4203 54.3576L60.9572 53.6205L60.9572 53.6205L60.959 53.6196C61.0457 53.5763 61.164 53.5728 61.2789 53.6111C61.3937 53.6493 61.4862 53.7231 61.5295 53.8096C61.5728 53.8962 61.5764 54.0143 61.5381 54.129C61.5 54.2434 61.4265 54.3355 61.3402 54.379L59.8033 55.1161L59.7841 55.1253L59.769 55.1404C59.766 55.1434 59.7513 55.1531 59.7138 55.1593C59.6792 55.1651 59.6428 55.1653 59.6113 55.1653C59.544 55.1653 59.4578 55.142 59.3821 55.0978C59.3055 55.0532 59.2557 54.997 59.2378 54.9434Z" fill="white" stroke="black" stroke-width="0.25"/>
<path d="M63.4207 53.038L63.4179 53.0295L63.414 53.0216C63.3706 52.935 63.3671 52.8169 63.4054 52.7022C63.4431 52.589 63.5155 52.4975 63.6006 52.4535L64.3345 52.148L64.3346 52.1483L64.3423 52.1444C64.429 52.1011 64.5473 52.0976 64.6621 52.1358C64.777 52.1741 64.8695 52.2478 64.9128 52.3344C64.9561 52.421 64.9597 52.5391 64.9214 52.6538C64.8836 52.767 64.8113 52.8585 64.7262 52.9025L63.9923 53.208L63.9922 53.2077L63.9845 53.2116C63.9305 53.2385 63.895 53.2496 63.8698 53.2546C63.8446 53.2596 63.8249 53.2598 63.7943 53.2598C63.7269 53.2598 63.6408 53.2365 63.565 53.1923C63.4885 53.1477 63.4386 53.0916 63.4207 53.038Z" fill="white" stroke="black" stroke-width="0.25"/>
<path d="M52.4757 97.7598C52.2371 97.7598 52.0471 97.5698 52.0471 97.3316V96.5326C52.0471 96.2944 52.2371 96.1044 52.4757 96.1044C52.7143 96.1044 52.9043 96.2944 52.9043 96.5326V97.3316C52.9043 97.5698 52.7143 97.7598 52.4757 97.7598Z" fill="white" stroke="black" stroke-width="0.25"/>
<path d="M52.4757 94.0104C52.2371 94.0104 52.0471 93.8204 52.0471 93.5822V91.8613C52.0471 91.6231 52.2371 91.4331 52.4757 91.4331C52.7143 91.4331 52.9043 91.6231 52.9043 91.8613V93.5822C52.9043 93.8205 52.7143 94.0104 52.4757 94.0104ZM52.4757 89.4006C52.2371 89.4006 52.0471 89.2106 52.0471 88.9724V87.2515C52.0471 87.0133 52.2371 86.8233 52.4757 86.8233C52.7143 86.8233 52.9043 87.0132 52.9043 87.2515V88.9724C52.9043 89.2106 52.7143 89.4006 52.4757 89.4006ZM52.4757 84.7293C52.2371 84.7293 52.0471 84.5393 52.0471 84.3011V82.5802C52.0471 82.342 52.2371 82.152 52.4757 82.152C52.7143 82.152 52.9043 82.342 52.9043 82.5802V84.3011C52.9043 84.5393 52.7143 84.7293 52.4757 84.7293Z" fill="white" stroke="black" stroke-width="0.25"/>
<path d="M52.4757 80.058C52.2371 80.058 52.0471 79.868 52.0471 79.6299V78.8308C52.0471 78.5926 52.2371 78.4027 52.4757 78.4027C52.7143 78.4027 52.9043 78.5926 52.9043 78.8308V79.6299C52.9043 79.8681 52.7143 80.058 52.4757 80.058Z" fill="white" stroke="black" stroke-width="0.25"/>
<path d="M76.173 35.0082C79.9533 41.6487 77.6967 50.1155 71.0527 53.8915C64.4073 57.6684 55.9331 55.3533 52.1535 48.7752C48.3734 42.1347 50.6301 33.6681 57.274 29.8921C63.9201 26.1148 72.3939 28.3696 76.173 35.0082Z" fill="#E9B645" stroke="black" stroke-width="0.25"/>
<g opacity="0.6">
<g opacity="0.6">
<path opacity="0.6" d="M55.7827 46.6843C53.1109 42.012 54.7502 36.126 59.3663 33.4557C63.9806 30.7865 69.9328 32.4239 72.6055 37.0362C75.2773 41.7084 73.6382 47.5942 69.0224 50.2646C64.3462 52.9344 58.4553 51.2964 55.7827 46.6843Z" fill="#E9B645" stroke="black" stroke-width="0.25"/>
</g>
</g>
<path d="M61.5647 42.9344L58.3672 37.4488L63.4878 34.4391C64.7638 33.7108 65.9621 33.417 67.0903 33.6543C68.2267 33.8933 69.1174 34.4875 69.7134 35.5596C70.3158 36.6428 70.4902 37.7126 70.1347 38.7783C69.7767 39.8513 69.0001 40.8112 67.6714 41.5354L67.6713 41.5354L67.6687 41.5369L64.9005 43.135L64.7921 43.1976L64.8549 43.3059L65.5315 44.4737L65.5943 44.5822L65.7026 44.519L70.024 42.0003L70.9432 43.5672L66.6225 46.0855L66.5146 46.1483L66.5773 46.2563L67.622 48.0539L65.3157 49.4028L64.2714 47.6058L64.2087 47.4978L64.1006 47.5605L62.3013 48.6044L61.3821 47.0376L63.1803 45.9943L63.2884 45.9316L63.2258 45.8235L62.5491 44.6557L62.484 44.5432L62.3741 44.6127L60.6379 45.7114L59.7212 44.1488L61.5194 43.1055L61.6278 43.0427L61.5647 42.9344ZM63.8101 41.5252L63.8739 41.6314L63.9807 41.5685L66.3783 40.1557C66.3786 40.1555 66.3788 40.1554 66.3791 40.1552C67.0424 39.7763 67.4826 39.2949 67.6722 38.7597C67.8627 38.2218 67.7939 37.6461 67.4706 37.0962C67.1459 36.5131 66.6682 36.1802 66.0959 36.0973C65.5287 36.0152 64.8852 36.1808 64.2244 36.558L64.2244 36.558L64.2229 36.5589L61.8239 37.9726L61.7153 38.0366L61.7802 38.1446L63.8101 41.5252Z" fill="white" stroke="black" stroke-width="0.25"/>
<g opacity="0.6">
<g opacity="0.6">
<path opacity="0.6" d="M57.3835 29.7684C64.0109 26.079 72.3531 28.4037 76.1734 34.9467C79.9327 41.5511 77.7209 49.9615 71.1607 53.7674L57.3835 29.7684Z" fill="#E9B645" stroke="black" stroke-width="0.25"/>
</g>
</g>
<path d="M182.552 92.1101L182.551 92.11C175.175 89.9781 170.968 82.3032 173.102 74.9321C175.236 67.5618 182.978 63.3584 190.294 65.4904L190.294 65.4905C197.671 67.6224 201.877 75.3586 199.744 82.6682L199.744 82.6685C197.61 90.0387 189.867 94.2421 182.552 92.1101Z" fill="#E9B645" stroke="black" stroke-width="0.25"/>
<g opacity="0.6">
<g opacity="0.6">
<path opacity="0.6" d="M189.125 69.547L189.126 69.5473C194.286 71.0031 197.203 76.4023 195.745 81.5622C194.226 86.7212 188.882 89.6933 183.721 88.1765C178.557 86.659 175.582 81.3188 177.1 76.1619C178.619 71.0026 183.964 68.0302 189.125 69.547Z" fill="#E9B645" stroke="black" stroke-width="0.25"/>
</g>
</g>
<path d="M181.193 78.93L181.681 77.1419L183.713 77.7218L183.834 77.7564L183.867 77.6351L185.556 71.5484L191.278 73.1734C191.278 73.1734 191.279 73.1735 191.279 73.1735C192.737 73.5986 193.751 74.2609 194.345 75.2094C194.941 76.163 195.12 77.2322 194.761 78.4262C194.401 79.6258 193.745 80.4573 192.734 80.9933C191.719 81.4697 190.46 81.5917 189.011 81.1695L189.009 81.1691L185.934 80.3087L185.814 80.2752L185.78 80.3947L185.411 81.6854L185.376 81.8069L185.498 81.8403L190.299 83.1594L189.811 84.9466L185.01 83.6275L184.892 83.595L184.857 83.7128L184.277 85.6833L181.749 84.9536L182.329 82.9844L182.365 82.8635L182.243 82.8289L180.209 82.2481L180.697 80.461L182.728 81.0409L182.849 81.0752L182.883 80.9551L183.252 79.6644L183.286 79.545L183.167 79.5101L181.193 78.93ZM186.395 78.3671L186.361 78.4883L186.482 78.5213L189.189 79.2589L189.189 79.2589L189.19 79.2592C189.915 79.4481 190.575 79.4363 191.1 79.215C191.629 78.9921 192.008 78.5614 192.172 77.9429C192.366 77.2957 192.27 76.7171 191.929 76.2524C191.592 75.7917 191.024 75.4571 190.3 75.2682C190.299 75.2681 190.299 75.2681 190.299 75.268L187.594 74.5308L187.474 74.4982L187.441 74.6178L186.395 78.3671Z" fill="white" stroke="black" stroke-width="0.25"/>
<g opacity="0.6">
<g opacity="0.6">
<path opacity="0.6" d="M199.682 82.6682L199.682 82.6685C197.56 89.9989 189.951 94.196 182.672 92.1446L190.414 65.5874C197.655 67.7678 201.804 75.3989 199.682 82.6682Z" fill="#E9B645" stroke="black" stroke-width="0.25"/>
</g>
</g>
<path d="M141.121 41.3031C139.663 46.2772 134.442 49.1888 129.403 47.733C124.364 46.2772 121.511 40.9997 122.968 36.0257C124.425 31.0514 129.646 28.1396 134.685 29.5954C139.664 31.0514 142.578 36.2684 141.121 41.3031Z" fill="#E9B645" stroke="black" stroke-width="0.25"/>
<g opacity="0.6">
<g opacity="0.6">
<path opacity="0.6" d="M125.674 36.8248C126.701 33.325 130.385 31.2745 133.885 32.2997C137.388 33.3256 139.44 37.0063 138.414 40.5038C137.387 44.0036 133.704 46.054 130.203 45.0288C126.7 44.003 124.649 40.3222 125.674 36.8248Z" fill="#E9B645" stroke="black" stroke-width="0.25"/>
</g>
</g>
<path d="M130.289 37.8672L131.425 33.6859L135.3 34.7583C136.271 35.0616 136.973 35.4786 137.38 36.1765L137.38 36.1766L137.383 36.1806C137.794 36.8262 137.912 37.5268 137.676 38.3533C137.44 39.1788 136.972 39.7046 136.264 40.0583C135.559 40.4105 134.731 40.4729 133.773 40.1737L133.771 40.1731L131.68 39.5585L131.559 39.523L131.524 39.644L131.278 40.5045L131.243 40.6262L131.366 40.6595L134.628 41.5486L134.325 42.6596L131.062 41.7705L130.945 41.7386L130.91 41.8547L130.515 43.1504L128.848 42.6669L129.242 41.3744L129.279 41.2533L129.157 41.2179L127.799 40.8221L128.102 39.711L129.457 40.1057L129.577 40.1409L129.612 40.0201L129.858 39.1596L129.893 39.0365L129.769 39.0042L128.477 38.6674L128.779 37.5598L130.133 37.9545L130.255 37.9901L130.289 37.8672ZM132.016 38.2918L131.981 38.4142L132.104 38.447L133.95 38.9387L133.95 38.9387L133.952 38.9392C134.461 39.0665 134.922 39.0543 135.293 38.8943C135.667 38.7326 135.937 38.4258 136.07 37.9942L136.07 37.9942L136.071 37.9918C136.203 37.5302 136.139 37.12 135.897 36.7922C135.659 36.4691 135.26 36.2426 134.751 36.1154L132.907 35.6239L132.788 35.5923L132.755 35.7103L132.016 38.2918Z" fill="white" stroke="black" stroke-width="0.25"/>
<g opacity="0.6">
<g opacity="0.6">
<path opacity="0.6" d="M129.524 47.7669L134.805 29.5693C139.769 31.0734 142.566 36.3066 141.121 41.3028C139.675 46.2375 134.525 49.1423 129.524 47.7669Z" fill="#E9B645" stroke="black" stroke-width="0.25"/>
</g>
</g>
<path d="M113.928 8.90671C114.839 14.0627 111.378 18.9768 106.217 19.8868C101.057 20.7968 96.1389 17.339 95.2281 12.1823C94.3175 7.02627 97.7779 2.11218 102.939 1.20213C108.099 0.292205 113.017 3.74997 113.928 8.90671Z" fill="#E9B645" stroke="black" stroke-width="0.25"/>
<g opacity="0.6">
<g opacity="0.6">
<path opacity="0.6" d="M98.058 11.6917C97.4538 8.06916 99.8101 4.63247 103.43 4.02963C107.055 3.42602 110.495 5.84078 111.098 9.3973C111.703 13.0198 109.346 16.4565 105.726 17.0593C102.101 17.6631 98.6613 15.3085 98.058 11.6917Z" fill="#E9B645" stroke="black" stroke-width="0.25"/>
</g>
</g>
<path d="M105.031 12.6344L108.352 12.0418L108.555 13.2091L105.233 13.8019L105.111 13.8236L105.132 13.9455L105.357 15.2998L103.635 15.6226L103.41 14.2732L103.388 14.1449L103.261 14.1714L101.911 14.4524L101.708 13.2852L103.066 13.0025L103.187 12.9772L103.163 12.8556L102.978 11.9336L102.954 11.8111L102.831 11.8356L101.419 12.1178L101.216 10.9495L102.574 10.6668L102.693 10.642L102.671 10.5219L101.894 6.28147L105.892 5.56606C105.892 5.56605 105.892 5.56604 105.892 5.56603C106.917 5.38531 107.744 5.5086 108.387 5.91725C109.034 6.32873 109.445 6.91411 109.623 7.74334C109.8 8.56598 109.625 9.2669 109.154 9.91542C108.684 10.5009 107.976 10.9175 106.956 11.0974C106.956 11.0974 106.956 11.0975 106.956 11.0975L104.803 11.4661L104.676 11.4878L104.702 11.6139L104.886 12.5358L104.91 12.6559L105.031 12.6344ZM104.394 10.26L104.417 10.3838L104.54 10.3599L106.447 9.99123C106.447 9.99121 106.447 9.99118 106.447 9.99116C106.958 9.8954 107.371 9.68551 107.633 9.38144C107.898 9.07386 107.999 8.67972 107.899 8.24316C107.8 7.78465 107.567 7.44408 107.215 7.247C106.866 7.05153 106.419 7.00692 105.908 7.10256L105.908 7.1027L104.001 7.47147L103.879 7.49504L103.902 7.61708L104.394 10.26Z" fill="white" stroke="black" stroke-width="0.25"/>
<g opacity="0.6">
<g opacity="0.6">
<path opacity="0.6" d="M106.34 19.8029L103.062 1.18266C108.18 0.407595 113.025 3.79287 113.928 8.84548C114.832 13.9603 111.433 18.8371 106.34 19.8029Z" fill="#E9B645" stroke="black" stroke-width="0.25"/>
</g>
</g>
<path d="M31.0359 98.6477C34.6791 94.8865 40.69 94.7656 44.4538 98.344C48.2181 101.984 48.339 107.99 44.7577 111.751C41.1134 115.513 35.1029 115.693 31.3402 112.055C27.5756 108.415 27.4545 102.409 31.0359 98.6477Z" fill="#E9B645" stroke="black" stroke-width="0.25"/>
<g opacity="0.6">
<g opacity="0.6">
<path opacity="0.6" d="M33.1275 100.676L33.1286 100.674C35.6028 98.0214 39.8289 97.8999 42.4856 100.434C45.1428 102.968 45.2628 107.13 42.7275 109.784C40.191 112.439 36.0256 112.559 33.3695 110.026C30.7123 107.491 30.5922 103.329 33.1275 100.676Z" fill="#E9B645" stroke="black" stroke-width="0.25"/>
</g>
</g>
<path d="M39.4032 106.636L41.7167 104.147L42.5803 104.959L40.2658 107.45L40.1814 107.54L40.2716 107.626L41.2892 108.586L40.1049 109.877L39.0899 108.919L38.999 108.833L38.9132 108.924L37.9531 109.94L37.0895 109.128L38.0492 108.112L38.1367 108.02L38.0424 107.934L37.3657 107.319L37.2722 107.234L37.1883 107.329L36.2895 108.339L35.4286 107.53L36.3883 106.514L36.4752 106.422L36.3823 106.336L33.2137 103.409L35.957 100.43C36.6835 99.7046 37.3947 99.2969 38.1525 99.2386C38.9172 99.1799 39.6192 99.4136 40.2076 100.002C40.8026 100.596 41.0936 101.242 41.0936 102.003C41.0936 102.761 40.7441 103.53 40.023 104.25L40.0229 104.25L40.0195 104.254L38.5432 105.852L38.4577 105.944L38.551 106.029L39.2276 106.644L39.3191 106.727L39.4032 106.636ZM37.5669 105.107L37.6591 105.191L37.743 105.099L39.0347 103.685C39.3858 103.303 39.5879 102.893 39.6133 102.495C39.6389 102.094 39.4837 101.72 39.1516 101.42C38.8206 101.091 38.4294 100.951 38.0245 101.011C37.6242 101.071 37.2306 101.323 36.8803 101.736L35.59 103.148L35.5053 103.241L35.5984 103.325L37.5669 105.107Z" fill="white" stroke="black" stroke-width="0.25"/>
<g opacity="0.6">
<g opacity="0.6">
<path opacity="0.6" d="M44.8429 111.599L31.1238 98.5579C34.7738 94.8852 40.6591 94.7929 44.4545 98.2831C48.188 101.894 48.3366 107.833 44.8429 111.599Z" fill="#E9B645" stroke="black" stroke-width="0.25"/>
</g>
</g>
<path d="M175.573 12.2526L175.573 12.2531C177.576 17.0437 175.27 22.5639 170.413 24.5664C165.616 26.5076 160.03 24.2011 158.088 19.4107L158.088 19.4107L158.088 19.4095C156.085 14.6187 158.391 9.09836 163.249 7.09603L163.249 7.09581C168.044 5.09452 173.569 7.39859 175.573 12.2526Z" fill="#E9B645" stroke="black" stroke-width="0.25"/>
<g opacity="0.6">
<g opacity="0.6">
<path opacity="0.6" d="M160.733 18.3029C159.345 14.9253 160.975 11.0644 164.356 9.67672C167.737 8.28942 171.601 9.91787 172.99 13.2964C174.378 16.674 172.748 20.5349 169.367 21.9226C165.986 23.3099 162.122 21.6814 160.733 18.3029Z" fill="#E9B645" stroke="black" stroke-width="0.25"/>
</g>
</g>
<path d="M165.039 16.2124L163.365 12.2102L167.124 10.66L167.124 10.66L167.127 10.659C168.091 10.2375 168.915 10.1852 169.612 10.4754L169.612 10.476L169.623 10.4795C170.383 10.713 170.909 11.2363 171.204 12.003L171.204 12.0031L171.208 12.0106C171.559 12.7703 171.503 13.5308 171.207 14.2417C170.854 14.9454 170.265 15.4794 169.303 15.8999L167.274 16.7602L167.158 16.8092L167.208 16.9245L167.577 17.785L167.626 17.8985L167.74 17.8512L170.886 16.5463L171.341 17.6073L168.198 18.911L168.083 18.9587L168.13 19.0739L168.637 20.3127L167.021 21.0124L166.516 19.7782L166.467 19.66L166.35 19.7109L165.051 20.2755L164.595 19.2145L165.896 18.6494L166.01 18.5998L165.961 18.4855L165.592 17.625L165.546 17.518L165.436 17.5562L164.131 18.0097L163.673 16.9403L164.973 16.3753L165.087 16.3261L165.039 16.2124ZM166.592 15.571L166.64 15.6863L166.755 15.6386L168.539 14.9013C169.02 14.7086 169.37 14.4145 169.556 14.0511C169.743 13.6856 169.757 13.264 169.592 12.8352L169.593 12.8351L169.589 12.8277C169.392 12.4006 169.089 12.1262 168.703 12.0147C168.321 11.9046 167.876 11.9588 167.399 12.1494L167.399 12.1494L167.398 12.1499L165.614 12.8875L165.498 12.9353L165.546 13.0509L166.592 15.571Z" fill="white" stroke="black" stroke-width="0.25"/>
<g opacity="0.6">
<g opacity="0.6">
<path opacity="0.6" d="M175.573 12.2504L175.573 12.2504L175.573 12.2522C177.56 17.0048 175.307 22.4754 170.528 24.5171L163.364 6.98692C168.192 5.06968 173.645 7.43583 175.573 12.2504Z" fill="#E9B645" stroke="black" stroke-width="0.25"/>
</g>
</g>
<path d="M196.909 174.838V174.847L196.91 174.857L196.91 174.857L196.911 174.858L196.911 174.864L196.915 174.89C196.918 174.913 196.922 174.948 196.926 174.994C196.934 175.087 196.944 175.224 196.947 175.401C196.955 175.756 196.94 176.272 196.849 176.91L196.848 176.913C196.545 179.578 194.908 184.395 187.63 187.878C182.608 190.265 174.878 192.046 163.017 192.046C144.577 192.046 136.132 187.715 132.291 183.421C130.371 181.274 129.595 179.129 129.299 177.523C129.151 176.72 129.122 176.052 129.131 175.585C129.135 175.351 129.149 175.169 129.161 175.045C129.167 174.983 129.173 174.936 129.177 174.904C129.179 174.889 129.181 174.877 129.182 174.869L129.184 174.861L129.184 174.859L129.184 174.859L129.184 174.859L129.186 174.848V174.838V134.394C129.186 126.535 135.527 120.198 143.394 120.198H153.913H153.975L154.013 120.148C154.564 119.414 155.174 118.683 155.842 118.076L155.883 118.039V117.984V116.263C155.883 116.075 155.884 115.911 155.938 115.749L155.973 115.644L155.874 115.597C151.052 113.279 147.573 108.583 146.963 103.034L146.958 102.993L146.93 102.963C143.445 99.1748 141.304 94.0419 141.304 88.4809V88.2965C141.304 76.3804 151.029 66.7247 162.894 66.7247H163.201C175.127 66.7247 184.791 76.4414 184.791 88.2965V88.4809C184.791 94.0413 182.651 99.1133 179.164 102.964L179.137 102.994L179.132 103.034C178.522 108.583 175.043 113.279 170.221 115.597L170.122 115.644L170.157 115.749C170.211 115.911 170.212 116.075 170.212 116.263V117.984V118.042L170.257 118.08C170.986 118.687 171.592 119.353 172.076 120.139L172.112 120.198H172.182H173.413H182.701C190.568 120.198 196.909 126.535 196.909 134.394V174.838Z" fill="#36465D" stroke="black" stroke-width="0.25"/>
<path d="M133.367 173.015L133.367 173.015L133.369 173.004V172.994V132.551C133.369 124.691 139.71 118.354 147.577 118.354H177.473C185.338 118.354 191.681 124.752 191.742 132.613L191.742 186.068C186.718 188.438 179.005 190.202 167.2 190.202C148.76 190.202 140.315 185.871 136.474 181.577C134.554 179.43 133.778 177.285 133.482 175.679C133.334 174.876 133.305 174.208 133.314 173.741C133.318 173.508 133.332 173.325 133.344 173.201C133.35 173.139 133.356 173.092 133.36 173.06C133.362 173.045 133.364 173.033 133.365 173.025L133.367 173.017L133.367 173.015L133.367 173.015Z" fill="#7FBECB" stroke="black" stroke-width="0.25"/>
<mask id="path-92-inside-1" fill="white">
<path d="M201.094 172.994V175.022C201.217 173.793 201.094 172.994 201.094 172.994Z"/>
</mask>
<path d="M201.094 172.994V175.022C201.217 173.793 201.094 172.994 201.094 172.994Z" fill="#7FBECB"/>
<path d="M201.094 172.994L201.341 172.956L200.844 172.994H201.094ZM201.094 175.022H200.844L201.343 175.047L201.094 175.022ZM200.844 172.994V175.022H201.344V172.994H200.844ZM201.343 175.047C201.406 174.419 201.406 173.9 201.39 173.536C201.382 173.354 201.37 173.211 201.36 173.113C201.355 173.063 201.35 173.025 201.347 172.999C201.345 172.986 201.344 172.975 201.343 172.968C201.342 172.965 201.342 172.962 201.342 172.96C201.342 172.959 201.341 172.958 201.341 172.957C201.341 172.957 201.341 172.957 201.341 172.956C201.341 172.956 201.341 172.956 201.341 172.956C201.341 172.956 201.341 172.956 201.341 172.956C201.341 172.956 201.341 172.956 201.094 172.994C200.847 173.032 200.847 173.032 200.847 173.032C200.847 173.032 200.847 173.032 200.847 173.032C200.847 173.032 200.847 173.032 200.847 173.032C200.847 173.032 200.847 173.032 200.847 173.032C200.847 173.032 200.847 173.032 200.847 173.033C200.847 173.034 200.848 173.036 200.848 173.038C200.849 173.043 200.85 173.051 200.851 173.063C200.854 173.085 200.858 173.119 200.863 173.163C200.872 173.253 200.883 173.386 200.89 173.558C200.905 173.901 200.905 174.396 200.845 174.997L201.343 175.047Z" fill="black" mask="url(#path-92-inside-1)"/>
<path d="M191.93 185.886V132.551C191.93 125.475 186.88 119.613 180.174 118.354H186.761C194.628 118.354 200.969 124.691 200.969 132.551V172.994V175.015C200.666 177.659 199.051 182.413 191.93 185.886Z" fill="#65B2B7" stroke="black" stroke-width="0.25"/>
<path d="M166.954 108.147C155.089 108.147 145.364 98.4917 145.364 86.5756V86.3912C145.364 74.536 155.028 64.8193 166.954 64.8193H167.261C179.126 64.8193 188.851 74.475 188.851 86.3912V86.5756C188.851 98.4307 179.187 108.147 167.261 108.147H166.954Z" fill="#D4744D" stroke="black" stroke-width="0.25"/>
<path d="M177.299 126.222L167.321 155.829L156.98 126.222H177.299Z" fill="#354662" stroke="black" stroke-width="0.25"/>
<path d="M167.138 127.818L167.229 127.732L167.138 127.636L167.047 127.732L167.138 127.818ZM167.138 127.818L167.229 127.732L167.229 127.732L167.23 127.733L167.234 127.737L167.248 127.752L167.307 127.813C167.358 127.866 167.433 127.943 167.53 128.041C167.723 128.237 168.002 128.516 168.344 128.846C169.027 129.505 169.958 130.367 170.954 131.178C171.951 131.991 173.008 132.748 173.94 133.203C174.407 133.43 174.836 133.578 175.207 133.623C175.576 133.668 175.877 133.608 176.104 133.435C176.289 133.291 176.462 133.044 176.621 132.706C176.779 132.37 176.918 131.955 177.039 131.489C177.282 130.555 177.452 129.427 177.571 128.334C177.69 127.243 177.757 126.191 177.795 125.412C177.813 125.022 177.825 124.701 177.831 124.477C177.834 124.366 177.837 124.278 177.838 124.219L177.839 124.151L177.84 124.134L177.84 124.13C177.84 118.237 173.036 113.437 167.138 113.437C161.241 113.437 156.437 118.236 156.437 124.129L156.437 124.133L156.437 124.15L156.439 124.218C156.441 124.277 156.444 124.365 156.448 124.477C156.456 124.7 156.469 125.022 156.49 125.411C156.533 126.19 156.605 127.242 156.728 128.334C156.851 129.426 157.023 130.555 157.263 131.489C157.383 131.956 157.519 132.371 157.673 132.707C157.828 133.045 157.996 133.293 158.174 133.436C158.401 133.617 158.702 133.681 159.071 133.641C159.441 133.6 159.87 133.454 160.336 133.228C161.269 132.777 162.325 132.018 163.322 131.201C164.318 130.386 165.249 129.519 165.932 128.855C166.274 128.523 166.552 128.242 166.746 128.044C166.843 127.945 166.918 127.867 166.969 127.814L167.028 127.753L167.042 127.737L167.046 127.733L167.047 127.732L167.047 127.732L167.138 127.818Z" fill="white" stroke="black" stroke-width="0.25"/>
<path d="M174.272 114.419V121.61C174.272 123.322 172.853 124.681 171.198 124.681H163.14C161.425 124.681 160.066 123.323 160.066 121.61V114.419C160.066 112.707 161.485 111.348 163.14 111.348H171.198C172.913 111.348 174.272 112.705 174.272 114.419Z" fill="#F4D466" stroke="black" stroke-width="0.25"/>
<g opacity="0.7">
<path opacity="0.7" d="M174.272 114.419V116.057C172.155 116.951 169.799 117.428 167.323 117.428H167.015C164.539 117.428 162.183 116.951 160.066 116.057V114.419C160.066 112.707 161.485 111.348 163.14 111.348H171.198C172.913 111.348 174.272 112.705 174.272 114.419Z" fill="#F4D466" stroke="black" stroke-width="0.25"/>
</g>
<path d="M183.314 99.3601C183.314 108.203 176.173 115.339 167.323 115.339H167.015C158.165 115.339 151.023 108.203 151.023 99.3601V86.3912C151.023 77.548 158.165 70.4126 167.015 70.4126H167.323C176.173 70.4126 183.314 77.548 183.314 86.3912V99.3601Z" fill="#F7DF86" stroke="black" stroke-width="0.25"/>
<path d="M158.028 103.111H176.248C174.866 106.788 171.326 109.438 167.138 109.438C162.95 109.438 159.41 106.788 158.028 103.111Z" fill="white" stroke="black" stroke-width="0.25"/>
<path d="M163.755 87.1267C158.267 87.1267 153.399 85.3062 150.531 82.5276V79.3704L155.041 74.3167L160.051 71.0198L160.052 71.0196L160.124 71.0049C160.187 70.992 160.28 70.9732 160.4 70.9495C160.639 70.902 160.983 70.8349 161.406 70.7562C162.25 70.5989 163.406 70.3956 164.65 70.2115C165.894 70.0273 167.224 69.8627 168.419 69.7823C169.615 69.7018 170.664 69.7069 171.352 69.8558C171.935 70.0208 172.745 70.4241 173.639 70.944C174.532 71.4634 175.5 72.0935 176.395 72.7034C177.289 73.3132 178.109 73.902 178.705 74.3385C179.003 74.5567 179.245 74.7367 179.413 74.8621C179.496 74.9249 179.561 74.974 179.606 75.0073L179.636 75.0306C179.751 75.5602 179.808 76.0894 179.808 76.6184C179.808 79.513 178.028 82.137 175.12 84.0432C172.214 85.9487 168.194 87.1267 163.755 87.1267Z" fill="#D4744D" stroke="black" stroke-width="0.25"/>
</svg>
