<svg width="216" height="161" viewBox="0 0 216 161" fill="none" xmlns="http://www.w3.org/2000/svg">
<path d="M191.694 78.368C191.694 118.083 159.473 150.279 119.725 150.279C79.9768 150.279 47.755 118.083 47.755 78.368C47.755 38.6528 79.9768 6.45715 119.725 6.45715C159.473 6.45715 191.694 38.6528 191.694 78.368Z" fill="#5392A8" stroke="black" stroke-width="0.25"/>
<path d="M180.868 78.3679C180.868 112.109 153.493 139.461 119.725 139.461C85.9561 139.461 58.5815 112.109 58.5815 78.3679C58.5815 44.6272 85.9561 17.2748 119.725 17.2748C153.493 17.2748 180.868 44.6272 180.868 78.3679Z" fill="white" stroke="black" stroke-width="0.25"/>
<path d="M135.044 112.294V95.2725H145.928V112.294H135.044Z" fill="#E6B297" stroke="black" stroke-width="0.25"/>
<path d="M128.4 88.8804H139.284V105.902H137.871C132.65 105.902 128.4 101.655 128.4 96.4384V88.8804Z" fill="#E6B297" stroke="black" stroke-width="0.25"/>
<path d="M130.225 67.1887L150.1 87.0476L138.359 98.7793L118.484 78.9204L130.225 67.1887Z" fill="#E6B297" stroke="black" stroke-width="0.25"/>
<path d="M98.9566 115.923L80.7284 90.7194L137.562 49.6823L155.791 74.8862L98.9566 115.923Z" fill="#56979C" stroke="black" stroke-width="0.25"/>
<path d="M101.287 108.177L83.0583 82.9732L139.892 41.9362L158.121 67.14L101.287 108.177Z" fill="#65B2B7" stroke="black" stroke-width="0.25"/>
<path d="M88.8058 83.858L139.009 47.6089L152.445 66.1872L102.242 102.436L88.8058 83.858Z" fill="#7FBECB" stroke="black" stroke-width="0.25"/>
<path d="M134.295 51.0434L139.012 47.626L142.433 52.3399C139.823 54.1541 136.218 53.5738 134.295 51.0434Z" fill="#65B2B7" stroke="black" stroke-width="0.25"/>
<path d="M93.4909 80.4485C95.3066 83.0556 94.7259 86.6577 92.1933 88.5796L88.7731 83.866L93.4909 80.4485Z" fill="#65B2B7" stroke="black" stroke-width="0.25"/>
<path d="M106.938 99.0543L102.221 102.472L98.8005 97.7578C101.41 95.9437 105.015 96.524 106.938 99.0543Z" fill="#65B2B7" stroke="black" stroke-width="0.25"/>
<path d="M147.742 69.5878C145.927 66.9806 146.507 63.3785 149.04 61.4566L152.46 66.1702L147.742 69.5878Z" fill="#65B2B7" stroke="black" stroke-width="0.25"/>
<path d="M127.837 72.7046C129.129 76.7094 126.928 81.003 122.919 82.2945C118.911 83.586 114.614 81.3863 113.322 77.3815C112.029 73.3767 114.231 69.0831 118.239 67.7916C122.247 66.5001 126.544 68.6999 127.837 72.7046Z" fill="#65B2B7" stroke="black" stroke-width="0.25"/>
<path d="M83.3572 43.2621L106.451 25.8545L106.451 25.8545C109.67 23.4275 114.016 23.7464 116.118 26.567L116.119 26.5676L143.663 63.039L118.888 81.7576L91.651 45.5938L91.6506 45.5934C89.6557 42.9706 86.2509 42.107 83.3572 43.2621Z" fill="#56979C" stroke="black" stroke-width="0.25"/>
<path d="M119.749 75.7955L95.0341 43.0737L95.034 43.0735C93.4748 41.017 91.6132 40.2011 89.9808 40.0207C89.0137 39.9139 88.1255 40.0301 87.4288 40.2437L103.745 27.9443L103.746 27.9434C104.401 27.4373 105.914 26.7546 107.634 26.694C109.346 26.6337 111.257 27.1897 112.735 29.149L112.735 29.1491L137.696 62.1787L119.749 75.7955Z" fill="#56979C" stroke="black" stroke-width="0.25"/>
<path d="M82.7687 39.3148L82.7687 39.3148L82.7698 39.3139L83.3229 38.8841C86.3431 36.5911 90.632 37.1943 92.928 40.2128L101.157 51.1149L89.6685 59.8148L81.4395 48.9127L81.4393 48.9123C79.1439 45.8946 79.7474 41.609 82.7687 39.3148Z" fill="#7FBECB" stroke="black" stroke-width="0.25"/>
<path d="M91.3907 53.2431L91.466 53.3426L91.5656 53.2675L98.7254 47.8717L101.218 51.1154L89.7311 59.7538L81.5019 48.8514L81.5016 48.851C79.2063 45.8333 79.8097 41.5477 82.831 39.2534L82.831 39.2534L82.8321 39.2526L83.38 38.8268C83.5501 38.7225 84.2137 38.2403 84.8708 37.7628L84.8896 37.7491C85.1367 37.5696 85.3823 37.3912 85.6019 37.2325C83.816 39.6772 83.7464 43.1393 85.6699 45.683L85.6699 45.683L91.3907 53.2431Z" fill="#65B2B7" stroke="black" stroke-width="0.25"/>
<path d="M89.6684 59.7536L82.9302 50.8568C87.8798 47.2004 94.8078 48.1554 98.5726 53.0208L89.6684 59.7536Z" fill="#65B2B7" stroke="black" stroke-width="0.25"/>
<path d="M84.8336 37.6689L107.928 20.2613L107.928 20.2613C111.146 17.8343 115.492 18.1531 117.594 20.9737L117.595 20.9744L145.139 57.4457L120.364 76.1643L93.1273 40.0006L93.127 40.0001C91.1321 37.3774 87.7272 36.5138 84.8336 37.6689Z" fill="#65B2B7" stroke="black" stroke-width="0.25"/>
<path d="M121.164 70.2023L96.449 37.4805L96.4488 37.4804C94.8896 35.4239 93.0281 34.6079 91.3957 34.4276C90.4285 34.3207 89.5403 34.437 88.8436 34.6506L105.159 22.3512L105.161 22.3503C105.816 21.8441 107.329 21.1615 109.049 21.1009C110.761 21.0406 112.672 21.5965 114.15 23.5559L114.15 23.556L139.111 56.5855L121.164 70.2023Z" fill="#7FBECB" stroke="black" stroke-width="0.25"/>
<path d="M136.974 63.625C133.684 59.1116 134.576 52.8637 138.955 49.4104L145.078 57.5072L136.974 63.625Z" fill="#65B2B7" stroke="black" stroke-width="0.25"/>
<path d="M114.302 68.0672C118.761 64.778 125.073 65.6126 128.469 70.0459L120.365 76.1643L114.302 68.0672Z" fill="#65B2B7" stroke="black" stroke-width="0.25"/>
<path d="M120.879 50.9168C116.568 54.1932 110.372 53.2841 107.091 48.9738C103.812 44.6661 104.721 38.4749 109.035 35.1967C113.347 31.9203 119.543 32.8294 122.824 37.1397C126.103 41.4474 125.193 47.6386 120.879 50.9168Z" fill="#65B2B7" stroke="black" stroke-width="0.25"/>
<path d="M139.042 75.6656H149.926V92.6871H148.513C143.292 92.6871 139.042 88.4404 139.042 83.2237V75.6656Z" fill="#E6B297" stroke="black" stroke-width="0.25"/>
<path d="M153.283 79.1314L153.283 79.1317L153.29 79.1379C155.355 80.958 156.508 83.5667 156.508 86.2354V99.0179H145.624V82.3632V82.3119L145.588 82.2753L126.888 63.3444L126.887 63.3439C125.157 61.6154 125.398 58.6967 127.422 57.3282C129.036 56.2534 131.182 56.4358 132.491 57.8026L132.491 57.8026L132.492 57.8034L153.283 79.1314Z" fill="#E6B297" stroke="black" stroke-width="0.25"/>
<path d="M101.813 20.3056L101.813 20.3055L101.808 20.3097C101.572 20.4981 101.218 20.4182 100.999 20.1449C100.811 19.9102 100.89 19.5581 101.161 19.3392L102.02 18.7267L102.02 18.7268L102.025 18.7226C102.261 18.5342 102.615 18.6141 102.834 18.8875C103.022 19.1221 102.943 19.4741 102.671 19.693L101.813 20.3056Z" fill="#7FBECB" stroke="black" stroke-width="0.25"/>
<path d="M133.742 35.8538L133.742 35.8534L133.733 35.8602C133.498 36.0481 133.145 35.9691 132.926 35.6973L131.759 34.1016L131.759 34.1015L131.756 34.0972C131.568 33.8619 131.647 33.5083 131.921 33.2896C132.156 33.1016 132.509 33.1806 132.728 33.4524L133.895 35.0482L133.895 35.0483L133.898 35.0525C134.096 35.2991 134.054 35.646 133.742 35.8538ZM130.671 31.4867L130.664 31.491L130.658 31.4962C130.423 31.6842 130.07 31.6052 129.851 31.3334L128.684 29.7376L128.684 29.7375L128.68 29.7333C128.492 29.4979 128.572 29.1444 128.845 28.9256C129.08 28.7377 129.433 28.8167 129.652 29.0885L130.813 30.6755C130.974 31.0069 130.901 31.3493 130.671 31.4867ZM125.608 25.4351L125.608 25.4351L125.605 25.4308C125.416 25.1954 125.496 24.8419 125.77 24.6231C126.005 24.4352 126.358 24.5142 126.577 24.786L127.74 26.3769C127.89 26.6313 127.838 26.989 127.582 27.1937C127.347 27.3817 126.994 27.3027 126.775 27.0309L125.608 25.4351ZM122.471 21.1326L122.471 21.1326L122.467 21.1283C122.279 20.893 122.359 20.5394 122.632 20.3207C122.867 20.1327 123.22 20.2117 123.439 20.4835L124.606 22.0793L124.606 22.0793L124.61 22.0836C124.798 22.3189 124.718 22.6725 124.445 22.8913C124.21 23.0792 123.857 23.0002 123.638 22.7284L122.471 21.1326ZM121.532 17.7788C121.664 17.956 121.639 18.309 121.37 18.5869C121.239 18.6616 121.087 18.6972 120.951 18.6849C120.813 18.6723 120.699 18.6118 120.632 18.4991L120.632 18.4988L120.624 18.4884C120.248 17.9873 119.811 17.5507 119.315 17.1172L119.315 17.1171L119.311 17.1136C119.069 16.9205 119.055 16.5722 119.269 16.306C119.462 16.0645 119.811 16.051 120.077 16.264L120.079 16.2651C120.62 16.686 121.105 17.2297 121.532 17.7788ZM117.147 15.3785L117.14 15.3819L117.133 15.3863C116.974 15.4923 116.776 15.5371 116.582 15.4399L116.582 15.4398L116.577 15.4375C116.013 15.1873 115.389 15.0004 114.766 14.876L114.767 14.8759L114.763 14.8753C114.466 14.8259 114.261 14.5254 114.312 14.2201C114.361 13.9244 114.661 13.7191 114.967 13.7695C115.631 13.8903 116.297 14.132 116.975 14.3785L116.975 14.3785L116.979 14.3796C117.258 14.4727 117.379 14.8131 117.269 15.1434L117.262 15.1627V15.183C117.262 15.2626 117.249 15.2959 117.237 15.3133C117.225 15.3316 117.203 15.3504 117.147 15.3785ZM111.728 14.8121V14.8115L111.715 14.8127C111.092 14.875 110.469 14.9996 109.846 15.1862L109.846 15.1861L109.843 15.1873C109.539 15.2885 109.241 15.1393 109.14 14.8361C109.039 14.5339 109.187 14.2369 109.488 14.1348C110.165 13.9504 110.83 13.7697 111.554 13.7095L111.554 13.7099L111.564 13.7082C111.859 13.6591 112.156 13.9102 112.156 14.1995V14.2149L112.16 14.2299C112.205 14.4074 112.126 14.5474 111.947 14.7258C111.907 14.7654 111.816 14.8121 111.728 14.8121ZM105.441 17.7864L105.441 17.7863L105.437 17.7898C105.201 17.9782 104.847 17.8983 104.628 17.6249C104.44 17.3901 104.519 17.0377 104.791 16.8189L106.388 15.6527L106.388 15.6528L106.393 15.6494C106.626 15.4625 106.977 15.5396 107.196 15.8076C107.343 16.0612 107.292 16.4159 107.038 16.6203L105.441 17.7864Z" fill="#7FBECB" stroke="black" stroke-width="0.25"/>
<path d="M136.331 39.354L136.324 39.3583L136.317 39.3636C136.082 39.5514 135.73 39.4726 135.51 39.2013L134.897 38.3436L134.898 38.3435L134.893 38.3382C134.705 38.1028 134.785 37.7493 135.058 37.5306C135.293 37.3427 135.646 37.4215 135.865 37.6929L136.472 38.5423C136.634 38.8739 136.56 39.2166 136.331 39.354Z" fill="#7FBECB" stroke="black" stroke-width="0.25"/>
<path d="M106.637 120.293L106.637 120.293L106.628 120.297C106.476 120.373 106.33 120.372 106.202 120.317C106.073 120.262 105.954 120.147 105.873 119.984C105.797 119.832 105.798 119.687 105.853 119.56C105.908 119.431 106.021 119.314 106.181 119.232C106.341 119.168 106.483 119.089 106.618 119.014L106.621 119.013C106.761 118.935 106.892 118.862 107.038 118.804L107.047 118.801L107.056 118.795C107.298 118.65 107.651 118.745 107.804 118.994C107.959 119.309 107.849 119.663 107.604 119.81C107.301 119.992 106.938 120.173 106.637 120.293Z" fill="#7FBECB" stroke="black" stroke-width="0.25"/>
<path d="M103.785 121.104L103.774 121.111L103.766 121.12C103.763 121.123 103.748 121.133 103.71 121.139C103.676 121.145 103.639 121.145 103.608 121.145V121.144L103.596 121.145C102.98 121.207 102.314 121.267 101.651 121.207L101.651 121.206H101.64C101.498 121.206 101.361 121.135 101.256 121.018C101.151 120.9 101.088 120.744 101.088 120.594C101.088 120.452 101.159 120.315 101.277 120.211C101.394 120.106 101.55 120.043 101.701 120.043H101.704C102.255 120.043 102.877 120.043 103.437 119.98L103.437 119.981L103.444 119.979C103.731 119.932 104.041 120.174 104.098 120.481C104.096 120.607 104.057 120.737 103.997 120.85C103.935 120.967 103.856 121.057 103.785 121.104ZM98.9549 120.598L98.939 120.603L98.9251 120.613C98.78 120.709 98.6375 120.712 98.4803 120.66L98.4803 120.659L98.4767 120.658C97.8753 120.478 97.2703 120.177 96.7194 119.871C96.468 119.719 96.3719 119.365 96.518 119.121C96.6696 118.869 97.0251 118.772 97.2692 118.918L97.2691 118.919L97.2777 118.923C97.773 119.171 98.3307 119.418 98.8275 119.604L98.8275 119.605L98.8319 119.606C99.1355 119.707 99.2846 120.005 99.1834 120.308C99.1531 120.399 99.1275 120.459 99.0944 120.503C99.0645 120.543 99.0247 120.575 98.9549 120.598Z" fill="#7FBECB" stroke="black" stroke-width="0.25"/>
<path d="M94.9567 117.976C94.9374 117.988 94.9222 118.002 94.9135 118.01H94.905L94.8786 118.023C94.6689 118.128 94.3611 118.123 94.1616 117.924C94.0417 117.804 93.9211 117.668 93.7976 117.53L93.7962 117.528C93.6758 117.393 93.5525 117.254 93.4286 117.13C93.2332 116.88 93.2807 116.532 93.5362 116.327C93.7859 116.128 94.1377 116.174 94.3436 116.429C94.4384 116.555 94.5482 116.681 94.6542 116.802L94.6559 116.804C94.7642 116.927 94.8686 117.047 94.9575 117.165L94.9629 117.172L94.9691 117.179C95.0634 117.273 95.117 117.422 95.117 117.582C95.117 117.727 95.0724 117.865 94.9931 117.959C94.9802 117.964 94.968 117.969 94.9567 117.976Z" fill="#7FBECB" stroke="black" stroke-width="0.25"/>
<path d="M76.2228 51.022L76.2232 51.0218L76.2182 51.0136C76.0368 50.7115 75.8553 50.3487 75.735 50.048L75.7354 50.0479L75.7307 50.0386C75.6547 49.8866 75.6563 49.7407 75.7107 49.6137C75.7663 49.4841 75.8809 49.3658 76.0439 49.2844C76.196 49.2084 76.3421 49.2099 76.4694 49.2644C76.5979 49.3195 76.7153 49.4324 76.7967 49.5929C76.8608 49.7519 76.9401 49.8944 77.0152 50.0295L77.0168 50.0323C77.0942 50.1715 77.1672 50.3031 77.2253 50.4483L77.229 50.4576L77.2342 50.4662C77.3806 50.71 77.2837 51.065 77.031 51.2165L77.0309 51.2164L77.026 51.2197C76.7185 51.4246 76.3732 51.3225 76.2228 51.022Z" fill="#7FBECB" stroke="black" stroke-width="0.25"/>
<path d="M74.9311 47.2111L74.922 47.193L74.9076 47.1786C74.9046 47.1756 74.895 47.161 74.8887 47.1235C74.883 47.089 74.8828 47.0526 74.8828 47.0212H74.8834L74.8821 47.0087C74.8206 46.3934 74.7604 45.7284 74.8207 45.0656L74.8213 45.0657V45.0543C74.8213 44.9129 74.8923 44.7759 75.0099 44.6714C75.1278 44.5667 75.2834 44.5032 75.4344 44.5032C75.576 44.5032 75.7132 44.5742 75.8178 44.6918C75.9225 44.8095 75.9861 44.965 75.9861 45.1158V45.1194C75.9861 45.6702 75.9861 46.2905 76.0484 46.8506L76.0482 46.8506L76.0493 46.8573C76.0971 47.144 75.8547 47.4538 75.5469 47.5108C75.2667 47.508 75.0227 47.3942 74.9311 47.2111ZM75.4232 42.4169L75.4197 42.4099L75.4154 42.4035C75.3187 42.2585 75.3161 42.1162 75.3685 41.9592L75.3685 41.9592L75.3696 41.9556C75.55 41.3548 75.8518 40.7502 76.1577 40.1998C76.3099 39.9486 76.6643 39.8525 76.908 39.9985C77.1607 40.15 77.2576 40.5051 77.1111 40.7489L77.1108 40.7488L77.1065 40.7574C76.8588 41.2523 76.611 41.8095 76.4246 42.306L76.4246 42.3059L76.4231 42.3103C76.3219 42.6136 76.0236 42.7627 75.72 42.6616C75.5676 42.6108 75.4702 42.5109 75.4232 42.4169Z" fill="#7FBECB" stroke="black" stroke-width="0.25"/>
<path d="M78.02 38.3519C78.0203 38.3523 78.022 38.3584 78.0297 38.3699C78.034 38.3763 78.0384 38.3819 78.0417 38.3858L78.0452 38.3896M78.02 38.3519L78.8177 36.7567C78.6946 36.8796 78.5562 37.0025 78.4178 37.1255C78.2794 37.2484 78.141 37.3713 78.018 37.4943C77.7719 37.7401 77.7719 38.1089 77.895 38.3548C77.895 38.4162 77.9565 38.4777 77.9565 38.4777C78.2025 38.7236 78.6946 38.7236 78.9407 38.4777C79.0637 38.3855 79.1867 38.278 79.3098 38.1704C79.4328 38.0628 79.5558 37.9553 79.6788 37.8631M78.02 38.3519V38.3252L78.0067 38.2988C77.9019 38.0894 77.9069 37.782 78.1063 37.5827C78.2263 37.4628 78.3618 37.3424 78.5008 37.2189L78.5024 37.2176C78.6378 37.0973 78.7765 36.9741 78.9008 36.8503M78.02 38.3519L78.9008 36.8503M78.0452 38.3896L78.0451 38.3896L78.045 38.3895L78.0449 38.3894L78.0449 38.3893M78.0452 38.3896C78.0453 38.3897 78.0453 38.3898 78.0454 38.3898C78.0452 38.3897 78.045 38.3895 78.0449 38.3893M78.0452 38.3896L78.0454 38.3898L78.0456 38.39C78.0456 38.3901 78.0455 38.39 78.0454 38.3898C78.1397 38.4837 78.2891 38.5371 78.4486 38.5371C78.6083 38.5371 78.7581 38.4835 78.8523 38.3893L78.8586 38.383L78.8657 38.3777C78.9843 38.2888 79.1037 38.1845 79.2275 38.0763L79.2294 38.0746C79.3506 37.9687 79.476 37.859 79.6022 37.7643M78.0449 38.3893C78.0449 38.3893 78.0448 38.3893 78.0448 38.3893L77.9565 38.4777L78.0449 38.3893ZM79.6022 37.7643C79.6018 37.7647 79.6013 37.765 79.6008 37.7654L79.6788 37.8631M79.6022 37.7643C79.8581 37.5585 79.904 37.2072 79.7043 36.9577C79.5 36.7025 79.1507 36.655 78.9008 36.8503M79.6022 37.7643C79.6028 37.7639 79.6033 37.7635 79.6039 37.763L79.6788 37.8631M79.6788 37.8631L78.9008 36.8503" fill="#7FBECB" stroke="black" stroke-width="0.25"/>
<path d="M145.686 112.294V95.2725H156.57V112.294H145.686Z" fill="#F0D0B4" stroke="black" stroke-width="0.25"/>
<path d="M139.042 88.8802H149.926V105.902H148.513C143.292 105.902 139.042 101.655 139.042 96.4383V88.8802Z" fill="#F0D0B4" stroke="black" stroke-width="0.25"/>
<path d="M138.829 77.5343L156.456 95.1475L150.851 100.748L133.223 83.1351C131.673 81.5858 131.673 79.0835 133.223 77.5343C134.774 75.985 137.278 75.985 138.829 77.5343Z" fill="#F0D0B4" stroke="black" stroke-width="0.25"/>
<path d="M215.07 159.99H169.613C149.874 159.99 133.813 143.942 133.813 124.22V106.766H157.738V124.22C157.738 130.743 163.085 136.085 169.613 136.085H215.07V159.99Z" fill="#D4744D" stroke="black" stroke-width="0.25"/>
<path d="M68.8708 67.3743L68.8714 67.3753C71.9085 71.9271 70.6329 78.0568 66.0774 81.0306C61.5212 84.005 55.3854 82.7298 52.4093 78.2389L52.4091 78.2386C49.372 73.6868 50.6475 67.5571 55.2031 64.5833L55.2031 64.5833L55.204 64.5826C59.7597 61.548 65.8945 62.8226 68.8708 67.3743Z" fill="#E9B645" stroke="black" stroke-width="0.25"/>
<g opacity="0.6">
<g opacity="0.6">
<path opacity="0.6" d="M56.8644 67.04L56.8644 67.04L56.8653 67.0394C60.0049 64.928 64.295 65.8315 66.4108 68.9719C68.5257 72.1723 67.6795 76.3967 64.4775 78.5095C61.2743 80.6231 57.046 79.7775 54.9314 76.578C52.8161 73.3776 53.6623 69.1529 56.8644 67.04Z" fill="#E9B645" stroke="black" stroke-width="0.25"/>
</g>
</g>
<path d="M58.3051 75.6159L57.5865 74.5903L58.7718 73.8007L58.8767 73.7309L58.806 73.6265L56.2926 69.9193L59.8176 67.5314C59.8177 67.5313 59.8178 67.5312 59.818 67.5311C60.7243 66.9275 61.554 66.6967 62.3129 66.8133L62.3142 66.8135C63.1395 66.9313 63.785 67.3413 64.2579 68.0499C64.7333 68.7626 64.9065 69.524 64.6723 70.3433L64.6721 70.3432L64.6707 70.3495C64.4951 71.1094 63.9662 71.8227 63.0623 72.4248L63.0615 72.4253L61.1546 73.7161L61.0499 73.7869L61.1219 73.8908L61.6755 74.6898L61.7451 74.7903L61.8471 74.723L64.8213 72.7616L65.539 73.7861L62.5706 75.7436L62.4657 75.8128L62.5355 75.9173L63.3278 77.1048L61.8123 78.1323L61.021 76.9463L60.9517 76.8424L60.8477 76.9117L59.6576 77.7045L58.9398 76.68L60.1251 75.8905L60.2311 75.8199L60.1586 75.7152L59.605 74.9162L59.5359 74.8165L59.4341 74.8826L58.3051 75.6159ZM60.3842 72.6008L60.4543 72.7005L60.5557 72.6329L62.2166 71.5266L62.2167 71.5266L62.2199 71.5243C62.6654 71.2064 62.9642 70.8321 63.0822 70.4364C63.2013 70.0369 63.1317 69.6287 62.865 69.2612C62.5997 68.8647 62.2286 68.6428 61.8036 68.6089C61.3822 68.5752 60.9236 68.7271 60.477 69.0454L58.8178 70.1507L58.7111 70.2217L58.7848 70.3266L60.3842 72.6008Z" fill="white" stroke="black" stroke-width="0.25"/>
<g opacity="0.6">
<g opacity="0.6">
<path opacity="0.6" d="M68.8712 67.312L68.8714 67.3123C71.8853 71.8294 70.6521 77.9004 66.1811 80.8991L55.3087 64.4522C59.8538 61.5658 65.9181 62.8558 68.8712 67.312Z" fill="#E9B645" stroke="black" stroke-width="0.25"/>
</g>
</g>
<path d="M184.313 59.6225C184.313 64.1002 180.618 67.7332 176.134 67.7336C171.65 67.6726 168.015 64.0396 168.015 59.561C168.015 55.083 171.71 51.4498 176.195 51.4498C180.677 51.4498 184.313 55.142 184.313 59.6225Z" fill="#E9B645" stroke="black" stroke-width="0.25"/>
<g opacity="0.6">
<g opacity="0.6">
<path opacity="0.6" d="M181.852 59.5575L181.852 59.5575V59.5599C181.852 62.6852 179.265 65.2126 176.133 65.2126C173.005 65.2126 170.476 62.6272 170.476 59.4984C170.476 56.3735 173.063 53.8465 176.194 53.8458C179.388 53.9067 181.912 56.4345 181.852 59.5575Z" fill="#E9B645" stroke="black" stroke-width="0.25"/>
</g>
</g>
<path d="M176.195 61.5289H179.145V62.5082H176.195H176.07V62.6332V63.7989H174.597V62.6332V62.5082H174.472H173.306V61.5289H174.472H174.597V61.4039V60.6048V60.4857L174.478 60.48L173.306 60.4242V59.4391H174.472H174.597V59.3141V55.6283H178.102C178.998 55.6283 179.646 55.8656 180.175 56.2756C180.439 56.5109 180.626 56.7571 180.748 57.0361C180.87 57.3166 180.929 57.6369 180.929 58.0233C180.929 58.7289 180.696 59.3082 180.172 59.7738C179.645 60.2419 178.999 60.4798 178.102 60.4798H176.195H176.07V60.6048V61.4039V61.5289H176.195ZM176.07 59.3141V59.4391H176.195H177.856C178.306 59.4391 178.69 59.3268 178.965 59.1038C179.243 58.8782 179.395 58.5492 179.395 58.1463C179.395 57.7433 179.243 57.4143 178.965 57.1887C178.69 56.9657 178.306 56.8534 177.856 56.8534H176.195H176.07V56.9784V59.3141Z" fill="white" stroke="black" stroke-width="0.25"/>
<g opacity="0.6">
<g opacity="0.6">
<path opacity="0.6" d="M184.313 59.5583H184.313V59.56C184.313 63.996 180.687 67.6029 176.259 67.6702L176.38 51.39C180.807 51.516 184.373 55.1229 184.313 59.5583Z" fill="#E9B645" stroke="black" stroke-width="0.25"/>
</g>
</g>
<path d="M155.843 26.7903C157.721 30.907 155.903 35.75 151.844 37.6266C147.723 39.5037 142.877 37.747 140.999 33.6317C139.121 29.5149 140.939 24.6718 144.998 22.7951C149.118 20.9185 153.965 22.735 155.843 26.7903Z" fill="#E9B645" stroke="black" stroke-width="0.25"/>
<g opacity="0.6">
<g opacity="0.6">
<path opacity="0.6" d="M143.275 32.6476C141.951 29.7601 143.215 26.3921 146.044 25.0689C148.87 23.7471 152.242 25.0071 153.629 27.8366C154.952 30.7237 153.688 34.0909 150.86 35.414C147.97 36.7372 144.599 35.474 143.275 32.6476Z" fill="#E9B645" stroke="black" stroke-width="0.25"/>
</g>
</g>
<path d="M146.78 30.679L145.174 27.3506L148.32 25.868C149.104 25.5067 149.81 25.394 150.449 25.568C151.087 25.742 151.551 26.1453 151.844 26.7899C152.142 27.4433 152.194 28.0782 151.908 28.649L151.905 28.6555L151.902 28.6622C151.672 29.2959 151.15 29.7674 150.368 30.1281L150.368 30.1282L148.645 30.9272L148.528 30.9814L148.586 31.0965L148.955 31.8341L149.01 31.9429L149.12 31.8915L151.778 30.6521L152.219 31.5348L149.568 32.7712L149.454 32.8244L149.508 32.9381L150.008 33.9935L148.695 34.6229L148.196 33.5686L148.142 33.4557L148.029 33.5091L146.971 34.01L146.529 33.1272L147.583 32.6287L147.698 32.5741L147.641 32.4598L147.272 31.7222L147.213 31.6056L147.099 31.6689L146.106 32.2202L145.668 31.3448L146.721 30.8463L146.835 30.7924L146.78 30.679ZM148.154 30.049L148.209 30.1647L148.323 30.1075L149.798 29.3709C150.214 29.1787 150.516 28.916 150.671 28.5984C150.828 28.2765 150.824 27.9145 150.657 27.5469C150.489 27.1766 150.213 26.9482 149.863 26.8697C149.52 26.7925 149.122 26.8636 148.707 27.0549L148.707 27.0548L148.704 27.0566L147.227 27.7941L147.118 27.8487L147.17 27.9592L148.154 30.049Z" fill="white" stroke="black" stroke-width="0.25"/>
<g opacity="0.6">
<g opacity="0.6">
<path opacity="0.6" d="M155.843 26.791C157.703 30.8693 155.937 35.6601 151.957 37.5735L145.112 22.8048C149.147 21.0131 153.922 22.7729 155.843 26.791Z" fill="#E9B645" stroke="black" stroke-width="0.25"/>
</g>
</g>
<path d="M51.6911 118.334L51.6894 118.333C48.675 116.647 47.5875 112.789 49.2771 109.714C50.9653 106.702 54.8257 105.616 57.9038 107.304C60.9178 108.991 62.0051 112.848 60.3158 115.923C58.565 118.998 54.7047 120.081 51.6911 118.334Z" fill="#E9B645" stroke="black" stroke-width="0.25"/>
<g opacity="0.6">
<g opacity="0.6">
<path opacity="0.6" d="M50.9379 110.697L50.9385 110.696C52.0731 108.608 54.7635 107.828 56.9188 109.024C59.0127 110.22 59.7894 112.849 58.5937 115C57.3967 117.093 54.7658 117.869 52.6124 116.674C50.5183 115.478 49.7417 112.849 50.9379 110.697Z" fill="#E9B645" stroke="black" stroke-width="0.25"/>
</g>
</g>
<path d="M54.6571 114.385L54.2237 115.143L53.5831 114.823L54.0147 114.014L54.0735 113.904L53.9633 113.845L51.4298 112.491L52.7221 110.144L52.7222 110.144L52.7244 110.139C53.0183 109.552 53.4241 109.207 53.9439 109.034L53.9439 109.034L53.9483 109.032C54.4004 108.863 54.9155 108.916 55.3811 109.148C55.8568 109.446 56.1922 109.79 56.3045 110.295C56.4188 110.809 56.3078 111.331 56.0087 111.93L55.2723 113.217L55.2094 113.327L55.3201 113.389L55.8737 113.696L55.9852 113.758L56.0448 113.645L57.095 111.663L57.7324 111.982L56.6851 113.958L56.6284 114.065L56.7336 114.125L57.4899 114.557L56.9913 115.504L56.2424 115.076L56.1307 115.012L56.0702 115.126L55.6354 115.941L54.9979 115.622L55.4295 114.813L55.4874 114.705L55.3799 114.645L54.8263 114.338L54.7184 114.278L54.6571 114.385ZM54.5218 112.836L54.6329 112.896L54.6917 112.784L55.3068 111.617L55.3068 111.617L55.308 111.614C55.4682 111.294 55.5407 110.99 55.4965 110.716C55.4514 110.437 55.2881 110.208 55.0164 110.039C54.7374 109.864 54.4482 109.844 54.1777 109.961C53.9142 110.075 53.6816 110.314 53.4897 110.634L53.4895 110.633L53.4862 110.64L52.8711 111.807L52.8134 111.917L52.9225 111.976L54.5218 112.836Z" fill="white" stroke="black" stroke-width="0.25"/>
<g opacity="0.6">
<g opacity="0.6">
<path opacity="0.6" d="M57.9038 107.304C60.882 108.971 61.979 112.756 60.3747 115.813L49.2785 109.667C51.0571 106.676 54.8633 105.636 57.9038 107.304Z" fill="#E9B645" stroke="black" stroke-width="0.25"/>
</g>
</g>
<path d="M83.9357 0.740811C89.0965 0.255839 93.7712 4.01727 94.3179 9.23371C94.8033 14.3903 91.0386 19.0615 85.8173 19.6075C80.5975 20.1533 75.9827 16.3329 75.4358 11.1145C74.9504 5.89704 78.7144 1.28713 83.9357 0.740811Z" fill="#E9B645" stroke="black" stroke-width="0.25"/>
<g opacity="0.6">
<g opacity="0.6">
<path opacity="0.6" d="M91.4266 9.47717L91.4266 9.47718L91.4268 9.47923C91.789 13.0986 89.1323 16.3562 85.5103 16.7181C81.8877 17.08 78.6276 14.4253 78.2654 10.8065C77.9032 7.18724 80.5598 3.92967 84.1817 3.56772C87.8672 3.20556 91.125 5.86142 91.4266 9.47717Z" fill="#E9B645" stroke="black" stroke-width="0.25"/>
</g>
</g>
<path d="M81.6328 11.5455L81.4801 10.375L82.8925 10.2057L83.0155 10.1909L83.0018 10.0677L82.5235 5.76579L86.5831 5.28859C87.606 5.16834 88.4335 5.34993 89.0786 5.81873C89.726 6.28923 90.0782 6.87248 90.1969 7.76245L90.1971 7.7636C90.3147 8.58605 90.0811 9.28682 89.5513 9.87496C89.0231 10.4613 88.2548 10.8203 87.231 10.9408C87.2308 10.9408 87.2307 10.9408 87.2305 10.9408L85.0168 11.1866L84.8898 11.2007L84.9067 11.3274L85.0297 12.2493L85.0458 12.3698L85.1667 12.3571L88.5518 12.0011L88.704 13.1667L85.3251 13.5221L85.1983 13.5355L85.2141 13.662L85.3832 15.013L83.6628 15.2279L83.4937 13.8768L83.4783 13.7534L83.3548 13.7682L81.9398 13.9379L81.7876 12.7721L83.2001 12.6027L83.3258 12.5877L83.3091 12.4621L83.186 11.5401L83.1704 11.4226L83.0522 11.4321L81.6328 11.5455ZM84.7219 9.91127L84.7362 10.0373L84.8621 10.0211L86.7685 9.77533C86.7686 9.77532 86.7686 9.77531 86.7687 9.7753C87.2784 9.7116 87.7077 9.53485 87.9948 9.24801C88.2858 8.95725 88.4198 8.56377 88.3531 8.09701C88.2872 7.63586 88.0701 7.27909 87.7284 7.05718C87.3894 6.83698 86.9422 6.75888 86.4299 6.82285L86.4294 6.82292L84.5225 7.06877L84.4004 7.08451L84.4143 7.20687L84.7219 9.91127Z" fill="white" stroke="black" stroke-width="0.25"/>
<g opacity="0.6">
<g opacity="0.6">
<path opacity="0.6" d="M86.0032 19.5931L84.0606 0.728121C89.2287 0.255286 93.7762 4.05588 94.3795 9.234C94.8606 14.3492 91.1595 18.9866 86.0032 19.5931Z" fill="#E9B645" stroke="black" stroke-width="0.25"/>
</g>
</g>
</svg>
