<svg width="215" height="145" viewBox="0 0 215 145" fill="none" xmlns="http://www.w3.org/2000/svg">
<path d="M190.162 72.8449C190.194 112.576 158.012 144.784 118.281 144.784C78.5499 144.784 46.3152 112.576 46.2827 72.8449C46.2502 33.1138 78.4323 0.905333 118.163 0.905333C157.895 0.905333 190.129 33.1138 190.162 72.8449Z" fill="#5392A8" stroke="black" stroke-width="0.25"/>
<path d="M93.0909 64.2598L141.955 21.9208L141.955 21.9208L141.958 21.9185C142.667 21.2693 143.731 20.9748 144.673 21.21C145.623 21.4473 146.448 22.0982 146.801 23.0381L146.801 23.04L153.199 39.2665L153.225 39.3332L153.296 39.3442L163.926 40.9829L160.91 53.2799L158.745 52.9876L158.486 52.9526L158.621 53.1762L164.76 63.3171L150.957 69.1494L93.0909 64.2598Z" fill="#88C2D2" stroke="black" stroke-width="0.25"/>
<path d="M92.2245 63.8212L92.225 63.8211L92.2203 63.8117C92.1219 63.6152 92.1745 63.3137 92.368 63.1687L92.3684 63.1691L92.3773 63.161L144.726 15.465L144.726 15.4647C145.435 14.8156 146.499 14.5211 147.441 14.7563C148.391 14.9936 149.216 15.6445 149.569 16.5843L149.569 16.5862L166.424 59.3633C166.424 59.3635 166.424 59.3638 166.424 59.3641C166.779 60.3098 166.66 61.3131 166.128 62.1405C165.6 62.9617 164.657 63.4354 163.65 63.4353L163.648 63.4354L92.784 64.1115L92.7551 64.1117L92.7293 64.1246C92.6512 64.1636 92.5572 64.158 92.4619 64.1044C92.3658 64.0504 92.2764 63.9506 92.2245 63.8212Z" fill="#88C2D2" stroke="black" stroke-width="0.25"/>
<path d="M109.738 57.2299L109.731 57.2314L109.723 57.2338C109.656 57.2564 109.597 57.254 109.546 57.2309C109.494 57.2073 109.435 57.1552 109.383 57.0506C109.372 57.0285 109.366 56.9738 109.388 56.9111C109.41 56.8517 109.448 56.8104 109.495 56.7949L109.504 56.7919L109.512 56.7875L155.998 32.9811L163.871 40.9081L161.408 46.6098L109.738 57.2299Z" fill="#88C2D2" stroke="black" stroke-width="0.25"/>
<path d="M169.814 34.7107L169.821 34.7054L169.828 34.6992L169.828 34.6992L169.828 34.6992L169.828 34.6991L169.828 34.6991L169.828 34.6991L169.828 34.6984L169.832 34.695L169.847 34.681C169.86 34.6686 169.88 34.6506 169.905 34.6288C169.956 34.5851 170.029 34.5269 170.116 34.4689L170.126 34.462L170.135 34.4533C170.218 34.371 170.313 34.2883 170.42 34.1957C170.428 34.1889 170.436 34.182 170.444 34.1751C170.559 34.0751 170.685 33.965 170.812 33.8386C171.061 33.5894 171.294 33.3254 171.465 33.1242C171.55 33.0234 171.62 32.9381 171.669 32.8779C171.693 32.8478 171.712 32.824 171.725 32.8076L171.74 32.7888L171.744 32.7839L171.745 32.7826L171.745 32.7823L171.745 32.7822L171.745 32.7821L171.646 32.7053L171.745 32.7822L171.748 32.778C171.878 32.5964 172.089 32.4879 172.315 32.4606C172.541 32.4332 172.766 32.4894 172.92 32.617L172.919 32.6173L172.927 32.6227C173.293 32.8838 173.355 33.4158 173.084 33.7977L173.081 33.8017L173.065 33.8218C173.051 33.8394 173.029 33.8653 173.002 33.8982C172.948 33.9639 172.87 34.0573 172.774 34.1679C172.583 34.3895 172.324 34.6789 172.05 34.9525C171.74 35.2618 171.501 35.5006 171.264 35.6785C171.138 35.7727 171.043 35.8515 170.98 35.9072C170.948 35.9351 170.924 35.9572 170.907 35.9725L170.888 35.9904L170.885 35.9935C170.51 36.3124 169.975 36.2608 169.65 35.8815L169.643 35.8736L169.635 35.8668C169.49 35.7459 169.421 35.5458 169.448 35.3249C169.475 35.105 169.596 34.8745 169.814 34.7107Z" fill="#88C2D2" stroke="black" stroke-width="0.25"/>
<path d="M174.967 25.971L174.967 25.9751L174.962 25.9984C174.958 26.0188 174.952 26.0484 174.945 26.0859C174.929 26.161 174.906 26.268 174.874 26.3963C174.812 26.6521 174.719 26.9943 174.594 27.3376C174.552 27.4653 174.517 27.584 174.484 27.6979C174.47 27.7458 174.456 27.7929 174.442 27.8395C174.396 27.9942 174.347 28.1412 174.28 28.2744C174.221 28.3936 174.176 28.498 174.146 28.5722C174.131 28.6093 174.12 28.6388 174.113 28.6588L174.105 28.6814L174.103 28.6869L174.103 28.6881L174.103 28.6882C174.103 28.6883 174.103 28.6883 174.103 28.6883C173.937 29.1857 174.16 29.6644 174.581 29.8224C175.01 29.9828 175.49 29.7688 175.65 29.3442L175.65 29.3438L175.653 29.3367L175.662 29.3108C175.67 29.2886 175.682 29.2566 175.698 29.2168C175.729 29.1384 175.776 29.0294 175.838 28.9048C175.959 28.6029 176.08 28.2403 176.203 27.8729C176.325 27.4757 176.432 27.0936 176.508 26.8105C176.547 26.6689 176.577 26.5522 176.598 26.4709L176.623 26.3769L176.629 26.3524L176.63 26.3462L176.631 26.3447L176.631 26.3443L176.631 26.3442L176.631 26.3442L174.967 25.971ZM174.967 25.971C175.077 25.5395 175.507 25.2232 175.985 25.3284L174.967 25.971Z" fill="#88C2D2" stroke="black" stroke-width="0.25"/>
<path d="M174.843 18.5985C174.733 18.156 174.96 17.6854 175.367 17.5835C175.811 17.4727 176.283 17.6994 176.385 18.1072L176.384 18.1073L176.387 18.1164L176.387 18.1164L176.387 18.1164L176.387 18.1165L176.387 18.1168L176.388 18.1183L176.39 18.1243L176.398 18.1483C176.405 18.1695 176.414 18.201 176.427 18.2412C176.451 18.3217 176.486 18.4376 176.524 18.5782C176.6 18.8598 176.691 19.2391 176.752 19.6325L176.752 19.6325L176.752 19.634C176.772 19.7545 176.792 19.883 176.813 20.0122C176.853 20.2682 176.894 20.527 176.935 20.7323C176.935 20.8885 176.951 21.0146 176.967 21.1033C176.976 21.1488 176.984 21.1846 176.991 21.2095C176.993 21.2208 176.996 21.2299 176.998 21.2367C177.045 21.711 176.732 22.0782 176.246 22.1322L176.246 22.1322L176.244 22.1324C175.835 22.1835 175.397 21.8203 175.339 21.3265L175.339 21.3234C175.339 21.3169 175.339 21.3077 175.338 21.2961C175.337 21.273 175.335 21.24 175.331 21.1991C175.323 21.1206 175.308 21.0125 175.278 20.8887C175.275 20.6298 175.213 20.2593 175.152 19.9588C175.09 19.6179 175.013 19.2777 174.951 19.0231C174.92 18.8956 174.893 18.7893 174.874 18.7148C174.864 18.6775 174.856 18.6482 174.851 18.6282L174.845 18.6052L174.843 18.5993L174.843 18.5985Z" fill="#88C2D2" stroke="black" stroke-width="0.25"/>
<path d="M172.794 14.4392L172.788 14.4308L172.781 14.4238L172.781 14.4237L172.781 14.4237L172.78 14.4236L172.78 14.4236L172.78 14.4234L172.778 14.4206C172.775 14.4178 172.771 14.4131 172.765 14.4065C172.753 14.3933 172.736 14.3727 172.715 14.3447C172.673 14.2885 172.615 14.2027 172.558 14.0872L172.549 14.069L172.534 14.0547C172.455 13.9753 172.374 13.8698 172.28 13.7471C172.274 13.7386 172.267 13.7301 172.261 13.7214C172.162 13.5919 172.05 13.4486 171.922 13.3198C171.674 13.041 171.426 12.7938 171.241 12.6161C171.147 12.5269 171.07 12.4551 171.015 12.4055C170.988 12.3807 170.967 12.3615 170.952 12.3484L170.935 12.3334L170.932 12.3309C170.603 11.9997 170.565 11.5282 170.873 11.2198C171.205 10.8883 171.679 10.849 171.988 11.1583L171.988 11.1583L172.077 11.07L172.077 11.0699L171.988 11.1583L171.989 11.1584L171.989 11.1584L171.989 11.1587L171.99 11.1599L171.995 11.1647L172.013 11.1832L172.084 11.2534L172.335 11.5041L173.091 12.2598L173.091 12.2605C173.331 12.5601 173.577 12.8676 173.766 13.0574C173.858 13.1795 173.935 13.2718 173.99 13.3342C174.018 13.3661 174.04 13.3902 174.055 13.4066L174.072 13.4243C174.338 13.8034 174.277 14.272 173.911 14.5331L173.903 14.5391L173.895 14.5464C173.583 14.8581 173.058 14.8096 172.794 14.4392Z" fill="#88C2D2" stroke="black" stroke-width="0.25"/>
<path d="M167.027 9.54444L167.019 9.54047L167.011 9.53771L167.011 9.5377L167.011 9.53768L167.011 9.53767L167.011 9.53767L167.011 9.53766L167.01 9.53733L167.005 9.53559L166.984 9.52791C166.966 9.52092 166.939 9.51025 166.907 9.49592C166.842 9.4671 166.756 9.42425 166.672 9.36783L166.665 9.36352L166.658 9.36004C166.586 9.3242 166.506 9.28107 166.42 9.2349C166.227 9.13164 166.006 9.01314 165.79 8.92663C165.451 8.77278 165.128 8.63443 164.89 8.5345C164.77 8.48439 164.672 8.4439 164.603 8.41593L164.524 8.38369L164.503 8.37528L164.498 8.37312L164.496 8.37257L164.496 8.37242L164.496 8.37238L164.496 8.37237L164.449 8.48844L164.496 8.37234L164.493 8.37139C164.074 8.21444 163.913 7.74111 164.072 7.3699C164.232 6.99778 164.715 6.7888 165.077 6.94382L165.078 6.94431L165.126 6.82891L165.078 6.94431L165.078 6.94432L165.078 6.94436L165.078 6.94452L165.08 6.94518L165.086 6.94779L165.111 6.95802L165.203 6.99692C165.283 7.03046 165.396 7.07838 165.53 7.13589C165.798 7.25072 166.15 7.40359 166.487 7.55641C166.589 7.60744 166.685 7.65293 166.774 7.69556C167.018 7.81205 167.217 7.90713 167.388 8.03529L167.397 8.04205L167.408 8.04708C167.527 8.10677 167.632 8.16658 167.707 8.2115C167.744 8.23392 167.774 8.25255 167.794 8.26547L167.817 8.28032L167.823 8.28408L167.824 8.28496L167.825 8.28514L167.825 8.28515L167.825 8.28539L167.832 8.28967C168.209 8.50469 168.361 8.98177 168.157 9.34458C167.952 9.64724 167.474 9.76767 167.027 9.54444Z" fill="#88C2D2" stroke="black" stroke-width="0.25"/>
<path d="M156.268 5.29244C156.391 4.80073 156.821 4.49341 157.313 4.61634L160.943 6.33733C160.758 6.82904 160.266 7.0749 159.774 6.95197C159.774 6.95197 159.097 6.76758 158.359 6.64465C157.621 6.52172 156.944 6.33733 156.944 6.33733C156.452 6.2144 156.145 5.78415 156.268 5.29244ZM160.236 5.35225C160.661 5.45853 160.924 5.88029 160.823 6.30012L159.807 6.83136L159.807 6.83135L159.807 6.83132L159.806 6.83121L159.805 6.83078L159.799 6.82915L159.776 6.82297C159.755 6.81761 159.726 6.80984 159.688 6.80015C159.612 6.78077 159.504 6.75367 159.372 6.72273C159.109 6.66088 158.752 6.58341 158.38 6.52135C158.014 6.46048 157.663 6.38429 157.404 6.32321C157.274 6.29269 157.167 6.26601 157.093 6.24697C157.056 6.23746 157.027 6.22986 157.007 6.22466L156.985 6.21872L156.979 6.21721L156.978 6.21684L156.977 6.21675L156.977 6.21673L156.977 6.21673L156.977 6.2167L156.975 6.21606C156.538 6.10706 156.285 5.73681 156.389 5.32278C156.498 4.88698 156.869 4.63404 157.283 4.73761L157.283 4.738L157.293 4.73964L157.293 4.73964L157.293 4.73964L157.293 4.73966L157.293 4.73972L157.295 4.73997L157.301 4.74101L157.325 4.74517C157.347 4.74885 157.378 4.75433 157.418 4.76149C157.499 4.7758 157.613 4.79681 157.751 4.82356C158.027 4.8771 158.393 4.95346 158.76 5.04493L158.759 5.04532L158.769 5.04696C159.135 5.10792 159.502 5.18425 159.778 5.24545C159.915 5.27602 160.03 5.30277 160.11 5.32185C160.15 5.3314 160.182 5.33902 160.203 5.34425L160.228 5.35023L160.234 5.35176L160.235 5.35214L160.236 5.35223L160.236 5.35225L160.236 5.35225Z" fill="#88C2D2" stroke="black" stroke-width="0.25"/>
<path d="M152.164 5.59894L152.164 5.59855L152.154 5.59793L149.206 5.41379C148.766 5.35728 148.467 5.03708 148.518 4.63186C148.573 4.19071 148.894 3.89052 149.301 3.94135L149.301 3.94158L149.309 3.94207L152.258 4.12621C152.697 4.18272 152.996 4.50291 152.945 4.90814C152.89 5.34499 152.512 5.64859 152.164 5.59894Z" fill="#88C2D2" stroke="black" stroke-width="0.25"/>
<path d="M144.272 5.2903L144.27 5.29035L141.319 5.35179C140.89 5.35117 140.584 5.03257 140.584 4.67776C140.584 4.24907 140.903 3.94226 141.258 3.94226V3.94237L141.264 3.94215L144.213 3.81934C144.641 3.82058 144.947 4.13891 144.947 4.49337V4.50116L144.948 4.50888C145.001 4.92861 144.687 5.29033 144.272 5.2903Z" fill="#88C2D2" stroke="black" stroke-width="0.25"/>
<path d="M133.433 6.0286L133.433 6.02851L133.428 6.02918C133.254 6.05403 133.073 5.99254 132.925 5.87176C132.777 5.75086 132.673 5.57815 132.647 5.39767C132.596 5.03805 132.853 4.67042 133.277 4.61744L136.23 4.24865L136.23 4.24867L136.232 4.24836C136.592 4.19695 136.96 4.4541 137.013 4.8777C137.067 5.3062 136.802 5.66865 136.385 5.72142L133.433 6.0286Z" fill="#88C2D2" stroke="black" stroke-width="0.25"/>
<path d="M128.63 6.76668L128.63 6.76656L128.625 6.76756L125.675 7.32022C125.307 7.3715 124.942 7.16469 124.834 6.74344C124.783 6.36551 125.001 6.01827 125.344 5.96928L125.344 5.96942L125.35 5.96831L128.238 5.41571C128.607 5.3643 128.974 5.57342 129.08 5.99881L129.083 6.00853L129.087 6.01774C129.233 6.35877 128.995 6.71466 128.63 6.76668Z" fill="#88C2D2" stroke="black" stroke-width="0.25"/>
<path d="M117.975 9.16644L117.975 9.1664L117.971 9.16737C117.609 9.2709 117.246 9.06551 117.142 8.70002C117.038 8.33808 117.243 7.97596 117.609 7.8713L120.5 7.07242L120.5 7.07242L120.501 7.07213C120.863 6.9686 121.226 7.17399 121.331 7.53947L121.33 7.53959L121.334 7.54903C121.487 7.95802 121.239 8.32159 120.864 8.42933L117.975 9.16644Z" fill="#88C2D2" stroke="black" stroke-width="0.25"/>
<path d="M113.297 10.5811L113.297 10.581L113.292 10.5825L110.465 11.5037C110.087 11.6105 109.737 11.447 109.637 11.0972C109.529 10.7192 109.692 10.3685 110.043 10.2683L110.043 10.2685L110.05 10.2662L112.876 9.28397C113.254 9.17778 113.603 9.34137 113.703 9.69078L113.702 9.6909L113.706 9.70034C113.787 9.91675 113.771 10.1108 113.696 10.2612C113.62 10.4123 113.48 10.5286 113.297 10.5811Z" fill="#88C2D2" stroke="black" stroke-width="0.25"/>
<path d="M105.853 13.224L105.853 13.2234L105.841 13.2282L103.073 14.3345L103.073 14.3341L103.064 14.3388C102.76 14.4905 102.356 14.336 102.255 13.986L102.252 13.9748L102.247 13.9644C102.095 13.6611 102.25 13.2572 102.6 13.1571L102.6 13.1577L102.612 13.153L105.38 12.0466L105.38 12.047L105.39 12.0424C105.694 11.8906 106.098 12.0451 106.198 12.3952L106.201 12.4064L106.206 12.4168C106.358 12.7201 106.204 13.124 105.853 13.224Z" fill="#88C2D2" stroke="black" stroke-width="0.25"/>
<path d="M95.9299 17.6568L95.9299 17.6568L95.9279 17.6578C95.6309 17.8061 95.2704 17.663 95.1112 17.3449C94.963 17.0488 95.1056 16.6891 95.4234 16.5297L98.1291 15.2395L98.1291 15.2395L98.1311 15.2385C98.4256 15.0914 98.7827 15.2309 98.9438 15.5435C99.0465 15.8631 98.9346 16.2165 98.6356 16.3666L95.9299 17.6568Z" fill="#88C2D2" stroke="black" stroke-width="0.25"/>
<path d="M91.5604 19.9319L91.5604 19.9317L91.5543 19.9351L88.9738 21.4085C88.6615 21.5627 88.3106 21.4562 88.1602 21.1556C88.0038 20.843 88.11 20.4907 88.4119 20.3399L88.4119 20.3401L88.418 20.3366L90.9985 18.8633C91.3108 18.709 91.6617 18.8156 91.8121 19.1162L91.8118 19.1164L91.8167 19.1246C91.8879 19.2432 91.9036 19.4058 91.8577 19.563C91.8122 19.7191 91.7094 19.8574 91.5604 19.9319Z" fill="#88C2D2" stroke="black" stroke-width="0.25"/>
<path d="M82.2606 25.5314L82.2602 25.5307L82.2495 25.5393C82.1302 25.6347 81.9702 25.6622 81.8148 25.6298C81.6583 25.5973 81.5218 25.5071 81.4505 25.3882L81.4461 25.381L81.4409 25.3745C81.3455 25.2553 81.318 25.0955 81.3503 24.9403C81.3829 24.784 81.4732 24.6477 81.5921 24.5764L81.5922 24.5765L81.5978 24.5728L84.0584 22.9133L84.0587 22.9136L84.0666 22.9073C84.1859 22.8119 84.3459 22.7844 84.5013 22.8168C84.6578 22.8493 84.7943 22.9395 84.8656 23.0584L84.8706 23.0667L84.8768 23.0741C85.0082 23.2317 85.0432 23.395 85.0186 23.542C84.9939 23.69 84.9071 23.8311 84.7768 23.9371L82.2606 25.5314Z" fill="#88C2D2" stroke="black" stroke-width="0.25"/>
<path d="M75.8555 30.1463L75.8554 30.1463L75.852 30.149C75.6017 30.3491 75.2491 30.3026 75.0433 30.0456C74.8437 29.7963 74.8895 29.4451 75.1452 29.2393L77.5425 27.4582L77.5426 27.4583L77.546 27.4555C77.7963 27.2555 78.149 27.302 78.3547 27.5589C78.5544 27.8083 78.5086 28.1595 78.2528 28.3653L75.8555 30.1463Z" fill="#88C2D2" stroke="black" stroke-width="0.25"/>
<path d="M69.0572 34.401L69.0573 34.4011L69.0621 34.3968L71.2742 32.4322C71.5403 32.2213 71.8876 32.2353 72.0804 32.4761L72.0798 32.4766L72.0896 32.4864C72.2791 32.6758 72.2941 33.0249 72.0306 33.2905L69.8214 35.2526C69.5552 35.4635 69.208 35.4495 69.0152 35.2087C68.8021 34.9425 68.8155 34.5942 69.0572 34.401Z" fill="#88C2D2" stroke="black" stroke-width="0.25"/>
<path d="M63.408 40.0465L63.4081 40.0465L63.4106 40.0439L65.4394 37.894C65.6442 37.6906 65.9945 37.6443 66.2457 37.8953L66.252 37.9015L66.2591 37.9069C66.3428 37.9696 66.3936 38.0812 66.3936 38.2217C66.3936 38.36 66.3434 38.515 66.2401 38.6461L64.1535 40.7922C63.9561 40.9887 63.6051 40.9885 63.408 40.7916C63.2108 40.5946 63.2108 40.2435 63.408 40.0465Z" fill="#88C2D2" stroke="black" stroke-width="0.25"/>
<path d="M60.9463 44.4283L60.9458 44.4289L59.1008 46.7639C59.1007 46.764 59.1006 46.7641 59.1005 46.7642C58.9983 46.8918 58.8752 46.9514 58.7482 46.9635C58.6207 46.9756 58.4807 46.9404 58.3471 46.8621C58.2237 46.7609 58.1658 46.64 58.154 46.5152C58.1418 46.3877 58.1771 46.2476 58.2558 46.114L60.0957 43.7855C60.0957 43.7854 60.0958 43.7853 60.0959 43.7852C60.1982 43.6576 60.3212 43.5981 60.4482 43.586C60.5758 43.5738 60.7158 43.609 60.8493 43.6874C60.9783 43.7927 61.0487 43.9173 61.0662 44.0401C61.0839 44.1638 61.05 44.2987 60.9463 44.4283Z" fill="#88C2D2" stroke="black" stroke-width="0.25"/>
<path d="M54.6638 53.2902L54.6638 53.2902L54.6622 53.2928C54.5188 53.5316 54.2307 53.5892 53.9724 53.4343C53.7338 53.2913 53.676 53.0043 53.8299 52.7467L55.4284 50.228L55.4285 50.228L55.4301 50.2254C55.5015 50.1065 55.6222 50.0323 55.7538 50.0072C55.8868 49.9819 56.0188 50.009 56.1092 50.0767L56.1182 50.0834L56.1283 50.0885C56.2083 50.1284 56.2835 50.229 56.3163 50.3667C56.3484 50.5013 56.3344 50.6506 56.2623 50.7715L54.6638 53.2902Z" fill="#88C2D2" stroke="black" stroke-width="0.25"/>
<path d="M51.0877 60.2509L51.0876 60.2508L51.0854 60.2562C50.9925 60.4883 50.7034 60.5959 50.4482 60.4939C50.2166 60.4013 50.109 60.1141 50.2093 59.8599L51.4383 57.1583L51.4384 57.1583L51.4405 57.153C51.5303 56.9288 51.8123 56.8105 52.1372 56.9149C52.22 56.9593 52.2905 57.049 52.3279 57.1672C52.3658 57.2871 52.3656 57.4252 52.3167 57.5492L51.0877 60.2509Z" fill="#88C2D2" stroke="black" stroke-width="0.25"/>
<path d="M49.2314 64.4508C49.2941 64.5636 49.3186 64.7001 49.296 64.8208L48.4383 67.6366C48.3352 67.8883 48.0901 68.0295 47.8537 67.9881C47.6036 67.8829 47.4648 67.637 47.509 67.4013L48.3666 64.5854C48.4713 64.3298 48.7227 64.1881 48.9624 64.236C49.0721 64.2579 49.1678 64.3364 49.2314 64.4508Z" fill="#88C2D2" stroke="black" stroke-width="0.25"/>
<path d="M58.8805 73.3125L58.9718 73.3766L59.0457 73.2932C61.4268 70.6091 64.6616 68.7189 68.3841 68.1091L68.509 68.0887L68.487 67.964C68.3041 66.9286 68.2429 65.8914 68.2429 64.7896C68.2429 52.812 77.9673 43.1564 89.8939 43.1564C101.881 43.1564 111.545 52.8731 111.545 64.7896C111.545 66.5606 111.3 68.2722 110.933 69.9255L110.89 70.1189L111.083 70.0744C112.67 69.7085 114.382 69.5859 116.099 69.5859C128.043 69.5859 137.682 79.4768 137.75 91.2171H24.9372C25.0045 79.355 34.6436 69.5244 46.5879 69.5244C51.1766 69.5244 55.3958 70.8692 58.8805 73.3125Z" fill="#88C2D2" stroke="black" stroke-width="0.25"/>
<path d="M94.3523 126.521L94.4261 126.604L94.5173 126.541C96.5256 125.142 99.0225 124.35 101.705 124.35C108.666 124.35 114.306 130.123 114.374 137.008H48.0053C48.0735 130.124 53.7742 124.35 60.7361 124.35C61.7241 124.35 62.7527 124.351 63.6566 124.592L63.8616 124.647L63.8101 124.441C63.5665 123.467 63.4447 122.494 63.4447 121.459C63.4447 114.399 69.1706 108.739 76.1762 108.739C83.2425 108.739 88.9076 114.46 88.9076 121.459C88.9076 122.128 88.8468 122.737 88.7853 123.352L88.7736 123.469L88.8891 123.488C91.0743 123.852 92.9558 124.944 94.3523 126.521Z" fill="#3B6880" stroke="black" stroke-width="0.25"/>
<path d="M107.356 131.397L107.447 131.459L107.519 131.376C109.285 129.369 111.72 127.97 114.46 127.483L114.58 127.462L114.562 127.341C114.44 126.548 114.379 125.756 114.379 124.963C114.379 115.997 121.643 108.739 130.616 108.739C139.59 108.739 146.854 115.997 146.854 124.963C146.854 126.304 146.671 127.584 146.366 128.805L146.315 129.007L146.517 128.956C147.733 128.653 148.951 128.591 150.239 128.591C159.17 128.591 166.409 135.963 166.477 144.752H81.8994C81.9675 135.963 89.2066 128.591 98.1368 128.591C101.556 128.591 104.731 129.628 107.356 131.397Z" fill="#88C2D2" stroke="black" stroke-width="0.25"/>
<path d="M93.0909 64.2598L141.955 21.9208L141.955 21.9208L141.958 21.9185C142.667 21.2693 143.731 20.9748 144.673 21.21C145.623 21.4473 146.448 22.0982 146.801 23.0381L146.801 23.04L153.199 39.2665L153.225 39.3332L153.296 39.3442L163.926 40.9829L160.91 53.2799L158.745 52.9876L158.486 52.9526L158.621 53.1762L164.76 63.3171L150.957 69.1494L93.0909 64.2598Z" fill="#85ADC2" stroke="black" stroke-width="0.25"/>
<path d="M92.2245 63.8212L92.225 63.821L92.2203 63.8117C92.1219 63.6152 92.1745 63.3137 92.368 63.1687L92.3684 63.1691L92.3773 63.161L144.726 15.465L144.726 15.4647C145.435 14.8156 146.499 14.5211 147.441 14.7563C148.391 14.9936 149.216 15.6445 149.569 16.5843L149.569 16.5862L166.424 59.3632C166.424 59.3635 166.424 59.3638 166.424 59.3641C166.779 60.3098 166.66 61.313 166.128 62.1405C165.6 62.9617 164.657 63.4353 163.65 63.4353L163.648 63.4353L92.784 64.1114L92.7551 64.1117L92.7293 64.1246C92.6512 64.1636 92.5572 64.158 92.4619 64.1044C92.3658 64.0504 92.2764 63.9506 92.2245 63.8212Z" fill="white" stroke="black" stroke-width="0.25"/>
<path d="M109.738 57.2299L109.731 57.2314L109.723 57.2338C109.656 57.2564 109.597 57.254 109.546 57.2309C109.494 57.2073 109.435 57.1552 109.383 57.0506C109.372 57.0285 109.366 56.9738 109.388 56.9111C109.41 56.8517 109.448 56.8104 109.495 56.7949L109.504 56.7919L109.512 56.7875L155.997 32.9811L163.87 40.9081L161.408 46.6098L109.738 57.2299Z" fill="#D1E1EF" stroke="black" stroke-width="0.25"/>
</svg>
