<svg width="127" height="293" viewBox="0 0 127 293" fill="none" xmlns="http://www.w3.org/2000/svg">
<g filter="url(#filter0_d)">
<path d="M11.8338 3.19358C24.8133 6.02093 37.4853 11.86 48.927 18.3137C74.3939 32.6963 95.4932 54.1472 107.55 80.9456C115.731 99.1389 119.484 119.053 119.853 138.906C120.222 158.882 117.515 179.104 110.195 197.789C99.4917 225.14 78.8229 246.96 53.1099 260.789C39.6383 268.042 24.7518 273.574 9.61931 276.094C9.37326 276.155 8.32753 276.278 9.25024 276.155C7.3433 276.401 7.28178 279.474 9.25024 279.228C22.3528 277.507 35.3323 272.775 47.2045 267.243C72.856 255.258 94.8166 235.773 107.858 210.45C116.593 193.548 121.145 174.863 122.498 155.932C124.036 134.849 122.129 113.276 115.547 93.1154C105.766 63.121 85.4049 38.0437 59.0768 20.8338C49.8497 14.8103 40.0073 9.83169 29.796 5.77507C24.5057 3.68529 18.9695 1.53405 13.4332 0.366233C13.1871 0.304769 12.9411 0.243303 12.695 0.181839C10.7266 -0.186945 9.86536 2.76333 11.8338 3.19358Z" fill="#5392A8"/>
<path d="M22.1068 281.871C16.9396 280.273 11.711 278.614 6.54387 277.016C6.78992 277.876 6.97445 278.737 7.2205 279.597C11.0343 275.971 14.8482 272.344 18.7235 268.657C20.1383 267.304 17.9854 265.092 16.5705 266.505C12.7567 270.132 8.94288 273.758 5.06752 277.446C4.20633 278.245 4.69843 279.659 5.74416 280.027C10.9113 281.626 16.14 283.285 21.3071 284.883C23.1526 285.375 23.9522 282.425 22.1068 281.871Z" fill="#5392A8"/>
</g>
<defs>
<filter id="filter0_d" x="0.626221" y="0.150024" width="126.374" height="292.788" filterUnits="userSpaceOnUse" color-interpolation-filters="sRGB">
<feFlood flood-opacity="0" result="BackgroundImageFix"/>
<feColorMatrix in="SourceAlpha" type="matrix" values="0 0 0 0 0 0 0 0 0 0 0 0 0 0 0 0 0 0 127 0"/>
<feOffset dy="4"/>
<feGaussianBlur stdDeviation="2"/>
<feColorMatrix type="matrix" values="0 0 0 0 0 0 0 0 0 0 0 0 0 0 0 0 0 0 0.25 0"/>
<feBlend mode="normal" in2="BackgroundImageFix" result="effect1_dropShadow"/>
<feBlend mode="normal" in="SourceGraphic" in2="effect1_dropShadow" result="shape"/>
</filter>
</defs>
</svg>
