<svg width="337" height="338" viewBox="0 0 337 338" fill="none" xmlns="http://www.w3.org/2000/svg">
<path d="M168.017 336.65C260.509 336.65 335.704 261.671 335.97 169.18C336.235 76.6884 261.471 1.70923 168.979 1.70923C76.4873 1.70923 1.29255 76.6884 1.02701 169.18C0.761463 261.671 75.5256 336.65 168.017 336.65Z" fill="#5892DC" stroke="black" stroke-width="2" stroke-miterlimit="10"/>
<path d="M188.936 253.18C188.37 253.89 188.653 254.315 188.087 255.025C187.663 255.592 187.38 255.45 186.955 256.16C186.672 256.585 186.531 256.869 186.248 257.295C185.824 258.004 185.541 258.43 184.833 259.139C184.126 259.849 183.56 260.416 182.286 261.552C181.721 261.977 181.438 262.261 181.296 262.403C180.164 262.97 179.457 262.545 178.466 262.829C177.476 263.254 176.91 264.106 176.627 264.531C176.061 265.383 176.061 266.234 175.92 267.937C175.778 269.781 176.061 269.923 175.92 271.342C175.778 272.193 175.778 273.186 175.212 274.322C174.363 276.166 173.515 276.308 173.373 277.727C173.373 278.153 173.373 278.294 173.515 279.571C173.515 280.281 173.515 280.565 173.515 280.99C173.373 281.984 173.232 282.125 173.373 282.693C173.515 283.261 173.797 283.686 173.939 283.828C174.646 284.679 175.495 284.963 175.92 285.105C176.486 285.389 178.183 285.956 179.457 285.105C180.164 284.679 180.023 284.254 181.296 281.7C182.145 279.997 182.145 280.139 182.852 278.578C183.843 276.45 183.701 276.308 184.267 274.889C184.833 273.754 184.975 273.754 186.672 271.058C188.087 268.788 188.936 267.653 188.936 267.085C189.219 265.099 187.946 263.964 188.795 262.545C189.078 262.119 189.502 261.552 189.927 261.693C190.351 261.835 190.351 262.545 190.634 262.545C191.058 262.545 191.341 261.268 191.341 261.268C191.624 260.275 191.483 259.565 191.483 258.288C191.341 255.734 191.2 256.727 191.058 254.173C190.917 253.038 190.917 252.471 190.634 252.329C189.785 252.187 189.219 252.754 188.936 253.18Z" fill="#B5E16C" stroke="black" stroke-width="0.25" stroke-miterlimit="10"/>
<path d="M94.8519 99.5139C94.5689 99.6558 94.2859 99.7977 94.1445 100.081C93.8615 100.791 94.7104 101.5 95.1348 101.926C95.7008 102.494 96.1252 102.777 96.9741 103.203C97.823 103.629 98.2475 103.771 98.6719 103.771C99.3793 103.629 99.6623 102.919 99.8038 102.777C100.087 102.21 99.8038 101.926 100.087 101.358C100.37 100.933 100.653 100.791 100.936 100.223C101.077 99.9395 101.219 99.6558 101.077 99.5139C100.936 99.2301 100.228 99.372 99.6623 99.5139C98.5304 99.7977 98.5304 99.9396 97.9645 100.081C97.2571 100.223 96.5497 99.9396 96.2667 99.7977C95.4178 99.6558 95.2763 99.372 94.8519 99.5139Z" fill="#B5E16C" stroke="black" stroke-width="0.25" stroke-miterlimit="10"/>
<path d="M90.3234 86.3183C90.0404 86.1764 89.1916 86.7439 88.6256 87.4534C88.2012 88.1628 88.2012 88.7304 88.2012 89.1561C88.2012 89.2979 88.2012 90.2912 88.4842 90.4331C88.6256 90.4331 88.9086 90.2912 89.333 89.8655C89.899 89.4398 90.0405 89.156 90.1819 88.8723C90.3234 88.5885 90.3234 88.3047 90.3234 87.7372C90.4649 86.8858 90.4649 86.4602 90.3234 86.3183Z" fill="#B5E16C" stroke="black" stroke-width="0.25" stroke-miterlimit="10"/>
<path d="M87.0687 91.4262C86.6442 91.8519 87.3516 92.5613 86.9272 93.4127C86.7857 93.8383 86.6442 93.6964 85.9368 94.4059C85.3709 94.9735 85.0879 95.3991 85.0879 95.8248C85.0879 96.5342 85.5123 97.3856 86.0783 97.5275C86.5027 97.5275 86.7857 97.3856 87.2101 96.9599C88.059 96.2505 88.342 95.3991 88.4835 95.1153C88.7664 94.264 88.4835 94.264 88.9079 92.987C89.0494 92.4194 89.1909 91.9938 89.0494 91.71C88.9079 91.4262 88.6249 91.2843 88.342 91.2843C88.342 91.2843 87.3516 91.0005 87.0687 91.4262Z" fill="#B5E16C" stroke="black" stroke-width="0.25" stroke-miterlimit="10"/>
<path d="M112.96 98.8045C112.677 98.8045 112.394 99.0883 112.536 99.5139C112.536 99.9396 113.102 100.082 113.385 99.9396C113.526 99.7977 113.668 99.6558 113.668 99.5139C113.526 99.0883 113.243 98.6626 112.96 98.8045Z" fill="#B5E16C" stroke="black" stroke-width="0.25" stroke-miterlimit="10"/>
<path d="M113.244 100.649C113.103 100.791 113.244 101.075 113.386 101.075C113.527 101.075 113.81 101.075 113.81 100.933C113.952 100.791 113.952 100.649 113.81 100.507C113.669 100.507 113.386 100.507 113.244 100.649Z" fill="#B5E16C" stroke="black" stroke-width="0.25" stroke-miterlimit="10"/>
<path d="M115.367 99.6558C115.225 99.6558 114.801 99.9396 114.801 100.365C114.801 100.649 115.225 100.791 115.225 101.217C115.367 101.642 114.942 101.926 115.084 102.21C115.225 102.494 115.508 102.635 115.933 102.777C116.499 103.061 116.64 102.919 116.923 103.061C117.63 103.487 117.347 104.764 118.055 104.906C118.479 105.048 118.904 104.764 119.045 104.48C119.187 104.338 119.045 104.054 118.904 103.771C118.338 102.494 117.913 102.21 118.055 101.926C118.196 101.642 118.621 101.358 119.045 101.5C119.47 101.5 119.753 101.926 119.753 101.926C119.894 101.926 119.753 101.5 119.611 101.217C119.328 100.791 119.045 100.507 118.196 100.081C117.206 99.6558 116.216 99.2301 115.367 99.6558Z" fill="#B5E16C" stroke="black" stroke-width="0.25" stroke-miterlimit="10"/>
<path d="M120.176 106.75C120.317 106.608 120.6 106.75 121.308 107.034C121.732 107.176 122.015 107.318 122.157 107.46C122.864 107.885 123.43 107.602 124.562 107.602C125.835 107.602 126.967 108.027 126.967 108.311C126.967 108.595 126.118 108.737 125.835 108.737C125.411 108.879 124.845 108.879 123.854 108.737C122.581 108.595 122.015 108.595 121.591 108.311C120.6 107.744 120.034 106.892 120.176 106.75Z" fill="#B5E16C" stroke="black" stroke-width="0.25" stroke-miterlimit="10"/>
<path d="M274.814 189.188C274.673 189.188 274.531 189.472 273.824 192.168C273.399 193.87 273.258 194.722 273.258 195.147C273.258 196.566 273.824 196.708 273.824 198.553C273.824 198.978 273.824 199.262 273.965 199.404C274.39 199.83 275.663 199.404 276.37 198.695C277.502 197.701 277.644 196.141 277.644 195.999C277.644 194.864 277.219 194.58 276.087 192.168C275.239 190.181 275.097 189.188 274.814 189.188Z" fill="#B5E16C" stroke="black" stroke-width="0.25" stroke-miterlimit="10"/>
<path d="M307.358 202.1C306.792 201.674 306.509 201.958 305.943 201.674C304.953 201.249 304.67 200.539 304.245 200.539C303.821 200.681 303.679 201.674 303.538 202.1C303.538 202.242 303.255 205.08 304.811 206.215C305.235 206.498 305.66 206.64 305.801 207.066C305.943 207.35 305.801 207.492 305.801 208.201C305.801 208.769 305.801 209.194 305.801 209.62C305.943 210.188 306.226 210.329 306.792 211.323C307.075 211.748 307.216 212.174 307.358 212.6C307.641 213.877 307.075 214.444 306.933 215.721C306.933 216.856 307.358 216.856 307.782 218.701C308.065 220.404 307.924 221.964 307.782 223.241C307.499 224.944 307.358 225.086 307.499 226.079C307.641 227.356 308.065 227.498 307.924 228.491C307.782 229.626 307.216 229.91 307.216 230.903C307.216 231.471 307.499 231.471 307.924 232.748C308.348 234.025 308.207 234.451 308.631 234.593C309.338 235.018 310.47 233.883 310.612 233.741C311.744 232.748 311.744 231.897 312.734 228.917C313.441 226.931 314.149 225.654 313.724 225.37C313.3 225.086 312.451 225.795 312.168 225.37C312.027 225.086 312.31 224.802 312.451 223.667C312.734 222.674 312.876 221.822 312.593 221.255C312.31 220.829 312.027 220.971 311.885 220.545C311.602 219.978 311.885 219.268 311.885 218.843C312.31 217.566 313.3 217.424 313.159 216.714C313.159 216.147 312.451 216.147 312.027 215.154C311.744 214.586 311.744 213.877 311.602 212.6C311.602 212.174 311.602 211.89 311.461 211.606C311.178 211.039 310.895 211.181 310.47 210.613C310.187 210.188 310.046 209.762 309.904 208.769C309.763 208.059 309.904 208.059 309.763 207.634C309.48 206.073 308.348 206.073 308.207 204.654C308.065 203.803 308.49 203.519 308.065 202.809C308.065 202.809 307.782 202.384 307.358 202.1Z" fill="#B5E16C" stroke="black" stroke-width="0.25" stroke-miterlimit="10"/>
<path d="M304.243 213.735C303.677 214.019 303.819 215.721 304.385 215.863C304.809 216.005 305.375 215.579 305.658 215.012C305.658 214.87 305.799 214.728 305.658 214.444C305.516 213.877 304.668 213.451 304.243 213.735Z" fill="#B5E16C" stroke="black" stroke-width="0.25" stroke-miterlimit="10"/>
<path d="M305.235 220.829C305.376 220.829 305.659 221.397 305.659 221.681C305.659 221.823 305.801 222.248 305.518 222.532C305.376 222.674 305.093 222.532 304.81 222.39C304.527 221.964 304.952 220.829 305.235 220.829Z" fill="#B5E16C" stroke="black" stroke-width="0.25" stroke-miterlimit="10"/>
<path d="M305.233 217.708C304.95 217.708 304.525 218.133 304.667 218.559C304.808 218.985 305.516 219.127 305.799 218.843C306.082 218.559 305.657 217.85 305.233 217.708Z" fill="#B5E16C" stroke="black" stroke-width="0.25" stroke-miterlimit="10"/>
<path d="M303.538 208.769C303.255 208.769 303.113 209.336 303.255 209.62C303.396 210.329 304.387 210.897 304.67 210.755C304.953 210.613 304.528 209.904 304.387 209.478C304.104 209.336 303.821 208.769 303.538 208.769Z" fill="#B5E16C" stroke="black" stroke-width="0.25" stroke-miterlimit="10"/>
<path d="M305.515 226.363C305.232 226.363 305.232 228.633 305.515 228.775C305.656 228.775 305.939 228.208 305.939 227.782C306.081 226.931 305.798 226.221 305.515 226.363Z" fill="#B5E16C" stroke="black" stroke-width="0.25" stroke-miterlimit="10"/>
<path d="M309.196 236.579C308.63 236.579 308.064 237.288 308.206 237.856C308.206 238.14 308.489 238.14 308.489 238.565C308.63 239.275 308.347 239.417 308.489 239.984C308.63 240.694 309.762 241.119 310.469 240.978C310.894 240.836 311.035 240.694 311.318 240.836C311.743 240.978 311.601 241.687 312.167 242.255C312.45 242.538 312.874 242.68 313.157 242.822C313.865 243.106 314.289 242.964 314.572 243.248C314.714 243.532 314.572 243.673 314.855 243.957C314.997 244.099 315.28 244.099 315.563 244.099C315.987 243.957 316.27 243.248 316.129 242.822C315.987 242.255 315.138 242.396 314.431 241.687C314.148 241.403 313.865 241.119 314.006 240.694C314.148 239.984 315.563 239.984 315.846 238.849C315.846 238.707 315.987 238.424 315.846 238.14C315.563 237.288 313.723 237.005 312.733 237.572C312.026 237.998 311.884 238.707 311.46 238.707C311.177 238.707 311.177 238.282 310.752 237.572C310.328 237.147 309.762 236.437 309.196 236.579Z" fill="#B5E16C" stroke="black" stroke-width="0.25" stroke-miterlimit="10"/>
<path d="M329.851 196.708C329.71 196.708 329.71 196.708 328.861 198.978C328.012 201.674 328.012 201.816 327.729 202.1C327.163 202.809 326.456 203.093 326.456 203.944C326.456 204.37 326.597 204.512 326.456 204.796C326.314 205.505 325.607 205.931 325.182 206.215C324.334 206.782 324.617 207.35 323.06 211.181C322.353 213.025 322.07 213.593 321.787 213.593C321.362 213.593 321.504 212.032 321.079 212.032C320.655 212.032 320.089 213.735 319.665 215.296C318.957 217.992 319.382 218.133 318.816 220.829C318.391 222.674 317.967 223.809 318.25 225.37C318.391 225.937 318.533 226.647 318.674 227.214C318.957 228.349 319.24 228.917 319.523 229.059C320.089 229.343 321.079 228.633 321.645 227.924C322.919 226.363 322.211 225.228 323.343 222.674C324.192 220.687 324.758 221.113 325.182 219.552C325.607 217.85 325.041 216.715 326.031 215.438C326.456 214.87 326.739 215.012 327.163 214.444C328.719 212.883 327.163 210.897 327.871 206.64C328.012 205.789 328.295 204.228 329.144 202.384C329.568 201.674 329.71 201.532 329.851 200.965C330.842 198.978 330.276 196.708 329.851 196.708Z" fill="#B5E16C" stroke="black" stroke-width="0.25" stroke-miterlimit="10"/>
<path d="M324.05 154.283C323.485 154.283 323.06 155.56 322.919 155.844C322.919 155.986 322.211 158.114 323.202 158.966C323.202 158.966 323.767 159.391 324.333 159.249C325.182 158.966 325.182 157.547 325.182 157.263C325.324 155.844 324.758 154.283 324.05 154.283Z" fill="#B5E16C" stroke="black" stroke-width="0.25" stroke-miterlimit="10"/>
<path d="M166.299 28.5692C166.299 28.2854 166.44 28.1435 167.431 26.5828C168.987 24.1707 168.846 24.1707 169.128 23.8869C170.402 22.8937 171.251 23.8869 173.797 23.0355C175.354 22.468 175.92 21.9004 177.617 21.7585C178.325 21.7585 179.315 21.7586 179.457 22.0423C179.457 22.3261 178.183 22.7518 176.769 23.3193C175.212 23.8869 174.929 23.8869 173.656 24.3125C172.241 24.8801 171.675 25.3058 171.251 25.5896C170.685 26.1571 169.977 26.7247 170.119 27.4341C170.119 28.1435 170.968 28.7111 171.251 28.853C172.1 29.4205 172.807 29.4205 172.666 29.5624C172.666 29.7043 171.958 29.8462 171.251 29.8462C169.411 30.2719 166.44 29.8462 166.299 28.5692Z" fill="#B5E16C" stroke="black" stroke-width="0.25" stroke-miterlimit="10"/>
<path d="M163.047 31.1232C163.33 30.5557 164.887 30.2719 165.311 30.9813C165.594 31.2651 165.594 31.6908 165.452 32.1165C165.17 32.684 164.321 32.8259 163.755 32.5421C163.33 32.2583 162.906 31.5489 163.047 31.1232Z" fill="#B5E16C" stroke="black" stroke-width="0.25" stroke-miterlimit="10"/>
<path d="M192.755 17.36C192.33 17.6438 191.906 18.2113 192.047 18.4951C192.189 19.0627 193.179 19.2045 195.16 19.3464C196.999 19.6302 197.99 19.4883 199.404 19.4883C200.678 19.4883 200.819 19.3464 200.819 19.3464C200.819 19.2045 199.829 18.9208 198.131 18.3532C194.594 17.36 193.604 16.7924 192.755 17.36Z" fill="#B5E16C" stroke="black" stroke-width="0.25" stroke-miterlimit="10"/>
<path d="M202.235 20.3397C202.518 20.9072 203.933 20.9072 204.357 20.3397C204.499 20.0559 204.357 19.7721 204.357 19.7721C204.074 19.2045 203.084 18.9208 202.518 19.4883C202.235 19.6302 202.094 20.0559 202.235 20.3397Z" fill="#B5E16C" stroke="black" stroke-width="0.25" stroke-miterlimit="10"/>
<path d="M156.821 19.0628C157.104 19.9141 160.5 19.6303 161.631 19.4884C164.037 19.2046 163.895 18.9209 165.451 18.9209C167.432 18.9209 167.857 19.4884 169.979 19.3465C170.969 19.3465 172.526 19.0628 172.526 18.779C172.526 18.4952 170.969 18.0695 169.696 17.9277C168.281 17.7858 167.715 17.9276 165.027 18.2114C163.046 18.3533 162.056 18.4952 161.49 18.3533C159.651 18.0695 158.802 17.2182 157.67 17.7858C157.245 18.0695 156.68 18.779 156.821 19.0628Z" fill="#B5E16C" stroke="black" stroke-width="0.25" stroke-miterlimit="10"/>
<path d="M71.5042 69.2915C71.6457 69.5753 72.9191 69.0077 77.8709 67.7307C79.8517 67.1631 80.5591 67.0212 81.5495 66.3118C82.5399 65.6024 82.5399 65.1767 83.8132 64.4672C85.0866 63.6159 85.794 63.6159 85.9355 63.0483C86.0769 62.3389 85.228 62.197 84.8036 60.92C84.6621 60.4943 84.6621 60.2106 84.9451 57.5147C85.0866 55.812 85.0865 55.812 85.0865 55.6701C85.794 53.5418 87.9162 52.8323 87.6332 52.2648C87.4918 51.6972 85.6525 52.1229 85.511 51.4134C85.3695 50.9878 86.0769 50.4202 85.9355 50.2783C85.6525 49.9945 82.9643 52.2648 82.8228 52.1229C82.6814 51.981 83.5302 51.1296 83.3888 50.9877C83.2473 50.8459 81.2665 52.4066 80.2761 53.258C78.7198 54.535 78.7198 54.8188 78.7198 55.1025C78.7198 56.0958 80.2761 56.3795 80.8421 58.0822C80.9836 58.366 81.2665 59.3592 80.7006 60.0687C80.2762 60.6362 79.8517 60.3525 78.5784 61.0619C78.0124 61.3457 77.588 61.6295 77.4465 62.0551C77.1635 62.7646 77.588 63.1902 77.305 63.474C76.8806 64.0416 76.0317 63.474 74.8998 64.0416C74.7583 64.1835 74.0509 64.4672 74.0509 64.8929C74.1924 65.6024 76.3146 65.7442 76.3146 66.1699C76.3146 66.5956 75.0413 66.7375 73.485 67.5888C72.4946 68.0145 71.3627 69.0077 71.5042 69.2915Z" fill="#B5E16C" stroke="black" stroke-width="0.25" stroke-miterlimit="10"/>
<path d="M68.6731 65.6024C68.3902 65.4605 68.5317 64.7511 68.6731 64.3254C68.9561 63.4741 69.6635 62.6228 70.6539 62.4809C71.0783 62.339 71.3613 62.4809 71.5028 62.1971C71.7858 61.7714 70.7954 61.2039 70.9368 60.6363C71.0783 60.2106 71.6443 60.0688 72.7761 59.6431C73.7665 59.3593 74.0495 59.3593 74.6154 58.9336C74.8984 58.7917 75.1813 58.6499 75.6058 58.2242C77.1621 57.231 77.445 56.9472 77.728 57.0891C78.011 57.231 78.4354 57.6566 78.2939 58.0823C78.1524 58.7917 76.8791 58.6499 76.1717 59.9269C75.8887 60.4944 75.8887 60.7782 75.4643 61.6295C75.3228 61.7714 75.1813 62.0552 74.7569 62.4809C74.6154 62.6228 73.908 63.1903 72.4932 63.8998C71.2198 64.4673 71.2198 64.1835 70.2294 64.7511C69.3805 65.0349 68.9561 65.7443 68.6731 65.6024Z" fill="#B5E16C" stroke="black" stroke-width="0.25" stroke-miterlimit="10"/>
<path d="M78.8617 39.6366C78.7202 40.346 78.1543 40.6298 78.1543 40.7717C78.2958 41.1974 80.1351 41.3393 82.1158 41.0555C83.6721 40.7717 86.0773 40.3461 87.4921 38.3596C87.6336 38.0758 88.4825 37.0826 88.0581 36.515C87.7751 36.0894 86.9262 36.0894 85.9358 36.0894C85.3699 36.0894 84.6625 36.0894 83.6721 36.515C82.5402 37.0826 81.9743 37.792 81.6914 37.5083C81.2669 37.2245 81.8328 36.2313 81.4084 35.9475C80.984 35.6637 79.8521 36.3732 79.2862 37.0826C79.1447 37.2245 78.7202 37.6502 78.5787 38.3596C78.8617 39.0691 79.0032 39.2109 78.8617 39.6366Z" fill="#B5E16C" stroke="black" stroke-width="0.25" stroke-miterlimit="10"/>
<path d="M233.502 23.3194C233.361 23.7451 235.625 25.8734 238.171 25.7315C239.728 25.5896 240.294 24.5964 242.84 24.3126C243.972 24.1707 244.68 24.3126 244.68 24.1707C244.68 24.0288 242.557 23.6032 240.718 23.4613C239.586 23.3194 239.728 23.4613 236.191 23.1775C233.785 23.1775 233.502 23.0356 233.502 23.3194Z" fill="#B5E16C" stroke="black" stroke-width="0.25" stroke-miterlimit="10"/>
<path d="M80.9836 27.0085C74.3339 32.2584 74.4754 32.1165 74.1924 32.2584C67.6842 37.3664 66.6938 37.3664 63.0153 40.6299C60.6101 42.7582 56.9315 46.4473 57.356 47.0149C57.9219 47.7243 63.8642 42.6163 74.6168 37.6502C76.5976 36.7989 75.7487 37.2245 83.6717 33.8192C91.7362 30.4138 93.717 29.4206 95.8392 28.1436C101.074 25.1639 100.084 24.8802 103.055 23.745C106.592 22.3262 109.563 22.0424 113.666 19.3465C116.071 17.7857 115.93 17.2181 115.93 17.0763C115.505 15.3736 107.158 16.083 105.743 16.2249C103.479 16.3668 100.508 16.6506 96.9711 17.9276C95.6977 18.3533 94.5659 18.7789 93.5755 19.2046C90.6044 20.6235 87.6332 22.3261 84.8036 23.8869C83.5302 24.8802 82.2569 25.8734 80.9836 27.0085Z" fill="#B5E16C" stroke="black" stroke-width="0.25" stroke-miterlimit="10"/>
<path d="M304.951 266.234C304.668 266.518 304.244 266.943 303.961 267.227C301.131 269.923 298.301 271.768 296.886 272.761C292.642 275.599 291.369 275.599 288.822 277.869C286.558 279.855 286.275 280.848 283.304 284.821C282.738 285.531 278.777 290.781 274.815 294.754C268.448 300.997 262.931 303.125 263.214 303.693C263.355 304.118 267.034 303.125 272.268 300.855C284.577 291.065 295.613 279.288 304.951 266.234Z" fill="#B5E16C" stroke="black" stroke-width="0.25" stroke-miterlimit="10"/>
<path d="M328.014 140.804C328.014 140.804 327.448 137.966 327.59 136.405C327.731 134.702 329.005 131.155 326.458 125.054C324.053 118.953 322.496 117.25 322.213 114.838C321.93 112.426 321.082 113.703 318.535 109.162C315.988 104.622 316.978 104.622 317.261 102.919C317.544 101.217 316.696 102.21 315.847 101.5C314.998 100.649 314.856 100.791 314.856 101.217C314.856 101.642 314.29 102.068 314.007 101.926C313.724 101.784 312.876 99.6558 312.876 99.6558C312.876 99.6558 312.876 99.6558 311.744 98.5207C310.612 97.3856 310.187 97.6693 310.753 96.6761C311.319 95.6829 310.895 96.1086 310.753 95.1153C310.612 94.1221 310.187 93.1289 310.187 92.2776C310.187 91.4262 311.319 93.6965 311.885 94.4059C312.451 95.2572 312.734 95.8248 313.724 97.5275C314.007 97.9531 313.441 94.6897 313.441 94.6897C313.441 94.6897 313.441 94.6897 314.29 94.9735C315.139 95.2572 314.998 96.818 315.705 98.095C316.554 99.2301 316.554 99.9396 317.403 100.507C318.252 101.075 317.827 100.649 317.827 100.081C317.827 99.5139 317.827 98.6626 316.979 97.2437C316.13 95.8248 315.988 95.6829 314.573 92.2776C313.158 88.8722 314.432 89.156 310.612 82.9129C306.792 76.6697 300.991 68.4402 297.029 64.6092C293.068 60.7781 293.351 61.4876 291.229 59.3592C289.106 57.2309 285.145 53.8256 282.598 51.1297C280.052 48.4338 280.193 48.8594 281.466 49.2851C282.74 49.7108 285.711 50.1364 279.627 46.0216C273.543 41.9069 261.942 32.6841 261.659 32.1165C261.376 31.5489 260.527 32.1165 259.678 31.2652C258.688 30.5557 256.848 29.8463 255.292 29.5625C253.736 29.2787 251.189 27.8598 251.048 27.7179C250.906 27.576 248.925 27.4341 244.398 27.576C240.012 27.8598 245.388 28.1436 246.662 28.5693C247.935 28.9949 246.945 29.5625 245.671 29.5625C244.398 29.5625 243.266 28.853 242.276 28.5693C241.144 28.2855 238.031 27.7179 238.031 27.7179C238.031 27.7179 234.777 26.7247 233.504 26.299C232.089 25.8734 232.089 26.1572 231.523 26.299C230.957 26.4409 231.806 26.8666 231.523 26.8666C231.24 27.0085 230.391 26.7247 229.542 26.7247C228.693 26.7247 229.825 26.1571 229.542 26.1571C229.259 26.1571 226.288 26.1571 224.166 26.0153C222.044 25.8734 222.327 25.5896 221.195 24.7383C220.063 23.8869 220.204 25.1639 220.629 25.7315C221.053 26.299 220.912 26.5828 218.79 26.5828C216.667 26.5828 217.941 26.4409 218.224 26.1571C218.507 25.8734 218.79 25.7315 219.073 24.7383C219.356 23.745 218.507 23.4613 218.224 23.4613C217.941 23.3194 217.516 23.1775 216.243 23.0356C214.97 22.8937 213.413 22.7518 211.998 22.7518C210.584 22.7518 208.461 21.6167 206.905 21.6167C205.207 21.4748 206.481 21.9005 206.481 22.0424C206.481 22.1843 206.339 22.3261 203.793 23.3194C201.246 24.3126 202.802 23.1775 201.529 23.3194C200.255 23.4612 198.275 24.0288 198.275 24.0288C198.275 24.0288 198.982 25.1639 199.972 25.7315C200.963 26.4409 199.407 26.0153 197.992 26.0153C196.577 26.0153 196.86 26.0153 195.021 26.5828C193.323 27.1504 197.143 27.0085 199.124 28.4274C201.104 29.7044 197.709 28.7112 195.728 27.7179C193.747 26.7247 193.464 27.4342 193.464 27.4342L192.049 28.0017L194.596 29.1368L194.738 29.9882L192.615 29.2787C192.615 29.2787 191.625 28.853 190.069 28.0017C188.512 27.1504 191.201 29.4206 191.201 29.4206L192.615 31.1233L194.172 31.9746L196.011 32.1165L199.124 33.1097L201.246 35.2381C201.246 35.2381 198.699 34.3867 197.709 33.8192C196.718 33.2516 196.435 33.1097 196.011 33.1097C195.587 33.1097 195.304 33.3935 195.445 33.8192C195.445 34.2448 196.011 34.8124 196.011 35.3799C196.152 36.0894 195.021 36.3732 195.021 36.3732H193.04C193.04 36.3732 192.191 35.6637 192.474 35.2381C192.757 34.8124 193.889 34.5286 193.889 34.5286C193.889 34.5286 194.03 34.103 193.747 32.9678C193.464 31.6908 193.464 32.6841 191.342 31.2652C189.361 29.9882 189.361 29.5625 189.361 29.5625C189.361 29.5625 189.361 29.5625 188.229 28.1436C187.098 26.7247 187.239 27.8598 184.975 26.8666C182.712 25.8734 183.985 27.0085 183.702 28.0017C183.56 29.1368 182.712 29.1368 183.561 30.13C184.409 31.1233 183.702 30.6976 184.126 30.9814C184.551 31.2652 185.966 31.5489 187.522 32.1165C189.078 32.6841 187.663 32.9678 187.239 32.9678C186.956 33.1097 183.419 31.8327 183.419 31.8327C183.419 31.8327 181.155 30.9814 179.175 30.6976C177.194 30.4138 178.609 30.5557 176.628 30.4138C174.647 30.2719 175.779 30.2719 174.223 29.9882C172.808 29.8463 174.506 30.6976 175.496 30.9814C176.486 31.2652 177.901 31.4071 177.901 31.4071L178.043 32.2584C178.043 32.2584 178.043 32.2584 176.769 33.1097C175.496 33.9611 175.92 33.1097 175.496 31.9746C175.072 30.8395 173.515 32.9678 173.515 32.9678C173.515 32.9678 173.232 32.9678 171.11 33.2516C168.988 33.5354 170.403 33.1097 170.12 32.2584C169.837 31.2652 169.837 32.1165 169.412 32.4003C168.988 32.6841 168.28 32.6841 167.007 32.6841C165.734 32.826 166.724 32.6841 164.46 33.6773C162.197 34.6705 163.753 34.6705 163.753 34.6705C163.753 34.6705 163.611 34.9543 163.187 35.5218C162.763 36.0894 162.197 35.6637 159.791 35.0962C157.386 34.5286 160.216 34.5286 160.216 34.5286C160.216 34.5286 161.065 33.9611 161.348 33.2516C161.631 32.5422 158.801 32.9678 158.801 32.9678L157.245 33.8192C157.245 33.8192 157.669 35.2381 157.811 35.9475C157.952 36.657 157.952 37.0826 155.971 36.0894C153.991 35.0962 154.557 36.5151 154.132 36.7988C153.849 37.0826 152.859 37.5083 152.576 37.934C152.293 38.3596 153.566 39.6366 153.566 39.6366C153.566 39.6366 152.434 39.7785 151.444 39.6366C150.454 39.4947 150.454 38.7853 149.039 38.3596C147.624 37.7921 148.048 38.6434 148.331 39.0691C148.614 39.4947 149.605 39.9204 150.171 40.2042C150.595 40.488 149.888 40.6299 148.756 40.6299C147.624 40.6299 147.765 40.3461 147.058 40.0623C146.351 39.7785 146.068 39.6366 145.926 39.211C145.785 38.7853 145.36 38.7853 145.36 37.934C145.36 37.0826 145.785 37.6502 145.077 36.7988C144.37 35.9475 144.228 36.3732 143.096 35.9475C141.965 35.6637 142.672 35.5218 143.096 34.9543C143.521 34.5286 145.219 36.0894 146.492 36.3732C147.765 36.657 148.19 36.657 149.18 36.657C150.171 36.657 150.454 36.657 151.727 36.5151C153 36.3732 152.859 36.3732 153.566 35.6637C154.415 34.9543 153.991 35.0962 153.991 34.8124C154.132 34.6705 153 33.6773 153 33.6773C153 33.6773 151.161 32.8259 149.888 32.5422C148.756 32.2584 147.482 31.4071 145.785 31.4071C144.087 31.2652 144.511 31.1233 143.379 30.9814C142.248 30.8395 142.672 30.8395 141.965 30.4138C141.257 29.9882 141.965 29.8463 141.54 29.5625C140.974 29.2787 139.418 29.9882 139.701 29.1368C139.984 28.2855 138.994 29.4206 138.711 29.4206C138.286 29.4206 137.862 28.853 136.588 28.853C135.315 28.7112 136.022 28.9949 135.173 29.1368C134.325 29.2787 133.617 29.4206 133.051 29.7044C132.485 29.9882 132.061 30.1301 131.353 29.9882C130.646 29.8463 130.646 31.1233 129.797 30.9814C128.948 30.8395 129.656 30.5557 129.09 30.2719C128.524 29.9882 128.382 30.2719 128.241 30.2719C128.099 30.2719 127.675 31.2652 126.967 31.2652C126.26 31.4071 126.826 31.1233 126.119 31.2652C125.411 31.4071 125.977 31.5489 125.553 31.9746C125.128 32.2584 124.845 31.9746 124.704 31.8327C124.562 31.6908 123.855 31.6908 123.572 31.8327C123.289 31.9746 122.582 31.9746 122.157 32.1165C121.591 32.2584 121.45 32.4003 119.186 33.2516C116.922 34.1029 119.469 33.5354 120.176 33.3935C120.884 33.1097 121.591 33.1097 121.591 33.1097C121.591 33.1097 123.713 32.5422 124.138 32.5422C124.562 32.5422 123.855 32.9678 123.147 33.2516C122.44 33.5354 122.864 33.3935 122.157 33.8192C121.308 34.2448 122.157 33.8192 121.025 34.3867C119.893 34.9543 119.186 35.5218 117.63 36.7988C116.073 38.2177 116.356 37.5083 115.932 37.934C115.507 38.3596 113.951 38.7853 111.97 40.0623C109.99 41.3393 112.536 39.9204 113.385 39.9204C114.234 39.9204 111.404 40.6299 111.687 40.9136C111.97 41.1974 110.98 41.3393 110.838 40.6299C110.697 39.7785 110.273 40.9136 109.848 40.488C109.424 40.0623 108.999 40.9136 108.999 41.3393C108.999 41.765 108.292 41.1974 107.584 41.765C106.877 42.1906 106.735 41.9069 106.594 42.6163C106.311 43.1839 105.462 42.3325 105.462 43.042C105.462 43.7514 104.047 43.4676 104.047 43.4676C104.047 43.4676 102.915 44.0352 102.491 44.4609C101.925 44.7446 102.067 45.8798 102.067 45.8798C102.067 45.8798 101.642 46.4473 100.935 46.5892C100.227 46.873 100.793 46.873 101.218 47.1568C101.642 47.4405 101.501 47.4405 101.501 47.7243C101.501 48.0081 100.935 48.0081 100.227 48.0081C99.5199 48.15 99.9443 48.5757 100.652 48.7175C101.359 48.8594 101.076 48.8594 100.793 49.2851C100.51 49.7108 100.369 49.427 99.8028 49.9946C99.2369 50.5621 100.652 50.8459 100.652 50.8459C100.652 50.8459 101.359 51.4134 102.915 51.5553C104.472 51.5553 104.33 50.5621 104.896 49.9946C105.462 49.2851 105.887 49.7108 106.594 49.5689C107.301 49.427 107.16 49.0013 107.584 48.4338C108.009 47.8662 107.867 48.8594 108.292 49.427C108.575 49.8527 108.433 49.7108 108.15 50.4202C107.867 50.9878 107.867 51.1297 107.867 51.6972C107.867 52.2648 108.009 52.5486 108.15 53.5418C108.292 54.535 108.433 54.3931 108.292 54.8188C108.292 55.2445 107.867 55.1026 107.301 55.1026C106.735 55.1026 107.301 55.812 107.301 57.089C107.301 58.366 108.009 57.089 109.141 57.089C110.273 57.089 109.707 57.089 110.131 56.6633C110.556 56.2377 110.131 56.3796 110.273 55.6701C110.414 54.8188 111.687 55.812 111.687 55.812C111.687 55.812 112.819 55.812 113.951 55.812C115.083 55.812 114.941 54.3931 114.941 53.8256C114.941 53.258 115.507 52.9742 115.79 52.1229C116.073 51.2716 116.073 51.8391 116.498 51.1297C117.064 50.4202 116.781 50.9878 117.064 50.8459C117.488 50.704 118.054 49.9946 118.479 49.8527C118.762 49.7108 118.762 49.7108 119.469 49.5689C120.035 49.427 119.469 48.8594 119.469 48.8594C119.469 48.8594 119.752 48.5757 120.035 48.4338C120.318 48.2919 120.459 48.15 120.601 47.7243C120.742 47.2987 120.176 47.0149 120.176 47.0149L119.186 46.3054L119.469 44.8865C119.469 44.8865 120.601 43.4676 120.884 43.3258C121.167 43.1839 121.308 43.042 122.582 42.1906C123.855 41.3393 123.713 41.6231 124.562 41.3393C125.411 41.0555 126.402 40.488 126.402 40.488C126.402 40.488 127.675 40.0623 127.958 39.9204C128.241 39.6366 127.816 39.211 127.675 38.9272C127.533 38.6434 128.241 38.5015 128.524 38.3596C128.807 38.2177 128.948 38.5015 129.514 37.934C130.08 37.3664 130.222 38.7853 130.222 38.7853H132.344L133.334 38.9272C133.334 38.9272 133.476 39.4947 133.193 39.6366C132.91 39.7785 130.646 40.488 130.646 40.488C130.646 40.488 128.807 42.0487 127.675 42.3325C126.543 42.6163 126.543 42.9001 126.119 43.3258C125.553 43.7514 126.119 44.7447 126.119 44.7447C126.119 44.7447 125.694 45.4541 125.27 46.3054C124.845 47.1568 125.836 47.4405 126.26 47.7243C126.543 47.8662 128.807 48.0081 128.807 48.0081C128.807 48.0081 129.656 48.0081 130.929 47.8662C132.202 47.7243 131.495 47.7243 132.768 47.4405C134.042 47.0149 136.022 46.7311 136.022 46.7311C136.022 46.7311 137.579 47.1568 138.428 47.5824C139.276 48.15 137.013 48.15 136.73 48.15C136.447 48.15 135.173 48.7175 135.173 48.7175C135.173 48.7175 134.466 48.7175 133.759 48.7175C133.051 48.7175 132.627 48.4338 131.495 48.4338C130.363 48.4338 130.222 48.5757 129.373 48.8594C128.524 49.1432 128.524 49.2851 128.099 49.8527C127.675 50.4202 128.524 51.1297 129.09 51.5553C129.656 51.981 129.09 51.8391 128.948 52.1229C128.807 52.4067 128.807 52.5486 127.958 53.5418C127.109 54.3931 127.533 53.3999 126.967 53.1161C126.402 52.6904 125.977 52.2648 125.128 52.2648C124.279 52.2648 123.43 54.1093 123.147 54.2512C122.865 54.3931 122.864 55.1026 122.864 55.1026C122.864 55.1026 122.157 56.0958 122.157 56.8052C122.157 57.5147 122.299 57.7985 122.299 57.7985C122.299 57.7985 122.157 58.2241 121.591 58.2241C121.025 58.2241 120.459 58.366 120.459 58.366C120.459 58.366 120.035 59.0755 120.035 59.3592C120.035 59.5011 119.752 59.3592 119.186 59.5011C118.62 59.643 117.771 59.3592 117.63 59.3592C117.488 59.2174 117.913 58.5079 116.639 58.366C115.366 58.2241 114.659 59.3592 113.244 59.643C111.829 59.9268 109.565 60.6362 109.282 60.6362C108.999 60.6362 108.999 60.3525 108.575 59.643C108.15 59.0755 108.009 59.2174 107.867 59.2174C107.726 59.2174 107.443 59.2174 106.594 59.5011C105.745 59.7849 106.311 59.643 105.038 60.2106C103.764 60.7781 104.613 60.3525 104.189 60.3525C103.764 60.3525 103.906 60.3525 103.057 59.9268C102.067 59.5011 102.774 59.7849 102.632 59.3592C102.35 59.0755 102.067 58.6498 102.067 58.6498C102.067 58.6498 101.218 58.6498 100.935 58.6498C100.652 58.6498 100.793 58.9336 100.652 59.5011C100.51 60.0687 100.227 60.0687 99.5199 60.4944C98.8125 60.92 98.8125 60.7781 97.5391 61.2038C96.2658 61.6295 96.5488 61.9133 96.5488 61.9133C96.5488 61.9133 96.2658 61.7714 95.5584 61.4876C94.851 61.3457 94.851 61.4876 94.1435 61.6295C93.4361 61.7714 93.0117 62.0551 92.0213 62.6227C91.0309 63.1903 91.8798 62.9065 91.4554 63.8997C91.0309 64.751 90.6065 64.4673 89.4746 65.1767C88.3428 65.7443 87.0694 66.8794 86.2205 67.0213C85.3716 67.1632 85.3716 67.1632 84.5227 67.305C83.6738 67.4469 83.3909 68.8658 83.3909 68.8658C83.3909 68.8658 82.9664 69.5753 82.4005 70.0009C81.9761 70.4266 81.4101 69.8591 81.1271 70.0009C80.7027 70.1428 80.2783 70.2847 80.1368 70.5685C79.9953 70.8523 80.1368 70.8523 79.7123 71.7036C79.2879 72.555 79.4294 71.7036 79.0049 71.5617C78.5805 71.4198 78.0145 71.5617 77.8731 71.2779C77.7316 70.9942 78.0145 70.9942 78.0145 70.5685C78.0145 70.1428 77.5901 70.4266 77.0242 70.7104C76.3167 70.9942 76.7412 71.7036 76.5997 72.4131C76.4582 73.1225 76.3167 73.1225 74.9019 73.2644C73.6286 73.2644 74.1945 73.1225 74.1945 72.6968C74.1945 72.2712 73.9115 72.4131 73.4871 72.4131C73.0626 72.4131 72.0723 72.8387 71.5063 72.9806C71.0819 73.1225 70.3745 74.1157 70.3745 74.1157C70.3745 74.1157 71.3649 74.6833 72.0723 74.6833C72.7797 74.6833 72.7797 75.5346 72.7797 75.6765C72.9212 75.8184 72.9212 76.6697 72.9212 76.6697C72.9212 76.6697 72.6382 77.5211 72.9212 77.9467C73.2041 78.3724 73.9115 78.7981 73.3456 79.2237C72.7797 79.6494 73.2041 79.6494 73.2041 80.5008C73.2041 81.3521 72.7797 79.7913 72.3552 80.217C71.9308 80.6426 72.3552 80.6426 72.0723 81.7778C71.9308 82.9129 71.9308 82.6291 71.7893 83.7642C71.6478 84.8993 69.5256 86.602 69.5256 86.602C69.5256 86.602 68.5352 86.602 68.2522 86.602C67.9693 86.602 67.1204 86.1763 65.847 86.0344C64.5737 85.8925 65.847 85.8925 63.3004 85.4669C60.7537 85.0412 59.7633 85.4669 59.7633 85.4669L57.924 86.7439C57.924 86.7439 56.6507 88.4465 55.9433 89.0141C55.2359 89.5817 55.3773 90.5749 55.0944 91.8519C54.6699 93.1289 54.387 93.1289 53.9625 94.264C53.5381 95.3991 53.5381 95.2572 51.5573 97.5275C49.4351 99.7977 51.6988 99.5139 50.4254 100.649C49.1521 101.784 51.1329 102.635 52.6892 102.777C54.2455 102.919 53.6796 103.771 53.821 105.048C54.104 106.325 54.8114 105.615 55.8018 104.906C56.6507 104.338 56.5092 104.48 56.9336 104.48C57.3581 104.48 57.7825 104.906 58.7729 105.048C59.6218 105.331 60.0463 105.048 60.1877 104.338C60.4707 103.629 61.1781 104.196 61.1781 104.196C61.1781 104.196 62.4515 104.054 62.5929 103.061C62.7344 102.068 63.0174 102.494 63.1589 102.352C63.3004 102.068 65.2811 101.784 65.2811 101.784C65.2811 101.784 65.9885 101.217 65.9885 100.365C65.9885 99.5139 66.413 99.7977 67.4033 99.2301C68.3937 98.6626 67.2619 97.3856 67.4033 96.6761C67.5448 95.9667 67.8278 96.5342 68.3937 96.2505C68.9596 95.9667 68.6767 96.1086 68.6767 96.1086H68.8182C68.8182 96.1086 68.9596 96.1086 70.516 96.1086C72.0723 96.1086 71.0819 93.9802 71.0819 93.9802C71.0819 93.9802 71.0819 93.4127 71.2234 92.8451C71.3648 92.2776 72.2137 92.4195 72.3552 92.2776C72.6382 92.1357 72.9212 92.1357 73.7701 92.1357C74.6189 92.1357 74.9019 91.4262 74.9019 91.4262C74.9019 91.4262 75.4678 90.5749 75.6093 90.2911C75.8923 90.0073 76.7412 89.7236 76.7412 89.7236C76.7412 89.7236 77.0242 89.0141 77.3071 88.5884C77.5901 88.1628 77.4486 88.0209 77.5901 87.0277C77.7316 86.1763 77.7316 86.4601 78.156 86.1763C78.5805 85.8925 78.5805 85.8925 79.4294 85.325C80.2783 84.6155 79.4294 85.325 80.2783 85.1831C81.1272 85.0412 81.5516 85.7506 81.5516 85.7506C81.5516 85.7506 82.259 86.0344 83.6738 86.3182C84.9472 86.7439 84.5227 86.7439 85.0887 86.1763C85.6546 85.6088 86.362 85.325 86.645 84.8993C87.0694 84.4737 86.9279 84.7574 87.7768 84.3318C88.6257 83.7642 88.0598 84.1899 88.4843 83.7642C88.9087 83.1967 88.7672 83.4804 89.8991 83.3385C91.1724 83.1966 91.0309 82.771 91.4554 83.1966C91.8798 83.7642 92.1628 83.9061 92.8702 84.048C93.5776 84.1899 93.0117 84.7574 93.0117 85.325C93.0117 85.8925 93.1532 86.1763 93.4361 87.3114C93.8606 88.4466 94.285 88.5884 95.1339 89.0141C96.1243 89.4398 95.6998 89.4398 96.4073 90.8587C97.2562 92.2776 97.3976 91.2843 98.8125 91.4262C100.086 91.5681 99.5199 92.7032 100.369 92.987C101.218 93.2708 100.935 93.2708 100.935 93.8383C100.935 94.4059 100.935 94.8316 102.067 94.6897C103.198 94.5478 103.198 96.5342 103.198 96.818C103.198 97.1018 103.481 98.095 102.915 98.3788C102.208 98.8045 102.208 98.8045 101.925 99.372C101.642 99.7977 101.501 99.6558 101.501 99.9396C101.359 100.223 101.784 100.365 102.067 100.365C102.35 100.223 102.632 99.7977 103.34 99.6558C104.047 99.372 104.047 98.8045 104.047 98.8045C104.047 98.8045 104.33 98.3788 105.321 97.9531C106.311 97.5275 105.887 97.3856 105.887 97.3856L105.462 95.9667C105.462 95.9667 105.038 95.2572 104.613 94.8316C104.189 94.4059 105.179 93.6965 105.179 93.6965L107.018 93.8383C107.018 93.8383 107.443 94.4059 108.009 94.8316C108.433 95.2572 108.716 95.3991 108.999 95.3991C109.282 95.3991 109.707 94.8316 109.707 94.8316C109.707 94.8316 109.707 94.5478 108.009 92.7032C106.311 90.8587 107.16 92.1357 106.453 91.71C105.604 91.2843 104.613 90.7168 104.613 90.7168C104.613 90.7168 104.472 90.2911 104.613 89.5817C104.755 88.8722 103.481 89.5817 103.481 89.5817C103.481 89.5817 102.774 89.5817 102.35 89.2979C101.925 89.156 101.359 88.4466 101.359 88.4466C101.359 88.4466 100.935 88.0209 100.227 87.4533C99.5199 86.8858 100.227 87.0276 100.227 86.7439C100.227 86.4601 100.227 86.3182 100.227 85.6088C100.227 84.8993 99.9443 85.0412 99.0954 84.6155C98.2465 84.1899 97.8221 83.4804 98.105 82.6291C98.388 81.7778 98.9539 81.9196 98.105 80.9264C97.2561 79.9332 98.8125 80.5007 100.652 80.6426C102.35 80.7845 100.793 81.6359 101.359 82.3453C101.925 83.0548 101.784 81.7778 102.774 81.3521C103.764 80.9264 103.198 81.0683 103.481 81.7778C103.623 82.6291 103.764 82.771 103.906 84.048C104.047 85.1831 104.613 85.0412 106.17 85.325C107.726 85.6088 107.018 85.8925 107.867 86.7439C108.716 87.5952 109.141 87.3114 109.707 87.879C110.273 88.4465 110.131 88.3047 111.404 89.0141C112.536 89.7236 111.829 89.7236 112.395 90.1492C112.819 90.5749 112.395 90.7168 111.97 91.2843C111.546 91.8519 112.112 91.8519 111.121 92.4194C110.131 92.987 110.697 93.8383 110.98 93.5546C111.263 93.2708 111.97 93.2708 111.546 93.8383C111.121 94.264 111.829 94.4059 112.395 95.1153C112.961 95.8248 112.395 95.541 112.961 96.2505C113.527 96.9599 113.244 96.818 113.385 97.3856C113.527 97.8112 113.527 97.8112 114.234 98.8045C114.8 99.6558 115.224 99.2301 115.507 99.372C115.79 99.372 116.215 99.372 116.922 99.2301C117.63 99.0882 118.337 99.5139 118.337 99.5139C118.337 99.5139 119.469 99.5139 119.752 99.7977C120.035 100.081 120.884 101.642 120.884 101.642C120.884 101.642 121.591 101.926 121.591 101.358C121.591 100.791 121.45 100.791 121.591 100.365C121.733 99.9396 122.299 100.081 122.299 99.5139C122.299 99.0882 121.733 98.3788 121.733 98.3788C121.733 98.3788 121.025 97.3856 120.601 96.5342C120.176 95.6829 119.186 95.3991 118.903 94.264C118.62 93.1289 119.893 93.4127 119.752 93.6965C119.61 93.9802 120.176 94.8316 121.167 94.5478C122.157 94.264 121.733 94.1221 121.45 93.4127C121.167 92.7032 122.157 93.5546 122.723 92.987C123.147 92.4195 123.289 92.8451 123.855 92.987C124.421 93.1289 124.421 92.7032 124.845 92.4194C125.27 92.1357 126.26 92.8451 126.26 92.8451C126.26 92.8451 126.967 93.1289 127.675 93.4127C128.382 93.6965 128.382 93.6965 128.948 93.6965C129.514 93.6965 129.939 93.5546 131.07 92.7032C132.202 91.9938 131.353 92.7032 132.627 92.7032C133.9 92.7032 133.9 92.7032 135.456 92.7032C136.871 92.7032 136.305 93.2708 136.164 93.4127C136.022 93.5546 135.881 93.4127 134.891 93.4127C134.042 93.4127 134.749 94.6897 134.749 95.2572C134.749 95.6829 132.91 96.3923 132.91 96.3923C132.91 96.3923 131.778 96.3923 129.939 96.3923C128.241 96.3923 128.948 95.2572 128.524 95.3991C128.099 95.541 127.816 95.2572 126.967 96.2505C126.119 97.1018 127.109 96.6761 128.099 96.6761C129.09 96.6761 128.807 96.6761 128.665 97.2437C128.665 97.6694 128.665 97.6693 129.09 98.095C129.514 98.5207 129.231 98.3788 129.09 98.9464C128.948 99.372 127.675 99.2301 127.675 99.2301C127.675 99.2301 126.685 99.6558 126.967 100.223C127.25 100.791 128.099 100.365 129.514 100.649C130.788 100.933 129.797 102.352 129.656 102.919C129.514 103.487 129.939 103.629 131.212 103.629C132.485 103.629 132.202 103.771 132.627 104.48C133.051 105.048 133.193 104.338 133.9 104.764C134.749 105.189 133.9 105.899 134.749 105.899C135.598 105.899 136.022 105.899 137.154 106.041C138.428 106.183 137.579 105.615 137.72 104.764C137.862 103.771 138.711 103.912 140.267 104.764C141.682 105.615 142.106 106.325 142.531 106.466C142.955 106.608 144.37 106.466 144.936 106.466C145.36 106.466 146.775 105.473 148.331 104.764C149.746 104.054 149.18 104.764 150.312 105.189C151.585 105.615 150.878 104.764 151.585 104.338C152.434 104.054 151.585 105.331 151.727 106.041C151.868 106.75 151.585 106.608 151.444 107.318C151.161 108.027 151.161 108.169 151.868 108.169C152.576 108.169 151.444 109.162 151.868 110.298C152.293 111.433 151.585 111.291 151.302 112C151.02 112.852 149.888 114.838 149.746 116.257C149.746 117.818 148.756 119.804 148.19 120.372C147.624 120.939 147.2 120.655 145.077 120.797C142.955 121.081 142.955 120.655 142.389 120.797C141.823 120.939 141.54 120.655 141.54 119.946C141.54 119.237 140.691 120.23 139.701 119.662C138.711 119.237 139.135 119.804 137.862 119.804C136.588 119.804 137.72 120.372 137.013 120.372C136.305 120.372 136.73 120.372 135.315 121.223C134.042 122.074 134.608 121.365 131.778 120.939C128.948 120.514 130.788 121.081 128.241 120.23C125.694 119.378 126.402 119.662 123.996 119.662C121.45 119.662 123.572 119.52 123.43 118.385C123.147 117.108 123.43 118.385 122.299 117.96C121.167 117.534 121.025 118.101 118.62 117.818C116.356 117.534 118.196 117.534 118.054 117.108C117.913 116.683 117.771 116.541 117.064 116.115C116.215 115.689 116.073 116.115 114.234 116.115C112.395 116.115 112.819 116.399 111.263 117.108C109.565 117.818 109.848 118.953 109.99 119.804C110.131 120.655 110.273 121.365 110.273 122.358C110.131 123.351 108.009 124.203 105.462 122.926C103.057 121.649 102.774 120.939 101.501 120.939C100.227 120.939 98.8125 119.52 98.388 118.527C97.9636 117.534 97.2562 117.25 97.2562 116.824C97.1147 116.541 93.7191 116.115 93.7191 116.115L89.8991 115.406C89.8991 115.406 89.1916 115.122 88.2013 114.838C87.2109 114.412 87.0694 114.129 86.079 112.284C85.0887 110.439 87.3524 110.439 87.3524 110.439C87.3524 110.439 87.6354 109.872 89.4746 108.311C91.3139 106.608 89.0502 107.318 88.4843 106.041C87.9183 104.764 89.1916 105.189 90.3235 104.196C91.3139 103.203 89.7576 103.487 88.9087 103.912C87.9183 104.338 88.3428 104.338 87.9183 103.345C87.4939 102.352 85.9376 104.196 85.9376 104.196H83.3909C83.3909 104.196 81.4101 103.771 79.4294 104.764C77.4486 105.757 77.7316 104.764 76.8827 104.196C76.0338 103.629 74.1945 104.764 69.95 104.764C65.7056 104.906 63.5833 108.169 62.027 108.595C60.4707 109.021 60.0463 108.879 59.6218 108.311C59.1974 107.744 57.3581 108.453 57.3581 108.453C57.3581 108.453 55.3773 108.595 55.3773 106.75C55.3773 105.048 53.5381 107.176 53.1136 109.588C52.6892 112 49.718 113.135 47.3128 114.412C44.9076 115.547 42.9269 121.507 42.3609 123.919C41.795 126.331 38.8239 129.311 37.1261 129.594C35.4283 129.878 34.2964 131.865 33.872 133.284C33.4475 134.702 32.7401 134.419 31.8912 135.979C31.0423 137.398 29.769 140.236 29.2031 140.946C28.6371 141.655 28.6371 141.513 28.4957 142.223C28.3542 143.074 27.7882 144.777 26.5149 147.614C25.2416 150.452 25.383 152.155 25.5245 153.148C25.666 154.141 26.2319 155.702 25.383 155.844C24.5341 155.986 25.2416 156.979 25.5245 159.249C25.8075 161.52 25.383 165.918 25.2415 166.628C25.1001 167.337 24.9586 168.614 24.9586 169.749C24.9586 170.884 22.9778 171.736 23.8267 173.154C24.6756 174.573 25.2416 175.567 24.6756 176.418C24.1097 177.269 24.6756 178.972 24.6756 178.972C24.6756 178.972 24.9586 179.823 25.1001 180.675C25.2416 181.668 25.8075 182.093 26.2319 181.81C26.6564 181.526 26.7979 182.093 26.6564 182.661C26.5149 183.229 26.5149 183.512 26.9394 184.364C27.3638 185.073 27.5053 184.647 27.9297 185.073C28.3542 185.499 27.9297 185.783 28.7786 186.634C29.486 187.485 29.486 188.195 30.1934 188.62C30.9008 189.046 30.9009 190.181 31.3253 191.033C31.6083 191.884 31.4668 191.6 31.3253 192.451C31.1838 193.303 31.3253 193.019 31.6083 193.87C31.8912 194.722 32.1742 194.864 32.7401 195.431C33.4475 195.999 32.4572 196.424 33.589 196.85C34.7209 197.276 34.155 197.134 34.5794 197.985C35.0039 198.836 35.1453 198.695 36.4187 199.688C37.692 200.681 37.8335 201.107 38.6824 202.951C39.5313 204.796 41.795 205.363 42.7854 205.789C43.7758 206.357 43.4928 205.363 43.6343 205.08C43.7758 204.796 44.4832 204.512 44.4832 204.512C44.4832 204.512 44.9076 203.661 45.4736 203.661C46.181 203.519 46.4639 203.377 47.4543 203.093C48.4447 202.809 49.1521 203.235 50.4254 203.377C51.6988 203.661 51.2743 203.377 51.8403 203.519C52.5477 203.519 52.2647 203.519 53.2551 204.086C54.387 204.654 53.6795 204.228 54.387 204.228C55.0944 204.228 54.8114 203.803 55.0944 203.235C55.3773 202.667 55.6603 203.093 56.2262 202.667C56.9336 202.384 56.7922 202.384 57.6411 201.674C58.49 201.107 58.9144 201.249 59.4803 201.249C60.1877 201.249 60.4707 201.107 60.6122 200.539C60.7537 199.83 61.1781 200.113 61.4611 199.83C61.744 199.546 61.8855 199.546 62.5929 199.688C63.1589 199.688 63.5833 199.404 63.5833 199.404C63.5833 199.404 64.1492 199.262 64.5737 199.262C65.1396 199.262 65.5641 199.688 65.5641 198.978C65.5641 198.269 66.2715 198.553 65.9885 198.978C65.7056 199.404 66.5544 198.978 66.9789 198.978C67.4033 198.978 67.4033 198.978 68.8182 200.113C70.233 201.249 69.6671 201.249 69.95 201.674C70.233 201.958 70.3745 202.384 70.7989 202.1C71.2234 201.816 70.6575 202.809 70.7989 203.519C70.9404 204.086 70.7989 203.803 71.0819 204.37C71.3649 204.938 71.6478 204.938 72.2138 205.505C72.7797 206.073 72.9212 205.931 73.3456 205.789C73.7701 205.647 74.1945 205.789 74.619 205.647C75.1849 205.505 74.9019 205.08 75.4678 205.647C76.0338 206.215 75.7508 205.221 76.0338 204.938C76.3167 204.654 76.3167 205.221 77.4486 205.08C78.5805 205.08 78.0145 204.654 78.0145 204.086C78.0145 203.661 78.5805 204.938 79.2879 205.08C79.9953 205.221 79.9953 205.789 79.8538 206.215C79.7123 206.64 80.7027 206.782 81.5516 206.782C82.4005 206.782 81.976 207.775 82.6835 208.201C83.2494 208.627 83.1079 208.485 82.9664 209.194C82.8249 209.904 83.1079 211.323 82.6835 212.032C82.259 212.742 82.8249 212.6 82.542 213.735C82.4005 214.728 82.6835 215.154 82.6835 216.856C82.6835 218.701 81.9761 221.255 81.4101 222.106C80.8442 222.816 82.259 222.532 82.6835 223.1C83.2494 223.667 83.3909 223.667 84.3812 224.66C85.3716 225.654 85.0887 226.93 85.7961 226.93C86.5035 226.93 87.0694 227.214 87.0694 227.924C87.0694 228.775 87.7768 228.775 89.0502 229.91C90.3235 231.045 90.8894 231.897 91.7383 233.174C92.5872 234.451 91.8798 234.167 93.0117 235.586C94.1435 237.005 95.2754 239.417 96.2658 240.836C97.2562 242.255 98.388 243.248 97.2562 244.383C96.1243 245.518 97.3976 245.234 99.2369 246.937C101.076 248.64 101.925 252.471 101.218 253.748C100.51 255.025 99.3784 255.592 99.3784 257.72C99.2369 259.849 99.6614 261.977 99.3784 263.254C99.0954 264.389 100.369 266.234 100.369 266.234C100.369 266.234 100.652 267.511 101.925 269.639C103.198 271.768 108.009 276.45 109.99 278.153C111.97 279.855 111.404 281.984 112.961 284.254C114.376 286.524 116.356 289.22 117.913 291.064C119.469 293.051 119.752 292.341 120.884 293.477C122.016 294.612 126.543 299.578 126.967 300.429C127.392 301.28 126.119 301.139 126.967 302.132C127.816 303.125 128.099 303.835 128.948 303.551C129.797 303.267 129.373 303.693 130.363 304.26C131.353 304.828 131.07 304.402 132.061 303.835C132.91 303.267 132.768 303.693 134.042 304.118C135.315 304.544 134.325 303.551 135.032 302.983C135.739 302.416 135.739 302.983 136.305 303.125C136.871 303.267 137.013 303.267 137.437 303.409C137.862 303.551 137.862 303.409 138.994 303.267C140.125 303.125 138.994 303.267 139.701 303.409C140.408 303.551 140.125 303.267 140.267 302.983C140.408 302.557 141.257 302.557 141.257 302.557L143.521 301.706C143.521 301.706 144.228 300.997 144.936 299.72C145.643 298.585 145.36 298.159 146.634 298.017C147.907 297.733 146.917 297.308 147.2 296.74C147.482 296.031 147.765 295.605 148.331 294.47C148.897 293.335 148.897 293.051 149.888 293.051C150.878 292.909 150.171 292.483 150.029 291.916C149.888 291.348 150.312 290.923 151.02 289.787C151.727 288.652 150.878 289.078 151.02 287.659C151.161 286.382 151.02 287.659 150.312 286.808C149.605 285.956 150.737 285.673 150.737 285.673L152.01 284.679L154.84 284.112L155.688 283.544C155.688 283.544 155.971 282.551 155.83 282.125C155.688 281.7 155.688 280.848 155.688 280.848C155.688 280.848 155.971 279.855 155.971 279.43C155.971 279.004 155.83 278.72 155.547 278.294C155.123 277.727 155.547 277.869 155.688 277.017C155.83 276.024 154.698 274.747 154.415 273.754C154.132 272.761 154.415 273.328 155.264 272.619C156.113 271.909 155.688 271.909 156.254 271.484C156.82 270.916 157.245 270.491 158.377 269.781C159.508 269.072 157.386 270.065 158.943 268.504C160.499 267.085 159.367 267.937 161.348 266.66C163.47 265.524 164.036 265.666 164.036 265.666L165.734 264.389L167.431 263.112L167.997 261.268L169.129 260.274C169.129 260.274 169.271 259.707 168.846 258.43C168.422 257.153 168.139 256.443 168.28 251.477C168.422 246.511 168.28 250.342 167.856 248.356C167.431 246.369 167.856 248.356 166.583 247.363C165.309 246.369 166.724 245.376 166.583 244.099C166.441 242.822 165.592 240.836 165.592 240.836C165.592 240.836 165.309 239.559 165.875 238.565C166.441 237.714 163.329 237.998 163.329 237.998V234.451V232.606L165.875 230.62C165.875 230.62 167.29 228.633 167.573 227.64C167.714 226.647 167.997 226.93 169.412 225.512C170.686 224.235 169.412 225.512 169.837 224.66C170.12 223.809 171.959 223.809 171.959 223.809C171.959 223.809 173.515 223.383 174.364 220.829C174.364 220.829 177.194 216.998 179.74 214.586C182.429 212.174 184.834 211.181 192.474 202.242C200.255 193.303 199.972 184.931 199.831 182.519C199.69 180.107 197.709 182.661 196.718 183.37C195.869 184.08 193.606 183.512 190.918 183.796C188.371 184.222 185.683 184.789 185.683 184.789C185.683 184.789 182.57 185.215 180.589 185.215C178.609 185.215 177.76 183.796 177.76 180.391C177.76 176.985 172.383 173.864 172.383 173.864L165.592 169.323C165.592 169.323 164.743 166.486 164.036 163.648C163.329 160.81 163.187 160.81 160.64 158.824C157.952 156.837 158.094 155.418 158.235 152.155C158.377 149.033 157.103 148.466 156.254 147.614C155.405 146.905 153.425 145.06 153.142 144.067C152.859 143.074 153 143.216 153.566 142.223C154.132 141.229 152.151 139.385 152.151 139.385C152.151 139.385 150.878 137.682 150.029 135.27C149.18 132.858 149.18 133.709 147.624 129.878C146.068 126.047 144.794 125.905 143.945 124.203C143.097 122.5 149.18 130.73 149.18 129.169C149.18 127.75 150.171 126.189 151.02 124.628C151.868 123.068 150.737 126.899 150.171 128.743C149.605 130.588 151.868 130.588 151.868 130.588L156.113 134.702C156.113 134.702 156.396 137.398 159.508 141.087C162.48 144.777 161.772 143.641 163.187 146.337C164.602 149.033 163.328 148.75 165.026 151.587C166.724 154.425 168.28 154.141 169.978 157.121C171.676 160.101 172.383 161.945 174.081 164.074C175.779 166.202 175.213 166.628 175.213 167.763C175.213 168.898 175.496 171.877 175.92 173.013C176.345 174.006 177.901 178.262 180.448 178.688C182.995 179.114 182.429 176.56 184.551 176.418C186.673 176.134 186.532 176.418 188.371 175.425C190.21 174.431 190.069 174.431 191.201 174.573C192.474 174.715 192.615 174.148 194.879 171.877C197.143 169.465 196.294 170.884 200.68 170.6C205.066 170.317 202.802 168.046 202.802 168.046C202.802 168.046 203.651 166.344 206.764 164.783C209.876 163.222 208.461 164.783 210.301 163.506C212.14 162.229 210.442 161.945 211.574 161.661C212.706 161.378 213.413 161.661 214.262 159.675C215.111 157.689 215.677 158.824 217.658 158.54C219.78 158.398 217.516 157.689 217.233 155.135C216.95 152.581 217.233 153.148 219.073 153.999C220.912 154.851 219.356 152.722 220.487 149.885C221.619 147.047 221.619 146.054 221.053 145.344C220.487 144.493 217.799 143.5 217.799 143.5C217.799 143.5 215.818 142.223 213.272 140.946C210.725 139.669 212.423 140.094 211.857 138.959C211.15 137.824 211.291 137.824 210.867 135.554C210.442 133.425 210.159 135.979 209.027 136.973C207.895 137.824 207.895 138.108 207.047 139.385C206.198 140.52 207.047 140.52 205.632 141.513C204.217 142.506 204.217 142.081 202.802 141.797C201.387 141.513 201.104 142.223 199.689 142.364C198.275 142.506 198.558 141.513 197.85 139.952C197.143 138.533 193.889 136.831 193.889 136.831L193.747 134.135C193.747 134.135 193.747 134.135 191.625 132.29C189.503 130.446 190.21 129.453 190.21 129.453L187.522 128.034C187.522 128.034 186.107 127.466 183.278 125.763C180.589 124.061 183.278 124.628 184.126 123.777C184.975 123.068 185.117 123.635 187.239 123.919C189.361 124.061 188.512 123.635 188.654 122.216C188.795 120.939 189.503 123.209 191.766 122.926C194.03 122.5 192.049 123.209 193.181 124.77C194.313 126.331 195.869 129.311 198.558 130.162C201.246 131.013 200.963 132.007 200.963 132.007C200.963 132.007 201.67 132.716 203.651 133.142C205.773 133.567 205.49 133.425 209.027 132.716C212.564 132.007 211.433 133 213.272 135.838C215.111 138.533 214.262 136.263 220.487 137.54C221.619 137.824 222.327 137.824 222.893 137.966C222.893 137.966 222.893 138.108 223.176 138.392C224.449 139.527 225.156 137.966 225.156 137.966C225.156 137.966 225.581 138.392 226.005 138.392C226.288 138.392 228.552 137.256 230.533 137.256C232.513 137.115 235.202 136.263 236.616 137.256C238.031 138.25 237.748 139.101 239.022 138.817C240.295 138.533 240.012 140.094 240.861 142.223C241.71 144.351 243.266 142.648 243.266 142.648C243.266 142.648 243.408 143.783 243.974 144.351C244.398 144.918 246.096 145.628 247.794 145.486C249.491 145.344 248.784 145.628 248.359 146.054C247.935 146.479 247.228 147.331 245.813 146.905C244.539 146.479 246.096 148.749 248.925 151.303C251.755 153.858 251.472 151.871 253.453 151.587C255.434 151.304 253.877 149.033 254.302 147.331C254.585 145.628 255.434 149.317 255.009 151.445C254.726 153.574 255.858 153.999 256.424 155.844C257.131 157.689 256.424 159.107 258.829 166.06C261.234 172.871 266.045 188.195 267.743 191.033C269.44 193.87 269.582 192.877 270.572 191.316C271.563 189.897 272.694 190.039 272.694 190.039C272.694 190.039 272.694 188.904 272.977 188.337C273.26 187.627 273.26 187.343 274.675 186.208C276.09 185.073 274.817 185.357 274.817 185.357C274.817 185.357 274.817 184.931 274.675 182.945C274.534 181.1 275.1 180.958 275.1 180.958L275.524 178.546C275.524 178.546 275.383 176.418 275.666 173.722C275.949 171.026 275.383 170.033 275.383 168.756C275.383 167.479 275.666 167.905 276.515 167.905C277.363 167.905 277.222 166.911 277.505 166.202C277.788 165.492 278.071 166.486 278.495 166.202C278.92 165.918 279.627 165.492 279.769 164.499C279.91 163.506 280.9 162.655 280.9 162.655C280.9 162.655 281.608 160.526 282.174 159.533C282.598 158.54 283.023 158.398 283.73 157.689C284.438 156.979 285.286 156.695 285.145 155.702C285.145 154.709 285.145 155.276 285.711 155.276C286.277 155.276 286.56 155.276 286.843 155.135C287.126 154.993 288.258 153.29 288.258 153.29C288.258 153.29 288.399 152.439 288.399 151.303C288.399 150.168 288.54 150.736 288.965 149.885C289.389 149.033 289.248 149.317 289.672 148.182C289.955 147.047 290.663 149.033 290.663 149.033L291.795 149.317L291.936 150.027L292.361 150.878H294.058L294.766 149.175C294.766 149.175 294.624 147.614 294.341 147.189C294.2 146.621 295.473 145.486 295.473 145.486L296.464 146.621C296.464 146.621 297.312 148.466 297.312 150.31C297.312 152.155 298.444 150.452 298.444 150.452C298.444 150.452 298.586 151.02 298.444 151.729C298.303 152.297 300.001 153.148 300.001 153.148L300.85 154.283L301.698 155.418C301.698 155.418 301.698 156.128 301.415 157.547C301.132 158.966 301.415 158.966 301.981 158.398C302.406 157.689 302.689 157.405 302.689 157.972C302.689 158.54 303.821 162.087 303.821 162.087C303.821 162.087 303.821 164.925 303.679 166.486C303.679 168.046 303.962 167.479 304.387 167.621C304.67 167.763 305.518 168.472 305.66 168.472C305.801 168.472 305.943 167.337 306.933 166.06C307.782 164.783 307.924 165.209 308.065 163.79C308.207 162.371 309.338 164.783 310.046 166.344C310.612 167.905 311.319 170.317 311.744 173.722C312.31 177.127 312.451 178.262 312.027 181.668C311.602 185.073 311.036 189.046 310.895 191.884C310.753 194.722 312.593 196.85 312.876 197.843C313.159 198.836 313.017 200.823 312.876 202.1C312.734 203.377 313.3 206.357 313.3 206.357C313.3 206.357 313.017 209.052 313.017 210.188C313.017 211.323 313.724 212.316 314.29 213.451C314.856 214.586 315.422 214.16 315.988 213.593C316.554 213.025 316.413 212.6 315.705 209.762C314.998 206.924 315.564 208.485 316.413 205.221C317.261 201.816 316.413 199.972 315.705 198.553C314.998 197.276 314.715 196.992 313.866 196.708C313.017 196.424 313.441 195.147 313.583 193.303C313.866 191.458 313.159 191.6 313.583 189.614C314.007 187.627 313.3 189.188 312.876 189.756C312.451 190.181 312.593 189.897 312.168 188.479C311.885 187.06 312.31 186.492 312.451 185.357C312.593 184.222 312.734 184.08 313.724 180.533C314.715 177.127 313.724 179.681 313.724 178.546C313.724 177.553 314.149 176.418 314.573 175.85C314.856 175.283 314.998 176.418 314.998 177.127C314.998 177.837 314.998 178.121 315.281 178.546C315.705 178.972 317.12 178.83 317.403 179.398C317.686 179.965 318.252 181.668 318.252 181.668C318.252 181.668 318.535 182.661 318.676 184.08C318.818 185.357 319.101 185.499 319.95 186.35C320.799 187.202 320.233 187.911 320.233 187.911L319.667 189.614C319.667 189.614 319.808 190.891 320.374 190.607C320.94 190.323 320.799 190.181 322.072 188.337C323.345 186.492 322.213 186.492 322.496 185.215C322.779 183.938 323.487 185.357 324.336 183.796C325.326 182.235 325.326 180.391 325.609 179.114C325.892 177.837 325.75 176.985 325.75 176.134C325.75 175.283 325.609 173.296 325.326 171.736C325.043 170.175 324.902 170.6 324.053 167.479C323.204 164.357 321.223 160.384 320.799 159.391C320.233 158.398 320.516 156.837 320.657 155.135C320.799 153.432 321.364 152.439 321.506 151.303C321.647 150.168 321.789 149.317 323.204 149.317C324.477 149.317 323.345 150.452 324.619 152.864C325.892 155.276 325.75 150.594 325.892 147.898C326.033 145.202 327.448 145.628 328.863 144.067C329.429 142.648 328.014 140.804 328.014 140.804ZM153.425 252.754C153 253.748 151.868 252.612 152.859 254.173C153.849 255.876 154.557 255.592 154.557 256.585C154.557 257.579 154.132 259.991 153.142 257.862C152.151 255.734 153 257.295 152.151 254.599C151.161 251.903 151.161 254.031 151.161 250.768C151.161 247.504 151.302 248.214 150.737 247.079C150.171 245.944 150.171 245.944 150.171 245.944C151.868 245.802 152.434 247.079 152.434 247.079V248.923V250.342C152.434 250.342 153.991 251.619 153.425 252.754ZM144.37 218.559L146.351 216.856C146.351 216.856 148.473 216.856 149.322 217.424C149.322 217.424 150.029 218.843 151.727 218.701C153.425 218.701 150.312 219.41 150.029 221.539C149.746 223.667 149.605 221.964 148.897 222.674C148.19 223.383 148.756 223.383 149.039 223.951C149.322 224.66 149.039 224.66 148.614 225.37C148.19 226.079 147.907 225.654 146.068 225.512C144.37 225.37 144.511 226.079 144.511 226.079L143.238 223.241L142.814 220.687L144.37 218.559ZM140.55 241.829C139.984 240.978 139.559 239.275 139.559 239.275L137.862 236.437L137.154 233.883L136.588 231.187C136.588 231.187 136.871 230.052 136.588 228.208C136.588 228.208 137.579 229.343 137.862 230.478C138.145 231.471 138.003 233.316 138.003 234.734C138.003 236.153 137.862 236.437 139.842 236.863C141.823 237.288 140.55 237.43 141.116 239.275C141.682 241.119 141.965 240.268 142.248 243.248C142.672 246.227 141.116 242.68 140.55 241.829ZM163.046 90.1492C162.338 90.7168 159.933 91.8519 159.226 91.2843C158.518 90.8587 156.396 92.1357 156.254 91.8519C155.971 91.71 153.283 91.71 153.142 91.0005C153 90.2911 151.161 90.7168 151.161 90.0073C151.161 89.2979 148.331 90.1492 148.19 89.0141C148.048 87.879 143.379 88.8722 141.54 90.2911C139.701 91.71 136.871 91.5681 135.739 91.2843C134.608 90.8587 131.07 88.3047 131.636 87.879C132.202 87.5952 131.636 86.0344 132.485 85.7506C133.334 85.4669 133.617 84.6155 133.476 84.048C133.334 83.4804 133.476 83.3385 134.183 82.9129C134.891 82.4872 134.183 81.9196 134.466 81.2102C134.749 80.5008 135.456 81.494 135.739 81.0683C136.164 80.6426 136.022 80.7845 136.588 80.6426C137.154 80.3589 136.588 79.7913 136.588 78.94C136.588 78.0886 136.871 77.3792 137.72 77.9467C138.852 78.6562 138.852 77.3792 139.984 76.9535C141.116 76.5279 140.833 76.9535 141.257 77.5211C141.823 78.0886 141.965 78.2305 143.238 78.2305C144.511 78.2305 147.341 78.0886 148.473 77.5211C149.605 76.9535 149.322 77.0954 151.302 76.386C153.283 75.8184 153.283 76.1022 154.84 75.5346C156.537 74.9671 157.669 75.6765 156.962 75.9603C156.254 76.2441 153.849 77.2373 154.415 77.9467C154.981 78.5143 154.415 78.0886 153.708 78.6562C153 79.2237 152.576 80.0751 149.322 79.9332C146.068 79.9332 148.19 79.6494 145.785 78.7981C143.379 77.9467 143.379 78.94 143.379 80.217C143.379 81.3521 143.804 83.0548 145.926 82.3453C148.048 81.6359 147.482 82.0615 148.048 81.0683C148.614 79.9332 149.888 81.3521 151.727 80.9264C153.708 80.5008 152.01 81.6359 154.981 82.771C157.952 83.9061 156.679 83.9061 158.943 85.7506C161.206 87.5952 161.065 86.1763 162.763 87.4533C164.743 88.5884 163.611 89.5817 163.046 90.1492ZM196.577 103.061C196.435 103.487 195.587 103.629 194.03 103.912C191.625 104.338 190.776 104.196 190.493 104.054C190.352 104.054 189.786 103.771 189.22 103.487C188.371 102.919 188.371 102.494 187.805 102.068C186.39 101.075 184.551 102.21 183.702 101.075C183.56 100.933 183.419 100.507 183.278 100.081C183.136 99.6558 183.136 99.5139 183.136 99.0883C182.995 97.6694 182.57 97.2437 182.853 96.9599C183.136 96.6761 183.419 96.818 183.561 96.3923C183.702 96.1086 183.561 95.9667 183.561 95.3991C183.561 94.9735 183.561 94.6897 183.561 94.4059C183.419 94.4059 183.419 94.4059 183.278 94.264C183.136 94.1221 183.419 93.8383 183.419 93.8383C183.419 93.8383 183.419 93.9802 183.419 94.4059C184.126 94.5478 185.824 93.8383 185.824 93.5546C185.824 93.2708 184.975 93.4127 183.702 92.8451C183.278 92.5613 182.853 92.2776 182.853 92.2776C182.429 91.8519 182.146 91.4262 182.004 91.1424C181.58 90.433 181.438 90.5749 180.023 89.4398C179.175 88.7303 179.458 88.8722 178.184 87.7371C177.76 87.4533 177.477 87.0277 177.052 86.602C176.769 86.1763 176.628 86.0344 176.486 85.7506C176.062 84.7574 176.769 83.7642 176.345 83.4804C176.203 83.3385 175.92 83.6223 175.355 83.4804C174.647 83.3385 174.081 82.6291 174.081 81.9196C174.081 81.6359 174.223 81.6359 174.647 80.7845C175.072 79.9332 175.072 79.7913 175.355 79.5075C175.637 79.2238 175.92 79.0819 176.486 78.94C177.194 78.6562 177.335 78.7981 177.76 78.5143C178.184 78.3724 178.043 78.2305 178.609 77.8049C179.316 77.2373 179.599 77.3792 179.882 76.9535C180.023 76.8116 180.165 76.5278 180.306 76.386C180.589 76.2441 180.872 76.2441 181.014 76.1022C182.712 75.9603 184.126 76.1022 184.126 76.1022C184.692 76.2441 184.834 76.2441 185.117 76.2441C185.541 76.386 186.532 76.6697 186.956 77.5211C187.239 78.0886 186.815 78.3724 187.098 78.94C187.381 79.3656 187.805 79.6494 188.229 79.7913C188.937 79.9332 189.361 79.5075 189.786 79.7913C190.352 80.0751 190.493 81.2102 190.069 81.494C189.644 81.7777 188.512 81.2102 187.805 80.6426C186.39 79.7913 185.966 79.0819 185.4 79.3656C185.117 79.3656 185.258 79.5075 184.692 80.0751C183.843 80.7845 183.561 80.7845 183.136 81.3521C182.995 81.494 182.429 82.2034 182.57 82.9129C182.712 83.7642 183.561 83.9061 185.4 85.1831C187.239 86.4601 188.371 87.3114 188.512 88.5884C188.512 88.8722 188.654 89.4398 189.078 90.0073C189.361 90.433 189.927 90.8587 190.21 90.7168C190.352 90.7168 190.21 90.433 190.21 90.1492C190.21 89.5817 190.21 88.5884 190.493 88.4466C190.918 88.3047 191.484 88.8722 191.766 89.0141C192.474 89.5817 192.332 90.0073 192.898 90.2911C193.464 90.5749 193.747 90.433 194.03 90.8587C194.313 91.1424 194.455 91.71 194.313 91.8519C194.172 91.9938 194.03 91.9938 193.889 91.9938C192.615 91.9938 192.049 91.8519 191.484 92.1357C191.484 92.1357 190.918 92.4195 190.493 92.987C190.21 93.4127 190.069 94.264 190.352 94.4059C190.635 94.5478 190.918 94.264 191.625 94.264C192.191 94.264 192.898 94.4059 192.898 94.8316C192.898 95.1154 192.757 95.2572 192.474 95.6829C192.191 96.1086 192.049 96.1086 192.049 96.2505C192.049 96.5342 193.181 96.3923 193.889 96.818C194.738 97.3856 194.313 98.5207 195.162 100.507C196.152 102.068 196.86 102.494 196.577 103.061ZM200.397 83.0548C200.255 83.1967 199.972 83.1967 199.689 83.0548C199.265 82.771 199.407 82.3453 199.265 80.9264C199.124 79.9332 198.982 79.7913 199.124 79.5075C199.407 78.7981 200.255 78.5143 200.397 78.6562C200.538 78.7981 199.689 79.3656 199.689 80.217C199.689 80.7845 200.255 80.7845 200.397 81.6359C200.68 82.0615 200.821 82.771 200.397 83.0548ZM204.358 83.0548C204.217 83.4804 203.792 83.7642 203.368 83.7642C202.802 83.7642 202.236 83.3385 202.236 82.771C202.236 82.3453 202.661 82.2034 202.661 81.6359C202.661 80.9264 201.529 80.6426 201.67 79.9332C201.67 79.5075 202.095 79.2237 202.236 79.2237C202.378 79.2237 202.378 79.6494 202.519 80.0751C202.944 81.9196 204.641 82.2034 204.358 83.0548ZM204.217 78.5143C204.075 78.5143 203.792 78.5143 202.944 78.2305C202.095 77.9467 201.67 77.8049 201.67 77.663C201.67 77.3792 202.095 77.0954 202.519 77.0954C203.085 76.9535 203.651 77.2373 204.217 77.3792C204.641 77.5211 205.349 77.8049 205.349 78.0886C205.066 78.3724 204.217 78.3724 204.217 78.5143ZM240.295 77.0954C240.295 77.663 239.305 77.8048 239.022 77.9467C238.173 78.0886 237.607 77.9467 235.768 77.5211C234.07 77.2373 233.645 77.0954 233.079 77.3792C232.938 77.3792 232.372 77.8049 232.089 78.3724C231.665 79.6494 233.362 80.9264 232.938 81.3521C232.655 81.6359 232.089 81.3521 231.948 81.3521C230.816 80.9264 230.533 79.3656 230.533 79.2237C230.533 79.0819 230.391 78.3724 230.816 77.663C230.957 77.5211 231.24 76.5279 232.089 76.2441C232.938 75.8184 233.362 76.386 235.626 76.8116C237.324 77.0954 238.031 77.2373 238.739 76.8116C239.163 76.5279 239.446 76.1022 239.871 76.2441C240.012 76.5279 240.295 76.8116 240.295 77.0954ZM270.572 64.0416C269.865 64.3254 268.874 64.1835 268.591 63.6159C268.026 62.6227 269.723 61.6295 269.44 60.0687C269.157 58.0822 266.469 57.2309 266.752 56.2377C266.894 55.6701 267.601 55.5282 268.167 55.3863C269.865 55.3863 271.28 57.7985 271.563 59.7849C271.846 61.2038 271.846 63.6159 270.572 64.0416Z" fill="#B5E16C" stroke="black" stroke-width="0.5" stroke-miterlimit="10"/>
<path opacity="0.31" d="M272.694 38.0759C295.473 66.7375 309.055 103.061 309.055 142.506C309.055 235.16 234.211 310.22 141.823 310.22C102.49 310.22 66.2709 296.598 37.6914 273.754C68.3931 312.348 115.507 337.037 168.563 337.037C260.951 337.037 335.795 261.977 335.795 169.323C335.795 116.115 311.177 68.724 272.694 38.0759Z" fill="#859BAC" stroke="black" stroke-width="0.25" stroke-miterlimit="10"/>
<path opacity="0.21" d="M15.9019 183.796C15.9019 91.1425 90.7462 16.0831 183.134 16.0831C225.579 16.0831 264.345 31.9747 293.915 58.0823C263.213 23.3194 218.505 1.46851 168.703 1.46851C76.315 1.46851 1.4707 76.5279 1.4707 169.182C1.4707 219.269 23.259 264.106 57.9222 294.754C31.748 265.383 15.9019 226.363 15.9019 183.796Z" fill="white" stroke="black" stroke-width="0.25" stroke-miterlimit="10"/>
<path d="M329.71 137.966C329.286 137.966 329.003 140.094 329.286 142.081C329.569 144.635 330.701 147.047 331.125 147.047C331.549 146.905 331.125 143.642 330.984 142.081C330.842 141.655 330.135 137.966 329.71 137.966Z" fill="#B5E16C" stroke="black" stroke-width="0.25" stroke-miterlimit="10"/>
<path d="M334.807 179.256C334.524 179.256 334.099 177.979 334.099 177.837C334.099 177.695 333.958 177.127 333.958 176.134C333.958 174.999 334.099 174.857 333.958 174.148C333.958 173.154 333.533 172.445 333.25 172.019C332.401 170.175 333.533 168.614 333.675 165.634C333.816 162.229 332.401 159.533 332.26 159.533C332.118 159.533 332.26 160.243 332.401 162.229C332.401 163.222 332.401 163.506 332.401 166.628C332.401 171.31 332.401 168.756 332.401 171.877C332.401 173.722 332.401 174.431 332.543 175.567C332.826 177.127 333.25 176.985 333.533 178.262C333.816 179.398 333.533 179.823 333.25 184.364C333.109 185.357 333.109 185.924 333.109 186.208C333.109 188.478 333.533 188.904 333.392 190.323C333.109 191.742 332.543 191.458 332.401 192.877C332.26 194.154 332.543 194.58 332.401 196.566C332.401 196.85 332.401 197.134 332.401 197.134C332.543 197.276 333.533 195.289 334.241 193.445C334.948 188.053 335.514 182.661 335.797 177.127C335.372 178.404 335.089 179.256 334.807 179.256Z" fill="#B5E16C" stroke="black" stroke-width="0.25" stroke-miterlimit="10"/>
</svg>
