<svg width="15" height="15" viewBox="0 0 15 15" fill="none" xmlns="http://www.w3.org/2000/svg">
<g clip-path="url(#clip0)">
<path d="M14.2854 0.714299C13.3325 -0.2381 11.7825 -0.2381 10.8296 0.714299L1.039 10.5049C1.03439 10.5095 1.03167 10.5152 1.0276 10.5201C1.0219 10.5266 1.01701 10.5337 1.01186 10.5407C0.997466 10.5608 0.986335 10.5823 0.977919 10.6056C0.975475 10.6127 0.971946 10.6189 0.970045 10.626C0.969231 10.6287 0.967602 10.6314 0.966787 10.6341L0.00705882 14.6658C0.00271493 14.684 0.00162896 14.7024 0.00108597 14.7206C0.00108597 14.7242 0 14.7274 0 14.731C0.000271493 14.7619 0.00705882 14.792 0.0176471 14.8211C0.0200905 14.8279 0.0228054 14.8338 0.0257919 14.8404C0.039095 14.8694 0.0556561 14.8974 0.0790045 14.9207C0.104796 14.9465 0.135204 14.9663 0.168054 14.9799C0.200905 14.9935 0.235928 15.0003 0.27095 15.0003C0.291855 15.0003 0.313032 14.9978 0.333665 14.9929L4.36534 14.0332C4.37267 14.0316 4.37919 14.0275 4.38624 14.0251C4.39547 14.0221 4.40416 14.0186 4.41312 14.0145C4.43267 14.0055 4.45086 13.9944 4.46769 13.9811C4.47421 13.9759 4.481 13.9721 4.48724 13.9664C4.48941 13.9643 4.49213 13.9632 4.4943 13.961L14.2852 4.17014C15.2381 3.21719 15.2381 1.66697 14.2854 0.714299ZM13.9015 1.09819C14.577 1.77394 14.6346 2.83493 14.078 3.57882L11.4209 0.921719C12.1651 0.365158 13.2261 0.422715 13.9015 1.09819ZM12.5576 5.12986L9.86986 2.44208L10.2538 2.05819L12.9415 4.74597L12.5576 5.12986ZM1.34688 13.6529C1.24072 13.5467 1.06914 13.5467 0.962986 13.6529L0.757466 13.8584L1.45086 10.9458L2.6514 10.8125L2.49692 12.2031C2.49584 12.2134 2.49964 12.2229 2.49964 12.2329C2.49964 12.2433 2.49584 12.2525 2.49692 12.2628C2.49801 12.2718 2.50262 12.2791 2.50452 12.2878C2.50778 12.3035 2.5124 12.3179 2.5181 12.3326C2.52516 12.3502 2.53357 12.3662 2.54389 12.3817C2.55231 12.3942 2.56072 12.4053 2.57104 12.4162C2.58407 12.43 2.59819 12.4417 2.61366 12.4526C2.62588 12.461 2.63756 12.4689 2.65113 12.4754C2.66905 12.4838 2.68778 12.4887 2.70733 12.4933C2.71765 12.4957 2.72606 12.5014 2.73665 12.5028C2.74643 12.5039 2.7562 12.5044 2.76624 12.5044H2.76652H2.76679H2.76706H2.76733C2.7771 12.5044 2.78715 12.5039 2.79692 12.5028L4.18751 12.3483L4.05421 13.5489L1.14136 14.2423L1.34688 14.0367C1.45276 13.9309 1.45276 13.759 1.34688 13.6529ZM4.75412 12.1653L10.8296 6.08959C10.9357 5.98344 10.9357 5.81186 10.8296 5.7057C10.7234 5.59955 10.5519 5.59955 10.4457 5.7057L4.37023 11.7814L3.07439 11.9253L3.21828 10.6295L9.2943 4.55403C9.40045 4.44787 9.40045 4.27629 9.2943 4.17014C9.18814 4.06398 9.01656 4.06398 8.91041 4.17014L2.83439 10.2456L1.97023 10.3417L9.48597 2.82597L12.1738 5.51376L4.65801 13.0295L4.75412 12.1653ZM13.3254 4.36208L10.6376 1.6743L11.0218 1.29014L13.7096 3.97792L13.3254 4.36208Z" fill="black"/>
</g>
<defs>
<clipPath id="clip0">
<rect width="15" height="15" fill="white"/>
</clipPath>
</defs>
</svg>
