<svg width="82" height="165" viewBox="0 0 82 165" fill="none" xmlns="http://www.w3.org/2000/svg">
<path d="M16.506 1.32841L22.8957 0.531311C22.8957 0.531311 22.8957 0.531311 23.1619 0.531311L16.506 1.32841Z" fill="#C9B551" stroke="black" stroke-width="0.5" stroke-miterlimit="10" stroke-linejoin="round"/>
<path d="M16.7725 1.32841L23.1621 0.531311C23.4283 0.531311 23.4283 0.531311 23.6945 0.797012L17.0387 1.59411C17.0387 1.59411 16.7725 1.59411 16.7725 1.32841Z" fill="#CDB952" stroke="black" stroke-width="0.5" stroke-miterlimit="10" stroke-linejoin="round"/>
<path d="M16.506 1.32841L22.8957 0.531311C23.1619 0.531311 23.4281 0.531311 23.6944 0.797012L17.0385 1.59411C17.0385 1.59411 16.7723 1.32841 16.506 1.32841Z" stroke="black" stroke-width="0.5" stroke-miterlimit="10" stroke-linejoin="round"/>
<path d="M17.038 1.59428L23.4276 0.79718L47.9211 18.5991L41.5315 19.3962L17.038 1.59428Z" fill="#CDB952" stroke="black" stroke-width="0.5" stroke-miterlimit="10" stroke-linejoin="round"/>
<path d="M43.9278 27.3671L50.3174 26.57V28.6956L43.9278 29.4927V27.3671Z" fill="#968846" stroke="black" stroke-width="0.5" stroke-miterlimit="10" stroke-linejoin="round"/>
<path d="M41.5318 19.3961L47.9214 18.599L48.1876 18.8647L41.798 19.6618C41.798 19.3961 41.5318 19.3961 41.5318 19.3961Z" fill="#CDB952" stroke="black" stroke-width="0.5" stroke-miterlimit="10" stroke-linejoin="round"/>
<path d="M41.7982 19.662L48.1878 18.8649C48.1878 19.1306 48.4541 19.1306 48.4541 19.3963L42.0645 20.1934C42.0645 19.9277 41.7982 19.662 41.7982 19.662Z" fill="#C9B551" stroke="black" stroke-width="0.5" stroke-miterlimit="10" stroke-linejoin="round"/>
<path d="M42.0646 19.9274L48.4542 19.1303C48.4542 19.1303 48.7204 19.396 48.7204 19.6617L42.3308 20.4588C42.3308 20.1931 42.3308 20.1931 42.0646 19.9274Z" fill="#C5B251" stroke="black" stroke-width="0.5" stroke-miterlimit="10" stroke-linejoin="round"/>
<path d="M42.3302 20.4588L48.7198 19.6617C48.7198 19.6617 48.7198 19.9274 48.986 19.9274L42.5964 20.7245C42.5964 20.7245 42.3302 20.7245 42.3302 20.4588Z" fill="#C1AE50" stroke="black" stroke-width="0.5" stroke-miterlimit="10" stroke-linejoin="round"/>
<path d="M42.5966 20.7246L48.9862 19.9275C48.9862 19.9275 48.9862 20.1932 49.2524 20.1932L42.8628 21.256C42.5966 20.9903 42.5966 20.9903 42.5966 20.7246Z" fill="#BDAB4F" stroke="black" stroke-width="0.5" stroke-miterlimit="10" stroke-linejoin="round"/>
<path d="M42.863 21.256L49.2526 20.4589C49.2526 20.4589 49.2526 20.7246 49.5188 20.7246L43.1292 21.5217C42.863 21.5217 42.863 21.256 42.863 21.256Z" fill="#B9A74E" stroke="black" stroke-width="0.5" stroke-miterlimit="10" stroke-linejoin="round"/>
<path d="M42.863 21.5218L49.2526 20.7247C49.2526 20.7247 49.2526 20.9904 49.5188 20.9904L43.1292 21.7875C43.1292 21.7875 42.863 21.7875 42.863 21.5218Z" fill="#B5A34D" stroke="black" stroke-width="0.5" stroke-miterlimit="10" stroke-linejoin="round"/>
<path d="M43.1294 22.0531L49.519 21.256C49.519 21.5217 49.519 21.5217 49.519 21.7874L43.1294 22.5845C43.1294 22.3188 43.1294 22.0531 43.1294 22.0531Z" fill="#B1A04C" stroke="black" stroke-width="0.5" stroke-miterlimit="10" stroke-linejoin="round"/>
<path d="M43.1294 22.319L49.519 21.5219C49.519 21.7876 49.519 21.7876 49.519 22.0533L43.1294 22.8504C43.3956 22.5847 43.1294 22.5847 43.1294 22.319Z" fill="#AD9C4B" stroke="black" stroke-width="0.5" stroke-miterlimit="10" stroke-linejoin="round"/>
<path d="M43.3958 22.8503L49.7854 22.0532C49.7854 22.3189 49.7854 22.3189 49.7854 22.5846L43.3958 23.3817C43.3958 23.116 43.3958 23.116 43.3958 22.8503Z" fill="#A9994A" stroke="black" stroke-width="0.5" stroke-miterlimit="10" stroke-linejoin="round"/>
<path d="M43.3958 23.3816L49.7854 22.5845C49.7854 22.8502 49.7854 22.8502 49.7854 23.1159L43.662 23.913C43.3958 23.6473 43.3958 23.3816 43.3958 23.3816Z" fill="#A5964A" stroke="black" stroke-width="0.5" stroke-miterlimit="10" stroke-linejoin="round"/>
<path d="M43.6613 23.9129L50.0509 23.1158C50.0509 23.3815 50.0509 23.6472 50.0509 23.6472L43.6613 24.4443C43.6613 24.1786 43.6613 24.1786 43.6613 23.9129Z" fill="#A19249" stroke="black" stroke-width="0.5" stroke-miterlimit="10" stroke-linejoin="round"/>
<path d="M43.6613 24.4443L50.0509 23.6472C50.0509 23.9129 50.0509 24.1786 50.0509 24.4443L43.6613 25.2414C43.6613 24.9757 43.6613 24.71 43.6613 24.4443Z" fill="#9D8F48" stroke="black" stroke-width="0.5" stroke-miterlimit="10" stroke-linejoin="round"/>
<path d="M43.6613 25.2415L50.0509 24.4444C50.0509 25.2415 50.3172 25.7729 50.3172 26.57L43.9276 27.3671C43.9276 26.57 43.9275 26.0386 43.6613 25.2415Z" fill="#998B47" stroke="black" stroke-width="0.5" stroke-miterlimit="10" stroke-linejoin="round"/>
<path d="M41.5318 19.3961L47.9214 18.599C49.2526 19.6618 50.3175 23.1159 50.3175 26.57L43.9279 27.3671C43.9279 23.913 42.863 20.1932 41.5318 19.3961Z" stroke="black" stroke-width="0.5" stroke-miterlimit="10" stroke-linejoin="round"/>
<path d="M43.9278 29.4928L50.3174 28.6957L76.9408 48.0919L70.5512 48.889L43.9278 29.4928Z" fill="#CDB952" stroke="black" stroke-width="0.5" stroke-miterlimit="10" stroke-linejoin="round"/>
<path d="M72.9471 56.8597L79.3367 56.0626L81.2003 161.014L75.077 161.811L72.9471 56.8597Z" fill="#968846" stroke="black" stroke-width="0.5" stroke-miterlimit="10" stroke-linejoin="round"/>
<path d="M70.5511 48.8886L76.9408 48.0915L77.207 48.3572L70.8174 49.1543C70.8174 48.8886 70.8174 48.8886 70.5511 48.8886Z" fill="#CDB952" stroke="black" stroke-width="0.5" stroke-miterlimit="10" stroke-linejoin="round"/>
<path d="M70.8175 49.1545L77.2071 48.3574C77.2071 48.6231 77.4734 48.6231 77.4734 48.8888L71.0838 49.6859C71.0838 49.4202 71.0838 49.1545 70.8175 49.1545Z" fill="#C9B551" stroke="black" stroke-width="0.5" stroke-miterlimit="10" stroke-linejoin="round"/>
<path d="M71.3495 49.4199L77.7391 48.6228C77.7391 48.6228 78.0054 48.8885 78.0054 49.1542L71.6158 49.9513C71.3495 49.6856 71.3495 49.6856 71.3495 49.4199Z" fill="#C5B251" stroke="black" stroke-width="0.5" stroke-miterlimit="10" stroke-linejoin="round"/>
<path d="M71.6159 49.9513L78.0055 49.1542C78.0055 49.1542 78.0055 49.4199 78.2718 49.4199L71.8821 50.217C71.6159 50.217 71.6159 49.9513 71.6159 49.9513Z" fill="#C1AE50" stroke="black" stroke-width="0.5" stroke-miterlimit="10" stroke-linejoin="round"/>
<path d="M71.6159 50.2171L78.0055 49.42C78.0055 49.42 78.0055 49.6857 78.2718 49.6857L71.8821 50.7485C71.8821 50.4828 71.8821 50.4828 71.6159 50.2171Z" fill="#BDAB4F" stroke="black" stroke-width="0.5" stroke-miterlimit="10" stroke-linejoin="round"/>
<path d="M71.8823 50.7485L78.2719 49.9514C78.2719 49.9514 78.2719 50.2171 78.5382 50.2171L72.1486 51.0142C71.8823 51.0142 71.8823 50.7485 71.8823 50.7485Z" fill="#B9A74E" stroke="black" stroke-width="0.5" stroke-miterlimit="10" stroke-linejoin="round"/>
<path d="M72.1487 51.0143L78.5383 50.2172C78.5383 50.2172 78.5383 50.4829 78.8046 50.4829L72.4149 51.28C72.1487 51.28 72.1487 51.28 72.1487 51.0143Z" fill="#B5A34D" stroke="black" stroke-width="0.5" stroke-miterlimit="10" stroke-linejoin="round"/>
<path d="M72.1487 51.5456L78.5383 50.7485C78.5383 51.0142 78.5383 51.0142 78.5383 51.2799L72.1487 52.077C72.4149 51.8113 72.1487 51.5456 72.1487 51.5456Z" fill="#B1A04C" stroke="black" stroke-width="0.5" stroke-miterlimit="10" stroke-linejoin="round"/>
<path d="M72.4151 51.8115L78.8047 51.0144C78.8047 51.2801 78.8047 51.2801 78.8047 51.5458L72.4151 52.3429C72.4151 52.0772 72.4151 52.0772 72.4151 51.8115Z" fill="#AD9C4B" stroke="black" stroke-width="0.5" stroke-miterlimit="10" stroke-linejoin="round"/>
<path d="M72.4151 52.3428L78.8047 51.5457C78.8047 51.8114 78.8047 51.8114 78.8047 52.0771L72.4151 52.8742C72.4151 52.6085 72.4151 52.6085 72.4151 52.3428Z" fill="#A9994A" stroke="black" stroke-width="0.5" stroke-miterlimit="10" stroke-linejoin="round"/>
<path d="M72.6807 52.8741L79.0703 52.077C79.0703 52.3427 79.0703 52.3427 79.0703 52.6084L72.6807 53.4055C72.6807 53.1398 72.6807 52.8741 72.6807 52.8741Z" fill="#A5964A" stroke="black" stroke-width="0.5" stroke-miterlimit="10" stroke-linejoin="round"/>
<path d="M72.6807 53.4054L79.0703 52.6083C79.0703 52.874 79.0703 53.1397 79.0703 53.1397L72.6807 53.9368C72.6807 53.6711 72.6807 53.4054 72.6807 53.4054Z" fill="#A19249" stroke="black" stroke-width="0.5" stroke-miterlimit="10" stroke-linejoin="round"/>
<path d="M72.6807 53.9368L79.0703 53.1397C79.0703 53.4054 79.0703 53.6711 79.0703 53.9368L72.6807 54.7339C72.9469 54.4682 72.9469 54.2025 72.6807 53.9368Z" fill="#9D8F48" stroke="black" stroke-width="0.5" stroke-miterlimit="10" stroke-linejoin="round"/>
<path d="M72.9471 54.734L79.3367 53.9369C79.3367 54.734 79.6029 55.2654 79.6029 56.0625L73.2133 56.8596C72.9471 56.0625 72.9471 55.2654 72.9471 54.734Z" fill="#998B47" stroke="black" stroke-width="0.5" stroke-miterlimit="10" stroke-linejoin="round"/>
<path d="M70.5511 48.8886L76.9408 48.0915C78.2719 49.1543 79.3369 52.6084 79.3369 56.0625L72.9473 56.8596C72.9473 53.4055 71.8823 49.6857 70.5511 48.8886Z" stroke="black" stroke-width="0.5" stroke-miterlimit="10" stroke-linejoin="round"/>
<path d="M41.5318 19.396C42.863 20.4588 43.9279 23.9129 43.9279 27.367V29.4926L70.5513 48.8888C71.8825 49.9516 72.9474 53.4057 72.9474 56.8598L74.8111 162.077L17.0383 119.831L14.9084 6.37669C14.9084 2.92259 15.9734 0.796984 17.0383 1.85979L41.5318 19.396Z" fill="#C6B251" stroke="black" stroke-width="0.5" stroke-miterlimit="10" stroke-linejoin="round"/>
<path d="M63.0968 58.4539L64.9604 162.077L11.4474 123.285L9.5838 19.6617L63.0968 58.4539Z" fill="#CACACA" stroke="black" stroke-width="0.5" stroke-miterlimit="10" stroke-linejoin="round"/>
<path d="M63.097 58.4541L73.7463 57.1256L75.3437 160.749L64.9606 162.077L63.097 58.4541Z" fill="#999999" stroke="black" stroke-width="0.5" stroke-miterlimit="10" stroke-linejoin="round"/>
<path d="M9.5838 19.6617L20.2332 18.3332L73.7461 57.1254L63.0968 58.4539L9.5838 19.6617Z" fill="#D2D2D2" stroke="black" stroke-width="0.5" stroke-miterlimit="10" stroke-linejoin="round"/>
<path d="M2.12958 32.4153L8.51919 31.6182C8.51919 31.6182 8.51919 31.6182 8.78542 31.6182L2.12958 32.4153C2.12958 32.4153 2.39581 32.4153 2.12958 32.4153Z" fill="#C4A730"/>
<path d="M2.12958 32.4153L8.51919 31.6182C8.51919 31.6182 8.51919 31.6182 8.78542 31.6182L2.12958 32.4153ZM2.12958 32.4153C2.39581 32.4153 2.12958 32.4153 2.12958 32.4153Z" stroke="black" stroke-width="0.5" stroke-miterlimit="10" stroke-linejoin="round"/>
<path d="M2.396 32.4153L8.78561 31.6182C9.05184 31.6182 9.05184 31.6182 9.31807 31.8839L2.92846 32.681C2.66223 32.4153 2.66223 32.4153 2.396 32.4153Z" fill="#C8AA30" stroke="black" stroke-width="0.5" stroke-miterlimit="10" stroke-linejoin="round"/>
<path d="M2.12958 32.4153L8.51919 31.6182C8.78542 31.6182 9.05166 31.6182 9.31789 31.8839L2.92828 32.681C2.66205 32.4153 2.39581 32.4153 2.12958 32.4153Z" stroke="black" stroke-width="0.5" stroke-miterlimit="10" stroke-linejoin="round"/>
<path d="M2.92792 32.6812L9.31753 31.8841L34.3435 49.9517L27.9539 50.7488L2.92792 32.6812Z" fill="#C9AA30" stroke="black" stroke-width="0.5" stroke-miterlimit="10" stroke-linejoin="round"/>
<path d="M30.0841 42.2461L36.4737 41.449C36.4737 41.449 36.4737 41.449 36.7399 41.449L30.0841 42.2461Z" fill="#C4A730" stroke="black" stroke-width="0.5" stroke-miterlimit="10" stroke-linejoin="round"/>
<path d="M30.3505 42.2461L36.7401 41.449C37.0064 41.449 37.0064 41.449 37.2726 41.7147L30.883 42.5118C30.6168 42.2461 30.3505 42.2461 30.3505 42.2461Z" fill="#C8AA30" stroke="black" stroke-width="0.5" stroke-miterlimit="10" stroke-linejoin="round"/>
<path d="M30.0841 42.2461L36.4737 41.449C36.74 41.449 37.0062 41.449 37.2724 41.7147L30.8828 42.5118C30.6166 42.2461 30.3503 41.9804 30.0841 42.2461Z" stroke="black" stroke-width="0.5" stroke-miterlimit="10" stroke-linejoin="round"/>
<path d="M60.1688 159.42L66.5585 158.623C66.5585 161.546 66.026 163.406 64.961 163.406L58.5714 164.203C59.3701 164.203 60.1688 162.343 60.1688 159.42Z" fill="#958130" stroke="black" stroke-width="0.5" stroke-miterlimit="10" stroke-linejoin="round"/>
<path d="M64.961 163.406L58.5714 164.203C59.6364 164.203 60.1688 162.343 60.1688 159.42L66.5585 158.623C66.5585 161.546 65.7598 163.406 64.961 163.406Z" stroke="black" stroke-width="0.5" stroke-miterlimit="10" stroke-linejoin="round"/>
<path d="M30.6169 42.2461L37.0065 41.449L62.2987 59.7824L55.9091 60.5795L30.6169 42.2461Z" fill="#C9AA30" stroke="black" stroke-width="0.5" stroke-miterlimit="10" stroke-linejoin="round"/>
<path d="M58.5714 68.5505L64.961 68.0191L66.5585 158.623L60.1688 159.42L58.5714 68.5505Z" fill="#927F30" stroke="black" stroke-width="0.5" stroke-miterlimit="10" stroke-linejoin="round"/>
<path d="M55.9091 60.5797L62.2987 59.7826L62.565 60.0483L56.1754 60.8454C56.1754 60.8454 56.1754 60.8454 55.9091 60.5797Z" fill="#C8AA30" stroke="black" stroke-width="0.5" stroke-miterlimit="10" stroke-linejoin="round"/>
<path d="M56.4419 60.8456L62.8315 60.0485C62.8315 60.3142 63.0978 60.3142 63.0978 60.5799L56.7082 61.377C56.4419 61.377 56.4419 61.1113 56.4419 60.8456Z" fill="#C4A730" stroke="black" stroke-width="0.5" stroke-miterlimit="10" stroke-linejoin="round"/>
<path d="M56.7075 61.3769L63.0971 60.5798C63.0971 60.5798 63.3633 60.8455 63.3633 61.1112L56.9737 61.9083C56.9737 61.6426 56.7075 61.6426 56.7075 61.3769Z" fill="#C0A330" stroke="black" stroke-width="0.5" stroke-miterlimit="10" stroke-linejoin="round"/>
<path d="M56.9739 61.9082L63.3635 61.1111C63.3635 61.1111 63.3635 61.3768 63.6298 61.3768L57.2401 62.1739C56.9739 62.1739 56.9739 61.9082 56.9739 61.9082Z" fill="#BCA030" stroke="black" stroke-width="0.5" stroke-miterlimit="10" stroke-linejoin="round"/>
<path d="M57.2403 62.1741L63.6299 61.377C63.6299 61.377 63.6299 61.6427 63.8961 61.6427L57.5065 62.4398C57.2403 62.4398 57.2403 62.4398 57.2403 62.1741Z" fill="#B99D30" stroke="black" stroke-width="0.5" stroke-miterlimit="10" stroke-linejoin="round"/>
<path d="M57.2403 62.7054L63.6299 61.9083C63.6299 61.9083 63.6299 62.174 63.8961 62.174L57.5065 62.9711L57.2403 62.7054Z" fill="#B59A30" stroke="black" stroke-width="0.5" stroke-miterlimit="10" stroke-linejoin="round"/>
<path d="M57.5067 62.9708L63.8963 62.1737C63.8963 62.1737 63.8963 62.4394 64.1625 62.4394L57.7729 63.2365C57.5067 63.2365 57.5067 63.2365 57.5067 62.9708Z" fill="#B19730" stroke="black" stroke-width="0.5" stroke-miterlimit="10" stroke-linejoin="round"/>
<path d="M57.5067 63.5026L63.8963 62.7055C63.8963 62.9712 63.8963 62.9712 63.8963 63.2369L57.7729 63.7683C57.7729 63.7683 57.7729 63.5026 57.5067 63.5026Z" fill="#AD9430" stroke="black" stroke-width="0.5" stroke-miterlimit="10" stroke-linejoin="round"/>
<path d="M57.7731 63.768L64.1627 62.9709C64.1627 63.2366 64.1627 63.2366 64.1627 63.5023L57.7731 64.2994C57.7731 64.0337 57.7731 64.0337 57.7731 63.768Z" fill="#A99130" stroke="black" stroke-width="0.5" stroke-miterlimit="10" stroke-linejoin="round"/>
<path d="M57.7731 64.2993L64.1627 63.5022C64.1627 63.7679 64.1627 63.7679 64.1627 64.0336L57.7731 64.8307C58.0393 64.565 57.7731 64.2993 57.7731 64.2993Z" fill="#A58E30" stroke="black" stroke-width="0.5" stroke-miterlimit="10" stroke-linejoin="round"/>
<path d="M58.0387 64.8311L64.4283 64.034C64.4283 64.2997 64.4283 64.2997 64.4283 64.5654L58.0387 65.3625C58.0387 65.0968 58.0387 64.8311 58.0387 64.8311Z" fill="#A18A30" stroke="black" stroke-width="0.5" stroke-miterlimit="10" stroke-linejoin="round"/>
<path d="M58.0387 65.0965L64.4283 64.2994C64.4283 64.5651 64.4283 64.8308 64.4283 64.8308L58.0387 65.6279C58.0387 65.6279 58.0387 65.3622 58.0387 65.0965Z" fill="#9D8730" stroke="black" stroke-width="0.5" stroke-miterlimit="10" stroke-linejoin="round"/>
<path d="M58.3051 65.8937L64.6947 65.0966C64.6947 65.3623 64.6947 65.628 64.6947 65.8937L58.3051 66.6908C58.3051 66.4251 58.3051 66.1594 58.3051 65.8937Z" fill="#998430" stroke="black" stroke-width="0.5" stroke-miterlimit="10" stroke-linejoin="round"/>
<path d="M58.3051 66.6909L64.6947 65.8938C64.6947 66.6909 64.9609 67.2223 64.9609 68.0194L58.5713 68.5508C58.5713 68.0194 58.3051 67.2223 58.3051 66.6909Z" fill="#958130" stroke="black" stroke-width="0.5" stroke-miterlimit="10" stroke-linejoin="round"/>
<path d="M55.9091 60.5797L62.2987 59.7826C63.6299 60.8454 64.6948 64.2995 64.6948 67.7536L58.5715 68.5507C58.3052 65.0966 57.2403 61.6425 55.9091 60.5797Z" stroke="black" stroke-width="0.5" stroke-miterlimit="10" stroke-linejoin="round"/>
<path d="M55.9088 60.5794C57.24 61.6422 58.3049 65.0963 58.3049 68.5504L60.1685 159.42C60.1685 162.874 59.1036 165 58.0387 163.937L4.79191 125.41C3.46074 124.347 2.3958 120.893 2.3958 117.439L0.798401 37.1977C0.798401 33.7436 1.86334 31.618 2.92827 32.6808L27.9542 50.7485L28.7529 44.9031C29.0192 42.5117 29.8179 41.7146 30.8828 42.246L55.9088 60.5794Z" fill="#C1A430" stroke="black" stroke-width="0.5" stroke-miterlimit="10" stroke-linejoin="round"/>
</svg>
