<svg height="512pt" viewBox="0 0 512 512" width="512pt" xmlns="http://www.w3.org/2000/svg"><path d="m437.019531 74.980469c-48.351562-48.351563-112.636719-74.980469-181.019531-74.980469s-132.667969 26.628906-181.019531 74.980469c-48.351563 48.351562-74.980469 112.636719-74.980469 181.019531 0 68.378906 26.628906 132.667969 74.980469 181.019531 48.351562 48.351563 112.640625 74.980469 181.019531 74.980469 68.382812 0 132.667969-26.628906 181.019531-74.980469 48.351563-48.351562 74.980469-112.640625 74.980469-181.019531 0-68.382812-26.628906-132.667969-74.980469-181.019531zm-245.285156 308.484375c-70.285156 0-127.46875-57.179688-127.46875-127.464844s57.183594-127.46875 127.46875-127.46875c34.046875 0 66.054687 13.261719 90.128906 37.335938 5.859375 5.855468 5.855469 15.355468 0 21.210937-5.859375 5.859375-15.355469 5.855469-21.214843 0-18.40625-18.40625-42.878907-28.546875-68.914063-28.546875-53.746094 0-97.46875 43.726562-97.46875 97.46875s43.722656 97.464844 97.46875 97.464844c48.644531 0 89.074219-35.820313 96.3125-82.464844h-96.3125c-8.285156 0-15-6.714844-15-15s6.714844-15 15-15h112.464844c8.285156 0 15 6.714844 15 15 0 70.285156-57.179688 127.464844-127.464844 127.464844zm241-112.464844h-17.132813v17.132812c0 8.285157-6.714843 15-15 15-8.285156 0-15-6.714843-15-15v-17.132812h-17.132812c-8.285156 0-15-6.714844-15-15s6.714844-15 15-15h17.132812v-17.132812c0-8.285157 6.714844-15 15-15 8.285157 0 15 6.714843 15 15v17.132812h17.132813c8.285156 0 15 6.714844 15 15s-6.714844 15-15 15zm0 0"/></svg>