<svg width="492" height="296" viewBox="0 0 492 296" fill="none" xmlns="http://www.w3.org/2000/svg">
<path d="M110.196 0.339546C101.461 1.81468 92.7877 4.8879 84.6063 8.26842C65.9675 15.9514 48.682 27.0764 34.8413 41.8277C15.9564 61.8035 4.88384 87.434 1.31602 114.601C-1.7597 137.896 0.393302 160.576 9.49741 182.334C18.7861 204.646 33.9801 224.314 52.988 239.25C77.4706 258.55 107.367 269.675 138.062 274.346C156.024 277.051 174.048 277.235 192.195 277.235C208.434 277.235 224.613 277.235 240.852 277.235C275.731 277.235 310.61 277.235 345.488 277.235C375.876 277.235 406.203 277.235 436.591 277.235C452.769 277.235 468.947 277.235 485.125 277.235C485.864 277.235 486.602 277.235 487.34 277.235C489.308 277.235 489.308 274.162 487.34 274.162C476.39 274.162 465.379 274.162 454.43 274.162C427.487 274.162 400.543 274.162 373.6 274.162C339.644 274.162 305.688 274.162 271.733 274.162C239.376 274.162 207.02 274.469 174.725 274.162C140.461 273.793 105.583 267.278 75.3792 250.437C52.8649 237.898 33.6725 219.828 20.57 197.578C10.2971 180.122 3.59204 160.084 3.03841 139.801C2.17722 110.852 9.37438 81.2262 26.1063 57.3781C38.5321 39.6765 55.6946 25.7242 74.9485 16.0129C85.7751 10.5426 97.4012 6.11718 109.273 3.65862C109.889 3.53569 110.442 3.41274 111.057 3.28981C112.964 2.98249 112.165 0.0322258 110.196 0.339546Z" fill="#5392A8"/>
<path d="M475.16 267.893C479.897 271.089 484.572 274.285 489.308 277.481C489.308 276.62 489.308 275.698 489.308 274.838C484.572 277.604 479.897 280.308 475.16 283.074C473.438 284.057 474.976 286.7 476.698 285.717C481.435 282.951 486.11 280.247 490.846 277.481C491.892 276.866 491.769 275.453 490.846 274.838C486.11 271.642 481.435 268.446 476.698 265.25C475.037 264.143 473.499 266.786 475.16 267.893Z" fill="#5392A8"/>
</svg>
