<svg width="177" height="22" viewBox="0 0 177 22" fill="none" xmlns="http://www.w3.org/2000/svg">
<path d="M2.02443 12.8697C46.3762 12.8697 90.7895 12.8697 135.141 12.8697C147.752 12.8697 160.362 12.8697 173.034 12.8697C175.002 12.8697 175.002 9.79651 173.034 9.79651C128.682 9.79651 84.2689 9.79651 39.9172 9.79651C27.3068 9.79651 14.6964 9.79651 2.02443 9.79651C-0.00553936 9.79651 -0.00553936 12.8697 2.02443 12.8697Z" fill="#5392A8"/>
<path d="M160.362 3.1584C165.099 6.35452 169.774 9.55065 174.51 12.7468C174.51 11.8863 174.51 10.9643 174.51 10.1038C169.774 12.8697 165.099 15.5741 160.362 18.34C158.64 19.3234 160.178 21.9664 161.9 20.983C166.637 18.2171 171.312 15.5127 176.048 12.7468C177.094 12.1321 176.971 10.7185 176.048 10.1038C171.312 6.9077 166.637 3.71158 161.9 0.515453C160.301 -0.590898 158.763 2.05205 160.362 3.1584Z" fill="#5392A8"/>
</svg>
