<?xml version="1.0" encoding="iso-8859-1"?>
<!-- Generator: Adobe Illustrator 18.0.0, SVG Export Plug-In . SVG Version: 6.00 Build 0)  -->
<!DOCTYPE svg PUBLIC "-//W3C//DTD SVG 1.1//EN" "http://www.w3.org/Graphics/SVG/1.1/DTD/svg11.dtd">
<svg version="1.1" id="Capa_1" xmlns="http://www.w3.org/2000/svg" xmlns:xlink="http://www.w3.org/1999/xlink" x="0px" y="0px"
	 viewBox="0 0 276.991 276.991" style="enable-background:new 0 0 276.991 276.991;" xml:space="preserve">
<g>
	<circle fill="#E99F2F" cx="138.495" cy="207.653" r="41.494"/>
	<path  fill="#E99F2F" d="M138.495,97c-35.658,0-69.337,17.345-90.09,46.397c-5.921,8.288-4.001,19.806,4.286,25.726
		c8.287,5.922,19.807,4.001,25.726-4.286c13.846-19.383,36.305-30.954,60.078-30.954c23.773,0,46.232,11.571,60.078,30.954
		c3.6,5.039,9.268,7.724,15.021,7.724c3.709,0,7.455-1.116,10.704-3.438c8.287-5.92,10.207-17.438,4.286-25.726
		C207.831,114.345,174.153,97,138.495,97z"/>
	<path fill="#E99F2F" d="M272.266,87.509c-34.077-37.918-82.835-59.665-133.771-59.665S38.801,49.592,4.725,87.512
		c-6.808,7.575-6.186,19.235,1.391,26.043c3.522,3.166,7.929,4.726,12.32,4.726c5.051-0.001,10.081-2.063,13.723-6.116
		c27.092-30.146,65.85-47.438,106.336-47.438c40.487,0,79.246,17.29,106.338,47.437c6.809,7.575,18.47,8.197,26.044,1.39
		C278.452,106.745,279.074,95.084,272.266,87.509z"/>
</g>
<g>
</g>
<g>
</g>
<g>
</g>
<g>
</g>
<g>
</g>
<g>
</g>
<g>
</g>
<g>
</g>
<g>
</g>
<g>
</g>
<g>
</g>
<g>
</g>
<g>
</g>
<g>
</g>
<g>
</g>
</svg>
